<?xml version="1.0" encoding="utf-8"?>
<!-- Generator: Adobe Illustrator 24.0.2, SVG Export Plug-In . SVG Version: 6.00 Build 0)  -->
<svg version="1.1"
	 id="svg8" inkscape:version="1.0 (4035a4fb49, 2020-05-01)" sodipodi:docname="Intel Core i9 2020 logo.svg" xmlns:cc="http://creativecommons.org/ns#" xmlns:dc="http://purl.org/dc/elements/1.1/" xmlns:inkscape="http://www.inkscape.org/namespaces/inkscape" xmlns:rdf="http://www.w3.org/1999/02/22-rdf-syntax-ns#" xmlns:sodipodi="http://sodipodi.sourceforge.net/DTD/sodipodi-0.dtd" xmlns:svg="http://www.w3.org/2000/svg"
	 xmlns="http://www.w3.org/2000/svg" xmlns:xlink="http://www.w3.org/1999/xlink" x="0px" y="0px" viewBox="0 0 793.9 256.5"
	 style="enable-background:new 0 0 793.9 256.5;" xml:space="preserve">
<style type="text/css">
	.st0{fill:#FFFDFD;}
</style>
<sodipodi:namedview  bordercolor="#666666" borderopacity="1.0" fit-margin-bottom="0" fit-margin-left="0" fit-margin-right="0" fit-margin-top="0" id="base" inkscape:current-layer="layer1" inkscape:cx="607.13383" inkscape:cy="725.29441" inkscape:document-rotation="0" inkscape:document-units="mm" inkscape:pageopacity="0.0" inkscape:pageshadow="2" inkscape:window-height="705" inkscape:window-maximized="1" inkscape:window-width="1366" inkscape:window-x="-8" inkscape:window-y="-8" inkscape:zoom="0.29698485" pagecolor="#ffffff" showgrid="false" showguides="false">
	</sodipodi:namedview>
<path id="path847" class="st0" d="M2.8,208.1v-39.9l52.7-0.3l52.7-0.3l0.3-12.2c0.2-8.1-0.1-12.6-0.8-13.5
	c-0.9-1.1-9.9-1.4-52.9-1.4h-52v-12.8v-12.8h54.1c33.8,0,55.5,0.4,57.7,1c6.2,1.7,12.5,6.9,15.8,12.8l3,5.4v20.7
	c0,23.1-0.2,23.9-7.1,31.4c-4.3,4.6-7.3,6.2-13.7,7.6l-4.9,1.1l2.3,4.1c5.8,10.4,25.4,44.7,26.7,46.7l1.4,2.2h-14.9h-14.9l-5.4-9.6
	c-3-5.3-9.7-17.2-15-26.6l-9.6-17h-25h-25v26.6v26.6H15.4H2.8V208.1z M214.4,221.7v-26.2l-10.9-15.4c-6-8.5-18.9-26.6-28.6-40.3
	l-17.7-24.9H173h15.8l18.4,26.1c10.1,14.3,18.8,26.1,19.4,26.1c0.5,0,9.3-11.7,19.4-26l18.4-26.1h15.9c12.6,0,15.7,0.2,15,1.2
	c-0.5,0.7-6.8,9.4-13.9,19.5c-14.4,20.1-31.1,43.6-37.6,52.6l-4.2,5.8V221v26.9H227h-12.6V221.7z M324.1,234.4l0.1-13.5l45.1-39.3
	c24.8-21.6,45.1-39.7,45.1-40.1c0-0.5-20.3-0.8-45.1-0.8h-45.1v-12.8v-12.8h65h65v13.7c0,7.5-0.4,13.9-0.8,14
	c-1.7,0.6-89.4,78-89.4,78.8c0,0.5,20.3,0.8,45.1,0.8h45.1v12.8V248h-65h-65L324.1,234.4L324.1,234.4z M492,208v-39.9h65h65v13.3
	v13.3h-52.4h-52.4l0.3,13.5l0.3,13.5L570,222l52.2,0.3v12.8v12.8h-65h-65V208H492z M662.9,181.4v-66.5h13h13l8.1,9.6
	c37.1,44,70.1,82.6,70.8,82.9c0.5,0.2,0.8-20.3,0.8-46.1v-46.4h12.6h12.6v66.5v66.5h-13h-13l-39-46.1
	c-21.4-25.3-39.4-46.2-39.9-46.4c-0.6-0.2-0.9,17.7-0.9,46.1v46.4h-12.6h-12.6v-66.5H662.9z M492,127.8V115h65h65v12.8v12.8h-65h-65
	V127.8z M224.1,65.4V51.3l9.7-9.8l9.7-9.8v14v14h13.3h13.3l-9.7,9.9l-9.7,9.9h-13.4h-13.4V65.4H224.1z M284.5,68.4l-9-9.1v-16v-16
	h-15.8H244l-9.2-9.4l-9.2-9.4h34.2H294V43c0,19-0.1,34.5-0.3,34.5C293.6,77.5,289.4,73.4,284.5,68.4z M11.7,45.3
	c6.4-16.1,11.9-29.9,12.2-30.6c0.4-0.9,2.8-1.2,9.2-1l8.7,0.3l13,29.6c7.1,16.3,13,29.9,13,30.3s-3.4,0.7-7.6,0.7h-7.6l-2.4-6.2
	l-2.4-6.2h-14h-14l-2.3,6.2l-2.3,6.2H7.6H0L11.7,45.3z M42.6,49.7c-4-10.4-8.7-20.9-9.4-21.1s-3.5,6.9-8.9,22.1
	c-0.3,0.9,1.9,1.2,9.4,1.2C43.5,51.9,43.5,51.9,42.6,49.7z M76.6,44V13.5h6.2H89l9.5,11.3c5.2,6.2,9.7,11.3,10,11.3s4.8-5.1,10-11.3
	l9.5-11.3h6.2h6.2V44v30.5h-6.8H127V55.3c0-10.6-0.4-19.2-0.8-19.2s-4.3,4.2-8.5,9.3c-4.2,5.1-8.3,9.3-9.1,9.3
	c-0.8,0-4.9-4.2-9.1-9.3c-4.2-5.1-8-9.3-8.5-9.3s-0.8,8.6-0.8,19.2v19.2h-6.8h-6.8C76.6,74.5,76.6,44,76.6,44z M153.2,43.9V13.3
	l18.7,0.3l18.7,0.3l6.5,3.3c3.7,1.8,7.6,4.7,8.9,6.5c9.3,12.3,8.9,30.6-0.7,40.9c-7,7.5-17.1,10-39.6,10h-12.5L153.2,43.9
	L153.2,43.9z M187,62.2c4.6-2,6.8-4,9.1-8.5c2.2-4.4,2.5-14.1,0.5-18.9c-3-7.4-11.1-11.4-22.6-11.4h-6.1v20.2v20.2h7.8
	C180.4,63.7,184.8,63.1,187,62.2L187,62.2z"/>
</svg>
