<?xml version="1.0" encoding="utf-8"?>
<!-- Generator: Adobe Illustrator 24.0.2, SVG Export Plug-In . SVG Version: 6.00 Build 0)  -->
<svg version="1.1" id="Layer_1" xmlns="http://www.w3.org/2000/svg" xmlns:xlink="http://www.w3.org/1999/xlink" x="0px" y="0px"
	 viewBox="0 0 76.3 26.7" style="enable-background:new 0 0 76.3 26.7;" xml:space="preserve">
<style type="text/css">
	.st0{fill:#FFFFFF;}
</style>
<path class="st0" d="M37.1,25.2c6.2,0,10.7-1.4,10.7-8.5v-6.5c0-7.1-4.4-8.4-10.7-8.4c-6.2,0-10.7,1.4-10.7,8.4v6.5
	C26.4,23.9,30.8,25.2,37.1,25.2z M37.1,19.9c-3.2,0-4.2-0.3-4.3-3.8v-5.2c0.1-3.4,1.1-3.7,4.3-3.7c3.2,0,4.3,0.3,4.3,3.7v5.2
	C41.4,19.5,40.3,19.9,37.1,19.9"/>
<path class="st0" d="M70.3,16.3V17c0,2.5,0,4.8-2.1,6.5c-2.1,1.7-4.6,1.7-7.3,1.7c-6.3,0-10.9-0.3-10.9-8.7v-6
	c0-7.6,4.1-8.7,10.8-8.7c6.3,0,9.3,0.6,9.4,7.6v0.9H64V9.4c-0.2-2.1-1.7-2.2-3.8-2.2c-3.5,0-3.8,1.1-3.8,4.4v3.6
	c0,3.4,0.2,4.8,3.8,4.8c2.6,0,3.8-0.2,3.8-2.9v-0.7L70.3,16.3L70.3,16.3z"/>
<path class="st0" d="M7.3,25l6.7-14.6c1.1-2.4,1.7-3.1,4.1-3.1v6.5v5.3V25h6.1V2h-6.9c-5.7,0-6.9,2.4-9.6,8.5L1,25H7.3z"/>
<path class="st0" d="M73.1,3.8V3.1h0.5c0.2,0,0.5,0,0.5,0.3c0,0.3-0.3,0.4-0.5,0.4C73.5,3.8,73.1,3.8,73.1,3.8z M73.1,4.1h0.4l0.6,1
	h0.4l-0.6-1c0.3,0,0.6-0.2,0.6-0.6c0-0.4-0.3-0.6-0.8-0.6h-0.8V5h0.3V4.1 M73.5,5.8c1,0,1.9-0.8,1.9-1.9c0-1.1-0.9-1.9-1.9-1.9
	c-1,0-1.9,0.8-1.9,1.9C71.6,5,72.5,5.8,73.5,5.8 M72,3.9c0-0.9,0.7-1.6,1.5-1.6c0.9,0,1.5,0.7,1.5,1.6c0,0.9-0.7,1.6-1.5,1.6
	C72.7,5.5,72,4.8,72,3.9"/>
</svg>
