<?xml version="1.0" encoding="utf-8"?>
<!-- Generator: Adobe Illustrator 24.0.2, SVG Export Plug-In . SVG Version: 6.00 Build 0)  -->
<svg version="1.1"
	 id="Capa_1" text-rendering="geometricPrecision" shape-rendering="geometricPrecision" image-rendering="optimizeQuality"
	 xmlns="http://www.w3.org/2000/svg" xmlns:xlink="http://www.w3.org/1999/xlink" x="0px" y="0px" viewBox="0 0 2500 975"
	 style="enable-background:new 0 0 2500 975;" xml:space="preserve">
<style type="text/css">
	.st0{fill-rule:evenodd;clip-rule:evenodd;fill:#A6A6A6;}
	.st1{fill-rule:evenodd;clip-rule:evenodd;fill:#DB241D;}
	.st2{fill-rule:evenodd;clip-rule:evenodd;fill:#FFFDFE;}
</style>
<path class="st0" d="M1991.8,448.1c-7.5,2-53.2-13.7-65.9-17.1c-54.7-14.6-142.8-28.7-200.5-30.4c-1.8-0.1-14.1,0.3-15-1.9
	c-0.2-0.6-0.9-0.4-1.3-0.7c-3.9,2.7,1.7,1.2-6.8,1.9c-2.8,0.2-7.7-0.2-10.7-0.3c-25.2-1-121,1.4-134,7.1c6.3,2.3,68.6,7.5,82.2,9.4
	c146.5,21,288.9,70.7,415.6,144.2c10.8,6.2,52.4,30.1,57.4,36c-8.8,8.1-30.7,19.1-42.4,26.1c-169.5,101.3-408.1,154-603.9,176
	c-61.9,6.9-135.8,11.6-198.9,13.4c-22.3,0.6-47.7-0.1-69.5,1.9c4.6-0.5,53.3,6.5,64.5,7.6c161.8,15.3,332.7,14.7,492.8-8.7
	c124.8-18.2,234.6-48,344.1-102.5c35.9-17.9,64-37.1,93.6-57c10.7,5,43.1,33.1,54.9,42.6c4.4,3.5,5.9,5.6,10.4,9.1L2279,723
	c7.6,8.2,13,11.5,20.6,18.4c6.7,6.1,12.6,13.2,19.4,19.5l28.9,29.6c3.7,4,7.3,6.2,11.1,10.1l36.9,41.1c33.1,40.3,54.6,66.1,85,110
	c3,4.3,12.3,20.1,16,23.3c-4.9-20.6-33.6-87.6-43.7-109c-46-97.6-77-133.8-137.9-207.6l-29.4-29c-3.7-3.5-5.5-6.5-9.2-10.3
	c-7.1-7.2-14-9.3-20.6-19.2l30.1-32.7c31.5-35.8,53.6-71.5,75.5-115.9c27.1-55,47.9-134.9,51.7-203.3l-19.8,47.4
	c-23.4,50-55.4,98.2-90,138.6l-118,112l-44.4-27.2c-46.2-26.5-75.3-40.4-125-59.4c-5-1.9-8.5-3.3-13-4.8c-1.2-0.4-6.3-1.9-6.8-2.1
	C1988.7,449.3,1991.5,453.3,1991.8,448.1L1991.8,448.1z"/>
<path class="st1" d="M1291.8,382.1c5.2,1.7,36.1,18.2,39.5,22.8c-9.3,5.4-24.1,10.3-34.4,14.7c-21.1,9-17.2,3.2-23.9,25.7
	c-5.3,17.8-20.9,61.7-22.3,76.1l381.6-0.2l18.3-60.7l-286.3-0.3l123.2-52.9c-8.4-8.5-82.3-45.2-92.8-53.1c-2.2-1.6-1.8-1.3-3.2-2.9
	l291.7-0.1l18.4-61.2l-382.2,0L1291.8,382.1z M829.5,521.4l84.2,0.2l51.4-170.1c58.5-2.5,149.3,0.3,212.8-0.4
	c-5.8,25.2-9.5,20.9-32.6,30.5c-9.6,4-37.8,17.1-45.8,18.3l-127.2,0.3c-5.1,13.2-15.9,47.2-18.2,61.3c41.2-0.7,82.9-0.1,124.2-0.1
	c48.7,0,46.5-3.5,98.1-25.7c15-6.5,28.8-12.1,43.6-18.5c35.9-15.4,22.8-1.3,46.3-77.6c4.5-14.5,11.8-35.2,14.4-49.8L899,289.8
	L829.5,521.4L829.5,521.4z M1709,398c0.4,0.3,1.1,0.1,1.3,0.7c0.9,2.2,13.2,1.9,15,1.9c57.7,1.7,145.8,15.7,200.5,30.4
	c12.7,3.4,58.4,19,65.9,17.1c16.3-7,33.7-13.8,50.3-20.4l37.8-15.4c7.7-3.1,7.3-1.7,9.9-9.6c6-18.1,11.2-37.5,16.6-56
	c5.2-17.6,13.8-40,16.5-57l-381.8,0.1L1709,398L1709,398z M470.1,348.7l96.1,82.6c3,2.8,4.9,3.8,7.9,6.4c5.3,4.7,11,9.1,14.8,12.9
	l-20.8,70.5l84.3,0.3c4.6-14.1,8.5-28.2,12.8-42.2c7-22.5,2.3-23.4,22.2-34.5l142.1-81.2c19.8-11.6,20.3-5.8,27.2-29.5
	c3.8-12.9,10.9-31.6,12.8-44.4l-84,0c-13.1,40.5,2.3,23.6-61.5,60.4c-12.7,7.3-70.9,42.4-80.5,44.4c-3.8-4.6-3.7-4.9-8.7-8.7
	l-72.3-61.6l9.8-34.3l-84.5-0.1L470.1,348.7L470.1,348.7z M344.1,374.8l-191.2,0.4l-18.7,60.7l191.2,0.5l-25.1,84.7l84.4,0.3
	L454,290.4l-84.4-0.6L344.1,374.8L344.1,374.8z M3.1,521.3l83.8,0.2l69.4-231.2l-82.9-0.5C71.4,293.1,4.2,512.8,3.1,521.3L3.1,521.3
	z M1793.2,400.2c45.8-0.2,91.7-0.2,137.5,0c25.2,0.1,50.3-13,76.8-24.8c8.7-3.9,9.1-7.3,12.6-24.3l-209.9,0.1
	C1804.2,352.8,1794.2,395,1793.2,400.2L1793.2,400.2z M1671.8,521.3l7.3,0.3l70.9,0l6.2-0.3l17.5-57.7
	c-10.3-6.3-63.9-17.4-78.9-19.5L1671.8,521.3L1671.8,521.3z"/>
<path class="st2" d="M556.6,178.9c5.4,20,4.8,48-8.7,66.2c-4.6,6.2-10.8,8-11,13.7c16.6-2.4,37.4-12.7,46.9-22.1
	c15.1-15,18.1-25.7,18-53.1c-0.1-23.6,0-47.3,0-70.9c0-14.8-2.8-36.7,7.6-45.4c2.9-2.4,9.1-4.5,12.8-6c-5.3-2.2-53.8-1.6-62-0.6
	l-0.7,11c-9.5-7.4-28.3-30.1-57-1.4C454.9,117.7,483,216.8,535.5,199C549.5,194.3,548.4,189.5,556.6,178.9L556.6,178.9z M67.2,3.6
	c7,7.5,10.8,2.3,16.6,13.5c8.8,16.9,9.8,156,0.1,169.8c-5.4,7.7-12.1,5.4-18.6,10.3c9,2,53.2,0.8,68.4,0.9c6,0,18.3,2,22.8-2.2
	c-19-4.6-25.4-1.5-25.6-35.4c-0.1-19.1-1.1-42.5,0.3-61.1c21.9-4.3,30.2,19.3,34.9,35.9c4.8,17.2,9.8,44,12.1,62.5l67.3,0.2
	c-2.1-2.8,0.1-0.7-3-2.7c-1.5-0.9-3.1-1.6-4.8-2.4c-37.8-18.9,4.3-93.8-97.7-99.2c0.8-4.5,18.5-20.1,22.1-23.7
	c20.5-20.6,28-30.4,50.6-46.9c12.3-8.9,29.7-16.7,30.9-18.7c-6.3-2.7-68.5-2.5-74.6,0c5.1,7.9,19.3,2,16.6,22.9
	c-2.6,20.3-48.5,64.9-54.2,64.6c-1.4-12.4-3.3-67.1,4.7-78.1c7.5-10.4,16.6-3.5,18.4-10.4L67.2,3.6L67.2,3.6z M852.1,57.3
	c-31.1,6.7-60.4,40.7-56.3,81.2c3.4,33.6,36.1,69.2,75.8,61.5c31.5-6.1,62.1-42.3,56-82C922.7,86.2,890,49,852.1,57.3L852.1,57.3z
	 M980.2,74.2l-0.1-15.6l-57.4,0.6c-15-0.1,14-0.6,15.3,25c0.8,15.4,2.3,93.5-3.5,104.3c-4.5,8.5-6.6,7.9-12.9,9.1
	c4.7,2.6,62.1,2,72.4,0.8c-2.3-6.7-12.5,2.8-13.8-27.3c-0.6-14.4-0.2-29.8-0.2-44.4c0-24.4-5.5-67.9,26.9-61.4
	c13.2,11.4,8,48.2,8,68.5c0,12.8,0.4,26.3-0.1,39c-0.5,12.7-0.5,17.1-7.1,21.6c-8.5,5.9-3.7-0.5-5.2,4.2c12.3-0.1,66.7,1.9,73.3-1.1
	c-12.7-9.5-16.6,4.9-16.6-46.1c0-42.1,8.4-91.1-34.4-95.2C990.1,52.9,990.2,68,980.2,74.2L980.2,74.2z M390,74.2l-0.2-15.5l-47,0
	c-6.5-0.1-10.5-0.7-14.1,2.5c23.4,12.2,19.1,4.6,19.1,67.3c0,13.1,1.9,49.6-3.5,60c-3.8,7.2-7.8,5.1-12.8,9.1
	c4.4,2.1,68.1,2.1,72.5,0c-5.8-4.8-13,1.6-14-26.5c-0.5-13.3-0.1-27.4-0.1-40.8c0-22.3-4.6-61.7,17.2-65.4
	c25.2-4.3,17.6,45.4,17.6,63.7c0,10.3,3.3,58.5-5.7,65.4c-1.4,1.1-1.9,1.1-3.4,1.9l-3.6,1.8c5.5,2.1,68.5,2.4,73.6,0
	c-8.4-6.3-12.4,0.9-15.6-15.6c-7.7-40.6,18.2-120.3-35.4-125.7C409.3,53.8,401.1,62.5,390,74.2L390,74.2z M628.8,154.3l-19.8-0.7
	c0.9,48.5,78.1,64.1,105.5,24.1c7.9-11.5,12.1-32.7,2.8-46.4C702,109,653.5,105.5,644.7,87c-15.4-32.4,51.2-45.8,50.4,6.4l17-0.1
	c-2.8-48.8-86.5-50.5-96.1-1.8c-13,66,93.3,50.6,70.3,93.3C678.9,198.7,630.6,214.5,628.8,154.3L628.8,154.3z M710.7,69l22.6,0.1
	c2.8,25.5-3.9,90.6,3.1,108.9c12.9,33.4,71,20.1,73.8,4.2c-9.5,4.3-17.5,9.8-26.5-0.2c-6.4-7.1-7.9-18.9-7.9-30.5l0.3-82.3l24.1-0.5
	l3.7-10.1l-27.7-0.1l-0.5-42.5c-7.3,2.8-7.5,6.1-14.9,14.8c-4.9,5.7-9.5,8.7-14.8,13.6L710.7,69L710.7,69z M247.8,58.8
	c2.2,7,6,2.2,12.8,8.3c3.7,3.4,5.6,10.2,6.4,18.3c1.7,16,1,92.9-3.6,102c-2.9,5.8-5.7,6.3-11.8,9.5c-0.3,0.1-0.8,0.4-1.2,0.6
	c6,2.2,72.1,2.5,77.4,0c-8.7-6.3-15.6,1.5-18.7-19.6L307.7,59L247.8,58.8z M855.4,60.8c-20.6,9.4-15.6,52.1-15.5,76.6
	c0.1,21.1-0.8,73,31.3,58.9c18.5-8.1,14.3-53.9,14.4-76.6C885.7,98.1,885.8,46.9,855.4,60.8L855.4,60.8z M533.8,62.1
	c-14.6,8.2-13.1,53-13.1,71.6c0,95.2,42.3,67.8,40-14.2c-0.4-12.7-0.4-26.8-3.5-38.7C554.7,71.7,546.5,55.1,533.8,62.1L533.8,62.1z
	 M281.8,8c-30.2,9.4-15.2,49.7,12.1,41.4C321.2,41.1,307.5,0,281.8,8z"/>
</svg>
