<?xml version="1.0" encoding="utf-8"?>
<!-- Generator: Adobe Illustrator 24.0.2, SVG Export Plug-In . SVG Version: 6.00 Build 0)  -->
<svg version="1.1" id="Layer_1" xmlns="http://www.w3.org/2000/svg" xmlns:xlink="http://www.w3.org/1999/xlink" x="0px" y="0px"
	 viewBox="0 0 141.7 44" style="enable-background:new 0 0 141.7 44;" xml:space="preserve">
<style type="text/css">
	.st0{fill:#E31B38;}
	.st1{fill:#BCBEC0;}
	.st2{fill:#FFFFFF;}
</style>
<g>
	<path class="st0" d="M32.1,17.2H37c0,0,1-3.6,1.1-4c0.3-0.1,10.2-5.7,10.2-5.7l1-3.4h-4.8c0,0-0.4,1.4-0.5,1.7
		c-0.3,0.1-7.1,4.1-7.5,4.2c-0.3-0.3-4.3-3.7-4.7-4.1c0.1-0.4,0.5-1.9,0.5-1.9h-0.4h-4.3l-1,3.3c0,0,6.4,5.5,6.8,5.9
		C33.2,13.6,32.1,17.2,32.1,17.2"/>
	<path class="st0" d="M72.4,11.9l-1.7,5.4h21.7l1-3.4H77.2c1-0.4,7.3-3.1,7.3-3.1s-5-2.8-5.6-3.2h16.7l1-3.4h-0.4H74.9l-1.5,5.2
		c0,0,1.5,0.9,2.3,1.3C74.6,11,72.4,11.9,72.4,11.9"/>
	<polygon class="st0" points="8.7,4.1 4,4.1 0,17.2 4.7,17.2 	"/>
	<path class="st0" d="M25.1,4.1h-4.3c0,0-1.3,4.3-1.4,4.8H8.5l-1,3.4h10.8c-0.3,0.9-1.4,4.8-1.4,4.8h4.8l4-13.1H25.1z"/>
	<path class="st0" d="M54.7,7.5h12.1c-0.1,0.3-0.3,0.9-0.4,1.1c-0.3,0.1-4,1.7-4.1,1.7h-7.3l-1,3.4h9.2l7.5-3.2l1.9-6.6h-0.4H50.9
		l-4,13.1h4.8L54.7,7.5z"/>
	<path class="st0" d="M96.2,12.7l-1.3,4.3h4.8c0,0,0.8-2.7,1-3.3C99.2,13.4,97.7,13.1,96.2,12.7"/>
	<path class="st0" d="M102.5,7.5h12.1c-0.1,0.5-0.3,1-0.4,1.3c-0.3,0.1-3.7,1.5-3.7,1.5h-8.9C101.9,9.7,102.4,7.9,102.5,7.5
		 M111.6,13.5l6.9-2.8l2-6.8H120H98.7l-2,6.9C101,11.1,106.2,11.7,111.6,13.5"/>
	<path class="st1" d="M141.7,43c-3.2-9.7-8.2-16.5-13.8-21.4c5-4.8,8.4-11.5,9.1-20.4c0,0-2,8.9-13,17.3
		c-16.3-11.1-35.8-7.9-35.8-7.9c13,0.9,23.6,5.4,31.8,10.7c-10.3,6.5-26.5,12.1-52.2,12.4c0,0,36.7,5.5,56.8-9.2
		C136,33.4,141.7,43,141.7,43"/>
	<path class="st2" d="M124.1,4.8c0.4,0,1,0.1,1-0.5c0-0.5-0.4-0.5-0.8-0.5h-0.8v1C123.6,4.8,124.1,4.8,124.1,4.8z M125.5,6.5h-0.4
		l-0.8-1.3h-0.6v1.3h-0.4V3.6h1.3c0.8,0,1,0.3,1,0.8c0,0.5-0.4,0.8-0.9,0.8L125.5,6.5z M126.4,5c0-1.3-0.9-2.3-2.2-2.3
		s-2.2,1-2.2,2.3s0.9,2.3,2.2,2.3C125.5,7.3,126.4,6.2,126.4,5 M121.5,5c0-1.4,1.1-2.6,2.6-2.6c1.4,0,2.6,1.1,2.6,2.6
		s-1.1,2.6-2.6,2.6C122.7,7.6,121.5,6.4,121.5,5"/>
</g>
</svg>
