<?xml version="1.0" encoding="utf-8"?>
<!-- Generator: Adobe Illustrator 24.0.2, SVG Export Plug-In . SVG Version: 6.00 Build 0)  -->
<svg version="1.1" id="Capa_1" xmlns="http://www.w3.org/2000/svg" xmlns:xlink="http://www.w3.org/1999/xlink" x="0px" y="0px"
	 viewBox="0 0 2500 759" style="enable-background:new 0 0 2500 759;" xml:space="preserve">
<style type="text/css">
	.st0{fill:#FCFAFB;}
</style>
<path class="st0" d="M0,536.9V11.2h92.3v525.7L0,536.9L0,536.9L0,536.9z M328.7,155.5c-118.4,0-200.3,91-200.3,195.2
	c0,116.3,89.1,196.4,201.3,196.4c106.4,0,198.7-78.6,198.7-196.7C528.4,251.2,451.9,155.5,328.7,155.5L328.7,155.5z M327.6,244.6
	c62,0,107.6,48.2,107.6,106.5c0,61.8-50.3,106.8-105.9,106.8c-65.7,0-107.1-52.1-107.1-106.6C222.2,291.4,268.9,244.6,327.6,244.6
	L327.6,244.6z M760.4,155.5c-118.4,0-200.3,91-200.3,195.2c0,116.3,89.1,196.4,201.3,196.4c106.4,0,198.7-78.6,198.7-196.7
	c0-69.5-30.1-100.3-30.1-100.3l25.6-8.8v-74.9H824.4C824.4,166.4,796,155.5,760.4,155.5z M759.3,244.6c62,0,107.6,48.2,107.6,106.5
	c0,61.8-50.3,106.8-105.9,106.8c-65.7,0-107.1-52.1-107.1-106.6C653.9,291.4,700.6,244.6,759.3,244.6L759.3,244.6z M866.2,562.6
	c0,61.8-50.3,107.1-105.9,107.1c-65.7,0-107.2-52.6-107.2-107.1h-93.7c0,116.3,89.1,196.4,201.3,196.4
	c106.4,0,198.7-78.4,198.7-196.4H866.2z M997.1,536.9V166.4h92.3v370.4H997.1z M1179.1,536.9V249.4h-49.5v-83h49.5V52.7h92.3v113.8
	h50.9v83h-50.9v287.5H1179.1z M1104.2,61.2c0,33.8-27.4,61.2-61.1,61.2c-33.8,0-61.2-27.4-61.2-61.2c0-33.8,27.4-61.2,61.2-61.2
	C1076.8,0,1104.2,27.4,1104.2,61.2z M1529.9,155.2c-119,0-195.6,91.1-195.6,198.8c0,111.3,76.9,193.3,197.6,193.3
	c112.5,0,167.9-70.3,167.9-70.3l-61.7-61.8c0,0-46.6,50.3-105,50.3c-48.7,0-87.6-27.2-101.1-77h287.7v-25.4
	C1719.6,261.7,1660.9,155.2,1529.9,155.2L1529.9,155.2z M1527,236.5c42.5,0,86,22.8,95.8,77.1h-193.4
	C1437,275.4,1470.4,236.5,1527,236.5z M1950.6,547.4c-119.3,0-200.6-90.9-200.6-198c0-110.6,91.9-194.3,200.2-194.3
	c104.7,0,158.3,73.9,158.3,73.9l-64.4,64.1c0,0-37.3-48.2-94.4-48.2c-63.2,0-106.4,48.4-106.4,105.8c0,60.7,46,107.3,105.7,107.3
	c58,0,95-48.1,95-48.1l65.1,64.1C2109.1,474.1,2056,547.4,1950.6,547.4L1950.6,547.4L1950.6,547.4L1950.6,547.4z M2142.7,537.1V9.8
	h92.3v193.7c0,0,35.4-48.4,112.3-48.4C2444,155.2,2500,227,2500,319v218.1h-92.3V332.9c0-61.8-38.5-87.4-81-87.4
	c-48.5,0-91.6,27.6-91.6,92.2v199.4H2142.7L2142.7,537.1z"/>
</svg>
