<?xml version="1.0" encoding="utf-8"?>
<!-- Generator: Adobe Illustrator 24.0.2, SVG Export Plug-In . SVG Version: 6.00 Build 0)  -->
<svg version="1.1" id="Capa_1" xmlns="http://www.w3.org/2000/svg" xmlns:xlink="http://www.w3.org/1999/xlink" x="0px" y="0px"
	 viewBox="0 0 2041 2500" style="enable-background:new 0 0 2041 2500;" xml:space="preserve">
<style type="text/css">
	.st0{fill:#FFFFFF;}
	.st1{fill:#7C7B7C;}
	.st2{fill:#ED1C24;}
</style>
<g>
	<path class="st0" d="M909.4,91.4c96.5-0.3,192.9-0.1,289.4-0.1c-22.1,21.9-42.8,45.2-65,66.9c-67,0.4-134.1,0.1-201.1,0.2v163.6
		h165v-50.3h-62.2c-20.5-20.5-41.1-40.9-61.5-61.5c71.5-0.1,143,0,214.5-0.1c0,37.5-0.1,74.9,0.1,112.4
		c-18.7,19-37.8,37.6-56.3,56.7c-5.1,4.3-9.7,11.5-17.5,9.8c-68.5,0.1-137,0.1-205.4,0c-21.3-22.6-44.5-43.2-66.2-65.3
		c-3.2-54.1-1.1-109.1-1-163.5C862.8,135.7,887.5,114.8,909.4,91.4L909.4,91.4z M691.3,196.3c36.3-11.5,72.5-23.4,109.3-32.9
		c-8.2,18.2-16.5,36.5-24.7,54.8c-24.8,7.6-49.5,15.2-74.3,22.6c-0.1,37.4,1.6,74.8,1.7,112.2c20-6.3,40-12.3,60.2-18
		c0-11.3-0.1-22.6,0.1-33.8c-7.9,2-15.8,4-23.7,6c-7.9-12-15.8-24-23.3-36.2c26.5-8.3,53.3-16,80.1-23.5c1.3,26.6,3,53.2,1.2,79.8
		c-6,18.3-15.5,35.1-23.2,52.8c-26.7,7.3-53.3,15.3-79.8,23.6c-8.3-13.9-20.8-25.8-26.3-41.2c0.1-37.2-3.5-74.5-1-111.6
		C674.1,232,683.3,214.3,691.3,196.3L691.3,196.3z M1261.7,181.8c44,9.7,87.1,23.5,130.3,36.3c-10.4,9.1-21.3,17.7-31.9,26.5
		c-25.1-6.5-49.7-14.4-74.8-20.6c-4,5.7-7.9,11.4-11.8,17.2c3.4,6.9,6.7,13.8,10.1,20.7c26.8,8.2,53.7,15.7,80.4,24.3
		c6.5,23,16.3,45.2,20.2,68.9c-6,16.5-14.3,32.1-21.4,48.2c-43.1-12.4-86.9-22.1-130.4-32.7c8.9-11.8,18-23.5,27.1-35.2
		c25.7,6.4,51.5,12.8,77,20.1c1.9-3.3,5.7-10,7.6-13.3c-3-7.9-6.2-15.7-9.1-23.5c-25.5-8.3-51.2-15.9-77.1-22.7
		c-9.2-21.1-18.6-42.3-27.6-63.5C1240.9,215.8,1251.7,199.1,1261.7,181.8L1261.7,181.8z M612.6,216.6c9.5-2.9,19.2-5.6,28.7-8.5
		c3.8,68.4,1.2,137.1,5.1,205.6c-8,2.1-15.9,4.2-23.8,6.2c-21.6-32.7-45.2-64-66.7-96.8c1.1,38.7-0.1,77.4,2.2,116
		c-10.1,15.2-19.1,31-29.4,46c-1.7-79.2-2.1-158.4-4.6-237.5c7.2-2.8,14.4-5.5,21.7-8.3c23.2,31.2,44.9,63.6,67.8,95
		C615.3,295,611.6,255.8,612.6,216.6L612.6,216.6z M1409.9,223.2c45.1,14.4,89.8,30.1,133.7,47.7c-11.1,8.1-22.1,16.1-33.2,24.2
		c-22-7.7-43.9-15.9-66-23.3c-1.2,13.6-2,27.2-3.1,40.8c29.6,10.5,59.2,21.3,88.4,33.2c-13.3,8.7-24.4,21.4-39.2,27
		c-17.4-5-34.1-12.6-51.4-18c-0.8,11.1-1.5,22.2-1.8,33.3c30.5,8.6,60.1,20.4,90.2,30.4c-15.7,8.6-29.9,33.1-49.9,23
		c-26-8.7-52.2-16.8-78.6-24.6C1402.2,352.4,1406.6,287.8,1409.9,223.2L1409.9,223.2z M468.5,270.1c10.7-4.3,21.5-8.4,32.3-12.5
		c-0.1,67.7,3.4,135.3,2.7,203c-10.3,14.9-20.1,30.2-30.6,45C472.2,427.1,470.9,348.6,468.5,270.1L468.5,270.1z M1565,277.9
		c34.3,13,67.4,29,100.2,45.6c5,19.8,10.2,39.5,15.4,59.3c-7.2,10.8-14.2,21.8-21.3,32.7c6.3,12,14,23.4,19.2,36
		c0.5,20.9-2,41.6-2.3,62.5c-9.8-4.7-19.7-9.2-29.5-13.9c0.7-19,7.7-40.2-5.2-56.8c-7.8-22.2-32.7-25.9-51.3-35.2
		c-2,21.1-1.3,42.3-2.3,63.5c-8,15-21,26.7-31.1,40.3C1559.1,433.9,1563.2,355.9,1565,277.9 M1592.9,326.7
		c-0.1,13-1.1,25.9-1.4,38.9c15.9,10.2,34.4,16.1,51.7,23.9c2-7.3,8.4-14.3,5.5-22.3C1644.9,340.2,1612.6,337.7,1592.9,326.7
		L1592.9,326.7z M410.8,295.7c10.5-4.7,21.1-9.4,31.8-13.8c1.4,66.2,1.4,132.3,3.8,198.5c-9.9,4.1-19.9,8.3-29.8,12.6
		c0.3-40.4,0.7-80.9-3.5-121.1c-6.2,37.6-19.1,73.7-28.2,110.7c-6.2,3.1-12.4,6.2-18.6,9.3c-11.2-25.5-20.6-51.7-33.2-76.6
		c-2.2,39.3,4.1,78.8-0.2,118c-7.6,15.6-16.9,30.4-25.3,45.6c-2.3-74.8-3.4-149.7-3.9-224.4c8.1-8.6,20.4-12.5,30.4-18.8
		c13.9,30.5,27,61.5,39.3,92.7C387.9,384.8,397.8,339.7,410.8,295.7L410.8,295.7z M1707.6,344.9c10.1,5.3,20.2,10.5,30.5,15.6
		c-0.4,59.3-5.4,118.5-5.6,177.7c-10.6,9.4-21.9,18-33.7,25.9C1701.2,491.1,1703.6,417.9,1707.6,344.9L1707.6,344.9z M189,415.2
		c21.3-16,44.5-29.4,67.2-43.3c8.4,14.4,24.6,26.7,22.3,45.1c-1,44.5,2,88.9,1.5,133.4c-9.3,5.2-18.6,10.3-27.8,15.5
		c-0.3-17.8-1.6-35.6-2-53.4c-17.8,10.4-35.8,20.6-53.1,31.9c1,17.2,3.3,34.6,1,51.8c-7.3,17.4-17.8,33.3-27.2,49.6
		c0.3-57.8-2.2-115.5-2.4-173.2C173.4,453,179.9,433.2,189,415.2 M195.4,454.4c0.7,15.5,1.7,30.9,2.1,46.5
		c17.3-11.4,35.1-22,53-32.4c-1.5-15.9-1.7-31.9-1.6-47.9C230.9,431.7,212.9,442.6,195.4,454.4L195.4,454.4z M1766.2,374.4
		c38.9,17.2,76.5,37,114.2,56.6c-12.5,5.9-24.4,15-38.2,16.7c-16.4-7-32-15.8-48-23.7c-1,12.1-1.7,24.2-1.8,36.4
		c25.8,10.2,50.3,23.3,76.2,33.6c-13.9,8.1-27.9,15.9-42.2,23.2c-11.6-5.6-23.4-10.8-35.1-15.9c-0.6,9.1-1.1,18.3-1.5,27.4
		c26.3,11.3,52.6,22.8,78,36.1c-12.4,6.2-24.8,12.4-37.2,18.6c-23.5-10.9-47.5-20.7-71.6-30.4
		C1762.3,493.5,1763.7,433.9,1766.2,374.4L1766.2,374.4z M1903.9,440.3c30.2,16.1,60.3,32.7,89.2,51.1c-9.8,5.9-19.5,12-29.1,18.2
		c-15.8-8.6-31-18.2-47.5-25.5c-2.2,9.8-0.9,19.9,1.8,29.5c21.7,9.3,43.1,19.2,64.1,30c3.5,18,7.6,36,11.4,54
		c-7.5,15.1-15,30.1-22.7,45.2c-29.6-15.3-60.1-28.9-90.1-43.3c10.6-7.1,21.2-14.2,32.1-20.8c17.2,8.1,34.2,16.6,51.3,24.8
		c3.3-9.6,1-19.2-1.4-28.5c-21.4-10.9-43.4-20.6-65.4-30.3c-4.3-16.3-9.6-32.4-12.5-49C1890,476.7,1898.2,458.9,1903.9,440.3
		L1903.9,440.3z M68,494.4c24.9-20.4,53.5-36.1,81-52.8c-10,20.9-8.5,51.7-32,63c-14,8.3-27.7,17.2-41.5,25.9
		c-0.1,32.4,2.9,64.7,1,97.1c14.5-9.1,29.9-16.6,44-26.3c0.6-9.4,0.4-18.8-0.4-28.1c-4,2.1-12.1,6.3-16.2,8.4
		c-6-9.4-12-18.7-18-28.1c20-12.4,40-24.9,60.9-36c-0.5,24.3,1,48.7-0.6,73c-4,17.1-11.4,33.2-16.8,49.9
		c-20,10.6-39.4,22.2-59.3,33.1c-7-12.5-19.5-23.6-18.9-39c-1.5-29.7-1.6-59.5-0.3-89.2C55.4,528.1,61.1,510.9,68,494.4L68,494.4z
		 M980.3,504.8c10.3,8.9,18.1,20.2,26.6,30.8c58.6,71.1,131,132.1,214.9,171.2c26.2,12.4,53.9,22.6,83,24.8c23.2,2,44-13,67.2-10.6
		c19.5,1.8,38.9,9.4,53.7,22.4c7.9,21.1,9.2,45.9,26.3,62.6c12.8,15.2,34,14.8,51.8,11.5c4.2,12.1,10.1,26.8,24.8,28.7
		c13.7,0.3,26.1-7.6,39.3-11c8.6,12,14.3,27.8,29.1,33.8c28.9,13.9,51.5,39,64.7,68c-16.9-18.7-34.2-37.8-57.7-48.4
		c-0.7,36.4,4.3,79.1-23,107.9c-1-23.1-3.4-46.4-13.5-67.5c-20.8,17-40.4,38.1-68,43.3c8.4-11.4,20.6-21,24.4-35.2
		c2.1-11-10.8-12.9-18.5-14.5c-32.5-5-60.2,15.7-85.8,32.3c-4-11.5-8.1-22.9-12-34.3c-16.6,5.2-35.7,8.7-47,23.3
		c-6.9,12.8,6.4,23.2,16.4,28.4c17.1,9.7,37.4,2.6,55.8,6.5c11.9,2.8,19.2,13.5,27,22.1c0.4-8.8,1.1-17.5,1.8-26.2
		c21.3,23.6,39.1,50.2,55.2,77.6c20.7-9.8,31.6-30.4,29.9-53.2c8.4,15,8.8,32.3,8.2,49.1c5.1-6.2,10.5-12.2,16.1-18
		c2.7,25.2,3.2,52.2-8.6,75.3c-9.4,18-27,29.9-45.7,36.5c4-14.8,12.7-38.7-7.7-45.1c-35.5-6.9-70.1,8.3-105.2,11.1
		c19.9-11.1,42.8-21.1,54.6-41.8c-0.8-2.5-2.6-7.6-3.5-10.1c-18.7-11.5-40.9-16.4-61.2-24.6c-11.9-5.8-22.9,2.7-33.7,6.7
		c-20.3-11.3-45.9-13.1-66.2-0.8c-50.7,35-136.3-15.3-123.2-77.8c9-34,45.6-45.8,73.9-59.3c-25.9-5.7-56.3-1-74.5,19.6
		c-15,15.7-20.6,37.2-24.3,57.9c-96.8-28.7-200.8-33.7-299.9-15c-96.6,18-188.6,65.9-254,139.9c-66.9,74.8-107.7,170.1-128,267.7
		c-24.4,116.7-6.1,241.1,49,346.6c14,29.2,32.7,55.8,49.7,83.4c-81.8-66.8-137.7-160.3-175.3-258c-12.1,14-11.1,33.2-13.9,50.3
		c-26.6-40.7-22.4-92-15-137.7c15.9-83.2,44.1-163.6,78.4-240.9c-28.6,16.7-49.6,42.7-73.2,65.3c-1-83.4,47.5-155.1,97.3-217.8
		c30.5-38.6,66.7-72.1,101.8-106.4c-28.5,7.7-55.1,20.8-82.7,31c57.5-59.4,132.8-99.4,210.3-126.6c75.6-25.4,155.1-39.7,234.8-41.8
		c-42.8-9.8-86.4-17.6-130.4-19l-7.8,5.5c-0.2-3.1-0.6-6.9,3.4-7.7c81.1-20.1,166.3-24.9,244.3-56.6c19-7.5,36.6-18.3,52.5-31.2
		c33.4,22.6,68.2,50.2,110.6,49.9c-66-53-132.3-108.2-179.2-179.5C1002.9,556.1,987.8,532,980.3,504.8 M1349.7,774.6
		c17.2,23.1,38.4,49.9,71.1,45.7c-4.3-11.7-5.9-25.9-16.4-34C1386.3,781.9,1367.6,780.1,1349.7,774.6z"/>
	<path class="st0" d="M911.1,607.9c54.1,28.7,103.5,66.2,159.7,91.6c-13.6,11-30.8,30.9-49.7,18.3
		C977.3,689.4,943.3,648.3,911.1,607.9z M269.6,855.6c43.2-15.6,96.3,19.1,97.6,65.3c-4.4,0.4-13.3,1.3-17.7,1.7
		c-2.1,34.3,13.4,67.1,31.5,95.3c2.1-31-3.4-64,12.2-92.6c10.5,0.5,20.4,3.5,29.4,8.9c12.1-7.4,9.5-23.8,2.2-33.8
		c-8.2-11.1-18.6-20.2-27-31c21.6,13.1,43.7,28,57.7,49.7c8.2,14.6,10.2,36.5-3,48.9c-8.7,9.6-27.5-0.4-32.9,13.4
		c-9.9,19.8-6.3,43.5,2.2,63.1c21.3-4.3,36.3-20.7,55.7-29c-37.8,39-73.8,80.9-95,131.5c-0.3-15.1,6.9-33.2-3.6-46.1
		c-20.2-18.6-50.7-17.2-72.8-32.7c-12.9-9.4-20.2-24-30.9-35.5c-8.8-8.8-26-5.1-31.9-16.9c-2.7-19.6-0.7-43.3-17.2-57.7
		c-17.4-14.1-41.6-11.4-62.6-13.3c34.6-18.5,80.1-8.8,105.8,20.2c12.1,13.6,10.6,35.4,25.9,46.7c15.9,11.1,32.6,22.3,51.8,26.6
		c4.5-27.2-20.9-43.6-29.1-66.9c-9.7-24-14.3-53.3-0.7-76.8c2.9-7.7,11.6-17.4,2.1-23.9C305.7,859.1,286.2,859.9,269.6,855.6
		L269.6,855.6z M777.4,1014.3c5.6-2.1,11.3-4,17.1-5.5c-41.3,37.9-71,85.7-103.9,130.6c-11.1,16.4-25.7,33.9-22,55.4
		c0.4,6.6,3.1,18.8,12.4,13.9c20.4-10.7,31.8-31.8,46.2-48.9c9.8,31.8,39.9,50.7,69.7,61.1c50.9,18.9,106,12.2,158.5,5.7
		c100.6-14.1,203.7-39.5,287.1-100.1c23-15.4,38.6-38.8,60.3-55.6c-5.5,25.5-24,45.1-41.2,63.6c-59.2,57.7-137.6,91.1-216.4,112.2
		c-75.7,19.8-154,28.2-232.1,30.8c-18.2,1.8-38.6,2.7-53.3,14.9c-10,7.8-0.7,20.3,6.9,25.7c27.5,19.7,58.6,34.3,90.7,45
		c79.9,27.6,166.9,15.4,246.2-7.5c54.6-15.5,105.2-41.4,155.8-66.4c-61.5,56.9-142.2,89.2-223.7,104.4
		c-110.5,18.7-225.2,2.9-329.8-35.6c-11.3-3.5-28.9-6.6-35.2,6.5c-8.4,20.3,9.4,37.9,17.3,55.1c31.4,61.6,72.6,121.7,133.3,157.6
		c23.3,14.6,49.8,22.7,76.1,30c-44,1.5-85.2-18-122.6-39c-75.6-44.2-125.2-121.1-156.4-201.1c5.7,105.9,72.4,197.3,149.4,265.2
		c0.4,12-14,12.2-22.5,15.2c-35.2,9.1-77.1,8.6-104.4,35.6c-23.9,40.5-24,91.3-50.1,130.9c-47.1-82-77-173.6-90.9-267.1
		c-17.4-121.3,7.2-248.7,72.5-352.7C621.2,1115.8,694,1053.4,777.4,1014.3L777.4,1014.3z"/>
	<path class="st0" d="M1263.5,1214.8c27.1-15,50.2-35.7,75.4-53.6c-6.4,16.7-21.3,27.5-33.9,39.3
		c-111.7,100.6-266.3,141.4-414.1,138.4c-27.4-2-58.7-2.3-80.5-21.4c-4.8-14.3,14.8-16.1,24.2-15.4
		C981.1,1308.6,1135,1290.8,1263.5,1214.8L1263.5,1214.8z M1209.2,1367.9c51.7-4.4,105.8,3.5,152.5,27c45,22.5,79.2,63.9,94.6,111.7
		c-27.8-24.2-69.9-33.2-105.2-23.9c-1.7,11.3,1.8,22,7.3,31.9c-47.9,5.7-97.6-12.5-126.4-52c21,9.5,42.9,22.4,66.9,17.7
		c19-3.9,39.5-12,49.9-29.4c6.9-13.2-6.4-24.9-15.8-32.1C1295.7,1393.6,1251.6,1381.5,1209.2,1367.9L1209.2,1367.9z M709.3,1382.3
		c9.8,1.2,21.6,0.5,28.3,9.5c43.8,56,113.8,83.7,181.9,95.9c51.9,10.6,105,11.8,157.8,10.3c-86.9,22.2-182,18-264.9-17.6
		c-37.1-15.9-71.9-39.8-95.7-72.9C711.1,1400.3,711.2,1390.8,709.3,1382.3z"/>
	<path class="st0" d="M1206.5,1499.4c-15.9-25.7-21.3-58.4-13.6-87.6c5.2,33.4,17.2,68.1,44.6,89.8c33.8,27.6,80.1,33.4,122.4,30.1
		c59.7-5.9,119.7-16.8,179.9-11.9c28,2.9,51.5,21.9,64.6,46.1c11.8,22.2,23.8,45,29.9,69.5c4.9,29.7-20.4,51.3-26.6,78.6
		c-11.6,46.2-11.5,95.5-30.3,139.9c-11,26.2-35.5,43-50.2,66.7c-27.9,44.1-41.2,95.2-51.8,145.7c-5.1,23.7-14.8,48.6-36.5,61.7
		c-39,24-86.9,25.7-127.4,46.2c-39.2,18.1-70.1,48.9-104.3,74.3c-26.9,20-63,20.4-93.8,10.2c-25.1-8.5-52-13.6-78.1-6.4
		c-23.5,2.4-45.5,18.7-69.4,12.5c-30.5-9.3-33.2-48.5-60.1-62.3c-27.3-13.8-58.6-13.9-88.1-19.3c-13.7-2.2-27.7-9.4-33.9-22.4
		c-8.1-18.8-7.2-40.6-17.3-58.6c-24.4-38.1-77-45.9-99-86.2c-11-19-7.9-41.8-0.6-61.5c7.8-21.4,10-48.1-5.9-66.5
		c-17.7-19.5-45.7-22.9-70.6-25c26.6-36.5,41.7-79.6,51-123.4c5.1-25.9,20-52.4,47.1-59.8c37-10.3,81.1-25.4,116.7-3.2
		c41.3,32.6,34.3,101.5-0.7,136.1c-24.7,19.4-62,25.8-90.4,10.9c-17.3-9.3-19.2-30.8-16.4-48.1c12.1,8.3,21.1,22.1,36.5,24.9
		c12.2-3,30.1-9.8,29.6-24.8c-7.7-21.6-34.3-36.8-56.3-26.5c-24.4,11.6-49.4,31.9-53,60.3c0.6,31.9,34.2,49.3,62.6,50.1
		c46.7,0.2,87.4-28.1,120.1-58.8c-6.3,90-0.9,185.1,41.6,266.5c21.1,41.5,61.6,70.5,106.6,80.9c90.5,21.4,185.3,5.9,272.2-23.5
		c52.2-17.2,103-41.6,145.1-77.5c20.9-19,36.5-42.7,51.8-66.2c40.8-64.9,72.7-135.2,98.2-207.4c17.1-52.2,29.6-111.4,7.3-163.9
		c-15.2-36.1-55.6-51.3-91.9-55.8c-45.7-7.4-91,10.7-136.7,3.6c-9.1,15.5-8.6,38.4,8.7,48c30.3,16.7,66.4,12.4,99.7,14.4
		c-61.8,24.7-134.7,34.6-197,6.1c-55.3-23.6-97.3-73.1-116-129.8c26.1,37.8,53.2,79.7,98.2,96.7c21.3,6.9,48.3,12.1,67.7-2.3
		c12.5-12.7-1.5-28.9-7.8-40.9C1254.1,1542.5,1223.7,1526.8,1206.5,1499.4L1206.5,1499.4z M1623.6,1574.3
		c9.3-6.9,20.6-10.3,31.3-14.6c-4.4,10.3-8.6,23.2-20.8,26.3C1625.9,1586.7,1622.4,1582.8,1623.6,1574.3z M1618.5,1719.9
		c18.1-7,37.8-1.3,56.6-3.9c-13.8,14.4-35,29.2-55.4,19.6C1619.3,1730.4,1618.9,1725.2,1618.5,1719.9z"/>
	<path class="st0" d="M918.7,1775.8c25.6-19.8,59.4-24.2,90.9-25.6c-23.4,7.9-51.6,13.6-62.1,39.1c9.2,12.5,32.8,4.5,37,20.5
		c0.6,33.7-26.6,57.9-36.7,88.1c27.7-19.1,59.1-36.7,76.7-66.4c4.8-9.2-9.4-12.1-13.5-17.5c14.5-23.5,43.9-31.9,70.1-31.3
		c20-0.6,41.8,6,53.7,23.1c-19.4-4.4-40.7-20-60.3-8.4c-4.9,13.5-1.8,28.9-7.5,42.4c-11.8,32.9-42.2,55-73.8,67.1
		c-11.4,4.6-26.8,14.7-22.7,28.9c19.8,1.2,39.9,3.5,59.7,0.4c21.1-3.3,31.1-26.6,51.8-30.8c37.5-10.2,82.6,5.4,102,40
		c-20-9.7-39.9-26.4-63.5-21.8c-23.4,5.1-33.1,29.1-47,45.7c-12.6,3.3-25-4.4-37.6-2.7c-16.9,3.9-31.9,14.1-49.3,15.9
		c-30.4,3.3-59-16.7-89.5-9.6c-16.3,5.1-15.3,24.9-16.7,38.8c-18.2-54.4-26-112.8-20.8-170c13.2,13.4,12.9,32.4,16.9,49.6
		c2.4,10.9,15.9,11.2,23.3,5.1c19.5-14.5,32-38.8,30.4-63.3C905.4,1825.9,899.3,1791.8,918.7,1775.8L918.7,1775.8z M603.9,1897.6
		c15.9-13,46.8-3.5,47.7,18.6c2.1,15,1.4,34.6-14.7,41.8c-34.6,18.8-80.4,27.1-98.7,66.3C542,1975.9,562,1925.4,603.9,1897.6z
		 M1517.2,1956.4c7-14.2,25.4-11.2,36.8-4.5c14.4,8.1,29.8,14.3,46.8,14.3c-21,13-47.2,23.5-71.9,15.8
		C1518.3,1978.9,1509.5,1966.4,1517.2,1956.4z M731.1,2097.1c18.9-6.6,39.7,10.7,35,30.7c0.6,15.3-12.4,24.4-25.3,28.9
		c-29,12.1-63.6,20.6-79.8,50.4C663.6,2161.8,689.9,2117.4,731.1,2097.1L731.1,2097.1z M1295.8,2217.1c-7.7-16.8,7.2-36.3,25.3-30.9
		c19.1,4.3,17.8,26.8,20.2,42c1.5,17.6,9,33.7,18.1,48.5C1331.4,2267,1308.2,2243.9,1295.8,2217.1L1295.8,2217.1z M854.4,2220
		c9.8-12.2,26.5-17.6,41.7-14c18.9,10.2,22.9,42.8,3.5,54.6c-26.8,20.9-65.9,33.3-75.1,70C821.7,2292,829.5,2250.7,854.4,2220
		L854.4,2220z M1055,2265.9c21.4-14.3,51.4,13.3,36.7,35.5c-19.5,25.4-52.8,40.4-60.8,74C1024.5,2338.3,1027.6,2294.2,1055,2265.9
		L1055,2265.9z"/>
</g>
<path class="st1" d="M996.1,2.3c17.8-3.3,36-1.9,54-0.8l0.2,4.1c6.7,0.6,13.5,1.3,20.3,2.2c37.1,10.3,74.8,18.5,112,28.3
	c25.8,8.3,52.1,14.9,78.1,22.8c5.7,1.8,11.4,3.6,17.2,5.4c5.5,1.9,11,3.6,16.6,5.4c22.5,6.9,44.6,15.3,67.1,22.4
	c5.4,2,10.8,4,16.2,6c5.7,2,11.4,3.9,17.2,5.8c9,4.1,18.2,7.8,27.9,10.2c9.2,4.3,18.6,8.3,28.3,11.6c5.5,1.9,11,3.9,16.6,5.8
	c12.6,6.4,25.8,11.5,39.1,16.4c8.9,4.5,18.2,8.5,28,11.4c15.9,8.8,33.2,15.1,49.7,22.8c3.3,1.2,9.9,3.6,13.2,4.8l1.2,3
	c24.3,8.1,46,22,69.8,31c2.8,1.5,8.4,4.4,11.2,5.9c2.8,1.4,8.4,4.2,11.1,5.6c3.8,1.9,7.6,3.7,11.4,5.6c7.3,3.9,14.9,7.3,22.7,10.4
	c7.1,4.2,14.4,8.2,21.9,11.9c2.8,1.5,8.4,4.3,11.2,5.8c2.8,1.2,8.4,3.7,11.2,5c23.8,13.9,48.4,26.3,72.8,39.1
	c12.5,8.2,25.8,15.2,39.1,22.1c18.5,11.6,37.2,22.8,56.2,33.6c14.8,9.5,29.3,19.4,44.6,28c18.1,14.5,40.2,23.6,57.6,38.9
	c2.5,76.9,0.2,154-1.2,230.9c-4.4,44.1-7.6,88.4-10.3,132.7c-2.6-1.3-5.2-2.6-7.8-3.9c-174.2-90.6-355.7-167.2-541.4-230.9
	c-126.1-43.2-256.3-72.5-386.5-100.2c-24.3-4.5-48.2-11.5-72.9-12.6c-27,1-53.5,7-79.9,12.2c-118.5,25.6-236.5,53.9-352.1,90.3
	c-118.6,37.1-234.3,82.9-348.1,132.4c-75.3,35.4-151.9,68.6-224,110.4c-0.4-6.1-1.7-12.2-3.9-18c-1.7-29.8-0.4-60-5.6-89.4
	c-3.2-31.6,1.6-64.6-5.8-95.4C0,551.4-0.2,511.7,0.5,472.1c5.7-12.4,2.5-26.3,3.1-39.5c30.8-20.3,61.2-41.3,92.2-61.3
	c51.2-31.4,103.8-60.7,156.7-89.3c15-7,29.6-15.1,44.5-22.5c2.9-1.4,8.5-4.2,11.3-5.6c18.1-10.3,37.2-18.7,55.8-27.9
	c10.1-5.1,20-10.6,30.9-13.9l1.2-4.7c2.5,0.3,7.4,0.9,9.8,1.2l1.2-5.1c21.4-5.3,39.4-18.9,60.6-24.9l1.1-3.1
	c18.1-5,35.1-13.5,51.8-21.8c9.8-2.7,19.3-6.4,28.1-11.5c9.6-2.8,19-6.6,27.9-11.2c9.6-2.9,19-6.4,28-10.9
	c20.5-7.4,41.3-14.3,61.4-22.6c5.6-1.8,11.1-3.6,16.6-5.5c27.7-10,55.9-18.8,83.9-28c5.7-1.6,11.4-3.3,17-5.1
	c25.9-7.9,52.3-14.8,78.2-22.7c7.4-1.6,15-3.1,22.3-5.5c14.9-4,30-7,44.9-11.2c7.5-1.5,15-3.2,22.4-5.5c7.3-1.7,14.8-3.4,22.1-5.4
	C981,6.7,988.8,5,996.1,2.3 M909.4,91.4c-21.9,23.4-46.6,44.4-67.1,68.8c-0.1,54.4-2.2,109.4,1,163.5c21.7,22,44.9,42.7,66.2,65.3
	c68.4,0.1,137,0.1,205.4,0c7.8,1.7,12.4-5.5,17.5-9.8c18.6-19.1,37.6-37.8,56.3-56.7c-0.1-37.5-0.1-74.9-0.1-112.4
	c-71.5,0.1-143.1-0.1-214.5,0.1c20.4,20.5,40.9,41,61.5,61.5h62.2v50.3h-165V158.4c67-0.1,134.1,0.2,201.1-0.2
	c22.3-21.8,42.9-45.1,65-66.9C1102.3,91.3,1005.9,91.1,909.4,91.4 M691.3,196.3c-8,18.1-17.2,35.7-23.5,54.5
	c-2.6,37.1,1,74.4,1,111.6c5.5,15.3,18,27.2,26.3,41.2c26.5-8.3,53-16.3,79.8-23.6c7.6-17.7,17.2-34.5,23.2-52.8
	c1.8-26.6,0.1-53.2-1.2-79.8c-26.8,7.5-53.6,15.2-80.1,23.5c7.4,12.2,15.3,24.2,23.3,36.2c7.9-2,15.8-4,23.7-6
	c-0.1,11.2-0.1,22.5-0.1,33.8c-20.2,5.8-40.3,11.7-60.2,18c-0.1-37.4-1.8-74.8-1.7-112.2c24.8-7.4,49.5-15,74.3-22.6
	c8.2-18.3,16.4-36.5,24.7-54.8C763.7,172.9,727.6,184.8,691.3,196.3 M1261.7,181.8c-10,17.2-20.7,34-31.4,50.7
	c9,21.3,18.3,42.4,27.6,63.5c25.9,6.8,51.6,14.4,77.1,22.7c3,7.8,6.1,15.6,9.1,23.5c-1.9,3.3-5.7,10-7.6,13.3
	c-25.5-7.4-51.3-13.8-77-20.1c-9.1,11.7-18.2,23.4-27.1,35.2c43.5,10.6,87.3,20.4,130.4,32.7c7.1-16,15.4-31.7,21.4-48.2
	c-3.9-23.7-13.6-45.9-20.2-68.9c-26.7-8.6-53.6-16.2-80.4-24.3c-3.4-6.9-6.8-13.9-10.1-20.7c3.9-5.8,7.8-11.5,11.8-17.2
	c25.1,6.2,49.7,14.2,74.8,20.6c10.7-8.8,21.5-17.3,31.9-26.5C1348.7,205.3,1305.7,191.6,1261.7,181.8 M612.6,216.6
	c-1,39.3,2.6,78.5,1.1,117.8c-23-31.4-44.6-63.8-67.8-95c-7.2,2.7-14.5,5.5-21.7,8.3c2.6,79.1,3,158.3,4.6,237.5
	c10.2-15,19.2-30.8,29.4-46c-2.2-38.6-1.1-77.3-2.2-116c21.5,32.8,45.1,64.1,66.7,96.8c7.8-2,15.8-4.1,23.8-6.2
	c-3.9-68.5-1.3-137.2-5.1-205.6C631.8,210.9,622.1,213.7,612.6,216.6 M1409.9,223.2c-3.3,64.6-7.7,129.2-11,193.8
	c26.3,7.8,52.6,15.8,78.6,24.6c20.1,10.1,34.3-14.4,49.9-23c-30.1-10-59.6-21.8-90.2-30.4c0.3-11.1,1-22.2,1.8-33.3
	c17.3,5.4,33.9,13,51.4,18c14.8-5.6,26-18.3,39.2-27c-29.2-11.9-58.8-22.6-88.4-33.2c1.1-13.6,1.9-27.2,3.1-40.8
	c22.1,7.4,44,15.6,66,23.3c11-8.1,22.1-16.1,33.2-24.2C1499.7,253.3,1455,237.6,1409.9,223.2 M468.5,270.1
	c2.4,78.5,3.7,157,4.4,235.6c10.5-14.8,20.3-30.1,30.6-45c0.7-67.7-2.8-135.3-2.7-203C489.9,261.7,479.2,265.8,468.5,270.1
	 M1565,277.9c-1.8,78-5.9,156-8.2,234c10.1-13.6,23.1-25.3,31.1-40.3c1-21.1,0.3-42.3,2.3-63.5c18.6,9.2,43.6,13,51.3,35.2
	c12.9,16.7,5.9,37.8,5.2,56.8c9.8,4.6,19.6,9.2,29.5,13.9c0.3-20.9,2.8-41.6,2.3-62.5c-5.1-12.6-12.9-24-19.2-36
	c7-10.9,14-21.8,21.3-32.7c-5.3-19.8-10.4-39.5-15.4-59.3C1632.5,307,1599.3,290.9,1565,277.9 M410.8,295.7
	c-13,44.1-22.9,89.1-37.3,132.8c-12.3-31.2-25.3-62.2-39.3-92.7c-10,6.3-22.3,10.2-30.4,18.8c0.5,74.8,1.6,149.7,3.9,224.4
	c8.3-15.2,17.7-30,25.3-45.6c4.2-39.2-2.1-78.7,0.2-118c12.5,24.8,21.9,51.1,33.2,76.6c6.2-3.1,12.4-6.3,18.6-9.3
	c9.1-37,22-73,28.2-110.7c4.2,40.2,3.8,80.7,3.5,121.1c9.9-4.2,19.8-8.4,29.8-12.6c-2.3-66.2-2.3-132.3-3.8-198.5
	C431.9,286.2,421.4,290.9,410.8,295.7 M1707.6,344.9c-4,73-6.4,146.1-8.8,219.2c11.8-7.9,23.1-16.5,33.7-25.9
	c0.2-59.3,5.2-118.5,5.6-177.7C1727.9,355.4,1717.7,350.2,1707.6,344.9 M189,415.2c-9.1,18.1-15.5,37.9-20.7,57.4
	c0.2,57.7,2.7,115.4,2.4,173.2c9.5-16.3,20-32.2,27.2-49.6c2.3-17.2,0.1-34.6-1-51.8c17.3-11.2,35.3-21.5,53.1-31.9
	c0.4,17.8,1.7,35.6,2,53.4c9.2-5.3,18.6-10.3,27.8-15.5c0.6-44.5-2.5-88.9-1.5-133.4c2.3-18.4-13.9-30.7-22.3-45.1
	C233.5,385.8,210.3,399.2,189,415.2 M1766.2,374.4c-2.6,59.5-4,119.1-7.3,178.6c24,9.7,48,19.5,71.6,30.4
	c12.4-6.3,24.8-12.4,37.2-18.6c-25.4-13.3-51.7-24.8-78-36.1c0.4-9.1,0.8-18.3,1.5-27.4c11.7,5.1,23.5,10.2,35.1,15.9
	c14.3-7.2,28.4-15,42.2-23.2c-25.8-10.2-50.4-23.3-76.2-33.6c0.2-12.2,0.9-24.3,1.8-36.4c16,7.9,31.6,16.7,48,23.7
	c13.8-1.7,25.7-10.8,38.2-16.7C1842.7,411.4,1805.1,391.6,1766.2,374.4 M1903.9,440.3c-5.8,18.6-13.9,36.4-18.7,55.3
	c2.9,16.6,8.2,32.7,12.5,49c22,9.6,44,19.3,65.4,30.3c2.3,9.3,4.7,19,1.4,28.5c-17.1-8.3-34.2-16.7-51.3-24.8
	c-10.9,6.7-21.5,13.7-32.1,20.8c30,14.4,60.5,28,90.1,43.3c7.7-15,15.2-30.1,22.7-45.2c-3.9-18-7.9-36-11.4-54
	c-21-10.8-42.4-20.7-64.1-30c-2.7-9.6-4.1-19.6-1.8-29.5c16.4,7.3,31.7,16.9,47.5,25.5c9.6-6.2,19.3-12.2,29.1-18.2
	C1964.2,473,1934.1,456.4,1903.9,440.3 M68,494.4c-6.9,16.5-12.6,33.7-16.9,51.1c-1.2,29.7-1.1,59.5,0.3,89.2
	c-0.6,15.4,11.9,26.5,18.9,39c19.9-10.9,39.3-22.5,59.3-33.1c5.4-16.7,12.8-32.8,16.8-49.9c1.5-24.3,0.1-48.7,0.6-73
	c-20.8,11.1-40.8,23.6-60.9,36c5.9,9.3,12,18.7,18,28.1c4.1-2.1,12.1-6.4,16.2-8.4c0.8,9.4,1,18.8,0.4,28.1
	c-14.1,9.7-29.5,17.2-44,26.3c1.8-32.4-1.1-64.7-1-97.1c13.8-8.7,27.5-17.6,41.5-25.9c23.5-11.3,22-42.1,32-63
	C121.5,458.4,92.9,474,68,494.4L68,494.4z"/>
<path class="st1" d="M1592.9,326.7c19.7,11,52.1,13.5,55.8,40.5c2.9,7.9-3.5,14.9-5.5,22.3c-17.3-7.8-35.7-13.6-51.7-23.9
	C1591.8,352.6,1592.8,339.7,1592.9,326.7L1592.9,326.7z M195.4,454.4c17.5-11.7,35.5-22.7,53.5-33.8c-0.1,16,0.2,32,1.6,47.9
	c-17.9,10.4-35.7,21-53,32.4C197.2,485.3,196.1,469.9,195.4,454.4L195.4,454.4z"/>
<g>
	<path class="st2" d="M939.8,460.6c26.4-5.3,52.9-11.2,79.9-12.2c24.7,1.1,48.7,8.1,72.9,12.6c130.2,27.7,260.4,56.9,386.5,100.2
		c185.7,63.7,367.2,140.3,541.4,230.9c6,5.7,7,14.3,7.6,22.2c-8.2,17.5-4.6,37.3-6.5,56c-6.3,14.2-4.2,30-5.6,45.1
		c-6.1,27.4-9.2,55.7-11.2,83.8c-4.7,10.7-4.8,22.4-5.8,33.9c-7.8,42.7-15.7,85.5-22.5,128.4c-6.3,26-11.9,52.2-16.8,78.5
		c-11.1,44.8-21.9,89.7-33.5,134.4c-4.5,12.9-7.9,26-11.2,39.1c-7.5,24.2-15.3,48.4-22.6,72.7c-1.8,5.6-3.6,11.2-5.2,16.9
		c-9.7,25.9-18.6,52.1-27.9,78.1c-2.1,5.5-4.1,11-6.1,16.5c-4.1,9.2-7.7,18.7-10.9,28.4c-4.5,9-8.2,18.3-11.2,27.9
		c-7.8,16.7-15,33.7-22,50.7c-77.8,170.8-175.8,334.6-305.7,471c-101.3,108.8-221.7,199.8-354.5,266.9c-2.9,1.3-8.5,4.1-11.3,5.5
		c-2.8,1.4-8.3,4.3-11.1,5.8c-20.7,8.8-40.8,19.1-61.5,27.8c-9.5,3.3-18.9,7-28.1,11c-5.8,2.4-11.7,4.9-17.4,7.4
		c-15.2-6.2-30.2-12.5-45.5-18.1c-172.7-72.6-328.6-184.6-453.2-324.4C422,2048.4,342,1923.9,274.8,1793.6
		c-3.4-7.7-7.1-15.2-11.2-22.5l-5.4-11.2l-5.8-11.2c-15.3-33.4-31-66.7-44.6-100.8c-3.3-9.4-7.1-18.7-11.2-27.8
		c-8-20.3-14.4-41.2-22.7-61.3c-20.4-59.2-38.7-119-55.6-179.1c-7.3-28.3-14.8-56.5-22.1-84.9c-6-23.8-10.4-48.1-17-71.8
		c-9.8-46.6-17.8-93.8-28.2-140.2c-0.8-11.3-1.5-22.6-5.5-33.3c-3-24.4-4.8-49.4-11.5-73c-1.2-13.3,0.4-27.2-5.5-39.5
		c-1.3-16.6,0-33.6-5.7-49.6c-1.8-16.9,0.6-34.5-5.6-50.7c-0.7-14.4-1.3-28.7-1.6-43.1c72.1-41.8,148.7-75,224-110.4
		c113.9-49.6,229.5-95.4,348.1-132.4C703.3,514.4,821.3,486.2,939.8,460.6 M980.3,504.8c7.5,27.2,22.6,51.3,38.5,74.3
		c46.9,71.4,113.3,126.6,179.2,179.5c-42.4,0.3-77.2-27.3-110.6-49.9c-15.9,12.9-33.5,23.7-52.5,31.2
		c-78,31.7-163.3,36.5-244.3,56.6c-4,0.8-3.6,4.5-3.4,7.7l7.8-5.5c44,1.4,87.6,9.2,130.4,19c-79.8,2.1-159.3,16.3-234.8,41.8
		c-77.5,27.2-152.8,67.2-210.3,126.6c27.6-10.2,54.2-23.3,82.7-31c-35.1,34.3-71.3,67.8-101.8,106.4
		c-49.8,62.7-98.3,134.4-97.3,217.8c23.5-22.6,44.5-48.7,73.2-65.3c-34.3,77.3-62.5,157.7-78.4,240.9c-7.4,45.7-11.5,97,15,137.7
		c2.7-17.2,1.8-36.3,13.9-50.3c37.6,97.6,93.5,191.2,175.3,258c-17-27.6-35.6-54.1-49.7-83.4c-55.1-105.5-73.5-230-49-346.6
		c20.3-97.5,61.1-192.9,128-267.7c65.4-74,157.4-121.9,254-139.9c99.1-18.7,203.1-13.6,299.9,15c3.8-20.7,9.3-42.3,24.3-57.9
		c18.3-20.6,48.7-25.3,74.5-19.6c-28.3,13.5-64.9,25.3-73.9,59.3c-13.1,62.5,72.5,112.8,123.2,77.8c20.3-12.3,45.9-10.5,66.2,0.8
		c10.8-4,21.9-12.5,33.7-6.7c20.3,8.2,42.4,13.1,61.2,24.6c0.8,2.5,2.6,7.6,3.5,10.1c-11.9,20.6-34.8,30.6-54.6,41.8
		c35.1-2.8,69.7-18,105.2-11.1c20.4,6.4,11.7,30.4,7.7,45.1c18.7-6.7,36.3-18.6,45.7-36.5c11.7-23.2,11.2-50.2,8.6-75.3
		c-5.6,5.8-11,11.8-16.1,18c0.6-16.8,0.2-34.1-8.2-49.1c1.7,22.8-9.2,43.3-29.9,53.2c-16.1-27.4-33.9-54-55.2-77.6
		c-0.8,8.7-1.4,17.4-1.8,26.2c-7.8-8.6-15-19.4-27-22.1c-18.4-4-38.6,3.2-55.8-6.5c-10-5.2-23.3-15.7-16.4-28.4
		c11.2-14.6,30.4-18.1,47-23.3c3.9,11.5,8,22.9,12,34.3c25.7-16.6,53.4-37.3,85.8-32.3c7.7,1.7,20.6,3.6,18.5,14.5
		c-3.8,14.2-16,23.8-24.4,35.2c27.6-5.2,47.2-26.3,68-43.3c10.1,21.1,12.5,44.4,13.5,67.5c27.3-28.8,22.3-71.5,23-107.9
		c23.5,10.6,40.8,29.6,57.7,48.4c-13.1-29-35.8-54.1-64.7-68c-14.8-6-20.5-21.8-29.1-33.8c-13.1,3.4-25.6,11.4-39.3,11
		c-14.7-1.9-20.5-16.6-24.8-28.7c-17.8,3.4-39.1,3.7-51.8-11.5c-17.1-16.7-18.4-41.4-26.3-62.6c-14.8-13-34.3-20.6-53.7-22.4
		c-23.3-2.4-44.1,12.6-67.2,10.6c-29.1-2.1-56.9-12.4-83-24.8c-83.9-39.1-156.3-100.1-214.9-171.2
		C998.4,525,990.6,513.8,980.3,504.8 M911.1,607.9c32.2,40.4,66.2,81.5,110,109.9c18.8,12.6,36.1-7.4,49.7-18.3
		C1014.6,674.1,965.3,636.6,911.1,607.9 M269.6,855.6c16.6,4.3,36.1,3.5,49.9,15.3c9.5,6.5,0.7,16.3-2.1,23.9
		c-13.6,23.5-9,52.7,0.7,76.8c8.2,23.3,33.7,39.7,29.1,66.9c-19.2-4.4-36-15.5-51.8-26.6c-15.3-11.3-13.8-33.1-25.9-46.7
		c-25.7-29-71.3-38.7-105.8-20.2c21,1.9,45.1-0.8,62.6,13.3c16.4,14.4,14.5,38.1,17.2,57.7c5.9,11.8,23.1,8.2,31.9,16.9
		c10.7,11.4,18,26.1,30.9,35.5c22.1,15.4,52.5,14,72.8,32.7c10.6,13,3.3,31,3.6,46.1c21.2-50.7,57.2-92.6,95-131.5
		c-19.4,8.3-34.4,24.8-55.7,29c-8.5-19.7-12.1-43.3-2.2-63.1c5.5-13.8,24.2-3.8,32.9-13.4c13.2-12.4,11.2-34.3,3-48.9
		c-13.9-21.7-36-36.6-57.7-49.7c8.4,10.8,18.8,20,27,31c7.2,10.1,9.9,26.4-2.2,33.8c-9-5.5-18.9-8.4-29.4-8.9
		c-15.6,28.5-10.1,61.5-12.2,92.6c-18.1-28.2-33.7-61-31.5-95.3c4.4-0.4,13.3-1.3,17.7-1.7C365.9,874.7,312.8,840,269.6,855.6
		 M777.4,1014.3c-83.4,39-156.2,101.5-205.1,179.8c-65.3,104.1-89.9,231.4-72.5,352.7c13.9,93.5,43.7,185,90.9,267.1
		c26.1-39.7,26.2-90.4,50.1-130.9c27.3-27,69.2-26.5,104.4-35.6c8.5-3,22.9-3.1,22.5-15.2c-77-68-143.7-159.3-149.4-265.2
		c31.2,80,80.8,156.8,156.4,201.1c37.4,21.1,78.6,40.5,122.6,39c-26.3-7.3-52.7-15.4-76.1-30c-60.6-35.9-101.9-96-133.3-157.6
		c-7.9-17.2-25.7-34.8-17.3-55.1c6.4-13.1,23.9-10,35.2-6.5c104.6,38.5,219.3,54.4,329.8,35.6c81.5-15.2,162.2-47.4,223.7-104.4
		c-50.6,24.9-101.2,50.9-155.8,66.4c-79.4,23-166.4,35.1-246.2,7.5c-32.1-10.6-63.2-25.2-90.7-45c-7.7-5.4-16.9-17.9-6.9-25.7
		c14.7-12.2,35.1-13.1,53.3-14.9c78.1-2.5,156.4-11,232.1-30.8c78.9-21.1,157.3-54.5,216.4-112.2c17.2-18.5,35.7-38.1,41.2-63.6
		c-21.6,16.8-37.3,40.2-60.3,55.6c-83.4,60.6-186.5,86-287.1,100.1c-52.5,6.5-107.6,13.2-158.5-5.7c-29.8-10.5-59.8-29.3-69.7-61.1
		c-14.4,17.1-25.8,38.2-46.2,48.9c-9.3,4.9-12-7.3-12.4-13.9c-3.7-21.4,10.8-38.9,22-55.4c32.8-44.9,62.5-92.7,103.9-130.6
		C788.7,1010.3,783,1012.2,777.4,1014.3 M1263.5,1214.8c-128.4,76-282.3,93.8-428.9,87.2c-9.4-0.6-29,1.1-24.2,15.4
		c21.8,19.1,53.1,19.5,80.5,21.4c147.8,3,302.4-37.8,414.1-138.4c12.6-11.8,27.5-22.6,33.9-39.3
		C1313.7,1179,1290.6,1199.8,1263.5,1214.8 M1209.2,1367.9c42.5,13.6,86.5,25.7,123.9,51c9.5,7.2,22.8,18.8,15.8,32.1
		c-10.5,17.3-30.9,25.5-49.9,29.4c-24,4.7-46-8.2-66.9-17.7c28.9,39.4,78.6,57.7,126.4,52c-5.5-9.8-9-20.6-7.3-31.9
		c35.3-9.3,77.3-0.3,105.2,23.9c-15.4-47.8-49.7-89.2-94.6-111.7C1315,1371.4,1260.9,1363.5,1209.2,1367.9 M709.3,1382.3
		c1.8,8.4,1.8,18,7.4,25.2c23.8,33.1,58.6,56.9,95.7,72.9c82.9,35.6,178,39.8,264.9,17.6c-52.8,1.5-105.9,0.3-157.8-10.3
		c-68.1-12.2-138.1-39.9-181.9-95.9C731,1382.8,719.2,1383.5,709.3,1382.3 M1206.5,1499.4c17.2,27.4,47.5,43.1,78.2,50.5
		c6.3,12,20.2,28.2,7.8,40.9c-19.3,14.4-46.4,9.2-67.7,2.3c-45-17-72.1-58.9-98.2-96.7c18.7,56.7,60.7,106.2,116,129.8
		c62.4,28.5,135.2,18.6,197-6.1c-33.3-2-69.4,2.2-99.7-14.4c-17.3-9.6-17.8-32.4-8.7-48c45.6,7.1,91-11.1,136.7-3.6
		c36.2,4.5,76.7,19.7,91.9,55.8c22.3,52.5,9.8,111.7-7.3,163.9c-25.5,72.3-57.4,142.5-98.2,207.4c-15.3,23.5-31,47.3-51.8,66.2
		c-42.1,35.9-92.8,60.2-145.1,77.5c-86.9,29.4-181.7,44.9-272.2,23.5c-45-10.3-85.5-39.4-106.6-80.9
		c-42.5-81.5-47.9-176.5-41.6-266.5c-32.7,30.7-73.4,59-120.1,58.8c-28.4-0.8-62-18.2-62.6-50.1c3.6-28.5,28.6-48.7,53-60.3
		c22-10.3,48.6,4.9,56.3,26.5c0.5,15-17.4,21.8-29.6,24.8c-15.4-2.7-24.3-16.6-36.5-24.9c-2.7,17.3-0.8,38.8,16.4,48.1
		c28.4,14.9,65.7,8.5,90.4-10.9c35.1-34.7,42-103.6,0.7-136.1c-35.5-22.2-79.6-7.1-116.7,3.2c-27.1,7.4-42.1,33.8-47.1,59.8
		c-9.3,43.8-24.4,87-51,123.4c24.8,2.1,52.9,5.5,70.6,25c15.9,18.3,13.6,45.1,5.9,66.5c-7.3,19.7-10.3,42.5,0.6,61.5
		c22.1,40.3,74.7,48,99,86.2c10.1,18,9.3,39.8,17.3,58.6c6.2,13,20.2,20.2,33.9,22.4c29.5,5.4,60.8,5.5,88.1,19.3
		c26.9,13.8,29.6,53,60.1,62.2c23.9,6.2,45.9-10.1,69.4-12.5c26.1-7.2,53-2.1,78.1,6.4c30.8,10.2,66.9,9.8,93.8-10.2
		c34.2-25.4,65.1-56.2,104.3-74.3c40.5-20.5,88.4-22.1,127.4-46.2c21.7-13.1,31.4-38.1,36.5-61.7c10.7-50.5,23.9-101.7,51.8-145.7
		c14.7-23.7,39.2-40.5,50.2-66.7c18.8-44.4,18.7-93.6,30.3-139.9c6.2-27.2,31.5-48.9,26.6-78.6c-6-24.6-18.1-47.3-29.9-69.5
		c-13.1-24.2-36.6-43.3-64.6-46.1c-60.2-5-120.2,6-179.9,11.9c-42.3,3.4-88.6-2.5-122.4-30.1c-27.4-21.8-39.4-56.4-44.6-89.8
		C1185.2,1441,1190.6,1473.8,1206.5,1499.4 M1623.6,1574.3c-1.2,8.6,2.3,12.5,10.5,11.7c12.2-3.1,16.4-15.9,20.8-26.3
		C1644.3,1564,1633,1567.4,1623.6,1574.3 M1618.5,1719.9c0.3,3.9,0.9,11.8,1.2,15.8c20.4,9.6,41.6-5.3,55.4-19.6
		C1656.2,1718.6,1636.5,1712.9,1618.5,1719.9 M918.7,1775.8c-19.3,16.1-13.3,50.2,11.4,57.4c1.7,24.5-10.9,48.8-30.4,63.3
		c-7.4,6-20.9,5.8-23.3-5.1c-4-17.1-3.7-36.2-16.9-49.6c-5.2,57.2,2.6,115.5,20.8,170c1.4-13.8,0.4-33.7,16.7-38.8
		c30.5-7,59.1,12.9,89.5,9.6c17.5-1.7,32.4-12,49.3-15.9c12.6-1.7,25,6,37.6,2.7c14-16.6,23.7-40.6,47-45.7
		c23.7-4.6,43.6,12.1,63.5,21.8c-19.4-34.6-64.5-50.2-102-40c-20.7,4.2-30.6,27.5-51.8,30.8c-19.7,3.1-39.9,0.8-59.7-0.4
		c-4.1-14.2,11.3-24.3,22.7-28.9c31.6-12.1,62-34.2,73.8-67.1c5.7-13.5,2.7-28.9,7.5-42.4c19.6-11.6,40.9,4,60.3,8.4
		c-12-17.1-33.7-23.7-53.7-23.1c-26.2-0.6-55.6,7.8-70.1,31.3c4.1,5.4,18.3,8.3,13.5,17.5c-17.7,29.7-49,47.3-76.7,66.4
		c10.1-30.2,37.3-54.4,36.7-88.1c-4.2-16-27.7-8-37-20.5c10.5-25.6,38.8-31.3,62.1-39.1C978.1,1751.5,944.2,1756,918.7,1775.8
		 M603.9,1897.6c-41.8,27.8-61.9,78.2-65.7,126.8c18.3-39.3,64.1-47.5,98.7-66.3c16.1-7.2,16.7-26.8,14.7-41.8
		C650.7,1894.2,619.7,1884.6,603.9,1897.6 M1517.2,1956.4c-7.7,10.1,1.1,22.6,11.6,25.6c24.7,7.7,50.9-2.7,71.9-15.8
		c-16.9,0-32.3-6.2-46.8-14.3C1542.6,1945.2,1524.2,1942.1,1517.2,1956.4 M731.1,2097.1c-41.2,20.2-67.5,64.7-70.1,110
		c16.1-29.9,50.8-38.3,79.8-50.4c12.9-4.5,25.9-13.5,25.3-28.9C770.8,2107.8,750,2090.5,731.1,2097.1 M1295.8,2217.1
		c12.4,26.7,35.5,49.8,63.6,59.7c-9.1-14.8-16.7-30.9-18.1-48.5c-2.5-15.2-1.2-37.7-20.2-42
		C1303,2180.8,1288.2,2200.3,1295.8,2217.1 M854.4,2220c-24.8,30.6-32.6,72-29.9,110.6c9.2-36.6,48.3-49.1,75.1-70
		c19.4-11.9,15.4-44.4-3.5-54.6C880.8,2202.4,864.1,2207.9,854.4,2220 M1055,2265.9c-27.5,28.4-30.5,72.4-24.1,109.4
		c8-33.6,41.3-48.6,60.8-74C1106.4,2279.1,1076.4,2251.5,1055,2265.9L1055,2265.9z"/>
	<path class="st2" d="M1349.7,774.6c17.8,5.5,36.6,7.3,54.7,11.7c10.5,8.1,12.1,22.3,16.4,34C1388.2,824.5,1367,797.7,1349.7,774.6z
		"/>
</g>
</svg>
