<?xml version="1.0" encoding="UTF-8" standalone="no"?>
<!-- Created with Inkscape (http://www.inkscape.org/) -->
<svg xmlns:rdf="http://www.w3.org/1999/02/22-rdf-syntax-ns#" xmlns="http://www.w3.org/2000/svg" version="1.1" xmlns:cc="http://creativecommons.org/ns#" xmlns:dc="http://purl.org/dc/elements/1.1/" viewBox="0 0 219.7 71.14">
 <metadata>
  <rdf:RDF>
   <cc:Work rdf:about="">
    <dc:format>image/svg+xml</dc:format>
    <dc:type rdf:resource="http://purl.org/dc/dcmitype/StillImage"/>
    <dc:title/>
   </cc:Work>
  </rdf:RDF>
 </metadata>
 <g fill-rule="evenodd" transform="translate(-137.04869,-561.58279)">
  <path d="m137.2,632.7,219.5,0,0-71.14-219.5,0,0,71.14z" fill="#ed1c24"/>
  <path d="m351.8,627-135.9,0,22.15-61.12,113.7,0,0,61.12" fill="#FFF"/>
  <path d="m156.9,576-19.89,56.05,19.89-56.05zm4.222-0.0113-20.13,56.14-3.152-0.006,19.75-56.1,3.531-0.0412zm6.232,0-20.13,56.14-3.152-0.006,19.75-56.1,3.531-0.0412zm6.232,0-20.13,56.14-3.152-0.006,19.75-56.1,3.53-0.0412zm3.57,0.006c2.004,0,4.743-0.0763,6.636,0.0862,5.382,2.128,9.351,11.43,6.752,21.33-2.298,8.758-11.42,21.73-16.18,21.57-4.59-0.1562-9.308-0.0498-12.31-0.0498l15.11-42.94" fill="#FFF"/>
  <path d="m211.5,618.8c-1.913,0-9.97,0.1991-11.78,0.0376-5.137-2.128-8.924-11.43-6.444-21.33,2.193-8.758,8.42-21.69,15.45-21.69h17.61l-4.751,13.65-11.93,0.0987c-3.515-0.235-11.36,13.76-3.862,16.74l9.252,0.023-3.54,12.47" fill="#FFF"/>
  <path d="m249.7,601.2,6.291,2.696c-0.645,3.296-1.505,6.045-2.58,8.259s-2.344,3.882-3.798,5.004c-1.456,1.132-3.252,1.688-5.385,1.688-2.593,0-4.67-0.687-6.221-2.052-1.555-1.375-2.822-3.791-3.794-7.248-0.9657-3.457-1.282-7.875-0.9355-13.26,0.4619-7.188,1.867-12.72,4.214-16.57,2.348-3.861,5.443-5.791,9.28-5.791,3.004,0,5.294,1.101,6.873,3.315,1.58,2.214,3.499,6.966,4.038,11.54l-7.539,1.284c-0.1425-1.325-0.3188-2.295-0.5292-2.912-0.3448-1.02-0.7998-1.809-1.358-2.365-0.564-0.5562-1.213-0.8288-1.952-0.8288-1.666,0-3.027,1.224-4.073,3.67-0.7886,1.819-1.311,4.67-1.561,8.562-0.31,4.823-0.1166,8.118,0.5684,9.907,0.69,1.789,1.76,2.679,3.21,2.679,1.411,0,2.522-0.7188,3.337-2.163,0.8125-1.436,1.409-2.666,1.914-5.416zm13.88-26.54,7.37,0-1.711,15.19,8.059,0,1.711-15.19,7.402,0-4.889,43.42-7.402,0,1.976-17.56-8.058,0-1.978,17.56-7.369,0,4.888-43.42zm28.44,0,7.386,0-5.308,43.42-7.386,0,5.308-43.42zm13.48,0,12.25,0c2.665,0,4.555,1.152,5.662,3.468,1.109,2.305,1.462,5.6,1.059,9.856-0.4162,4.388-1.464,7.814-3.146,10.28-1.684,2.466-4.011,3.7-6.982,3.7h-4.031l-1.53,16.11h-7.402l4.12-43.42zm5.646,18.51,1.805,0c1.421,0,2.458-0.4444,3.121-1.345,0.6575-0.8988,1.055-2.051,1.188-3.446,0.13-1.365-0.01-2.526-0.42-3.468-0.405-0.95-1.298-1.425-2.675-1.425h-2.1l-0.9188,9.684zm15.28,10.21,7.081-0.7989c-0.0238,2.073,0.1538,3.649,0.5275,4.741,0.6075,1.759,1.622,2.628,3.034,2.628,1.049,0,1.898-0.4449,2.545-1.345,0.6425-0.8994,1.014-1.94,1.114-3.124,0.0937-1.122-0.0875-2.133-0.5562-3.022-0.4688-0.8896-1.654-1.728-3.564-2.517-3.121-1.324-5.279-3.073-6.47-5.267-1.204-2.194-1.662-4.984-1.376-8.38,0.1888-2.235,0.7225-4.346,1.6-6.329,0.8775-1.981,2.075-3.538,3.599-4.68,1.522-1.132,3.525-1.699,6.008-1.699,3.049,0,5.289,1.032,6.715,3.094,1.425,2.062,3.021,5.348,2.948,9.846l-7.934,0.7375c-0.0188-1.951-0.2862-3.376-0.8062-4.265-0.5138-0.88-1.292-1.325-2.331-1.325-0.8612,0-1.532,0.3238-2.022,0.99-0.4888,0.6575-0.7738,1.466-0.8538,2.418-0.0575,0.6862,0.0687,1.304,0.3762,1.859,0.3012,0.5762,1.08,1.102,2.342,1.598,3.115,1.264,5.311,2.548,6.596,3.841,1.285,1.294,2.166,2.891,2.638,4.812,0.4725,1.91,0.6138,4.053,0.4125,6.429-0.2338,2.78-0.8775,5.348-1.92,7.693-1.042,2.355-2.375,4.134-3.999,5.348-1.619,1.213-3.586,1.82-5.896,1.82-4.054,0-6.745-1.416-8.065-4.266-1.326-2.841-1.905-6.449-1.741-10.84" fill="#231f20"/>
 </g>
</svg>
