<?xml version="1.0" encoding="utf-8"?>
<!-- Generator: Adobe Illustrator 24.0.2, SVG Export Plug-In . SVG Version: 6.00 Build 0)  -->
<svg version="1.1" id="Capa_1" xmlns="http://www.w3.org/2000/svg" xmlns:xlink="http://www.w3.org/1999/xlink" x="0px" y="0px"
	 viewBox="0 0 420 160" style="enable-background:new 0 0 420 160;" xml:space="preserve">
<style type="text/css">
	.st0{fill:#4ACBD6;}
	.st1{fill:#FFFFFF;}
</style>
<path class="st0" d="M0,111.4c0,4.2,3.5,8.3,8.2,8.3h31.6v32c0,4.2,3.5,8.3,8.2,8.3h27V84H0L0,111.4z M100.2,0
	c-33,0-59.4,26.6-59.4,59.4V72H74V59.4c0-14.2,11.5-25.8,26.2-25.8c14.5,0,24.7,10.2,24.7,25.4c0,15-10.9,26.1-25.5,26.1H86.9v33.6
	h12.5c32.4,0,58.7-26.7,58.7-59.7C158.1,24.8,133.6,0,100.2,0"/>
<path class="st1" d="M420,119.7L399.3,96l18.5-21.3h-11.5l-16.6,19.8V54.4l-9.8,5v57.8c0,1.4,1.1,2.6,2.4,2.6h7.4V97.3l18.3,22.4
	L420,119.7L420,119.7z M349.2,73.4c-7.9,0-16.1,4.2-20.2,10.2v33.6c0,1.3,1.1,2.4,2.4,2.4h7.4v-32c2.4-3,6.2-5,10.4-5
	c6.8,0,11.7,5.4,11.7,12.6v24.3h9.6V95C370.5,82.7,361.3,73.4,349.2,73.4 M314.1,53.4c-3.6,0-6.6,2.9-6.6,6.6c0,1.8,0.6,3.2,1.7,4.3
	h9.8c1.1-1.1,1.7-2.6,1.7-4.3C320.7,56.3,317.7,53.4,314.1,53.4 M319,119.7v-45h-9.8v42.6c0,1.3,1.1,2.4,2.4,2.4H319z M289.4,117.3
	c0,1.3,1.1,2.4,2.4,2.4h7.4V54.4l-9.8,5V117.3z M267.5,102.1h13.3v-9.9h-18L267.5,102.1z M232.8,73.9c-8.4,0-17.2,4.5-21.7,11v49.3
	c0,1.3,1.1,2.4,2.4,2.4h7.4V89c2.4-3.5,6.8-5.8,11.7-5.8c7.6,0,13.1,5.8,13.1,13.9c0,8-5.5,14.1-13.1,14.1h-7v8.5h7.1
	c13.1,0,22.8-9.4,22.8-22.6C255.6,83.8,245.8,73.9,232.8,73.9 M188.9,104.6V83.5h12.6v-8.8h-12.6V61.1l-9.8,5v40.6
	c0,8.3,4.9,13,13.6,13h12.6v-8.5h-10.1C190.5,111.2,188.9,109.4,188.9,104.6"/>
</svg>
