<?xml version="1.0" encoding="utf-8"?>
<!-- Generator: Adobe Illustrator 24.0.2, SVG Export Plug-In . SVG Version: 6.00 Build 0)  -->
<svg version="1.1"
	 id="svg8" inkscape:version="1.0 (4035a4fb49, 2020-05-01)" sodipodi:docname="Intel Core i9 2020 logo.svg" xmlns:cc="http://creativecommons.org/ns#" xmlns:dc="http://purl.org/dc/elements/1.1/" xmlns:inkscape="http://www.inkscape.org/namespaces/inkscape" xmlns:rdf="http://www.w3.org/1999/02/22-rdf-syntax-ns#" xmlns:sodipodi="http://sodipodi.sourceforge.net/DTD/sodipodi-0.dtd" xmlns:svg="http://www.w3.org/2000/svg"
	 xmlns="http://www.w3.org/2000/svg" xmlns:xlink="http://www.w3.org/1999/xlink" x="0px" y="0px" viewBox="0 0 793.9 212.8"
	 style="enable-background:new 0 0 793.9 212.8;" xml:space="preserve">
<style type="text/css">
	.st0{fill-rule:evenodd;clip-rule:evenodd;fill:#006254;}
</style>
<sodipodi:namedview  bordercolor="#666666" borderopacity="1.0" fit-margin-bottom="0" fit-margin-left="0" fit-margin-right="0" fit-margin-top="0" id="base" inkscape:current-layer="layer1" inkscape:cx="607.13383" inkscape:cy="725.29441" inkscape:document-rotation="0" inkscape:document-units="mm" inkscape:pageopacity="0.0" inkscape:pageshadow="2" inkscape:window-height="705" inkscape:window-maximized="1" inkscape:window-width="1366" inkscape:window-x="-8" inkscape:window-y="-8" inkscape:zoom="0.29698485" pagecolor="#ffffff" showgrid="false" showguides="false">
	</sodipodi:namedview>
<g>
	<path class="st0" d="M630.3,7.1h64.9l-7.7,37.7c19.8-31,42.5-40,70.4-41.9c9.6-0.3,21.4,1,32,2.6l-12.5,49.6
		c-10.2-2.6-21.1-4.5-30.7-4.5c-38.4-0.6-66.9,25.3-76.8,62.4l-22.4,85.1h-67.2C597,134.4,619.1,65,630.3,7.1L630.3,7.1z"/>
	<path class="st0" d="M445.7,91.9c11.2-5.4,50.2-4.8,75.5-8c29.1-3.5,69.7-19.5,68.8-43.8c-1.6-25.9-24.6-31.8-46-28.9
		C493.4,18.5,460.4,51.6,445.7,91.9L445.7,91.9z M439.4,108.4c-1.3,11.2-2.7,23.1-1.7,32c4.2,31.7,31.9,46.5,61.7,47.4
		c24.8,0.6,55-14.2,71.4-32.7c3.1-3.5,6.7-2.4,8.8,0.4c1.6,2.1,1,6.9-0.5,8.4c-25.8,25.6-52.3,40.1-89.2,40.4
		c-41.9,0.3-94.4-15.7-100.8-59.2c-1-5.1-1-10.9-0.3-17C397.1,47.5,470.7,4,543,0.2c34.5-1.9,84.4,7,81.6,44.5
		c-2.9,39.3-62.4,53.1-101.1,54.1C490.8,99.9,450.6,99.7,439.4,108.4L439.4,108.4z"/>
	<path class="st0" d="M403.3,153.9l-10.8,41.6c-18.2,3.8-41.9,7.4-63.7,6.7c-64.6-1.3-112-31-109.1-92.4C223.2,39.1,293.3,3,360.8,2
		c22.4,0,42.9,2.2,65.6,7.7l-20.2,40c-14.7-4.2-34.5-8-54.4-6.1c-31,2.2-59.5,18.9-67.8,51.5c-10.9,40.9,12.8,69.7,54.7,69.7
		C360.8,164.8,382.2,160.3,403.3,153.9L403.3,153.9z"/>
	<path class="st0" d="M130.2,2.6c54.1,0,94.8,12.4,98.7,57.3c1.5,17.3-4.8,32.7-9.6,50.9l-22.5,87.6c-43.2,0-78.4,1-117.4,4.2
		C43.2,202.5,0,194.9,0,148.8c0.8-75.3,117.4-68.5,167-68.5c10.6-30.1-14.1-42.2-48.6-42.2c-31.3,0-57.2,9-82.4,17.3l8.9-40.6
		C69.4,6.8,101.1,2.6,130.2,2.6L130.2,2.6z M159.6,110.4c-27.2,0-104.2-6.4-104.2,35.2c0,20.8,21.8,23.9,40,23.9
		C143.3,169.5,150.8,152.8,159.6,110.4L159.6,110.4z"/>
	<path class="st0" d="M767.3,159.3c-7.3,0-13.7,2.9-18.5,7.7c-5.1,5.4-8,12.1-8,19.2c0,7,2.9,13.4,7.7,18.6c5.1,5.1,11.8,8,18.9,8
		c7,0,13.8-2.9,18.9-8c5.1-5.1,7.7-11.5,7.7-18.6c0-7.3-2.5-14.1-7.7-18.9C781.1,162.2,774.4,159.3,767.3,159.3L767.3,159.3z
		 M791.4,186.2c0,6.4-2.6,12.2-7,16.6c-4.5,4.5-10.9,7-17,7c-6.4,0-12.5-2.6-16.9-7c-4.5-4.5-7-10.5-7-16.6c0-6.4,2.6-12.5,7-17.3
		c4.5-4.5,10.6-7,16.9-7c6.4,0,12.5,2.6,17,7.4C788.8,173.7,791.4,179.5,791.4,186.2L791.4,186.2z M768,170.2h-10.9v30.7h4.2v-13.8
		h7.7l6.7,13.8h4.8l-7-14.1c4.5-0.7,7.4-3.9,7.4-8C780.8,172.8,776.6,170.2,768,170.2L768,170.2z M767.3,173.1
		c6.1,0,9.3,1.6,9.3,5.4c0,4.8-2.9,6.1-9.3,6.1h-6.1v-11.5H767.3L767.3,173.1z"/>
</g>
</svg>
