<?xml version="1.0" encoding="utf-8"?>
<!-- Generator: Adobe Illustrator 24.0.2, SVG Export Plug-In . SVG Version: 6.00 Build 0)  -->
<svg version="1.1"
	 id="svg8" inkscape:version="1.0 (4035a4fb49, 2020-05-01)" sodipodi:docname="Intel Core i9 2020 logo.svg" xmlns:cc="http://creativecommons.org/ns#" xmlns:dc="http://purl.org/dc/elements/1.1/" xmlns:inkscape="http://www.inkscape.org/namespaces/inkscape" xmlns:rdf="http://www.w3.org/1999/02/22-rdf-syntax-ns#" xmlns:sodipodi="http://sodipodi.sourceforge.net/DTD/sodipodi-0.dtd" xmlns:svg="http://www.w3.org/2000/svg"
	 xmlns="http://www.w3.org/2000/svg" xmlns:xlink="http://www.w3.org/1999/xlink" x="0px" y="0px" viewBox="0 0 793.9 200.4"
	 style="enable-background:new 0 0 793.9 200.4;" xml:space="preserve">
<style type="text/css">
	.st0{fill:#FFFFFF;}
</style>
<sodipodi:namedview  bordercolor="#666666" borderopacity="1.0" fit-margin-bottom="0" fit-margin-left="0" fit-margin-right="0" fit-margin-top="0" id="base" inkscape:current-layer="layer1" inkscape:cx="607.13383" inkscape:cy="725.29441" inkscape:document-rotation="0" inkscape:document-units="mm" inkscape:pageopacity="0.0" inkscape:pageshadow="2" inkscape:window-height="705" inkscape:window-maximized="1" inkscape:window-width="1366" inkscape:window-x="-8" inkscape:window-y="-8" inkscape:zoom="0.29698485" pagecolor="#ffffff" showgrid="false" showguides="false">
	</sodipodi:namedview>
<path class="st0" d="M186.5,181.3h-44L129,148.9H55.6l-12.3,32.4H0L66.2,17.7h47.4L186.5,181.3z M90.5,56.8l-24.1,63.6h50.5
	L90.5,56.8z M346.4,17.7H382v163.6h-40.9V79.1l-44.3,51.3h-6.3l-44.3-51.3v102.2h-40.9V17.7H241l52.7,60.7L346.4,17.7z M485.6,17.7
	c59.9,0,90.7,37.2,90.7,82c0,47-29.8,81.6-95.3,81.6h-67.8V17.7H485.6z M454.1,151.3h26.7c41.1,0,53.4-27.8,53.4-51.8
	c0-28.1-15.2-51.8-53.9-51.8h-26.2V151.3L454.1,151.3z M657.7,56.5L606.1,5.1h187.8v187.2l-51.6-51.4V56.5H657.7z M657.7,66.8
	l-53.1,52.9v74.1h74.3l53.1-52.9h-74.3V66.8z"/>
</svg>
