<?xml version="1.0" encoding="utf-8"?>
<!-- Generator: Adobe Illustrator 24.0.2, SVG Export Plug-In . SVG Version: 6.00 Build 0)  -->
<svg version="1.1"
	 id="Capa_1" text-rendering="geometricPrecision" shape-rendering="geometricPrecision" image-rendering="optimizeQuality"
	 xmlns="http://www.w3.org/2000/svg" xmlns:xlink="http://www.w3.org/1999/xlink" x="0px" y="0px" viewBox="0 0 1284.3 405.9"
	 style="enable-background:new 0 0 1284.3 405.9;" xml:space="preserve">
<style type="text/css">
	.st0{fill-rule:evenodd;clip-rule:evenodd;fill:#0092C8;}
	.st1{fill-rule:evenodd;clip-rule:evenodd;fill:#FCFAFB;}
</style>
<path class="st0" d="M29.3,136.6h866.2c19.4,0,35.5,1.8,47.9-14.8c7.6-10.1,9.2-24.5,3.2-36.3c-5.4-10.7-16.4-19.7-29.3-19.7
	c-18.1,0-37.6,2.6-55.8,4.1L29.3,136.6L29.3,136.6z"/>
<path class="st1" d="M999,182.2v47c0,1.2,5.4-1.4,7.9-2.3c26.6-10.2,70.1-16.8,96.4-8c9.7,3.2,16.6,8.8,17.6,20.5
	c-5.9,0-20.9-2-32-2c-31.6,0-74.2,1-98.2,25c-20.6,20.6-23.9,62.4,12,80.3c13.3,6.7,29.3,9.2,44,9.7h35.4c10.6,0,25.8-2.7,33.9-7.6
	c3.3-1.9,5.6-3.7,8.3-6c1.2,13.9,43.6,11.6,54.5,11.6c2.3,0,4.8-0.1,4.8-0.7v-66.1c0-37.3,6.8-83.9-30-102.1
	c-25.3-12.5-53.2-10.9-81.7-10.9c-20.4,0-49.8,3.9-69.8,9.2C1000.2,180.3,999,180.1,999,182.2L999,182.2z M416.1,174.7v121.2
	c0,16.5,12.6,32.5,24.9,41.1c23.3,16.3,60.1,20.7,87.7,7.4c3.1-1.5,7.6-4.3,10.7-5c1,3.6,6.9,5.2,10.1,6.2c14.9,5,34.3,5.4,50.5,5.4
	V172.7h-60.6c-3.2,0-2,5.5-2,11.6l0,97.4c-0.7,15.1-12.1,27.9-25.9,29.9c-15.6,2.3-32.7-6.8-32.7-21.8V172.7h-60.6
	C416.5,172.7,416.1,173.1,416.1,174.7L416.1,174.7z M1223,351.1h61.3v-303H1223V351.1z M629.9,258.5c0,31,19.9,52.8,38.5,65.7
	c20.2,14,53.3,24.9,79.3,24.9c23.6,0,36.2,0.2,59.5-6.5c13.3-3.8,24.8-8.1,35.8-13.9L821.9,300c-2.6,0.6-16,6.1-29,9.1
	c-11.8,2.7-24.3,3.8-37.7,3.8c-29.9,0-58.6-19.3-58.6-49.7c0-11.4,0-21,6-30.8C735.1,179,820.5,219,820.6,219l21.1-27.2
	c-7.6-3.7-23.4-12.2-35.5-15.5c-27.1-7.5-29.7-7.6-57.7-7.6c-14.6,0-32.5,4-44,7.7C668.1,188.1,629.9,215.9,629.9,258.5L629.9,258.5
	z M4.9,284.9c17,41.5,72.3,64.1,112.3,64.1c23.3,0,36.5,0.1,59.6-6.4c13.3-3.8,24.8-8.2,35.7-14c-1-3.6-16.8-23.2-20.4-28.6
	c-6.2,1.4-13.4,5.9-29.1,9c-26.9,5.4-57,8-79.4-10.2c-12.1-9.8-17.5-22.6-17.5-41.8c0-25,15.1-40.6,35.5-48.3
	c17.8-6.7,42.4-4.3,59.7,0c7.2,1.8,25.6,9.7,30.1,10.1c2.7-3.5,19.7-24.6,20.4-27.2c-7.1-1.7-24.7-11.7-35.2-15.2
	c-25.8-8.6-53.2-10.1-80.3-5.6C56.8,177.5,2.9,207.6,0,254.4C0,266.6,0,273.1,4.9,284.9L4.9,284.9z M318,186.3
	c-8.5-5.7-11.1-6.7-22.1-8.6c-14.8-2.5-24.4-2.3-39.2-2.3v174.3h59.9c1.8,0,2-1.3,2-8.2l0-96.7c-0.1-17.3,20.9-28.6,36.8-28.6
	c10.7,0,21.4,0.5,30.6,5.4l0.1-43c0-2.6-1.1-3.1-5.3-3.5C343.9,171,330.8,177.3,318,186.3L318,186.3z M876.4,178.8V347
	c0,1.6,0.5,2,2,2h59.9V176.8h-59.9C876.9,176.8,876.4,177.2,876.4,178.8z M1060.9,323.6c39.3-0.7,60.1-22.7,58-55.2
	c-17.6,1-31.2-0.1-48.4,0.6c-21.5,0.9-40.2,9.3-41.5,26.4C1027.8,312.4,1039.9,324,1060.9,323.6L1060.9,323.6z"/>
</svg>
