<?xml version="1.0" encoding="utf-8"?>
<!-- Generator: Adobe Illustrator 24.0.2, SVG Export Plug-In . SVG Version: 6.00 Build 0)  -->
<svg version="1.1" id="Capa_1" xmlns="http://www.w3.org/2000/svg" xmlns:xlink="http://www.w3.org/1999/xlink" x="0px" y="0px"
	 viewBox="0 0 2500 550" style="enable-background:new 0 0 2500 550;" xml:space="preserve">
<style type="text/css">
	.st0{fill:#C75B12;}
</style>
<path class="st0" d="M1231.2,139c-6.9-3.9-14.8-5.8-23.6-5.8c-24.8,0-37.2,15.7-37.2,47v34.2h51.9v30.1h-51.9v191.6h-35.5V244.4
	h-37.7v-30.1h37.7v-35.9c0-22.5,6.6-40.7,19.9-54.6c13.3-13.9,30.2-20.8,50.7-20.8c10.8,0,19.4,1.3,25.8,3.9L1231.2,139z
	 M1296.7,134.8c0,6.6-2.3,12.2-6.9,16.5c-4.6,4.4-10.1,6.6-16.4,6.6c-6.5,0-12-2.1-16.5-6.4c-4.5-4.3-6.7-9.9-6.7-16.8
	c0-6.2,2.2-11.6,6.6-16.1c4.4-4.6,9.9-6.8,16.6-6.8c6.6,0,12.2,2.2,16.7,6.7C1294.4,123.1,1296.7,128.5,1296.7,134.8 M1290.6,435.9
	h-35.5V214.3h35.5V435.9z M1493.2,425.8c-17.2,10.4-37.5,15.6-60.8,15.6c-20.2,0-38.3-4.7-54.4-14c-16.1-9.3-28.6-22.5-37.6-39.5
	c-9-17-13.4-36.1-13.4-57.3c0-36.6,10.5-66.1,31.5-88.3c21-22.2,49-33.3,83.9-33.3c19.3,0,36.4,3.8,51.3,11.3v36.4
	c-16.6-11.5-34.2-17.3-52.8-17.3c-22.9,0-41.6,8.2-56,24.6c-14.4,16.4-21.6,37.5-21.6,63.5c0,25.9,6.8,46.2,20.5,61.3
	c13.6,15,31.9,22.5,54.9,22.5c19.3,0,37.5-6.3,54.6-19.1L1493.2,425.8L1493.2,425.8z M1711.3,334h-156.5c0.6,25,7.2,44,19.8,57.3
	c12.6,13.2,30.1,19.8,52.5,19.8c25.1,0,48-8.1,68.6-24.2v33.1c-19.3,14.3-45,21.4-77.1,21.4c-31.6,0-56.3-10.2-74.1-30.6
	c-17.7-20.4-26.6-48.7-26.6-84.8c0-21.9,4.5-41.9,13.3-60.1c8.9-18.1,21.1-32.1,36.7-42.1c15.6-9.9,32.9-15,51.9-15
	c28.7,0,51.1,9.3,67.2,28.1c16.1,18.7,24.1,44.8,24.1,78.5L1711.3,334L1711.3,334z M1675,303.9c-0.3-20.5-5.2-36.4-14.8-47.7
	c-9.6-11.3-23.1-17-40.6-17c-16.5,0-30.5,5.9-42.2,17.7c-11.7,11.8-19,27.5-22.1,47L1675,303.9z M1981.5,348c0,28-10,50.5-30.1,67.7
	c-20.1,17.1-46.4,25.6-79,25.6c-29.6,0-53.1-5.6-70.6-16.9v-38.1c20.9,16.4,44.9,24.7,71.9,24.7c21.8,0,39.2-5.4,52.1-16.1
	c12.9-10.7,19.4-25.3,19.4-43.6c0-40.5-28.9-60.8-86.6-60.8h-25.8v-30.1h24.4c51.1,0,76.6-19,76.6-57.2c0-35.2-19.5-52.8-58.5-52.8
	c-21.9,0-42.5,7.4-61.7,22.1v-34.4c19.8-11.8,43.3-17.8,70.6-17.8c25.7,0,46.4,6.8,62.2,20.5c15.8,13.6,23.7,31.5,23.7,53.6
	c0,40.9-20.6,67.1-61.9,78.8v0.9c21.9,2.5,39.6,10.4,53.1,23.8C1974.7,311.2,1981.5,328,1981.5,348 M2215,337.5
	c0,19.6-4.2,37.4-12.7,53.5c-8.4,16-20.1,28.4-35,37.2c-14.9,8.8-31.5,13.2-50,13.2c-31,0-55.4-12.5-73.1-37.4
	c-17.7-25-26.5-59.8-26.5-104.6c0-35.5,5.2-66.9,15.7-94c10.5-27.2,25.3-48.2,44.5-62.9c19.2-14.7,41.3-22.1,66.5-22.1
	c21.4,0,38.5,3,51.5,8.9v33.6c-16-8.2-32.9-12.3-50.7-12.3c-27.4,0-49.4,12.3-65.9,36.9c-16.5,24.6-24.8,57.4-24.8,98.4h0.9
	c14.3-29.3,37.9-44,70.8-44c26.8,0,48.4,8.8,64.5,26.3C2206.9,285.6,2215,308.7,2215,337.5 M2178.6,342c0-21.7-5.3-38.7-15.9-51.3
	c-10.6-12.5-25.4-18.8-44.5-18.8c-17.3,0-31.9,6.1-43.7,18.3c-11.8,12.2-17.7,27-17.7,44.3c0,21.8,5.9,40,17.6,54.6
	c11.8,14.7,26.6,22,44.5,22c17.7,0,32.1-6.4,43.2-19.2C2173.1,379.1,2178.6,362.5,2178.6,342 M2423.9,341.1c0,30.2-10,54.4-30,72.8
	c-20,18.3-46.7,27.5-80,27.5c-28.9,0-50.3-4.3-64.3-13v-37.7c21.1,13.6,42.6,20.4,64.7,20.4c21.9,0,39.6-6.1,53-18.4
	c13.4-12.3,20.2-28.7,20.2-49.3c0-20.2-6.8-36.1-20.3-47.5c-13.6-11.5-33.3-17.2-59.1-17.2c-20.7,0-38.2,0.8-52.6,2.6l10.6-155.6
	h143.5v32h-112.8l-6.3,91.1l28.6-1.1c32.3,0,57.9,8.2,76.6,24.5C2414.5,288.4,2423.9,311.4,2423.9,341.1 M502.6,496.2L502.6,496.2
	l0-430.2L348.5,21.5l-277.1,104l-0.7,0.1l0,311l94.6-37V146.6l183.2-43.8l0,372.1L70.9,436.7l277.6,102.5v0.1l154.1-42.7
	L502.6,496.2L502.6,496.2L502.6,496.2z"/>
<path class="st0" d="M952.8,276.8c0,33.1-6,62-18.1,86.9c-12.1,24.9-29.4,44.1-52,57.5c-22.6,13.4-48.6,20.1-78,20.1
	c-28.4,0-53.7-6.5-75.9-19.6c-22.2-13.1-39.3-31.6-51.4-55.6c-12.1-24-18.2-51.2-18.2-81.7c0-32.8,6.1-61.6,18.4-86.6
	c12.2-24.9,29.9-44.1,52.8-57.5c22.9-13.4,49.5-20,79.7-20c27.6,0,52.3,6.6,74.2,19.7c21.8,13.1,38.7,31.6,50.6,55.4
	C946.8,219.2,952.8,246.4,952.8,276.8 M914.7,281.6c0-40.4-9.5-71.9-28.4-94.6c-18.9-22.6-45.3-34-79-34c-21.2,0-40.2,5.4-57,16.1
	c-16.8,10.7-29.8,26-39.1,45.8c-9.2,19.8-13.9,41.9-13.9,66.2c0,24.8,4.4,47,13.3,66.4c8.9,19.4,21.5,34.4,38,45
	c16.5,10.6,35.2,15.9,56.1,15.9c34.3,0,61.3-11.3,80.7-33.8C905,352.2,914.7,321.1,914.7,281.6 M1108.9,139
	c-6.9-3.9-14.8-5.8-23.6-5.8c-24.8,0-37.2,15.7-37.2,47v34.2h51.9v30.1H1048v191.6h-35.5V244.4h-37.7v-30.1h37.7v-35.9
	c0-22.5,6.6-40.7,19.9-54.6c13.3-13.9,30.2-20.8,50.7-20.8c10.8,0,19.4,1.3,25.8,3.9L1108.9,139L1108.9,139L1108.9,139z"/>
</svg>
