<?xml version="1.0" encoding="utf-8"?>
<!-- Generator: Adobe Illustrator 24.0.2, SVG Export Plug-In . SVG Version: 6.00 Build 0)  -->
<svg version="1.1" id="Capa_1" xmlns="http://www.w3.org/2000/svg" xmlns:xlink="http://www.w3.org/1999/xlink" x="0px" y="0px"
	 viewBox="0 0 500 500" style="enable-background:new 0 0 500 500;" xml:space="preserve">
<style type="text/css">
	.st0{fill:transparent;}
	.centro{fill:none;stroke:#fff;stroke-width:2;}
	@keyframes iz{
		0%{stroke-dashoffset:220px;opacity:1;}
		50%{stroke-dashoffset:0px;opacity:1;}
		100%{stroke-dashoffset:-220px;opacity:1;}
	}
	.iz,.dr{fill:none;stroke:#fff;stroke-width:3;
		transform-origin: 250px;
		stroke-dashoffset: 0;
		stroke-dasharray: 220px;
		animation: iz 3.5s infinite ease-in-out;
	}

	/* .dr{fill:none;stroke:#fff;stroke-width:3;
		transform-origin: 250px;
		stroke-dashoffset: 0;
		stroke-dasharray: 220px;
		animation: iz 5s infinite linear;
	} */
	.estrellaDonw{fill:#fff;}
	.estrellaUp{fill:#fff;}
	.cienPorciento{fill:#CECECE;}
	.satisfaccion{fill:#fff;}
	.eficiencia{fill:#fff;}
</style>
<g>
	<rect class="st0" width="500" height="500"/>
	
		<ellipse transform="matrix(0.7071 -0.7071 0.7071 0.7071 -105.3482 250.7431)" class="centro" cx="250" cy="252.5" rx="163.3" ry="163.3"/>
	<path class="iz" d="M423,143.3c20,31.6,31.6,69.1,31.6,109.3c0,39.4-11.1,76.2-30.4,107.4"/>
	<path class="dr" d="M69,348c-15.1-28.5-23.6-61-23.6-95.5c0-38.2,10.5-74,28.7-104.6"/>
	<polygon class="estrellaDonw" points="268.5,359.9 256.5,357.7 251.5,346.7 245.8,357.4 233.7,358.8 242.2,367.5 239.7,379.4 250.6,374.1 
		261.2,380.1 259.5,368.1 	"/>
	<path class="estrellaDonw" d="M288.4,356.4c-3.6,0.2-6.3,3.2-6.1,6.8c0.2,3.6,3.2,6.3,6.8,6.1c3.6-0.2,6.3-3.2,6.1-6.8
		C295,358.9,292,356.2,288.4,356.4"/>
	<path class="estrellaDonw" d="M317,352.8c-2.6,0.1-4.7,2.4-4.5,5c0.1,2.6,2.4,4.7,5,4.5c2.6-0.1,4.7-2.4,4.5-5
		C321.9,354.7,319.6,352.7,317,352.8"/>
	<path class="estrellaDonw" d="M338.6,349.1c-1.2,0.1-2.2,1.1-2.1,2.4c0.1,1.2,1.1,2.2,2.4,2.1c1.2-0.1,2.2-1.1,2.1-2.4
		C340.9,350,339.9,349,338.6,349.1"/>
	<path class="estrellaDonw" d="M211.6,356.4c3.6,0.2,6.3,3.2,6.1,6.8c-0.2,3.6-3.2,6.3-6.8,6.1c-3.6-0.2-6.3-3.2-6.1-6.8
		C205,358.9,208,356.2,211.6,356.4"/>
	<path class="estrellaDonw" d="M183,352.8c2.6,0.1,4.7,2.4,4.5,5c-0.1,2.6-2.4,4.7-5,4.5s-4.7-2.4-4.5-5C178.1,354.7,180.4,352.7,183,352.8"
		/>
	<path class="estrellaDonw" d="M161.4,349.1c1.2,0.1,2.2,1.1,2.1,2.4c-0.1,1.2-1.1,2.2-2.4,2.1c-1.2-0.1-2.2-1.1-2.1-2.4
		C159.1,350,160.1,349,161.4,349.1"/>
	<polygon class="estrellaUp" points="259.6,131.4 255.2,136.1 256.5,142.4 250.7,139.6 245.1,142.8 245.9,136.4 241.2,132 247.5,130.9 
		250.2,125 253.2,130.7 	"/>
	<path class="estrellaUp" d="M270.4,138.7c-1.9-0.1-3.4-1.7-3.3-3.6c0.1-1.9,1.7-3.4,3.6-3.3c1.9,0.1,3.4,1.7,3.3,3.6
		C273.9,137.4,272.3,138.8,270.4,138.7"/>
	<path class="estrellaUp" d="M285.6,140.6c-1.4-0.1-2.5-1.3-2.4-2.7c0.1-1.4,1.3-2.5,2.7-2.4c1.4,0.1,2.5,1.3,2.4,2.7
		C288.2,139.6,287,140.7,285.6,140.6"/>
	<path class="estrellaUp" d="M297.1,142.6c-0.7,0-1.2-0.6-1.1-1.3c0-0.7,0.6-1.2,1.3-1.1c0.7,0,1.2,0.6,1.1,1.3
		C298.4,142.1,297.8,142.6,297.1,142.6"/>
	<path class="estrellaUp" d="M229.6,138.7c1.9-0.1,3.4-1.7,3.3-3.6c-0.1-1.9-1.7-3.4-3.6-3.3c-1.9,0.1-3.4,1.7-3.3,3.6
		C226.1,137.4,227.7,138.8,229.6,138.7"/>
	<path class="estrellaUp" d="M214.4,140.6c1.4-0.1,2.5-1.3,2.4-2.7c-0.1-1.4-1.3-2.5-2.7-2.4c-1.4,0.1-2.5,1.3-2.4,2.7
		C211.8,139.6,213,140.7,214.4,140.6"/>
	<path class="estrellaUp" d="M202.9,142.6c0.7,0,1.2-0.6,1.1-1.3c0-0.7-0.6-1.2-1.3-1.1c-0.7,0-1.2,0.6-1.1,1.3
		C201.6,142.1,202.2,142.6,202.9,142.6"/>
	<path class="cienPorciento" d="M349.9,275.1h4.6c1.6,0,2.6-0.4,3.1-1.1c0.4-0.7,0.7-1.6,0.7-2.6v-4.9c0-1.5-0.3-2.6-0.9-3
		c-0.6-0.5-1.5-0.7-2.6-0.7h-4.6c-1,0-1.8,0.2-2.6,0.6c-0.7,0.4-1.1,1.5-1.1,3.1v4.9c0,1,0.2,1.9,0.6,2.6
		C347.4,274.8,348.3,275.1,349.9,275.1 M347.5,286.7c-4.5,0-7.7-1.1-9.7-3.3c-1.9-2.2-2.9-5.3-2.9-9.2v-10.5c0-4,1-7,2.9-9.2
		c1.9-2.2,5.2-3.3,9.9-3.3h9.5c4.6,0,7.8,1.1,9.8,3.3c1.9,2.2,2.9,5.3,2.9,9.2v10.5c0,4-1,7-2.9,9.2c-1.9,2.2-5.3,3.3-10,3.3H347.5z
		 M299.4,243h4.7c1.6,0,2.6-0.4,3-1.1c0.4-0.7,0.6-1.6,0.6-2.6v-4.9c0-1.5-0.3-2.6-0.8-3c-0.6-0.5-1.4-0.7-2.6-0.7h-4.7
		c-1,0-1.8,0.2-2.6,0.6c-0.7,0.4-1.1,1.5-1.1,3.1v4.9c0,1,0.2,1.9,0.6,2.6C296.9,242.7,297.9,243,299.4,243z M297.1,254.6
		c-4.5,0-7.8-1.1-9.7-3.3c-2-2.2-3-5.3-3-9.2v-10.5c0-4,1-7,2.9-9.2c1.9-2.2,5.3-3.3,10-3.3h9.4c4.6,0,7.8,1.1,9.8,3.3
		c1.9,2.2,2.9,5.3,2.9,9.2v10.5c0,4-1,7-2.9,9.2c-1.9,2.2-5.3,3.3-10,3.3H297.1z M300,287l42.1-67.9h11.5L312.1,287H300z
		 M249.7,271.4h5.6c1.7,0,3-0.4,3.9-1.3c0.9-0.8,1.3-2.2,1.3-4.1v-27c0-2.2-0.4-3.6-1.3-4.3c-0.9-0.7-1.9-1.1-3.2-1.1h-7
		c-1.6,0-2.8,0.4-3.5,1.3c-0.7,0.9-1.1,2.2-1.1,4.1v26.9c0,2,0.4,3.4,1.3,4.2C246.6,271,247.9,271.4,249.7,271.4z M245.3,287.6
		c-4.2,0-7.7-0.7-10.5-2.2c-2.8-1.5-4.9-3.6-6.3-6.4c-1.4-2.8-2-6.2-2-10.1v-31.6c0-4.3,0.7-7.9,2.2-10.8c1.5-2.9,3.6-5.1,6.4-6.6
		c2.8-1.5,6.3-2.3,10.3-2.3h15c3.9,0,7.2,0.8,9.9,2.3c2.7,1.5,4.7,3.7,6.1,6.6c1.4,2.9,2.1,6.5,2.1,10.8v31.6
		c0,5.8-1.6,10.4-4.7,13.7c-3.1,3.3-7.6,5-13.5,5H245.3z M190.3,271.4h5.6c1.7,0,3-0.4,3.9-1.3c0.9-0.8,1.3-2.2,1.3-4.1v-27
		c0-2.2-0.4-3.6-1.3-4.3c-0.9-0.7-1.9-1.1-3.2-1.1h-7c-1.6,0-2.8,0.4-3.5,1.3c-0.7,0.9-1.1,2.2-1.1,4.1v26.9c0,2,0.4,3.4,1.3,4.2
		C187.1,271,188.5,271.4,190.3,271.4z M185.8,287.6c-4.2,0-7.7-0.7-10.5-2.2c-2.8-1.5-4.9-3.6-6.3-6.4c-1.4-2.8-2-6.2-2-10.1v-31.6
		c0-4.3,0.7-7.9,2.2-10.8c1.5-2.9,3.6-5.1,6.4-6.6c2.8-1.5,6.3-2.3,10.3-2.3h15c3.9,0,7.2,0.8,9.9,2.3c2.7,1.5,4.7,3.7,6.1,6.6
		c1.4,2.9,2.1,6.5,2.1,10.8v31.6c0,5.8-1.6,10.4-4.7,13.7c-3.1,3.3-7.6,5-13.5,5H185.8z M141.1,287v-52.4h-10.9v-11.5l13-5.6h16V287
		H141.1z"/>
	<path class="satisfaccion" d="M374.8,108.4l26.3-25.2l5.2,5.5l-5.8,23.3l14.7-14.1l6.6,6.9L395.5,130l-5.2-5.5l5.8-23.3l-14.7,14.1
		L374.8,108.4z M378.9,63.6l6.8-3.8l6.2,4.4l-8.4,2.7L378.9,63.6z M363.2,90c1,0.7,1.9,1.2,2.7,1.4c0.8,0.2,1.6,0.2,2.4-0.2
		c0.8-0.3,1.6-1,2.5-1.9c0.9-1,1.9-2.3,3.1-3.9c1.2-1.7,2.2-3.2,2.8-4.4c0.6-1.2,0.9-2.2,1-3c0-0.8-0.2-1.6-0.7-2.2
		c-0.5-0.7-1.2-1.4-2.3-2.1c-1-0.7-1.9-1.2-2.7-1.4c-0.8-0.3-1.6-0.2-2.4,0.1c-0.8,0.3-1.6,1-2.5,1.9c-0.9,1-2,2.3-3.2,4
		c-1.2,1.7-2.1,3.1-2.7,4.2c-0.6,1.2-0.9,2.2-1,3c-0.1,0.8,0.2,1.6,0.6,2.3C361.5,88.6,362.2,89.3,363.2,90z M358.3,96.9
		c-2.1-1.5-3.8-3-5.1-4.6c-1.3-1.5-2.1-3.2-2.4-5c-0.3-1.8,0-3.9,0.9-6.3c0.9-2.4,2.4-5.1,4.7-8.3c2.2-3.1,4.3-5.5,6.3-7.1
		c1.9-1.6,3.8-2.6,5.6-2.9c1.8-0.3,3.7-0.1,5.6,0.6c1.9,0.7,3.9,1.8,6,3.3c2.1,1.5,3.8,3,5.1,4.6c1.3,1.5,2.1,3.2,2.4,5
		c0.3,1.8,0,3.9-0.9,6.3c-0.9,2.4-2.4,5.1-4.7,8.3c-2.2,3.1-4.3,5.5-6.3,7.1c-1.9,1.6-3.8,2.6-5.6,2.9c-1.8,0.3-3.7,0.1-5.6-0.6
		C362.4,99.5,360.4,98.4,358.3,96.9z M333,81.7l16.7-32.4l8.4,4.4l-16.7,32.4L333,81.7z M317.8,75.5c-1.9-0.7-3.6-1.6-4.9-2.7
		c-1.3-1-2.3-2.4-3-4c-0.6-1.6-0.8-3.7-0.5-6.2c0.3-2.5,1.2-5.6,2.6-9.2c1.4-3.5,2.8-6.3,4.3-8.3c1.5-2,3-3.4,4.6-4.2
		c1.6-0.8,3.2-1.1,4.9-1c1.7,0.1,3.5,0.5,5.3,1.2c1.9,0.7,3.5,1.5,4.9,2.2c1.4,0.8,2.5,1.5,3.4,2.1c0.9,0.7,1.6,1.3,2.1,1.8L339,54
		c-0.5-0.3-1.2-0.8-2.1-1.2c-0.9-0.5-1.9-1-3-1.5c-1.1-0.5-2.4-1.1-3.8-1.6c-1-0.4-2-0.6-2.8-0.7c-0.8-0.1-1.5,0.1-2.2,0.6
		c-0.7,0.5-1.4,1.3-2,2.4c-0.7,1.2-1.4,2.8-2.2,4.8c-0.7,1.8-1.2,3.4-1.6,4.7c-0.3,1.3-0.4,2.3-0.3,3.2c0.1,0.8,0.5,1.5,1.1,2.1
		c0.6,0.6,1.5,1.1,2.7,1.6c2.3,0.9,4.2,1.6,5.7,2.1c1.5,0.5,2.7,0.8,3.6,1l-2.7,6.9c-0.9,0-1.9-0.1-3-0.3c-1.1-0.2-2.4-0.5-3.8-0.9
		C321.4,76.8,319.7,76.2,317.8,75.5z M290.7,67.3c-2-0.5-3.8-1.1-5.2-2c-1.5-0.8-2.7-2-3.5-3.6c-0.9-1.5-1.3-3.6-1.4-6.1
		c-0.1-2.5,0.4-5.7,1.2-9.5c0.8-3.7,1.9-6.6,3-8.9c1.2-2.2,2.5-3.8,4-4.9c1.5-1,3-1.6,4.7-1.7c1.7-0.1,3.5,0,5.4,0.5
		c2,0.5,3.7,1,5.2,1.5c1.5,0.6,2.7,1.1,3.7,1.6c1,0.5,1.8,1,2.4,1.4l-1.7,7.2c-0.6-0.3-1.3-0.6-2.3-0.9c-0.9-0.3-2-0.7-3.2-1.1
		c-1.2-0.4-2.5-0.7-4-1c-1.1-0.2-2-0.3-2.8-0.3c-0.8,0-1.5,0.4-2.1,0.9c-0.6,0.6-1.1,1.5-1.7,2.7c-0.5,1.2-1,2.9-1.5,5.1
		c-0.4,1.9-0.7,3.5-0.9,4.8c-0.1,1.3-0.1,2.4,0.2,3.2c0.3,0.8,0.7,1.5,1.4,1.9c0.7,0.5,1.7,0.9,2.9,1.2c2.4,0.6,4.4,1,5.9,1.2
		c1.5,0.3,2.8,0.4,3.7,0.5l-1.7,7.2c-0.9,0.1-1.9,0.2-3,0.2c-1.1,0-2.4-0.1-3.9-0.3C294.4,68.1,292.7,67.8,290.7,67.3z M256.4,48.5
		l6.5,0.1l-3-14.1L256.4,48.5z M242.7,62.5l11.6-36.2l11.9,0.2l10,36.7l-9.9-0.2l-1.3-5.8L254,57l-1.5,5.8L242.7,62.5z M218.9,65.1
		L215.4,38c-0.2-1.8-0.1-3.2,0.3-4.5c0.4-1.2,1-2.2,1.8-3c0.8-0.8,1.7-1.4,2.7-1.8c1-0.4,2.1-0.7,3.1-0.8c1-0.1,2.4-0.3,4.2-0.5
		c1.8-0.2,3.7-0.4,5.8-0.6c2.1-0.2,4.1-0.2,6-0.2l1,7.9l-13.2,1.7c-0.8,0.1-1.4,0.4-1.7,0.9c-0.3,0.5-0.4,1-0.4,1.5l0.5,4.1
		l13.1-1.2l1,7.5l-13,2.2l1.7,12.8L218.9,65.1z M201.6,69.2c-1,0.3-2.1,0.6-3.1,0.8c-1,0.2-2,0.4-3,0.6c-1,0.1-2,0.3-2.9,0.4
		c-0.9,0.1-1.8,0.1-2.7,0.2l-2.1-7.3c1.1-0.2,2.3-0.5,3.5-0.8c1.3-0.3,2.5-0.6,3.8-0.9c1.3-0.3,2.5-0.7,3.6-1c1-0.3,1.9-0.6,2.5-1
		c0.6-0.4,1.1-0.8,1.3-1.2c0.2-0.4,0.3-1,0.1-1.6l-0.2-0.6c-0.2-0.7-0.6-1.1-1.2-1.3c-0.6-0.2-1.2-0.2-1.9,0l-2.5,0.7
		c-3.6,1-6.6,1-9,0c-2.3-1.1-4.1-3.5-5.1-7.2l-0.4-1.6c-1-3.5-0.7-6.3,0.9-8.6c1.6-2.3,4.3-4,8.2-5.1c1.5-0.4,2.9-0.8,4.2-1
		c1.3-0.2,2.6-0.4,3.8-0.5c1.2-0.1,2.3-0.2,3.3-0.2L205,39c-1.5,0.3-3.1,0.7-5,1.1c-1.8,0.4-3.5,0.9-5,1.3c-0.9,0.3-1.6,0.5-2.3,0.9
		c-0.7,0.3-1.1,0.7-1.4,1.2c-0.3,0.5-0.3,1.1-0.1,1.8l0.1,0.5c0.2,0.8,0.6,1.3,1.3,1.6c0.6,0.3,1.4,0.2,2.5,0l3.1-0.9
		c2.2-0.6,4.1-0.7,5.8-0.3c1.7,0.4,3.1,1.2,4.3,2.4c1.1,1.2,2,2.7,2.5,4.6l0.4,1.6c0.9,3,1,5.4,0.4,7.3c-0.6,1.9-1.8,3.4-3.5,4.5
		C206.5,67.5,204.2,68.4,201.6,69.2z M176.6,77.3l-13.4-33.9L172,40l13.4,33.9L176.6,77.3z M156.7,87.1l-12.9-24.7l-8.1,4.2
		l-3.9-7.6l24.7-12.9l3.9,7.6l-8.1,4.2l12.9,24.7L156.7,87.1z M124.8,91.2l5.1-4l-11.2-9.1L124.8,91.2z M123,110.8l-13.9-35.4
		l9.4-7.3l30.9,22.1l-7.8,6.1l-4.7-3.7l-8.6,6.7l2.4,5.4L123,110.8z M112.5,122c-0.7,0.8-1.5,1.5-2.2,2.2c-0.8,0.7-1.5,1.4-2.3,2
		c-0.8,0.6-1.5,1.2-2.3,1.8c-0.7,0.6-1.5,1.1-2.2,1.5l-5.5-5.2c0.8-0.7,1.7-1.6,2.7-2.4c0.9-0.9,1.9-1.8,2.8-2.7
		c0.9-0.9,1.8-1.8,2.6-2.6c0.7-0.8,1.3-1.5,1.7-2.1c0.4-0.6,0.6-1.2,0.5-1.7c0-0.5-0.2-1-0.7-1.4l-0.4-0.4c-0.5-0.5-1.1-0.7-1.7-0.6
		c-0.6,0.1-1.2,0.4-1.6,0.9l-1.8,1.9c-2.6,2.7-5.2,4.3-7.8,4.5c-2.6,0.3-5.3-0.9-8.1-3.6l-1.2-1.1c-2.6-2.5-3.8-5.1-3.6-7.9
		c0.2-2.8,1.7-5.7,4.5-8.6c1.1-1.1,2.1-2.1,3.1-3c1-0.9,2.1-1.7,3-2.4c1-0.7,1.9-1.3,2.7-1.9l5.5,5.2c-1.1,1-2.4,2.2-3.7,3.5
		c-1.4,1.3-2.6,2.5-3.6,3.6c-0.6,0.7-1.1,1.3-1.5,1.9c-0.4,0.6-0.6,1.2-0.6,1.8c0,0.6,0.3,1.1,0.8,1.6l0.4,0.3
		c0.6,0.6,1.2,0.8,1.9,0.7c0.7-0.1,1.4-0.5,2.1-1.3l2.2-2.3c1.6-1.7,3.2-2.7,4.9-3.2c1.7-0.5,3.3-0.5,4.9-0.1
		c1.6,0.5,3.1,1.4,4.5,2.7l1.2,1.1c2.3,2.1,3.6,4.2,4,6.1c0.4,1.9,0.2,3.8-0.8,5.6C115.8,118.1,114.4,120,112.5,122z"/>
	<path class="eficiencia" d="M366.6,423l5.3-3.8l-10.8-9.5L366.6,423z M364.1,442.5l-12.4-35.9l9.7-6.9l30,23.4l-8,5.7l-4.6-3.9l-8.9,6.4
		l2.2,5.5L364.1,442.5z M348.2,450.4l-16.4-32.5l8.5-4.3l16.4,32.5L348.2,450.4z M328.6,459.2c-1.9,0.7-3.7,1.2-5.4,1.3
		c-1.7,0.1-3.3-0.2-4.9-1c-1.6-0.8-3.1-2.2-4.6-4.3c-1.5-2.1-2.9-4.9-4.3-8.6c-1.4-3.5-2.2-6.5-2.5-9c-0.3-2.5-0.1-4.6,0.5-6.2
		c0.6-1.7,1.6-3,3-4.1c1.3-1.1,2.9-2,4.7-2.7c1.9-0.7,3.6-1.3,5.1-1.7c1.5-0.4,2.8-0.6,4-0.7c1.1-0.1,2-0.2,2.8-0.1l2.7,6.9
		c-0.6,0.1-1.4,0.3-2.4,0.5c-1,0.2-2,0.5-3.2,0.9c-1.2,0.4-2.5,0.8-3.9,1.4c-1,0.4-1.9,0.9-2.5,1.3c-0.6,0.5-1,1.1-1.2,1.9
		c-0.2,0.8-0.1,1.9,0.2,3.2c0.3,1.3,0.8,3,1.6,5c0.7,1.8,1.4,3.3,2,4.5c0.6,1.2,1.3,2,1.9,2.5c0.7,0.5,1.4,0.8,2.3,0.8
		c0.9,0,1.9-0.2,3.1-0.7c2.3-0.9,4.2-1.7,5.6-2.3c1.4-0.6,2.5-1.2,3.3-1.6l2.7,6.9c-0.6,0.6-1.4,1.2-2.4,1.8
		c-0.9,0.6-2.1,1.2-3.4,1.9C332.1,457.8,330.5,458.5,328.6,459.2z M277.4,472l-6.5-35.8l7.4-1.4l16.2,17.7l-3.6-20l9.4-1.7l6.5,35.8
		l-7.4,1.4l-16.2-17.7l3.6,20L277.4,472z M252.2,473.7c-0.8,0-1.7,0-2.8-0.2c-1.1-0.1-2.2-0.5-3.2-1c-1-0.5-1.9-1.4-2.6-2.5
		c-0.7-1.1-1.1-2.7-1.2-4.7l-0.5-19c-0.1-1.8,0.2-3.2,0.7-4.4c0.5-1.2,1.2-2.1,2.1-2.8c0.9-0.7,1.8-1.2,2.9-1.5
		c1.1-0.3,2.1-0.5,3.1-0.5c2.7-0.1,5.1-0.1,7.1-0.1c2,0,3.7,0.1,5.2,0.1c1.5,0.1,2.7,0.1,3.9,0.2l0.2,8l-13.1,0.4
		c-0.8,0-1.4,0.2-1.8,0.6c-0.4,0.4-0.6,0.9-0.6,1.6l0.1,3l13.2,0.1l0.2,7.5l-13.2,0.9l0.1,2.7c0,0.6,0.1,1.1,0.3,1.4
		c0.2,0.4,0.5,0.6,0.8,0.8c0.3,0.2,0.7,0.2,1.1,0.2l13.5-0.4l0.2,8c-1.4,0.2-3,0.4-4.8,0.6c-1.8,0.2-3.6,0.3-5.5,0.5
		C255.6,473.5,253.9,473.6,252.2,473.7z M222.6,471.7l4.5-36.2l9.4,1.2l-4.5,36.2L222.6,471.7z M201.3,468.2c-2-0.5-3.7-1.1-5.2-2
		c-1.5-0.8-2.6-2-3.5-3.6c-0.8-1.5-1.3-3.6-1.4-6.1c0-2.5,0.4-5.7,1.3-9.5c0.9-3.7,1.9-6.6,3.1-8.9c1.2-2.2,2.5-3.8,4-4.8
		c1.5-1,3-1.6,4.8-1.7c1.7-0.1,3.5,0,5.4,0.5c2,0.5,3.7,1,5.2,1.5c1.5,0.6,2.7,1.1,3.7,1.6c1,0.5,1.8,1,2.4,1.5l-1.7,7.2
		c-0.6-0.3-1.3-0.6-2.3-0.9c-0.9-0.3-2-0.7-3.2-1.1c-1.2-0.4-2.5-0.7-4-1c-1.1-0.3-2-0.4-2.8-0.3c-0.8,0-1.5,0.4-2.1,0.9
		c-0.6,0.6-1.2,1.5-1.7,2.7c-0.5,1.2-1,2.9-1.5,5.1c-0.4,1.9-0.7,3.5-0.9,4.8c-0.1,1.3-0.1,2.4,0.2,3.2c0.2,0.8,0.7,1.5,1.4,1.9
		c0.7,0.5,1.7,0.9,2.9,1.2c2.4,0.6,4.4,1,5.9,1.2c1.5,0.3,2.8,0.4,3.7,0.5l-1.7,7.2c-0.9,0.1-1.9,0.2-3,0.2c-1.1,0-2.4-0.1-3.9-0.3
		C205,469,203.3,468.7,201.3,468.2z M170.2,458.7l11.7-34.5l9,3l-11.7,34.5L170.2,458.7z M139.3,444l12.4-24.4
		c0.8-1.6,1.7-2.8,2.7-3.6c1-0.8,2.1-1.3,3.2-1.5c1.1-0.2,2.2-0.2,3.3,0.1c1.1,0.2,2.1,0.6,3,1c0.9,0.5,2.2,1.1,3.7,1.9
		c1.6,0.8,3.3,1.8,5.1,2.8c1.8,1.1,3.5,2.1,5.1,3.2l-3.6,7.1l-11.9-6c-0.7-0.4-1.4-0.4-1.9-0.2c-0.5,0.2-0.9,0.6-1.1,1l-1.9,3.7
		l11.5,6.4l-3.4,6.7l-12-5.5l-5.9,11.5L139.3,444z M118.7,430.5c-0.6-0.5-1.4-1.1-2.1-1.8c-0.8-0.8-1.4-1.7-2-2.7
		c-0.5-1.1-0.7-2.3-0.6-3.6c0.1-1.3,0.8-2.8,2-4.5l11.1-15.5c1-1.4,2.1-2.5,3.2-3.1c1.1-0.6,2.3-1,3.4-1c1.1,0,2.2,0.2,3.2,0.6
		c1,0.4,2,0.9,2.8,1.5c2.2,1.6,4.1,3,5.7,4.2c1.6,1.2,2.9,2.3,4,3.2c1.1,0.9,2.1,1.8,2.9,2.5l-4.7,6.5l-10.7-7.7
		c-0.7-0.5-1.3-0.7-1.8-0.6c-0.6,0-1,0.4-1.5,0.9l-1.8,2.5l10.4,8.1l-4.4,6.1l-11-7.3l-1.6,2.2c-0.3,0.5-0.5,0.9-0.6,1.3
		c-0.1,0.4,0,0.8,0.1,1.1c0.2,0.3,0.4,0.6,0.7,0.8l11,7.9l-4.7,6.5c-1.3-0.7-2.7-1.5-4.2-2.4c-1.5-0.9-3.1-1.9-4.6-3
		C121.5,432.4,120,431.4,118.7,430.5z"/>
</g>
</svg>
