<?xml version="1.0" encoding="utf-8"?>
<!-- Generator: Adobe Illustrator 24.0.2, SVG Export Plug-In . SVG Version: 6.00 Build 0)  -->
<svg version="1.1" id="Capa_1" xmlns="http://www.w3.org/2000/svg" xmlns:xlink="http://www.w3.org/1999/xlink" x="0px" y="0px"
	 viewBox="0 0 500 500" style="enable-background:new 0 0 500 500;" xml:space="preserve">
<style type="text/css">
	.fnd{fill:transparent;}
	.centroCirculo{fill:none;stroke:#fff;stroke-width:1;opacity: 0.5;}
	@keyframes aroExterno{
		0%{transform: rotate(0deg);}
		100%{transform: rotate(360deg);}
	}
	.aroExterno{fill:url(#SVGID_1_);
	transform-origin: 251px 225px;
		animation: aroExterno 10s infinite ease-in-out;
	}
	.punteros{fill:none;stroke:#fff;stroke-width:1;}
	.horario{fill:#CECECE;}
	.manesillas{fill:#fff;}
	.flecha{fill:url(#SVGID_2_);}
	.soporte{fill:#CECECE;}
	@keyframes estrella{
		0%{transform: scale(0.5) rotate(0deg);}
		50%{transform: scale(1.2) rotate(10deg);}
		100%{transform: scale(0.5) rotate(0deg);}
	}
	.estrella{fill:url(#SVGID_3_);
		transform-origin: 123px 99px;
		animation: estrella 10s infinite linear;
	}
	.brilloEstrella{fill:url(#SVGID_4_);
		transform-origin: 123px 99px;
		transform: scale(0.5);
		opacity: 0.5;
	}
</style>
<g>
	<rect class="fnd" width="500" height="500"/>
	<circle class="centroCirculo" cx="250" cy="225.5" r="178.7"/>
	
		<radialGradient id="SVGID_1_" cx="251.1904" cy="226.0775" r="180.9354" fx="427.7197" fy="186.3906" gradientUnits="userSpaceOnUse">
		<stop  offset="0" style="stop-color:#fff"/>
		<stop  offset="1" style="stop-color:#fff;stop-opacity:0.1"/>
	</radialGradient>
	<path class="aroExterno" d="M373.7,101.8C342.1,70.1,298.3,48.1,250,48.1c-48.3,0-92.1,22-123.7,53.6c-31.7,31.7-53.6,75.4-53.6,123.7
		c0,48.3,22,93.3,53.6,124.9c31.7,31.7,75.4,51.3,123.7,51.3c48.3,0,92.1-20.8,123.7-52.4c31.7-31.7,51.3-75.4,51.3-123.7
		C425,177.2,405.4,133.4,373.7,101.8 M250,45.4c50.4,0,96,18,129,51.1c33,33,53.4,78.6,53.4,129c0,50.4-20.4,96-53.4,129
		c-33,33-78.6,52.2-129,52.2c-50.4,0-96-20.4-129-53.4C88,320.3,70,275.9,70,225.5c0-50.4,18-96,51.1-129
		C154,63.5,199.6,45.4,250,45.4z"/>
	<line class="punteros" x1="250" y1="58.7" x2="250" y2="46.8"/>
	<line class="punteros" x1="132.1" y1="107.5" x2="123.6" y2="99.1"/>
	<line class="punteros" x1="416.8" y1="225.5" x2="428.7" y2="225.5"/>
	<line class="punteros" x1="367.9" y1="107.5" x2="376.4" y2="99.1"/>
	<line class="punteros" x1="250" y1="404.2" x2="250" y2="392.3"/>
	<line class="punteros" x1="376.4" y1="351.8" x2="367.9" y2="343.4"/>
	<line class="punteros" x1="71.3" y1="225.5" x2="83.2" y2="225.5"/>
	<line class="punteros" x1="123.6" y1="351.8" x2="132.1" y2="343.4"/>
	<path class="horario" d="M198.8,244.5l10.6-30h-15.1V204h26.3l2.6,4.3l-12.5,36.3H198.8z M165.4,248.5l15.3-46h10.9l-15.3,46H165.4z
		 M150,244.5v-7.5h-16.9l-1.9-4.8L143,204h10.8l-9.9,24.1h6.1v-6l2-5.2h8.6v11.2h3.3v7.3l-3.3,1.6v7.5H150z M100.5,244.5v-8.4
		l12.6-12.9c0.8-0.8,1.5-1.5,2-2.2c0.5-0.7,1-1.4,1.3-2c0.3-0.7,0.5-1.3,0.5-2c0-0.8-0.1-1.4-0.4-1.9c-0.3-0.5-0.7-0.8-1.3-1.1
		c-0.6-0.2-1.4-0.3-2.3-0.3h-11.6v-8.4c1.8-0.4,3.8-0.8,6-1.1c2.2-0.3,4.8-0.5,7.7-0.5c3.2,0,5.7,0.4,7.6,1.3
		c1.8,0.9,3.1,2.2,3.9,3.9c0.8,1.7,1.2,3.8,1.2,6.3c0,1.8-0.2,3.4-0.7,4.9c-0.5,1.5-1.2,2.8-2,4.1c-0.9,1.3-2,2.5-3.2,3.8l-7,7.2
		h14.1v9.5H100.5z"/>
	<path class="manesillas" d="M253.7,214.2c4.8,1.6,8.2,6,8.2,11.3c0,6.6-5.3,11.9-11.9,11.9c-2.4,0-4.6-0.7-6.5-1.9l-61,61l-3.5-3.5l61-61
		c-1.2-1.9-1.9-4.1-1.9-6.5c0-5.3,3.4-9.8,8.2-11.3v-63h7.4V214.2z"/>
	<linearGradient id="SVGID_2_" gradientUnits="userSpaceOnUse" x1="177.8423" y1="226.5637" x2="361.3491" y2="226.5637">
		<stop  offset="0" style="stop-color:#fff"/>
		<stop  offset="1" style="stop-color:#fff;stop-opacity:0.3"/>
	</linearGradient>
	<path class="flecha" d="M361.3,225.5c0,87.5-98.6,141.9-172.6,93l-2.1,3.2c-0.7,0-1.5-0.6-1.8-1.2l-6.8-13.6c-0.3-0.6,0-1.1,0.7-1
		l15.2,1c0.7,0,1.5,0.6,1.8,1.2l-2.8,4.3c69.1,45.6,160.6-5.2,160.6-86.8c-2-67.5-48.5-99.4-88.6-104.8
		c-33.5-4.5-66.7,6.5-82.2,20.5c18.2-16.9,51.7-28.2,82-24.1C311.7,123.5,357.4,159.3,361.3,225.5"/>
	<path class="soporte" d="M438.5,476.9c0.7,0,1.3-0.1,1.7-0.2c0.4-0.1,0.8-0.4,1-0.8c0.3-0.4,0.4-1.1,0.5-2c0.1-0.9,0.2-2.1,0.2-3.7
		c0-1.5-0.1-2.7-0.2-3.6c-0.1-0.9-0.3-1.6-0.5-2c-0.3-0.4-0.6-0.7-1-0.8c-0.4-0.1-1-0.2-1.7-0.2c-0.7,0-1.3,0.1-1.7,0.2
		c-0.4,0.1-0.8,0.4-1,0.8c-0.3,0.4-0.4,1.1-0.5,2c-0.1,0.9-0.2,2.1-0.2,3.6c0,1.5,0.1,2.7,0.2,3.7c0.1,0.9,0.3,1.6,0.5,2
		c0.3,0.4,0.6,0.7,1,0.8C437.2,476.9,437.8,476.9,438.5,476.9 M438.5,485.3c-2.6,0-4.8-0.3-6.6-0.8c-1.8-0.5-3.2-1.4-4.3-2.6
		c-1.1-1.2-1.9-2.8-2.3-4.7c-0.5-1.9-0.7-4.2-0.7-7c0-2.9,0.2-5.4,0.7-7.3c0.5-1.9,1.3-3.5,2.4-4.6c1.1-1.1,2.5-2,4.3-2.4
		c1.8-0.5,4-0.7,6.6-0.7c2.6,0,4.8,0.3,6.6,0.8c1.8,0.5,3.2,1.3,4.3,2.5c1.1,1.1,1.9,2.7,2.3,4.6c0.5,1.9,0.7,4.4,0.7,7.2
		c0,2.8-0.2,5.2-0.7,7.2c-0.5,1.9-1.2,3.5-2.3,4.6c-1.1,1.2-2.5,2-4.3,2.5C443.4,485.1,441.2,485.3,438.5,485.3z M410.4,485.4
		c-1.9,0-3.6-0.2-5.1-0.7c-1.6-0.5-2.9-1.3-4-2.4c-1.1-1.1-2-2.6-2.6-4.6c-0.6-1.9-0.9-4.3-0.9-7.1c0-3,0.3-5.5,0.8-7.5
		c0.6-2,1.4-3.6,2.5-4.7c1.1-1.2,2.5-2,4.1-2.5c1.6-0.5,3.5-0.7,5.6-0.7c2,0,3.7,0.1,5.3,0.4c1.6,0.3,3.3,0.7,5.3,1.3v6.1h-7.2
		c-1.6,0-2.8,0.2-3.6,0.6c-0.9,0.4-1.4,1.2-1.8,2.2c-0.3,1.1-0.5,2.6-0.5,4.6c0,2,0.2,3.6,0.5,4.6c0.3,1,0.9,1.7,1.7,2
		c0.9,0.3,2.1,0.5,3.8,0.5h7.4v6c-0.9,0.4-2,0.7-3.3,1c-1.3,0.3-2.6,0.5-4,0.7C413,485.3,411.7,485.4,410.4,485.4z M383.1,485.1
		v-29.4h10.6v29.4H383.1z M384.3,451.9c-0.9,0-1.3-0.4-1.3-1.3v-6.1c0-0.9,0.4-1.4,1.3-1.4h8.3c0.4,0,0.7,0.1,0.9,0.4
		c0.2,0.3,0.3,0.6,0.3,1v6.1c0,0.8-0.4,1.3-1.2,1.3H384.3z M350.3,485.1v-29.4h8.8l1.7,2.8c0.9-0.8,2.1-1.6,3.7-2.3
		c1.5-0.7,3.1-1,4.6-1c2.5,0,4.5,0.5,5.8,1.4c1.3,1,2.2,2.3,2.7,3.9c0.5,1.7,0.7,3.5,0.7,5.5v19h-10.6v-17.6c0-0.8-0.1-1.3-0.4-1.7
		c-0.3-0.4-0.6-0.7-1-0.8c-0.4-0.2-0.9-0.2-1.5-0.2c-0.5,0-1,0.1-1.5,0.2c-0.5,0.1-1,0.3-1.4,0.6c-0.4,0.3-0.8,0.5-1.1,0.9v18.7
		H350.3z M335.5,485.4c-1.9,0-3.6-0.2-5.1-0.7c-1.6-0.5-2.9-1.3-4-2.4c-1.1-1.1-2-2.6-2.6-4.6c-0.6-1.9-0.9-4.3-0.9-7.1
		c0-3,0.3-5.5,0.8-7.5c0.6-2,1.4-3.6,2.5-4.7c1.1-1.2,2.5-2,4.1-2.5c1.6-0.5,3.5-0.7,5.6-0.7c2,0,3.7,0.1,5.3,0.4
		c1.6,0.3,3.3,0.7,5.3,1.3v6.1h-7.2c-1.6,0-2.8,0.2-3.6,0.6c-0.9,0.4-1.4,1.2-1.8,2.2c-0.3,1.1-0.5,2.6-0.5,4.6c0,2,0.2,3.6,0.5,4.6
		c0.3,1,0.9,1.7,1.7,2c0.9,0.3,2.1,0.5,3.8,0.5h7.4v6c-0.9,0.4-2,0.7-3.3,1c-1.3,0.3-2.6,0.5-4,0.7
		C338.1,485.3,336.8,485.4,335.5,485.4z M303.9,450.6l3.7-7.8h8.4l-5.9,7.8H303.9z M303.9,467.8h4.2c0.7,0,1.3-0.2,1.6-0.5
		c0.3-0.3,0.5-0.9,0.5-1.7c0-0.7-0.1-1.3-0.3-1.7c-0.2-0.4-0.6-0.8-1-1c-0.5-0.2-1.1-0.3-1.9-0.3c-0.7,0-1.3,0.1-1.7,0.4
		c-0.5,0.3-0.8,0.8-1,1.6C304.1,465.4,303.9,466.5,303.9,467.8z M307.5,485.3c-3.3,0-6-0.4-8.1-1.3c-2-0.8-3.5-2.3-4.4-4.5
		c-0.9-2.2-1.4-5.2-1.4-9.1c0-4,0.4-7.2,1.3-9.4c0.8-2.2,2.2-3.7,4.2-4.6c1.9-0.9,4.6-1.3,8-1.3c3.1,0,5.6,0.3,7.4,0.9
		c1.8,0.6,3.1,1.6,3.9,3.1c0.8,1.5,1.2,3.6,1.2,6.4c0,2.1-0.4,3.8-1.3,5c-0.8,1.2-2,2.1-3.6,2.6c-1.5,0.5-3.3,0.8-5.4,0.8h-5.2
		c0.1,0.9,0.3,1.6,0.7,2.1c0.3,0.5,0.9,0.9,1.8,1.1c0.9,0.2,2.2,0.3,3.9,0.3h8v6.2c-1.3,0.4-2.8,0.7-4.6,1.1
		C312.1,485.2,310,485.3,307.5,485.3z M273,485.1V454h-10.2v-9.5h31v9.5h-10.2v31.1H273z M231.1,467.8h4.2c0.7,0,1.3-0.2,1.6-0.5
		c0.3-0.3,0.5-0.9,0.5-1.7c0-0.7-0.1-1.3-0.3-1.7c-0.2-0.4-0.6-0.8-1-1c-0.5-0.2-1.1-0.3-1.9-0.3c-0.7,0-1.3,0.1-1.7,0.4
		c-0.5,0.3-0.8,0.8-1,1.6C231.2,465.4,231.1,466.5,231.1,467.8z M234.6,485.3c-3.3,0-6-0.4-8.1-1.3c-2-0.8-3.5-2.3-4.4-4.5
		c-0.9-2.2-1.4-5.2-1.4-9.1c0-4,0.4-7.2,1.3-9.4c0.8-2.2,2.2-3.7,4.2-4.6c1.9-0.9,4.6-1.3,8-1.3c3.1,0,5.6,0.3,7.4,0.9
		c1.8,0.6,3.1,1.6,3.9,3.1c0.8,1.5,1.2,3.6,1.2,6.4c0,2.1-0.4,3.8-1.3,5c-0.8,1.2-2,2.1-3.6,2.6c-1.5,0.5-3.3,0.8-5.4,0.8h-5.2
		c0.1,0.9,0.3,1.6,0.7,2.1c0.3,0.5,0.9,0.9,1.8,1.1c0.9,0.2,2.2,0.3,3.9,0.3h8v6.2c-1.3,0.4-2.8,0.7-4.6,1.1
		C239.2,485.2,237.1,485.3,234.6,485.3z M211.6,485.1c-2.5,0-4.5-0.3-6-1c-1.5-0.7-2.6-1.8-3.2-3.4c-0.6-1.6-0.9-3.8-0.8-6.6
		l0.3-9.9h-4.5v-6.8l5-1.6l1.3-8.2h8.4v8.2h6v8.4h-6v9.9c0,0.5,0,0.9,0.1,1.2c0.1,0.3,0.2,0.6,0.4,0.9c0.2,0.2,0.4,0.4,0.6,0.5
		c0.3,0.1,0.5,0.2,0.9,0.2l3.8,0.4v7.9H211.6z M175.4,485.1v-29.4h8.2l2.3,4.1c0.9-1.2,1.9-2.3,3-3.2c1.1-0.9,2.5-1.4,4.2-1.4
		c0.3,0,0.6,0,1,0.1c0.4,0,0.8,0.1,1.1,0.2v10.9c-0.6-0.1-1.2-0.1-1.9-0.2c-0.6,0-1.2-0.1-1.7-0.1c-0.9,0-1.7,0.1-2.4,0.2
		c-0.7,0.2-1.4,0.4-1.9,0.7c-0.6,0.3-1,0.8-1.4,1.3v16.7H175.4z M157.3,476.9c0.7,0,1.3-0.1,1.7-0.2c0.4-0.1,0.8-0.4,1-0.8
		c0.3-0.4,0.4-1.1,0.5-2c0.1-0.9,0.2-2.1,0.2-3.7c0-1.5-0.1-2.7-0.2-3.6c-0.1-0.9-0.3-1.6-0.5-2c-0.3-0.4-0.6-0.7-1-0.8
		c-0.4-0.1-1-0.2-1.7-0.2c-0.7,0-1.3,0.1-1.7,0.2c-0.4,0.1-0.8,0.4-1,0.8c-0.3,0.4-0.4,1.1-0.5,2c-0.1,0.9-0.2,2.1-0.2,3.6
		c0,1.5,0.1,2.7,0.2,3.7c0.1,0.9,0.3,1.6,0.5,2c0.3,0.4,0.6,0.7,1,0.8C156.1,476.9,156.7,476.9,157.3,476.9z M157.3,485.3
		c-2.6,0-4.8-0.3-6.6-0.8c-1.8-0.5-3.2-1.4-4.3-2.6c-1.1-1.2-1.9-2.8-2.3-4.7c-0.5-1.9-0.7-4.2-0.7-7c0-2.9,0.2-5.4,0.7-7.3
		c0.5-1.9,1.3-3.5,2.4-4.6c1.1-1.1,2.5-2,4.3-2.4c1.8-0.5,4-0.7,6.6-0.7c2.6,0,4.8,0.3,6.6,0.8c1.8,0.5,3.2,1.3,4.3,2.5
		c1.1,1.1,1.9,2.7,2.3,4.6c0.5,1.9,0.7,4.4,0.7,7.2c0,2.8-0.2,5.2-0.7,7.2c-0.5,1.9-1.2,3.5-2.3,4.6c-1.1,1.2-2.5,2-4.3,2.5
		C162.3,485.1,160,485.3,157.3,485.3z M126.1,476.8c0.5,0,1-0.2,1.6-0.5c0.5-0.3,1-0.9,1.3-1.8c0.3-0.9,0.5-2.3,0.5-4.1
		c0-1.8-0.1-3.2-0.4-4.2c-0.3-1-0.6-1.7-1.1-2c-0.5-0.4-1.1-0.5-1.8-0.5c-0.8,0-1.5,0.1-2.1,0.4c-0.7,0.2-1.2,0.5-1.5,0.7V476
		c0.4,0.3,0.9,0.5,1.6,0.6C124.7,476.7,125.4,476.8,126.1,476.8z M111.9,498v-42.4h9l1.6,2.7c0.7-0.6,1.4-1.2,2.1-1.6
		c0.7-0.5,1.4-0.8,2.3-1.1c0.8-0.3,1.8-0.4,2.8-0.4c1.7,0,3.3,0.3,4.6,0.9c1.3,0.6,2.4,1.6,3.2,2.8c0.9,1.3,1.5,2.9,1.9,4.8
		c0.4,1.9,0.6,4.2,0.6,6.8c0,3.1-0.3,5.7-0.8,8c-0.6,2.3-1.6,4-3.1,5.2c-1.5,1.2-3.6,1.9-6.4,1.9c-1.2,0-2.5-0.1-3.8-0.3
		c-1.3-0.2-2.4-0.6-3.4-1V498H111.9z M93.8,476.9c0.7,0,1.3-0.1,1.7-0.2c0.4-0.1,0.8-0.4,1-0.8c0.3-0.4,0.4-1.1,0.5-2
		c0.1-0.9,0.2-2.1,0.2-3.7c0-1.5-0.1-2.7-0.2-3.6c-0.1-0.9-0.3-1.6-0.5-2c-0.3-0.4-0.6-0.7-1-0.8c-0.4-0.1-1-0.2-1.7-0.2
		c-0.7,0-1.3,0.1-1.7,0.2c-0.4,0.1-0.8,0.4-1,0.8c-0.3,0.4-0.4,1.1-0.5,2c-0.1,0.9-0.2,2.1-0.2,3.6c0,1.5,0.1,2.7,0.2,3.7
		c0.1,0.9,0.3,1.6,0.5,2c0.3,0.4,0.6,0.7,1,0.8C92.5,476.9,93.1,476.9,93.8,476.9z M93.8,485.3c-2.6,0-4.8-0.3-6.6-0.8
		c-1.8-0.5-3.2-1.4-4.3-2.6c-1.1-1.2-1.9-2.8-2.3-4.7c-0.5-1.9-0.7-4.2-0.7-7c0-2.9,0.2-5.4,0.7-7.3c0.5-1.9,1.3-3.5,2.4-4.6
		c1.1-1.1,2.5-2,4.3-2.4c1.8-0.5,4-0.7,6.6-0.7c2.6,0,4.8,0.3,6.6,0.8c1.8,0.5,3.2,1.3,4.3,2.5c1.1,1.1,1.9,2.7,2.3,4.6
		c0.5,1.9,0.7,4.4,0.7,7.2c0,2.8-0.2,5.2-0.7,7.2c-0.5,1.9-1.2,3.5-2.3,4.6c-1.1,1.2-2.5,2-4.3,2.5
		C98.7,485.1,96.5,485.3,93.8,485.3z M61.2,485.4c-1.2,0-2.4,0-3.5-0.1c-1.1-0.1-2.3-0.2-3.4-0.3c-1.1-0.1-2.2-0.3-3.2-0.5
		c-1-0.2-2-0.4-2.9-0.7v-8.4c1.2,0.1,2.6,0.2,4,0.3c1.4,0.1,2.9,0.1,4.4,0.2c1.5,0,2.8,0.1,4.1,0.1c1.2,0,2.2-0.1,3-0.3
		c0.8-0.2,1.4-0.5,1.8-0.9c0.4-0.4,0.6-0.9,0.6-1.6v-0.7c0-0.8-0.3-1.4-0.8-1.8c-0.6-0.4-1.2-0.6-2-0.6h-2.9c-4.2,0-7.4-0.9-9.6-2.8
		c-2.2-1.9-3.3-5-3.3-9.3v-1.8c0-4,1.2-7,3.6-9c2.4-2,5.9-3,10.4-3c1.7,0,3.3,0.1,4.8,0.2c1.5,0.2,2.9,0.4,4.3,0.6
		c1.3,0.2,2.5,0.5,3.6,0.7v8.4c-1.7-0.1-3.6-0.3-5.7-0.4c-2.1-0.1-4-0.1-5.7-0.1c-1,0-1.9,0.1-2.7,0.2c-0.8,0.1-1.4,0.4-1.9,0.9
		c-0.4,0.4-0.7,1.1-0.7,1.9v0.5c0,0.9,0.3,1.6,0.9,2.1c0.6,0.5,1.5,0.7,2.7,0.7h3.6c2.5,0,4.7,0.5,6.4,1.4c1.7,1,3,2.3,3.8,3.9
		c0.9,1.7,1.3,3.5,1.3,5.7v1.8c0,3.5-0.6,6.1-1.8,7.9c-1.2,1.8-2.9,3-5.1,3.7C67,485.1,64.3,485.4,61.2,485.4z"/>
	<radialGradient id="SVGID_3_" cx="123.6401" cy="99.1217" r="74.1226" gradientUnits="userSpaceOnUse">
		<stop  offset="0" style="stop-color:#fff"/>
		<stop  offset="0.95" style="stop-color:#fff;stop-opacity:0.1"/>
	</radialGradient>
	<polygon class="estrella" points="123.6,25 126.2,95.6 169.5,72.6 131,96.7 197.8,99.1 127.1,101.6 150.1,145 126,106.5 123.6,173.2 
		121.1,102.6 77.8,125.6 116.3,101.5 49.5,99.1 120.2,96.6 97.1,53.2 121.3,91.8 	"/>
	
		<radialGradient id="SVGID_4_" cx="123.6401" cy="99.1217" r="37.1421" gradientTransform="matrix(1 0 0 1.1287 0 -11.2583)" gradientUnits="userSpaceOnUse">
		<stop  offset="0" style="stop-color:#fff"/>
		<stop  offset="0.2" style="stop-color:#fff"/>
		<stop  offset="0.95" style="stop-color:#fff;stop-opacity:0"/>
	</radialGradient>
	<path class="brilloEstrella" d="M123.6,58.7c20.5,0,37.1,18.8,37.1,41.9s-16.6,41.9-37.1,41.9s-37.1-18.8-37.1-41.9S103.1,58.7,123.6,58.7"/>
</g>
</svg>
