<?xml version="1.0" encoding="utf-8"?>
<!-- Generator: Adobe Illustrator 24.0.2, SVG Export Plug-In . SVG Version: 6.00 Build 0)  -->
<svg version="1.1" id="Capa_1" xmlns="http://www.w3.org/2000/svg" xmlns:xlink="http://www.w3.org/1999/xlink" x="0px" y="0px"
	 viewBox="0 0 500 500" style="enable-background:new 0 0 500 500;" xml:space="preserve">
<style type="text/css">
	.fondo{fill-rule:evenodd;clip-rule:evenodd;fill:transparent;}
	@keyframes sombra{
		0%{transform: scale(1);}
		50%{transform: scale(0.1);}
		100%{transform: scale(1);}
	}
	.sombra{fill-rule:evenodd;clip-rule:evenodd;fill:url(#SVGID_1_);
		transform-origin: 250px 380px;
		transform: scale(0.1);
		animation: sombra 5s infinite ease-in-out;
	}

	@keyframes escudo{
		0%{transform: translateY(35px);}
		50%{transform: translateY(10px);}
		100%{transform: translateY(35px);}
	}
	.escudo{fill-rule:evenodd;clip-rule:evenodd;fill:url(#SVGID_2_);
		transform: translateY(35px);
		animation: escudo 5s infinite ease-in-out;
	}
	.aroEs{fill:url(#SVGID_3_);
		/* animation: escudo 5s infinite linear; */
	}
	.checkColor{fill:#CECECE;opacity: 0.5;
		animation: escudo 5s infinite ease-in-out;
	}
	.linea{fill:none;stroke:#fff;stroke-width:1;
		animation: escudo 5s infinite ease-in-out;
	}
	.seguridad{fill:#CECECE;}
	/* .checkColor{fill:url(#SVGID_4_);} */
</style>
<g>
	<rect class="fondo" width="500" height="500"/>
	
		<radialGradient id="SVGID_1_" cx="249.9996" cy="379.8843" r="116.6571" gradientTransform="matrix(1 0 0 0.3 0 265.919)" gradientUnits="userSpaceOnUse">
		<stop  offset="0" style="stop-color:#fff;stop-opacity:0.5"/>
		<stop  offset="1" style="stop-color:#fff;stop-opacity:0"/>
	</radialGradient>
	<path class="sombra" d="M409,379.9c0-24.3-71.2-44-159-44c-87.8,0-159,19.7-159,44c0,24.3,71.2,44,159,44
		C337.8,423.9,409,404.2,409,379.9"/>
	<linearGradient id="SVGID_2_" gradientUnits="userSpaceOnUse" x1="120.9355" y1="186.4112" x2="379.0632" y2="186.4112">
		<stop  offset="0" style="stop-color:#FFFFFF;stop-opacity:0.0"/>
		<stop  offset="0.5" style="stop-color:#FFFFFF;stop-opacity:0.5"/>
		<stop  offset="1" style="stop-color:#FFFFFF;stop-opacity:0.0"/>
	</linearGradient>
	<path class="escudo" d="M120.9,82.5c0,224.1,129.1,256.3,129.1,256.3s129.1-32.2,129.1-256.3C336,79.1,293.9,74.2,250,34
		C206.1,74.2,164,79.1,120.9,82.5"/>
	<radialGradient id="SVGID_3_" cx="249.9994" cy="186.4112" r="175.9749" gradientUnits="userSpaceOnUse">
		<stop  offset="0" style="stop-color:#fff;stop-opacity:0.1"/>
		<stop  offset="0.5" style="stop-color:#fff"/>
		<stop  offset="1" style="stop-color:#fff;stop-opacity:0.1"/>
	</radialGradient>
	<path class="aroEs" d="M389.5,42.8c19.3,0.3,34.7,3.4,46,11.6c35.5,25.6,10,72.4-9.6,99.6c-21.1,29.3-51.8,63-93.7,92.6
		c-51.3,36.2-108.4,61.2-156.5,74.6C133.1,333,34.8,345.1,48,272c2.9-16.3,12.2-35,26.4-54.7c4.4-6.1,26.9-34,35.9-38.4
		c-6.7,8-29.8,34.8-34.1,40.7c-13.8,19.1-22.6,37.8-25.4,53.4c-12.3,68.1,85.4,53.8,123.3,43.3c47.5-13.2,101.9-40,152.7-75.9
		c41.5-29.3,75.5-59.6,96.3-88.4c17.1-23.7,42.1-72.3,10.5-95.1c-10.5-7.5-26.2-12.3-44.4-12.6c-18.8-1.3-50.6,6.3-67.2,9.8
		C337.2,47.4,378.5,41.9,389.5,42.8"/>
	<path class="seguridad" d="M363.1,474.8c0.7,0,1.4-0.1,1.9-0.4c0.6-0.2,1-0.5,1.3-0.7v-11.8c-0.3-0.2-0.8-0.4-1.3-0.6
		c-0.6-0.2-1.1-0.3-1.6-0.3c-1,0-1.8,0.2-2.4,0.5c-0.6,0.3-1,1-1.3,2c-0.3,1-0.4,2.5-0.4,4.6c0,2,0.1,3.5,0.4,4.4
		c0.2,1,0.6,1.6,1.2,1.9C361.5,474.7,362.2,474.8,363.1,474.8 M359.3,483.2c-2.2,0-4.1-0.5-5.6-1.4c-1.6-0.9-2.7-2.4-3.5-4.6
		c-0.8-2.1-1.2-5-1.2-8.6c0-3.6,0.3-6.5,0.9-8.8c0.6-2.3,1.7-3.9,3.3-5c1.6-1.1,3.8-1.6,6.7-1.6c1.2,0,2.3,0.1,3.4,0.3
		c1.1,0.2,2.2,0.5,3.1,0.8v-12.8h10.5v41.3h-8.9l-1.6-2.7c-0.7,0.6-1.4,1.1-2.2,1.6s-1.5,0.8-2.3,1
		C361,483.1,360.2,483.2,359.3,483.2z M331.7,476.1c0.2,0,0.4,0,0.6-0.1c0.2,0,0.4-0.1,0.7-0.1c0.2-0.1,0.4-0.1,0.6-0.2
		c0.2-0.1,0.4-0.1,0.5-0.2c0.1-0.1,0.3-0.1,0.4-0.2v-5.3l-2.2,0.3c-1,0.1-1.8,0.4-2.3,0.8c-0.5,0.4-0.8,1-0.8,1.8v1.1
		c0,0.5,0.1,0.9,0.3,1.2c0.2,0.3,0.5,0.5,0.9,0.6C330.7,476,331.1,476.1,331.7,476.1z M326.2,483.2c-2.2,0-4.1-0.7-5.4-2
		c-1.4-1.3-2.1-3.1-2.1-5.4v-3c0-2.2,0.8-4,2.4-5.4c1.6-1.4,4.1-2.2,7.6-2.2h5.9v-0.9c0-0.7-0.1-1.3-0.4-1.7
		c-0.3-0.4-0.8-0.7-1.5-0.9c-0.8-0.2-2-0.2-3.7-0.2h-8.5v-6c1.5-0.6,3.3-1.1,5.2-1.5c2-0.4,4.4-0.6,7.2-0.6c2.5,0,4.6,0.3,6.4,0.8
		c1.8,0.6,3.2,1.6,4.2,3c1,1.5,1.5,3.6,1.5,6.3v19.3h-8.3L335,480c-0.4,0.4-0.8,0.7-1.3,1.1c-0.5,0.4-1.1,0.7-1.9,1.1
		c-0.7,0.3-1.6,0.6-2.5,0.8C328.4,483.1,327.3,483.2,326.2,483.2z M301.2,474.8c0.7,0,1.4-0.1,1.9-0.4c0.6-0.2,1-0.5,1.3-0.7v-11.8
		c-0.3-0.2-0.8-0.4-1.3-0.6c-0.6-0.2-1.1-0.3-1.6-0.3c-1,0-1.8,0.2-2.4,0.5c-0.6,0.3-1,1-1.3,2c-0.3,1-0.4,2.5-0.4,4.6
		c0,2,0.1,3.5,0.4,4.4c0.2,1,0.6,1.6,1.2,1.9C299.6,474.7,300.3,474.8,301.2,474.8z M297.4,483.2c-2.2,0-4.1-0.5-5.6-1.4
		c-1.6-0.9-2.7-2.4-3.5-4.6c-0.8-2.1-1.2-5-1.2-8.6c0-3.6,0.3-6.5,0.9-8.8c0.6-2.3,1.7-3.9,3.3-5c1.6-1.1,3.8-1.6,6.7-1.6
		c1.2,0,2.3,0.1,3.4,0.3c1.1,0.2,2.2,0.5,3.1,0.8v-12.8h10.5v41.3h-8.9l-1.6-2.7c-0.7,0.6-1.4,1.1-2.2,1.6c-0.8,0.5-1.5,0.8-2.3,1
		C299.1,483.1,298.3,483.2,297.4,483.2z M272.5,482.9v-29.2H283v29.2H272.5z M273.7,450c-0.9,0-1.3-0.4-1.3-1.2v-6
		c0-0.9,0.4-1.4,1.3-1.4h8.2c0.4,0,0.7,0.1,0.9,0.4c0.2,0.3,0.3,0.6,0.3,1v6c0,0.8-0.4,1.2-1.2,1.2H273.7z M249.2,482.9v-29.2h8.2
		l2.3,4.1c0.9-1.2,1.9-2.2,3-3.1c1.1-0.9,2.5-1.4,4.1-1.4c0.3,0,0.6,0,1,0.1c0.4,0,0.8,0.1,1.1,0.2v10.8c-0.6-0.1-1.2-0.1-1.9-0.2
		c-0.6,0-1.2-0.1-1.7-0.1c-0.9,0-1.7,0.1-2.4,0.2c-0.7,0.2-1.4,0.4-1.9,0.7c-0.6,0.3-1,0.8-1.4,1.3v16.5H249.2z M224.7,483.2
		c-2.5,0-4.5-0.8-6-2.4c-1.4-1.6-2.2-3.7-2.2-6.4v-20.7h10.5v17.4c0,1.1,0.3,1.9,0.8,2.2c0.5,0.4,1.2,0.6,2.1,0.6
		c0.5,0,1.2-0.2,2.1-0.5c0.8-0.3,1.5-0.7,1.9-1.2v-18.6h10.5v29.2h-8.8l-1.7-2.8c-1.2,0.8-2.6,1.5-4.2,2.2
		C228.1,482.9,226.5,483.2,224.7,483.2z M196.7,466.7h3c0.6,0,1.1-0.1,1.5-0.3c0.4-0.2,0.6-0.5,0.8-0.9c0.1-0.4,0.2-0.9,0.2-1.5
		c0-0.6-0.1-1.1-0.2-1.5c-0.1-0.4-0.4-0.6-0.8-0.8c-0.4-0.2-0.8-0.2-1.5-0.2h-3c-0.9,0-1.5,0.2-1.9,0.6c-0.4,0.4-0.5,1-0.5,2
		c0,0.9,0.2,1.6,0.5,2C195.2,466.5,195.8,466.7,196.7,466.7z M192.7,496.4c-1.8,0-3.4-0.3-4.8-0.8c-1.4-0.5-2.6-1.3-3.4-2.4
		c-0.8-1-1.3-2.3-1.3-3.7v-0.6c0-1.5,0.4-2.8,1.3-3.8c0.9-1.1,2-1.9,3.4-2.5c1.4-0.6,2.9-0.9,4.5-0.9l3.3,3c-0.6,0-1.1,0.1-1.5,0.3
		c-0.4,0.2-0.7,0.4-0.9,0.7c-0.2,0.3-0.3,0.7-0.3,1.1v0.3c0,0.6,0.2,1.1,0.6,1.5c0.4,0.4,1.1,0.6,2,0.6h4.8c0.8,0,1.4-0.2,2-0.5
		c0.5-0.3,0.8-0.8,0.8-1.4v-0.7c0-0.4-0.1-0.8-0.4-1.1c-0.2-0.3-0.6-0.5-0.9-0.6c-0.4-0.1-0.9-0.2-1.4-0.2h-5
		c-3.9,0-6.7-0.7-8.5-2.1c-1.8-1.4-2.7-3.1-2.7-5c0-1.5,0.4-2.8,1.2-3.8c0.8-1.1,2-1.8,3.5-2.2c-1-0.6-1.8-1.4-2.5-2.3
		c-0.6-0.9-1.1-1.8-1.4-2.8c-0.3-1-0.4-2.1-0.4-3.2c0-2.1,0.4-3.9,1.3-5.3c0.9-1.4,2.2-2.5,4.1-3.3c1.9-0.7,4.3-1.1,7.3-1.1h15.9
		v5.7l-3.1,1c0.3,0.4,0.5,0.8,0.6,1.3c0.2,0.5,0.3,1,0.4,1.7c0.1,0.6,0.1,1.4,0.1,2.2c0,1.8-0.4,3.4-1.1,4.7
		c-0.7,1.3-1.9,2.4-3.4,3.1c-1.6,0.7-3.6,1.1-6.1,1.1h-5.5c-0.6,0-1.1,0.1-1.5,0.3s-0.6,0.5-0.6,1c0,0.5,0.2,0.8,0.6,0.9
		c0.4,0.1,0.9,0.2,1.5,0.2h7c2.2,0,4.1,0.3,5.7,0.9c1.6,0.6,2.9,1.5,3.8,2.9c0.9,1.4,1.4,3.2,1.4,5.5v0.5c0,3-0.9,5.4-2.7,7.1
		c-1.8,1.7-4.7,2.6-8.6,2.6H192.7z M165.5,465.8h4.2c0.7,0,1.2-0.2,1.6-0.5c0.3-0.3,0.5-0.9,0.5-1.7c0-0.7-0.1-1.2-0.3-1.7
		c-0.2-0.4-0.6-0.8-1-0.9c-0.5-0.2-1.1-0.3-1.8-0.3c-0.7,0-1.3,0.1-1.7,0.4c-0.5,0.3-0.8,0.8-1,1.5
		C165.6,463.4,165.5,464.4,165.5,465.8z M169,483.1c-3.3,0-6-0.4-8-1.2c-2-0.8-3.5-2.3-4.4-4.5c-0.9-2.1-1.4-5.2-1.4-9.1
		c0-4,0.4-7.1,1.2-9.3c0.8-2.2,2.2-3.7,4.1-4.6c1.9-0.9,4.6-1.3,7.9-1.3c3.1,0,5.6,0.3,7.4,0.9c1.8,0.6,3.1,1.6,3.9,3.1
		c0.8,1.5,1.2,3.6,1.2,6.4c0,2.1-0.4,3.8-1.2,5s-2,2.1-3.5,2.6c-1.5,0.5-3.3,0.8-5.4,0.8h-5.2c0.1,0.9,0.3,1.6,0.6,2.1
		c0.3,0.5,0.9,0.9,1.8,1.1c0.9,0.2,2.1,0.3,3.8,0.3h8v6.1c-1.3,0.4-2.8,0.7-4.5,1.1C173.6,483,171.5,483.1,169,483.1z M136.8,483.2
		c-1.2,0-2.4,0-3.5-0.1c-1.1-0.1-2.3-0.2-3.4-0.3c-1.1-0.1-2.2-0.3-3.2-0.5c-1-0.2-2-0.4-2.9-0.7v-8.3c1.2,0.1,2.6,0.2,4,0.3
		c1.4,0.1,2.9,0.1,4.3,0.2c1.5,0,2.8,0.1,4.1,0.1c1.2,0,2.2-0.1,3-0.3c0.8-0.2,1.4-0.5,1.8-0.9c0.4-0.4,0.6-0.9,0.6-1.6v-0.6
		c0-0.8-0.3-1.4-0.8-1.8c-0.6-0.4-1.2-0.6-2-0.6H136c-4.2,0-7.4-0.9-9.5-2.8c-2.2-1.8-3.2-4.9-3.2-9.3v-1.8c0-4,1.2-6.9,3.6-8.9
		c2.4-2,5.8-3,10.3-3c1.7,0,3.3,0.1,4.8,0.2c1.5,0.2,2.9,0.4,4.2,0.6c1.3,0.2,2.5,0.5,3.5,0.7v8.3c-1.7-0.1-3.5-0.3-5.6-0.4
		c-2.1-0.1-4-0.1-5.7-0.1c-1,0-1.9,0.1-2.7,0.2c-0.8,0.1-1.4,0.4-1.8,0.9c-0.4,0.4-0.7,1.1-0.7,1.9v0.5c0,0.9,0.3,1.6,0.9,2.1
		c0.6,0.5,1.5,0.7,2.7,0.7h3.6c2.5,0,4.6,0.5,6.3,1.4c1.7,1,2.9,2.3,3.8,3.9c0.8,1.6,1.3,3.5,1.3,5.6v1.8c0,3.4-0.6,6-1.8,7.9
		c-1.2,1.8-2.9,3-5.1,3.7C142.6,482.9,139.9,483.2,136.8,483.2z"/>
	<linearGradient id="SVGID_4_" gradientUnits="userSpaceOnUse" x1="177.1489" y1="186.4133" x2="322.8504" y2="186.4133">
		<stop  offset="0" style="stop-color:#fff;stop-opacity:0.1"/>
		<stop  offset="0.5" style="stop-color:rgba(0,214,214,.5);stop-opacity:0.55"/>
		<stop  offset="1" style="stop-color:#fff;stop-opacity:0"/>
	</linearGradient>
	<path class="checkColor" d="M229.7,212.2c-0.2-0.7-24.1-28.9-26.5-31c-8.7-7.4-26,4.2-26,14.5c0,5.3,1.4,6.6,5,10.8
		c3.1,3.7,34.7,42.9,38.6,45.9c4,3.1,5.9,4.5,11.4,4.5c5.2,0,10.1-4.6,12.6-8.3l76.1-120.1c5.5-6.7,0.1-23.4-18.4-2.6l-67,80.8
		L229.7,212.2z"/>
	<path class="linea" d="M229.7,212.2c-0.2-0.7-24.1-28.9-26.5-31c-8.7-7.4-26,4.2-26,14.5c0,5.3,1.4,6.6,5,10.8
		c3.1,3.7,34.7,42.9,38.6,45.9c4,3.1,5.9,4.5,11.4,4.5c5.2,0,10.1-4.6,12.6-8.3l76.1-120.1c5.5-6.7,0.1-23.4-18.4-2.6l-67,80.8
		L229.7,212.2z"/>
</g>
</svg>
