<?xml version="1.0" encoding="utf-8"?>
<!-- Generator: Adobe Illustrator 24.0.2, SVG Export Plug-In . SVG Version: 6.00 Build 0)  -->
<svg version="1.1" id="Capa_1" xmlns="http://www.w3.org/2000/svg" xmlns:xlink="http://www.w3.org/1999/xlink" x="0px" y="0px"
	 viewBox="0 0 451.5 545.8" style="enable-background:new 0 0 451.5 545.8;" xml:space="preserve">
<style type="text/css">
	.st0{clip-path:url(#SVGID_2_);fill-rule:evenodd;clip-rule:evenodd;}
	.st1{clip-path:url(#SVGID_2_);fill-rule:evenodd;clip-rule:evenodd;fill:#FF0000;}
	.st2{clip-path:url(#SVGID_4_);fill:url(#SVGID_5_);}
	.st3{fill-rule:evenodd;clip-rule:evenodd;fill:#808080;}
	.st4{fill-rule:evenodd;clip-rule:evenodd;fill:#FFFFFF;}
	.st5{fill:none;stroke:#000000;stroke-width:9.8383;stroke-linecap:round;stroke-linejoin:round;stroke-miterlimit:22.9256;}
	.st6{fill:#FFFFFF;}
</style>
<g>
	<defs>
		<path id="SVGID_1_" d="M224.8,16.8c116,0,210,94,210,210c0,116-94,210-210,210s-210-94-210-210C14.8,110.8,108.8,16.8,224.8,16.8
			 M224.8,2c124.1,0,224.8,100.6,224.8,224.8S348.9,451.5,224.8,451.5S0,350.9,0,226.8S100.6,2,224.8,2z"/>
	</defs>
	<clipPath id="SVGID_2_">
		<use xlink:href="#SVGID_1_"  style="overflow:visible;"/>
	</clipPath>
	<path class="st0" d="M97.9,226.8c0-70.1,56.8-126.9,126.9-126.9c22,0,42.8,5.6,60.8,15.5l71.8-70.1C320.2,18.1,274.4,2,224.8,2
		C100.6,2,0,102.6,0,226.8c0,47.7,14.9,92,40.2,128.3L112,285C103,267.5,97.9,247.7,97.9,226.8"/>
	<path class="st1" d="M351.7,226.8c0,70.1-56.8,126.9-126.9,126.9c-23.2,0-44.9-6.2-63.6-17.1l-71.5,69.8
		c37.6,28.3,84.4,45.1,135.1,45.1c124.1,0,224.8-100.6,224.8-224.8c0-48.8-15.6-94-42-130.9L336,165.7
		C346,183.9,351.7,204.6,351.7,226.8"/>
</g>
<g>
	<defs>
		<path id="SVGID_3_" d="M224.8,30c108.7,0,196.8,88.1,196.8,196.8c0,108.7-88.1,196.8-196.8,196.8C116.1,423.6,28,335.5,28,226.8
			C28,118.1,116.1,30,224.8,30"/>
	</defs>
	<clipPath id="SVGID_4_">
		<use xlink:href="#SVGID_3_"  style="overflow:visible;"/>
	</clipPath>
	<linearGradient id="SVGID_5_" gradientUnits="userSpaceOnUse" x1="85.5984" y1="87.6031" x2="363.9283" y2="365.9231">
		<stop  offset="0" style="stop-color:#FF0000"/>
		<stop  offset="1" style="stop-color:#000000"/>
	</linearGradient>
	<rect x="28" y="30" class="st2" width="393.6" height="393.6"/>
</g>
<path class="st3" d="M88.9,281.3l10.9,18.2l140.1,71.1l78.9-45.4v-12.8L240,357.9L88.9,281.3z M315.6,157.7L173.7,85.8l-34.7,27
	l135,68.4L315.6,157.7z M274.4,237.2l-125.3-63.5l35.1-20.2l-32.1-16.3l-36.6,104.6L88,274.2l151.8,76.9l75.7-43.7l-13.3-6.7
	L318.3,163l-41.6,23.5l-1.6,13.1l8.3,4.2L274.4,237.2z M262.5,277.6L139.3,215l34.7-20l97.1,49.2L262.5,277.6z M252.6,311.3
	l-125.4-63.6l27-15.6l107.5,54.5L252.6,311.3z"/>
<path class="st4" d="M86.1,278.5L97,296.6L237,367.7l78.9-45.4v-12.8L237.1,355L86.1,278.5z M312.8,154.9L170.9,83l-34.7,27
	l135,68.4L312.8,154.9z M271.6,234.3l-125.3-63.5l35.1-20.2l-32.1-16.3L112.6,239l-27.4,32.4l151.8,76.9l75.7-43.7l-13.3-6.7
	l16.1-137.7l-41.6,23.5l-1.6,13.1l8.3,4.2L271.6,234.3z M259.7,274.7l-123.2-62.5l34.7-20l97.1,49.2L259.7,274.7z M249.7,308.4
	l-125.4-63.6l27-15.6l107.5,54.5L249.7,308.4z"/>
<g>
	<path class="st5" d="M71.6,540V511c0-2.7,0.1-6,0.4-10.1h-0.2c-0.6,3.1-1.1,5.1-1.5,6.2l-11.8,33h-8.1l-12-32.7
		c-0.3-0.8-0.8-2.9-1.5-6.5h-0.3c0.3,4,0.4,8,0.4,12.1V540h-9.2v-47.9h14.8l10.3,28.9c0.9,2.4,1.5,4.6,1.8,6.7h0.2
		c0.6-2.6,1.3-4.9,2-6.8l10.4-28.9h14.4V540H71.6z"/>
	<path class="st5" d="M89.8,516.7c0-7.5,2.2-13.6,6.6-18.3c4.4-4.7,10.2-7.1,17.4-7.1c6.8,0,12.3,2.3,16.5,6.8
		c4.2,4.6,6.3,10.4,6.3,17.6c0,7.5-2.2,13.5-6.5,18.2c-4.3,4.6-10,7-17,7c-6.9,0-12.4-2.3-16.7-6.8C92,529.6,89.8,523.8,89.8,516.7z
		 M100.6,516.2c0,4.7,1.1,8.5,3.4,11.4c2.2,3,5.3,4.4,9.2,4.4c4,0,7.1-1.4,9.3-4.3c2.2-2.8,3.3-6.6,3.3-11.4c0-5-1.1-8.9-3.2-11.8
		c-2.2-2.9-5.2-4.3-9.1-4.3c-4,0-7.1,1.5-9.4,4.5C101.7,507.6,100.6,511.5,100.6,516.2z"/>
	<path class="st5" d="M144.6,540v-47.9h17c5.2,0,9.2,1,12.1,3c2.8,2,4.2,4.7,4.2,8.2c0,2.6-0.9,4.9-2.6,6.8s-4,3.3-6.6,4v0.1
		c3.3,0.4,6,1.6,8.1,3.7c2.1,2.1,3.1,4.6,3.1,7.8c0,4.3-1.5,7.8-4.6,10.4c-3.1,2.6-7.3,3.8-12.7,3.8H144.6z M154.8,499.8v11.8h4.9
		c2.3,0,4.2-0.6,5.5-1.7c1.3-1.1,2-2.7,2-4.7c0-3.7-2.7-5.5-8-5.5H154.8z M154.8,519.3v13.1h6.1c2.6,0,4.6-0.6,6-1.8
		c1.5-1.2,2.2-2.9,2.2-5c0-2-0.7-3.6-2.2-4.7c-1.4-1.1-3.5-1.7-6.2-1.7H154.8z"/>
	<path class="st5" d="M198.1,492.2V540h-10.2v-47.9H198.1z"/>
	<path class="st5" d="M237.3,540h-28.1v-47.9h10.2v39.5h17.9V540z"/>
	<path class="st5" d="M253.9,492.2V540h-10.2v-47.9H253.9z"/>
	<path class="st5" d="M306.6,540h-11.1l-3.6-11h-17.4l-3.5,11h-11.1l17.5-47.9h12L306.6,540z M289.4,521.2l-5.4-16.6
		c-0.4-1.1-0.6-2.4-0.7-4.2H283c-0.1,1.4-0.4,2.8-0.8,4l-5.5,16.7H289.4z"/>
	<path class="st5" d="M352.1,540h-11.7l-7.5-12.5c-1.5-2.6-2.8-4.2-3.8-5c-1-0.7-2-1.1-3.2-1.1h-3.1V540h-10.2v-47.9h16.8
		c11.4,0,17.1,4.3,17.1,13c0,3.3-1,6-2.9,8.4c-1.9,2.3-4.5,4-7.9,4.9v0.1c2.2,0.7,4.6,3.2,7.3,7.3L352.1,540z M322.8,499.9v13.8h5
		c2.4,0,4.3-0.7,5.8-2.1c1.5-1.4,2.2-3.1,2.2-5.2c0-4.3-2.6-6.5-7.8-6.5H322.8z"/>
	<path class="st5" d="M367,492.2V540h-10.2v-47.9H367z"/>
	<path class="st5" d="M375.1,516.7c0-7.5,2.2-13.6,6.6-18.3s10.2-7.1,17.4-7.1c6.8,0,12.3,2.3,16.5,6.8c4.2,4.6,6.3,10.4,6.3,17.6
		c0,7.5-2.2,13.5-6.5,18.2s-10,7-17,7c-6.9,0-12.4-2.3-16.7-6.8C377.2,529.6,375.1,523.8,375.1,516.7z M385.8,516.2
		c0,4.7,1.1,8.5,3.4,11.4c2.2,3,5.3,4.4,9.2,4.4c4,0,7.1-1.4,9.3-4.3c2.2-2.8,3.3-6.6,3.3-11.4c0-5-1.1-8.9-3.2-11.8
		c-2.2-2.9-5.2-4.3-9.1-4.3c-4,0-7.1,1.5-9.4,4.5C386.9,507.6,385.8,511.5,385.8,516.2z"/>
</g>
<g>
	<path class="st6" d="M71.6,540V511c0-2.7,0.1-6,0.4-10.1h-0.2c-0.6,3.1-1.1,5.1-1.5,6.2l-11.8,33h-8.1l-12-32.7
		c-0.3-0.8-0.8-2.9-1.5-6.5h-0.3c0.3,4,0.4,8,0.4,12.1V540h-9.2v-47.9h14.8l10.3,28.9c0.9,2.4,1.5,4.6,1.8,6.7h0.2
		c0.6-2.6,1.3-4.9,2-6.8l10.4-28.9h14.4V540H71.6z"/>
	<path class="st6" d="M89.8,516.7c0-7.5,2.2-13.6,6.6-18.3c4.4-4.7,10.2-7.1,17.4-7.1c6.8,0,12.3,2.3,16.5,6.8
		c4.2,4.6,6.3,10.4,6.3,17.6c0,7.5-2.2,13.5-6.5,18.2c-4.3,4.6-10,7-17,7c-6.9,0-12.4-2.3-16.7-6.8C92,529.6,89.8,523.8,89.8,516.7z
		 M100.6,516.2c0,4.7,1.1,8.5,3.4,11.4c2.2,3,5.3,4.4,9.2,4.4c4,0,7.1-1.4,9.3-4.3c2.2-2.8,3.3-6.6,3.3-11.4c0-5-1.1-8.9-3.2-11.8
		c-2.2-2.9-5.2-4.3-9.1-4.3c-4,0-7.1,1.5-9.4,4.5C101.7,507.6,100.6,511.5,100.6,516.2z"/>
	<path class="st6" d="M144.6,540v-47.9h17c5.2,0,9.2,1,12.1,3c2.8,2,4.2,4.7,4.2,8.2c0,2.6-0.9,4.9-2.6,6.8s-4,3.3-6.6,4v0.1
		c3.3,0.4,6,1.6,8.1,3.7c2.1,2.1,3.1,4.6,3.1,7.8c0,4.3-1.5,7.8-4.6,10.4c-3.1,2.6-7.3,3.8-12.7,3.8H144.6z M154.8,499.8v11.8h4.9
		c2.3,0,4.2-0.6,5.5-1.7c1.3-1.1,2-2.7,2-4.7c0-3.7-2.7-5.5-8-5.5H154.8z M154.8,519.3v13.1h6.1c2.6,0,4.6-0.6,6-1.8
		c1.5-1.2,2.2-2.9,2.2-5c0-2-0.7-3.6-2.2-4.7c-1.4-1.1-3.5-1.7-6.2-1.7H154.8z"/>
	<path class="st6" d="M198.1,492.2V540h-10.2v-47.9H198.1z"/>
	<path class="st6" d="M237.3,540h-28.1v-47.9h10.2v39.5h17.9V540z"/>
	<path class="st6" d="M253.9,492.2V540h-10.2v-47.9H253.9z"/>
	<path class="st6" d="M306.6,540h-11.1l-3.6-11h-17.4l-3.5,11h-11.1l17.5-47.9h12L306.6,540z M289.4,521.2l-5.4-16.6
		c-0.4-1.1-0.6-2.4-0.7-4.2H283c-0.1,1.4-0.4,2.8-0.8,4l-5.5,16.7H289.4z"/>
	<path class="st6" d="M352.1,540h-11.7l-7.5-12.5c-1.5-2.6-2.8-4.2-3.8-5c-1-0.7-2-1.1-3.2-1.1h-3.1V540h-10.2v-47.9h16.8
		c11.4,0,17.1,4.3,17.1,13c0,3.3-1,6-2.9,8.4c-1.9,2.3-4.5,4-7.9,4.9v0.1c2.2,0.7,4.6,3.2,7.3,7.3L352.1,540z M322.8,499.9v13.8h5
		c2.4,0,4.3-0.7,5.8-2.1c1.5-1.4,2.2-3.1,2.2-5.2c0-4.3-2.6-6.5-7.8-6.5H322.8z"/>
	<path class="st6" d="M367,492.2V540h-10.2v-47.9H367z"/>
	<path class="st6" d="M375.1,516.7c0-7.5,2.2-13.6,6.6-18.3s10.2-7.1,17.4-7.1c6.8,0,12.3,2.3,16.5,6.8c4.2,4.6,6.3,10.4,6.3,17.6
		c0,7.5-2.2,13.5-6.5,18.2s-10,7-17,7c-6.9,0-12.4-2.3-16.7-6.8C377.2,529.6,375.1,523.8,375.1,516.7z M385.8,516.2
		c0,4.7,1.1,8.5,3.4,11.4c2.2,3,5.3,4.4,9.2,4.4c4,0,7.1-1.4,9.3-4.3c2.2-2.8,3.3-6.6,3.3-11.4c0-5-1.1-8.9-3.2-11.8
		c-2.2-2.9-5.2-4.3-9.1-4.3c-4,0-7.1,1.5-9.4,4.5C386.9,507.6,385.8,511.5,385.8,516.2z"/>
</g>
</svg>
