<?xml version="1.0" encoding="utf-8"?>
<!-- Generator: Adobe Illustrator 24.0.2, SVG Export Plug-In . SVG Version: 6.00 Build 0)  -->
<svg version="1.1" id="Capa_1" xmlns="http://www.w3.org/2000/svg" xmlns:xlink="http://www.w3.org/1999/xlink" x="0px" y="0px"
	 viewBox="0 0 150 150" style="enable-background:new 0 0 150 150;" xml:space="preserve">
<style type="text/css">
	.st0{fill-rule:evenodd;clip-rule:evenodd;fill:#474747;transition: 0.6s;}
	.active{fill: #fff;}
</style>
<g>
	<path id="este" class="st0" d="M127.8,90.1c0,2.9-2.4,5.3-5.3,5.3h-95c-2.9,0-5.3-2.4-5.3-5.3V32.4c0-2.9,2.4-5.3,5.3-5.3h95.1
		c2.9,0,5.3,2.4,5.3,5.3L127.8,90.1L127.8,90.1z M60.5,117.8h29v-12h-29V117.8z M39.4,121.3h71.1c1.3,0,2.3,1,2.3,2.3v3.9
		c0,1.3-1,2.3-2.3,2.3H39.4c-1.3,0-2.3-1-2.3-2.3v-3.9C37.1,122.3,38.2,121.3,39.4,121.3z M61.6,54.5l11.6,6.8v13.6l-11.6-6.8V54.5z
		 M73.8,77.9c0.4,0.2,0.8,0.2,1.2,0l14-8.2c0.4-0.2,0.6-0.6,0.6-1v-3.2l7.1,4.4L74.4,83.7L52.2,70l7.1-4.4v3.2c0,0.4,0.2,0.8,0.6,1
		L73.8,77.9z M60.5,42c8.2-6.2,19.6-6.2,27.9,0h-1.1v2.3H92c0.6,0,1.2-0.5,1.2-1.2v-4.7h-2.3v2.4c-9.5-7.8-23.1-7.8-32.6,0v-2.4H56
		v4.7c0,0.6,0.5,1.2,1.2,1.2h4.7V42H60.5z M97.6,40.4l0.3,5.7c0,0.3,0.2,0.6,0.5,0.7l3.2,1.2c-0.1,0.3-0.1,0.7,0.2,0.9l2,2
		c0.3,0.3,0.9,0.3,1.2,0l4-4c0.3-0.3,0.3-0.9,0-1.2l-2-2c-0.2-0.2-0.6-0.3-0.9-0.2l-1.2-3.2c-0.1-0.3-0.4-0.5-0.7-0.5l-5.7-0.3
		C98,39.5,97.5,39.9,97.6,40.4z M104.8,44.8l-1.9,1.9l-3.3-1.3l-0.2-2.9l1.8,1.8c0.8,0.8,2-0.4,1.2-1.2l-1.8-1.8l2.9,0.2L104.8,44.8
		z M89.5,52.5c0-0.4-0.2-0.8-0.6-1l-14-8.1c-0.4-0.2-0.8-0.2-1.2,0l-14,8.1c-0.4,0.2-0.6,0.6-0.6,1v10.3L49.3,69
		c-0.7,0.5-0.7,1.5,0,2l24.4,15.1c0.4,0.2,0.9,0.2,1.2,0L99.3,71c0.7-0.5,0.7-1.5,0-2l-9.9-6.1V52.5H89.5z M129.5,20.1h-109
		c-3,0-5.5,2.5-5.5,5.5v71.3c0,3,2.5,5.5,5.5,5.5h109c3,0,5.5-2.5,5.5-5.5V25.6C135,22.6,132.5,20.1,129.5,20.1z"/>
</g>
</svg>
