<?xml version="1.0" encoding="utf-8"?>
<!-- Generator: Adobe Illustrator 24.0.2, SVG Export Plug-In . SVG Version: 6.00 Build 0)  -->
<svg version="1.1" id="Capa_1" xmlns="http://www.w3.org/2000/svg" xmlns:xlink="http://www.w3.org/1999/xlink" x="0px" y="0px"
	 viewBox="0 0 150 150" style="enable-background:new 0 0 150 150;" xml:space="preserve">
<style type="text/css">
	.st0{fill-rule:evenodd;clip-rule:evenodd;fill:transparent;}
	.st1{fill:#808080;}
</style>
<rect class="st0" width="150" height="150"/>
<g>
	<path class="st1" d="M133.3,141.9h2.5c0.5,0,0.9-0.1,1.2-0.4c0.3-0.3,0.5-0.7,0.6-1.3c0.1-0.6,0.2-1.4,0.2-2.3c0-0.9,0-1.6-0.1-2.1
		c-0.1-0.5-0.2-0.9-0.4-1.2c-0.2-0.3-0.4-0.5-0.6-0.6c-0.2-0.1-0.5-0.2-0.9-0.2h-2.5V141.9z M130.1,144.8v-13.9h6
		c1,0,1.8,0.2,2.4,0.5c0.6,0.3,1.1,0.8,1.5,1.5c0.4,0.6,0.6,1.4,0.8,2.2c0.1,0.9,0.2,1.8,0.2,2.8c0,1.6-0.2,2.9-0.5,3.9
		c-0.4,1-0.9,1.8-1.6,2.3c-0.7,0.5-1.7,0.7-2.8,0.7H130.1z M124.2,144.9c-1,0-2,0-2.9-0.1c-0.9-0.1-1.8-0.2-2.5-0.3v-2.6h4.2
		c0.5,0,0.9,0,1.2-0.1c0.3-0.1,0.5-0.2,0.6-0.3c0.1-0.1,0.2-0.4,0.2-0.6v-0.5c0-0.3-0.1-0.5-0.2-0.7c-0.1-0.2-0.3-0.3-0.6-0.4
		c-0.2-0.1-0.5-0.1-0.9-0.1L120,139v-2.5l3.2-0.2c0.5,0,0.9-0.1,1.2-0.3c0.3-0.1,0.4-0.4,0.4-0.7V135c0-0.4-0.1-0.7-0.4-0.9
		c-0.3-0.2-0.8-0.3-1.5-0.3h-3.8v-2.6c0.8-0.1,1.6-0.2,2.4-0.3c0.9-0.1,1.8-0.2,2.7-0.1c0.8,0,1.5,0.1,2.1,0.4
		c0.6,0.3,1,0.6,1.3,1.2c0.3,0.5,0.5,1.2,0.5,1.9v1c0,0.3,0,0.6-0.1,0.9c-0.1,0.3-0.2,0.5-0.3,0.7c-0.1,0.2-0.3,0.4-0.5,0.6
		c-0.2,0.1-0.4,0.3-0.7,0.4c0.3,0.1,0.5,0.2,0.8,0.4c0.2,0.2,0.4,0.4,0.6,0.7s0.3,0.6,0.4,0.9c0.1,0.3,0.1,0.7,0.1,1.1v0.6
		c0,1.1-0.4,2-1.1,2.6C126.5,144.6,125.5,144.9,124.2,144.9z M107.6,144.9c-0.4,0-0.8,0-1.2,0c-0.4,0-0.8-0.1-1.2-0.1
		c-0.4,0-0.7-0.1-1.1-0.2c-0.4-0.1-0.7-0.1-1-0.2v-2.6c0.4,0,0.8,0.1,1.3,0.1c0.5,0,1,0,1.5,0.1c0.5,0,1,0,1.4,0
		c0.4,0,0.8,0,1.1-0.1c0.3-0.1,0.5-0.2,0.7-0.4c0.2-0.2,0.2-0.4,0.2-0.7v-0.4c0-0.3-0.1-0.6-0.3-0.8c-0.2-0.2-0.5-0.3-0.8-0.3h-1.1
		c-1.4,0-2.5-0.3-3.2-0.9c-0.7-0.6-1.1-1.6-1.1-3.1v-0.7c0-1.4,0.4-2.4,1.2-3c0.8-0.7,1.9-1,3.4-1c0.6,0,1.1,0,1.6,0.1
		c0.5,0.1,1,0.1,1.5,0.2c0.5,0.1,0.9,0.2,1.2,0.2v2.5c-0.6,0-1.2-0.1-1.9-0.1c-0.7,0-1.4-0.1-1.9-0.1c-0.4,0-0.7,0-1,0.1
		c-0.3,0.1-0.5,0.2-0.7,0.4c-0.2,0.2-0.2,0.4-0.2,0.8v0.3c0,0.4,0.1,0.7,0.3,0.9c0.2,0.2,0.6,0.3,1.1,0.3h1.3c0.9,0,1.6,0.2,2.1,0.5
		c0.6,0.3,1,0.8,1.3,1.3c0.3,0.6,0.4,1.2,0.4,1.9v0.7c0,1.2-0.2,2-0.6,2.6c-0.4,0.6-1,1-1.7,1.2
		C109.5,144.8,108.7,144.9,107.6,144.9z M95.6,142c0.5,0,0.9-0.1,1.3-0.2c0.3-0.1,0.6-0.3,0.8-0.6c0.2-0.3,0.3-0.7,0.4-1.3
		c0.1-0.5,0.1-1.2,0.1-2.1c0-0.9,0-1.6-0.1-2.2c-0.1-0.6-0.2-1-0.4-1.3c-0.2-0.3-0.5-0.5-0.8-0.6c-0.3-0.1-0.8-0.2-1.3-0.2
		c-0.5,0-0.9,0.1-1.3,0.2c-0.3,0.1-0.6,0.3-0.8,0.6c-0.2,0.3-0.3,0.7-0.4,1.3c-0.1,0.5-0.1,1.3-0.1,2.2c0,0.9,0,1.6,0.1,2.1
		c0.1,0.5,0.2,1,0.4,1.3c0.2,0.3,0.5,0.5,0.8,0.6C94.7,141.9,95.1,142,95.6,142z M95.6,144.9c-1,0-1.8-0.1-2.5-0.3
		c-0.7-0.2-1.3-0.5-1.8-1c-0.5-0.5-0.9-1.2-1.1-2.1c-0.2-0.9-0.4-2.1-0.4-3.6c0-1.5,0.1-2.7,0.4-3.6c0.2-0.9,0.6-1.6,1.1-2.1
		c0.5-0.5,1.1-0.8,1.8-1c0.7-0.2,1.6-0.3,2.5-0.3c1,0,1.8,0.1,2.6,0.3c0.7,0.2,1.3,0.5,1.8,1c0.5,0.5,0.9,1.2,1.1,2.1
		c0.2,0.9,0.4,2.1,0.4,3.6c0,1.5-0.1,2.7-0.4,3.6c-0.2,0.9-0.6,1.6-1.1,2.1c-0.5,0.5-1.1,0.8-1.8,1
		C97.5,144.8,96.6,144.9,95.6,144.9z M82,144.8v-11h-3.7v-2.9h10.5v2.9h-3.7v11H82z M72.8,144.9c-0.8,0-1.5-0.1-2.1-0.3
		c-0.6-0.2-1.1-0.5-1.6-1c-0.4-0.5-0.8-1.2-1-2.2c-0.2-0.9-0.3-2.2-0.3-3.6c0-1.5,0.1-2.6,0.4-3.6c0.2-0.9,0.6-1.6,1-2.1
		c0.4-0.5,1-0.9,1.6-1.1c0.6-0.2,1.3-0.3,2.1-0.3c0.7,0,1.3,0,1.9,0.1c0.6,0.1,1.1,0.2,1.5,0.3s0.8,0.2,1.1,0.3v2.5
		c-0.2-0.1-0.5-0.1-0.9-0.2c-0.4,0-0.8-0.1-1.3-0.1c-0.5,0-1,0-1.6,0c-0.5,0-0.9,0.1-1.2,0.1c-0.3,0.1-0.6,0.3-0.8,0.6
		c-0.2,0.3-0.3,0.7-0.4,1.3c-0.1,0.5-0.1,1.3-0.1,2.2c0,0.8,0,1.5,0.1,2.1c0.1,0.5,0.2,1,0.4,1.3c0.2,0.3,0.4,0.5,0.8,0.6
		c0.3,0.1,0.8,0.2,1.3,0.2c1,0,1.7,0,2.3-0.1c0.6,0,1.1-0.1,1.4-0.1v2.5c-0.3,0.1-0.7,0.2-1.1,0.3c-0.4,0.1-0.9,0.1-1.5,0.2
		C74.2,144.9,73.5,144.9,72.8,144.9z M60.4,144.9c-0.3,0-0.7,0-1.1-0.1c-0.4-0.1-0.8-0.2-1.2-0.4c-0.4-0.2-0.7-0.5-0.9-1
		c-0.2-0.4-0.4-1-0.4-1.8v-7.5c0-0.6,0.1-1.2,0.3-1.6c0.2-0.4,0.5-0.8,0.8-1c0.3-0.2,0.7-0.4,1.1-0.5s0.8-0.2,1.2-0.2
		c1,0,1.9,0,2.6,0c0.7,0,1.4,0.1,1.9,0.1c0.6,0,1.1,0.1,1.5,0.1v2.7h-5.1c-0.3,0-0.6,0.1-0.8,0.2c-0.2,0.2-0.3,0.4-0.3,0.7v1.5
		l5.3,0.2v2.6l-5.3,0.2v1.5c0,0.3,0,0.5,0.1,0.6c0.1,0.2,0.2,0.3,0.4,0.3c0.2,0.1,0.3,0.1,0.5,0.1h5.2v2.7c-0.5,0.1-1.2,0.1-1.8,0.2
		c-0.7,0.1-1.4,0.1-2.1,0.1C61.6,144.8,61,144.9,60.4,144.9z M48.7,144.8v-4.1l-4.1-9.8H48l2.4,6.5l2.4-6.5h3.2l-4.1,9.8v4.1H48.7z
		 M38.1,142c0.5,0,0.9-0.1,1.3-0.2c0.3-0.1,0.6-0.3,0.8-0.6c0.2-0.3,0.3-0.7,0.4-1.3c0.1-0.5,0.1-1.2,0.1-2.1c0-0.9,0-1.6-0.1-2.2
		c-0.1-0.6-0.2-1-0.4-1.3c-0.2-0.3-0.5-0.5-0.8-0.6c-0.3-0.1-0.8-0.2-1.3-0.2c-0.5,0-0.9,0.1-1.3,0.2c-0.3,0.1-0.6,0.3-0.8,0.6
		c-0.2,0.3-0.3,0.7-0.4,1.3c-0.1,0.5-0.1,1.3-0.1,2.2c0,0.9,0,1.6,0.1,2.1c0.1,0.5,0.2,1,0.4,1.3c0.2,0.3,0.5,0.5,0.8,0.6
		C37.2,141.9,37.6,142,38.1,142z M38.1,144.9c-1,0-1.8-0.1-2.5-0.3c-0.7-0.2-1.3-0.5-1.8-1c-0.5-0.5-0.9-1.2-1.1-2.1
		s-0.4-2.1-0.4-3.6c0-1.5,0.1-2.7,0.4-3.6c0.2-0.9,0.6-1.6,1.1-2.1c0.5-0.5,1.1-0.8,1.8-1c0.7-0.2,1.6-0.3,2.5-0.3
		c1,0,1.8,0.1,2.6,0.3c0.7,0.2,1.3,0.5,1.8,1c0.5,0.5,0.9,1.2,1.1,2.1c0.2,0.9,0.4,2.1,0.4,3.6c0,1.5-0.1,2.7-0.4,3.6
		c-0.2,0.9-0.6,1.6-1.1,2.1c-0.5,0.5-1.1,0.8-1.8,1C39.9,144.8,39.1,144.9,38.1,144.9z M24,137.2h2c0.2,0,0.4,0,0.6-0.1
		c0.2-0.1,0.3-0.2,0.5-0.3c0.1-0.1,0.2-0.3,0.3-0.6c0.1-0.2,0.1-0.5,0.1-0.8c0-0.3,0-0.6-0.1-0.8c-0.1-0.2-0.2-0.4-0.3-0.5
		c-0.1-0.1-0.3-0.2-0.5-0.3c-0.2-0.1-0.4-0.1-0.6-0.1h-2V137.2z M20.7,144.8v-13.9h5.9c0.6,0,1.1,0.1,1.6,0.2
		c0.5,0.1,0.9,0.4,1.3,0.7s0.7,0.8,0.9,1.4c0.2,0.6,0.3,1.3,0.3,2.2c0,0.6-0.1,1.1-0.2,1.6c-0.1,0.4-0.3,0.8-0.5,1.1
		c-0.2,0.3-0.4,0.5-0.6,0.7c-0.2,0.2-0.5,0.3-0.8,0.5l2.5,5.5h-3.3l-2.1-5c-0.1,0-0.3,0-0.4,0c-0.2,0-0.3,0-0.5,0
		c-0.2,0-0.3,0-0.5,0c-0.2,0-0.3,0-0.4,0v5H20.7z M12.2,137.8h2.4c0.3,0,0.5-0.1,0.7-0.2c0.2-0.2,0.3-0.4,0.4-0.7
		c0.1-0.3,0.1-0.7,0.1-1.2c0-0.5,0-0.8-0.1-1.1c-0.1-0.3-0.2-0.5-0.4-0.7c-0.2-0.1-0.4-0.2-0.7-0.2h-2.4V137.8z M9,144.8v-13.9h6
		c0.5,0,0.9,0.1,1.4,0.2c0.5,0.1,0.9,0.3,1.3,0.6c0.4,0.3,0.7,0.8,1,1.5c0.3,0.7,0.4,1.5,0.4,2.6c0,1.1-0.1,2-0.4,2.6
		c-0.2,0.7-0.6,1.2-1,1.5c-0.4,0.3-0.8,0.6-1.3,0.7c-0.5,0.1-0.9,0.2-1.4,0.2c-0.2,0-0.5,0-0.8,0c-0.3,0-0.6-0.1-0.8-0.1
		c-0.3,0-0.5-0.1-0.8-0.1c-0.2,0-0.4-0.1-0.6-0.1v4.4H9z"/>
	<path class="st1" d="M127.8,75.1c0,2.9-2.4,5.3-5.3,5.3H27.5c-2.9,0-5.3-2.4-5.3-5.3V17.4c0-2.9,2.4-5.3,5.3-5.3h95.1
		c2.9,0,5.3,2.4,5.3,5.3V75.1z M60.5,102.8h29v-12h-29V102.8z M39.4,106.3h71.1c1.3,0,2.3,1,2.3,2.3v3.9c0,1.3-1,2.3-2.3,2.3H39.4
		c-1.3,0-2.3-1-2.3-2.3v-3.9C37.1,107.3,38.2,106.3,39.4,106.3z M61.6,39.5l11.6,6.8v13.6l-11.6-6.8V39.5z M73.8,62.9
		c0.4,0.2,0.8,0.2,1.2,0l14-8.2c0.4-0.2,0.6-0.6,0.6-1v-3.2l7.1,4.4L74.4,68.7L52.2,55l7.1-4.4v3.2c0,0.4,0.2,0.8,0.6,1L73.8,62.9z
		 M60.5,27c8.2-6.2,19.6-6.2,27.9,0l-1.1,0v2.3h4.7c0.6,0,1.2-0.5,1.2-1.2v-4.7h-2.3v2.4c-9.5-7.8-23.1-7.8-32.6,0v-2.4h-2.3v4.7
		c0,0.6,0.5,1.2,1.2,1.2h4.7V27H60.5z M97.6,25.4l0.3,5.7c0,0.3,0.2,0.6,0.5,0.7l3.2,1.2c-0.1,0.3-0.1,0.7,0.2,0.9l2,2
		c0.3,0.3,0.9,0.3,1.2,0l4-4c0.3-0.3,0.3-0.9,0-1.2l-2-2c-0.2-0.2-0.6-0.3-0.9-0.2l-1.2-3.2c-0.1-0.3-0.4-0.5-0.7-0.5l-5.7-0.3
		C98,24.5,97.5,24.9,97.6,25.4z M104.8,29.8l-1.9,1.9l-3.3-1.3l-0.2-2.9l1.8,1.8c0.8,0.8,2-0.4,1.2-1.2l-1.8-1.8l2.9,0.2L104.8,29.8
		z M89.5,37.5c0-0.4-0.2-0.8-0.6-1l-14-8.1c-0.4-0.2-0.8-0.2-1.2,0l-14,8.1c-0.4,0.2-0.6,0.6-0.6,1v10.3L49.3,54
		c-0.7,0.5-0.7,1.5,0,2l24.4,15.1c0.4,0.2,0.9,0.2,1.2,0l24.4-15.1c0.7-0.5,0.7-1.5,0-2l-9.9-6.1V37.5z M129.5,5.1h-109
		c-3,0-5.5,2.5-5.5,5.5v71.3c0,3,2.5,5.5,5.5,5.5h109c3,0,5.5-2.5,5.5-5.5V10.6C135,7.6,132.5,5.1,129.5,5.1z"/>
</g>
</svg>
