<?xml version="1.0" encoding="utf-8"?>
<!-- Generator: Adobe Illustrator 24.0.2, SVG Export Plug-In . SVG Version: 6.00 Build 0)  -->
<svg version="1.1" id="Capa_1" xmlns="http://www.w3.org/2000/svg" xmlns:xlink="http://www.w3.org/1999/xlink" x="0px" y="0px"
	 viewBox="0 0 19 15.1" style="enable-background:new 0 0 19 15.1;" xml:space="preserve">
<style type="text/css">
	.st0{fill-rule:evenodd;clip-rule:evenodd;fill:#FF0000;}
	.st1{fill:none;stroke:#FF0000;stroke-width:0.1932;stroke-linecap:round;stroke-linejoin:round;stroke-miterlimit:22.9256;}
</style>
<g>
	<rect x="0.1" y="0.3" class="st0" width="1.3" height="14.5"/>
	<path class="st1" d="M18.9,13.5c-0.2,0.7-0.6,1.3-1.3,1.3H0.1V0.3h17.4c0.7,0,1.3,0.6,1.3,1.3"/>
	<path class="st0" d="M2.4,0.9c0.3,0,0.5,0.2,0.5,0.5c0,0.3-0.2,0.5-0.5,0.5c-0.3,0-0.5-0.2-0.5-0.5C1.9,1.1,2.1,0.9,2.4,0.9"/>
	<path class="st0" d="M3.6,0.9c0.3,0,0.5,0.2,0.5,0.5c0,0.3-0.2,0.5-0.5,0.5S3,1.7,3,1.4C3,1.1,3.3,0.9,3.6,0.9"/>
	<path class="st0" d="M4.7,0.9c0.3,0,0.5,0.2,0.5,0.5c0,0.3-0.2,0.5-0.5,0.5S4.2,1.7,4.2,1.4C4.2,1.1,4.4,0.9,4.7,0.9"/>
	<path class="st0" d="M5.9,0.9c0.3,0,0.5,0.2,0.5,0.5c0,0.3-0.2,0.5-0.5,0.5c-0.3,0-0.5-0.2-0.5-0.5C5.4,1.1,5.6,0.9,5.9,0.9"/>
	<path class="st0" d="M7.1,0.9c0.3,0,0.5,0.2,0.5,0.5c0,0.3-0.2,0.5-0.5,0.5c-0.3,0-0.5-0.2-0.5-0.5C6.5,1.1,6.8,0.9,7.1,0.9"/>
	<path class="st0" d="M8.2,0.9c0.3,0,0.5,0.2,0.5,0.5c0,0.3-0.2,0.5-0.5,0.5c-0.3,0-0.5-0.2-0.5-0.5C7.7,1.1,7.9,0.9,8.2,0.9"/>
	<path class="st0" d="M9.4,0.9c0.3,0,0.5,0.2,0.5,0.5c0,0.3-0.2,0.5-0.5,0.5c-0.3,0-0.5-0.2-0.5-0.5C8.9,1.1,9.1,0.9,9.4,0.9"/>
	<path class="st0" d="M10.6,0.9c0.3,0,0.5,0.2,0.5,0.5c0,0.3-0.2,0.5-0.5,0.5S10,1.7,10,1.4C10,1.1,10.3,0.9,10.6,0.9"/>
	<path class="st0" d="M11.8,0.9c0.3,0,0.5,0.2,0.5,0.5c0,0.3-0.2,0.5-0.5,0.5s-0.5-0.2-0.5-0.5C11.2,1.1,11.5,0.9,11.8,0.9"/>
	<path class="st0" d="M12.9,0.9c0.3,0,0.5,0.2,0.5,0.5c0,0.3-0.2,0.5-0.5,0.5s-0.5-0.2-0.5-0.5C12.4,1.1,12.6,0.9,12.9,0.9"/>
	<path class="st0" d="M14.1,0.9c0.3,0,0.5,0.2,0.5,0.5c0,0.3-0.2,0.5-0.5,0.5s-0.5-0.2-0.5-0.5C13.6,1.1,13.8,0.9,14.1,0.9"/>
	<path class="st0" d="M15.3,0.9c0.3,0,0.5,0.2,0.5,0.5c0,0.3-0.2,0.5-0.5,0.5c-0.3,0-0.5-0.2-0.5-0.5C14.7,1.1,15,0.9,15.3,0.9"/>
	<path class="st0" d="M16.4,0.9c0.3,0,0.5,0.2,0.5,0.5c0,0.3-0.2,0.5-0.5,0.5c-0.3,0-0.5-0.2-0.5-0.5C15.9,1.1,16.1,0.9,16.4,0.9"/>
	<path class="st0" d="M17.6,0.9c0.3,0,0.5,0.2,0.5,0.5c0,0.3-0.2,0.5-0.5,0.5c-0.3,0-0.5-0.2-0.5-0.5C17.1,1.1,17.3,0.9,17.6,0.9"/>
	<path class="st0" d="M3,2.5c0.2,0,0.4,0.2,0.4,0.4S3.2,3.3,3,3.3c-0.2,0-0.4-0.2-0.4-0.4S2.8,2.5,3,2.5"/>
	<path class="st0" d="M4.1,2.5c0.2,0,0.4,0.2,0.4,0.4S4.4,3.3,4.1,3.3c-0.2,0-0.4-0.2-0.4-0.4S3.9,2.5,4.1,2.5"/>
	<path class="st0" d="M5.3,2.5c0.2,0,0.4,0.2,0.4,0.4S5.5,3.3,5.3,3.3c-0.2,0-0.4-0.2-0.4-0.4S5.1,2.5,5.3,2.5"/>
	<path class="st0" d="M6.5,2.5c0.2,0,0.4,0.2,0.4,0.4S6.7,3.3,6.5,3.3c-0.2,0-0.4-0.2-0.4-0.4S6.3,2.5,6.5,2.5"/>
	<path class="st0" d="M7.7,2.5c0.2,0,0.4,0.2,0.4,0.4S7.9,3.3,7.7,3.3c-0.2,0-0.4-0.2-0.4-0.4S7.4,2.5,7.7,2.5"/>
	<path class="st0" d="M8.8,2.5c0.2,0,0.4,0.2,0.4,0.4S9.1,3.3,8.8,3.3c-0.2,0-0.4-0.2-0.4-0.4S8.6,2.5,8.8,2.5"/>
	<path class="st0" d="M10,2.5c0.2,0,0.4,0.2,0.4,0.4S10.2,3.3,10,3.3S9.6,3.1,9.6,2.9S9.8,2.5,10,2.5"/>
	<path class="st0" d="M11.2,2.5c0.2,0,0.4,0.2,0.4,0.4s-0.2,0.4-0.4,0.4c-0.2,0-0.4-0.2-0.4-0.4S10.9,2.5,11.2,2.5"/>
	<path class="st0" d="M12.3,2.5c0.2,0,0.4,0.2,0.4,0.4s-0.2,0.4-0.4,0.4c-0.2,0-0.4-0.2-0.4-0.4S12.1,2.5,12.3,2.5"/>
	<path class="st0" d="M13.5,2.5c0.2,0,0.4,0.2,0.4,0.4s-0.2,0.4-0.4,0.4c-0.2,0-0.4-0.2-0.4-0.4S13.3,2.5,13.5,2.5"/>
	<path class="st0" d="M14.7,2.5c0.2,0,0.4,0.2,0.4,0.4s-0.2,0.4-0.4,0.4s-0.4-0.2-0.4-0.4S14.5,2.5,14.7,2.5"/>
	<path class="st0" d="M15.9,2.5c0.2,0,0.4,0.2,0.4,0.4s-0.2,0.4-0.4,0.4c-0.2,0-0.4-0.2-0.4-0.4S15.6,2.5,15.9,2.5"/>
	<path class="st0" d="M17,2.5c0.2,0,0.4,0.2,0.4,0.4S17.2,3.3,17,3.3c-0.2,0-0.4-0.2-0.4-0.4S16.8,2.5,17,2.5"/>
	<path class="st0" d="M3.6,3.7c0.1,0,0.3,0.1,0.3,0.3c0,0.1-0.1,0.3-0.3,0.3C3.4,4.2,3.3,4.1,3.3,4C3.3,3.8,3.4,3.7,3.6,3.7"/>
	<path class="st0" d="M4.7,3.7C4.9,3.7,5,3.8,5,4c0,0.1-0.1,0.3-0.3,0.3C4.6,4.2,4.5,4.1,4.5,4C4.5,3.8,4.6,3.7,4.7,3.7"/>
	<path class="st0" d="M5.9,3.7c0.1,0,0.3,0.1,0.3,0.3c0,0.1-0.1,0.3-0.3,0.3C5.8,4.2,5.6,4.1,5.6,4C5.6,3.8,5.8,3.7,5.9,3.7"/>
	<path class="st0" d="M7.1,3.7c0.1,0,0.3,0.1,0.3,0.3c0,0.1-0.1,0.3-0.3,0.3C6.9,4.2,6.8,4.1,6.8,4C6.8,3.8,6.9,3.7,7.1,3.7"/>
	<path class="st0" d="M8.2,3.7c0.1,0,0.3,0.1,0.3,0.3c0,0.1-0.1,0.3-0.3,0.3C8.1,4.2,8,4.1,8,4C8,3.8,8.1,3.7,8.2,3.7"/>
	<path class="st0" d="M9.4,3.7c0.1,0,0.3,0.1,0.3,0.3c0,0.1-0.1,0.3-0.3,0.3C9.3,4.2,9.1,4.1,9.1,4C9.1,3.8,9.3,3.7,9.4,3.7"/>
	<path class="st0" d="M10.6,3.7c0.1,0,0.3,0.1,0.3,0.3c0,0.1-0.1,0.3-0.3,0.3c-0.1,0-0.3-0.1-0.3-0.3C10.3,3.8,10.4,3.7,10.6,3.7"/>
	<path class="st0" d="M11.8,3.7C11.9,3.7,12,3.8,12,4c0,0.1-0.1,0.3-0.3,0.3c-0.1,0-0.3-0.1-0.3-0.3C11.5,3.8,11.6,3.7,11.8,3.7"/>
	<path class="st0" d="M12.9,3.7c0.1,0,0.3,0.1,0.3,0.3c0,0.1-0.1,0.3-0.3,0.3c-0.1,0-0.3-0.1-0.3-0.3C12.7,3.8,12.8,3.7,12.9,3.7"/>
	<path class="st0" d="M14.1,3.7c0.1,0,0.3,0.1,0.3,0.3c0,0.1-0.1,0.3-0.3,0.3c-0.1,0-0.3-0.1-0.3-0.3C13.8,3.8,13.9,3.7,14.1,3.7"/>
	<path class="st0" d="M15.3,3.7c0.1,0,0.3,0.1,0.3,0.3c0,0.1-0.1,0.3-0.3,0.3C15.1,4.2,15,4.1,15,4C15,3.8,15.1,3.7,15.3,3.7"/>
	<path class="st0" d="M16.4,3.7c0.1,0,0.3,0.1,0.3,0.3c0,0.1-0.1,0.3-0.3,0.3c-0.1,0-0.3-0.1-0.3-0.3C16.2,3.8,16.3,3.7,16.4,3.7"/>
	<path class="st0" d="M2.4,14.3c0.3,0,0.5-0.2,0.5-0.5s-0.2-0.5-0.5-0.5c-0.3,0-0.5,0.2-0.5,0.5S2.1,14.3,2.4,14.3"/>
	<path class="st0" d="M3.6,14.3c0.3,0,0.5-0.2,0.5-0.5s-0.2-0.5-0.5-0.5S3,13.4,3,13.7S3.3,14.3,3.6,14.3"/>
	<path class="st0" d="M4.7,14.3c0.3,0,0.5-0.2,0.5-0.5S5,13.2,4.7,13.2s-0.5,0.2-0.5,0.5S4.4,14.3,4.7,14.3"/>
	<path class="st0" d="M5.9,14.3c0.3,0,0.5-0.2,0.5-0.5s-0.2-0.5-0.5-0.5c-0.3,0-0.5,0.2-0.5,0.5S5.6,14.3,5.9,14.3"/>
	<path class="st0" d="M7.1,14.3c0.3,0,0.5-0.2,0.5-0.5s-0.2-0.5-0.5-0.5c-0.3,0-0.5,0.2-0.5,0.5S6.8,14.3,7.1,14.3"/>
	<path class="st0" d="M8.2,14.3c0.3,0,0.5-0.2,0.5-0.5s-0.2-0.5-0.5-0.5c-0.3,0-0.5,0.2-0.5,0.5S7.9,14.3,8.2,14.3"/>
	<path class="st0" d="M9.4,14.3c0.3,0,0.5-0.2,0.5-0.5s-0.2-0.5-0.5-0.5c-0.3,0-0.5,0.2-0.5,0.5S9.1,14.3,9.4,14.3"/>
	<path class="st0" d="M10.6,14.3c0.3,0,0.5-0.2,0.5-0.5s-0.2-0.5-0.5-0.5S10,13.4,10,13.7S10.3,14.3,10.6,14.3"/>
	<path class="st0" d="M11.8,14.3c0.3,0,0.5-0.2,0.5-0.5s-0.2-0.5-0.5-0.5s-0.5,0.2-0.5,0.5S11.5,14.3,11.8,14.3"/>
	<path class="st0" d="M12.9,14.3c0.3,0,0.5-0.2,0.5-0.5s-0.2-0.5-0.5-0.5s-0.5,0.2-0.5,0.5S12.6,14.3,12.9,14.3"/>
	<path class="st0" d="M14.1,14.3c0.3,0,0.5-0.2,0.5-0.5s-0.2-0.5-0.5-0.5s-0.5,0.2-0.5,0.5S13.8,14.3,14.1,14.3"/>
	<path class="st0" d="M15.3,14.3c0.3,0,0.5-0.2,0.5-0.5s-0.2-0.5-0.5-0.5c-0.3,0-0.5,0.2-0.5,0.5S15,14.3,15.3,14.3"/>
	<path class="st0" d="M16.4,14.3c0.3,0,0.5-0.2,0.5-0.5s-0.2-0.5-0.5-0.5c-0.3,0-0.5,0.2-0.5,0.5S16.1,14.3,16.4,14.3"/>
	<path class="st0" d="M17.6,14.3c0.3,0,0.5-0.2,0.5-0.5s-0.2-0.5-0.5-0.5c-0.3,0-0.5,0.2-0.5,0.5S17.3,14.3,17.6,14.3"/>
	<path class="st0" d="M3,12.6c0.2,0,0.4-0.2,0.4-0.4c0-0.2-0.2-0.4-0.4-0.4c-0.2,0-0.4,0.2-0.4,0.4C2.6,12.5,2.8,12.6,3,12.6"/>
	<path class="st0" d="M4.1,12.6c0.2,0,0.4-0.2,0.4-0.4c0-0.2-0.2-0.4-0.4-0.4c-0.2,0-0.4,0.2-0.4,0.4C3.7,12.5,3.9,12.6,4.1,12.6"/>
	<path class="st0" d="M5.3,12.6c0.2,0,0.4-0.2,0.4-0.4c0-0.2-0.2-0.4-0.4-0.4c-0.2,0-0.4,0.2-0.4,0.4C4.9,12.5,5.1,12.6,5.3,12.6"/>
	<path class="st0" d="M6.5,12.6c0.2,0,0.4-0.2,0.4-0.4c0-0.2-0.2-0.4-0.4-0.4c-0.2,0-0.4,0.2-0.4,0.4C6.1,12.5,6.3,12.6,6.5,12.6"/>
	<path class="st0" d="M7.7,12.6c0.2,0,0.4-0.2,0.4-0.4c0-0.2-0.2-0.4-0.4-0.4c-0.2,0-0.4,0.2-0.4,0.4C7.3,12.5,7.4,12.6,7.7,12.6"/>
	<path class="st0" d="M8.8,12.6c0.2,0,0.4-0.2,0.4-0.4c0-0.2-0.2-0.4-0.4-0.4c-0.2,0-0.4,0.2-0.4,0.4C8.4,12.5,8.6,12.6,8.8,12.6"/>
	<path class="st0" d="M10,12.6c0.2,0,0.4-0.2,0.4-0.4c0-0.2-0.2-0.4-0.4-0.4S9.6,12,9.6,12.2C9.6,12.5,9.8,12.6,10,12.6"/>
	<path class="st0" d="M11.2,12.6c0.2,0,0.4-0.2,0.4-0.4c0-0.2-0.2-0.4-0.4-0.4c-0.2,0-0.4,0.2-0.4,0.4
		C10.8,12.5,10.9,12.6,11.2,12.6"/>
	<path class="st0" d="M12.3,12.6c0.2,0,0.4-0.2,0.4-0.4c0-0.2-0.2-0.4-0.4-0.4c-0.2,0-0.4,0.2-0.4,0.4
		C11.9,12.5,12.1,12.6,12.3,12.6"/>
	<path class="st0" d="M13.5,12.6c0.2,0,0.4-0.2,0.4-0.4c0-0.2-0.2-0.4-0.4-0.4c-0.2,0-0.4,0.2-0.4,0.4
		C13.1,12.5,13.3,12.6,13.5,12.6"/>
	<path class="st0" d="M14.7,12.6c0.2,0,0.4-0.2,0.4-0.4c0-0.2-0.2-0.4-0.4-0.4s-0.4,0.2-0.4,0.4C14.3,12.5,14.5,12.6,14.7,12.6"/>
	<path class="st0" d="M15.9,12.6c0.2,0,0.4-0.2,0.4-0.4c0-0.2-0.2-0.4-0.4-0.4c-0.2,0-0.4,0.2-0.4,0.4
		C15.5,12.5,15.6,12.6,15.9,12.6"/>
	<path class="st0" d="M17,12.6c0.2,0,0.4-0.2,0.4-0.4c0-0.2-0.2-0.4-0.4-0.4c-0.2,0-0.4,0.2-0.4,0.4C16.6,12.5,16.8,12.6,17,12.6"/>
	<path class="st0" d="M3.6,11.4c0.1,0,0.3-0.1,0.3-0.3s-0.1-0.3-0.3-0.3c-0.1,0-0.3,0.1-0.3,0.3S3.4,11.4,3.6,11.4"/>
	<path class="st0" d="M4.7,11.4c0.1,0,0.3-0.1,0.3-0.3s-0.1-0.3-0.3-0.3c-0.1,0-0.3,0.1-0.3,0.3S4.6,11.4,4.7,11.4"/>
	<path class="st0" d="M5.9,11.4c0.1,0,0.3-0.1,0.3-0.3s-0.1-0.3-0.3-0.3c-0.1,0-0.3,0.1-0.3,0.3S5.8,11.4,5.9,11.4"/>
	<path class="st0" d="M7.1,11.4c0.1,0,0.3-0.1,0.3-0.3s-0.1-0.3-0.3-0.3c-0.1,0-0.3,0.1-0.3,0.3S6.9,11.4,7.1,11.4"/>
	<path class="st0" d="M8.2,11.4c0.1,0,0.3-0.1,0.3-0.3s-0.1-0.3-0.3-0.3C8.1,10.9,8,11,8,11.2S8.1,11.4,8.2,11.4"/>
	<path class="st0" d="M9.4,11.4c0.1,0,0.3-0.1,0.3-0.3s-0.1-0.3-0.3-0.3c-0.1,0-0.3,0.1-0.3,0.3S9.3,11.4,9.4,11.4"/>
	<path class="st0" d="M10.6,11.4c0.1,0,0.3-0.1,0.3-0.3s-0.1-0.3-0.3-0.3c-0.1,0-0.3,0.1-0.3,0.3S10.4,11.4,10.6,11.4"/>
	<path class="st0" d="M11.8,11.4c0.1,0,0.3-0.1,0.3-0.3s-0.1-0.3-0.3-0.3c-0.1,0-0.3,0.1-0.3,0.3S11.6,11.4,11.8,11.4"/>
	<path class="st0" d="M12.9,11.4c0.1,0,0.3-0.1,0.3-0.3s-0.1-0.3-0.3-0.3c-0.1,0-0.3,0.1-0.3,0.3S12.8,11.4,12.9,11.4"/>
	<path class="st0" d="M14.1,11.4c0.1,0,0.3-0.1,0.3-0.3s-0.1-0.3-0.3-0.3c-0.1,0-0.3,0.1-0.3,0.3S13.9,11.4,14.1,11.4"/>
	<path class="st0" d="M15.3,11.4c0.1,0,0.3-0.1,0.3-0.3s-0.1-0.3-0.3-0.3c-0.1,0-0.3,0.1-0.3,0.3S15.1,11.4,15.3,11.4"/>
	<path class="st0" d="M16.4,11.4c0.1,0,0.3-0.1,0.3-0.3s-0.1-0.3-0.3-0.3c-0.1,0-0.3,0.1-0.3,0.3S16.3,11.4,16.4,11.4"/>
</g>
</svg>
