<?xml version="1.0" encoding="utf-8"?>
<!-- Generator: Adobe Illustrator 24.0.2, SVG Export Plug-In . SVG Version: 6.00 Build 0)  -->
<svg version="1.1" id="Capa_1" xmlns="http://www.w3.org/2000/svg" xmlns:xlink="http://www.w3.org/1999/xlink" x="0px" y="0px"
	 viewBox="0 0 150 150" style="enable-background:new 0 0 150 150;" xml:space="preserve">
<style type="text/css">
	.st0{fill-rule:evenodd;clip-rule:evenodd;fill:transparent;}
	.st1{fill:#808080;}
	.st2{fill-rule:evenodd;clip-rule:evenodd;fill:#808080;}
</style>
<rect class="st0" width="150" height="150"/>
<g>
	<path class="st1" d="M114.6,137.8c-0.9,0-1.6-0.2-2.1-0.5c-0.6-0.4-1-0.8-1.3-1.5c-0.3-0.6-0.5-1.4-0.6-2.2
		c-0.1-0.9-0.2-1.8-0.2-2.8c0-1.1,0.1-2.1,0.2-2.9c0.1-0.9,0.4-1.6,0.8-2.2c0.4-0.6,0.9-1.1,1.6-1.4c0.7-0.3,1.6-0.5,2.7-0.5
		c0.7,0,1.3,0,1.8,0.1c0.5,0.1,1,0.1,1.5,0.2c0.5,0.1,1,0.2,1.4,0.3v2.5c-0.3,0-0.6-0.1-1-0.1c-0.4,0-0.9-0.1-1.4-0.1
		c-0.5,0-1.1,0-1.7,0c-0.7,0-1.3,0.1-1.7,0.4c-0.4,0.3-0.6,0.7-0.8,1.3c-0.1,0.6-0.2,1.5-0.2,2.5c0,0.8,0,1.5,0.1,2
		c0.1,0.5,0.2,0.9,0.3,1.2c0.2,0.3,0.4,0.5,0.6,0.6c0.3,0.1,0.6,0.2,1,0.2c0.5,0,0.9,0,1.3-0.1c0.4-0.1,0.7-0.1,1-0.2v-2.2h-2.2
		v-2.6c0.3,0,0.6-0.1,1-0.1c0.4,0,0.8,0,1.2-0.1c0.4,0,0.8,0,1.1,0c0.4,0,0.8,0,1.2,0c0.3,0,0.6,0,0.9,0v8.1h-2.4l-0.4-0.9
		c-0.3,0.2-0.8,0.4-1.5,0.7C116.1,137.7,115.4,137.8,114.6,137.8 M97.4,137.7v-13.9h2.6l5.3,8.4v-8.4h3.2v13.9h-2.6l-5.3-8.4v8.4
		H97.4z M91.9,137.7v-13.9h3.2v13.9H91.9z M82.3,134.8h2.5c0.5,0,0.9-0.1,1.2-0.4c0.3-0.3,0.5-0.7,0.6-1.3c0.1-0.6,0.2-1.4,0.2-2.3
		c0-0.9,0-1.6-0.1-2.1c-0.1-0.5-0.2-0.9-0.4-1.2c-0.2-0.3-0.4-0.5-0.6-0.6c-0.2-0.1-0.5-0.2-0.9-0.2h-2.5V134.8z M79,137.7v-13.9h6
		c1,0,1.8,0.2,2.4,0.5c0.6,0.3,1.1,0.8,1.5,1.5c0.4,0.6,0.6,1.4,0.8,2.2c0.1,0.9,0.2,1.8,0.2,2.8c0,1.6-0.2,2.9-0.5,3.9
		c-0.4,1-0.9,1.8-1.6,2.3c-0.7,0.5-1.7,0.7-2.8,0.7H79z M65.7,137.7v-13.9h2.6l5.3,8.4v-8.4h3.2v13.9h-2.6l-5.3-8.4v8.4H65.7z
		 M56.6,132.3h2.9l-1.5-5.7L56.6,132.3z M51.8,137.7l4.2-13.9h4.1l4.2,13.9H61l-0.7-2.5h-4.4l-0.7,2.5H51.8z M44.1,130.2h2
		c0.2,0,0.4,0,0.6-0.1c0.2-0.1,0.3-0.2,0.5-0.3c0.1-0.1,0.2-0.3,0.3-0.6c0.1-0.2,0.1-0.5,0.1-0.8c0-0.3,0-0.6-0.1-0.8
		c-0.1-0.2-0.2-0.4-0.3-0.5c-0.1-0.1-0.3-0.2-0.5-0.3c-0.2-0.1-0.4-0.1-0.6-0.1h-2V130.2z M40.9,137.7v-13.9h5.9
		c0.6,0,1.1,0.1,1.6,0.2c0.5,0.1,0.9,0.4,1.3,0.7c0.4,0.3,0.7,0.8,0.9,1.4c0.2,0.6,0.3,1.3,0.3,2.2c0,0.6-0.1,1.1-0.2,1.6
		c-0.1,0.4-0.3,0.8-0.5,1.1c-0.2,0.3-0.4,0.5-0.6,0.7c-0.2,0.2-0.5,0.4-0.8,0.5l2.5,5.5H48l-2.1-5c-0.1,0-0.3,0-0.4,0
		c-0.2,0-0.3,0-0.5,0c-0.2,0-0.3,0-0.5,0c-0.2,0-0.3,0-0.4,0v5H40.9z M32.2,129.4h2.4c0.3,0,0.6-0.1,0.8-0.4c0.2-0.3,0.3-0.6,0.3-1
		c0-0.5-0.1-0.9-0.3-1.1c-0.2-0.2-0.5-0.3-0.7-0.3h-2.4V129.4z M32.2,134.8h2.6c0.3,0,0.5-0.1,0.7-0.2c0.2-0.1,0.3-0.3,0.4-0.5
		c0.1-0.2,0.2-0.5,0.2-0.8c0-0.3-0.1-0.6-0.2-0.8c-0.1-0.2-0.3-0.4-0.4-0.5c-0.2-0.1-0.4-0.2-0.7-0.2h-2.6V134.8z M28.9,137.7v-13.9
		h5.6c1.5,0,2.5,0.3,3.1,1c0.6,0.6,1,1.6,1,2.7c0,0.5-0.1,1-0.2,1.4c-0.1,0.4-0.4,0.8-0.6,1c-0.3,0.3-0.6,0.5-1,0.6
		c0.3,0.1,0.6,0.2,0.9,0.4c0.3,0.2,0.5,0.4,0.8,0.7c0.2,0.3,0.4,0.6,0.5,1c0.1,0.4,0.2,0.8,0.2,1.3c0,0.9-0.2,1.7-0.5,2.2
		c-0.3,0.6-0.8,1-1.4,1.2c-0.6,0.3-1.4,0.4-2.4,0.4H28.9z"/>
	<path class="st2" d="M93.7,27.3c1.8,0,3.6,0,5.4,0c0.4,0,0.9,0,1.3,0c1.1,0,2.4,0.4,3.4,0.7c0,0,0.1,0,0.1,0l1.6,0.7
		c0,0,0.1,0,0.1,0c0,0,0.1,0,0.1,0l0.3,0.1c0,0,0.1,0,0.1,0.1c0,0,0.1,0,0.1,0.1l2.6,2c0.1,0.1,0.2,0.2,0.2,0.2l0.4,0.6
		c0,0,0,0.1,0,0.1c0.3,0.5,0.5,0.3,0.7,0.9H93.7V27.3z M104,43.1c0,0.6-0.1,0.4-0.4,0.8c-0.3,0.4-0.4,0.7-0.4,1.3
		c0,1.6-0.2,10.5,0.2,11.2c0.3,0.5,0.6,0.5,0.6,1.2c0.9,0,0.2-0.1,0.8,0.4l0.2,0.1c0.1,0,0.2,0.1,0.3,0.1c0,0,0.1,0.1,0.2,0.1
		c0.2,0.1,0.1,0,0.3,0.1l3.2,1.2c0,0,0.2,0.1,0.2,0.1l1.2,0.4c0,0,0.1,0,0.1,0l0.3,0.1c0,0,0.1,0,0.1,0l0.4,0.1c0,0,0.1,0,0.1,0
		l0.7,0.3c0,0,0.1,0,0.1,0l3.6,1.2c0,0,0.1,0,0.1,0l3.7,1.3c0.1,0,0.1,0,0.2,0.1c0.2,0.1,0.3,0.1,0.5,0.2c0,0,0.1,0,0.1,0l3.3,1.2
		c0,0,0.2,0.1,0.2,0.1l0.3,0.1c0,0,0.1,0,0.1,0c0,0,0.1,0,0.1,0c0.1,0,0.2,0,0.3,0.1c0,0,0.1,0,0.1,0c0,0,0.1,0,0.1,0L127,66
		c0,0,0.1,0,0.1,0l4.4,1.5c0,0,0.1,0,0.1,0l2.3,0.8c0,0,0.2,0.1,0.3,0.1c0,0,0.1,0,0.1,0l0.4,0.2v15h-4.7c-0.1-0.3-0.3-0.5-0.6-0.7
		l-2.2-1.7c0,0-0.1,0-0.1-0.1l-5.5-2.1c0,0-0.1,0-0.1,0c-0.5-0.2-3.2-0.2-3.8-0.1c-0.7,0.2,0.2,0.1-0.7,0.2c-0.2,0-0.3,0-0.5,0
		l-2.5,0.8c-0.4,0.2-1.3,0.6-1.9,1c-0.1,0.1-0.2,0.2-0.2,0.2l-1.7,1.2c-0.4,0.4-1,0.8-1.2,1.3h-15V37.1H113c0.6,0,1.7-0.1,2.2,0.2
		l1.4,1l1.6,2.4c0.3,0.5,1,1.3,1.2,1.8c-1.1,0-13.2-0.2-13.9,0.1C104.8,42.6,104.7,43.1,104,43.1z M107.2,46.3h15
		c0,0.8,0,0.3,0.2,0.6c0.1,0.1,0.2,0.2,0.2,0.2l2.4,3.6c0,0,0,0.1,0.1,0.1l0.5,0.7c0,0,0,0.1,0.1,0.1c0,0,0.2,0.3,0.2,0.3l1.2,1.9
		c0,0,0,0.1,0,0.1l2,2.9c0.1,0.1,0,0.1,0.1,0.3c0.1,0.1,0.1,0.1,0.2,0.3c0,0,0,0.1,0.1,0.1l1.3,1.8c0,0,0,0,0.1,0.1l0.2,0.3
		c0,0,0,0.1,0,0.1c0,0,0,0.1,0.1,0.1l2.2,3.3c0,0,0.1,0.1,0.1,0.1l0.2,0.4c0.2,0.4,0-0.2,0.2,0.4l-4.9-1.7c0,0-0.1,0-0.1,0l-3.7-1.3
		c0,0-0.1,0-0.1,0l-2.6-1c0,0-0.1,0-0.1,0c0,0-0.1,0-0.1,0l-1.4-0.5c0,0-0.1,0-0.1,0l-2.7-1c0,0-0.1,0-0.1,0c0,0-0.1,0-0.1,0
		l-0.8-0.3c0,0-0.2-0.1-0.2-0.1l-4.2-1.5c0,0-0.1,0-0.1,0l-0.7-0.2c0,0-0.1,0-0.1,0l-2.3-0.9c-0.2-0.1-0.3-0.1-0.5-0.2
		c0,0-0.1,0-0.1,0l-0.2-0.1c-0.5-0.2-0.9-0.4-1.5-0.4V46.3z M22.5,93H11.5v-5l12,0.2c0,0,0,0.1,0,0.1l-0.2,0.6c0,0,0,0.1,0,0.1
		l-0.1,0.2c0,0,0,0.1,0,0.1L22.5,93z M132.7,88h5.8v5h-4.7c0-0.9-0.2-0.6-0.3-1.2c-0.1-0.9,0.2-0.1-0.2-1.6l-0.2-1
		C132.9,88.5,132.8,88.5,132.7,88z M47.1,94.7c-0.1,0.3,0,1.1-0.1,1.5l-1,2.3c-0.3,0.5-0.7,1.2-1.1,1.7c-0.5,0.5-1.1,1.2-1.7,1.6
		c0,0-0.1,0-0.1,0c0,0-0.1,0-0.1,0l-2.5,1.4c-0.2,0.1,0.2,0-0.3,0.1l-1,0.3c-0.5,0.1-0.7,0-1.2,0.1c-0.3,0.1,0.2,0.1-0.5,0.2
		l-1.4-0.1c-0.4-0.2-1.2-0.1-1.8-0.3l-0.8-0.3c-0.1,0-0.2,0-0.3-0.1c0,0-0.1,0-0.1,0l-1.6-0.9c-0.5-0.4-1.2-0.7-1.6-1.1l-2.7-4.4
		c-0.1-0.2,0-0.2-0.1-0.3c0,0,0-0.1,0-0.1l-0.2-0.6c-0.2-0.7-0.1-3.6,0-4.2c0,0,0-0.1,0-0.1l1-2.5c0.2-0.5,0.4-1,0.7-1.4l1.4-1.5
		c0.5-0.3,0.9-0.8,1.4-1.1c0.3-0.2,0.6-0.5,1.1-0.6l0.9-0.4c0,0,0.1,0,0.1,0l1.4-0.4c0.7-0.1,1.3,0,1.7-0.1c0,0,0.1,0,0.1,0
		c0,0,0.1,0,0.1,0l2.3,0.2c0.3,0.1,0.2,0.1,0.3,0.1l1.5,0.5c0,0,0.1,0.1,0.2,0.1l0.9,0.4c0,0,0.1,0,0.1,0c0,0,0.1,0,0.1,0
		c0,0,0.1,0,0.1,0l1,0.8c1,0.6,1.6,1.5,2,2.1l1.5,2.9c0.1,0.3,0,0.2,0.1,0.5l0.4,1.6c0.1,0.4,0.1,0.9,0.1,1.3
		C47.3,94.7,47.1,94.5,47.1,94.7z M142.5,86.9v7.5c0,0.1,0,0.1,0,0.2c-0.1,0.6-0.3,1.1-0.7,1.4l-1.6,1.1c-1.1,0.5-5.4,0.2-7,0.2v0.3
		c-0.5,0.2-0.1-0.1-0.3,0.5l-0.8,1.9c0,0-0.1,0.1-0.1,0.2l-0.3,0.5c0,0,0,0.1-0.1,0.1l-1.2,1.8c0,0-0.2,0.2-0.2,0.2l-2.8,2.6
		c0,0-0.1,0-0.1,0.1l-3,1.6c-1.1,0.4-2,0.6-3,0.8c-0.8,0.2-2.9,0.1-3.8,0.1l-4.8-1.5l-5.2-4.4c0,0,0-0.1,0-0.1c0,0,0-0.1-0.1-0.1
		l-1-1.4c0,0,0-0.1,0-0.1l-0.2-0.4c0,0,0-0.1,0-0.1c0,0,0-0.1,0-0.1l-0.7-1.7c-0.2-0.5,0.2-0.2-0.3-0.4v-0.3c-2.9,0-5.8,0-8.7,0
		c-0.2,0-0.5,0-0.7,0l-0.3-0.1c-0.5-0.2-1.1-0.6-1.3-1.1c0,0,0-0.1,0-0.1l-0.1-0.2c0,0,0-0.2-0.1-0.2l-0.1-0.2c0-0.1,0,0,0-0.2
		c0-0.1,0-0.1,0-0.2c0.1-0.4,0.1-0.8,0.4-1.2l0.6-0.5c0.4-0.2,0.6,0,0.7-0.4h9c0-0.8,0.1-0.3,0.2-0.6c0.1-0.4,0-1,0.1-1.5
		c0-0.2,0-0.2,0.1-0.3l0.3-1.2c0,0,0.1-0.1,0.1-0.2c0.1-0.4,0.4-0.8,0.4-1.2H50.5l0.4,1.5c0.1,0.4,0-0.1,0.1,0.3
		c0.1,0.3,0,0.3,0.1,0.6c0.1,0.9,0.2,0.5,0.3,1.2c0,0.5,0,1,0,1.5h33.1c1.9,0,1.9-0.2,3.4,0.3c0,0,0.1,0,0.1,0l0.6,0.2
		c0,0.6,0.4,0.7,0.5,0.8v1.6c-0.4,0.2-0.2,0.5-1,1c-0.4,0.3-0.1-0.2-0.4,0.3H50.7c0,0.4,0,0.4-0.1,0.7l-0.2,0.7c0,0,0,0.1,0,0.1
		c0,0,0,0.1,0,0.1c0,0,0,0.1,0,0.1L50,99.6c0,0-0.1,0.1-0.1,0.2c0,0,0,0.1,0,0.1l-2.3,3.4c-0.3,0.3-0.5,0.5-0.8,0.8
		c-0.2,0.2-0.2,0.2-0.4,0.4l-1.2,0.9c0,0-0.1,0-0.1,0l-0.5,0.3c-0.2,0.1-0.1,0.1-0.2,0.2c0,0-0.1,0-0.1,0.1l-1.1,0.5
		c0,0-0.1,0-0.1,0c0,0-0.1,0-0.1,0c0,0-0.1,0-0.1,0c0,0-0.1,0-0.1,0l-1.6,0.6c-0.1,0-0.2,0.1-0.3,0.1l-0.2,0.1c0,0-0.1,0-0.1,0
		l-5.3,0.4c-0.3,0-0.5,0-0.7-0.1l-0.9-0.2c0,0-0.1,0-0.1,0l-3.2-1.2c0,0-0.1,0-0.1,0l-2.1-1.4c-0.1-0.1-0.1-0.2-0.3-0.3
		c-0.4-0.4-0.9-0.6-1.3-1l-1.6-2.2c-0.1-0.1-0.2-0.2-0.2-0.2c0,0,0-0.1-0.1-0.1l-0.5-1c0,0,0-0.1,0-0.1l-0.9-2.1c0,0,0-0.1,0-0.1
		c0,0,0-0.1,0-0.1l-0.1-0.4H9.9c-0.1-0.3-0.2-0.3-0.5-0.4l-1.5-1.2c-0.2-0.3-0.3-0.9-0.4-1.6v-7.1c0-0.5,0.1-0.7,0.4-1.2l0.8-1.1
		c0.4-0.4,0.8-0.5,1.3-0.7c0,0,0.1,0,0.1,0c0.5-0.2,0.9-0.2,1.4-0.2V19.3c0-1.7-0.2-3.7,0.3-5.1c0,0,0-0.1,0-0.1
		c0.2-0.5,0.8-1,1.3-1.4c0,0,0.1,0,0.1-0.1c0.3-0.2,0.3-0.1,0.4-0.4h14c0.1,0.4,0,0.1,0.3,0.5c0.2,0.2,0.2,0.2,0.4,0.4
		c0.1,0.1,0.1,0.1,0.1,0.3l-0.1,1.9c0,0,0,0.1-0.1,0.1c-0.3,0.3-0.5,0.4-0.7,0.8H15.7v67.5h10.8c0.2-0.4,1.5-1.7,1.9-2
		c0,0,0.1,0,0.1-0.1l2.3-1.3c0,0,0.1,0,0.1,0l1.9-0.8c1.1-0.4,1-0.2,1.8-0.4l0.4-0.1c0.6-0.2,3.6-0.2,4.1,0l1.2,0.2
		c0.4,0.1,0.2,0.1,0.3,0.1l1.2,0.4c0.1,0,0.2,0.1,0.3,0.1l0.8,0.3c0,0,0.1,0,0.1,0c0,0,0.1,0,0.1,0c0,0,0.1,0,0.1,0l3.7,2.5
		c0.3,0.3,0.7,0.6,0.9,1h41.9V16.3H40.6c-1.7,0-3.5,0.1-5.1,0c-0.7-0.1-1.3-0.5-1.5-1.1c-0.3-0.7,0-1.6,0-1.8l0.2-0.4
		c0.1-0.2,0-0.1,0.2-0.3c0,0,0.1,0,0.1-0.1l0.6-0.3c1.2-0.3,3.1,0,4.3,0c16.3,0,32.6,0,48.9,0c1.2,0,2.6-0.1,3.1,0.2l0.4,0.2
		c0,0,0.1,0,0.1,0c0.1,0,0.2,0.1,0.3,0.2c0.4,0.3,0.7,0.7,0.9,1.2c0.2,0.3,0.3,1,0.4,1.6c0.1,0.5,0.1,1,0.1,1.5v5.9
		c1,0,6-0.2,6.8,0.1c0.6,0.2,1.8,0.1,2.6,0.3c0.3,0.1,0.5,0.1,0.9,0.2c0,0,0.2,0.1,0.2,0.1l0.7,0.2c0,0,0.1,0,0.1,0l0.6,0.2
		c0,0,0.1,0,0.1,0l3.6,1.9c0,0,0.1,0,0.1,0l1.2,0.9c0.4,0.3-0.2-0.2,0.2,0.1l0.5,0.5c0.1,0.1,0.1,0.1,0.2,0.2
		c0.2,0.2,0.3,0.3,0.5,0.5l1.8,2.4c0,0,0,0.1,0.1,0.1c0,0,0,0.1,0,0.1l0.1,0.3c0,0,0,0.1,0,0.1l0.8,1.6c0.1,0.1,0-0.1,0.1,0.3
		c0.4,0,0.8,0,1.1,0.1l0.4,0.1c0,0,0.1,0,0.1,0c0.2,0.1,0.2,0,0.4,0.1l1.1,0.6c0,0,0.1,0,0.1,0.1c0.1,0.1,0.2,0.2,0.3,0.2l0.9,0.7
		c0,0,0,0,0.1,0.1l0.6,0.8c0,0,0,0.1,0,0.1l2.8,4.1c0,0,0,0.1,0.1,0.1l1.3,1.9c0,0,0,0.1,0.1,0.1c0,0,0,0.1,0,0.1l0.1,0.2
		c0,0,0,0.1,0,0.1l0.3,0.5c0,0,0,0.1,0,0.1l0.5,0.7c0.1,0.2,0.1,0.1,0.1,0.3c0,0,0,0.1,0,0.1l0.3,0.4c0,0,0,0.1,0.1,0.1
		c0,0,0,0.1,0,0.1l0.1,0.2c0,0,0,0.1,0,0.1l1,1.5c0,0,0,0.1,0,0.1l1.4,2c0,0,0,0.1,0,0.1l3.1,4.6c0,0,0,0.1,0.1,0.1l2.6,3.8
		c0,0.1,0.3,0.3,0.3,0.4l0.6,0.9c0,0,0,0.1,0.1,0.1l1,1.5c0,0,0,0.1,0,0.1l0.5,0.8c0,0,0.1,0.2,0.1,0.2l0.4,0.5c0,0,0,0.1,0.1,0.1
		l0.7,1.4c0,0,0,0.1,0,0.1c0,0,0,0.1,0,0.1l0.8,3.3c0.3,0.8,0.1,16.3,0.1,17.3c1,0,2,0.3,2.8,1l0.8,1.2
		C142.4,86.2,142.5,86.5,142.5,86.9z M41.5,51.8h-0.3c-0.1-0.3-0.1-0.2-0.1-0.3l-0.5-1c0,0,0-0.1,0-0.1c0,0,0-0.1,0-0.1L40.4,50
		c0,0,0-0.1,0-0.1l-2.9-6.4c-0.2-0.3,0.1,0.2-0.1-0.2c-0.3-0.6-0.6-1.1-1.1-1.6c-0.3-0.3,0.1,0-0.3-0.3l-0.6-0.3c0,0-0.1,0-0.1,0
		l-0.5-0.3c0,0-0.1,0-0.1,0l-1.5-0.1c-0.6,0.1-1,0.1-1.6,0.4l-0.6,0.3c0,0-0.1,0-0.1,0.1l-3,5.2c0,0,0,0.1,0,0.1l-0.7,1.6
		c0,0,0,0.1,0,0.1l-0.8,1.6c0,0,0,0.1,0,0.1L26,51c0,0,0,0.1,0,0.1l-0.1,0.2c0,0,0,0.1,0,0.1l-0.2,0.4c0,0-0.1,0.1-0.1,0.2l-0.9,1.8
		c0,0,0,0.1,0,0.1l-0.1,0.3c-0.1,0.2,0,0.1-0.1,0.3l-0.2,0.4c0,0,0,0.1,0,0.1c-0.2,0.4,0.1-0.2-0.1,0.2l-2.4,5.4
		c0,0-0.1,0.1-0.1,0.2l-0.4,0.7c0,0,0,0.1,0,0.1l-0.1,0.3c0,0,0,0.1,0,0.1l-0.2,0.5c-0.1,0.4-0.2,0.2-0.3,0.8c-0.1,0.8,0,1.7,0.1,2
		l0.9,1.2c0.4,0.4,0.6,0.6,1.1,0.7l0.6,0.2c0.3,0,0.8,0,1,0c3.6,0,30,0.2,31-0.1c0,0,0.1,0,0.1,0c0,0,0.1,0,0.1,0l0.9-0.4
		c0,0,0.1,0,0.1-0.1c0.3-0.2,0.4-0.1,0.6-0.4c0,0,0-0.1,0-0.1l0.6-1.2c0,0,0-0.1,0-0.1l0.1-0.3c0.2-0.7-0.1-1.1-0.2-1.6l-2-3.5
		c0,0-0.1-0.1-0.1-0.2c-0.1-0.2-0.1-0.1-0.2-0.3l-0.5-0.8c0,0,0-0.1,0-0.1l-0.7-1.2c0,0,0-0.1,0-0.1l-1.6-2.6
		c-0.5-0.9-1.2-1.9-2-2.7l-0.5-0.5c-0.4-0.4-0.1-0.2-0.6-0.4c-1.8-0.9-1.5-0.4-2.9-0.8l-2,0.3c-0.2,0.1-0.2,0.1-0.4,0.1
		c-0.7,0.2-1,0.5-1.5,0.9L42.2,51C41.9,51.3,41.7,51.4,41.5,51.8z M43.4,56.3c0.6-0.3-0.1,0.1,0.4-0.5c0,0,0.1-0.2,0.2-0.2l0.3-0.4
		c0.2-0.4,0.2-0.5,0.5-0.9c0,0,0.1-0.1,0.1-0.1c0.2-0.2,0-0.1,0.2-0.2c0.3-0.2,0.1-0.1,0.4-0.3l0.6-0.2c0.1,0,0.5,0,0.6,0
		c0.6,0.1,0.9,0.3,1.3,0.7l2.8,4.6c0.2,0.4,0.3,0.3,0.6,0.9l2.1,3.3h-7.1c-0.2-0.5,0,0-0.2-0.4l-0.4-0.7c0,0-0.1-0.1-0.1-0.2
		c-0.1-0.2,0,0-0.1-0.3c-0.1-0.2-0.1-0.2-0.1-0.4l-1.2-2.4c-0.1-0.2,0-0.1-0.1-0.3c0,0,0-0.1,0-0.1l-0.2-0.5
		c-0.2-0.5-0.3-0.8-0.6-0.9V56.3z M33.3,44.7h0.3c0,0.6,0.6,1.5,0.8,2.2c0,0,0,0.1,0,0.1c0,0,0,0.1,0,0.1l1.1,2.2
		c0.1,0.2,0.1,0.4,0.2,0.6l2.2,4.7c0,0,0,0.1,0,0.1l1.2,2.6c0,0,0.1,0.1,0.1,0.2c0.1,0.2,0,0.1,0.1,0.3l0.3,0.7c0,0,0,0.1,0,0.1
		l0.7,1.3c0,0,0,0.1,0,0.1l1.4,3H25.2l1.9-4.3c0,0,0-0.1,0-0.1l1.3-2.8c0,0,0-0.1,0-0.1l2-4.3c0,0,0-0.1,0-0.1l0.3-0.8
		c0.1-0.3,0,0,0.1-0.3l0.9-2.1c0.3-0.8,0.8-1.6,1-2.1L33.3,44.7z M117.7,87l-2.2,1.1c0,0-0.1,0-0.1,0l-0.9,0.8c-0.2,0.2,0,0-0.2,0.2
		l-0.7,1c-0.1,0.1-0.1,0.1-0.1,0.3l-0.6,2.1c-0.2,0.5-0.2,1.2,0,1.7l1.3,3.1c0.1,0.2,0,0.1,0.2,0.2l1.5,1.4c0.2,0.1,0,0,0.2,0.2
		c0.4,0.3-0.1,0.1,0.5,0.3l1.1,0.4c0,0,0.1,0.1,0.2,0.1c0.6,0.2,1.6,0.1,2.3,0.1l1.1-0.2c0.1,0,0.2-0.1,0.3-0.1
		c0.7-0.2,1.2-0.4,1.8-0.9l2.2-3.2l0.3-1.2c0.1-0.5,0.2-1.1,0-1.6l-0.6-1.9c-0.3-0.8-1-1.8-1.7-2.3c-0.2-0.1,0,0-0.2-0.2l-2.5-1.3
		c-0.6-0.2-1.6-0.1-2.3-0.1c-0.1,0-0.3,0-0.4,0L117.7,87z M119.3,90.9h0.3H119.3z M35.5,87c0,0-0.1,0-0.1,0c-0.1,0.2,0.1,0-0.2,0.1
		L34,87.6c-0.1,0-0.1,0.1-0.3,0.1l-1,0.6c-0.4,0.4-0.9,0.8-1.2,1.3l-1,2.3c-0.3,0.8-0.2,2.4,0,3c0.1,0.1,0.1,0.4,0.2,0.6l2.5,3.2
		l1.5,0.8c0.2,0.1,0.2,0.1,0.3,0.1l1.9,0.2c0.3,0,0.5,0,0.8,0l1.9-0.6c0,0,0.1,0,0.1,0l1.1-0.7c0,0,0.1,0,0.1,0c0,0,0.1,0,0.1,0
		l0.4-0.3c0,0,0,0,0.1-0.1l0.1-0.1c0.6-0.7,1.1-1.7,1.5-2.5L41.9,89c0,0-0.1-0.2-0.2-0.2l-2.8-1.7c0,0-0.1,0-0.1,0c0,0-0.1,0-0.1,0
		c-0.7-0.2-2.1-0.3-2.9-0.2L35.5,87z M34.7,94.6v-2.4c0.5-0.2,0.7-0.8,1.1-1l0.5-0.2c0,0,0.1,0,0.1,0c0,0,0.2-0.1,0.2-0.1
		c0.6-0.2,0.5,0,0.8,0.1l0.5,0.2c0,0,0.1,0,0.1,0c0.7,0.3,1,0.7,1.3,1.6l0,1.1c0,0,0,0.1,0,0.1L39,94.6c-0.2,0.5-0.2,0.5-0.6,0.8
		l-0.9,0.4c-0.3,0.1-0.4,0.2-1,0c0,0-0.1,0-0.1,0c-1.4-0.5-0.6-0.2-1.4-0.9C34.7,94.5,35.1,94.7,34.7,94.6z M46.3,33l-2.5,0.6
		c0,0-0.1,0-0.1,0c-0.1,0-0.2,0.1-0.3,0.1c-0.7,0.4-1,0.7-1.5,1.2c-0.4,0.4-0.8,0.7-1,1.2l-0.3,0.5c-0.4,1-0.4,1.9-0.4,3
		c0,0.9,0.1,1.4,0.4,2c0,0,0,0.1,0,0.1c0,0,0,0.1,0,0.1l0.2,0.3c0,0,0,0.1,0,0.1c0,0,0,0.1,0,0.1c0.4,0.7,1,1.2,1.5,1.8l2.3,1.3
		c0.3,0,0.5,0,0.7,0.1c0.8,0.2-0.2,0,0.6,0.2c0.4,0.1,0.8-0.1,1.1-0.1c1.1-0.4,0.5,0.1,2.1-0.7l2.1-1.6c0,0,0-0.1,0-0.1l0.4-0.5
		c0,0,0.1-0.3,0.1-0.3l0.1-0.3c0.1-0.1,0.1-0.2,0.1-0.3l0.1-0.3c0.3-0.5,0.2-1.1,0.4-1.6c0,0,0-0.1,0-0.1c0.2-0.7,0-1.2-0.1-1.6
		c-0.2-1.2,0-0.7-0.5-1.7l-1-1.5c-0.6-0.6-1-1.1-1.7-1.4c-1.2-0.6-1.5-0.5-2.9-0.7c0,0-0.1,0-0.1,0L46.3,33z M48.1,37.6
		c0,0.6,0.1,0.9,0.5,1.1v1.6c0,0-0.3,0-0.4,0.3l-0.4,0.5c-0.3,0.1-0.3,0.2-0.4,0.5h-1.6c-0.2-0.6-0.2,0-1.1-0.9l-0.4-0.6
		c-0.2-0.5-0.2-0.9,0-1.4l0.7-0.9c0.2-0.2-0.1,0.1,0.2-0.2l0.6-0.3c0.1,0,0,0,0.3-0.1c0.1,0,0.5,0,0.6,0
		C47.4,37.2,47.4,37.6,48.1,37.6z M61.8,40.8v1.8c0.6,0.3-0.1,0.4,1,0.9c0.2,0.1,0,0,0.3,0.1c1.5,0.5,1.4,0.3,3.5,0.3h12.1
		c2.6,0,1,0.1,2.8-0.3c1-0.2,1.7-1.7,1.3-2.5c0,0,0-0.1,0-0.1c-0.2-0.4-0.4-0.8-0.7-1.1c0,0-0.1,0-0.1,0l-1.3-0.3
		c-2.2,0-16.8-0.2-17.6,0.1c0,0-0.1,0-0.1,0C62.2,40.3,62.4,40.5,61.8,40.8z M61.8,50.5v1.8c0.6,0.2,0.3,0.4,1,0.8
		c0.9,0.6,3.6,0.3,5.1,0.3c0.7,0,3,0.1,3.5,0c0.4-0.1,1-0.5,1.2-0.9c0.4-1,0.6-1.5-0.3-2.5c0,0,0,0-0.1-0.1l-0.4-0.4
		c-1.1-0.5-2.6-0.4-4-0.4c-1.1,0-2.6-0.1-3.6,0l-0.5,0.1c0,0-0.1,0-0.1,0c-0.6,0.2-1,0.2-1.3,0.6C61.8,50.5,62.2,50.4,61.8,50.5z
		 M119,83h0.5c0.1,0.4-0.1,0.1,0.3,0.2c0.4,0.1,0.9,0,1.3,0l0.5,0.1c0,0,0.1,0,0.1,0c0,0,0.1,0,0.1,0c1.1,0.3,0.7,0.1,1.7,0.6
		c0,0,0.1,0,0.1,0l1.9,1.1c0.9,0.6,1.9,1.9,2.2,2.4l0.6,1c0,0,0.1,0.1,0.1,0.2c0,0,0,0.1,0,0.1l0.1,0.2c0,0,0,0.1,0,0.1
		c0,0,0,0.1,0,0.1c0,0,0.1,0.1,0.1,0.2l0.5,1.8c0.1,0.9,0.3,0.2,0.3,2.4c0,1.5-0.1,2.2-0.6,3.5c-0.1,0.3,0,0-0.1,0.3
		c0,0-0.1,0.1-0.1,0.2c0,0,0,0.1,0,0.1c0,0,0,0.1,0,0.1c0,0,0,0.1,0,0.1l-0.8,1.3c0,0,0,0.1-0.1,0.1c0,0,0,0.1,0,0.1l-0.1,0.3
		c-0.3,0.5-2,2.2-2.6,2.5l-1.1,0.7c0,0-0.1,0-0.1,0l-0.2,0.1c0,0-0.1,0-0.1,0l-1.4,0.4c0,0-0.1,0-0.1,0l-1.5,0.3
		c-0.3,0.1,0.2,0.1-0.5,0.2l-4.5-0.9c-0.3-0.1,0,0-0.3-0.1l-1.5-0.8c-0.9-0.4-2.3-2-2.9-2.9l-0.7-1.2c0,0,0-0.1,0-0.1l-0.3-0.5
		c0,0,0-0.1,0-0.1l-0.4-1.4c-0.1-1-0.3-1-0.3-2.4c0-0.6-0.1-1.3,0.1-1.8l0.1-0.2c0.1-0.2,0-0.1,0.1-0.3c0.1-0.3,0-0.2,0.1-0.6
		l1.4-3.2c0.4-0.7,1.2-1.3,1.8-1.9c0.2-0.2,0-0.1,0.3-0.3c0.4-0.3-0.3,0.2,0.2-0.1l1.5-0.9c0,0,0.1,0,0.1,0l1.2-0.5c0,0,0.1,0,0.1,0
		l0.9-0.3c0.6-0.2,1.2,0,1.8-0.2C119,83.1,118.9,83.3,119,83z"/>
</g>
</svg>
