<?xml version="1.0" encoding="utf-8"?>
<!-- Generator: Adobe Illustrator 24.0.2, SVG Export Plug-In . SVG Version: 6.00 Build 0)  -->
<svg version="1.1" id="Capa_1" xmlns="http://www.w3.org/2000/svg" xmlns:xlink="http://www.w3.org/1999/xlink" x="0px" y="0px"
	 viewBox="0 0 150 150" style="enable-background:new 0 0 150 150;" xml:space="preserve">
<style type="text/css">
	.st0{fill-rule:evenodd;clip-rule:evenodd;fill:#474747;transition: 0.6s;}
	.active{fill: #fff;}
</style>
<g>
	<path id="este" class="st0" d="M93.7,42.2c1.8,0,3.6,0,5.4,0c0.4,0,0.9,0,1.3,0c1.1,0,2.4,0.4,3.4,0.7h0.1l1.6,0.7h0.1h0.1l0.3,0.1
		c0,0,0.1,0,0.1,0.1c0,0,0.1,0,0.1,0.1l2.6,2c0.1,0.1,0.2,0.2,0.2,0.2l0.4,0.6v0.1c0.3,0.5,0.5,0.3,0.7,0.9H93.7V42.2z M104,58
		c0,0.6-0.1,0.4-0.4,0.8c-0.3,0.4-0.4,0.7-0.4,1.3c0,1.6-0.2,10.5,0.2,11.2c0.3,0.5,0.6,0.5,0.6,1.2c0.9,0,0.2-0.1,0.8,0.4L105,73
		c0.1,0,0.2,0.1,0.3,0.1c0,0,0.1,0.1,0.2,0.1c0.2,0.1,0.1,0,0.3,0.1l3.2,1.2l0.2,0.1l1.2,0.4h0.1l0.3,0.1h0.1l0.4,0.1h0.1l0.7,0.3
		h0.1l3.6,1.2h0.1l3.7,1.3c0.1,0,0.1,0,0.2,0.1c0.2,0.1,0.3,0.1,0.5,0.2h0.1l3.3,1.2l0.2,0.1l0.3,0.1h0.1h0.1c0.1,0,0.2,0,0.3,0.1
		h0.1h0.1l2.1,1.1h0.1l4.4,1.5h0.1l2.3,0.8c0,0,0.2,0.1,0.3,0.1h0.1l0.4,0.2v15H130c-0.1-0.3-0.3-0.5-0.6-0.7l-2.2-1.7
		c0,0-0.1,0-0.1-0.1l-5.5-2.1h-0.1c-0.5-0.2-3.2-0.2-3.8-0.1c-0.7,0.2,0.2,0.1-0.7,0.2c-0.2,0-0.3,0-0.5,0l-2.5,0.8
		c-0.4,0.2-1.3,0.6-1.9,1c-0.1,0.1-0.2,0.2-0.2,0.2l-1.7,1.2c-0.4,0.4-1,0.8-1.2,1.3H94V52h19c0.6,0,1.7-0.1,2.2,0.2l1.4,1l1.6,2.4
		c0.3,0.5,1,1.3,1.2,1.8c-1.1,0-13.2-0.2-13.9,0.1C104.8,57.5,104.7,58,104,58z M107.2,61.2h15c0,0.8,0,0.3,0.2,0.6
		c0.1,0.1,0.2,0.2,0.2,0.2l2.4,3.6c0,0,0,0.1,0.1,0.1l0.5,0.7c0,0,0,0.1,0.1,0.1l0.2,0.3l1.2,1.9v0.1l2,2.9c0.1,0.1,0,0.1,0.1,0.3
		c0.1,0.1,0.1,0.1,0.2,0.3c0,0,0,0.1,0.1,0.1l1.3,1.8c0,0,0,0,0.1,0.1l0.2,0.3v0.1c0,0,0,0.1,0.1,0.1l2.2,3.3l0.1,0.1l0.2,0.4
		c0.2,0.4,0-0.2,0.2,0.4l-4.9-1.7h-0.1l-3.7-1.3h-0.1l-2.6-1h-0.1h-0.1l-1.4-0.5h-0.1l-2.7-1H118h-0.1l-0.8-0.3l-0.2-0.1l-4.2-1.5
		h-0.1l-0.7-0.2h-0.1l-2.3-0.9c-0.2-0.1-0.3-0.1-0.5-0.2h-0.1l-0.2-0.1c-0.5-0.2-0.9-0.4-1.5-0.4L107.2,61.2L107.2,61.2z
		 M22.5,107.9h-11v-5l12,0.2v0.1l-0.2,0.6v0.1l-0.1,0.2v0.1L22.5,107.9z M132.7,102.9h5.8v5h-4.7c0-0.9-0.2-0.6-0.3-1.2
		c-0.1-0.9,0.2-0.1-0.2-1.6l-0.2-1C132.9,103.4,132.8,103.4,132.7,102.9z M47.1,109.6c-0.1,0.3,0,1.1-0.1,1.5l-1,2.3
		c-0.3,0.5-0.7,1.2-1.1,1.7c-0.5,0.5-1.1,1.2-1.7,1.6h-0.1H43l-2.5,1.4c-0.2,0.1,0.2,0-0.3,0.1l-1,0.3c-0.5,0.1-0.7,0-1.2,0.1
		c-0.3,0.1,0.2,0.1-0.5,0.2l-1.4-0.1c-0.4-0.2-1.2-0.1-1.8-0.3l-0.8-0.3c-0.1,0-0.2,0-0.3-0.1h-0.1l-1.6-0.9
		c-0.5-0.4-1.2-0.7-1.6-1.1l-2.7-4.4c-0.1-0.2,0-0.2-0.1-0.3v-0.1l-0.2-0.6c-0.2-0.7-0.1-3.6,0-4.2v-0.1l1-2.5
		c0.2-0.5,0.4-1,0.7-1.4l1.4-1.5c0.5-0.3,0.9-0.8,1.4-1.1c0.3-0.2,0.6-0.5,1.1-0.6l0.9-0.4h0.1l1.4-0.4c0.7-0.1,1.3,0,1.7-0.1h0.1
		h0.1l2.3,0.2c0.3,0.1,0.2,0.1,0.3,0.1l1.5,0.5c0,0,0.1,0.1,0.2,0.1l0.9,0.4h0.1h0.1h0.1l1,0.8c1,0.6,1.6,1.5,2,2.1l1.5,2.9
		c0.1,0.3,0,0.2,0.1,0.5l0.4,1.6c0.1,0.4,0.1,0.9,0.1,1.3C47.3,109.6,47.1,109.4,47.1,109.6z M142.5,101.8v7.5c0,0.1,0,0.1,0,0.2
		c-0.1,0.6-0.3,1.1-0.7,1.4l-1.6,1.1c-1.1,0.5-5.4,0.2-7,0.2v0.3c-0.5,0.2-0.1-0.1-0.3,0.5l-0.8,1.9c0,0-0.1,0.1-0.1,0.2l-0.3,0.5
		c0,0,0,0.1-0.1,0.1l-1.2,1.8l-0.2,0.2l-2.8,2.6c0,0-0.1,0-0.1,0.1l-3,1.6c-1.1,0.4-2,0.6-3,0.8c-0.8,0.2-2.9,0.1-3.8,0.1l-4.8-1.5
		l-5.2-4.4v-0.1c0,0,0-0.1-0.1-0.1l-1-1.4v-0.1l-0.2-0.4v-0.1v-0.1l-0.7-1.7c-0.2-0.5,0.2-0.2-0.3-0.4v-0.3c-2.9,0-5.8,0-8.7,0
		c-0.2,0-0.5,0-0.7,0l-0.3-0.1c-0.5-0.2-1.1-0.6-1.3-1.1V111l-0.1-0.2c0,0,0-0.2-0.1-0.2l-0.1-0.2c0-0.1,0,0,0-0.2
		c0-0.1,0-0.1,0-0.2c0.1-0.4,0.1-0.8,0.4-1.2l0.6-0.5c0.4-0.2,0.6,0,0.7-0.4h9c0-0.8,0.1-0.3,0.2-0.6c0.1-0.4,0-1,0.1-1.5
		c0-0.2,0-0.2,0.1-0.3l0.3-1.2c0,0,0.1-0.1,0.1-0.2c0.1-0.4,0.4-0.8,0.4-1.2H50.5l0.4,1.5c0.1,0.4,0-0.1,0.1,0.3
		c0.1,0.3,0,0.3,0.1,0.6c0.1,0.9,0.2,0.5,0.3,1.2c0,0.5,0,1,0,1.5h33.1c1.9,0,1.9-0.2,3.4,0.3H88l0.6,0.2c0,0.6,0.4,0.7,0.5,0.8v1.6
		c-0.4,0.2-0.2,0.5-1,1c-0.4,0.3-0.1-0.2-0.4,0.3h-37c0,0.4,0,0.4-0.1,0.7l-0.2,0.7v0.1v0.1v0.1l-0.4,0.6c0,0-0.1,0.1-0.1,0.2v0.1
		l-2.3,3.4c-0.3,0.3-0.5,0.5-0.8,0.8c-0.2,0.2-0.2,0.2-0.4,0.4l-1.2,0.9h-0.1l-0.5,0.3c-0.2,0.1-0.1,0.1-0.2,0.2c0,0-0.1,0-0.1,0.1
		l-1.1,0.5h-0.1H43h-0.1h-0.1l-1.6,0.6c-0.1,0-0.2,0.1-0.3,0.1l-0.2,0.1h-0.1l-5.3,0.4c-0.3,0-0.5,0-0.7-0.1l-0.9-0.2h-0.1l-3.2-1.2
		h-0.1l-2.1-1.4c-0.1-0.1-0.1-0.2-0.3-0.3c-0.4-0.4-0.9-0.6-1.3-1l-1.6-2.2c-0.1-0.1-0.2-0.2-0.2-0.2s0-0.1-0.1-0.1l-0.5-1v-0.1
		l-0.9-2.1v-0.1v-0.1l-0.1-0.4H9.9c-0.1-0.3-0.2-0.3-0.5-0.4l-1.5-1.2c-0.2-0.3-0.3-0.9-0.4-1.6v-7.1c0-0.5,0.1-0.7,0.4-1.2l0.8-1.1
		c0.4-0.4,0.8-0.5,1.3-0.7h0.1c0.5-0.2,0.9-0.2,1.4-0.2V34.2c0-1.7-0.2-3.7,0.3-5.1V29c0.2-0.5,0.8-1,1.3-1.4c0,0,0.1,0,0.1-0.1
		c0.3-0.2,0.3-0.1,0.4-0.4h14c0.1,0.4,0,0.1,0.3,0.5c0.2,0.2,0.2,0.2,0.4,0.4c0.1,0.1,0.1,0.1,0.1,0.3l-0.1,1.9c0,0,0,0.1-0.1,0.1
		c-0.3,0.3-0.5,0.4-0.7,0.8H15.7v67.5h10.8c0.2-0.4,1.5-1.7,1.9-2c0,0,0.1,0,0.1-0.1l2.3-1.3h0.1l1.9-0.8c1.1-0.4,1-0.2,1.8-0.4
		l0.4-0.1c0.6-0.2,3.6-0.2,4.1,0l1.2,0.2c0.4,0.1,0.2,0.1,0.3,0.1l1.2,0.4c0.1,0,0.2,0.1,0.3,0.1l0.8,0.3H43h0.1h0.1l3.7,2.5
		c0.3,0.3,0.7,0.6,0.9,1h41.9V31.2H40.6c-1.7,0-3.5,0.1-5.1,0c-0.7-0.1-1.3-0.5-1.5-1.1c-0.3-0.7,0-1.6,0-1.8l0.2-0.4
		c0.1-0.2,0-0.1,0.2-0.3c0,0,0.1,0,0.1-0.1l0.6-0.3c1.2-0.3,3.1,0,4.3,0c16.3,0,32.6,0,48.9,0c1.2,0,2.6-0.1,3.1,0.2l0.4,0.2h0.1
		c0.1,0,0.2,0.1,0.3,0.2c0.4,0.3,0.7,0.7,0.9,1.2c0.2,0.3,0.3,1,0.4,1.6c0.1,0.5,0.1,1,0.1,1.5V38c1,0,6-0.2,6.8,0.1
		c0.6,0.2,1.8,0.1,2.6,0.3c0.3,0.1,0.5,0.1,0.9,0.2l0.2,0.1l0.7,0.2h0.1l0.6,0.2h0.1l3.6,1.9h0.1l1.2,0.9c0.4,0.3-0.2-0.2,0.2,0.1
		l0.5,0.5c0.1,0.1,0.1,0.1,0.2,0.2c0.2,0.2,0.3,0.3,0.5,0.5l1.8,2.4c0,0,0,0.1,0.1,0.1v0.1l0.1,0.3v0.1l0.8,1.6
		c0.1,0.1,0-0.1,0.1,0.3c0.4,0,0.8,0,1.1,0.1l0.4,0.1h0.1c0.2,0.1,0.2,0,0.4,0.1l1.1,0.6c0,0,0.1,0,0.1,0.1c0.1,0.1,0.2,0.2,0.3,0.2
		l0.9,0.7c0,0,0,0,0.1,0.1l0.6,0.8V51l2.8,4.1c0,0,0,0.1,0.1,0.1l1.3,1.9c0,0,0,0.1,0.1,0.1v0.1l0.1,0.2v0.1l0.3,0.5v0.1l0.5,0.7
		c0.1,0.2,0.1,0.1,0.1,0.3v0.1l0.3,0.4c0,0,0,0.1,0.1,0.1v0.1l0.1,0.2v0.1l1,1.5v0.1l1.4,2v0.1l3.1,4.6c0,0,0,0.1,0.1,0.1l2.6,3.8
		c0,0.1,0.3,0.3,0.3,0.4l0.6,0.9c0,0,0,0.1,0.1,0.1l1,1.5v0.1l0.5,0.8l0.1,0.2l0.4,0.5c0,0,0,0.1,0.1,0.1l0.7,1.4v0.1v0.1l0.8,3.3
		c0.3,0.8,0.1,16.3,0.1,17.3c1,0,2,0.3,2.8,1l0.8,1.2C142.4,101.1,142.5,101.4,142.5,101.8z M41.5,66.7h-0.3
		c-0.1-0.3-0.1-0.2-0.1-0.3l-0.5-1v-0.1v-0.1l-0.2-0.3v-0.1l-2.9-6.4c-0.2-0.3,0.1,0.2-0.1-0.2c-0.3-0.6-0.6-1.1-1.1-1.6
		c-0.3-0.3,0.1,0-0.3-0.3L35.4,56h-0.1l-0.5-0.3h-0.1l-1.5-0.1c-0.6,0.1-1,0.1-1.6,0.4L31,56.3c0,0-0.1,0-0.1,0.1l-3,5.2v0.1
		l-0.7,1.6v0.1L26.4,65v0.1L26,65.9V66l-0.1,0.2v0.1l-0.2,0.4c0,0-0.1,0.1-0.1,0.2l-0.9,1.8v0.1l-0.1,0.3c-0.1,0.2,0,0.1-0.1,0.3
		l-0.2,0.4v0.1c-0.2,0.4,0.1-0.2-0.1,0.2l-2.4,5.4c0,0-0.1,0.1-0.1,0.2l-0.4,0.7v0.1l-0.1,0.3v0.1L21,77.4c-0.1,0.4-0.2,0.2-0.3,0.8
		c-0.1,0.8,0,1.7,0.1,2l0.9,1.2c0.4,0.4,0.6,0.6,1.1,0.7l0.6,0.2c0.3,0,0.8,0,1,0c3.6,0,30,0.2,31-0.1h0.1h0.1l0.9-0.4
		c0,0,0.1,0,0.1-0.1c0.3-0.2,0.4-0.1,0.6-0.4v-0.1l0.6-1.2v-0.1l0.1-0.3c0.2-0.7-0.1-1.1-0.2-1.6l-2-3.5c0,0-0.1-0.1-0.1-0.2
		c-0.1-0.2-0.1-0.1-0.2-0.3l-0.5-0.8v-0.1l-0.7-1.2v-0.1l-1.6-2.6c-0.5-0.9-1.2-1.9-2-2.7L50.1,66c-0.4-0.4-0.1-0.2-0.6-0.4
		c-1.8-0.9-1.5-0.4-2.9-0.8l-2,0.3c-0.2,0.1-0.2,0.1-0.4,0.1c-0.7,0.2-1,0.5-1.5,0.9l-0.5-0.2C41.9,66.2,41.7,66.3,41.5,66.7z
		 M43.4,71.2c0.6-0.3-0.1,0.1,0.4-0.5c0,0,0.1-0.2,0.2-0.2l0.3-0.4c0.2-0.4,0.2-0.5,0.5-0.9l0.1-0.1c0.2-0.2,0-0.1,0.2-0.2
		c0.3-0.2,0.1-0.1,0.4-0.3l0.6-0.2c0.1,0,0.5,0,0.6,0c0.6,0.1,0.9,0.3,1.3,0.7l2.8,4.6c0.2,0.4,0.3,0.3,0.6,0.9l2.1,3.3h-7.1
		c-0.2-0.5,0,0-0.2-0.4l-0.4-0.7c0,0-0.1-0.1-0.1-0.2c-0.1-0.2,0,0-0.1-0.3c-0.1-0.2-0.1-0.2-0.1-0.4l-1.2-2.4
		c-0.1-0.2,0-0.1-0.1-0.3v-0.1L44,72.6c-0.2-0.5-0.3-0.8-0.6-0.9V71.2z M33.3,59.6h0.3c0,0.6,0.6,1.5,0.8,2.2v0.1V62l1.1,2.2
		c0.1,0.2,0.1,0.4,0.2,0.6l2.2,4.7v0.1l1.2,2.6c0,0,0.1,0.1,0.1,0.2c0.1,0.2,0,0.1,0.1,0.3l0.3,0.7v0.1l0.7,1.3v0.1l1.4,3H25.2
		l1.9-4.3v-0.1l1.3-2.8v-0.1l2-4.3v-0.1l0.3-0.8c0.1-0.3,0,0,0.1-0.3l0.9-2.1c0.3-0.8,0.8-1.6,1-2.1L33.3,59.6z M117.7,101.9
		l-2.2,1.1h-0.1l-0.9,0.8c-0.2,0.2,0,0-0.2,0.2l-0.7,1c-0.1,0.1-0.1,0.1-0.1,0.3l-0.6,2.1c-0.2,0.5-0.2,1.2,0,1.7l1.3,3.1
		c0.1,0.2,0,0.1,0.2,0.2l1.5,1.4c0.2,0.1,0,0,0.2,0.2c0.4,0.3-0.1,0.1,0.5,0.3l1.1,0.4c0,0,0.1,0.1,0.2,0.1c0.6,0.2,1.6,0.1,2.3,0.1
		l1.1-0.2c0.1,0,0.2-0.1,0.3-0.1c0.7-0.2,1.2-0.4,1.8-0.9l2.2-3.2l0.3-1.2c0.1-0.5,0.2-1.1,0-1.6l-0.6-1.9c-0.3-0.8-1-1.8-1.7-2.3
		c-0.2-0.1,0,0-0.2-0.2l-2.5-1.3c-0.6-0.2-1.6-0.1-2.3-0.1c-0.1,0-0.3,0-0.4,0H117.7z M119.3,105.8h0.3H119.3z M35.5,101.9
		L35.5,101.9c-0.2,0.2,0,0-0.3,0.1l-1.2,0.5c-0.1,0-0.1,0.1-0.3,0.1l-1,0.6c-0.4,0.4-0.9,0.8-1.2,1.3l-1,2.3c-0.3,0.8-0.2,2.4,0,3
		c0.1,0.1,0.1,0.4,0.2,0.6l2.5,3.2l1.5,0.8c0.2,0.1,0.2,0.1,0.3,0.1l1.9,0.2c0.3,0,0.5,0,0.8,0l1.9-0.6h0.1l1.1-0.7h0.1H41l0.4-0.3
		c0,0,0,0,0.1-0.1l0.1-0.1c0.6-0.7,1.1-1.7,1.5-2.5l-1.2-6.5c0,0-0.1-0.2-0.2-0.2l-2.8-1.7h-0.1h-0.1c-0.7-0.2-2.1-0.3-2.9-0.2
		L35.5,101.9z M34.7,109.5v-2.4c0.5-0.2,0.7-0.8,1.1-1l0.5-0.2h0.1l0.2-0.1c0.6-0.2,0.5,0,0.8,0.1l0.5,0.2H38c0.7,0.3,1,0.7,1.3,1.6
		v1.1v0.1l-0.3,0.6c-0.2,0.5-0.2,0.5-0.6,0.8l-0.9,0.4c-0.3,0.1-0.4,0.2-1,0h-0.1c-1.4-0.5-0.6-0.2-1.4-0.9
		C34.7,109.4,35.1,109.6,34.7,109.5z M46.3,47.9l-2.5,0.6h-0.1c-0.1,0-0.2,0.1-0.3,0.1c-0.7,0.4-1,0.7-1.5,1.2
		c-0.4,0.4-0.8,0.7-1,1.2l-0.3,0.5c-0.4,1-0.4,1.9-0.4,3c0,0.9,0.1,1.4,0.4,2v0.1v0.1l0.2,0.3v0.1v0.1c0.4,0.7,1,1.2,1.5,1.8
		l2.3,1.3c0.3,0,0.5,0,0.7,0.1c0.8,0.2-0.2,0,0.6,0.2c0.4,0.1,0.8-0.1,1.1-0.1c1.1-0.4,0.5,0.1,2.1-0.7l2.1-1.6v-0.1l0.4-0.5
		l0.1-0.3l0.1-0.3c0.1-0.1,0.1-0.2,0.1-0.3l0.1-0.3c0.3-0.5,0.2-1.1,0.4-1.6v-0.1c0.2-0.7,0-1.2-0.1-1.6c-0.2-1.2,0-0.7-0.5-1.7
		l-1-1.5c-0.6-0.6-1-1.1-1.7-1.4c-1.2-0.6-1.5-0.5-2.9-0.7h-0.1L46.3,47.9z M48.1,52.5c0,0.6,0.1,0.9,0.5,1.1v1.6c0,0-0.3,0-0.4,0.3
		L47.8,56c-0.3,0.1-0.3,0.2-0.4,0.5h-1.6c-0.2-0.6-0.2,0-1.1-0.9L44.3,55c-0.2-0.5-0.2-0.9,0-1.4l0.7-0.9c0.2-0.2-0.1,0.1,0.2-0.2
		l0.6-0.3c0.1,0,0,0,0.3-0.1c0.1,0,0.5,0,0.6,0C47.4,52.1,47.4,52.5,48.1,52.5z M61.8,55.7v1.8c0.6,0.3-0.1,0.4,1,0.9
		c0.2,0.1,0,0,0.3,0.1c1.5,0.5,1.4,0.3,3.5,0.3h12.1c2.6,0,1,0.1,2.8-0.3c1-0.2,1.7-1.7,1.3-2.5v-0.1c-0.2-0.4-0.4-0.8-0.7-1.1H82
		l-1.3-0.3c-2.2,0-16.8-0.2-17.6,0.1H63C62.2,55.2,62.4,55.4,61.8,55.7z M61.8,65.4v1.8c0.6,0.2,0.3,0.4,1,0.8
		c0.9,0.6,3.6,0.3,5.1,0.3c0.7,0,3,0.1,3.5,0c0.4-0.1,1-0.5,1.2-0.9c0.4-1,0.6-1.5-0.3-2.5c0,0,0,0-0.1-0.1l-0.4-0.4
		c-1.1-0.5-2.6-0.4-4-0.4c-1.1,0-2.6-0.1-3.6,0l-0.5,0.1h-0.1c-0.6,0.2-1,0.2-1.3,0.6C61.8,65.4,62.2,65.3,61.8,65.4z M119,97.9h0.5
		c0.1,0.4-0.1,0.1,0.3,0.2s0.9,0,1.3,0l0.5,0.1h0.1h0.1c1.1,0.3,0.7,0.1,1.7,0.6h0.1l1.9,1.1c0.9,0.6,1.9,1.9,2.2,2.4l0.6,1
		c0,0,0.1,0.1,0.1,0.2v0.1l0.1,0.2v0.1v0.1c0,0,0.1,0.1,0.1,0.2l0.5,1.8c0.1,0.9,0.3,0.2,0.3,2.4c0,1.5-0.1,2.2-0.6,3.5
		c-0.1,0.3,0,0-0.1,0.3c0,0-0.1,0.1-0.1,0.2v0.1v0.1v0.1l-0.8,1.3c0,0,0,0.1-0.1,0.1v0.1l-0.1,0.3c-0.3,0.5-2,2.2-2.6,2.5l-1.1,0.7
		h-0.1l-0.2,0.1h-0.1l-1.4,0.4H122l-1.5,0.3c-0.3,0.1,0.2,0.1-0.5,0.2l-4.5-0.9c-0.3-0.1,0,0-0.3-0.1l-1.5-0.8
		c-0.9-0.4-2.3-2-2.9-2.9l-0.7-1.2v-0.1l-0.3-0.5v-0.1l-0.4-1.4c-0.1-1-0.3-1-0.3-2.4c0-0.6-0.1-1.3,0.1-1.8l0.1-0.2
		c0.1-0.2,0-0.1,0.1-0.3c0.1-0.3,0-0.2,0.1-0.6l1.4-3.2c0.4-0.7,1.2-1.3,1.8-1.9c0.2-0.2,0-0.1,0.3-0.3c0.4-0.3-0.3,0.2,0.2-0.1
		l1.5-0.9h0.1l1.2-0.5h0.1l0.9-0.3c0.6-0.2,1.2,0,1.8-0.2C119,98,118.9,98.2,119,97.9z"/>
</g>
</svg>
