<?xml version="1.0" encoding="utf-8"?>
<!-- Generator: Adobe Illustrator 24.0.2, SVG Export Plug-In . SVG Version: 6.00 Build 0)  -->
<svg version="1.1" id="Capa_1" xmlns="http://www.w3.org/2000/svg" xmlns:xlink="http://www.w3.org/1999/xlink" x="0px" y="0px"
	 viewBox="0 0 150 150" style="enable-background:new 0 0 150 150;" xml:space="preserve">
<style type="text/css">
	.st0{fill-rule:evenodd;clip-rule:evenodd;fill:#474747;transition: 0.6s;}
	.active{fill: #fff;}
</style>
<g>
	<path id="este" class="st0" d="M55,21.7c-0.9,1-6.5,14.4-7.5,16.7c-9.4,22.2-19.8,44.9-29.3,67.2c-4.3,10.1-4.3,6.9-0.1,11.5l4.3,4.7
		c6.7,5.9,4,6.4,8.8,6.3c5.3,0,27.4,0.3,29.9-0.1c1.3-2.3,4.6-12.8,5.7-14.3H96c1.5,1.8,4.4,11.4,5.9,14.4H135
		c-0.3-1.5-12.6-30.9-13.5-33.2c-7.7-18.9-15.8-39.1-23.7-58c-1.6-3.7-0.9-2.7-5.5-6c-2.4-1.7-4.5-3.3-6.8-5c-2.8-2-4.8-4.1-7.3-4.1
		C73.5,22,58.3,22.5,55,21.7 M87.3,33.8c-2.7,0.6-13,0.1-16.5,0.1c-1.9,0-2.3,0.1-3.3-0.9c-0.8-0.8-1.5-1.2-2.2-1.9
		c-1.1-1.2-3.6-2.9-4.2-4h14.6c2.5,0,2.2-0.2,3.8,1.1L87.3,33.8z M56.6,30.2c1.5,0.6,6.4,5.6,8.3,7.1l-34.7,85
		c-0.8-0.5-9-8.9-9.5-9.8L56.6,30.2z M69.2,93.7l24.3,0.1c0.2-1.3-8.9-23.9-10.3-27.4c-0.5-1.2-1.1-3.1-1.6-4.1
		c-0.9,0.4-2.9,6.4-3.4,7.7C76.9,73.6,69.1,92.8,69.2,93.7z M81.4,76l5,12.5l-9.8,0.1C76.7,87.4,80.8,77.1,81.4,76z M69.7,39
		l23.4,0.1l34.3,84c-6.7,0-15.9,0.2-22.2-0.1l-5.5-14.3l-36.5,0.1l-5.5,14.3H35.4L69.7,39z"/>
</g>
</svg>
