<?xml version="1.0" encoding="utf-8"?>
<!-- Generator: Adobe Illustrator 24.0.2, SVG Export Plug-In . SVG Version: 6.00 Build 0)  -->
<svg version="1.1" id="Capa_1" xmlns="http://www.w3.org/2000/svg" xmlns:xlink="http://www.w3.org/1999/xlink" x="0px" y="0px"
	 viewBox="0 0 150 150" style="enable-background:new 0 0 150 150;" xml:space="preserve">
<style type="text/css">
	.st0{fill-rule:evenodd;clip-rule:evenodd;fill:transparent;}
	.st1{fill:#808080;}
</style>
<rect class="st0" width="150" height="150"/>
<g>
	<path class="st1" d="M121.6,136.2h2.9l-1.5-5.7L121.6,136.2z M116.8,141.6l4.2-13.9h4.1l4.2,13.9H126l-0.7-2.5h-4.4l-0.7,2.5H116.8
		z M112.3,141.6v-13.9h3.2v13.9H112.3z M103.6,134.1h2c0.2,0,0.4,0,0.6-0.1c0.2-0.1,0.3-0.2,0.5-0.3c0.1-0.1,0.2-0.3,0.3-0.6
		c0.1-0.2,0.1-0.5,0.1-0.8c0-0.3,0-0.6-0.1-0.8c-0.1-0.2-0.2-0.4-0.3-0.5c-0.1-0.1-0.3-0.2-0.5-0.3c-0.2-0.1-0.4-0.1-0.6-0.1h-2
		V134.1z M100.4,141.6v-13.9h5.9c0.6,0,1.1,0.1,1.6,0.2c0.5,0.1,0.9,0.4,1.3,0.7c0.4,0.3,0.7,0.8,0.9,1.4c0.2,0.6,0.3,1.3,0.3,2.2
		c0,0.6-0.1,1.1-0.2,1.6c-0.1,0.4-0.3,0.8-0.5,1.1c-0.2,0.3-0.4,0.5-0.6,0.7c-0.2,0.2-0.5,0.4-0.8,0.5l2.5,5.5h-3.3l-2.1-5
		c-0.1,0-0.3,0-0.4,0c-0.2,0-0.3,0-0.5,0c-0.2,0-0.3,0-0.5,0c-0.2,0-0.3,0-0.4,0v5H100.4z M92.7,141.7c-0.3,0-0.7,0-1.1-0.1
		c-0.4-0.1-0.8-0.2-1.2-0.4c-0.4-0.2-0.7-0.5-0.9-1c-0.2-0.4-0.4-1-0.4-1.8V131c0-0.6,0.1-1.2,0.3-1.6c0.2-0.4,0.5-0.8,0.8-1
		c0.3-0.2,0.7-0.4,1.1-0.5c0.4-0.1,0.8-0.2,1.2-0.2c1,0,1.9,0,2.6,0.1c0.7,0,1.4,0.1,1.9,0.1c0.6,0,1.1,0.1,1.5,0.1v2.7h-5.1
		c-0.3,0-0.6,0.1-0.8,0.2c-0.2,0.2-0.3,0.4-0.3,0.7v1.5l5.3,0.2v2.6l-5.3,0.2v1.5c0,0.3,0,0.5,0.1,0.6c0.1,0.2,0.2,0.3,0.4,0.3
		c0.2,0.1,0.3,0.1,0.5,0.1h5.2v2.7c-0.6,0.1-1.2,0.1-1.8,0.2c-0.7,0.1-1.4,0.1-2.1,0.1C94,141.7,93.3,141.7,92.7,141.7z M82.5,141.6
		c-0.8,0-1.4-0.1-1.9-0.4c-0.5-0.2-0.9-0.6-1.1-1.1c-0.2-0.5-0.4-1.2-0.4-2v-10.4h3.2v9.9c0,0.3,0,0.5,0.1,0.6
		c0.1,0.2,0.2,0.3,0.4,0.4c0.2,0.1,0.4,0.1,0.6,0.1h4.2v2.9H82.5z M71.3,141.7c-0.3,0-0.7,0-1.1-0.1c-0.4-0.1-0.8-0.2-1.2-0.4
		c-0.4-0.2-0.7-0.5-0.9-1c-0.2-0.4-0.4-1-0.4-1.8V131c0-0.6,0.1-1.2,0.3-1.6c0.2-0.4,0.5-0.8,0.8-1c0.3-0.2,0.7-0.4,1.1-0.5
		c0.4-0.1,0.8-0.2,1.2-0.2c1,0,1.9,0,2.6,0.1c0.7,0,1.4,0.1,2,0.1c0.6,0,1.1,0.1,1.5,0.1v2.7h-5.1c-0.3,0-0.6,0.1-0.8,0.2
		c-0.2,0.2-0.3,0.4-0.3,0.7v1.5l5.3,0.2v2.6l-5.3,0.2v1.5c0,0.3,0,0.5,0.1,0.6c0.1,0.2,0.2,0.3,0.4,0.3c0.2,0.1,0.3,0.1,0.5,0.1h5.2
		v2.7c-0.6,0.1-1.2,0.1-1.8,0.2c-0.7,0.1-1.4,0.1-2.1,0.1C72.6,141.7,72,141.7,71.3,141.7z M59.7,141.6v-11H56v-2.9h10.5v2.9h-3.7
		v11H59.7z M48.2,134.1h2c0.2,0,0.4,0,0.6-0.1c0.2-0.1,0.3-0.2,0.5-0.3c0.1-0.1,0.2-0.3,0.3-0.6c0.1-0.2,0.1-0.5,0.1-0.8
		c0-0.3,0-0.6-0.1-0.8c-0.1-0.2-0.2-0.4-0.3-0.5c-0.1-0.1-0.3-0.2-0.5-0.3c-0.2-0.1-0.4-0.1-0.6-0.1h-2V134.1z M45,141.6v-13.9h5.9
		c0.6,0,1.1,0.1,1.6,0.2c0.5,0.1,0.9,0.4,1.3,0.7c0.4,0.3,0.7,0.8,0.9,1.4c0.2,0.6,0.3,1.3,0.3,2.2c0,0.6-0.1,1.1-0.2,1.6
		c-0.1,0.4-0.3,0.8-0.5,1.1c-0.2,0.3-0.4,0.5-0.6,0.7c-0.2,0.2-0.5,0.4-0.8,0.5l2.5,5.5h-3.3l-2.1-5c-0.1,0-0.3,0-0.4,0
		c-0.2,0-0.3,0-0.5,0c-0.2,0-0.3,0-0.5,0c-0.2,0-0.3,0-0.4,0v5H45z M35.9,136.2h2.9l-1.5-5.7L35.9,136.2z M31.1,141.6l4.2-13.9h4.1
		l4.2,13.9h-3.4l-0.7-2.5h-4.4l-0.7,2.5H31.1z M25.7,141.7c-0.8,0-1.5-0.1-2.1-0.3c-0.6-0.2-1.1-0.5-1.6-1c-0.4-0.5-0.8-1.2-1-2.2
		c-0.2-0.9-0.3-2.2-0.3-3.6c0-1.4,0.1-2.6,0.4-3.6c0.2-0.9,0.6-1.6,1-2.1c0.4-0.5,1-0.9,1.6-1.1c0.6-0.2,1.3-0.3,2.1-0.3
		c0.7,0,1.3,0,1.9,0.1c0.6,0.1,1.1,0.2,1.5,0.3c0.4,0.1,0.8,0.2,1.1,0.3v2.5c-0.2-0.1-0.5-0.1-0.9-0.2c-0.4,0-0.8-0.1-1.3-0.1
		c-0.5,0-1,0-1.6,0c-0.5,0-0.9,0.1-1.2,0.1c-0.3,0.1-0.6,0.3-0.8,0.6c-0.2,0.3-0.3,0.7-0.4,1.3c-0.1,0.5-0.1,1.3-0.1,2.2
		c0,0.8,0,1.5,0.1,2.1c0.1,0.5,0.2,1,0.4,1.3c0.2,0.3,0.4,0.5,0.8,0.6c0.3,0.1,0.8,0.2,1.3,0.2c0.9,0,1.7,0,2.3-0.1
		c0.6,0,1.1-0.1,1.4-0.1v2.5c-0.3,0.1-0.7,0.2-1.1,0.3c-0.4,0.1-0.9,0.1-1.5,0.2C27.1,141.7,26.5,141.7,25.7,141.7z"/>
	<path class="st1" d="M127.5,26.1v50.2c-33.8,0-64.5,0-105,0V26.1H127.5z M30,68.9h90V33.6H30V68.9z M115.5,15.1h7.5
		c0-1.5,0-7.2,0-6.8h-22.5c0,0.4,0,7.2,0,6.8h7.5v3.6H78.8v-3.6h7.5c0-1.5,0-7.2,0-6.8H63.8c0,0.4,0,7.2,0,6.8h7.5v3.6H42v-3.6h7.5
		c0-1.5,0-7.2,0-6.8H27c0,0.4,0,7.2,0,6.8h7.5v3.6H15v65.3h54.4V102H57v9.8h40.5V102H85.1V83.9H135V18.6h-19.5V15.1z"/>
</g>
</svg>
