<?xml version="1.0" encoding="utf-8"?>
<!-- Generator: Adobe Illustrator 24.0.2, SVG Export Plug-In . SVG Version: 6.00 Build 0)  -->
<svg version="1.1" id="Capa_1" xmlns="http://www.w3.org/2000/svg" xmlns:xlink="http://www.w3.org/1999/xlink" x="0px" y="0px"
	 viewBox="0 0 150 150" style="enable-background:new 0 0 150 150;" xml:space="preserve">
<style type="text/css">
	.st0{fill-rule:evenodd;clip-rule:evenodd;fill:#474747;transition: 0.6s;}
	.active{fill: #fff;}
</style>
<g>
	<path id="este" class="st0" d="M127.5,41.1v50.2c-33.8,0-64.5,0-105,0V41.1H127.5z M30,83.9h90V48.6H30V83.9z M115.5,30.1h7.5
		c0-1.5,0-7.2,0-6.8h-22.5c0,0.4,0,7.2,0,6.8h7.5v3.6H78.8v-3.6h7.5c0-1.5,0-7.2,0-6.8H63.8c0,0.4,0,7.2,0,6.8h7.5v3.6H42v-3.6h7.5
		c0-1.5,0-7.2,0-6.8H27c0,0.4,0,7.2,0,6.8h7.5v3.6H15V99h54.4v18H57v9.8h40.5V117H85.1V98.9H135V33.6h-19.5V30.1z"/>
</g>
</svg>
