<?xml version="1.0" encoding="utf-8"?>
<!-- Generator: Adobe Illustrator 24.0.2, SVG Export Plug-In . SVG Version: 6.00 Build 0)  -->
<svg version="1.1" id="Capa_1" xmlns="http://www.w3.org/2000/svg" xmlns:xlink="http://www.w3.org/1999/xlink" x="0px" y="0px"
	 viewBox="0 0 150 150" style="enable-background:new 0 0 150 150;" xml:space="preserve">
<style type="text/css">
	.st0{fill-rule:evenodd;clip-rule:evenodd;fill:transparent;}
	.st1{fill:#808080;}
	.st2{fill-rule:evenodd;clip-rule:evenodd;fill:#808080;}
</style>
<rect class="st0" width="150" height="150"/>
<g>
	<path class="st1" d="M123.5,143.3c-0.4,0-0.8,0-1.2,0c-0.4,0-0.8-0.1-1.2-0.1c-0.4,0-0.7-0.1-1.1-0.2c-0.4-0.1-0.7-0.1-1-0.2v-2.6
		c0.4,0,0.8,0.1,1.3,0.1c0.5,0,1,0,1.5,0.1c0.5,0,1,0,1.4,0c0.4,0,0.8,0,1.1-0.1c0.3-0.1,0.5-0.2,0.7-0.4c0.2-0.2,0.2-0.4,0.2-0.7
		v-0.4c0-0.3-0.1-0.6-0.3-0.8c-0.2-0.2-0.5-0.3-0.8-0.3h-1.1c-1.4,0-2.5-0.3-3.2-0.9c-0.7-0.6-1.1-1.6-1.1-3.1v-0.7
		c0-1.4,0.4-2.4,1.2-3c0.8-0.7,1.9-1,3.4-1c0.6,0,1.1,0,1.6,0.1c0.5,0.1,1,0.1,1.5,0.2c0.5,0.1,0.9,0.2,1.2,0.2v2.5
		c-0.6,0-1.2-0.1-1.9-0.1c-0.7,0-1.4-0.1-1.9-0.1c-0.4,0-0.7,0-1,0.1c-0.3,0.1-0.5,0.2-0.7,0.4c-0.2,0.2-0.2,0.4-0.2,0.8v0.3
		c0,0.4,0.1,0.7,0.3,0.9c0.2,0.2,0.6,0.3,1.1,0.3h1.3c0.9,0,1.6,0.2,2.1,0.5c0.6,0.3,1,0.8,1.3,1.3c0.3,0.6,0.4,1.2,0.4,1.9v0.7
		c0,1.2-0.2,2-0.6,2.6c-0.4,0.6-1,1-1.7,1.2C125.4,143.2,124.5,143.3,123.5,143.3 M111.5,140.4c0.5,0,0.9-0.1,1.3-0.2
		c0.3-0.1,0.6-0.3,0.8-0.6c0.2-0.3,0.3-0.7,0.4-1.3c0.1-0.5,0.1-1.2,0.1-2.1c0-0.9,0-1.6-0.1-2.2s-0.2-1-0.4-1.3
		c-0.2-0.3-0.5-0.5-0.8-0.6c-0.3-0.1-0.8-0.2-1.3-0.2c-0.5,0-0.9,0.1-1.3,0.2c-0.3,0.1-0.6,0.3-0.8,0.6c-0.2,0.3-0.3,0.7-0.4,1.3
		c-0.1,0.5-0.1,1.3-0.1,2.2c0,0.9,0,1.6,0.1,2.1c0.1,0.5,0.2,1,0.4,1.3c0.2,0.3,0.5,0.5,0.8,0.6C110.5,140.3,111,140.4,111.5,140.4z
		 M111.5,143.3c-1,0-1.8-0.1-2.5-0.3c-0.7-0.2-1.3-0.5-1.8-1c-0.5-0.5-0.9-1.2-1.1-2.1c-0.2-0.9-0.4-2.1-0.4-3.6
		c0-1.5,0.1-2.7,0.4-3.6c0.3-0.9,0.6-1.6,1.1-2.1c0.5-0.5,1.1-0.8,1.8-1c0.7-0.2,1.6-0.3,2.5-0.3c1,0,1.8,0.1,2.6,0.3
		c0.7,0.2,1.3,0.5,1.8,1c0.5,0.5,0.9,1.2,1.1,2.1c0.2,0.9,0.4,2.1,0.4,3.6c0,1.5-0.1,2.7-0.4,3.6c-0.2,0.9-0.6,1.6-1.1,2.1
		c-0.5,0.5-1.1,0.8-1.8,1C113.3,143.2,112.4,143.3,111.5,143.3z M98.2,143.3c-0.3,0-0.7,0-1.1-0.1c-0.4-0.1-0.8-0.2-1.2-0.4
		c-0.4-0.2-0.7-0.5-0.9-1c-0.2-0.4-0.4-1-0.4-1.8v-7.5c0-0.6,0.1-1.2,0.3-1.6c0.2-0.4,0.5-0.8,0.8-1c0.3-0.2,0.7-0.4,1.1-0.5
		c0.4-0.1,0.8-0.2,1.2-0.2c1,0,1.9,0,2.6,0c0.7,0,1.4,0.1,1.9,0.1c0.6,0,1.1,0.1,1.5,0.1v2.7H99c-0.3,0-0.6,0.1-0.8,0.2
		s-0.3,0.4-0.3,0.7v1.5l5.3,0.2v2.6l-5.3,0.2v1.5c0,0.3,0,0.5,0.1,0.6c0.1,0.2,0.2,0.3,0.4,0.3c0.2,0.1,0.3,0.1,0.5,0.1h5.2v2.7
		c-0.5,0.1-1.2,0.1-1.8,0.2c-0.7,0.1-1.4,0.1-2.1,0.1C99.5,143.2,98.9,143.2,98.2,143.3z M86.1,135.6h2c0.2,0,0.4,0,0.6-0.1
		c0.2-0.1,0.3-0.2,0.5-0.3c0.1-0.1,0.2-0.3,0.3-0.6c0.1-0.2,0.1-0.5,0.1-0.8c0-0.3,0-0.6-0.1-0.8c-0.1-0.2-0.2-0.4-0.3-0.5
		c-0.1-0.1-0.3-0.2-0.5-0.3c-0.2-0.1-0.4-0.1-0.6-0.1h-2V135.6z M82.8,143.2v-13.9h5.9c0.6,0,1.1,0.1,1.6,0.2
		c0.5,0.1,0.9,0.4,1.3,0.7s0.7,0.8,0.9,1.4c0.2,0.6,0.3,1.3,0.3,2.2c0,0.6-0.1,1.1-0.2,1.6c-0.1,0.4-0.3,0.8-0.4,1.1
		c-0.2,0.3-0.4,0.5-0.6,0.7c-0.2,0.2-0.5,0.4-0.8,0.5l2.5,5.5h-3.3l-2.1-5c-0.1,0-0.3,0-0.4,0c-0.2,0-0.3,0-0.5,0
		c-0.2,0-0.3,0-0.5,0c-0.2,0-0.3,0-0.4,0v5H82.8z M75.1,140.4c0.5,0,0.9-0.1,1.3-0.2c0.3-0.1,0.6-0.3,0.8-0.6
		c0.2-0.3,0.3-0.7,0.4-1.3c0.1-0.5,0.1-1.2,0.1-2.1c0-0.9,0-1.6-0.1-2.2c-0.1-0.5-0.2-1-0.4-1.3c-0.2-0.3-0.5-0.5-0.8-0.6
		c-0.3-0.1-0.8-0.2-1.3-0.2c-0.5,0-0.9,0.1-1.3,0.2c-0.3,0.1-0.6,0.3-0.8,0.6c-0.2,0.3-0.3,0.7-0.4,1.3c-0.1,0.5-0.1,1.3-0.1,2.2
		c0,0.9,0,1.6,0.1,2.1c0.1,0.5,0.2,1,0.4,1.3c0.2,0.3,0.5,0.5,0.8,0.6C74.2,140.3,74.6,140.4,75.1,140.4z M75.1,143.3
		c-1,0-1.8-0.1-2.5-0.3c-0.7-0.2-1.3-0.5-1.8-1c-0.5-0.5-0.9-1.2-1.1-2.1c-0.2-0.9-0.4-2.1-0.4-3.6c0-1.5,0.1-2.7,0.4-3.6
		c0.2-0.9,0.6-1.6,1.1-2.1c0.5-0.5,1.1-0.8,1.8-1c0.7-0.2,1.6-0.3,2.5-0.3c1,0,1.8,0.1,2.6,0.3c0.7,0.2,1.3,0.5,1.8,1
		c0.5,0.5,0.9,1.2,1.1,2.1c0.2,0.9,0.4,2.1,0.4,3.6c0,1.5-0.1,2.7-0.4,3.6c-0.2,0.9-0.6,1.6-1.1,2.1c-0.5,0.5-1.1,0.8-1.8,1
		C76.9,143.2,76.1,143.3,75.1,143.3z M61.1,136.2h2.4c0.3,0,0.5-0.1,0.7-0.2c0.2-0.2,0.3-0.4,0.4-0.7c0.1-0.3,0.1-0.7,0.1-1.2
		c0-0.5,0-0.8-0.1-1.1c-0.1-0.3-0.2-0.5-0.4-0.7c-0.2-0.1-0.4-0.2-0.7-0.2h-2.4V136.2z M57.8,143.2v-13.9h6c0.5,0,0.9,0.1,1.4,0.2
		c0.5,0.1,0.9,0.3,1.3,0.6c0.4,0.3,0.7,0.8,1,1.5c0.3,0.7,0.4,1.5,0.4,2.6c0,1.1-0.1,2-0.4,2.6c-0.2,0.7-0.6,1.2-1,1.5
		c-0.4,0.3-0.8,0.6-1.3,0.7c-0.5,0.1-0.9,0.2-1.4,0.2c-0.2,0-0.5,0-0.8,0c-0.3,0-0.6-0.1-0.8-0.1c-0.3,0-0.5-0.1-0.8-0.1
		c-0.2,0-0.4-0.1-0.6-0.1v4.4H57.8z M49.2,135.6h2c0.2,0,0.4,0,0.6-0.1c0.2-0.1,0.3-0.2,0.5-0.3c0.1-0.1,0.2-0.3,0.3-0.6
		c0.1-0.2,0.1-0.5,0.1-0.8c0-0.3,0-0.6-0.1-0.8c-0.1-0.2-0.2-0.4-0.3-0.5c-0.1-0.1-0.3-0.2-0.5-0.3c-0.2-0.1-0.4-0.1-0.6-0.1h-2
		V135.6z M46,143.2v-13.9h5.9c0.6,0,1.1,0.1,1.6,0.2c0.5,0.1,0.9,0.4,1.3,0.7c0.4,0.3,0.7,0.8,0.9,1.4c0.2,0.6,0.3,1.3,0.3,2.2
		c0,0.6-0.1,1.1-0.2,1.6c-0.1,0.4-0.3,0.8-0.5,1.1c-0.2,0.3-0.4,0.5-0.6,0.7c-0.2,0.2-0.5,0.4-0.8,0.5l2.5,5.5h-3.3l-2.1-5
		c-0.1,0-0.3,0-0.4,0c-0.2,0-0.3,0-0.5,0c-0.2,0-0.3,0-0.5,0c-0.2,0-0.3,0-0.4,0v5H46z M38.2,140.4c0.5,0,0.9-0.1,1.3-0.2
		c0.3-0.1,0.6-0.3,0.8-0.6c0.2-0.3,0.3-0.7,0.4-1.3c0.1-0.5,0.1-1.2,0.1-2.1c0-0.9,0-1.6-0.1-2.2s-0.2-1-0.4-1.3
		c-0.2-0.3-0.5-0.5-0.8-0.6c-0.3-0.1-0.8-0.2-1.3-0.2c-0.5,0-0.9,0.1-1.3,0.2s-0.6,0.3-0.8,0.6c-0.2,0.3-0.3,0.7-0.4,1.3
		c-0.1,0.5-0.1,1.3-0.1,2.2c0,0.9,0,1.6,0.1,2.1c0.1,0.5,0.2,1,0.4,1.3c0.2,0.3,0.5,0.5,0.8,0.6C37.3,140.3,37.7,140.4,38.2,140.4z
		 M38.2,143.3c-1,0-1.8-0.1-2.5-0.3c-0.7-0.2-1.3-0.5-1.8-1c-0.5-0.5-0.9-1.2-1.1-2.1c-0.2-0.9-0.4-2.1-0.4-3.6
		c0-1.5,0.1-2.7,0.4-3.6c0.2-0.9,0.6-1.6,1.1-2.1c0.5-0.5,1.1-0.8,1.8-1c0.7-0.2,1.6-0.3,2.5-0.3c1,0,1.8,0.1,2.6,0.3
		c0.7,0.2,1.3,0.5,1.8,1c0.5,0.5,0.9,1.2,1.1,2.1c0.2,0.9,0.4,2.1,0.4,3.6c0,1.5-0.1,2.7-0.4,3.6c-0.2,0.9-0.6,1.6-1.1,2.1
		c-0.5,0.5-1.1,0.8-1.8,1C40.1,143.2,39.2,143.3,38.2,143.3z M26.6,143.3c-0.8,0-1.5-0.1-2.1-0.3c-0.6-0.2-1.1-0.5-1.6-1
		c-0.4-0.5-0.8-1.2-1-2.2c-0.2-0.9-0.3-2.2-0.3-3.6c0-1.4,0.1-2.6,0.4-3.6c0.2-0.9,0.6-1.6,1-2.1c0.4-0.5,1-0.9,1.6-1.1
		c0.6-0.2,1.3-0.3,2.1-0.3c0.7,0,1.3,0,1.9,0.1c0.6,0.1,1.1,0.2,1.5,0.3c0.4,0.1,0.8,0.2,1.1,0.3v2.5c-0.2-0.1-0.5-0.1-0.9-0.2
		c-0.4-0.1-0.8-0.1-1.3-0.1c-0.5,0-1,0-1.6,0c-0.5,0-0.9,0.1-1.2,0.1c-0.3,0.1-0.6,0.3-0.8,0.6c-0.2,0.3-0.3,0.7-0.4,1.3
		c-0.1,0.5-0.1,1.3-0.1,2.2c0,0.8,0,1.5,0.1,2.1c0.1,0.5,0.2,1,0.4,1.3c0.2,0.3,0.4,0.5,0.8,0.6c0.3,0.1,0.8,0.2,1.3,0.2
		c0.9,0,1.7,0,2.3-0.1c0.6,0,1.1-0.1,1.4-0.1v2.5c-0.3,0.1-0.7,0.2-1.1,0.3c-0.4,0.1-0.9,0.1-1.5,0.2
		C28,143.2,27.4,143.3,26.6,143.3z"/>
	<path class="st2" d="M55.1,6.7c-0.9,1-6.5,14.4-7.5,16.7c-9.4,22.2-19.8,44.9-29.3,67.2c-4.3,10.1-4.3,6.9-0.1,11.5l4.3,4.7
		c6.7,5.9,4,6.4,8.8,6.3c5.3,0,27.4,0.3,29.9-0.1c1.3-2.3,4.6-12.8,5.7-14.3l29.2,0c1.5,1.8,4.4,11.4,5.9,14.4l33.1,0
		c-0.3-1.5-12.6-30.9-13.5-33.2c-7.7-18.9-15.8-39.1-23.7-58c-1.6-3.7-0.9-2.7-5.5-6c-2.4-1.7-4.5-3.3-6.8-5c-2.8-2-4.8-4.1-7.3-4.1
		C73.6,7,58.4,7.5,55.1,6.7 M87.4,18.8c-2.7,0.6-13,0.1-16.5,0.1c-1.9,0-2.3,0.1-3.3-0.9c-0.8-0.8-1.5-1.2-2.2-1.9
		c-1.1-1.2-3.6-2.9-4.2-4l14.6,0c2.5,0,2.2-0.2,3.8,1.1L87.4,18.8z M56.7,15.2c1.5,0.6,6.4,5.6,8.3,7.1l-34.7,85
		c-0.8-0.5-9-8.9-9.5-9.8L56.7,15.2z M69.3,78.7l24.3,0.1c0.2-1.3-8.9-23.9-10.3-27.4c-0.5-1.2-1.1-3.1-1.6-4.1
		c-0.9,0.4-2.9,6.4-3.4,7.7C77,58.6,69.2,77.8,69.3,78.7z M81.5,61l5,12.5l-9.8,0.1C76.8,72.4,80.9,62.1,81.5,61z M69.8,24l23.4,0.1
		l34.3,84c-6.7,0-15.9,0.2-22.2-0.1l-5.5-14.3l-36.5,0.1l-5.5,14.3l-22.3,0L69.8,24z"/>
</g>
</svg>
