<?xml version="1.0" encoding="utf-8"?>
<!-- Generator: Adobe Illustrator 24.0.2, SVG Export Plug-In . SVG Version: 6.00 Build 0)  -->
<svg version="1.1" id="Capa_1" xmlns="http://www.w3.org/2000/svg" xmlns:xlink="http://www.w3.org/1999/xlink" x="0px" y="0px"
	 viewBox="0 0 150 150" style="enable-background:new 0 0 150 150;" xml:space="preserve">
<style type="text/css">
	.st0{fill-rule:evenodd;clip-rule:evenodd;fill:transparent;}
	.st1{fill:#808080;}
</style>
<rect class="st0" width="150" height="150"/>
<g>
	<path class="st1" d="M108.3,144.9c-0.4,0-0.8,0-1.2,0c-0.4,0-0.8-0.1-1.2-0.1c-0.4,0-0.7-0.1-1.1-0.2c-0.4-0.1-0.7-0.1-1-0.2v-2.6
		c0.4,0,0.8,0.1,1.3,0.1c0.5,0,1,0,1.5,0.1c0.5,0,1,0,1.4,0c0.4,0,0.8,0,1.1-0.1c0.3-0.1,0.5-0.2,0.7-0.4c0.2-0.2,0.2-0.4,0.2-0.7
		v-0.4c0-0.3-0.1-0.6-0.3-0.8c-0.2-0.2-0.5-0.3-0.8-0.3h-1.1c-1.4,0-2.5-0.3-3.2-0.9c-0.7-0.6-1.1-1.6-1.1-3.1v-0.7
		c0-1.4,0.4-2.4,1.2-3c0.8-0.7,1.9-1,3.4-1c0.6,0,1.1,0,1.6,0.1c0.5,0.1,1,0.1,1.5,0.2c0.5,0.1,0.9,0.2,1.2,0.2v2.5
		c-0.6,0-1.2-0.1-1.9-0.1c-0.7,0-1.4-0.1-1.9-0.1c-0.4,0-0.7,0-1,0.1c-0.3,0.1-0.5,0.2-0.7,0.4c-0.2,0.2-0.2,0.4-0.2,0.8v0.3
		c0,0.4,0.1,0.7,0.3,0.9c0.2,0.2,0.6,0.3,1.1,0.3h1.3c0.9,0,1.6,0.2,2.1,0.5c0.6,0.3,1,0.8,1.3,1.3c0.3,0.6,0.4,1.2,0.4,1.9v0.7
		c0,1.2-0.2,2-0.6,2.6c-0.4,0.6-1,1-1.7,1.2C110.2,144.8,109.3,144.9,108.3,144.9 M96.3,142c0.5,0,0.9-0.1,1.3-0.2
		c0.3-0.1,0.6-0.3,0.8-0.6c0.2-0.3,0.3-0.7,0.4-1.3c0.1-0.5,0.1-1.2,0.1-2.1c0-0.9,0-1.6-0.1-2.2c-0.1-0.6-0.2-1-0.4-1.3
		c-0.2-0.3-0.5-0.5-0.8-0.6c-0.3-0.1-0.8-0.2-1.3-0.2c-0.5,0-0.9,0.1-1.3,0.2c-0.3,0.1-0.6,0.3-0.8,0.6c-0.2,0.3-0.3,0.7-0.4,1.3
		c-0.1,0.5-0.1,1.3-0.1,2.2c0,0.9,0,1.6,0.1,2.1c0.1,0.5,0.2,1,0.4,1.3c0.2,0.3,0.5,0.5,0.8,0.6C95.4,141.9,95.8,142,96.3,142z
		 M96.3,144.9c-1,0-1.8-0.1-2.5-0.3c-0.7-0.2-1.3-0.5-1.8-1c-0.5-0.5-0.9-1.2-1.1-2.1c-0.2-0.9-0.4-2.1-0.4-3.6
		c0-1.5,0.1-2.7,0.4-3.6c0.2-0.9,0.6-1.6,1.1-2.1c0.5-0.5,1.1-0.8,1.8-1c0.7-0.2,1.6-0.3,2.5-0.3c1,0,1.8,0.1,2.6,0.3
		c0.7,0.2,1.3,0.5,1.8,1c0.5,0.5,0.9,1.2,1.1,2.1c0.2,0.9,0.4,2.1,0.4,3.6c0,1.5-0.1,2.7-0.4,3.6c-0.2,0.9-0.6,1.6-1.1,2.1
		c-0.5,0.5-1.1,0.8-1.8,1C98.1,144.8,97.3,144.9,96.3,144.9z M79.2,130.1c0-0.6,0.2-1.1,0.3-1.5c0.2-0.4,0.4-0.6,0.7-0.8
		c0.3-0.2,0.6-0.3,1-0.3c0.3,0,0.6,0,0.8,0.1c0.2,0.1,0.5,0.2,0.7,0.3c0.2,0.1,0.4,0.2,0.6,0.3c0.2,0.1,0.4,0.1,0.6,0.1
		c0.2,0,0.4-0.1,0.5-0.2c0.1-0.2,0.2-0.4,0.2-0.7h1.6c0,0.9-0.2,1.6-0.6,2c-0.3,0.4-0.8,0.7-1.4,0.7c-0.3,0-0.6,0-0.8-0.1
		c-0.3-0.1-0.5-0.2-0.7-0.3c-0.2-0.1-0.4-0.2-0.6-0.3c-0.2-0.1-0.4-0.1-0.6-0.1c-0.2,0-0.4,0.1-0.5,0.2c-0.1,0.2-0.2,0.3-0.2,0.6
		H79.2z M77.5,144.8v-13.9h2.6l5.3,8.4v-8.4h3.2v13.9h-2.6l-5.3-8.4v8.4H77.5z M69.7,144.9c-0.3,0-0.7,0-1.1-0.1
		c-0.4-0.1-0.8-0.2-1.2-0.4c-0.4-0.2-0.7-0.5-0.9-1c-0.2-0.4-0.4-1-0.4-1.8v-7.5c0-0.6,0.1-1.2,0.3-1.6c0.2-0.4,0.5-0.8,0.8-1
		c0.3-0.2,0.7-0.4,1.1-0.5c0.4-0.1,0.8-0.2,1.2-0.2c1,0,1.9,0,2.6,0c0.7,0,1.4,0.1,1.9,0.1c0.6,0,1.1,0.1,1.5,0.1v2.7h-5.1
		c-0.3,0-0.6,0.1-0.8,0.2c-0.2,0.2-0.3,0.4-0.3,0.7v1.5l5.3,0.2v2.6l-5.3,0.2v1.5c0,0.3,0,0.5,0.1,0.6c0.1,0.2,0.2,0.3,0.4,0.3
		c0.2,0.1,0.3,0.1,0.5,0.1h5.2v2.7c-0.5,0.1-1.2,0.1-1.8,0.2c-0.7,0.1-1.4,0.1-2.1,0.1C71,144.8,70.3,144.9,69.7,144.9z M59.3,144.9
		c-0.4,0-0.8,0-1.2,0c-0.4,0-0.8-0.1-1.2-0.1c-0.4,0-0.7-0.1-1.1-0.2c-0.4-0.1-0.7-0.1-1-0.2v-2.6c0.4,0,0.8,0.1,1.3,0.1
		c0.5,0,1,0,1.5,0.1c0.5,0,1,0,1.4,0c0.4,0,0.8,0,1.1-0.1c0.3-0.1,0.5-0.2,0.7-0.4c0.2-0.2,0.2-0.4,0.2-0.7v-0.4
		c0-0.3-0.1-0.6-0.3-0.8c-0.2-0.2-0.5-0.3-0.8-0.3H59c-1.4,0-2.5-0.3-3.2-0.9c-0.7-0.6-1.1-1.6-1.1-3.1v-0.7c0-1.4,0.4-2.4,1.2-3
		c0.8-0.7,1.9-1,3.4-1c0.6,0,1.1,0,1.6,0.1c0.5,0.1,1,0.1,1.5,0.2c0.5,0.1,0.9,0.2,1.2,0.2v2.5c-0.6,0-1.2-0.1-1.9-0.1
		c-0.7,0-1.4-0.1-1.9-0.1c-0.4,0-0.7,0-1,0.1c-0.3,0.1-0.5,0.2-0.7,0.4c-0.2,0.2-0.2,0.4-0.2,0.8v0.3c0,0.4,0.1,0.7,0.3,0.9
		c0.2,0.2,0.6,0.3,1.1,0.3h1.3c0.9,0,1.6,0.2,2.1,0.5s1,0.8,1.3,1.3c0.3,0.6,0.4,1.2,0.4,1.9v0.7c0,1.2-0.2,2-0.6,2.6
		c-0.4,0.6-1,1-1.7,1.2C61.2,144.8,60.4,144.9,59.3,144.9z M49.6,144.8v-13.9h3.2v13.9H49.6z M40,141.9h2.5c0.5,0,0.9-0.1,1.2-0.4
		c0.3-0.3,0.5-0.7,0.6-1.3c0.1-0.6,0.2-1.4,0.2-2.3c0-0.9,0-1.6-0.1-2.1c-0.1-0.5-0.2-0.9-0.4-1.2c-0.2-0.3-0.4-0.5-0.6-0.6
		c-0.2-0.1-0.5-0.2-0.9-0.2H40V141.9z M36.7,144.8v-13.9h6c1,0,1.8,0.2,2.4,0.5c0.6,0.3,1.1,0.8,1.5,1.5c0.4,0.6,0.6,1.4,0.8,2.2
		c0.1,0.9,0.2,1.8,0.2,2.8c0,1.6-0.2,2.9-0.5,3.9c-0.4,1-0.9,1.8-1.6,2.3c-0.7,0.5-1.7,0.7-2.8,0.7H36.7z"/>
	<path class="st1" d="M39.4,106.3h71.1c1.3,0,2.3,1,2.3,2.3v3.9c0,1.3-1,2.3-2.3,2.3H39.4c-1.3,0-2.3-1-2.3-2.3v-3.9
		C37.1,107.3,38.2,106.3,39.4,106.3 M127.8,75.1c0,2.9-2.4,5.3-5.3,5.3H27.5c-2.9,0-5.3-2.4-5.3-5.3V17.4c0-2.9,2.4-5.3,5.3-5.3
		h95.1c2.9,0,5.3,2.4,5.3,5.3V75.1z M129.5,5.1h-109c-3,0-5.5,2.5-5.5,5.5v71.3c0,3,2.5,5.5,5.5,5.5h109c3,0,5.5-2.5,5.5-5.5V10.6
		C135,7.6,132.5,5.1,129.5,5.1z M99.1,40.7l-8-0.5c-0.3,0-0.7,0.1-0.9,0.3c-0.2,0.2-0.4,0.6-0.3,0.9l0.5,8c0,0.5,0.3,0.9,0.7,1
		l4.5,1.7c-0.2,0.4-0.1,0.9,0.3,1.3l2.8,2.8c0.2,0.2,0.5,0.3,0.8,0.3c0.3,0,0.6-0.1,0.8-0.3l5.6-5.6c0.2-0.2,0.3-0.5,0.3-0.8
		c0-0.3-0.1-0.6-0.3-0.8l-2.8-2.8c-0.3-0.3-0.9-0.4-1.3-0.3l-1.7-4.5C99.9,41,99.5,40.7,99.1,40.7z M100,47.6l-2.7,2.7l-4.7-1.8
		l-0.2-4.1l2.5,2.5c0.5,0.5,1.2,0.5,1.7,0c0.5-0.5,0.5-1.2,0-1.7L94,42.7l4.1,0.2L100,47.6z M84,39v5.9h-1.2c-0.6,0-1.2,0.5-1.2,1.2
		v4.7c0,0.6,0.5,1.2,1.2,1.2H84v5.9h-1.2c-0.6,0-1.2,0.5-1.2,1.2v4.7c0,0.6,0.5,1.2,1.2,1.2h4.7c0.6,0,1.2-0.5,1.2-1.2v-1.2h5.9v1.2
		c0,0.6,0.5,1.2,1.2,1.2h4.7c0.6,0,1.2-0.5,1.2-1.2v-1.2h5.9v1.2c0,0.6,0.5,1.2,1.2,1.2h4.7c0.6,0,1.2-0.5,1.2-1.2v-4.7
		c0-0.6-0.5-1.2-1.2-1.2h-1.2v-5.9h1.2c0.6,0,1.2-0.5,1.2-1.2v-4.7c0-0.6-0.5-1.2-1.2-1.2h-1.2V39h1.2c0.6,0,1.2-0.5,1.2-1.2v-4.7
		c0-0.6-0.5-1.2-1.2-1.2h-4.7c-0.6,0-1.2,0.5-1.2,1.2v1.2h-5.9v-1.2c0-0.6-0.5-1.2-1.2-1.2h-4.7c-0.6,0-1.2,0.5-1.2,1.2v1.2h-5.9
		v-1.2c0-0.6-0.5-1.2-1.2-1.2h-4.7c-0.6,0-1.2,0.5-1.2,1.2v4.7c0,0.6,0.5,1.2,1.2,1.2H84z M88.7,36.7h5.9v1.2c0,0.6,0.5,1.2,1.2,1.2
		h4.7c0.6,0,1.2-0.5,1.2-1.2v-1.2h5.9v1.2c0,0.6,0.5,1.2,1.2,1.2h1.2v5.9h-1.2c-0.6,0-1.2,0.5-1.2,1.2v4.7c0,0.6,0.5,1.2,1.2,1.2
		h1.2v5.9h-1.2c-0.6,0-1.2,0.5-1.2,1.2v1.2h-5.9v-1.2c0-0.6-0.5-1.2-1.2-1.2h-4.7c-0.6,0-1.2,0.5-1.2,1.2v1.2h-5.9v-1.2
		c0-0.6-0.5-1.2-1.2-1.2h-1.2v-5.9h1.2c0.6,0,1.2-0.5,1.2-1.2v-4.7c0-0.6-0.5-1.2-1.2-1.2h-1.2V39h1.2c0.6,0,1.2-0.5,1.2-1.2V36.7z
		 M49.8,41.2l4,4l2.5-3.7c0.3-0.5,0.9-0.8,1.5-0.8c0.6,0,1.2,0.3,1.5,0.7l7.4,7.5c0.2,0.3,0.4,0.7,0.4,1.1v5.6c0,1-0.8,1.9-1.9,1.9
		H42.9c-1,0-1.9-0.8-1.9-1.9V50c0-0.4,0.1-0.8,0.4-1.1l5.6-7.5c0.3-0.4,0.8-0.7,1.4-0.7C48.9,40.6,49.4,40.8,49.8,41.2z M69.1,57.5
		V35c0-1-0.8-1.9-1.9-1.9H41c-1,0-1.9,0.8-1.9,1.9v22.5c0,1,0.8,1.9,1.9,1.9h26.2C68.2,59.4,69.1,58.5,69.1,57.5z M60.5,102.8h29
		v-12h-29V102.8z"/>
</g>
</svg>
