<?xml version="1.0" encoding="utf-8"?>
<!-- Generator: Adobe Illustrator 24.0.2, SVG Export Plug-In . SVG Version: 6.00 Build 0)  -->
<svg version="1.1" id="Capa_1" xmlns="http://www.w3.org/2000/svg" xmlns:xlink="http://www.w3.org/1999/xlink" x="0px" y="0px"
	 viewBox="0 0 150 150" style="enable-background:new 0 0 150 150;" xml:space="preserve">
<style type="text/css">
	.st0{fill-rule:evenodd;clip-rule:evenodd;fill:#474747;transition: 0.6s;}
	.active{fill: #fff;}
</style>
<g>
	<path id="este" class="st0" d="M105,49.3H45c-2.4,0-4.3,1.9-4.3,4.3V105c0,2.4,1.9,4.3,4.3,4.3h60c2.4,0,4.3-1.9,4.3-4.3V53.6
		C109.3,51.2,107.4,49.3,105,49.3 M36.4,113.6h-4.3V75h-8.6v38.6h-4.3c-2.4,0-4.3,1.9-4.3,4.3s1.9,4.3,4.3,4.3h8.6h8.6
		c2.4,0,4.3-1.9,4.3-4.3S38.8,113.6,36.4,113.6z M130.7,113.6h-4.3V75h-8.6v38.6h-4.3c-2.4,0-4.3,1.9-4.3,4.3s1.9,4.3,4.3,4.3h8.6
		h8.6c2.4,0,4.3-1.9,4.3-4.3S133.1,113.6,130.7,113.6z M135,36.4v-4.3c0-2.4-1.9-4.3-4.3-4.3H19.3c-2.4,0-4.3,1.9-4.3,4.3v4.3
		C15,36.4,135,36.4,135,36.4z M15,40.7v25.7c0,2.4,1.9,4.3,4.3,4.3h17.1V49.2c0-2.3,2-4.2,4.3-4.2h68.6c2.3,0,4.3,1.9,4.3,4.2v21.6
		h17.1c2.4,0,4.3-1.9,4.3-4.3V40.7H15z M126.4,53.6c-2.4,0-4.3-1.9-4.3-4.3c0-2.4,1.9-4.3,4.3-4.3l0,0c2.4,0,4.3,1.9,4.3,4.3
		C130.7,51.6,128.8,53.6,126.4,53.6z M105,100.7c0,2.4-1.9,4.3-4.3,4.3H49.3c-2.4,0-4.3-1.9-4.3-4.3V87.9c0-0.9,0.3-1.8,0.9-2.6
		l12.9-17.1c0.7-1,1.9-1.6,3.1-1.7c1.3-0.1,2.5,0.4,3.3,1.3l9.2,9.2l5.8-8.5c0.8-1.2,2.1-1.9,3.5-1.9c1.4-0.1,2.7,0.6,3.5,1.7
		l17,17.1c0.6,0.7,0.9,1.6,0.9,2.6v12.7H105z"/>
</g>
</svg>
