<?xml version="1.0" encoding="utf-8"?>
<!-- Generator: Adobe Illustrator 24.0.2, SVG Export Plug-In . SVG Version: 6.00 Build 0)  -->
<svg version="1.1" id="Capa_1" xmlns="http://www.w3.org/2000/svg" xmlns:xlink="http://www.w3.org/1999/xlink" x="0px" y="0px"
	 viewBox="0 0 150 150" style="enable-background:new 0 0 150 150;" xml:space="preserve">
<style type="text/css">
	.st0{fill-rule:evenodd;clip-rule:evenodd;fill:transparent;}
	.st1{fill:#808080;}
</style>
<rect class="st0" width="150" height="150"/>
<g>
	<path class="st1" d="M113,137v-13.9h2.6l5.3,8.4v-8.4h3.2V137h-2.6l-5.3-8.4v8.4H113z M104.4,122.2l1.4-2.7h2.6l-2.1,2.7H104.4z
		 M105.2,134.2c0.5,0,0.9-0.1,1.3-0.2c0.3-0.1,0.6-0.3,0.8-0.6c0.2-0.3,0.3-0.7,0.4-1.3c0.1-0.5,0.1-1.2,0.1-2.1
		c0-0.9,0-1.6-0.1-2.2c-0.1-0.6-0.2-1-0.4-1.3c-0.2-0.3-0.5-0.5-0.8-0.6c-0.3-0.1-0.8-0.2-1.3-0.2c-0.5,0-0.9,0.1-1.3,0.2
		c-0.3,0.1-0.6,0.3-0.8,0.6c-0.2,0.3-0.3,0.7-0.4,1.3c-0.1,0.5-0.1,1.3-0.1,2.2c0,0.9,0,1.6,0.1,2.1c0.1,0.5,0.2,1,0.4,1.3
		c0.2,0.3,0.5,0.5,0.8,0.6C104.3,134.2,104.7,134.2,105.2,134.2z M105.2,137.1c-1,0-1.8-0.1-2.5-0.3c-0.7-0.2-1.3-0.5-1.8-1
		c-0.5-0.5-0.9-1.2-1.1-2.1c-0.2-0.9-0.4-2.1-0.4-3.6c0-1.5,0.1-2.7,0.4-3.6c0.2-0.9,0.6-1.6,1.1-2.1c0.5-0.5,1.1-0.8,1.8-1
		c0.7-0.2,1.6-0.3,2.5-0.3c1,0,1.8,0.1,2.6,0.3c0.7,0.2,1.3,0.5,1.8,1c0.5,0.5,0.9,1.2,1.1,2.1c0.2,0.9,0.4,2.1,0.4,3.6
		c0,1.5-0.1,2.7-0.4,3.6c-0.2,0.9-0.6,1.6-1.1,2.1c-0.5,0.5-1.1,0.8-1.8,1C107.1,137,106.2,137.1,105.2,137.1z M94.3,137v-13.9h3.2
		V137H94.3z M87.4,137.1c-0.4,0-0.8,0-1.2,0c-0.4,0-0.8-0.1-1.2-0.1c-0.4,0-0.7-0.1-1.1-0.2c-0.4-0.1-0.7-0.1-1-0.2v-2.6
		c0.4,0,0.8,0.1,1.3,0.1c0.5,0,1,0,1.5,0.1c0.5,0,1,0,1.4,0c0.4,0,0.8,0,1.1-0.1c0.3-0.1,0.5-0.2,0.7-0.4c0.2-0.2,0.2-0.4,0.2-0.7
		v-0.4c0-0.3-0.1-0.6-0.3-0.8c-0.2-0.2-0.5-0.3-0.8-0.3h-1.1c-1.4,0-2.5-0.3-3.2-0.9c-0.7-0.6-1.1-1.6-1.1-3.1V127
		c0-1.4,0.4-2.4,1.2-3c0.8-0.7,1.9-1,3.4-1c0.6,0,1.1,0,1.6,0.1c0.5,0.1,1,0.1,1.5,0.2c0.5,0.1,0.9,0.2,1.2,0.2v2.5
		c-0.6,0-1.2-0.1-1.9-0.1c-0.7,0-1.4-0.1-1.9-0.1c-0.4,0-0.7,0-1,0.1c-0.3,0.1-0.5,0.2-0.7,0.4c-0.2,0.2-0.2,0.4-0.2,0.8v0.3
		c0,0.4,0.1,0.7,0.3,0.9c0.2,0.2,0.6,0.3,1.1,0.3h1.3c0.9,0,1.6,0.2,2.1,0.5c0.6,0.3,1,0.8,1.3,1.3c0.3,0.6,0.4,1.2,0.4,1.9v0.7
		c0,1.2-0.2,2-0.6,2.6c-0.4,0.6-1,1-1.7,1.2C89.3,137,88.4,137.1,87.4,137.1z M75.4,137.1c-0.3,0-0.7,0-1.1-0.1
		c-0.4-0.1-0.8-0.2-1.2-0.4c-0.4-0.2-0.7-0.5-0.9-1c-0.2-0.4-0.4-1-0.4-1.8v-7.5c0-0.6,0.1-1.2,0.3-1.6c0.2-0.4,0.5-0.8,0.8-1
		c0.3-0.2,0.7-0.4,1.1-0.5c0.4-0.1,0.8-0.2,1.2-0.2c1,0,1.9,0,2.6,0c0.7,0,1.4,0.1,1.9,0.1c0.6,0,1.1,0.1,1.5,0.1v2.7h-5.1
		c-0.3,0-0.6,0.1-0.8,0.2c-0.2,0.2-0.3,0.4-0.3,0.7v1.5l5.3,0.2v2.6l-5.3,0.2v1.5c0,0.3,0,0.5,0.1,0.6c0.1,0.2,0.2,0.3,0.4,0.3
		c0.2,0.1,0.3,0.1,0.5,0.1h5.2v2.7c-0.5,0.1-1.2,0.1-1.8,0.2c-0.7,0.1-1.4,0.1-2.1,0.1C76.7,137.1,76,137.1,75.4,137.1z M63.2,129.5
		h2c0.2,0,0.4,0,0.6-0.1c0.2-0.1,0.3-0.2,0.5-0.3c0.1-0.1,0.2-0.3,0.3-0.6c0.1-0.2,0.1-0.5,0.1-0.8c0-0.3,0-0.6-0.1-0.8
		c-0.1-0.2-0.2-0.4-0.3-0.5c-0.1-0.1-0.3-0.2-0.5-0.3c-0.2-0.1-0.4-0.1-0.6-0.1h-2V129.5z M60,137v-13.9h5.9c0.6,0,1.1,0.1,1.6,0.2
		c0.5,0.1,0.9,0.4,1.3,0.7c0.4,0.3,0.7,0.8,0.9,1.4c0.2,0.6,0.3,1.3,0.3,2.2c0,0.6-0.1,1.1-0.2,1.6c-0.1,0.4-0.3,0.8-0.4,1.1
		c-0.2,0.3-0.4,0.5-0.6,0.7c-0.2,0.2-0.5,0.3-0.8,0.5l2.5,5.5h-3.3l-2.1-5c-0.1,0-0.3,0-0.4,0c-0.2,0-0.3,0-0.5,0
		c-0.2,0-0.3,0-0.5,0c-0.2,0-0.3,0-0.4,0v5H60z M51.5,130.1h2.4c0.3,0,0.5-0.1,0.7-0.2c0.2-0.2,0.3-0.4,0.4-0.7
		c0.1-0.3,0.1-0.7,0.1-1.2c0-0.5,0-0.8-0.1-1.1c-0.1-0.3-0.2-0.5-0.4-0.7c-0.2-0.1-0.4-0.2-0.7-0.2h-2.4V130.1z M48.2,137v-13.9h6
		c0.5,0,0.9,0.1,1.4,0.2c0.5,0.1,0.9,0.3,1.3,0.6c0.4,0.3,0.7,0.8,1,1.5c0.3,0.7,0.4,1.5,0.4,2.6c0,1.1-0.1,2-0.4,2.6
		c-0.2,0.7-0.6,1.2-1,1.5c-0.4,0.3-0.8,0.6-1.3,0.7c-0.5,0.1-0.9,0.2-1.4,0.2c-0.2,0-0.5,0-0.8,0c-0.3,0-0.5-0.1-0.8-0.1
		c-0.3,0-0.5-0.1-0.8-0.1c-0.2,0-0.4-0.1-0.6-0.1v4.4H48.2z M31,137l1.6-13.9h3.1l3,10.2l3-10.2h3l1.6,13.9h-3.1l-1.1-9.5l0.5,0
		l-2.4,9.5h-3l-2.5-9.5l0.5,0l-1.1,9.5H31z M25.9,137v-13.9h3.2V137H25.9z"/>
	<path class="st1" d="M105,34.3H45c-2.4,0-4.3,1.9-4.3,4.3V90c0,2.4,1.9,4.3,4.3,4.3h60c2.4,0,4.3-1.9,4.3-4.3V38.6
		C109.3,36.2,107.4,34.3,105,34.3 M36.4,98.6h-4.3V60h-8.6v38.6h-4.3c-2.4,0-4.3,1.9-4.3,4.3c0,2.4,1.9,4.3,4.3,4.3h8.6h8.6
		c2.4,0,4.3-1.9,4.3-4.3C40.7,100.5,38.8,98.6,36.4,98.6z M130.7,98.6h-4.3V60h-8.6v38.6h-4.3c-2.4,0-4.3,1.9-4.3,4.3
		c0,2.4,1.9,4.3,4.3,4.3h8.6h8.6c2.4,0,4.3-1.9,4.3-4.3C135,100.5,133.1,98.6,130.7,98.6z M135,21.4v-4.3c0-2.4-1.9-4.3-4.3-4.3
		H19.3c-2.4,0-4.3,1.9-4.3,4.3v4.3H135z M15,25.7v25.7c0,2.4,1.9,4.3,4.3,4.3h17.1V34.2c0-2.3,2-4.2,4.3-4.2h68.6
		c2.3,0,4.3,1.9,4.3,4.2v21.6h17.1c2.4,0,4.3-1.9,4.3-4.3V25.7H15z M126.4,38.6c-2.4,0-4.3-1.9-4.3-4.3c0-2.4,1.9-4.3,4.3-4.3h0
		c2.4,0,4.3,1.9,4.3,4.3C130.7,36.6,128.8,38.6,126.4,38.6z M105,85.7c0,2.4-1.9,4.3-4.3,4.3H49.3c-2.4,0-4.3-1.9-4.3-4.3V72.9
		c0-0.9,0.3-1.8,0.9-2.6l12.9-17.1c0.7-1,1.9-1.6,3.1-1.7c1.3-0.1,2.5,0.4,3.3,1.3l9.2,9.2l5.8-8.5c0.8-1.2,2.1-1.9,3.5-1.9
		c1.4-0.1,2.7,0.6,3.5,1.7l17,17.1c0.6,0.7,0.9,1.6,0.9,2.6V85.7z"/>
</g>
</svg>
