<?xml version="1.0" encoding="utf-8"?>
<!-- Generator: Adobe Illustrator 24.0.2, SVG Export Plug-In . SVG Version: 6.00 Build 0)  -->
<svg version="1.1" id="Capa_1" xmlns="http://www.w3.org/2000/svg" xmlns:xlink="http://www.w3.org/1999/xlink" x="0px" y="0px"
	 viewBox="0 0 221.7 150" style="enable-background:new 0 0 221.7 150;" xml:space="preserve">
<style type="text/css">
	.st0{fill-rule:evenodd;clip-rule:evenodd;fill:#FF0000;}
	.st1{fill-rule:evenodd;clip-rule:evenodd;}
</style>
<g>
	<path class="st0" d="M100.2,95.9c0,6.5-5.2,11.7-11.7,11.7c-2.1,0-4.1-0.6-5.9-1.6l-6.6,6.4c3.5,2.6,7.8,4.2,12.4,4.2
		c11.4,0,20.7-9.3,20.7-20.7c0-4.5-1.4-8.7-3.9-12l-6.6,6.4C99.6,91.9,100.2,93.8,100.2,95.9"/>
	<polygon class="st1" points="49.8,13.3 60.1,4.2 60.1,116.6 49.8,125.7 	"/>
	<path class="st1" d="M76.8,95.9c0-6.4,5.2-11.7,11.7-11.7c2,0,3.9,0.5,5.6,1.4l6.6-6.5c-3.4-2.5-7.6-4-12.2-4
		c-11.4,0-20.7,9.3-20.7,20.7c0,4.4,1.4,8.5,3.7,11.8l6.6-6.5C77.3,99.6,76.8,97.8,76.8,95.9"/>
	<path class="st1" d="M205.9,117.8h5.7V99.2c0-9.7-9.8-12.9-21.8-7.7l1.6,5.2c5.8-3.9,14.5-1.9,14.5,2.5v3.3
		c-0.8-2.1-5.6-2.6-9.1-2.3c-5,0.5-10.1,3.8-10.1,9.2c0,5,4.5,9,10.1,9c4,0,7.4-2,9.1-5V117.8z M205.6,110.6c-1,1.7-3.8,3.1-6.6,3.1
		c-3.8,0-5.9-1.9-5.9-4.6c0-4,5.8-5.2,9.8-4.6C205.7,105,207.4,107.5,205.6,110.6z"/>
	<path class="st1" d="M127.5,23c5.3,0.8,10.1,2.4,14.4,4.6l-3.2,6.4c-8.3-4.5-13.9-4.9-16.3-1c-1.5,3.5,3.9,6.5,13,9.1
		c7.3,2.5,10.8,9.5,6,15.9c-6.9,9.2-21.1,6.6-30,0.5l4.4-6.1c4.6,3.6,14.7,8.7,18.6,1.8c3.1-10.4-22.4-3.8-20.9-20.3
		C114.8,27.1,119.1,23.2,127.5,23"/>
	<path class="st1" d="M162.7,88.7c3.8,0.6,7.3,1.7,10.4,3.3l-2.3,4.6c-6-3.2-10-3.5-11.8-0.7c-1.1,2.5,2.8,4.7,9.4,6.6
		c5.3,1.8,7.8,6.8,4.3,11.5c-5,6.7-15.2,4.8-21.7,0.4l3.2-4.4c3.3,2.6,10.6,6.3,13.4,1.3c2.2-7.5-16.2-2.8-15.1-14.6
		C153.5,91.6,156.6,88.8,162.7,88.7"/>
	<path class="st1" d="M179.5,111.1c2,0,3.7,1.6,3.7,3.7c0,2-1.6,3.7-3.7,3.7c-2,0-3.7-1.6-3.7-3.7
		C175.8,112.7,177.5,111.1,179.5,111.1"/>
	<path class="st1" d="M217.4,111.1c2,0,3.7,1.6,3.7,3.7c0,2-1.6,3.7-3.7,3.7c-2,0-3.7-1.6-3.7-3.7
		C213.8,112.7,215.4,111.1,217.4,111.1"/>
	<path class="st1" d="M134,83.6l6.4-7.3h-13v-6.7H118v6.7h-4.7v7.3h4.7v21.3c0,12.3,10.7,13.3,19.9,9.7v-7.5
		c-6.1,2.6-10.5,2.3-10.5-4.5v-19H134z"/>
	<path class="st1" d="M197.6,23.9h9.8v9.4c3.2-7.5,8-10.2,13.7-10v10c-6.9-0.2-13.4,3.5-13.7,10.5v20.5h-9.8V23.9z"/>
	<path class="st1" d="M10.9,75.4H0.5v70.4h10.4v-35.9c3.3,4.4,8.1,7.2,13.5,7.2c9.9,0,18-9.4,18-21c0-11.6-8.1-21-18-21
		c-5.4,0-10.2,2.8-13.5,7.2V75.4z M10.6,95.9c0-7.3,5.1-13.2,11.3-13.2s11.3,5.9,11.3,13.2s-5.1,13.2-11.3,13.2
		S10.6,103.2,10.6,95.9z"/>
	<path class="st1" d="M95.1,64.2h8.2V37.7c0-13.9-14.1-18.4-31.1-11l2.3,7.5c8.2-5.5,20.7-2.7,20.7,3.6v4.7c-1.1-3-8-3.7-13-3.3
		c-7.1,0.6-14.4,5.4-14.4,13.2c0,7.1,6.5,12.8,14.4,12.8c5.7,0,10.6-2.9,12.9-7.2V64.2z M94.7,53.9c-1.4,2.4-5.4,4.5-9.5,4.5
		c-5.4,0-8.4-2.8-8.4-6.6c0-5.7,8.2-7.4,14-6.5C94.8,45.9,97.3,49.6,94.7,53.9z"/>
	<path class="st1" d="M181.4,52.6c-8.1,7.9-19.2,6.7-22.3-5.4l29.2,0v-5.5c0.4-16.3-17.8-23.5-29.2-15.4c-11.2,8-11.8,26.4,0,34.3
		c2.3,1.5,4.9,2.7,8,3.5c7.7,1.2,14.2-1.4,19.7-6.8L181.4,52.6z M179.7,41.3h-20.6c0-6.1,4.6-11,10.3-11
		C175.1,30.3,179.7,35.2,179.7,41.3z"/>
</g>
</svg>
