<?xml version="1.0" encoding="utf-8"?>
<!-- Generator: Adobe Illustrator 24.0.2, SVG Export Plug-In . SVG Version: 6.00 Build 0)  -->
<svg version="1.1" id="Capa_1" xmlns="http://www.w3.org/2000/svg" xmlns:xlink="http://www.w3.org/1999/xlink" x="0px" y="0px"
	 viewBox="0 0 150 150" style="enable-background:new 0 0 150 150;" xml:space="preserve">
<style type="text/css">
	.st0{fill-rule:evenodd;clip-rule:evenodd;fill:#474747;transition: 0.6s;}
	.active{fill: #fff;}
</style>
<g>
	<path id="este" class="st0" d="M26.7,97.4l4.6,7.7l59,30l33.3-19.1v-5.4l-33.2,19.2L26.7,97.4z M122.3,45.3L62.5,15L47.9,26.4l56.9,28.8
		L122.3,45.3z M104.9,78.8L52.1,52l14.8-8.5l-13.5-6.9L37.9,80.6L26.4,94.4l64,32.4l31.9-18.4l-5.6-2.8l6.8-58.1L106,57.4l-0.7,5.5
		l3.5,1.8L104.9,78.8z M99.9,95.8L48,69.4L62.6,61l40.9,20.7L99.9,95.8z M95.7,109.9L42.9,83.1l11.4-6.6l45.3,23L95.7,109.9z"/>
</g>
</svg>
