<?xml version="1.0" encoding="utf-8"?>
<!-- Generator: Adobe Illustrator 24.0.2, SVG Export Plug-In . SVG Version: 6.00 Build 0)  -->
<svg version="1.1" id="Capa_1" xmlns="http://www.w3.org/2000/svg" xmlns:xlink="http://www.w3.org/1999/xlink" x="0px" y="0px"
	 viewBox="0 0 150 150" style="enable-background:new 0 0 150 150;" xml:space="preserve">
<style type="text/css">
	.st0{fill-rule:evenodd;clip-rule:evenodd;fill:#474747;transition: 0.6s;}
	.active{fill: #fff;}
</style>
<g>
	<path id="este" class="st0" d="M62.9,23.3h24.8c0,0.7-0.1,1.2-0.3,1.8l-2.7,4.8c-0.6,0.6-1.1,1.2-1.9,1.7l-0.3,0.3c0,0,0,0-0.1,0h-0.1
		l-1.2,0.7c-0.1,0-0.2,0.1-0.2,0.1L80,33h-0.1c0,0-0.1,0.1-0.2,0.1c-0.2,0.1-0.4,0.1-0.5,0.2h-0.1l-1.6,0.4c-0.7,0.1,0.2,0-0.5,0.2
		c-0.7,0.1-3.4,0.1-4-0.1l-1.7-0.4h-0.1h-0.1L68.3,32h-0.1h-0.1c0,0,0,0-0.1,0l-0.3-0.2h-0.1c-0.1-0.1-0.1,0-0.2-0.1
		c-0.2-0.1,0,0-0.2-0.1c-0.5-0.4-1.2-1.3-2.1-0.9l-0.4,0.2c-0.7,0.4-1,0.9-0.9,1.8c0,0.5,0.1,0.6,0.4,1l3.7,2.6H68l1.5,0.7h0.1
		l1.7,0.6h0.1l1.9,0.3c0.8,0.1-0.1,0.2,2.5,0.2c1.2,0,1.2-0.2,1.9-0.2c0.2,0,0.5,0,0.7,0l2.7-0.8h0.1h0.1l4.9-2.9l0.2-0.2l3.5-4.6
		l1-2.3c0-0.1,0.1-0.4,0.2-0.5v-0.1l0.3-1c0.1-0.4,0-0.2,0.1-0.6c0.1-0.8,0.2-0.5,0.2-1.2h2.1c0,1.6-0.1,1-0.2,1.9L90.2,33
		c-0.9,1.2-0.9,1.2-2.1,2.3l-3,1.7H85h-0.1l-0.3,0.3c0,0,0,0-0.1,0l-2.7,1.3c-0.7,0.2-1.4,0.5-2,0.7c-0.5,0.1-0.8,0.2-1.4,0.2
		c-1,0-0.2,0.1-0.9,0.2h-4.3c-0.6,0-0.3-0.2-1.4-0.2h-0.5h-0.1L69.5,39h-0.1h-0.1h-0.1l-1-0.4c0,0-0.1-0.1-0.2-0.1h-0.1h-0.1
		c-0.3-0.2,0.2,0.1-0.2-0.1l-2.2-1.2h-0.1h-0.1l-0.8-0.5c-0.1,0-0.3-0.2-0.3-0.3L64,36.3c-1-0.6-2.1-1.9-2.9-2.8
		c-0.1-0.1-0.2-0.2-0.3-0.3l-1-1.4c0,0-0.1-0.1-0.2-0.2l-1.3-2.3v-0.1l-0.6-1.6c-0.2-0.7-0.5-1.5-0.6-2.2c0-0.2,0-0.2-0.1-0.4V25
		v-0.1l-0.1-1.4H59V24v0.1l0.7,2.7c0,0,0.1,0.1,0.2,0.2c0,0,0.2,0.2,0.3,0.2l0.2,0.1c1.4,0.7,1.8-0.5,2.5-0.8v-2.3
		c-0.3-0.1-0.2,0-0.2-0.3C62.9,23.8,62.9,23.4,62.9,23.3 M94.2,98C94.9,97.7,93.9,98.1,94.2,98L94.2,98L94.2,98L94.2,98L94.2,98
		L94.2,98z M42.3,36.7v18c-0.2,0.1-0.1,0-0.3,0.2c-0.3,0.2,0,0-0.2,0.2l-7.2,7.2c-0.2,0.2-0.4,0.3-0.5,0.6h-0.8
		c-0.1-0.2,0-0.1-0.1-0.2L21.3,50.8c-0.4-0.4-1.3-1.5-1.8-1.7v-0.7L20,48l0.2-0.2l1.2-1.2C27,41,32.6,35.5,38.1,29.9
		c0.4-0.4,0.9-0.6,1.3-1.1c0.1-0.1,0.1-0.1,0.2-0.2l1.1-0.8c0.2-0.1,0.1-0.1,0.3-0.2c0.3-0.2,0.3-0.2,0.5-0.4
		c0.2-0.1,0.1-0.1,0.3-0.2l4.6-2.3c0.1,0,0.2-0.1,0.4-0.1h0.1H47l2.7-0.7c0.4-0.1,0.9,0,1.2-0.2c0.5-0.2,1.1-0.1,1.7-0.1
		c0.5,0,0.2-0.1,0.7-0.2l0.2,1.6c0,0.2,0,0.4,0,0.7l0.3,1.4v0.1l0.2,0.6v0.1V28l0.2,0.5v0.1l1.3,3v0.1l0.8,1.5c0,0,0,0,0,0.1
		l0.9,1.4c0.1,0.2,0.1,0.1,0.2,0.2l4.3,4.3c0.1,0.1,0.2,0.2,0.4,0.3l1.6,1.1h0.1h0.1l5.4,2.3h0.1l0.9,0.2c0.3,0.1,0.1,0.1,0.5,0.1
		c0.2,0,0.2,0,0.3,0l1.6,0.2c0.8,0,0.2,0.2,2.5,0.2c0.4,0,0.9,0,1.3,0c1,0,0.1-0.2,1-0.2c0.5,0,0.9,0.1,1.3-0.1l1.5-0.4
		c0.3-0.1,0.3,0,0.6-0.1c0,0,0.1-0.1,0.2-0.1s0.1,0,0.3-0.1l0.4-0.1h0.1l1.1-0.3h0.1l0.6-0.3h0.1h0.1H84h0.1h0.2l1.2-0.6h0.1
		l3.7-2.5h0.1l2.4-2.4c0.1-0.1,0.2-0.2,0.3-0.3l1.4-1.9c0.5-0.8,0.7-0.9,1-1.6c0-0.1,0.1-0.2,0.1-0.2l1.5-3.3v-0.1
		c0-0.1,0-0.2,0.1-0.3v-0.1l0.4-1.5v-0.1l0.1-0.4c0-0.1,0-0.2,0-0.3l0.1-0.4c0.1-0.5,0-0.8,0.2-1.2l0.3-1.2h0.1l0.4,0.1
		c0.5,0.1,1.4,0,1.8,0.1l0.8,0.1c0.6,0,1,0.2,1.6,0.4h0.1l1.9,0.5h0.1l1.2,0.5h0.1l1.4,0.7h0.1l0.6,0.3c0,0,0.1,0.1,0.2,0.1
		c0,0,0,0,0.1,0l1.2,0.7c0.5,0.3,0.4,0.4,0.8,0.6l2,1.6h0.1h0.1l18.2,18.1c0.3,0.3,0.6,0.7,1,0.9V49c-0.5,0.2-1.4,1.3-1.8,1.6
		l-11.7,11.7c-0.2,0.2-0.3,0.3-0.4,0.5h-0.7c-0.1-0.2,0-0.1-0.2-0.3l-0.8-0.8c-0.4-0.4-0.7-0.7-1.1-1.1c-0.6-0.6-5.7-5.9-6.2-6.1
		v-18c-0.3-0.1-0.5-0.4-0.8-0.6c-0.9-0.6-1.9-0.3-2.4,0.5c-0.3,0.5,0.2,0.2-0.3,0.4v37c-0.2,0.1-0.1,0-0.3,0.2l-1.7,1.4
		c-0.5,0.3-0.4,0.3-0.7,0.7c-0.1,0.2-0.4,0.4-0.5,0.6l-0.6,0.6c0,0-0.1,0.1-0.1,0.2l-0.1,0.2c0,0-0.1,0.1-0.1,0.2
		c-0.1,0.2-0.1,0.1-0.2,0.3c-0.5,0.6-0.6,1.2-0.9,1.9v0.1c-0.4,0.7-0.4,1.3-0.5,2.1c-0.1,0.7-0.2,0.2-0.2,1.8
		c-2.1,0-3.7-0.4-5.1,0.3l-0.2,0.1h-0.1l-1,1.1c-0.4,0.9-0.2,1.9-0.4,2.7c-0.2,0.7,0,1.6-0.1,2.2s-0.1-0.1-0.2,0.6
		c0,0.1,0,0.4,0,0.6c0,0.5,0.1,1.1,0,1.5s0.1,0.2-0.2,0.3v3.8l0.5,0.4c0.3,0.3,0.5,0.3,1,0.5h0.1c0.3,0.1,0.6-0.1,0.9-0.3l0,0l0,0
		l0,0l0,0l0,0l0.2-0.1c1.3-0.6,0.6-1.5,1-2.7c0-0.1,0,0.1,0.1-0.3c0.1-0.5,0-1.4,0-2c0.1-0.9,0.1,0.1,0.2-0.7c0.1-0.6-0.1-1.4,0-2
		c0.1-0.5,0.2-0.3,0.2-0.8c0-0.6,0-1.4,0-2H126l0.1,0.6c0.5,1.4-0.1,1.1,0.3,2.8c0.2,0.8-0.1,1.8,0.2,2.6c0,0.1,0-0.1,0.1,0.3
		c0.1,0.7-0.1,1.6,0.1,2.2c0.2,0.7,0.1,1.4,0.1,2.2l0.1,0.6c0.2,0.7,0,1.7,0.2,2.4c0.1,0.7,0-0.2,0.2,0.5c0.2,0.8-0.1,1.8,0.1,2.5
		l0.2,1.1c0,0.5-0.1,1,0.1,1.4c0.2,0.7,0.1,1.6,0.2,2.3c0.1,0.7,0,0.1,0.1,0.4c0.1,0.3,0.1,0.2,0.1,0.6c0,0.6-0.1,1.3,0,1.9
		c0.1,0.7,0-0.2,0.2,0.5c0.2,0.8-0.1,1.4,0.2,2.4c0.3,0.8-0.1,1.9,0.2,2.7c0,0.1,0-0.1,0.1,0.3c0.1,0.6-0.1,1.4,0,2
		c0.1,0.5,0.2,0.7,0.2,1.2c0,2.5,0.1,1.2,0.2,2.4c0.1,0.6-0.1,1.6,0.1,2.2c0.1,0.3,0-0.2,0.1,0.2h-37c0-0.2,0-0.5,0-0.7l0.2-0.6
		c0.2-0.7-0.1-1.6,0.1-2.3l0.2-0.5c0-0.5,0-1.2,0-1.7l0.2-0.8c0.2-0.6,0-1.5,0.1-2.1s0.2-0.5,0.2-1.4c0-2,0.3-1.5,0.2-2.9v-1.2
		c0.2-0.7,0.2-0.8,0.2-1.8c0-1.2,0.3-0.7,0.2-2.9l0.2-1c0.1-0.2,0.1,0,0.1-0.4c0-0.1,0-0.7,0-0.8c-0.1-0.8-0.7-0.9-0.9-1.5h-1.6
		c-0.1,0.3-0.1,0.2-0.4,0.3c-0.4,0.3-0.5,0.6-0.6,1l-0.2,0.8c0,0.4,0,0.8,0,1.2c-0.1,0.8-0.3,0.3-0.2,2v0.8
		c-0.1,0.4-0.1,0.1-0.1,0.3l-0.1,0.5c-0.1,0.8,0.2,1.6-0.1,2.3c-0.2,0.6,0,1.7-0.2,2.4l-0.1,0.3c-0.1,0.2-0.1,0.3-0.1,0.5
		c0,0.4,0,0.8,0,1.2c0,1-0.2,1.1-0.2,2.1h-7.3l-2.1-2.7h-0.1l-0.3-0.2h-0.1l-0.9-0.9c0,0-0.1-0.1-0.2-0.2l-1.3-1c-1-1-1.6-1.4-2-1.8
		l-0.5-0.4V99.2c-0.4-0.2-0.1-0.7-0.3-1.2l-0.9-3.1v-0.1c-0.3-0.5-0.4-1.1-0.7-1.6L71.5,91c-0.4-0.4-0.5-0.7-1.5-1.7
		c-0.6-0.6-1.1-1.2-1.8-1.6l-1.5-1.1h-0.1l-3-1.5h-0.1l-1.6-0.5c-0.2-0.1-0.2,0-0.4-0.1l-1.4-0.4H60c-0.8-0.2-3.1-0.1-3.9-0.1
		c0-0.3,0-0.7,0-0.9c-0.1-0.5-0.2-0.3-0.2-0.8c0-0.1,0-0.3,0-0.5l-0.1-0.4v-0.1l-1.1-1.7c-0.1-0.1-0.1-0.1-0.2-0.2l-1.8-1h-0.1
		l-0.3-0.2c-0.7-0.2-5.5-0.1-6.5-0.1c0-1.8,0.1-40.2,0-41l-1.5-1.4c-0.5-0.1-1,0.1-1.3,0.4c-0.2,0.1-0.1,0.1-0.2,0.2L42.3,36.7z
		 M108.4,76.3c0.6,0,0.3-0.1,0.5-0.2h0.1c0.6-0.1,0.2,0.1,1.1-0.2c0.1,0-0.1,0,0.3-0.1c1.4-0.2,1.6,0.2,2.2,0.2l2.8,0.9h0.1l1,0.7
		l0.1,0.1c0.1,0.1,0.1,0.1,0.2,0.2c1.4,1.4,1,0.8,1.8,2.2v0.1l0.4,0.7v0.1l0.2,0.4c0.2,0.5,0.1,0.4,0.2,0.7c0.2,0.9,0.2-0.1,0.2,1.8
		c-0.5,0-10.4,0.1-10.9-0.1c-0.2-0.1,0.1,0-0.3-0.2L108.4,76.3L108.4,76.3z M52.3,82.4V84h-6.6c0-0.3,0-0.9,0-1.2v-0.1l0.1-0.2
		c0.2-0.6,0.3-0.5,0.7-0.7l0.2-0.1c0.5-0.2,3.2-0.1,3.9-0.1c0.5,0,0.6,0,1,0.2C52.2,82.2,51.9,82.2,52.3,82.4z M104.8,78.8V84h-2.1
		c0-1.9-0.1-1,0.4-2.6l0.1-0.3V81l0.6-1.3C104.1,79.4,104.5,79,104.8,78.8z M64.8,89.9c0.6,0,0.3,0.1,0.8,0.4
		c0.4,0.3,0.3,0.1,0.7,0.6l2.1,2.2c0.1,0.1,0,0.1,0.1,0.2l0.8,1.2v0.1l0.2,0.4V95l0.9,2.4c0,0.1,0.1,0.2,0.1,0.4
		c0.4,1,0,0.6,0.3,1.3c0,0.1,0-0.1,0.1,0.3v11.7c-2.3,0-0.5,0.2-2.6,0.2c0-0.9,0.1-10.3-0.1-10.9c0,0-0.1-0.1-0.1-0.2
		c-0.2-0.6,0-0.7-0.1-1.2c0-0.3,0-0.1-0.1-0.3v-0.1v-0.1c-0.2-0.5,0.1-0.3-0.2-1.2l-1.4-4.6l-0.1-0.2l-0.4-0.7v-0.1
		c0,0-0.1-0.1-0.1-0.2C65.4,90.8,64.9,90.3,64.8,89.9c-0.3-0.1-0.2,0.1-0.2-0.2C64.8,89.7,64.7,89.6,64.8,89.9z M33.3,89.9
		c0,0.8,0.1,0.1-0.4,0.8c0,0,0,0,0,0.1l-1.5,2.8v0.1v0.1l-0.9,2.8v0.1l-0.3,1.7c-0.1,0.5-0.1,0-0.2,0.6c-0.1,0.5,0.1,0.9-0.1,1.4
		c-0.1,0.2-0.1-0.1-0.2,0.5v10.3c-1.6,0-0.1-0.2-2.6-0.2c0-1.1-0.2-11.2,0.1-12l1.1-3.7c0.2-0.6,0.2-0.4,0.4-0.7l0.4-0.7
		c0.3-0.6,0.4-0.4,0.6-0.8c0.3-0.4,0-0.2,0.5-0.7l0.2-0.2l1.5-1.5l0.2-0.2c0,0,0,0,0.1,0h0.1h0.1l0.2-0.1c0,0,0,0,0.1-0.1
		C33,89.9,32.8,89.9,33.3,89.9c0.1-0.3-0.1-0.2,0.2-0.2C33.5,89.9,33.6,89.8,33.3,89.9z M135.3,48.3v0.6c0,0.4-0.2,0.9-0.5,1.5
		c0,0-14.9,15.2-15.8,15.9l-0.8,0.6c0,0,0,0-0.1,0l-0.4,0.2c-0.5,0.2-1.2,0.2-1.7-0.1h-0.1l-0.9-0.5c-0.1-0.1-0.1-0.1-0.3-0.3
		l-5.8-5.8c-0.2-0.2-0.3-0.4-0.6-0.5v12.7c0.3,0,0.2,0,0.4-0.1c0.7-0.2,1.9-0.1,2.8-0.1c1.3,0,1.1,0,2,0.2c0.2,0,0.2,0,0.3,0
		l2.4,0.8h0.1l0.8,0.4c0,0,0,0,0.1,0c1.6,1,1.6,1.1,3,2.5l0.4,0.4c0.3,0.3-0.1-0.2,0.1,0.1l0.7,0.9v0.1l1.6,3.8
		c0.1,0.5,0.1,1,0.2,1.4l0.2,1c0.7,0,4-0.2,4.6,0.1c0,0,0.1,0.1,0.2,0.1h0.1c0.4,0.2,0.2,0,0.5,0.3c0.5,0.5,0.8,0.8,1,1.5l0.2,1.4
		c0,2,0.3,1.4,0.2,3l0.2,1.5c0.1,0.5,0.1,1.1,0,1.6c0,0.9,0.1,0.8,0.2,1.4c0.1,0.4,0,1.2,0,1.6l0.1,0.5c0.3,0.8,0,1.8,0.2,2.6v0.1
		c0.3,0.9-0.1,2,0.2,2.8c0.2,0.6,0,1.7,0.2,2.4v0.1v0.1c0.2,0.7,0.1,1.4,0.1,2.1c0,0.1,0,0.3,0,0.4c0.1,0.4,0.1,0.1,0.1,0.3
		c0.1,0.2,0-0.2,0.1,0.4c0,0.1,0,0.3,0,0.3c0,2.6,0.1,1.2,0.2,2.2c0.1,0.7-0.1,1.7,0.1,2.4c0.2,0.6,0.1,1.5,0.2,2.3
		c0.1,1,0.2-0.4,0.2,2.2c0,0.1,0,0.3,0,0.4c0.1,0.4,0.1,0.2,0.1,0.3c0.2,0.6,0,2,0.2,2.7c0.3,0.8,0,1.8,0.2,2.6l0.2,0.7
		c0,0.2,0,0.6,0,0.8c0,1-0.2,1.2,0.2,1.4v0.5c-0.6,0.2,0.1,0.7-0.8,1.6l-1.2,0.8H131h-0.1l-0.6,0.1c-0.2,0-0.5,0-0.7,0
		c-4.1,0-38.1,0.2-39,0c-0.3-0.1-0.2,0-0.3-0.1c-0.6-0.2-0.4-0.6-1.2-0.6c0-0.8,0.1-0.2-0.3-0.6c-0.3-0.5-0.4-0.9-0.4-1.5l0.2-1.3
		c0.2-0.7,0-1.6,0.1-2.2c0.1-0.5,0.2-0.2,0.2-0.7l-6.6,0.2c-0.5,0.2-0.1-0.1-0.3,0.5l-0.7,1.4c-0.3,0.5-1.1,1.3-1.6,1.6l-1.1,0.5
		c-0.2,0.1,0,0-0.3,0.1c-0.1,0.1-0.2,0.1-0.4,0.1l-0.3,0.1c-0.3,0.1-0.3,0-0.6,0.1l-3.7,0.8c-0.5,0.2-0.9,0.1-1.6,0.3
		c-0.4,0.1-0.3,0-0.7,0.1c-0.8,0.1,0.1,0.1-0.6,0.2c-0.6,0.1-0.4,0-1.3,0.2c-0.5,0.1-1.1,0-1.6,0.1l-0.5,0.2c-1,0.1-1,0.3-2.1,0.2
		c-0.3,0-0.5,0-0.8,0.1c-1.4,0.4-1.1,0-2.4,0.4c-0.2,0.1-0.1,0-0.3,0.1c-0.7,0.1-1.4-0.1-2.1,0c-0.7,0.2,0,0.2-1.7,0.2
		c-2.3,0-1.5,0.3-2.9,0.2c-2,0-12.4,0.2-13.2-0.1l-0.8-0.1c-0.5,0-1,0-1.5,0c-1.2,0-0.9-0.1-1.4-0.2c-0.6-0.1-1.5,0.1-2.1,0
		c-0.4-0.1-0.1-0.1-0.3-0.1c-0.5-0.2-1.7,0-2.3-0.2H33c-0.5-0.2-1.2,0-1.7-0.2h-0.1c-0.5-0.2-1.1,0-1.6-0.2h-0.1h-0.1l-1.5-0.2
		c-0.5-0.2-1-0.1-1.5-0.2c-0.4-0.1-0.2-0.1-0.3-0.1l-1.3-0.3c-0.4-0.1-0.9,0-1.3-0.2h-0.1l-2.3-0.5c-0.1,0,0,0-0.3-0.1
		c-0.4-0.1-0.3,0-0.7-0.1l-2.6-0.9c-0.7-0.3-1.4-1.1-1.6-1.4v-0.1l-0.1-0.2c0,0,0,0,0-0.1l-0.8-1.4c-0.1-0.4-0.2-0.8-0.3-1.3v-1.9
		l0,0c0.1-0.6,0.4-1.2,0.7-1.7c0,0,0.1-0.1,0.1-0.2c1-1.7,1.5-1.6,2.6-2.7c0.4-0.4,0.6-0.7,1-1l2.3-2c0.5-0.3,0.7-0.9,1.3-1.1v-12
		c0.4-0.2,0.2-0.5,0.2-0.9c0.1-1,0.1,0,0.2-0.8l1.3-3.9c0-0.1,0.1-0.1,0.1-0.2l0.1-0.2v-0.1l0.3-0.5v-0.1l1.1-1.6
		c0.1-0.1,0.2-0.2,0.3-0.3c0.6-0.9,1.5-1.6,2.3-2.4l5.6-3.4h0.1l3.6-1c1.1-0.3,2.9-0.2,4.1-0.2c0-1.3,0.2-1.5,0.2-2.8V59.8
		c-0.3,0.1-0.4,0.2-0.6,0.5c-1.2,1.2-5.4,5.6-6.2,6l-1,0.6h-0.1c-0.2,0-0.2,0-0.4,0.1c-0.3,0-0.7,0-1-0.1L18.9,53.5
		c-0.8-0.8-1.4-1.4-2.2-2.2l-1-1.3c-0.3-0.3-0.4-0.6-0.4-0.9v-0.8l0,0c0.1-0.5,0.1-0.3,0.3-0.7v-0.1v-0.1l0.1-0.2
		c0.2-0.4,0.6-0.7,0.9-1.1l2.8-2.8c1.5-1.5,2.9-2.9,4.4-4.4l11.1-11.1c0.8-0.8,1.2-1,1.5-1.3l0.6-0.6c0.3-0.3,0.6-0.4,0.9-0.7
		l4.1-2.7h0.1l1.1-0.5h0.2h0.1l2.4-1H46l2.8-0.8c0.2,0,0.3,0,0.4,0c1-0.1,0-0.2,0.9-0.2c0.4,0,0.7,0.1,1,0l0.2-0.1h0.1l0.6-0.1
		c5.6,0,46.2-0.2,46.9,0.1c0.5,0.2,0.9,0.1,1.5,0.2c0.3,0.1,0.2,0.1,0.3,0.1l3.6,0.9h0.1h0.1l1.5,0.5c0,0,0.1,0.1,0.2,0.1h0.1
		l0.8,0.4h0.1c0.9,0.3,1.4,0.7,2.2,1.2l0.8,0.4h0.1l0.8,0.5h0.1l1.7,1.3c0,0,0,0,0.1,0l0.3,0.2l0.3,0.2c0.5,0.4,0.8,0.9,1.4,1.2
		c0.4,0.2-0.2-0.2,0.1,0.1c0.8,0.6,2.2,2.2,3,3c5.3,5.4,10.7,10.8,16.1,16.1l0.7,0.9c0,0,0,0,0,0.1l0.4,0.7V48
		C135.3,48,135.3,48.1,135.3,48.3z M69.4,58.6v0.2c-1.1,0-7.1-0.2-8.1,0.1L59,60.7v0.1v0.1l-0.2,0.4c-0.3,0.6-0.2,2,0,2.5
		c0.2,0.6-0.1,0.4,0.4,0.8l0.3,0.4v0.1c0.1,0.2,0,0.1,0,0.3l1.3,0.7c0.6,0.4,1.1,1,1.7,1.3l1.4,1c0,0,0.1,0.1,0.2,0.2l1.3,0.9
		c0.4,0.3,0.1,0.2,0.5,0.3V70c-0.4,0.2-0.1-0.1-0.3,0.5l-0.1,0.3v0.1l-0.4,1.5v0.1L65,72.7v0.1v0.1V73l-0.5,1.6v0.1v0.1L64,76.2
		c-0.3,0.8-0.6,2.1-0.1,3l0.4,0.7V80l0.6,0.6c0.4,0.4,1,0.9,1.7,1c2.1,0.4,3.4-0.9,4.6-1.7c0.4-0.2-0.2,0.2,0.1-0.1l1.3-1
		c0.4-0.2,0.2-0.3,0.8-0.6l0.6-0.4c0.3-0.3,0.9-0.5,1-0.9h0.9c0.1,0.2,0.2,0.3,0.4,0.4l0.9,0.7h0.1l1.2,0.8c0,0,0,0,0.1,0l0.7,0.5
		l0.1,0.1l1.3,1c0,0,0,0,0.1,0h0.1l1.1,0.7h0.1l0.4,0.1c0.6,0.2,2,0.1,2.1,0.1l0.7-0.3c0.6-0.4,1.1-1,1.4-1.6l0.2-0.5
		c0.2-0.7,0.1-1.8-0.1-2.4l-0.1-0.5c0,0-0.1-0.1-0.1-0.2l-0.3-0.8V75l-0.2-0.6v-0.1c0-0.2-0.1-0.2-0.1-0.4l-0.5-1.4
		c-0.1-0.4,0,0.2-0.1-0.4c0-0.2,0-0.2-0.1-0.4L85,70.6c-0.2-0.6,0.1-0.4-0.3-0.6l2.7-2.2h0.1c0,0,0,0,0.1,0l3.5-2.5l0.7-1.1
		c0-0.1,0.1-0.3,0.1-0.4c0.1-0.4,0,0.2,0.1-0.3c0.2-0.9,0-1.8-0.2-2.3c0,0-0.1-0.1-0.1-0.2l-0.1-0.2v-0.1l-0.4-0.6L91,59.9
		c-0.1-0.1-0.1-0.1-0.2-0.2c-0.4-0.4-0.5-0.5-1-0.7l-0.9-0.3c-1-0.2-6.3,0-7.7,0v-0.2c-0.4-0.2-0.1,0-0.3-0.6l-0.1-0.2v-0.1
		l-0.6-1.9c0-0.1,0-0.1-0.1-0.2v-0.1L79,51.7c-0.3-0.7-0.7-1.1-1.2-1.6L77,49.6c-0.6-0.3-0.9-0.4-1.6-0.4c-0.2,0-0.7,0-0.9,0
		l-0.6,0.3h-0.1c-0.6,0.3-1.1,0.7-1.5,1.2c-0.1,0.2-0.1,0.1-0.2,0.3c0,0-0.1,0.1-0.1,0.2l-0.5,1.2c-0.2,0.7,0,0.2-0.2,0.7
		c-0.3,1.1-0.7,2.4-1.1,3.6l-0.3,1.1v0.1C69.7,58.3,69.8,58.5,69.4,58.6z M62.2,62.6c1.1,0,7,0.2,8.1-0.1h0.1
		c0.6-0.2,1.3-0.3,1.8-0.7l0.3-0.4c0,0,0,0,0-0.1c0,0,0,0,0.1-0.1c0.4-0.5,0.4-1,0.6-1.6v-0.1v-0.1l0.1-0.4V59l1.2-3.6v-0.1
		c0.2-0.6,0.5-1.3,0.5-1.9h0.5c0,0.3,0,0.3,0.1,0.5l1.4,4.3c0,0.1,0,0.1,0.1,0.2c0,0.1,0,0.1,0.1,0.3c0,0.1,0.1,0.2,0.1,0.3l0.2,0.6
		v0.1l1,2.2l1,0.6c1,0.4,2.3,0.4,3.4,0.4c1.9,0,3.7,0,5.6,0c-0.1,0.3-0.3,0.2-0.8,0.7l-4.2,3c-0.1,0.1-0.2,0.1-0.2,0.2l-0.7,0.5
		c-0.1,0.1,0,0-0.2,0.2l-1.1,0.8v0.1c-0.3,0.6-0.4,1.1-0.3,1.8c0.1,0.3,0.1,0.2,0.1,0.3v0.1l0.1,0.6v0.1v0.1v0.1l0.3,0.9
		c0,0.1,0.1,0.2,0.1,0.4v0.1l0.9,2.6v0.1l0.1,0.3v0.1l0.1,0.4l0.1,0.2l0.6,1.6c-0.9,0-0.6-0.2-1.3-0.7c0,0-0.1-0.1-0.2-0.1l-5.6-4
		h-0.1h-0.1H76h-0.1l-2.1,0.3h-0.1l-0.2,0.1c-0.4,0.2-0.6,0.5-1,0.8L71.8,75c-0.6,0.3-0.6,0.5-1,0.7h-0.1l-1.6,1.1H69l-1.3,1
		c-0.2,0.2-0.2,0.3-0.5,0.3c-0.1,0-0.3,0-0.5,0V78l2.5-8.4c0-0.1,0-0.3,0-0.3c0-0.1-0.4-1.3-1-1.7l-0.1-0.6c-0.1-0.1,0,0-0.2-0.2
		l-0.1-0.1l-0.6-0.4c-0.2-0.1-0.2-0.2-0.4-0.4c-0.2-0.1-0.1,0-0.2-0.1l-1.5-1.1c-0.1-0.1-0.1,0-0.2-0.1L62.2,62.6z M106.9,100.9
		h-5.4c-0.1,0.3,0.1,0-0.2,0.2l-0.6,0.3h-0.1l-0.6,0.7c0,0,0,0-0.1,0.1l-0.2,0.5c-0.4,0.8-0.4,0.6-0.3,1.7l0.2,0.7
		c0,0,0.1,0.1,0.1,0.2v0.1c0.3,0.5,0.6,1,1,1.3l0.2,0.1h0.1l1.6,1.1c0.4,0.3,0.3,0.3,0.9,0.7l0.6,0.3v0.7c-0.4,0.2-0.2,0.1-0.3,0.5
		l-0.5,1.4v0.1l-0.3,0.9c-0.2,0.7-0.4,1.1-0.3,1.9l0.2,0.7c0,0.1,0.1,0.2,0.1,0.2l0.8,1.1c0.2,0.1,0,0,0.2,0.1
		c1.3,0.8,2.4,0.8,3.6-0.1l1.1-0.7c0,0,0,0,0.1,0c0.1-0.1,0.2-0.2,0.3-0.3l1.5-1.1c0.2-0.2,0.2-0.1,0.3-0.4h0.5
		c0.1,0.3,0.4,0.5,0.6,0.7l0.2,0.1h0.1l1.9,1.4c0.1,0.1,0,0,0.2,0.2l1,0.6c0.2,0.1,0,0,0.2,0.1c0.3,0.1,1,0.1,1.4,0.1l2-1
		c0-0.3,0-0.2,0.1-0.4l0.3-0.7c0.3-0.9,0.3-1.2,0-2.1l-0.1-0.3c0-0.1-0.1-0.3-0.1-0.4l-0.5-1.5c-0.1-0.5,0-0.6-0.4-0.8v-0.9
		c0.4-0.2,0,0,0.5-0.3l2.2-1.6h0.1l0.3-0.3c0.4-0.3,1-0.6,1.3-1.6c0.1-0.3,0.4-1.1,0.2-1.5L122,102c-0.1-0.2,0-0.1-0.2-0.3
		c-0.2-0.3-0.2-0.2-0.5-0.4c-0.3-0.1-0.5-0.1-0.5-0.4h-5.4c0-0.2,0,0,0-0.2l-1.5-4.6c0,0-0.1-0.1-0.1-0.2l-1.8-1.2
		c0,0-0.1-0.1-0.2-0.1c-0.2-0.1-0.3-0.1-0.6-0.1c-0.5,0-0.8,0.1-1.2,0.3l-1.3,1l-0.4,0.8v0.1v0.1l-0.1,0.2c0,0-0.1,0.1-0.1,0.2
		L106.9,100.9z M104.4,104.4c0.9,0,3.6,0.2,4.4-0.2c0.6-0.3,0.9-0.8,1.2-1.3l0.7-1.8V101l0.6-1.3l0.2,0.5c0,0.1,0,0.2,0.1,0.3
		l0.5,1.5c0.2,0.5,0.3,1.1,0.7,1.5l0.9,0.7c0.8,0.4,3.6,0.2,4.4,0.2c-0.1,0.2,0,0.1-0.1,0.2c-0.2,0.2-0.1,0.1-0.3,0.2l-1.6,1.2
		c-0.5,0.5-1.3,0.7-1.5,1.4l0.5,3.9v0.1c0.1,0.4,0.3,0.7,0.4,1.2c-0.4-0.1-0.7-0.6-0.8-0.6l-2-1.4h-0.1l-1.3-0.5
		c-0.7-0.1-0.5,0.1-0.9,0.2l-0.2,0.1c-0.5,0.2-0.7,0.5-1.1,0.8l-0.7,0.5c0,0,0,0-0.1,0h-0.1l-0.4,0.2c-0.3,0.3-0.4,0.5-0.9,0.5
		l0.1-0.3v-0.1l0.5-1.4c0,0,0.1-0.1,0.1-0.2s0-0.1,0.1-0.3v-0.1c0.2-0.6,0.1-1.1,0.4-1.2v-0.5c-0.3-0.1-0.2-0.3-0.3-0.7
		c-0.1-0.3,0-0.1-0.1-0.4c0,0-0.1-0.3-0.2-0.3l-0.8-0.7h-0.1h-0.1l-0.6-0.4h-0.1h-0.1L104.4,104.4z M45.1,95v0.2
		c-1.1,0-2.2-0.1-3.3,0c-1,0.1,0,0.1-0.9,0.2c-0.3,0-0.6,0-0.8,0.2L40,95.6l-1.1,1.1c-0.2,0.4-0.2,0.3-0.3,0.7c0,0.2,0,0.8,0,1.1
		l0.2,0.8c0,0,0.1,0.1,0.1,0.2c0.2,0.4,0.5,0.6,0.8,0.9l1.2,1c0.3,0.2,0.1,0.1,0.4,0.2c0.3,0.2,0.1,0,0.4,0.2l0.7,0.5h0.1l0.3,0.2
		c0,0.8-0.1,1-0.4,1.6v0.1l-0.1,0.2l-0.1,0.2l-0.3,0.4v0.1l-0.4,1.4v0.1c-0.1,0.4-0.2,0.9-0.1,1.3l0.5,0.9c0.1,0.2,0,0,0.1,0.2
		l1.1,1c0.4,0.2,0.8,0.1,1.3,0.1l1-0.2c0,0,0.1-0.1,0.2-0.1h0.1l1.9-1.2c0.3-0.2,0.3-0.4,0.6-0.5h0.1l0.2-0.1
		c0.3-0.2,0.2-0.1,0.3-0.4h0.5c0.1,0.3,0.4,0.5,1,0.9h0.1c0.1,0.1,0.1,0,0.2,0.1l0.8,0.6h0.1l1,0.6c0.4,0.2,0.7,0.3,1.3,0.3
		c0.8,0,1.4-0.1,1.9-0.6c0.8-0.8,1.3-1.4,1.1-2.8c-0.1-0.5-0.2-0.6-0.3-1.1v-0.1l-0.4-1.2c-0.2-0.5-0.3-0.6-0.4-1.1
		c0-0.2,0-0.4,0-0.6l0.5-0.2h0.1l3-2.5l0.4-0.7c0-0.2,0-0.3,0.1-0.4c0.1-0.4-0.1-0.2,0.2-0.4v-0.4c-0.3-0.1-0.1,0-0.2-0.4l-0.4-1
		c-0.3-0.4-0.7-0.8-1.1-1c0,0,0,0-0.1,0c-0.4-0.2-0.7-0.1-1.1-0.2c-1.3-0.3-2.4-0.2-3.9-0.2v-0.2c-0.3-0.1-0.3-0.5-0.4-0.9
		c0-0.1,0-0.2-0.1-0.3v-0.1v-0.1l-0.1-0.2v-0.1l-0.3-0.6v-0.1l-0.8-1.8c-0.2-0.3-0.1-0.1-0.3-0.3l-0.4-0.4c-0.5-0.4-1-0.4-1.7-0.4
		l-1,0.2H48l-0.7,0.4h-0.1l-1.9,4.3C45.1,95.1,45.5,94.8,45.1,95z M52.3,105.3c-0.6,0-0.5-0.3-1.1-0.7l-0.8-0.5
		c-0.7-0.4-1.3-0.7-2.1-0.4l-0.6,0.4c-0.6,0.3-0.3,0.2-0.7,0.6c-0.3,0.3,0.2-0.2-0.1,0.1c-0.2,0.1-0.1,0-0.2,0.1h-0.1l-0.3,0.3
		c-0.3,0.2,0.2,0.2-0.5,0.2c0-0.3,0-0.3,0.1-0.5l0.5-3l-0.5-0.9c-0.2-0.3-1.5-1.2-1.7-1.3L43.7,99c0.9,0,2.4,0.2,3.1-0.1
		c0,0,0.1-0.1,0.2-0.1h0.1l0.7-0.6c0.1-0.1,0.2-0.2,0.3-0.3c0.3-0.3,0.3-0.7,0.4-1.1c0.2-0.7,0.4-0.9,0.4-1.5h0.4l0.5,1.8v0.1
		c0.2,0.7,0.4,0.8,0.9,1.3l0.2,0.2l0.8,0.4c0.1,0,0.4,0,0.6,0c0.8,0,1.6,0,2.3,0c-0.2,0.4,0.1,0-0.6,0.5l-0.6,0.4
		c-0.7,0.5-1.1,0.8-1.4,1.2l-0.1,0.2c-0.5,1-0.6,1-0.1,2.5C52.1,104.4,52.3,104.8,52.3,105.3z M45.8,105.3c-0.1,0.3,0.1,0.2-0.2,0.2
		C45.6,105.3,45.5,105.4,45.8,105.3z M52.3,105.3c0.3,0.1,0.2-0.1,0.2,0.2C52.3,105.5,52.4,105.6,52.3,105.3z M64.8,111.9
		c-2.5,0-1.3,0.3-3.3,0.2l-1,0.2c-0.7,0.2-1.6,0-2.3,0.1c-0.6,0.1-0.7,0.3-1.5,0.2c-0.6,0-1.2,0-1.8,0l-9.4,0.2
		c-0.6,0-1,0.1-1.3,0.6l-0.3,0.6c0,0.1,0,0.2-0.1,0.3l0.1,1.1v0.1v0.1v0.1c0,0,0.1,0.1,0.1,0.2c0.4,0.7,1.5,0.6,2.2,0.6H55
		c0.4,0,0.9,0.1,1.2-0.1h0.1l0.2-0.1c0.5-0.2,1.2-0.1,1.8-0.1c0.4,0,0.9,0.1,1.2,0c1.1-0.3,1.7,0,2.3-0.2l1.2-0.2c0.2,0,0.6,0,0.8,0
		c0.5-0.1,0.2-0.2,0.7-0.2c0.8-0.1,0.8,0,1.6-0.2c0.5-0.1,1.1,0,1.6-0.2c0.4-0.1,0.3-0.1,0.7-0.1c0.2,0,0.2,0,0.4,0
		c0.9-0.3,1.2-0.1,1.9-0.3c0.4-0.1,0.9,0,1.3-0.2c0.2-0.1-0.1,0,0.3-0.2l0.3,0.5c0,0,0,0,0.1,0.1l0.6,0.1h0.1c0.9,0.5,1.4,1.4,2.3,2
		l0.4,0.4c0.1,0.1,0.2,0.2,0.4,0.4l2.1,1.8l0.6,1c0.1,0.2,0.2,0.6,0.1,1l-0.6,1.3l-0.2,0.2c0,0,0,0-0.1,0.1l-1.2,0.6h-0.1l-5.3,1
		c-0.7,0.1,0.2,0-0.5,0.2l-1.2,0.2c-0.5,0.2-1,0-1.5,0.2s-1,0.1-1.5,0.2c-0.7,0.1,0.2,0.1-0.6,0.2c-0.5,0.1-0.9-0.1-1.4,0.1
		c-1,0.3-1.2,0-2,0.3c-0.6,0.2-1.7,0-2.3,0.1c-0.4,0.1-0.6,0.2-1.3,0.2c-0.4,0-1.1,0-1.5,0c-1.1,0.1,0.2,0.2-2.9,0.2
		c-0.5,0-1,0-1.5,0l-1.4,0.1c-0.1,0,0.1,0-0.3,0.1c-0.8,0.2-2,0-2.8,0c-0.9,0-2.2,0.2-3-0.1l-4.5-0.1c-1,0-0.6-0.3-2.8-0.2
		c-1.6,0-0.7-0.2-2.9-0.2c-0.9,0-0.6-0.2-2-0.2l-1.4-0.3c-0.2,0-0.6,0-0.8,0l-0.5-0.2c-0.3-0.1-0.5,0-0.8,0l-0.8-0.2
		c-0.4-0.1-1.1,0-1.5-0.2l-2.4-0.4c-0.7-0.1,0.2-0.1-0.6-0.2l-2.1-0.4h-0.1c-0.2-0.1-0.2,0-0.4-0.1c-0.1,0-0.2,0-0.3,0l-1.9-0.5
		c-0.3-0.1-0.1,0-0.3-0.2l-0.4-0.4c-0.3-0.3-0.4-0.6-0.5-1c-0.1-0.3-0.3-0.5-0.2-0.9l0.2-0.7v-0.1l1.6-1.7c0.2-0.1,0.1-0.1,0.2-0.2
		c0,0,0.1-0.1,0.2-0.2c0.2-0.2,0.3-0.3,0.4-0.4l0.9-0.7c0.2-0.1,0,0,0.2-0.1s0.1-0.1,0.2-0.2c0.6-0.6,1.1-1.2,1.8-1.6l1.2-1l0.3,0.1
		c0.7,0.1,0.5-0.1,1.6,0.2c0.4,0.1,0.7,0,1.1,0.1l0.6,0.2c0.4,0,0.8,0,1.2,0.1c0.6,0.2,1.2,0.1,1.7,0.3l1.1,0.1
		c0.8,0.1,0.5,0.3,1.3,0.2c0.8,0,1.1-0.2,1.3,0.2h2.1c0.2-0.5-0.2,0.2,0.1-0.2l0.6-0.3l0.2-0.6c0.3-0.5,0.4-0.3,0.1-1.1v-0.1
		c-0.2-0.5-0.4-1-0.9-1.2c-0.1-0.1-0.1,0-0.3-0.1h-0.1c-0.8-0.3-1.6,0-2.2-0.3h-0.1c-0.1,0,0.1,0-0.3-0.1c-0.6-0.1-1.3,0-1.8,0
		c0-1.2-0.1-10.9,0-11.7c0.1-0.7,0,0.2,0.2-0.5l0.2-1.3c0.1-0.2,0-0.1,0.1-0.3l1.3-3.7v-0.1l0.1-0.2v-0.1l1.7-2.7
		c0.7-0.8,1.5-1.6,2.4-2.2l0.4-0.3c0,0,0,0,0.1,0l0.2-0.1l1.7-0.7h0.1H42c0.2-0.1,0.1,0,0.3,0c0.6-0.1,1-0.2,1.8-0.2
		c1.5,0,10.3-0.2,11.1,0.1c0.3,0.1-0.2,0,0.4,0.1l3.2,1.3c0,0,0,0,0.1,0c0,0,0,0,0.1,0l0.6,0.5c0.5,0.5,0.8,0.4,1.2,1.1
		c0.3,0.5,0.8,0.7,1.1,1.2v0.1l1.8,3.4v0.1v0.1l0.1,0.3v0.1v0.1l0.2,0.5v0.1l0.1,0.2v0.1l0.2,0.5v0.1l0.2,0.9v0.1l0.1,1v0.1l0.1,0.3
		c0.1,0.2,0.1,0.4,0.1,0.6L64.8,111.9z"/>
</g>
</svg>
