<?xml version="1.0" encoding="utf-8"?>
<!-- Generator: Adobe Illustrator 24.0.2, SVG Export Plug-In . SVG Version: 6.00 Build 0)  -->
<svg version="1.1" id="Capa_1" xmlns="http://www.w3.org/2000/svg" xmlns:xlink="http://www.w3.org/1999/xlink" x="0px" y="0px"
	 viewBox="0 0 150 150" style="enable-background:new 0 0 150 150;" xml:space="preserve">
<style type="text/css">
	.st0{fill-rule:evenodd;clip-rule:evenodd;fill:transparent;}
	.st1{fill:#808080;}
	.st2{fill-rule:evenodd;clip-rule:evenodd;fill:#808080;}
</style>
<rect class="st0" width="150" height="150"/>
<g>
	<path class="st1" d="M133.9,145.4c-0.3,0-0.7,0-1.1-0.1c-0.4-0.1-0.8-0.2-1.2-0.4c-0.4-0.2-0.7-0.5-0.9-1c-0.2-0.4-0.4-1-0.4-1.8
		v-7.5c0-0.6,0.1-1.2,0.3-1.6c0.2-0.4,0.5-0.8,0.8-1c0.3-0.2,0.7-0.4,1.1-0.5c0.4-0.1,0.8-0.2,1.2-0.2c1,0,1.9,0,2.6,0
		c0.7,0,1.4,0.1,1.9,0.1c0.6,0,1.1,0.1,1.5,0.1v2.7h-5.1c-0.3,0-0.6,0.1-0.8,0.2c-0.2,0.2-0.3,0.4-0.3,0.7v1.5l5.3,0.2v2.6l-5.3,0.2
		v1.5c0,0.3,0,0.5,0.1,0.6c0.1,0.2,0.2,0.3,0.4,0.3c0.2,0.1,0.3,0.1,0.5,0.1h5.2v2.7c-0.5,0.1-1.2,0.1-1.8,0.2
		c-0.7,0.1-1.4,0.1-2.1,0.1C135.2,145.3,134.5,145.4,133.9,145.4 M123.5,145.4c-0.4,0-0.8,0-1.2,0c-0.4,0-0.8-0.1-1.2-0.1
		c-0.4,0-0.7-0.1-1.1-0.2c-0.4-0.1-0.7-0.1-1-0.2v-2.6c0.4,0,0.8,0.1,1.3,0.1c0.5,0,1,0,1.5,0.1c0.5,0,1,0,1.4,0
		c0.4,0,0.8,0,1.1-0.1c0.3-0.1,0.5-0.2,0.7-0.4c0.2-0.2,0.2-0.4,0.2-0.7v-0.4c0-0.3-0.1-0.6-0.3-0.8c-0.2-0.2-0.5-0.3-0.8-0.3h-1.1
		c-1.4,0-2.5-0.3-3.2-0.9c-0.7-0.6-1.1-1.6-1.1-3.1v-0.7c0-1.4,0.4-2.4,1.2-3c0.8-0.7,1.9-1,3.4-1c0.6,0,1.1,0,1.6,0.1
		c0.5,0.1,1,0.1,1.5,0.2c0.5,0.1,0.9,0.2,1.2,0.2v2.5c-0.6,0-1.2-0.1-1.9-0.1c-0.7,0-1.4-0.1-1.9-0.1c-0.4,0-0.7,0-1,0.1
		c-0.3,0.1-0.5,0.2-0.7,0.4c-0.2,0.2-0.2,0.4-0.2,0.8v0.3c0,0.4,0.1,0.7,0.3,0.9c0.2,0.2,0.6,0.3,1.1,0.3h1.3c0.9,0,1.6,0.2,2.1,0.5
		c0.6,0.3,1,0.8,1.3,1.3c0.3,0.6,0.4,1.2,0.4,1.9v0.7c0,1.2-0.2,2-0.6,2.6c-0.4,0.6-1,1-1.7,1.2
		C125.4,145.3,124.5,145.4,123.5,145.4z M113.8,145.3v-13.9h3.2v13.9H113.8z M104.2,142.4h2.5c0.5,0,0.9-0.1,1.2-0.4
		c0.3-0.3,0.5-0.7,0.6-1.3c0.1-0.6,0.2-1.4,0.2-2.3c0-0.9,0-1.6-0.1-2.1c-0.1-0.5-0.2-0.9-0.4-1.2c-0.2-0.3-0.4-0.5-0.6-0.6
		c-0.2-0.1-0.5-0.2-0.9-0.2h-2.5V142.4z M100.9,145.3v-13.9h6c1,0,1.8,0.2,2.4,0.5c0.6,0.3,1.1,0.8,1.5,1.5c0.4,0.6,0.6,1.4,0.8,2.2
		c0.1,0.9,0.2,1.8,0.2,2.8c0,1.6-0.2,2.9-0.5,3.9c-0.4,1-0.9,1.8-1.6,2.3c-0.7,0.5-1.7,0.7-2.8,0.7H100.9z M87.6,145.3v-13.9h2.6
		l5.3,8.4v-8.4h3.2v13.9h-2.6l-5.3-8.4v8.4H87.6z M78.5,139.8h2.9l-1.5-5.7L78.5,139.8z M73.7,145.3l4.2-13.9H82l4.2,13.9h-3.4
		l-0.7-2.5h-4.4l-0.7,2.5H73.7z M61.3,145.3v-13.9h3.2v5.6h4.6v-5.6h3.2v13.9h-3.2v-5.5h-4.6v5.5H61.3z M55,145.4
		c-0.8,0-1.5-0.1-2.1-0.3c-0.6-0.2-1.1-0.5-1.6-1c-0.4-0.5-0.8-1.2-1-2.2c-0.2-0.9-0.3-2.2-0.3-3.6c0-1.5,0.1-2.6,0.4-3.6
		c0.2-0.9,0.6-1.6,1-2.1c0.4-0.5,1-0.9,1.6-1.1c0.6-0.2,1.3-0.3,2.1-0.3c0.7,0,1.3,0,1.9,0.1c0.6,0.1,1.1,0.2,1.5,0.3
		c0.4,0.1,0.8,0.2,1.1,0.3v2.5c-0.2-0.1-0.5-0.1-0.9-0.2c-0.4-0.1-0.8-0.1-1.3-0.1c-0.5,0-1,0-1.6,0c-0.5,0-0.9,0.1-1.2,0.1
		c-0.3,0.1-0.6,0.3-0.8,0.6c-0.2,0.3-0.3,0.7-0.4,1.3c-0.1,0.6-0.1,1.3-0.1,2.2c0,0.8,0,1.5,0.1,2.1c0.1,0.5,0.2,1,0.4,1.3
		c0.2,0.3,0.4,0.5,0.8,0.6c0.3,0.1,0.8,0.2,1.3,0.2c1,0,1.7,0,2.3-0.1c0.6,0,1.1-0.1,1.4-0.1v2.5c-0.3,0.1-0.7,0.2-1.1,0.3
		c-0.4,0.1-0.9,0.1-1.5,0.2C56.3,145.3,55.7,145.4,55,145.4z M41.6,137.7h2c0.2,0,0.4,0,0.6-0.1c0.2-0.1,0.3-0.2,0.5-0.3
		c0.1-0.1,0.2-0.3,0.3-0.6c0.1-0.2,0.1-0.5,0.1-0.8s0-0.6-0.1-0.8c-0.1-0.2-0.2-0.4-0.3-0.5c-0.1-0.1-0.3-0.2-0.5-0.3
		c-0.2-0.1-0.4-0.1-0.6-0.1h-2V137.7z M38.4,145.3v-13.9h5.9c0.6,0,1.1,0.1,1.6,0.2c0.5,0.1,0.9,0.4,1.3,0.7
		c0.4,0.3,0.7,0.8,0.9,1.4c0.2,0.6,0.3,1.3,0.3,2.2c0,0.6-0.1,1.1-0.2,1.6c-0.1,0.4-0.3,0.8-0.5,1.1c-0.2,0.3-0.4,0.5-0.6,0.7
		c-0.2,0.2-0.5,0.4-0.8,0.5l2.5,5.5h-3.3l-2.1-5c-0.1,0-0.3,0-0.4,0c-0.2,0-0.3,0-0.5,0c-0.2,0-0.3,0-0.5,0c-0.2,0-0.3,0-0.4,0v5
		H38.4z M30.7,145.4c-0.3,0-0.7,0-1.1-0.1c-0.4-0.1-0.8-0.2-1.2-0.4c-0.4-0.2-0.7-0.5-0.9-1c-0.2-0.4-0.4-1-0.4-1.8v-7.5
		c0-0.6,0.1-1.2,0.3-1.6c0.2-0.4,0.5-0.8,0.8-1c0.3-0.2,0.7-0.4,1.1-0.5c0.4-0.1,0.8-0.2,1.2-0.2c1,0,1.9,0,2.6,0
		c0.7,0,1.4,0.1,1.9,0.1c0.6,0,1.1,0.1,1.5,0.1v2.7h-5.1c-0.3,0-0.6,0.1-0.8,0.2c-0.2,0.2-0.3,0.4-0.3,0.7v1.5l5.3,0.2v2.6l-5.3,0.2
		v1.5c0,0.3,0,0.5,0.1,0.6c0.1,0.2,0.2,0.3,0.4,0.3c0.2,0.1,0.3,0.1,0.5,0.1h5.2v2.7c-0.5,0.1-1.2,0.1-1.8,0.2
		c-0.7,0.1-1.4,0.1-2.1,0.1C31.9,145.3,31.3,145.4,30.7,145.4z M10.2,145.3l1.6-13.9h3.1l3,10.2l3-10.2h3l1.6,13.9h-3.1l-1.1-9.5
		l0.5,0l-2.4,9.5h-3l-2.5-9.5l0.5,0l-1.1,9.5H10.2z"/>
	<path class="st2" d="M62.6,8.2h24.8c0,0.7-0.1,1.2-0.3,1.8l-2.7,4.8c-0.6,0.6-1.1,1.2-1.9,1.7l-0.3,0.3c0,0,0,0-0.1,0
		c0,0-0.1,0-0.1,0l-1.2,0.7c-0.1,0-0.2,0.1-0.2,0.1l-0.9,0.4c0,0-0.1,0-0.1,0c0,0-0.1,0.1-0.2,0.1c-0.2,0.1-0.4,0.1-0.5,0.2
		c0,0-0.1,0-0.1,0l-1.6,0.4c-0.7,0.1,0.2,0-0.5,0.2c-0.7,0.1-3.4,0.1-4-0.1L71,18.4c0,0-0.1,0-0.1,0c0,0-0.1,0-0.1,0L68,16.9
		c0,0-0.1,0-0.1,0c0,0-0.1,0-0.1,0c0,0,0,0-0.1,0l-0.3-0.2c0,0-0.1,0-0.1,0c-0.1-0.1-0.1,0-0.2-0.1c-0.2-0.1,0,0-0.2-0.1
		c-0.5-0.4-1.2-1.3-2.1-0.9l-0.4,0.2c-0.7,0.4-1,0.9-0.9,1.8c0,0.5,0.1,0.6,0.4,1l3.7,2.6c0,0,0.1,0,0.1,0l1.5,0.7c0,0,0.1,0,0.1,0
		l1.7,0.6c0,0,0.1,0,0.1,0l1.9,0.3c0.8,0.1-0.1,0.2,2.5,0.2c1.2,0,1.2-0.2,1.9-0.2c0.2,0,0.5,0,0.7,0l2.7-0.8c0,0,0.1,0,0.1,0
		c0,0,0.1,0,0.1,0l4.9-2.9c0,0,0.2-0.2,0.2-0.2l3.5-4.6l1-2.3c0-0.1,0.1-0.4,0.2-0.5c0,0,0-0.1,0-0.1l0.3-1c0.1-0.4,0-0.2,0.1-0.6
		c0.1-0.8,0.2-0.5,0.2-1.2h2.1c0,1.6-0.1,1-0.2,1.9l-3.4,7.5c-0.9,1.2-0.9,1.2-2.1,2.3L84.8,22c0,0-0.1,0-0.1,0c0,0-0.1,0-0.1,0
		l-0.3,0.3c0,0,0,0-0.1,0l-2.7,1.3c-0.7,0.2-1.4,0.5-2,0.7c-0.5,0.1-0.8,0.2-1.4,0.2c-1,0-0.2,0.1-0.9,0.2l-4.3,0
		c-0.6,0-0.3-0.2-1.4-0.2L71,24.5c0,0-0.1,0-0.1,0L69.2,24c0,0-0.1,0-0.1,0c0,0-0.1,0-0.1,0c0,0-0.1,0-0.1,0l-1-0.4
		c0,0-0.1-0.1-0.2-0.1c0,0-0.1,0-0.1,0c0,0-0.1,0-0.1,0c-0.3-0.2,0.2,0.1-0.2-0.1l-2.2-1.2c0,0-0.1,0-0.1,0c0,0-0.1,0-0.1,0
		l-0.8-0.5c-0.1,0-0.3-0.2-0.3-0.3l-0.1-0.1c-1-0.6-2.1-1.9-2.9-2.8c-0.1-0.1-0.2-0.2-0.3-0.3l-1-1.4c0,0-0.1-0.1-0.2-0.2l-1.3-2.3
		c0,0,0-0.1,0-0.1l-0.6-1.6c-0.2-0.7-0.5-1.5-0.6-2.2c0-0.2,0-0.2-0.1-0.4c0,0,0-0.1,0-0.1c0,0,0-0.1,0-0.1l-0.1-1.4h2.1l0,0.5
		c0,0,0,0.1,0,0.1l0.7,2.7c0,0,0.1,0.1,0.2,0.2c0,0,0.2,0.2,0.3,0.2l0.2,0.1c1.4,0.7,1.8-0.5,2.5-0.8V9.1c-0.3-0.1-0.2,0-0.2-0.3
		C62.6,8.7,62.6,8.3,62.6,8.2 M93.9,82.9C94.6,82.6,93.6,83,93.9,82.9L93.9,82.9L93.9,82.9L93.9,82.9L93.9,82.9L93.9,82.9z M42,21.6
		v18c-0.2,0.1-0.1,0-0.3,0.2c-0.3,0.2,0,0-0.2,0.2l-7.2,7.2c-0.2,0.2-0.4,0.3-0.5,0.6H33c-0.1-0.2,0-0.1-0.1-0.2L21,35.7
		c-0.4-0.4-1.3-1.5-1.8-1.7v-0.7l0.5-0.3c0,0,0.2-0.2,0.2-0.2l1.2-1.2c5.6-5.6,11.2-11.1,16.7-16.7c0.4-0.4,0.9-0.6,1.3-1.1
		c0.1-0.1,0.1-0.1,0.2-0.2l1.1-0.8c0.2-0.1,0.1-0.1,0.3-0.2c0.3-0.2,0.3-0.2,0.5-0.4c0.2-0.1,0.1-0.1,0.3-0.2l4.6-2.3
		c0.1,0,0.2-0.1,0.4-0.1c0,0,0.1,0,0.1,0c0,0,0.1,0,0.1,0l2.7-0.7c0.4-0.1,0.9,0,1.2-0.2c0.5-0.2,1.1-0.1,1.7-0.1
		c0.5,0,0.2-0.1,0.7-0.2l0.2,1.6c0,0.2,0,0.4,0,0.7l0.3,1.4c0,0,0,0.1,0,0.1l0.2,0.6c0,0,0,0.1,0,0.1c0,0,0,0.1,0,0.1l0.2,0.5
		c0,0,0,0.1,0,0.1l1.3,3c0,0,0,0.1,0,0.1l0.8,1.5c0,0,0,0,0,0.1l0.9,1.4c0.1,0.2,0.1,0.1,0.2,0.2l4.3,4.3c0.1,0.1,0.2,0.2,0.4,0.3
		l1.6,1.1c0,0,0.1,0,0.1,0c0,0,0.1,0,0.1,0l5.4,2.3c0,0,0.1,0,0.1,0l0.9,0.2c0.3,0.1,0.1,0.1,0.5,0.1c0.2,0,0.2,0,0.3,0l1.6,0.2
		c0.8,0,0.2,0.2,2.5,0.2c0.4,0,0.9,0,1.3,0c1,0,0.1-0.2,1-0.2c0.5,0,0.9,0.1,1.3-0.1l1.5-0.4c0.3-0.1,0.3,0,0.6-0.1
		c0,0,0.1-0.1,0.2-0.1c0.1,0,0.1,0,0.3-0.1l0.4-0.1c0,0,0.1,0,0.1,0l1.1-0.3c0,0,0.1,0,0.1,0l0.6-0.3c0,0,0.1,0,0.1,0
		c0,0,0.1,0,0.1,0c0,0,0.1,0,0.1,0c0,0,0.1,0,0.1,0c0,0,0.2,0,0.2,0l1.2-0.6c0,0,0.1,0,0.1,0l3.7-2.5c0,0,0.1,0,0.1,0l2.4-2.4
		c0.1-0.1,0.2-0.2,0.3-0.3l1.4-1.9c0.5-0.8,0.7-0.9,1-1.6c0-0.1,0.1-0.2,0.1-0.2l1.5-3.3c0,0,0-0.1,0-0.1c0-0.1,0-0.2,0.1-0.3
		c0,0,0-0.1,0-0.1l0.4-1.5c0,0,0-0.1,0-0.1l0.1-0.4c0-0.1,0-0.2,0-0.3l0.1-0.4c0.1-0.5,0-0.8,0.2-1.2l0.3-1.2c0,0,0.1,0,0.1,0
		l0.4,0.1c0.5,0.1,1.4,0,1.8,0.1l0.8,0.1c0.6,0,1,0.2,1.6,0.4c0,0,0.1,0,0.1,0l1.9,0.5c0,0,0.1,0,0.1,0l1.2,0.5c0,0,0.1,0,0.1,0
		l1.4,0.7c0,0,0.1,0,0.1,0l0.6,0.3c0,0,0.1,0.1,0.2,0.1c0,0,0,0,0.1,0l1.2,0.7c0.5,0.3,0.4,0.4,0.8,0.6l2,1.6c0,0,0.1,0,0.1,0
		c0,0,0.1,0,0.1,0l18.2,18.1c0.3,0.3,0.6,0.7,1,0.9V34c-0.5,0.2-1.4,1.3-1.8,1.6l-11.7,11.7c-0.2,0.2-0.3,0.3-0.4,0.5h-0.7
		c-0.1-0.2,0-0.1-0.2-0.3l-0.8-0.8c-0.4-0.4-0.7-0.7-1.1-1.1c-0.6-0.6-5.7-5.9-6.2-6.1v-18c-0.3-0.1-0.5-0.4-0.8-0.6
		c-0.9-0.6-1.9-0.3-2.4,0.5c-0.3,0.5,0.2,0.2-0.3,0.4v37c-0.2,0.1-0.1,0-0.3,0.2l-1.7,1.4c-0.5,0.3-0.4,0.3-0.7,0.7
		c-0.1,0.2-0.4,0.4-0.5,0.6l-0.6,0.6c0,0-0.1,0.1-0.1,0.2l-0.1,0.2c0,0-0.1,0.1-0.1,0.2c-0.1,0.2-0.1,0.1-0.2,0.3
		c-0.5,0.6-0.6,1.2-0.9,1.9c0,0,0,0.1,0,0.1c-0.4,0.7-0.4,1.3-0.5,2.1c-0.1,0.7-0.2,0.2-0.2,1.8c-2.1,0-3.7-0.4-5.1,0.3l-0.2,0.1
		c0,0-0.1,0-0.1,0l-1,1.1c-0.4,0.9-0.2,1.9-0.4,2.7c-0.2,0.7,0,1.6-0.1,2.2c-0.1,0.6-0.1-0.1-0.2,0.6c0,0.1,0,0.4,0,0.6
		c0,0.5,0.1,1.1,0,1.5c-0.1,0.4,0.1,0.2-0.2,0.3v3.8l0.5,0.4c0.3,0.3,0.5,0.3,1,0.5c0,0,0.1,0,0.1,0c0.3,0.1,0.6-0.1,0.9-0.3l0,0
		l0,0l0,0l0,0l0,0l0.2-0.1c1.3-0.6,0.6-1.5,1-2.7c0-0.1,0,0.1,0.1-0.3c0.1-0.5,0-1.4,0-2c0.1-0.9,0.1,0.1,0.2-0.7
		c0.1-0.6-0.1-1.4,0-2c0.1-0.5,0.2-0.3,0.2-0.8c0-0.6,0-1.4,0-2h30.2l0.1,0.6c0.5,1.4-0.1,1.1,0.3,2.8c0.2,0.8-0.1,1.8,0.2,2.6
		c0,0.1,0-0.1,0.1,0.3c0.1,0.7-0.1,1.6,0.1,2.2c0.2,0.7,0.1,1.4,0.1,2.2l0.1,0.6c0.2,0.7,0,1.7,0.2,2.4c0.1,0.7,0-0.2,0.2,0.5
		c0.2,0.8-0.1,1.8,0.1,2.5l0.2,1.1c0,0.5-0.1,1,0.1,1.4c0.2,0.7,0.1,1.6,0.2,2.3c0.1,0.7,0,0.1,0.1,0.4c0.1,0.3,0.1,0.2,0.1,0.6
		c0,0.6-0.1,1.3,0,1.9c0.1,0.7,0-0.2,0.2,0.5c0.2,0.8-0.1,1.4,0.2,2.4c0.3,0.8-0.1,1.9,0.2,2.7c0,0.1,0-0.1,0.1,0.3
		c0.1,0.6-0.1,1.4,0,2c0.1,0.5,0.2,0.7,0.2,1.2c0,2.5,0.1,1.2,0.2,2.4c0.1,0.6-0.1,1.6,0.1,2.2c0.1,0.3,0-0.2,0.1,0.2h-37
		c0-0.2,0-0.5,0-0.7l0.2-0.6c0.2-0.7-0.1-1.6,0.1-2.3l0.2-0.5c0-0.5,0-1.2,0-1.7l0.2-0.8c0.2-0.6,0-1.5,0.1-2.1
		c0.1-0.6,0.2-0.5,0.2-1.4c0-2,0.3-1.5,0.2-2.9l0-1.2c0.2-0.7,0.2-0.8,0.2-1.8c0-1.2,0.3-0.7,0.2-2.9l0.2-1c0.1-0.2,0.1,0,0.1-0.4
		c0-0.1,0-0.7,0-0.8c-0.1-0.8-0.7-0.9-0.9-1.5h-1.6c-0.1,0.3-0.1,0.2-0.4,0.3c-0.4,0.3-0.5,0.6-0.6,1l-0.2,0.8c0,0.4,0,0.8,0,1.2
		c-0.1,0.8-0.3,0.3-0.2,2l0,0.8c-0.1,0.4-0.1,0.1-0.1,0.3L90,94.9c-0.1,0.8,0.2,1.6-0.1,2.3c-0.2,0.6,0,1.7-0.2,2.4l-0.1,0.3
		c-0.1,0.2-0.1,0.3-0.1,0.5c0,0.4,0,0.8,0,1.2c0,1-0.2,1.1-0.2,2.1H82l-2.1-2.7c0,0-0.1,0-0.1,0l-0.3-0.2c0,0-0.1,0-0.1,0l-0.9-0.9
		c0,0-0.1-0.1-0.2-0.2l-1.3-1c-1-1-1.6-1.4-2-1.8l-0.5-0.4V84.1c-0.4-0.2-0.1-0.7-0.3-1.2l-0.9-3.1c0,0,0-0.1,0-0.1
		c-0.3-0.5-0.4-1.1-0.7-1.6l-1.4-2.2c-0.4-0.4-0.5-0.7-1.5-1.7c-0.6-0.6-1.1-1.2-1.8-1.6l-1.5-1.1c0,0-0.1,0-0.1,0l-3-1.5
		c0,0-0.1,0-0.1,0l-1.6-0.5c-0.2-0.1-0.2,0-0.4-0.1L59.8,69c0,0-0.1,0-0.1,0c-0.8-0.2-3.1-0.1-3.9-0.1c0-0.3,0-0.7,0-0.9
		c-0.1-0.5-0.2-0.3-0.2-0.8c0-0.1,0-0.3,0-0.5l-0.1-0.4c0,0,0-0.1,0-0.1l-1.1-1.7c-0.1-0.1-0.1-0.1-0.2-0.2l-1.8-1c0,0-0.1,0-0.1,0
		L52,63.1c-0.7-0.2-5.5-0.1-6.5-0.1c0-1.8,0.1-40.2,0-41l-1.5-1.4c-0.5-0.1-1,0.1-1.3,0.4c-0.2,0.1-0.1,0.1-0.2,0.2L42,21.6z
		 M108.1,61.2c0.6,0,0.3-0.1,0.5-0.2c0,0,0.1,0,0.1,0c0.6-0.1,0.2,0.1,1.1-0.2c0.1,0-0.1,0,0.3-0.1c1.4-0.2,1.6,0.2,2.2,0.2l2.8,0.9
		c0,0,0.1,0,0.1,0l1,0.7c0,0,0.1,0.1,0.1,0.1c0.1,0.1,0.1,0.1,0.2,0.2c1.4,1.4,1,0.8,1.8,2.2c0,0,0,0.1,0,0.1l0.4,0.7
		c0,0,0,0.1,0,0.1l0.2,0.4c0.2,0.5,0.1,0.4,0.2,0.7c0.2,0.9,0.2-0.1,0.2,1.8c-0.5,0-10.4,0.1-10.9-0.1c-0.2-0.1,0.1,0-0.3-0.2V61.2z
		 M52,67.3v1.6h-6.6c0-0.3,0-0.9,0-1.2c0,0,0-0.1,0-0.1l0.1-0.2c0.2-0.6,0.3-0.5,0.7-0.7l0.2-0.1c0.5-0.2,3.2-0.1,3.9-0.1
		c0.5,0,0.6,0,1,0.2C51.9,67.1,51.6,67.1,52,67.3z M104.5,63.7v5.2h-2.1c0-1.9-0.1-1,0.4-2.6l0.1-0.3c0,0,0-0.1,0-0.1l0.6-1.3
		C103.8,64.3,104.2,63.9,104.5,63.7z M64.5,74.8c0.6,0,0.3,0.1,0.8,0.4c0.4,0.3,0.3,0.1,0.7,0.6l2.1,2.2c0.1,0.1,0,0.1,0.1,0.2
		l0.8,1.2c0,0,0,0.1,0,0.1l0.2,0.4c0,0,0,0.1,0,0.1l0.9,2.4c0,0.1,0.1,0.2,0.1,0.4c0.4,1,0,0.6,0.3,1.3c0,0.1,0-0.1,0.1,0.3l0,11.7
		c-2.3,0-0.5,0.2-2.6,0.2c0-0.9,0.1-10.3-0.1-10.9c0,0-0.1-0.1-0.1-0.2c-0.2-0.6,0-0.7-0.1-1.2c0-0.3,0-0.1-0.1-0.3c0,0,0-0.1,0-0.1
		c0,0,0-0.1,0-0.1c-0.2-0.5,0.1-0.3-0.2-1.2L66,77.7c0,0-0.1-0.2-0.1-0.2l-0.4-0.7c0,0,0-0.1,0-0.1c0,0-0.1-0.1-0.1-0.2
		C65.1,75.7,64.6,75.2,64.5,74.8c-0.3-0.1-0.2,0.1-0.2-0.2C64.5,74.6,64.4,74.5,64.5,74.8z M33,74.8c0,0.8,0.1,0.1-0.4,0.8
		c0,0,0,0,0,0.1l-1.5,2.8c0,0,0,0.1,0,0.1c0,0,0,0.1,0,0.1l-0.9,2.8c0,0,0,0.1,0,0.1l-0.3,1.7c-0.1,0.5-0.1,0-0.2,0.6
		c-0.1,0.5,0.1,0.9-0.1,1.4c-0.1,0.2-0.1-0.1-0.2,0.5l0,10.3c-1.6,0-0.1-0.2-2.6-0.2c0-1.1-0.2-11.2,0.1-12l1.1-3.7
		c0.2-0.6,0.2-0.4,0.4-0.7l0.4-0.7c0.3-0.6,0.4-0.4,0.6-0.8c0.3-0.4,0-0.2,0.5-0.7c0,0,0.2-0.2,0.2-0.2l1.5-1.5c0,0,0.2-0.2,0.2-0.2
		c0,0,0,0,0.1,0c0,0,0.1,0,0.1,0c0,0,0.1,0,0.1,0l0.2-0.1c0,0,0,0,0.1-0.1C32.7,74.8,32.5,74.8,33,74.8c0.1-0.3-0.1-0.2,0.2-0.2
		C33.2,74.8,33.3,74.7,33,74.8z M135,33.2v0.6c0,0.4-0.2,0.9-0.5,1.5c0,0-14.9,15.2-15.8,15.9l-0.8,0.6c0,0,0,0-0.1,0l-0.4,0.2
		c-0.5,0.2-1.2,0.2-1.7-0.1c0,0-0.1,0-0.1,0l-0.9-0.5c-0.1-0.1-0.1-0.1-0.3-0.3l-5.8-5.8c-0.2-0.2-0.3-0.4-0.6-0.5v12.7
		c0.3,0,0.2,0,0.4-0.1c0.7-0.2,1.9-0.1,2.8-0.1c1.3,0,1.1,0,2,0.2c0.2,0,0.2,0,0.3,0l2.4,0.8c0,0,0.1,0,0.1,0l0.8,0.4c0,0,0,0,0.1,0
		c1.6,1,1.6,1.1,3,2.5l0.4,0.4c0.3,0.3-0.1-0.2,0.1,0.1l0.7,0.9c0,0,0,0.1,0,0.1l1.6,3.8c0.1,0.5,0.1,1,0.2,1.4l0.2,1
		c0.7,0,4-0.2,4.6,0.1c0,0,0.1,0.1,0.2,0.1c0,0,0.1,0,0.1,0c0.4,0.2,0.2,0,0.5,0.3c0.5,0.5,0.8,0.8,1,1.5l0.2,1.4c0,2,0.3,1.4,0.2,3
		l0.2,1.5c0.1,0.5,0.1,1.1,0,1.6c0,0.9,0.1,0.8,0.2,1.4c0.1,0.4,0,1.2,0,1.6l0.1,0.5c0.3,0.8,0,1.8,0.2,2.6c0,0,0,0.1,0,0.1
		c0.3,0.9-0.1,2,0.2,2.8c0.2,0.6,0,1.7,0.2,2.4c0,0,0,0.1,0,0.1c0,0,0,0.1,0,0.1c0.2,0.7,0.1,1.4,0.1,2.1c0,0.1,0,0.3,0,0.4
		c0.1,0.4,0.1,0.1,0.1,0.3c0.1,0.2,0-0.2,0.1,0.4c0,0.1,0,0.3,0,0.3c0,2.6,0.1,1.2,0.2,2.2c0.1,0.7-0.1,1.7,0.1,2.4
		c0.2,0.6,0.1,1.5,0.2,2.3c0.1,1,0.2-0.4,0.2,2.2c0,0.1,0,0.3,0,0.4c0.1,0.4,0.1,0.2,0.1,0.3c0.2,0.6,0,2,0.2,2.7
		c0.3,0.8,0,1.8,0.2,2.6l0.2,0.7c0,0.2,0,0.6,0,0.8c0,1-0.2,1.2,0.2,1.4v0.5c-0.6,0.2,0.1,0.7-0.8,1.6l-1.2,0.8c0,0-0.1,0-0.1,0
		c0,0-0.1,0-0.1,0l-0.6,0.1c-0.2,0-0.5,0-0.7,0c-4.1,0-38.1,0.2-39,0c-0.3-0.1-0.2,0-0.3-0.1c-0.6-0.2-0.4-0.6-1.2-0.6
		c0-0.8,0.1-0.2-0.3-0.6c-0.3-0.5-0.4-0.9-0.4-1.5l0.2-1.3c0.2-0.7,0-1.6,0.1-2.2c0.1-0.5,0.2-0.2,0.2-0.7l-6.6,0.2
		c-0.5,0.2-0.1-0.1-0.3,0.5l-0.7,1.4c-0.3,0.5-1.1,1.3-1.6,1.6l-1.1,0.5c-0.2,0.1,0,0-0.3,0.1c-0.1,0.1-0.2,0.1-0.4,0.1l-0.3,0.1
		c-0.3,0.1-0.3,0-0.6,0.1l-3.7,0.8c-0.5,0.2-0.9,0.1-1.6,0.3c-0.4,0.1-0.3,0-0.7,0.1c-0.8,0.1,0.1,0.1-0.6,0.2
		c-0.6,0.1-0.4,0-1.3,0.2c-0.5,0.1-1.1,0-1.6,0.1l-0.5,0.2c-1,0.1-1,0.3-2.1,0.2c-0.3,0-0.5,0-0.8,0.1c-1.4,0.4-1.1,0-2.4,0.4
		c-0.2,0.1-0.1,0-0.3,0.1c-0.7,0.1-1.4-0.1-2.1,0c-0.7,0.2,0,0.2-1.7,0.2c-2.3,0-1.5,0.3-2.9,0.2c-2,0-12.4,0.2-13.2-0.1l-0.8-0.1
		c-0.5,0-1,0-1.5,0c-1.2,0-0.9-0.1-1.4-0.2c-0.6-0.1-1.5,0.1-2.1,0c-0.4-0.1-0.1-0.1-0.3-0.1c-0.5-0.2-1.7,0-2.3-0.2
		c0,0-0.1,0-0.1,0c-0.5-0.2-1.2,0-1.7-0.2c0,0-0.1,0-0.1,0c-0.5-0.2-1.1,0-1.6-0.2c0,0-0.1,0-0.1,0c0,0-0.1,0-0.1,0l-1.5-0.2
		c-0.5-0.2-1-0.1-1.5-0.2c-0.4-0.1-0.2-0.1-0.3-0.1l-1.3-0.3c-0.4-0.1-0.9,0-1.3-0.2c0,0-0.1,0-0.1,0l-2.3-0.5c-0.1,0,0,0-0.3-0.1
		c-0.4-0.1-0.3,0-0.7-0.1l-2.6-0.9c-0.7-0.3-1.4-1.1-1.6-1.4c0,0,0-0.1,0-0.1l-0.1-0.2c0,0,0,0,0-0.1l-0.8-1.4
		c-0.1-0.4-0.2-0.8-0.3-1.3v-1.9l0,0c0.1-0.6,0.4-1.2,0.7-1.7c0,0,0.1-0.1,0.1-0.2c1-1.7,1.5-1.6,2.6-2.7c0.4-0.4,0.6-0.7,1-1l2.3-2
		c0.5-0.3,0.7-0.9,1.3-1.1V84.4c0.4-0.2,0.2-0.5,0.2-0.9c0.1-1,0.1,0,0.2-0.8l1.3-3.9c0-0.1,0.1-0.1,0.1-0.2l0.1-0.2
		c0,0,0-0.1,0-0.1l0.3-0.5c0,0,0-0.1,0-0.1l1.1-1.6c0.1-0.1,0.2-0.2,0.3-0.3c0.6-0.9,1.5-1.6,2.3-2.4L34,70c0,0,0.1,0,0.1,0l3.6-1
		c1.1-0.3,2.9-0.2,4.1-0.2c0-1.3,0.2-1.5,0.2-2.8l0-21.3c-0.3,0.1-0.4,0.2-0.6,0.5c-1.2,1.2-5.4,5.6-6.2,6l-1,0.6c0,0-0.1,0-0.1,0
		c-0.2,0-0.2,0-0.4,0.1c-0.3,0-0.7,0-1-0.1L18.6,38.4c-0.8-0.8-1.4-1.4-2.2-2.2l-1-1.3C15.1,34.6,15,34.3,15,34v-0.8l0,0
		c0.1-0.5,0.1-0.3,0.3-0.7c0,0,0-0.1,0-0.1c0,0,0-0.1,0-0.1l0.1-0.2c0.2-0.4,0.6-0.7,0.9-1.1l2.8-2.8c1.5-1.5,2.9-2.9,4.4-4.4
		l11.1-11.1c0.8-0.8,1.2-1,1.5-1.3l0.6-0.6c0.3-0.3,0.6-0.4,0.9-0.7l4.1-2.7c0,0,0.1,0,0.1,0l1.1-0.5c0,0,0.2,0,0.2,0
		c0,0,0.1,0,0.1,0l2.4-1c0,0,0.1,0,0.1,0l2.8-0.8c0.2,0,0.3,0,0.4,0c1-0.1,0-0.2,0.9-0.2c0.4,0,0.7,0.1,1,0l0.2-0.1c0,0,0.1,0,0.1,0
		l0.6-0.1c5.6,0,46.2-0.2,46.9,0.1c0.5,0.2,0.9,0.1,1.5,0.2c0.3,0.1,0.2,0.1,0.3,0.1l3.6,0.9c0,0,0.1,0,0.1,0c0,0,0.1,0,0.1,0
		l1.5,0.5c0,0,0.1,0.1,0.2,0.1c0,0,0.1,0,0.1,0l0.8,0.4c0,0,0.1,0,0.1,0c0.9,0.3,1.4,0.7,2.2,1.2l0.8,0.4c0,0,0.1,0,0.1,0l0.8,0.5
		c0,0,0.1,0,0.1,0l1.7,1.3c0,0,0,0,0.1,0l0.3,0.2c0,0,0.3,0.2,0.3,0.2c0.5,0.4,0.8,0.9,1.4,1.2c0.4,0.2-0.2-0.2,0.1,0.1
		c0.8,0.6,2.2,2.2,3,3c5.3,5.4,10.7,10.8,16.1,16.1l0.7,0.9c0,0,0,0,0,0.1l0.4,0.7c0,0,0,0.1,0,0.1C135,33,135,33.1,135,33.2z
		 M69.1,43.6v0.2c-1.1,0-7.1-0.2-8.1,0.1l-2.3,1.8c0,0,0,0.1,0,0.1c0,0,0,0.1,0,0.1l-0.2,0.4c-0.3,0.6-0.2,2,0,2.5
		c0.2,0.6-0.1,0.4,0.4,0.8l0.3,0.4c0,0,0,0.1,0,0.1c0.1,0.2,0,0.1,0,0.3l1.3,0.7c0.6,0.4,1.1,1,1.7,1.3l1.4,1c0,0,0.1,0.1,0.2,0.2
		l1.3,0.9c0.4,0.3,0.1,0.2,0.5,0.3v0.2c-0.4,0.2-0.1-0.1-0.3,0.5l-0.1,0.3c0,0,0,0.1,0,0.1l-0.4,1.5c0,0,0,0.1,0,0.1l-0.1,0.2
		c0,0,0,0.1,0,0.1c0,0,0,0.1,0,0.1c0,0,0,0.1,0,0.1l-0.5,1.6c0,0,0,0.1,0,0.1c0,0,0,0.1,0,0.1l-0.5,1.4c-0.3,0.8-0.6,2.1-0.1,3
		l0.4,0.7c0,0,0,0.1,0,0.1l0.6,0.6c0.4,0.4,1,0.9,1.7,1c2.1,0.4,3.4-0.9,4.6-1.7c0.4-0.2-0.2,0.2,0.1-0.1l1.3-1
		c0.4-0.2,0.2-0.3,0.8-0.6l0.6-0.4c0.3-0.3,0.9-0.5,1-0.9h0.9c0.1,0.2,0.2,0.3,0.4,0.4l0.9,0.7c0,0,0.1,0,0.1,0l1.2,0.8
		c0,0,0,0,0.1,0l0.7,0.5c0,0,0.1,0.1,0.1,0.1l1.3,1c0,0,0,0,0.1,0c0,0,0.1,0,0.1,0l1.1,0.7c0,0,0.1,0,0.1,0l0.4,0.1
		c0.6,0.2,2,0.1,2.1,0.1L85,66c0.6-0.4,1.1-1,1.4-1.6l0.2-0.5c0.2-0.7,0.1-1.8-0.1-2.4L86.4,61c0,0-0.1-0.1-0.1-0.2l-0.3-0.8
		c0,0,0-0.1,0-0.1l-0.2-0.6c0,0,0-0.1,0-0.1c0-0.2-0.1-0.2-0.1-0.4l-0.5-1.4c-0.1-0.4,0,0.2-0.1-0.4c0-0.2,0-0.2-0.1-0.4l-0.3-1.1
		c-0.2-0.6,0.1-0.4-0.3-0.6l2.7-2.2c0,0,0.1,0,0.1,0c0,0,0,0,0.1,0l3.5-2.5l0.7-1.1c0-0.1,0.1-0.3,0.1-0.4c0.1-0.4,0,0.2,0.1-0.3
		c0.2-0.9,0-1.8-0.2-2.3c0,0-0.1-0.1-0.1-0.2l-0.1-0.2c0,0,0-0.1,0-0.1l-0.4-0.6c0,0-0.2-0.2-0.2-0.2c-0.1-0.1-0.1-0.1-0.2-0.2
		c-0.4-0.4-0.5-0.5-1-0.7l-0.9-0.3c-1-0.2-6.3,0-7.7,0v-0.2c-0.4-0.2-0.1,0-0.3-0.6l-0.1-0.2c0,0,0-0.1,0-0.1l-0.6-1.9
		c0-0.1,0-0.1-0.1-0.2c0,0,0-0.1,0-0.1l-1.1-3.7c-0.3-0.7-0.7-1.1-1.2-1.6l-0.8-0.5c-0.6-0.3-0.9-0.4-1.6-0.4c-0.2,0-0.7,0-0.9,0
		l-0.6,0.3c0,0-0.1,0-0.1,0c-0.6,0.3-1.1,0.7-1.5,1.2c-0.1,0.2-0.1,0.1-0.2,0.3c0,0-0.1,0.1-0.1,0.2l-0.5,1.2C71,38,71.2,37.5,71,38
		c-0.3,1.1-0.7,2.4-1.1,3.6l-0.3,1.1c0,0,0,0.1,0,0.1C69.4,43.2,69.5,43.5,69.1,43.6z M61.9,47.6c1.1,0,7,0.2,8.1-0.1
		c0,0,0.1,0,0.1,0c0.6-0.2,1.3-0.3,1.8-0.7l0.3-0.4c0,0,0,0,0-0.1c0,0,0,0,0.1-0.1c0.4-0.5,0.4-1,0.6-1.6c0,0,0-0.1,0-0.1
		c0,0,0-0.1,0-0.1l0.1-0.4c0,0,0-0.1,0-0.1l1.2-3.6c0,0,0-0.1,0-0.1c0.2-0.6,0.5-1.3,0.5-1.9h0.5c0,0.3,0,0.3,0.1,0.5l1.4,4.3
		c0,0.1,0,0.1,0.1,0.2c0,0.1,0,0.1,0.1,0.3c0,0.1,0.1,0.2,0.1,0.3l0.2,0.6c0,0,0,0.1,0,0.1l1,2.2l1,0.6c1,0.4,2.3,0.4,3.4,0.4
		c1.9,0,3.7,0,5.6,0c-0.1,0.3-0.3,0.2-0.8,0.7l-4.2,3c-0.1,0.1-0.2,0.1-0.2,0.2l-0.7,0.5c-0.1,0.1,0,0-0.2,0.2L81,53.2
		c0,0,0,0.1,0,0.1c-0.3,0.6-0.4,1.1-0.3,1.8c0.1,0.3,0.1,0.2,0.1,0.3c0,0,0,0.1,0,0.1l0.1,0.6c0,0,0,0.1,0,0.1c0,0,0,0.1,0,0.1
		c0,0,0,0.1,0,0.1l0.3,0.9c0,0.1,0.1,0.2,0.1,0.4c0,0,0,0.1,0,0.1l0.9,2.6c0,0,0,0.1,0,0.1l0.1,0.3c0,0,0,0.1,0,0.1l0.1,0.4l0.1,0.2
		l0.6,1.6c-0.9,0-0.6-0.2-1.3-0.7c0,0-0.1-0.1-0.2-0.1l-5.6-4c0,0-0.1,0-0.1,0c0,0-0.1,0-0.1,0c0,0-0.1,0-0.1,0c0,0-0.1,0-0.1,0
		l-2.1,0.3c0,0-0.1,0-0.1,0l-0.2,0.1c-0.4,0.2-0.6,0.5-1,0.8l-0.7,0.5c-0.6,0.3-0.6,0.5-1,0.7c0,0-0.1,0-0.1,0l-1.6,1.1
		c0,0-0.1,0-0.1,0l-1.3,1c-0.2,0.2-0.2,0.3-0.5,0.3c-0.1,0-0.3,0-0.5,0c0,0,0-0.1,0-0.1l2.5-8.4c0-0.1,0-0.3,0-0.3
		c0-0.1-0.4-1.3-1-1.7L67.8,52c-0.1-0.1,0,0-0.2-0.2c0,0-0.1-0.1-0.1-0.1l-0.6-0.4c-0.2-0.1-0.2-0.2-0.4-0.4c-0.2-0.1-0.1,0-0.2-0.1
		l-1.5-1.1c-0.1-0.1-0.1,0-0.2-0.1L61.9,47.6z M106.6,85.8h-5.4c-0.1,0.3,0.1,0-0.2,0.2l-0.6,0.3c0,0-0.1,0-0.1,0L99.7,87
		c0,0,0,0-0.1,0.1l-0.2,0.5c-0.4,0.8-0.4,0.6-0.3,1.7l0.2,0.7c0,0,0.1,0.1,0.1,0.2c0,0,0,0.1,0,0.1c0.3,0.5,0.6,1,1,1.3l0.2,0.1
		c0,0,0.1,0,0.1,0l1.6,1.1c0.4,0.3,0.3,0.3,0.9,0.7l0.6,0.3v0.7c-0.4,0.2-0.2,0.1-0.3,0.5l-0.5,1.4c0,0,0,0.1,0,0.1l-0.3,0.9
		c-0.2,0.7-0.4,1.1-0.3,1.9l0.2,0.7c0,0.1,0.1,0.2,0.1,0.2l0.8,1.1c0.2,0.1,0,0,0.2,0.1c1.3,0.8,2.4,0.8,3.6-0.1l1.1-0.7
		c0,0,0,0,0.1,0c0.1-0.1,0.2-0.2,0.3-0.3l1.5-1.1c0.2-0.2,0.2-0.1,0.3-0.4h0.5c0.1,0.3,0.4,0.5,0.6,0.7l0.2,0.1c0,0,0.1,0,0.1,0
		l1.9,1.4c0.1,0.1,0,0,0.2,0.2l1,0.6c0.2,0.1,0,0,0.2,0.1c0.3,0.1,1,0.1,1.4,0.1l2-1c0-0.3,0-0.2,0.1-0.4l0.3-0.7
		c0.3-0.9,0.3-1.2,0-2.1l-0.1-0.3c0-0.1-0.1-0.3-0.1-0.4l-0.5-1.5c-0.1-0.5,0-0.6-0.4-0.8v-0.9c0.4-0.2,0,0,0.5-0.3l2.2-1.6
		c0,0,0.1,0,0.1,0l0.3-0.3c0.4-0.3,1-0.6,1.3-1.6c0.1-0.3,0.4-1.1,0.2-1.5l-0.8-1.6c-0.1-0.2,0-0.1-0.2-0.3
		c-0.2-0.3-0.2-0.2-0.5-0.4c-0.3-0.1-0.5-0.1-0.5-0.4h-5.4c0-0.2,0,0,0-0.2l-1.5-4.6c0,0-0.1-0.1-0.1-0.2l-1.8-1.2
		c0,0-0.1-0.1-0.2-0.1c-0.2-0.1-0.3-0.1-0.6-0.1c-0.5,0-0.8,0.1-1.2,0.3l-1.3,1l-0.4,0.8c0,0,0,0.1,0,0.1c0,0,0,0.1,0,0.1l-0.1,0.2
		c0,0-0.1,0.1-0.1,0.2L106.6,85.8z M104.1,89.3c0.9,0,3.6,0.2,4.4-0.2c0.6-0.3,0.9-0.8,1.2-1.3l0.7-1.8c0,0,0-0.1,0-0.1l0.6-1.3
		l0.2,0.5c0,0.1,0,0.2,0.1,0.3l0.5,1.5c0.2,0.5,0.3,1.1,0.7,1.5l0.9,0.7c0.8,0.4,3.6,0.2,4.4,0.2c-0.1,0.2,0,0.1-0.1,0.2
		c-0.2,0.2-0.1,0.1-0.3,0.2l-1.6,1.2c-0.5,0.5-1.3,0.7-1.5,1.4l0.5,3.9c0,0,0,0.1,0,0.1c0.1,0.4,0.3,0.7,0.4,1.2
		c-0.4-0.1-0.7-0.6-0.8-0.6l-2-1.4c0,0-0.1,0-0.1,0l-1.3-0.5c-0.7-0.1-0.5,0.1-0.9,0.2l-0.2,0.1c-0.5,0.2-0.7,0.5-1.1,0.8l-0.7,0.5
		c0,0,0,0-0.1,0c0,0-0.1,0-0.1,0l-0.4,0.2c-0.3,0.3-0.4,0.5-0.9,0.5l0.1-0.3c0,0,0-0.1,0-0.1l0.5-1.4c0,0,0.1-0.1,0.1-0.2
		c0-0.1,0-0.1,0.1-0.3c0,0,0-0.1,0-0.1c0.2-0.6,0.1-1.1,0.4-1.2v-0.5c-0.3-0.1-0.2-0.3-0.3-0.7c-0.1-0.3,0-0.1-0.1-0.4
		c0,0-0.1-0.3-0.2-0.3l-0.8-0.7c0,0-0.1,0-0.1,0c0,0-0.1,0-0.1,0l-0.6-0.4c0,0-0.1,0-0.1,0c0,0-0.1,0-0.1,0L104.1,89.3z M44.8,79.9
		v0.2c-1.1,0-2.2-0.1-3.3,0c-1,0.1,0,0.1-0.9,0.2c-0.3,0-0.6,0-0.8,0.2c0,0-0.1,0.1-0.1,0.1l-1.1,1.1c-0.2,0.4-0.2,0.3-0.3,0.7
		c0,0.2,0,0.8,0,1.1l0.2,0.8c0,0,0.1,0.1,0.1,0.2c0.2,0.4,0.5,0.6,0.8,0.9l1.2,1c0.3,0.2,0.1,0.1,0.4,0.2c0.3,0.2,0.1,0,0.4,0.2
		l0.7,0.5c0,0,0.1,0,0.1,0l0.3,0.2c0,0.8-0.1,1-0.4,1.6c0,0,0,0.1,0,0.1l-0.1,0.2l-0.1,0.2L41.6,90c0,0,0,0.1,0,0.1l-0.4,1.4
		c0,0,0,0.1,0,0.1c-0.1,0.4-0.2,0.9-0.1,1.3l0.5,0.9c0.1,0.2,0,0,0.1,0.2l1.1,1c0.4,0.2,0.8,0.1,1.3,0.1l1-0.2c0,0,0.1-0.1,0.2-0.1
		c0,0,0.1,0,0.1,0l1.9-1.2c0.3-0.2,0.3-0.4,0.6-0.5c0,0,0.1,0,0.1,0l0.2-0.1c0.3-0.2,0.2-0.1,0.3-0.4H49c0.1,0.3,0.4,0.5,1,0.9
		c0,0,0.1,0,0.1,0c0.1,0.1,0.1,0,0.2,0.1l0.8,0.6c0,0,0.1,0,0.1,0l1,0.6c0.4,0.2,0.7,0.3,1.3,0.3c0.8,0,1.4-0.1,1.9-0.6
		c0.8-0.8,1.3-1.4,1.1-2.8c-0.1-0.5-0.2-0.6-0.3-1.1c0,0,0-0.1,0-0.1l-0.4-1.2c-0.2-0.5-0.3-0.6-0.4-1.1c0-0.2,0-0.4,0-0.6l0.5-0.2
		c0,0,0.1,0,0.1,0l3-2.5l0.4-0.7c0-0.2,0-0.3,0.1-0.4c0.1-0.4-0.1-0.2,0.2-0.4V83c-0.3-0.1-0.1,0-0.2-0.4l-0.4-1
		c-0.3-0.4-0.7-0.8-1.1-1c0,0,0,0-0.1,0c-0.4-0.2-0.7-0.1-1.1-0.2c-1.3-0.3-2.4-0.2-3.9-0.2v-0.2c-0.3-0.1-0.3-0.5-0.4-0.9
		c0-0.1,0-0.2-0.1-0.3c0,0,0-0.1,0-0.1c0,0,0-0.1,0-0.1l-0.1-0.2c0,0,0-0.1,0-0.1L52,77.7c0,0,0-0.1,0-0.1l-0.8-1.8
		c-0.2-0.3-0.1-0.1-0.3-0.3l-0.4-0.4c-0.5-0.4-1-0.4-1.7-0.4l-1,0.2c0,0-0.1,0-0.1,0L47,75.3c0,0-0.1,0-0.1,0L45,79.6
		C44.8,80,45.2,79.7,44.8,79.9z M52,90.2c-0.6,0-0.5-0.3-1.1-0.7l-0.8-0.5c-0.7-0.4-1.3-0.7-2.1-0.4L47.4,89
		c-0.6,0.3-0.3,0.2-0.7,0.6c-0.3,0.3,0.2-0.2-0.1,0.1c-0.2,0.1-0.1,0-0.2,0.1c0,0-0.1,0-0.1,0L46,90.1c-0.3,0.2,0.2,0.2-0.5,0.2
		c0-0.3,0-0.3,0.1-0.5l0.5-3l-0.5-0.9c-0.2-0.3-1.5-1.2-1.7-1.3l-0.5-0.6c0.9,0,2.4,0.2,3.1-0.1c0,0,0.1-0.1,0.2-0.1
		c0,0,0.1,0,0.1,0l0.7-0.6c0.1-0.1,0.2-0.2,0.3-0.3c0.3-0.3,0.3-0.7,0.4-1.1c0.2-0.7,0.4-0.9,0.4-1.5H49l0.5,1.8c0,0,0,0.1,0,0.1
		c0.2,0.7,0.4,0.8,0.9,1.3c0,0,0.2,0.2,0.2,0.2l0.8,0.4c0.1,0,0.4,0,0.6,0c0.8,0,1.6,0,2.3,0c-0.2,0.4,0.1,0-0.6,0.5l-0.6,0.4
		c-0.7,0.5-1.1,0.8-1.4,1.2l-0.1,0.2c-0.5,1-0.6,1-0.1,2.5C51.8,89.3,52,89.7,52,90.2z M45.5,90.2c-0.1,0.3,0.1,0.2-0.2,0.2
		C45.3,90.2,45.2,90.3,45.5,90.2z M52,90.2c0.3,0.1,0.2-0.1,0.2,0.2C52,90.4,52.1,90.5,52,90.2z M64.5,96.8c-2.5,0-1.3,0.3-3.3,0.2
		l-1,0.2c-0.7,0.2-1.6,0-2.3,0.1c-0.6,0.1-0.7,0.3-1.5,0.2c-0.6,0-1.2,0-1.8,0l-9.4,0.2c-0.6,0-1,0.1-1.3,0.6l-0.3,0.6
		c0,0.1,0,0.2-0.1,0.3l0.1,1.1c0,0,0,0.1,0,0.1c0,0,0,0.1,0,0.1c0,0,0,0.1,0,0.1c0,0,0.1,0.1,0.1,0.2c0.4,0.7,1.5,0.6,2.2,0.6h8.8
		c0.4,0,0.9,0.1,1.2-0.1c0,0,0.1,0,0.1,0l0.2-0.1c0.5-0.2,1.2-0.1,1.8-0.1c0.4,0,0.9,0.1,1.2,0c1.1-0.3,1.7,0,2.3-0.2l1.2-0.2
		c0.2,0,0.6,0,0.8,0c0.5-0.1,0.2-0.2,0.7-0.2c0.8-0.1,0.8,0,1.6-0.2c0.5-0.1,1.1,0,1.6-0.2c0.4-0.1,0.3-0.1,0.7-0.1
		c0.2,0,0.2,0,0.4,0c0.9-0.3,1.2-0.1,1.9-0.3c0.4-0.1,0.9,0,1.3-0.2c0.2-0.1-0.1,0,0.3-0.2l0.3,0.5c0,0,0,0,0.1,0.1L73,100
		c0,0,0.1,0,0.1,0c0.9,0.5,1.4,1.4,2.3,2l0.4,0.4c0.1,0.1,0.2,0.2,0.4,0.4l2.1,1.8l0.6,1c0.1,0.2,0.2,0.6,0.1,1l-0.6,1.3
		c0,0-0.2,0.2-0.2,0.2c0,0,0,0-0.1,0.1l-1.2,0.6c0,0-0.1,0-0.1,0l-5.3,1c-0.7,0.1,0.2,0-0.5,0.2l-1.2,0.2c-0.5,0.2-1,0-1.5,0.2
		c-0.5,0.2-1,0.1-1.5,0.2c-0.7,0.1,0.2,0.1-0.6,0.2c-0.5,0.1-0.9-0.1-1.4,0.1c-1,0.3-1.2,0-2,0.3c-0.6,0.2-1.7,0-2.3,0.1
		c-0.4,0.1-0.6,0.2-1.3,0.2c-0.4,0-1.1,0-1.5,0c-1.1,0.1,0.2,0.2-2.9,0.2c-0.5,0-1,0-1.5,0l-1.4,0.1c-0.1,0,0.1,0-0.3,0.1
		c-0.8,0.2-2,0-2.8,0c-0.9,0-2.2,0.2-3-0.1l-4.5-0.1c-1,0-0.6-0.3-2.8-0.2c-1.6,0-0.7-0.2-2.9-0.2c-0.9,0-0.6-0.2-2-0.2l-1.4-0.3
		c-0.2,0-0.6,0-0.8,0l-0.5-0.2c-0.3-0.1-0.5,0-0.8,0l-0.8-0.2c-0.4-0.1-1.1,0-1.5-0.2l-2.4-0.4c-0.7-0.1,0.2-0.1-0.6-0.2l-2.1-0.4
		c0,0-0.1,0-0.1,0c-0.2-0.1-0.2,0-0.4-0.1c-0.1,0-0.2,0-0.3,0l-1.9-0.5c-0.3-0.1-0.1,0-0.3-0.2l-0.4-0.4c-0.3-0.3-0.4-0.6-0.5-1
		c-0.1-0.3-0.3-0.5-0.2-0.9l0.2-0.7c0,0,0-0.1,0-0.1l1.6-1.7c0.2-0.1,0.1-0.1,0.2-0.2c0,0,0.1-0.1,0.2-0.2c0.2-0.2,0.3-0.3,0.4-0.4
		l0.9-0.7c0.2-0.1,0,0,0.2-0.1c0.2-0.1,0.1-0.1,0.2-0.2c0.6-0.6,1.1-1.2,1.8-1.6l1.2-1l0.3,0.1c0.7,0.1,0.5-0.1,1.6,0.2
		c0.4,0.1,0.7,0,1.1,0.1l0.6,0.2c0.4,0,0.8,0,1.2,0.1c0.6,0.2,1.2,0.1,1.7,0.3l1.1,0.1c0.8,0.1,0.5,0.3,1.3,0.2
		c0.8,0,1.1-0.2,1.3,0.2h2.1c0.2-0.5-0.2,0.2,0.1-0.2l0.6-0.3l0.2-0.6c0.3-0.5,0.4-0.3,0.1-1.1c0,0,0-0.1,0-0.1
		c-0.2-0.5-0.4-1-0.9-1.2c-0.1-0.1-0.1,0-0.3-0.1c0,0-0.1,0-0.1,0c-0.8-0.3-1.6,0-2.2-0.3c0,0-0.1,0-0.1,0c-0.1,0,0.1,0-0.3-0.1
		c-0.6-0.1-1.3,0-1.8,0c0-1.2-0.1-10.9,0-11.7c0.1-0.7,0,0.2,0.2-0.5l0.2-1.3c0.1-0.2,0-0.1,0.1-0.3l1.3-3.7c0,0,0-0.1,0-0.1
		l0.1-0.2c0,0,0-0.1,0-0.1l1.7-2.7c0.7-0.8,1.5-1.6,2.4-2.2l0.4-0.3c0,0,0,0,0.1,0c0,0,0.2-0.1,0.2-0.1l1.7-0.7c0,0,0.1,0,0.1,0
		c0,0,0.1,0,0.1,0c0.2-0.1,0.1,0,0.3,0c0.6-0.1,1-0.2,1.8-0.2c1.5,0,10.3-0.2,11.1,0.1c0.3,0.1-0.2,0,0.4,0.1l3.2,1.3c0,0,0,0,0.1,0
		c0,0,0,0,0.1,0l0.6,0.5c0.5,0.5,0.8,0.4,1.2,1.1c0.3,0.5,0.8,0.7,1.1,1.2c0,0,0,0.1,0,0.1l1.8,3.4c0,0,0,0.1,0,0.1c0,0,0,0.1,0,0.1
		l0.1,0.3c0,0,0,0.1,0,0.1c0,0,0,0.1,0,0.1l0.2,0.5c0,0,0,0.1,0,0.1l0.1,0.2c0,0,0,0.1,0,0.1l0.2,0.5c0,0,0,0.1,0,0.1l0.2,0.9
		c0,0,0,0.1,0,0.1l0.1,1c0,0,0,0.1,0,0.1l0.1,0.3c0.1,0.2,0.1,0.4,0.1,0.6L64.5,96.8z"/>
</g>
</svg>
