<?xml version="1.0" encoding="utf-8"?>
<!-- Generator: Adobe Illustrator 24.0.2, SVG Export Plug-In . SVG Version: 6.00 Build 0)  -->
<svg version="1.1" id="Capa_1" xmlns="http://www.w3.org/2000/svg" xmlns:xlink="http://www.w3.org/1999/xlink" x="0px" y="0px"
	 viewBox="0 0 150 150" style="enable-background:new 0 0 150 150;" xml:space="preserve">
<style type="text/css">
	.st0{fill-rule:evenodd;clip-rule:evenodd;fill:#474747;transition: 0.6s;}
	.active{fill: #fff;}
</style>
<g>
	<path id="este" class="st0" d="M34.1,31.4c-0.1,0.3-0.3,1-0.1,1.3c0.1,0.1,0.5,0.6,2.1,0.6h26.1l1.5-7.1h22.5l1.5,7.1h26.1
		c1.6,0,2-0.4,2.1-0.6c0.2-0.3,0-1.1-0.1-1.3l-3.1-9H37.2L34.1,31.4z M118.7,30.3c0.2,0.5,0.9,2.4-0.2,4.1c-0.8,1.3-2.4,2-4.6,2
		h-3.7c0.8,1.9,1.1,4,1.3,5.3h30c-0.1-11.7-6.2-17.5-6.4-17.8l-0.3-0.2h-18.4L118.7,30.3z M141.5,65.5V44.7h-29.9v0.4
		c-0.9-2.6-2.3-3.6-3.3-4c-0.3-1.5-0.7-3.4-1.5-4.8H85c-0.1,0-0.2,0-0.2,0l0,0H65.2l0,0c0,0-0.1,0-0.2,0H43.2
		c-0.8,1.4-1.3,3.3-1.5,4.8c-1,0.4-2.4,1.4-3.3,4v-0.4H8.5v20.8h16.2v48.7l-6.3,13.3h13.2l1.9-4.2V65.5h4.1v27.7
		c0,3.9-2.8,6.4-2.8,6.4l1,2.7h78.4l1-2.7c0,0-2.8-2.5-2.8-6.4V65.5h4.1v57.8l1.9,4.2h13.2l-6.3-13.3V65.5L141.5,65.5L141.5,65.5z
		 M39,99.3c0.9-1.5,1.7-3.5,1.7-6.1V50.9c0-5.4,1.5-6.8,2-6.9h64.5c0.6,0.1,2.1,1.5,2.1,6.9v42.2c0,2.5,0.8,4.6,1.7,6.1
		C111,99.2,39,99.2,39,99.3z M50.2,86h4.9v-4.9h-2.4l0,0l0,0h-2.4L50.2,86L50.2,86z M91,86h4.9v-4.9h-2.4l0,0l0,0H91V86z M70.6,63.2
		h4.9V61l0,0l0,0v-0.2l0,0l0,0v-2.4h-4.9v2.4l0,0l0,0V61l0,0l0,0V63.2z M52.7,58.3c-1.4,0-2.4,1.1-2.4,2.4c0,1.4,1.1,2.4,2.4,2.4
		c1.3,0,2.4-1.1,2.4-2.4C55.1,59.4,54,58.3,52.7,58.3z M93.4,58.3c-1.4,0-2.4,1.1-2.4,2.4c0,1.4,1.1,2.4,2.4,2.4
		c1.4,0,2.4-1.1,2.4-2.4C95.9,59.4,94.8,58.3,93.4,58.3z M92.6,79.5c-0.4-8.2-7-15.6-15.5-17.5v2c0,0.5-0.4,0.8-0.8,0.8h-6.5
		c-0.5,0-0.8-0.4-0.8-0.8v-2c-8.5,1.9-15.1,9.3-15.5,17.5h2.4c0.5,0,0.8,0.4,0.8,0.8v6.6c0,0.5-0.4,0.8-0.8,0.8h-6.5
		c-0.5,0-0.8-0.4-0.8-0.8v-6.5c0-0.5,0.4-0.8,0.8-0.8h2.5c0.3-7.9,5.6-14.9,13.1-17.9h-8.3c-0.4,1.9-2,3.3-4,3.3
		c-2.3,0-4.1-1.8-4.1-4.1c0-2.2,1.8-4.1,4.1-4.1c2,0,3.6,1.4,4,3.3H69v-2.4c0-0.5,0.4-0.8,0.8-0.8h6.5c0.5,0,0.8,0.4,0.8,0.8v2.2
		h12.3c0.4-1.9,2-3.3,4-3.3c2.3,0,4.1,1.8,4.1,4.1s-1.8,4.1-4.1,4.1c-2,0-3.6-1.4-4-3.3h-8.3c7.5,3.1,12.7,10.1,13.1,17.9h2.5
		c0.5,0,0.8,0.4,0.8,0.8v6.7c0,0.5-0.4,0.8-0.8,0.8h-6.5c-0.5,0-0.8-0.4-0.8-0.8v-6.5c0-0.5,0.4-0.8,0.8-0.8L92.6,79.5L92.6,79.5z
		 M38.5,41.7c0.2-1.4,0.5-3.4,1.3-5.3h-3.7c-2.2,0-3.8-0.7-4.6-2c-1.1-1.7-0.4-3.6-0.2-4.1l2.3-6.6H15.1l-0.2,0.2
		c-0.3,0.2-6.3,6.1-6.4,17.8H38.5z"/>
</g>
</svg>
