<?xml version="1.0" encoding="utf-8"?>
<!-- Generator: Adobe Illustrator 24.0.2, SVG Export Plug-In . SVG Version: 6.00 Build 0)  -->
<svg version="1.1" id="Capa_1" xmlns="http://www.w3.org/2000/svg" xmlns:xlink="http://www.w3.org/1999/xlink" x="0px" y="0px"
	 viewBox="0 0 150 150" style="enable-background:new 0 0 150 150;" xml:space="preserve">
<style type="text/css">
	.st0{fill-rule:evenodd;clip-rule:evenodd;fill:transparent;}
	.st1{fill:#808080;}
</style>
<rect class="st0" width="150" height="150"/>
<g>
	<path class="st1" d="M34.1,16.5c-0.1,0.3-0.3,1-0.1,1.3c0.1,0.1,0.5,0.6,2.1,0.6h26.1l1.5-7.1h22.5l1.5,7.1h26.1
		c1.6,0,2-0.4,2.1-0.6c0.2-0.3,0-1.1-0.1-1.3l-3.1-9H37.2L34.1,16.5z M118.7,15.4c0.2,0.5,0.9,2.4-0.2,4.1c-0.8,1.3-2.4,2-4.6,2
		h-3.7c0.8,1.9,1.1,4,1.3,5.3h30c-0.1-11.7-6.2-17.5-6.4-17.8l-0.3-0.2h-18.4L118.7,15.4z M141.5,50.6V29.8h-29.9v0.4
		c-0.9-2.6-2.3-3.6-3.3-4c-0.3-1.5-0.7-3.4-1.5-4.8H85c-0.1,0-0.2,0-0.2,0h0H65.2h0c0,0-0.1,0-0.2,0H43.2c-0.8,1.4-1.3,3.3-1.5,4.8
		c-1,0.4-2.4,1.4-3.3,4v-0.4H8.5v20.8h16.2v48.7l-6.3,13.3h13.2l1.9-4.2V50.6h4.1v27.7c0,3.9-2.8,6.4-2.8,6.4l1,2.7h78.4l1-2.7
		c0,0-2.8-2.5-2.8-6.4V50.6h4.1v57.8l1.9,4.2h13.2l-6.3-13.3l0-48.7H141.5z M39,84.3c0.9-1.5,1.7-3.5,1.7-6.1V36
		c0-5.4,1.5-6.8,2-6.9l64.5,0c0.6,0.1,2.1,1.5,2.1,6.9v42.2c0,2.5,0.8,4.6,1.7,6.1H39z M50.2,71.1h4.9v-4.9h-2.4h0h0h-2.4V71.1z
		 M91,71.1h4.9v-4.9h-2.4h0h0H91V71.1z M70.6,48.3h4.9v-2.2v0v0v-0.2v0v0v-2.4h-4.9v2.4v0v0v0.2v0v0V48.3z M52.7,43.4
		c-1.4,0-2.4,1.1-2.4,2.4c0,1.4,1.1,2.4,2.4,2.4c1.3,0,2.4-1.1,2.4-2.4C55.1,44.5,54,43.4,52.7,43.4z M93.4,43.4
		c-1.4,0-2.4,1.1-2.4,2.4c0,1.4,1.1,2.4,2.4,2.4c1.4,0,2.4-1.1,2.4-2.4C95.9,44.5,94.8,43.4,93.4,43.4z M92.6,64.6
		c-0.4-8.2-7-15.6-15.5-17.5v2c0,0.5-0.4,0.8-0.8,0.8h-6.5c-0.5,0-0.8-0.4-0.8-0.8v-2c-8.5,1.9-15.1,9.3-15.5,17.5h2.4
		c0.5,0,0.8,0.4,0.8,0.8V72c0,0.5-0.4,0.8-0.8,0.8h-6.5c-0.5,0-0.8-0.4-0.8-0.8v-6.5c0-0.5,0.4-0.8,0.8-0.8h2.5
		c0.3-7.9,5.6-14.9,13.1-17.9h-8.3c-0.4,1.9-2,3.3-4,3.3c-2.3,0-4.1-1.8-4.1-4.1c0-2.2,1.8-4.1,4.1-4.1c2,0,3.6,1.4,4,3.3H69v-2.4
		c0-0.5,0.4-0.8,0.8-0.8h6.5c0.5,0,0.8,0.4,0.8,0.8V45h12.3c0.4-1.9,2-3.3,4-3.3c2.3,0,4.1,1.8,4.1,4.1c0,2.3-1.8,4.1-4.1,4.1
		c-2,0-3.6-1.4-4-3.3h-8.3c7.5,3.1,12.7,10.1,13.1,17.9h2.5c0.5,0,0.8,0.4,0.8,0.8V72c0,0.5-0.4,0.8-0.8,0.8h-6.5
		c-0.5,0-0.8-0.4-0.8-0.8v-6.5c0-0.5,0.4-0.8,0.8-0.8H92.6z M38.5,26.8c0.2-1.4,0.5-3.4,1.3-5.3h-3.7c-2.2,0-3.8-0.7-4.6-2
		c-1.1-1.7-0.4-3.6-0.2-4.1l2.3-6.6H15.1L14.9,9c-0.3,0.2-6.3,6.1-6.4,17.8H38.5z"/>
	<path class="st1" d="M101.6,134.8h2c0.2,0,0.4,0,0.6-0.1c0.2-0.1,0.3-0.2,0.5-0.3c0.1-0.1,0.2-0.3,0.3-0.6c0.1-0.2,0.1-0.5,0.1-0.8
		c0-0.3,0-0.6-0.1-0.8c-0.1-0.2-0.2-0.4-0.3-0.5c-0.1-0.1-0.3-0.2-0.5-0.3c-0.2-0.1-0.4-0.1-0.6-0.1h-2V134.8z M98.3,142.4v-13.9
		h5.9c0.6,0,1.1,0.1,1.6,0.2c0.5,0.1,0.9,0.4,1.3,0.7c0.4,0.3,0.7,0.8,0.9,1.4c0.2,0.6,0.3,1.3,0.3,2.2c0,0.6-0.1,1.1-0.2,1.6
		c-0.1,0.4-0.3,0.8-0.5,1.1c-0.2,0.3-0.4,0.5-0.6,0.7c-0.2,0.2-0.5,0.3-0.8,0.5l2.5,5.5h-3.3l-2.1-5c-0.1,0-0.3,0-0.4,0
		c-0.2,0-0.3,0-0.5,0c-0.2,0-0.3,0-0.5,0c-0.2,0-0.3,0-0.4,0v5H98.3z M90.6,142.5c-0.3,0-0.7,0-1.1-0.1c-0.4-0.1-0.8-0.2-1.2-0.4
		c-0.4-0.2-0.7-0.5-0.9-1c-0.2-0.4-0.4-1-0.4-1.8v-7.5c0-0.6,0.1-1.2,0.3-1.6c0.2-0.4,0.5-0.8,0.8-1c0.3-0.2,0.7-0.4,1.1-0.5
		c0.4-0.1,0.8-0.2,1.2-0.2c1,0,1.9,0,2.6,0c0.7,0,1.4,0.1,1.9,0.1c0.6,0,1.1,0.1,1.5,0.1v2.7h-5.1c-0.3,0-0.6,0.1-0.8,0.2
		c-0.2,0.2-0.3,0.4-0.3,0.7v1.5l5.3,0.2v2.6l-5.3,0.2v1.5c0,0.3,0,0.5,0.1,0.6c0.1,0.2,0.2,0.3,0.4,0.3c0.2,0.1,0.3,0.1,0.5,0.1h5.2
		v2.7c-0.5,0.1-1.2,0.1-1.8,0.2c-0.7,0.1-1.4,0.1-2.1,0.1C91.9,142.5,91.2,142.5,90.6,142.5z M79,142.4v-11h-3.7v-2.9h10.5v2.9h-3.7
		v11H79z M68.5,139.6c0.5,0,0.9-0.1,1.3-0.2c0.3-0.1,0.6-0.3,0.8-0.6c0.2-0.3,0.3-0.7,0.4-1.3c0.1-0.5,0.1-1.2,0.1-2.1
		c0-0.9,0-1.6-0.1-2.2c-0.1-0.6-0.2-1-0.4-1.3c-0.2-0.3-0.5-0.5-0.8-0.6c-0.3-0.1-0.8-0.2-1.3-0.2c-0.5,0-0.9,0.1-1.3,0.2
		c-0.3,0.1-0.6,0.3-0.8,0.6c-0.2,0.3-0.3,0.7-0.4,1.3c-0.1,0.5-0.1,1.3-0.1,2.2c0,0.9,0,1.6,0.1,2.1c0.1,0.5,0.2,1,0.4,1.3
		c0.2,0.3,0.5,0.5,0.8,0.6C67.6,139.5,68,139.6,68.5,139.6z M68.5,142.5c-1,0-1.8-0.1-2.5-0.3c-0.7-0.2-1.3-0.5-1.8-1
		c-0.5-0.5-0.9-1.2-1.1-2.1c-0.2-0.9-0.4-2.1-0.4-3.6c0-1.5,0.1-2.7,0.4-3.6c0.2-0.9,0.6-1.6,1.1-2.1c0.5-0.5,1.1-0.8,1.8-1
		c0.7-0.2,1.6-0.3,2.5-0.3c1,0,1.8,0.1,2.6,0.3c0.7,0.2,1.3,0.5,1.8,1c0.5,0.5,0.9,1.2,1.1,2.1c0.2,0.9,0.4,2.1,0.4,3.6
		c0,1.5-0.1,2.7-0.4,3.6c-0.2,0.9-0.6,1.6-1.1,2.1c-0.5,0.5-1.1,0.8-1.8,1C70.3,142.4,69.5,142.5,68.5,142.5z M56.5,142.4
		c-0.8,0-1.4-0.1-1.9-0.4s-0.9-0.6-1.1-1.1c-0.2-0.5-0.4-1.2-0.4-2v-10.4h3.2v9.9c0,0.3,0,0.5,0.1,0.6c0.1,0.2,0.2,0.3,0.4,0.4
		c0.2,0.1,0.4,0.1,0.6,0.1h4.2v2.9H56.5z M44.5,135.5h2.4c0.3,0,0.5-0.1,0.7-0.2c0.2-0.2,0.3-0.4,0.4-0.7c0.1-0.3,0.1-0.7,0.1-1.2
		c0-0.5,0-0.8-0.1-1.1c-0.1-0.3-0.2-0.5-0.4-0.7c-0.2-0.1-0.4-0.2-0.7-0.2h-2.4V135.5z M41.3,142.4v-13.9h6c0.5,0,0.9,0.1,1.4,0.2
		c0.5,0.1,0.9,0.3,1.3,0.6c0.4,0.3,0.7,0.8,1,1.5c0.3,0.7,0.4,1.5,0.4,2.6c0,1.1-0.1,2-0.4,2.6c-0.2,0.7-0.6,1.2-1,1.5
		c-0.4,0.3-0.8,0.6-1.3,0.7c-0.5,0.1-0.9,0.2-1.4,0.2c-0.2,0-0.5,0-0.8,0c-0.3,0-0.5-0.1-0.8-0.1c-0.3,0-0.5-0.1-0.8-0.1
		s-0.4-0.1-0.6-0.1v4.4H41.3z"/>
</g>
</svg>
