<?xml version="1.0" encoding="utf-8"?>
<!-- Generator: Adobe Illustrator 24.0.2, SVG Export Plug-In . SVG Version: 6.00 Build 0)  -->
<svg version="1.1" id="Capa_1" xmlns="http://www.w3.org/2000/svg" xmlns:xlink="http://www.w3.org/1999/xlink" x="0px" y="0px"
	 viewBox="0 0 2594.1 1346" style="enable-background:new 0 0 2594.1 1346;" xml:space="preserve">
<radialGradient id="SVGID_1_">
	<stop  offset="0" style="stop-color:#00D6D6"/>
	<stop  offset="0.9" style="stop-color:#00D6D6;stop-opacity:0"/>
	<stop  offset="1" style="stop-color:#00D6D6;stop-opacity:0"/>
</radialGradient>
<radialGradient id="planetaPuntos">
	<stop  offset="0" style="stop-color:#fff"/>
	<stop  offset="0.9" style="stop-color:#fff;stop-opacity:0"/>
	<stop  offset="1" style="stop-color:#fff;stop-opacity:0"/>
</radialGradient>
<linearGradient id="SVGID_2_" >
	<stop  offset="0" style="stop-color:#fff;stop-opacity:0.3"/>
	<stop  offset="0.5" style="stop-color:#fff"/>
	<stop  offset="1" style="stop-color:#fff;stop-opacity:0.3"/>
</linearGradient>
<linearGradient id="SVGID_3_" >
	<stop  offset="0" style="stop-color:#000;stop-opacity:1"/>
	<stop  offset="0.5" style="stop-color:#000"/>
	<stop  offset="1" style="stop-color:#000;stop-opacity:1"/>
</linearGradient>
<linearGradient id="Brillol01iz">
		<stop  offset="0" style="stop-color:#FFFFFF;stop-opacity:0"/>
		<stop  offset="0.5" style="stop-color:#FFFFFF"/>
		<stop  offset="1" style="stop-color:#FFFFFF"/>
	</linearGradient>
	<linearGradient id="Brillol01dr">
		<stop  offset="0" style="stop-color:#FFFFFF"/>
		<stop  offset="0.5" style="stop-color:#FFFFFF"/>
		<stop  offset="1" style="stop-color:#FFFFFF;stop-opacity:0"/>
	</linearGradient>
<filter id='shadowPlaneta' color-interpolation-filters="sRGB">
    <feDropShadow dx="3" dy="3" stdDeviation="6" flood-color="rgb(0,217,217)" flood-opacity="1" />
</filter>
<radialGradient id="planetaInDegra" cx="625.6273" cy="453.2498" r="327.7036" gradientUnits="userSpaceOnUse">
	<stop  offset="0" style="stop-color:#00D6D6"/>
	<stop  offset="0.7714" style="stop-color:#00D6D6;stop-opacity:0"/>
	<stop  offset="1" style="stop-color:#00D6D6;stop-opacity:0"/>
</radialGradient>

<style type="text/css">
	.fondo{fill:transparent;}
	.l01,.l02,.l03,.l04,.l05,.l06,.l07,.l08,.l09,.l10{
		fill:none;
		stroke:url(#SVGID_2_);stroke-width:1;
	}
	.f01,.f02,.f03,.f04,.f05,.f06,.f07,.f08,.f09{fill:url(#SVGID_1_);transform: scale(0);opacity: 0.5;}
	@keyframes l01{0%{stroke-dashoffset:-330px;}100%{stroke-dashoffset:0px;}}
	@keyframes l02{0%{stroke-dashoffset:490px;}100%{stroke-dashoffset:0px;}}
	@keyframes l03{0%{stroke-dashoffset:-570px;}100%{stroke-dashoffset:0px;}}
	@keyframes l04{0%{stroke-dashoffset:480px;}100%{stroke-dashoffset:0px;}}
	@keyframes l05{0%{stroke-dashoffset:-445px;}100%{stroke-dashoffset:0px;}}
	@keyframes l06{0%{stroke-dashoffset:520px;}100%{stroke-dashoffset:0px;}}
	@keyframes l09{0%{stroke-dashoffset:400px;}100%{stroke-dashoffset:0px;}}
	@keyframes l07{0%{stroke-dashoffset:-510px;}100%{stroke-dashoffset:0px;}}
	@keyframes l08{0%{stroke-dashoffset:390px;}100%{stroke-dashoffset:0px;}}
	@keyframes l10{0%{stroke-dashoffset:390px;}100%{stroke-dashoffset:0px;}}
	@keyframes f01{0%{transform: scale(0);}100%{transform: scale(1);}}
	@keyframes f02{
		0%{transform: scale(1);}
		10%{transform: scale(0.5);}
		20%{transform: scale(1);}
		100%{transform: scale(1);}
	}
	.l01{stroke-dasharray: 330px;stroke-dashoffset: 330px;
		animation: l01 0.5s forwards;}
	.f01{
		transform-origin: 134px 1242px;
		animation: f01 0.5s forwards 0.3s,
					f02 5s infinite 5s;
	}
	.l02{stroke-dasharray: 490px;stroke-dashoffset: 490px;
		animation: l02 0.5s forwards 0.5s;}
	.f02{
		transform-origin: 400px 1303px;
		animation: f01 0.5s forwards 0.8s,
					f01 0.5s forwards 4.8s,
					f02 5s infinite 6s;
	}
	.l03{stroke-dasharray: 570px;stroke-dashoffset: 570px;
		animation: l03 0.5s forwards 1s;}
	.f03{
		transform-origin: 752px 1204px;
		animation: f01 0.5s forwards 1.3s,
					f02 5s infinite 7s;
	}
	.l04{stroke-dasharray: 480px;stroke-dashoffset: 480px;
		animation: l04 0.5s forwards 1.5s;}
	.f04{
		transform-origin: 1011px 1242px;
		animation: f01 0.5s forwards 1.8s,
					f02 5s infinite 8s;
	}
	.l05{stroke-dasharray: 445px;stroke-dashoffset: 445px;
		animation: l05 0.5s forwards 2s;}
	.f05{
		transform-origin: 899px 1024px;
		animation: f01 0.5s forwards 2.3s,
					f02 5s infinite 9s;
	}
	.l09{stroke-dasharray: 400px;stroke-dashoffset: 400px;
		animation: l09 0.5s forwards 2.5s;}
	.f09{
		transform-origin: 779px 1074px;
		animation: f01 0.5s forwards 2.8s,
					f02 5s infinite 10s;
	}
	.l08{stroke-dasharray: 520px;stroke-dashoffset: 520px;
		animation: l08 0.5s forwards 3s;}
	.f08{
		transform-origin: 658px 1143px;
		animation: f01 0.5s forwards 3.3s,
					f02 5s infinite 11s;
	}
	.l07{stroke-dasharray: 510px;stroke-dashoffset: 510px;
		animation: l07 0.5s forwards 3.5s;}
	.f07{
		transform-origin: 355px 1170px;
		animation: f01 0.5s forwards 3.8s,
					f02 5s infinite 12s;
	}
	.l06{stroke-dasharray: 520px;stroke-dashoffset: 520px;
		animation: l06 0.5s forwards 4s;}
	.f06{
		transform-origin: 62px 1105px;
		animation: f01 0.5s forwards 4.3s,
					f02 5s infinite 13s;
	}
	.l10{stroke-dasharray: 390px;stroke-dashoffset: 390px;
		animation: l10 0.5s forwards 4.5s;
	}

	/* BRILLO */
	@keyframes bri01dr{
		0%{stroke-dashoffset:-110px;}
		5%{stroke-dashoffset:0px;}
		10%{stroke-dashoffset:110px;}
		100%{stroke-dashoffset:110px;}
	}
	@keyframes bri01iz{
		0%{stroke-dashoffset:144px;}
		5%{stroke-dashoffset:0px;}
		10%{stroke-dashoffset:-144px;}
		100%{stroke-dashoffset:-144px;}
	}
	@keyframes bri02iz{
		0%{stroke-dashoffset:68px;}
		5%{stroke-dashoffset:0px;}
		10%{stroke-dashoffset:-68px;}
		100%{stroke-dashoffset:-68px;}
	}
	@keyframes bri02dr{
		0%{stroke-dashoffset:-82px;}
		5%{stroke-dashoffset:0px;}
		10%{stroke-dashoffset:82px;}
		100%{stroke-dashoffset:82px;}
	}
	@keyframes bri03iz{
		0%{stroke-dashoffset:-116px;}
		5%{stroke-dashoffset:0px;}
		10%{stroke-dashoffset:116px;}
		100%{stroke-dashoffset:116px;}
	}
	@keyframes bri03dr{
		0%{stroke-dashoffset:142px;}
		5%{stroke-dashoffset:0px;}
		10%{stroke-dashoffset:-142px;}
		100%{stroke-dashoffset:-142px;}
	}
	@keyframes bri04iz{
		0%{stroke-dashoffset:130px;}
		5%{stroke-dashoffset:0px;}
		10%{stroke-dashoffset:-130px;}
		100%{stroke-dashoffset:-130px;}
	}
	@keyframes bri04dr{
		0%{stroke-dashoffset:-145px;}
		5%{stroke-dashoffset:0px;}
		10%{stroke-dashoffset:145px;}
		100%{stroke-dashoffset:145px;}
	}
	.l01dr{fill:none;stroke:url(#Brillol01iz);stroke-width:4;
		stroke-dasharray: 110px;stroke-dashoffset: 110px;
		animation: bri01dr 5s infinite 5s;
	}
	.l01iz{fill:none;stroke:url(#Brillol01dr);stroke-width:4;
		stroke-dasharray: 144px;stroke-dashoffset: 144px;
		animation: bri01iz 5s infinite 5s;
	}
	.l02iz{fill:none;stroke:url(#Brillol01iz);stroke-width:4;
		stroke-dasharray: 68px;stroke-dashoffset: 68px;
		animation: bri02iz 5s infinite 6s;
	}
	.l02dr{fill:none;stroke:url(#Brillol01dr);stroke-width:4;
		stroke-dasharray: 82px;stroke-dashoffset: 82px;
		animation: bri02dr 5s infinite 6s;
	}
	.l03iz{fill:none;stroke:url(#Brillol01iz);stroke-width:4;
		stroke-dasharray: 116px;stroke-dashoffset: 116px;
		animation: bri03iz 5s infinite 7s;
	}
	.l03dr{fill:none;stroke:url(#Brillol01dr);stroke-width:4;
		stroke-dasharray: 142px;stroke-dashoffset: 142px;
		animation: bri03dr 5s infinite 7s;
	}
	.l04iz{fill:none;stroke:url(#Brillol01iz);stroke-width:4;
		stroke-dasharray: 130px;stroke-dashoffset: 130px;
		animation: bri04iz 5s infinite 8s;
	}
	.l04dr{fill:none;stroke:url(#Brillol01dr);stroke-width:4;
		stroke-dasharray: 145px;stroke-dashoffset: 145px;
		animation: bri04dr 5s infinite 8s;
	}


	@keyframes mundoLine2{
		0%{transform: rotate(0deg) scale(1) ;}
		50%{transform: rotate(10deg) scale(1.1) ;}
		100%{transform: rotate(0deg) scale(1) ;}
	}
	@keyframes mundoLine3{
		0%{transform: rotate(0deg) scale(1) ;}
		50%{transform: rotate(0deg) scale(0.5) ;}
		100%{transform: rotate(0deg) scale(1) ;}
	}
	@keyframes mundoLine4{
		0%{opacity: 1;}
		1%{opacity: 0;}
		50%{opacity: 0;}
		99%{opacity: 0;}
		100%{opacity: 1;}
	}
	.planetaLineas{fill-rule:evenodd;clip-rule:evenodd;fill:#000;filter:url(#shadowPlaneta);opacity: 1;
		transform-origin: 617px 449px;
		animation: mundoLine2 15s infinite linear;
	}
	.planetaPuntos{fill-rule:evenodd;clip-rule:evenodd;fill:url(#planetaPuntos);
		transform-origin: 617px 449px;
		animation: mundoLine2 15s infinite linear;
	}
	.planetaIn{fill:url(#planetaInDegra);
		transform-origin: 617px 449px;
		animation: mundoLine3 20s infinite linear;
	}


	.jackPantalla{fill-rule:evenodd;clip-rule:evenodd;fill:url(#jackPantalla);}
	.jackEthernet{fill:#c3c3c3;}
	.jackEsquinas{fill:none;stroke:#FFFFFF;stroke-width:2;}


	.adornoLeftUp{fill-rule:evenodd;clip-rule:evenodd;fill:#000;filter:url(#shadowPlaneta);opacity: 0.3;}
	
	.mundoCentral,.mundoUp,.mundoUpMed,.mundoMedio,.mundoDonwMed,.mundoDonw{
		fill-rule:evenodd;clip-rule:evenodd;fill:#000;filter:url(#shadowPlaneta);opacity: 0.5;
	}
	.mundoWifi{fill-rule:evenodd;clip-rule:evenodd;fill:#000;filter:url(#shadowPlaneta);opacity: 0.8;}
	@keyframes mundoUp{
		0%, 100%{transform: translateY(0);}
		25%, 75%{transform: translateY(185px);}
		50%{transform: translateY(370px);}
	}
	@keyframes mundoUpMed{
		0%, 100%{transform: translateY(0);}
		25%, 75%{transform: translateY(110px);}
		50%{transform: translateY(220px);}
	}
	@keyframes mundoDonwMed{
		0%, 100%{transform: translateY(0);}
		25%, 75%{transform: translateY(-110px);}
		50%{transform: translateY(-220px);}
	}
	@keyframes mundoDonw{
		0%, 100%{transform: translateY(0);}
		25%, 75%{transform: translateY(-185px);}
		50%{transform: translateY(-370px);}
	}
	.mundoUp{animation: mundoUp 15s infinite linear;}
	.mundoUpMed{animation: mundoUpMed 25s infinite linear;}
	.mundoDonwMed{animation: mundoDonwMed 25s infinite linear;}
	.mundoDonw{animation: mundoDonw 15s infinite linear;}

	.pcMonitor{fill-rule:evenodd;clip-rule:evenodd;fill:#000;filter:url(#shadowPlaneta);opacity: 1;}
	.pcPantalla{fill-rule:evenodd;clip-rule:evenodd;fill:url(#jackPantalla);}
	.pcMouse{fill-rule:evenodd;clip-rule:evenodd;fill:#000;filter:url(#shadowPlaneta);opacity: 1;}
	.st4{fill:#fff;}
	.pcTeclado{fill-rule:evenodd;clip-rule:evenodd;fill:#000;filter:url(#shadowPlaneta);opacity: 1;}




</style>
<rect x="0.1" y="2" class="fondo" width="2592" height="1344"/>
<g>
	<path class="adornoLeftUp" d="M0.1,0.7l0,560.2h458.6c17.3-0.7,33.2-7.2,46.9-18L1044.2,0.7L0.1,0.7z"/>
	<path class="adornoLeftUp" d="M699.5,0.7L0.1,0l0,453.5h224.2c15.1,0,28.8-6.5,40.4-15.9L699.5,0.7L699.5,0.7z"/>
	<path class="adornoLeftUp" d="M0.1,0.7l0,420.4h343.2c13,0,25.2-5,35.3-13.7L783.2,0.7H0.1z"/>
	<path class="adornoLeftUp" d="M0.1,0.7l0,302.8h261c10.1-0.7,19.5-4.3,27.4-10.8l290.6-292H0.1z"/>
	<path class="adornoLeftUp" d="M0.1,0.7l0,280.5h229.3c8.7-0.7,16.6-3.6,23.1-9.4L522.2,0.7C522.2,0.7,0.1,0.7,0.1,0.7z"/>
	<path class="adornoLeftUp" d="M0.1,0.7l0,139.9h114.6c4.3,0,7.9-1.4,11.5-4.3L261.2,0.7C261.2,0.7,0.1,0.7,0.1,0.7z"/>
</g>
<path class="f01" d="M134.3,1226.6c37.2,0,67.4,7.8,67.4,17.3c0,9.6-30.2,17.3-67.4,17.3c-37.2,0-67.4-7.8-67.4-17.3
	C66.9,1234.3,97,1226.6,134.3,1226.6"/>
<path class="f02" d="M399.9,1265.9c78.3,0,141.8,16.3,141.8,36.5c0,20.1-63.5,36.5-141.8,36.5s-141.8-16.3-141.8-36.5
	C258.1,1282.2,321.6,1265.9,399.9,1265.9"/>
<path class="f07" d="M356.9,1157.9c25.2,0,45.6,5.2,45.6,11.7s-20.4,11.7-45.6,11.7s-45.6-5.2-45.6-11.7S331.8,1157.9,356.9,1157.9"
	/>
<path class="f03" d="M752.8,1184.4c42.2,0,76.5,8.8,76.5,19.7c0,10.9-34.2,19.7-76.5,19.7c-42.2,0-76.5-8.8-76.5-19.7
	C676.3,1193.2,710.5,1184.4,752.8,1184.4"/>
<path class="f08" d="M658.7,1133.8c25.9,0,46.8,5.4,46.8,12c0,6.6-21,12-46.8,12c-25.9,0-46.8-5.4-46.8-12
	C611.9,1139.2,632.9,1133.8,658.7,1133.8"/>
<path class="f05" d="M897.5,1026.3c19.3,0,34.9,4,34.9,9c0,5-15.6,9-34.9,9c-19.3,0-34.9-4-34.9-9
	C862.6,1030.3,878.2,1026.3,897.5,1026.3"/>
<path class="f09" d="M779.3,1067.6c19.3,0,34.9,4,34.9,9c0,5-15.6,9-34.9,9c-19.3,0-34.9-4-34.9-9
	C744.5,1071.6,760.1,1067.6,779.3,1067.6"/>
<path class="f06" d="M62,1105.3c21.2,0,38.3,4.4,38.3,9.9S83.1,1125,62,1125c-21.2,0-38.3-4.4-38.3-9.9S40.8,1105.3,62,1105.3"/>
<path class="f04" d="M1011.1,1225.9c40.1,0,72.7,8.4,72.7,18.7c0,10.3-32.5,18.7-72.7,18.7c-40.1,0-72.7-8.4-72.7-18.7
	C938.5,1234.2,971,1225.9,1011.1,1225.9"/>
<path class="l01" d="M134.3,1243.9c17.9-122-52-225.8-134.1-273"/>
<path class="l02" d="M134.3,1243.9c35.7-243.2,276.2-163.9,265.6,58.5"/>
<path class="l10" d="M356.9,1169.6c35.7-243.2,53.5-89.6,43,132.7"/>
<path class="l07" d="M356.9,1169.6c35.7-243.2,312.3-246.1,301.8-23.8"/>
<path class="l08" d="M752.8,1204.1c35.7-243.2-83.5-280.5-94.1-58.2"/>
<path class="l03" d="M752.8,1204.1c35.7-243.2-342.3-124.1-352.9,98.3"/>
<path class="l04" d="M752.8,1204.1c35.7-243.2,268.9-181.9,258.4,40.5"/>
<path class="l05" d="M897.5,1035.3c35.7-243.2,124.2-13.1,113.7,209.3"/>
<path class="l09" d="M897.5,1035.3c35.7-243.2-107.6-181.1-118.1,41.3"/>
<path class="l06" d="M356.9,1169.6c35.7-243.2-284.4-276.9-295-54.5"/>
<path class="l09" d="M897.5,1035.3c35.7-243.2-107.6-181.1-118.1,41.3"/>

<path class="l01dr" d="M178.2,1133.6c27.3-32.3,62.7-43.5,97.3-37.3"/>
<path class="l01iz" d="M274.9,1096.2c36.8,6.5,72.6,32.7,96.5,74.4"/>
<path class="l02iz" d="M715.2,998.6c-14.2,0.1-29,15.9-40,48.3"/>
<path class="l02dr" d="M755.2,1061c-7.6-41.1-23.2-62.4-39.8-62.5"/>
<path class="l03iz" d="M795.3,1092.3c27.9-35.8,64.7-49.1,99.9-43.3"/>
<path class="l03dr" d="M895.6,1049c40.3,6.9,78.6,38.8,99.5,90.7"/>
<path class="l04iz" d="M219.8,967c-42.7-4.1-86.3,9.6-116.9,42.1"/>
<path class="l04dr" d="M336.1,1040.3c-26.2-44.1-70.7-68.9-116.3-73.3"/>


<g id="_x32_-3_1_">
	<path class="planetaLineas" d="M791.6,456.5l5.4,95.7l34.6,35.6l25.8-30.6l-7.7-54.8L791.6,456.5z M670.7,675.1l-105.9-18.7l80.4,53.2
		L670.7,675.1z M789,462.9l-17.8,68.5l22.7,18.2L789,462.9z M786.7,459.8l-53.6,68.4l35.3,2.1L786.7,459.8z M608.1,521.5l53.8,94.3
		l65.4-85L608.1,521.5z M640.3,709.9L558.9,656l-10.5,40.5c15.3,4.2,30.9,7.4,46.9,9.6C610,708.2,625,709.4,640.3,709.9z
		 M520.9,518.6l-74.7-55.8l7.7,109.7C476.2,554.4,498.5,536.5,520.9,518.6z M648.7,192.6l112.2,81.9l-68.6-73.4L648.7,192.6z
		 M621.5,201.6c5-3.3,10-6.6,15.1-9.9l-35.2,2.4L621.5,201.6z M564,242c18.4-13.2,36.1-25.9,54.4-38.3l-23.5-8.8L564,242z
		 M544.7,201.9l14.1,42.5l32.4-49.4L544.7,201.9z M561.4,247.6l102.8,44.7l-43.6-86.9L561.4,247.6z M663.3,295.1l-104.3-45.3
		l-75.7,107L663.3,295.1z M747.7,358.1L668,297.6l-79.3,188.6L747.7,358.1z M668.3,293.6l99.5-9.6l-143.1-77.3
		C639.2,235.7,653.7,264.7,668.3,293.6z M584.7,488.2l80.1-190.4c-61,20.9-122,41.8-182.9,62.7L584.7,488.2z M583.2,491.8l0.2-0.5
		L478.8,361.4L477,362l-30.8,97l77.4,57.8L583.2,491.8z M624.2,203L754,273.2l-111.8-81.6L624.2,203z M415.3,320.2l60.1,34.1
		l-4.8-90.2L415.3,320.2z M411.1,320.8l-8-9.5c-7.5,14.6-14.2,29.3-19.6,44c-4.5,12.1-8.3,24.3-11,36.6
		C385.2,368.1,398.1,344.4,411.1,320.8z M473.5,262l5,94.4l0.7,0.8l76-107.3L473.5,262z M486.7,229.5l-12.3,29.3l82.1-12.2
		l-14.5-43.9L486.7,229.5z M400.1,400.1l7.5,73.3l19.5-49.8L400.1,400.1z M749.3,355.6l21.3-68.9l-99.3,9.6L749.3,355.6z
		 M774.9,291.4l16,156.6l35.9-72.3L774.9,291.4z M828.7,372.9l23.3-31.8l-74.2-50.8C794.7,317.8,811.7,345.4,828.7,372.9z
		 M858.8,545.7l8.2-71.9l-38.6-94.6c-12.2,24.5-24.4,49.1-36.6,73.6l60.7,47.9C854.6,515.7,856.7,530.7,858.8,545.7z M853.7,343.7
		l-23.5,32.1l39.8,97.6l-8.2,72.1c12.2-35,17.3-68.6,16.2-100.9C876.9,409.5,868.4,376,853.7,343.7z M777,286.2
		c24.8,17,49.7,34,74.5,51c-3.8-12.7-10.4-25.5-19.6-38.4c-9.4-13.2-21.4-26.5-35.7-40l-21.2,25.8l2.7,1.5L777,286.2z M787.4,443.4
		L772,292.5l-20.2,65l0.7,0.5l-0.6,0.5L787.4,443.4z M786.3,455.4l-198.6,36.6l17.7,25.3l0.1-0.1l0.7,1.1l123.2,9.6L786.3,455.4z
		 M590.6,488.5l197.2-36.4c-12.8-30.5-25.5-61.1-38.3-91.6C696.6,403.2,643.6,445.8,590.6,488.5z M370.3,518.9l-2.6-103.8l-6,30.7
		c-0.8,13.5-0.3,27.1,1.7,41C364.9,497.4,367.2,508.1,370.3,518.9z M449.8,573.1l-43-89.6l-1,2.6l-0.2-2.1l-31.9,45.9l10.3,26.5
		L449.8,573.1z M451.6,576.7L451.6,576.7L451.6,576.7L386,559.9l23,41.3c22.5,28.7,45.3,50.6,68.3,66.2h0
		c21.3,14.5,42.9,23.6,64.6,27.8c-19.1-17.6-38.3-35.2-57.4-52.7C473.4,620.5,462.5,598.6,451.6,576.7z M408.4,479.7l42.2,88
		l-7.6-107.7l-14.1-32.8L408.4,479.7z M370.4,402.7l3.1,122.3l31.7-45.7l-8.3-81.1L370.4,402.7z M522.4,521.2L456,574.5l83.7,16.6
		L522.4,521.2z M540.9,595.7l-53.1,45.9l57.9,53.2l10.5-40.5l-5.1-3.4l4.8,0.8L540.9,595.7z M758.3,640.8l-23.2-32.7l-56.6,62.3
		L758.3,640.8z M797.6,645.9l1.3,0.2l-0.5,3l-3.7-0.6c-8.7,8-17.8,14.9-27.4,20.9c-9.7,6.1-19.8,11.2-30.2,15.5
		c-14.4,8.6-29.4,14.5-44.7,18.8c-15.1,4.3-30.6,7-46.2,9.3l-0.5,0.6L645,713c-17-0.4-33.8-1.7-50.2-4c-16.1-2.2-31.8-5.4-47.2-9.7
		l-0.2,0.9l-1.5-1.4c-23.7-3.8-47.2-13.3-70.3-29.1l0,0c-23.3-15.8-46.3-38-69-66.9l-0.1-0.1c-8.3-14.9-16.6-29.8-24.9-44.7
		c-3.3-8.4-6.8-16.9-9.9-25.4l-1,1.4l-0.1-4.3c-4.8-14.4-8.2-28.6-10.2-42.6c-2-14.1-2.5-28-1.7-41.7l0-0.1l8.2-42.2l-0.9,0.2
		l1.4-2.5c2.9-15.7,7.4-31.2,13.2-46.7c5.8-15.5,12.8-31,20.8-46.3l0-0.1l0.1-0.1c11.1-16.6,23.5-31.7,37.4-45.1
		c13.9-13.5,29.1-25.3,45.9-35.5l0.1,0c19.1-9.3,38.4-18.6,57.5-27.8l51.2-7.6l0.3-0.4l0.8,0.3l47.3-3.2l0.5-0.3l0.5,0.4l50.4,9.9
		l0.1,0c19.4,5.3,37.5,12.5,54.4,21.6c16.9,9.1,32.5,20.2,46.8,33.3l0,0c0.5,0.4,0.9,0.8,1.4,1.3l0.9-1.1l2.3,1.9l-1,1.2
		c14.5,13.6,26.7,27.1,36.2,40.5c10.2,14.4,17.3,28.6,21,42.8l0.8,0.6l-0.4,0.5c15.3,33.1,24.1,67.5,25.3,103.5
		c1.2,36.1-5.2,73.8-20.6,113.3l0,0.3l-0.3,0.3c-6.7,16.5-15.5,32.1-26.4,47.1C823.6,619.6,811.4,633.1,797.6,645.9z M737,605.6
		l23.3,32.8l33.5-85.2l-23.7-19L737,605.6z M665.2,616.4l69.1-12l33-71.1l-36.4-2.2L665.2,616.4z M544.6,592.1l114.1,24.3l-53.6-94
		L544.6,592.1z M486.1,639.2l52.4-45.3l-83.2-16.5L486.1,639.2z M763.9,637.3l65.5-47.6l-33.3-34.3L763.9,637.3z M651.2,706.3
		l95.2-57.9l-72.2,26.8L651.2,706.3z M831.5,592l-67.1,48.7l29.4,4.7c14.5-13.2,27.1-27.1,37.7-41.7c8.7-11.9,16.1-24.4,22.1-37.3
		c-7.3,8.6-14.5,17.2-21.8,25.9L831.5,592z M761.4,643.2L740,680.4c8.9-3.9,17.5-8.3,25.8-13.5c8.7-5.5,17.1-11.8,25.2-19
		L761.4,643.2z M735.4,682.5l21-36.6L652.6,709c13.2-2.1,26.3-4.6,39.1-8.2C706.7,696.6,721.4,690.8,735.4,682.5z M663.9,619.7
		c4.7,9.4,9.4,18.7,14.1,28.1l-2.6,21.8l55.9-61.5L663.9,619.7z M559,651.7l97-32.8L543.8,595L559,651.7z M672,672.2l2.8-24
		l-14-27.9L564,653.1L672,672.2z M703.5,204.4l58.3,35.8l11.7,41.7l20.6-25.1c-0.5-0.5-1-0.9-1.5-1.4h0
		c-14.1-12.9-29.5-23.9-46.2-32.9C732.9,215.2,718.6,209.2,703.5,204.4z M769.7,279.6l-10.5-37.5l-57.5-35.3L769.7,279.6z
		 M412.7,318l24.6-41.4l38.4-40.1c-12.4,8.5-24,17.9-34.7,28.3c-13.4,13-25.6,27.6-36.3,43.7L412.7,318z M481,235.3l-41.3,43.2
		l-19.2,32.2c16.7-17,33.5-33.9,50.2-50.9L481,235.3z M396.9,395.2l12.6-65.4l-37.9,69.7L396.9,395.2z M428.6,420.9l46.3-63.5
		c-20.3-11.5-40.6-23-60.9-34.5l-14.1,73L428.6,420.9z M472.9,365.3l-42.3,58.1l13.7,32C453.8,425.3,463.3,395.3,472.9,365.3z
		 M585.5,494l-3.6,1.5l-0.5,0.4l0.1-0.2l-56.4,23.7l17.4,70.4l60.9-70.1L585.5,494z"/>
	<g>
		<path class="planetaPuntos" d="M477.1,349.7c4,0,7.2,3.2,7.2,7.2c0,4-3.2,7.2-7.2,7.2c-4,0-7.2-3.2-7.2-7.2
			C469.9,353,473.1,349.7,477.1,349.7"/>
		<path class="planetaPuntos" d="M412.9,316.1c2.4,0,4.4,2,4.4,4.4c0,2.4-2,4.4-4.4,4.4s-4.4-2-4.4-4.4C408.4,318.1,410.4,316.1,412.9,316.1"
			/>
		<path class="planetaPuntos" d="M402.7,304.2c2.4,0,4.4,2,4.4,4.4s-2,4.4-4.4,4.4s-4.4-2-4.4-4.4S400.3,304.2,402.7,304.2"/>
		<path class="planetaPuntos" d="M398.2,392c2.4,0,4.4,2,4.4,4.4s-2,4.4-4.4,4.4s-4.4-2-4.4-4.4S395.7,392,398.2,392"/>
		<path class="planetaPuntos" d="M368.8,397c2.4,0,4.4,2,4.4,4.4s-2,4.4-4.4,4.4c-2.4,0-4.4-2-4.4-4.4S366.4,397,368.8,397"/>
		<path class="planetaPuntos" d="M471.9,256.2c2.4,0,4.4,2,4.4,4.4s-2,4.4-4.4,4.4s-4.4-2-4.4-4.4S469.5,256.2,471.9,256.2"/>
		<path class="planetaPuntos" d="M485.5,223.9c2.4,0,4.4,2,4.4,4.4s-2,4.4-4.4,4.4s-4.4-2-4.4-4.4S483.1,223.9,485.5,223.9"/>
		<path class="planetaPuntos" d="M542.8,196.3c2.4,0,4.4,2,4.4,4.4s-2,4.4-4.4,4.4s-4.4-2-4.4-4.4S540.3,196.3,542.8,196.3"/>
		<path class="planetaPuntos" d="M558.4,243.4c2.4,0,4.4,2,4.4,4.4s-2,4.4-4.4,4.4s-4.4-2-4.4-4.4S556,243.4,558.4,243.4"/>
		<path class="planetaPuntos" d="M621.2,198.7c2.4,0,4.4,2,4.4,4.4s-2,4.4-4.4,4.4s-4.4-2-4.4-4.4S618.7,198.7,621.2,198.7"/>
		<path class="planetaPuntos" d="M642.4,185.4c2.4,0,4.4,2,4.4,4.4s-2,4.4-4.4,4.4c-2.4,0-4.4-2-4.4-4.4S639.9,185.4,642.4,185.4"/>
		<path class="planetaPuntos" d="M594.4,186.4c3.7,0,6.7,3,6.7,6.7s-3,6.7-6.7,6.7c-3.7,0-6.7-3-6.7-6.7S590.7,186.4,594.4,186.4"/>
		<path class="planetaPuntos" d="M693,195.3c2.4,0,4.4,2,4.4,4.4s-2,4.4-4.4,4.4s-4.4-2-4.4-4.4S690.6,195.3,693,195.3"/>
		<path class="planetaPuntos" d="M793.6,249.9c2.4,0,4.4,2,4.4,4.4s-2,4.4-4.4,4.4s-4.4-2-4.4-4.4S791.1,249.9,793.6,249.9"/>
		<path class="planetaPuntos" d="M772.8,277.6c4.1,0,7.5,3.4,7.5,7.5c0,4.1-3.4,7.5-7.5,7.5c-4.1,0-7.5-3.4-7.5-7.5
			C765.3,280.9,768.6,277.6,772.8,277.6"/>
		<path class="planetaPuntos" d="M667.4,288.5c3.7,0,6.7,3,6.7,6.7s-3,6.7-6.7,6.7s-6.7-3-6.7-6.7S663.7,288.5,667.4,288.5"/>
		<path class="planetaPuntos" d="M854,336.3c2.4,0,4.4,2,4.4,4.4s-2,4.4-4.4,4.4s-4.4-2-4.4-4.4S851.6,336.3,854,336.3"/>
		<path class="planetaPuntos" d="M828.6,371.1c2.4,0,4.4,2,4.4,4.4s-2,4.4-4.4,4.4c-2.4,0-4.4-2-4.4-4.4S826.1,371.1,828.6,371.1"/>
		<path class="planetaPuntos" d="M750.1,353.7c2.4,0,4.4,2,4.4,4.4s-2,4.4-4.4,4.4s-4.4-2-4.4-4.4S747.7,353.7,750.1,353.7"/>
		<path class="planetaPuntos" d="M789.9,445.8c4.1,0,7.5,3.4,7.5,7.5s-3.4,7.5-7.5,7.5c-4.1,0-7.5-3.4-7.5-7.5S785.8,445.8,789.9,445.8"/>
		<path class="planetaPuntos" d="M859,553.1c2.4,0,4.4,2,4.4,4.4s-2,4.4-4.4,4.4s-4.4-2-4.4-4.4S856.6,553.1,859,553.1"/>
		<path class="planetaPuntos" d="M795.6,548.4c2.4,0,4.4,2,4.4,4.4s-2,4.4-4.4,4.4s-4.4-2-4.4-4.4S793.1,548.4,795.6,548.4"/>
		<path class="planetaPuntos" d="M769.5,527.5c2.4,0,4.4,2,4.4,4.4s-2,4.4-4.4,4.4c-2.4,0-4.4-2-4.4-4.4S767,527.5,769.5,527.5"/>
		<path class="planetaPuntos" d="M730.1,525.1c2.4,0,4.4,2,4.4,4.4s-2,4.4-4.4,4.4c-2.4,0-4.4-2-4.4-4.4S727.7,525.1,730.1,525.1"/>
		<path class="planetaPuntos" d="M586,481.8c5.8,0,10.4,4.7,10.4,10.4c0,5.8-4.7,10.4-10.4,10.4c-5.8,0-10.4-4.7-10.4-10.4
			C575.6,486.4,580.2,481.8,586,481.8"/>
		<path class="planetaPuntos" d="M605.4,515.4c2.4,0,4.4,2,4.4,4.4s-2,4.4-4.4,4.4s-4.4-2-4.4-4.4S602.9,515.4,605.4,515.4"/>
		<path class="planetaPuntos" d="M523.3,514.1c2.4,0,4.4,2,4.4,4.4s-2,4.4-4.4,4.4s-4.4-2-4.4-4.4S520.9,514.1,523.3,514.1"/>
		<path class="planetaPuntos" d="M428.8,418.7c2.4,0,4.4,2,4.4,4.4s-2,4.4-4.4,4.4c-2.4,0-4.4-2-4.4-4.4S426.4,418.7,428.8,418.7"/>
		<path class="planetaPuntos" d="M444.4,455.1c2.4,0,4.4,2,4.4,4.4s-2,4.4-4.4,4.4c-2.4,0-4.4-2-4.4-4.4S442,455.1,444.4,455.1"/>
		<path class="planetaPuntos" d="M360.2,441.2c2.4,0,4.4,2,4.4,4.4c0,2.4-2,4.4-4.4,4.4s-4.4-2-4.4-4.4C355.8,443.2,357.8,441.2,360.2,441.2"
			/>
		<path class="planetaPuntos" d="M406.7,472.3c4.1,0,7.4,3.3,7.4,7.4c0,4.1-3.3,7.4-7.4,7.4c-4.1,0-7.4-3.3-7.4-7.4
			C399.3,475.6,402.7,472.3,406.7,472.3"/>
		<path class="planetaPuntos" d="M372.1,525.1c2.4,0,4.4,2,4.4,4.4s-2,4.4-4.4,4.4c-2.4,0-4.4-2-4.4-4.4S369.6,525.1,372.1,525.1"/>
		<path class="planetaPuntos" d="M383,553.1c2.4,0,4.4,2,4.4,4.4s-2,4.4-4.4,4.4c-2.4,0-4.4-2-4.4-4.4S380.5,553.1,383,553.1"/>
		<path class="planetaPuntos" d="M452.6,570.9c2.4,0,4.4,2,4.4,4.4s-2,4.4-4.4,4.4s-4.4-2-4.4-4.4S450.1,570.9,452.6,570.9"/>
		<path class="planetaPuntos" d="M407.7,597.6c2.4,0,4.4,2,4.4,4.4s-2,4.4-4.4,4.4c-2.4,0-4.4-2-4.4-4.4S405.3,597.6,407.7,597.6"/>
		<path class="planetaPuntos" d="M541.8,585.6c4.1,0,7.4,3.3,7.4,7.4c0,4.1-3.3,7.4-7.4,7.4c-4.1,0-7.4-3.3-7.4-7.4
			C534.3,588.9,537.7,585.6,541.8,585.6"/>
		<path class="planetaPuntos" d="M485.6,637.1c2.4,0,4.4,2,4.4,4.4s-2,4.4-4.4,4.4c-2.4,0-4.4-2-4.4-4.4S483.1,637.1,485.6,637.1"/>
		<path class="planetaPuntos" d="M557.9,649.2c2.4,0,4.4,2,4.4,4.4c0,2.4-2,4.4-4.4,4.4s-4.4-2-4.4-4.4C553.5,651.1,555.5,649.2,557.9,649.2"
			/>
		<path class="planetaPuntos" d="M546.6,693.1c2.4,0,4.4,2,4.4,4.4s-2,4.4-4.4,4.4s-4.4-2-4.4-4.4S544.1,693.1,546.6,693.1"/>
		<path class="planetaPuntos" d="M645.5,707.1c2.4,0,4.4,2,4.4,4.4s-2,4.4-4.4,4.4s-4.4-2-4.4-4.4S643,707.1,645.5,707.1"/>
		<path class="planetaPuntos" d="M736.5,679.1c2.4,0,4.4,2,4.4,4.4s-2,4.4-4.4,4.4s-4.4-2-4.4-4.4S734.1,679.1,736.5,679.1"/>
		<path class="planetaPuntos" d="M794.3,642.5c2.4,0,4.4,2,4.4,4.4s-2,4.4-4.4,4.4c-2.4,0-4.4-2-4.4-4.4S791.8,642.5,794.3,642.5"/>
		<path class="planetaPuntos" d="M831.7,585.5c2.4,0,4.4,2,4.4,4.4s-2,4.4-4.4,4.4s-4.4-2-4.4-4.4S829.2,585.5,831.7,585.5"/>
		<path class="planetaPuntos" d="M760.6,637.1c2.4,0,4.4,2,4.4,4.4s-2,4.4-4.4,4.4c-2.4,0-4.4-2-4.4-4.4S758.2,637.1,760.6,637.1"/>
		<path class="planetaPuntos" d="M735.3,601.3c2.4,0,4.4,2,4.4,4.4s-2,4.4-4.4,4.4s-4.4-2-4.4-4.4S732.8,601.3,735.3,601.3"/>
		<path class="planetaPuntos" d="M673.3,669.6c2.4,0,4.4,2,4.4,4.4s-2,4.4-4.4,4.4s-4.4-2-4.4-4.4S670.9,669.6,673.3,669.6"/>
		<path class="planetaPuntos" d="M661.6,611.1c4.1,0,7.4,3.3,7.4,7.4c0,4.1-3.3,7.4-7.4,7.4c-4.1,0-7.4-3.3-7.4-7.4
			C654.2,614.4,657.5,611.1,661.6,611.1"/>
	</g>
</g>

<g>
		<linearGradient id="jackPantalla" gradientUnits="userSpaceOnUse" x1="166.1186" y1="731.8033" x2="368.397" y2="934.0818">
			<stop  offset="0" style="stop-color:#00D6D6;stop-opacity:0.5"/>
			<stop  offset="0.5" style="stop-color:#00D6D6;stop-opacity:0"/>
			<stop  offset="1" style="stop-color:#00D6D6;stop-opacity:0.2"/>
		</linearGradient>
		<circle class="planetaIn" cx="625.6" cy="453.2" r="327.7"/>
		<rect x="123.3" y="774.7" class="jackPantalla" width="288" height="116.6"/>
		<path class="jackEthernet" d="M231.9,811.5c0-1.5,1.2-2.7,2.7-2.7c1.5,0,2.7,1.2,2.7,2.7c0,1.5-1.2,2.7-2.7,2.7
			C233.1,814.2,231.9,813,231.9,811.5 M271,814.2c-1.5,0-2.7-1.2-2.7-2.7c0-1.5,1.2-2.7,2.7-2.7c1.5,0,2.7,1.2,2.7,2.7
			C273.6,813,272.4,814.2,271,814.2z M271,803.9c-4.2,0-7.6,3.4-7.6,7.6c0,1.5,0.5,3,1.3,4.2c-2.3,3.6-4.8,9-6.2,16.2l5,0
			c1.3-5.8,3.3-10.2,5.1-13.2c0.7,0.2,1.5,0.4,2.3,0.4c4.2,0,7.6-3.4,7.6-7.6S275.1,803.9,271,803.9z M252.7,799.4
			c1.5,0,2.7,1.2,2.7,2.7c0,1.5-1.2,2.7-2.7,2.7c-1.5,0-2.7-1.2-2.7-2.7C250.1,800.6,251.3,799.4,252.7,799.4z M250.3,809.2v22.7
			h4.9v-22.7c3-1.1,5.2-3.8,5.2-7.1c0-4.2-3.4-7.6-7.6-7.6c-4.2,0-7.6,3.4-7.6,7.6C245.1,805.4,247.3,808.3,250.3,809.2z
			 M269.4,843.7h-1.3v-6.6c0-1-0.8-1.8-1.8-1.8l-27.1,0c-1,0-1.8,0.8-1.8,1.8v6.6h-1.4c-1.7,0-3.1,1.4-3.1,3.1v24.6h39.5v-24.6
			C272.5,845.1,271.1,843.7,269.4,843.7z M236.9,818.7c1.8,3.1,3.9,7.4,5.1,13.2h5.1c-1.5-7.2-4-12.5-6.2-16.2
			c0.8-1.2,1.3-2.7,1.3-4.2c0-4.2-3.4-7.6-7.6-7.6c-4.2,0-7.6,3.4-7.6,7.6s3.4,7.6,7.6,7.6C235.4,819.1,236.1,818.9,236.9,818.7z"/>
		<path class="jackEthernet" d="M175,808.2h2.4v-9.3h3.4v-4.4h2.5v20.7H175V808.2z M160.7,797h2.3v-2.3h-2.3V797z M165.5,797h2.3v-2.3h-2.3
			V797z M170.2,797h2.3v-2.3h-2.3V797z M174.8,797h2.3v-2.3h-2.3V797z M172.7,822.1c0,0-1.6,1.1-3.6,1.1c-2.1,0-3.6-1.1-3.6-1.1v-16
			h-2.5v-7h12.2v7h-2.4V822.1z M165.2,871.4h7.4v-16.3h5l7.5-17.8v-18.7h-6c-1.6,4.1-5.4,6.8-10,6.8c-4.6,0-8.3-2.5-10-6.8h-6.3
			v18.7l7.3,17.8h5.3V871.4z M163.2,808.2h-2.4v-9.3h-3.3v-4.4h-2.7v20.7h8.3V808.2z"/>
		<path class="jackEthernet" d="M351.2,819.8c9.3,0.1,17.4,3.3,24.1,9.8c0.4,0.4,0.6,0.9,0.3,1.5c-0.3,0.5-0.8,0.6-1.3,0.5
			c-0.2-0.1-0.4-0.2-0.5-0.4c-4.9-4.8-10.7-7.8-17.4-8.8c-10.4-1.6-19.6,1.3-27.4,8.4c-0.2,0.1-0.3,0.3-0.5,0.4
			c-0.5,0.5-1.2,0.5-1.6,0c-0.4-0.5-0.4-1.1,0.1-1.6c0.9-1,2-1.8,3-2.7c6-4.6,12.9-7,20.5-7.2C350.7,819.8,350.9,819.8,351.2,819.8
			 M351.1,828.5c6.7,0.1,12.6,2.4,17.6,7c0.3,0.2,0.5,0.5,0.7,0.8c0.2,0.5,0.3,0.9-0.2,1.3c-0.2,0.2-0.4,0.2-0.7,0.2
			c-0.3,0-0.6-0.1-0.8-0.3c-1.6-1.7-3.5-3-5.6-4.1c-8.8-4.7-20-3.2-27.2,3.9c-0.6,0.6-1.3,0.7-1.8,0.2c-0.5-0.5-0.4-1.2,0.3-1.8
			C338.3,830.9,344.2,828.6,351.1,828.5z M351.1,837.2c4.5,0.1,8.4,1.6,11.7,4.7c0.4,0.4,0.7,0.9,0.5,1.4c-0.3,0.8-1.2,0.9-2,0.2
			c-1.7-1.7-3.8-2.9-6.1-3.5c-5.4-1.4-10.1-0.3-14.2,3.5c-0.5,0.4-0.9,0.6-1.5,0.3c-0.5-0.3-0.6-0.7-0.5-1.3
			c0.1-0.3,0.2-0.4,0.4-0.6C342.6,838.9,346.6,837.3,351.1,837.2z M351.2,854.8C351.1,854.8,351.1,854.8,351.2,854.8
			c-2.5,0-4.5-2-4.5-4.4c0,0,0,0,0-0.1c0,0,0,0,0,0c0-2.5,2-4.5,4.5-4.5c2.5,0,4.5,2,4.5,4.5C355.6,852.8,353.6,854.8,351.2,854.8
			C351.2,854.8,351.2,854.8,351.2,854.8L351.2,854.8z M351.1,813.3c-11.1,0.1-20.6,3.9-28.6,11.6c-0.3,0.3-0.6,0.6-1.1,0.5
			c-0.4,0-0.8-0.3-0.9-0.7c-0.2-0.5-0.1-0.9,0.3-1.3c1.7-1.7,3.5-3.3,5.5-4.6c7.9-5.5,16.7-8.2,26.4-7.8
			c11.2,0.4,20.8,4.6,28.8,12.4c0.6,0.6,0.6,1.2,0.2,1.7c-0.5,0.5-1.1,0.4-1.7-0.1c-2.6-2.6-5.6-4.9-8.9-6.7
			c-5.4-3-11.4-4.7-17.6-5.1C352.6,813.2,351.8,813.3,351.1,813.3z"/>
		<path class="jackEsquinas" d="M411.3,798.7v-24h-24 M123.3,867.2v24h24 M411.3,867.2v24h-24 M123.3,798.7v-24h24"/>
	</g>


<g>
		<path class="mundoCentral" d="M2439.9,1027.6c0-126.8-102.9-229.6-229.9-229.6s-229.9,102.8-229.9,229.6c0,126.8,102.9,229.6,229.9,229.6
			S2439.9,1154.5,2439.9,1027.6 M1987.7,1027.6c0-122.6,99.5-222,222.3-222s222.3,99.4,222.3,222c0,122.6-99.5,222-222.3,222
			S1987.7,1150.3,1987.7,1027.6z"/>
		<path class="mundoUp" d="M2318.9,843.4c0-16.7-48.8-30.2-109-30.2s-109,13.5-109,30.2c0,16.7,48.8,30.2,109,30.2
			S2318.9,860.1,2318.9,843.4 M2210,866c-56,0-101.4-10.1-101.4-22.6s45.4-22.6,101.4-22.6c56,0,101.4,10.1,101.4,22.6
			S2265.9,866,2210,866z"/>
		<path class="mundoDonw" d="M2318.9,1212.7c0-16.7-48.8-30.2-109-30.2s-109,13.5-109,30.2c0,16.7,48.8,30.2,109,30.2
			S2318.9,1229.4,2318.9,1212.7 M2210,1235.3c-56,0-101.4-10.1-101.4-22.6c0-12.5,45.4-22.6,101.4-22.6c56,0,101.4,10.1,101.4,22.6
			C2311.3,1225.2,2265.9,1235.3,2210,1235.3z"/>
		<path class="mundoUpMed" d="M2399.5,917.7c0-29-84.9-52.6-189.6-52.6s-189.6,23.5-189.6,52.6c0,29,84.9,52.6,189.6,52.6
			S2399.5,946.8,2399.5,917.7 M2210,962.7c-100.5,0-181.9-20.1-181.9-45c0-24.8,81.5-45,181.9-45s181.9,20.1,181.9,45
			C2391.9,942.5,2310.4,962.7,2210,962.7z"/>
		<path class="mundoDonwMed" d="M2399.5,1137.6c0-29-84.9-52.6-189.6-52.6s-189.6,23.5-189.6,52.6c0,29,84.9,52.6,189.6,52.6
			S2399.5,1166.7,2399.5,1137.6 M2210,1182.6c-100.5,0-181.9-20.1-181.9-45c0-24.8,81.5-45,181.9-45s181.9,20.1,181.9,45
			C2391.9,1162.5,2310.4,1182.6,2210,1182.6z"/>
		<path class="mundoMedio" d="M2429.7,1027.6c0-33.7-98.4-60.9-219.8-60.9s-219.8,27.3-219.8,60.9c0,33.7,98.4,60.9,219.8,60.9
			S2429.7,1061.3,2429.7,1027.6 M2210,1081c-117.2,0-212.2-23.9-212.2-53.3c0-29.5,95-53.3,212.2-53.3s212.2,23.9,212.2,53.3
			C2422.1,1057.1,2327.1,1081,2210,1081z"/>
	</g>




<g>
		<path class="mundoWifi" d="M2210.1,1128.8c-12.5,0-22.6,10.1-22.6,22.6c0,12.5,10.1,22.6,22.6,22.6c12.5,0,22.6-10.1,22.6-22.6
			C2232.7,1139,2222.6,1128.8,2210.1,1128.8 M2198.1,1151.4c0-6.6,5.3-12,12-12c6.6,0,12,5.4,12,12s-5.4,12-12,12
			C2203.5,1163.4,2198.1,1158.1,2198.1,1151.4z"/>
		<path class="mundoWifi" d="M2210.1,1086.5c17.3,0,33.6,6.8,45.9,19c6.2,6.2,16.3,6.2,22.5,0c6.2-6.2,6.2-16.3,0-22.5
			c-18.3-18.3-42.5-28.3-68.4-28.3c-26,0-50.3,10.1-68.6,28.6c-6.2,6.2-6.1,16.3,0.1,22.5c3.1,3.1,7.1,4.6,11.2,4.6
			c4.1,0,8.2-1.6,11.3-4.7C2176.3,1093.4,2192.6,1086.5,2210.1,1086.5 M2210.1,1065.4c23,0,44.6,8.9,60.8,25.2c2,2,2,5.3,0,7.4
			c-2,2-5.3,2-7.4,0c-14.3-14.3-33.3-22.1-53.4-22.1c-20.3,0-39.4,7.9-53.6,22.3c-1,1-2.3,1.5-3.7,1.5c-1.4,0-2.7-0.5-3.7-1.5
			c-2-2-2.1-5.3,0-7.4C2165.3,1074.5,2187,1065.4,2210.1,1065.4z"/>
		<path class="mundoWifi" d="M2210.1,1016.5c36,0,69.9,14,95.4,39.5c6.2,6.2,16.3,6.2,22.5,0c6.2-6.2,6.2-16.3,0-22.5
			c-15.3-15.3-33.1-27.3-53-35.7c-20.6-8.7-42.4-13.1-64.9-13.1c-22.6,0-44.4,4.4-65,13.2c-19.9,8.4-37.7,20.5-53.1,35.9
			c-6.2,6.2-6.2,16.3,0,22.5c3.1,3.1,7.2,4.6,11.2,4.6c4.1,0,8.1-1.6,11.3-4.7C2140,1030.6,2173.9,1016.5,2210.1,1016.5
			 M2210.1,995.4c21,0,41.4,4.1,60.7,12.3c18.6,7.9,35.3,19.1,49.6,33.4c2,2,2,5.3,0,7.4c-2,2-5.3,2-7.4,0
			c-27.5-27.5-64.1-42.6-102.9-42.6c-39,0-75.6,15.2-103.1,42.8c-1,1-2.3,1.5-3.7,1.5c-1.4,0-2.7-0.5-3.7-1.5c-2-2-2.1-5.3,0-7.4
			c14.3-14.4,31-25.7,49.7-33.6C2168.5,999.6,2189.1,995.4,2210.1,995.4z"/>
		<path class="mundoWifi" d="M2210.1,945.2c27.9,0,54.9,5.5,80.3,16.2c24.6,10.4,46.6,25.3,65.6,44.2c6.5,6.5,17,6.5,23.5,0
			c6.5-6.5,6.5-17,0-23.5c-22-22-47.6-39.3-76.1-51.3c-29.5-12.5-60.9-18.8-93.2-18.8c-32.4,0-63.8,6.4-93.4,18.9
			c-28.6,12.1-54.2,29.4-76.2,51.5c-6.5,6.5-6.5,17,0,23.5c3.2,3.2,7.5,4.8,11.7,4.8c4.3,0,8.5-1.6,11.8-4.9
			c19-19,41-33.9,65.6-44.4C2155.1,950.6,2182.2,945.2,2210.1,945.2 M2210.1,922.6c30.7,0,60.8,6,89.1,18
			c27.3,11.5,51.8,28.1,72.7,49c2.3,2.3,2.3,6.1,0,8.4c-2.3,2.3-6.1,2.3-8.4,0c-19.9-19.9-43.1-35.6-69-46.5
			c-26.8-11.3-55.3-17-84.4-17c-29.2,0-57.7,5.7-84.6,17.1c-25.9,11-49.2,26.7-69,46.6c-1.1,1.1-2.6,1.7-4.2,1.7
			c-1.6,0-3.1-0.6-4.2-1.7c-2.3-2.3-2.3-6.1,0-8.4c21-21,45.5-37.6,72.8-49.2C2149.2,928.7,2179.3,922.6,2210.1,922.6z"/>
	</g>



<g id="pc">
	<g>
		<path class="pcMouse" d="M2291.5,262.9l3.5-1.9c1-0.5,2.6-0.6,4,0.6c0.9,0.7,0.5,1.1-0.6,1.6l-3.6,1.7c-1,0.5-2.8,0.6-3.7,0
			C2290.3,264.2,2290.5,263.4,2291.5,262.9 M2307.1,261.6c0.5,0.3,0.9,0.6,1.4,0.9c4.6,3.3,4.4,9-0.5,12.4
			c-8.9,6.3-19.8,12.1-19.8,12.1c-2.7,1.4-5.5,2.6-8.5,3.4c-7.2,1.8-13.6,1.2-19.1-2c-3.4-2-5.1-4.6-5.1-7.2c0-0.5,0.2-1.5,0.7-2.7
			c1.8-4.7,8.8-13.8,19.3-17.7c4.7-1.8,10-3.6,16-3.6C2296.3,257.2,2301.5,258.4,2307.1,261.6z"/>
		<path class="pcMonitor" d="M2443.8,292.8c-0.4,1-1,1.9-1.7,2.7C2442.7,294.7,2443.3,293.8,2443.8,292.8 M2418.2,312.9
			C2418.2,312.9,2418.2,312.9,2418.2,312.9L2418.2,312.9z M2401.8,245c0,1-0.8,1.4-1.9,0.8l-7.4-4.3c-1-0.6-1.9-1.9-1.9-2.9
			c0-1,0.8-1.4,1.9-0.8l7.4,4.3C2401,242.7,2401.8,244,2401.8,245z M2512.1,160.2L2512,319l4.1-2.4l0.1-158.8L2512.1,160.2L2512,319
			l-67.3-38.8l2,4.4c1,2.2,0.7,5.4-0.7,8.6c-1.4,3.2-3.7,6-6.3,7.5l-21.2,12.3c-0.1,0.1-0.2,0-0.2,0l0,0l-50.8-29.5
			c-0.4-0.2-0.4-1.9-0.1-2.7c0-0.1,0.1-0.2,0.2-0.3c0,0,0.1-0.1,0.1-0.1l21.2-12.3c0.8-0.5,1.5-1.1,2.2-1.8c0.8-0.9,1.4-1.9,1.9-3.1
			c0.9-2.1,1.1-4.2,0.5-5.6l-4.3-9.5l-88.5-51.1l0.1-158.8l4.1-2.4l211.4,122L2512.1,160.2z M2430.3,251.9l-63.1-36.4l-65.6-37.9
			l0-137.6l152.8,88.2l56.7,32.7l0,137.6l-78.2-45.2L2430.3,251.9z"/>
		<polygon class="pcPantalla" points="2367.3,215.4 2430.3,251.9 2432.9,253.4 2511.2,298.5 2511.1,161 2454.5,128.2 2301.6,40 
			2301.7,177.6 		"/>
		<path class="st4" d="M2407.2,182.6l0-101.9c2.2,0.8,4.4,1.1,6.4,1.1c2.5,0,4.8-0.6,6.9-1.8c5-2.9,7.7-8.8,7.7-16.8
			c0-16.3-11.5-36.3-25.7-44.5c-7-4-13.6-4.7-18.6-1.8c-5,2.9-7.7,8.8-7.7,16.8c0,16.3,11.5,36.3,25.7,44.5c1.5,0.8,2.9,1.5,4.3,2.1
			l0,101.7L2407.2,182.6z M2394.4,56.3c0,5.1,3.6,11.2,8,13.8c4.4,2.5,8,0.5,8-4.6c0-5.1-3.6-11.2-8-13.8
			C2397.9,49.2,2394.4,51.2,2394.4,56.3z M2392.7,45.3c5.3-3,13.9,1.9,19.1,11l2.3-1.3c-6.5-11.3-17.1-17.4-23.6-13.6L2392.7,45.3z
			 M2387.9,36.8c8-4.6,20.9,2.9,28.9,16.7l2.2-1.3c-9.2-15.9-24.2-24.6-33.4-19.3L2387.9,36.8z M2402.1,19.7
			c13.9,8,25.2,27.6,25.2,43.6c0,7.6-2.6,13.3-7.3,16c-4.7,2.7-10.9,2.1-17.6-1.8c-13.9-8-25.2-27.6-25.2-43.6
			c0-7.6,2.6-13.3,7.2-16C2389.1,15.2,2395.4,15.8,2402.1,19.7z"/>
		<path class="pcTeclado" d="M2344.5,301l-5.3-3.1c-0.3-0.2-0.4-0.4-0.4-0.6c0-0.1,0-0.1,0-0.2c0-0.1,0-0.1,0-0.2c0-0.2,0.1-0.5,0.4-0.6
			l4.5-2.6c0.5-0.3,1.4-0.3,1.9,0l5.3,3.1c0.3,0.2,0.4,0.4,0.4,0.6c0,0.1,0,0.1,0,0.2c0,0.1,0,0.1,0,0.2c0,0.2-0.1,0.5-0.4,0.6
			l-4.5,2.6C2345.8,301.3,2345,301.3,2344.5,301 M2353.1,306l-5.3-3.1c-0.3-0.2-0.4-0.4-0.4-0.6c0-0.1,0-0.1,0-0.2
			c0-0.1,0-0.1,0-0.2c0-0.2,0.1-0.5,0.4-0.6l4.5-2.6c0.5-0.3,1.4-0.3,1.9,0l5.3,3.1c0.3,0.2,0.4,0.4,0.4,0.6c0,0.1,0,0.1,0,0.2
			c0,0.1,0,0.1,0,0.2c0,0.2-0.1,0.5-0.4,0.6l-4.5,2.6C2354.4,306.3,2353.6,306.3,2353.1,306z M2398,331c0-0.2,0.1-0.5,0.4-0.6
			l4.5-2.6c0.5-0.3,1.4-0.3,1.9,0l5.3,3.1c0.3,0.2,0.4,0.4,0.4,0.6c0,0.1,0,0.1,0,0.2c0,0.1,0,0.1,0,0.2c0,0.2-0.1,0.5-0.4,0.6
			l-4.5,2.6c-0.5,0.3-1.4,0.3-1.9,0l-5.3-3.1c-0.3-0.2-0.4-0.4-0.4-0.6c0-0.1,0-0.1,0-0.2C2398,331.2,2398,331.1,2398,331z
			 M2380.8,321.5c0-0.1,0-0.1,0-0.2c0-0.1,0-0.1,0-0.2c0-0.2,0.1-0.5,0.4-0.6l4.5-2.6c0.5-0.3,1.4-0.3,1.9,0l5.3,3.1
			c0.3,0.2,0.4,0.4,0.4,0.6c0,0.1,0,0.1,0,0.2c0,0.1,0,0.1,0,0.2c0,0.2-0.1,0.5-0.4,0.6l-4.5,2.6c-0.5,0.3-1.4,0.3-1.9,0l-5.3-3.1
			C2380.8,321.9,2380.7,321.7,2380.8,321.5z M2369.2,315.3l-8.1-4.7c-0.3-0.2-0.4-0.4-0.4-0.6c0-0.1,0-0.1,0-0.2c0-0.1,0-0.1,0-0.2
			c0-0.2,0.1-0.5,0.4-0.6l4.5-2.6c0.5-0.3,1.4-0.3,1.9,0l8.1,4.7c0.3,0.2,0.4,0.4,0.4,0.6c0,0.1,0,0.1,0,0.2c0,0.1,0,0.1,0,0.2
			c0,0.2-0.1,0.5-0.4,0.6l-4.5,2.6C2370.6,315.6,2369.8,315.6,2369.2,315.3z M2372.5,317.1c-0.3-0.2-0.4-0.4-0.4-0.6
			c0-0.1,0-0.1,0-0.2c0-0.1,0-0.1,0-0.2c0-0.2,0.1-0.5,0.4-0.6l4.5-2.6c0.5-0.3,1.4-0.3,1.9,0l5.3,3.1c0.3,0.2,0.4,0.4,0.4,0.6
			c0,0.1,0,0.1,0,0.2c0,0.1,0,0.1,0,0.2c0,0.2-0.1,0.5-0.4,0.6l-4.5,2.6c-0.5,0.3-1.4,0.3-1.9,0L2372.5,317.1z M2389.4,326.1
			c0-0.2,0.1-0.5,0.4-0.6l4.5-2.6c0.5-0.3,1.4-0.3,1.9,0l5.3,3.1c0.3,0.2,0.4,0.4,0.4,0.6c0,0.1,0,0.1,0,0.2c0,0.1,0,0.1,0,0.2
			c0,0.2-0.1,0.5-0.4,0.6l-4.5,2.6c-0.5,0.3-1.4,0.3-1.9,0l-5.3-3.1c-0.3-0.2-0.4-0.4-0.4-0.6c0-0.1,0-0.1,0-0.2
			C2389.4,326.2,2389.4,326.1,2389.4,326.1z M2353.1,315.1c-0.3-0.2-0.4-0.4-0.4-0.6c0-0.1,0-0.1,0-0.2c0-0.1,0-0.1,0-0.2
			c0-0.2,0.1-0.5,0.4-0.6l4.5-2.6c0.5-0.3,1.4-0.3,1.9,0l5.3,3.1c0.3,0.2,0.4,0.4,0.4,0.6c0,0.1,0,0.1,0,0.2c0,0.1,0,0.1,0,0.2
			c0,0.2-0.1,0.5-0.4,0.6l-4.5,2.6c-0.5,0.3-1.4,0.3-1.9,0L2353.1,315.1z M2361.4,319c0-0.2,0.1-0.5,0.4-0.6l4.5-2.6
			c0.5-0.3,1.4-0.3,1.9,0l5.3,3.1c0.3,0.2,0.4,0.4,0.4,0.6c0,0.1,0,0.1,0,0.2c0,0.1,0,0.1,0,0.2c0,0.2-0.1,0.5-0.4,0.6l-4.5,2.6
			c-0.5,0.3-1.4,0.3-1.9,0l-5.3-3.1c-0.3-0.2-0.4-0.4-0.4-0.6c0-0.1,0-0.1,0-0.2C2361.4,319.2,2361.4,319.1,2361.4,319z
			 M2414.6,368.2c0-0.1,0-0.1,0-0.2c0-0.1,0-0.1,0-0.2c0-0.2,0.1-0.5,0.4-0.6l4.5-2.6c0.5-0.3,1.4-0.3,1.9,0l8.1,4.7
			c0.3,0.2,0.4,0.4,0.4,0.6c0,0.1,0,0.1,0,0.2c0,0.1,0,0.1,0,0.2c0,0.2-0.1,0.5-0.4,0.6l-4.5,2.6c-0.5,0.3-1.4,0.3-1.9,0l-8.1-4.7
			C2414.6,368.6,2414.5,368.4,2414.6,368.2z M2425.3,365.3c0-0.1,0-0.1,0-0.2c0-0.1,0-0.1,0-0.2c0-0.2,0.1-0.5,0.4-0.6l4.5-2.6
			c0.5-0.3,1.4-0.3,1.9,0l5.3,3.1c0.3,0.2,0.4,0.4,0.4,0.6c0,0.1,0,0.1,0,0.2c0,0.1,0,0.1,0,0.2c0,0.2-0.1,0.5-0.4,0.6l-4.5,2.6
			c-0.5,0.3-1.4,0.3-1.9,0l-5.3-3.1C2425.4,365.7,2425.3,365.5,2425.3,365.3z M2422.4,364l-5.3-3.1c-0.3-0.2-0.4-0.4-0.4-0.6
			c0-0.1,0-0.1,0-0.2c0-0.1,0-0.1,0-0.2c0-0.2,0.1-0.5,0.4-0.6l4.5-2.6c0.5-0.3,1.4-0.3,1.9,0l5.3,3.1c0.3,0.2,0.4,0.4,0.4,0.6
			c0,0.1,0,0.1,0,0.2c0,0.1,0,0.1,0,0.2c0,0.2-0.1,0.5-0.4,0.6l-4.5,2.6C2423.8,364.3,2422.9,364.3,2422.4,364z M2420.9,345
			l-5.3-3.1c-0.3-0.2-0.4-0.4-0.4-0.6c0-0.1,0-0.1,0-0.2c0-0.1,0-0.1,0-0.2c0-0.2,0.1-0.5,0.4-0.6l4.5-2.6c0.5-0.3,1.4-0.3,1.9,0
			l5.3,3.1c0.3,0.2,0.4,0.4,0.4,0.6c0,0.1,0,0.1,0,0.2c0,0.1,0,0.1,0,0.2c0,0.2-0.1,0.5-0.4,0.6l-4.5,2.6
			C2422.2,345.3,2421.4,345.3,2420.9,345z M2418.6,337.5c-6.5,3.7-4.2,3.8-11.7-0.5c-0.3-0.2-0.4-0.4-0.4-0.6c0-0.1,0-0.1,0-0.2
			c0-0.1,0-0.1,0-0.2c0-0.2,0.1-0.5,0.4-0.6l4.5-2.6c0.5-0.3,1.4-0.3,1.9,0l5.3,3.1c0.3,0.2,0.4,0.4,0.4,0.6c0,0.1,0,0.1,0,0.2
			c0,0.1,0,0.1,0,0.2C2419,337.1,2418.9,337.3,2418.6,337.5z M2375.7,328.1l-5.3-3.1c-0.3-0.2-0.4-0.4-0.4-0.6c0-0.1,0-0.1,0-0.2
			c0-0.1,0-0.1,0-0.2c0-0.2,0.1-0.5,0.4-0.6l4.5-2.6c0.5-0.3,1.4-0.3,1.9,0l5.3,3.1c0.3,0.2,0.4,0.4,0.4,0.6c0,0.1,0,0.1,0,0.2
			c0,0.1,0,0.1,0,0.2c0,0.2-0.1,0.5-0.4,0.6l-4.5,2.6C2377,328.4,2376.2,328.4,2375.7,328.1z M2441,356.2c0-0.1,0-0.1,0-0.2
			c0-0.1,0-0.1,0-0.2c0-0.2,0.1-0.5,0.4-0.6l4.5-2.6c0.5-0.3,1.4-0.3,1.9,0l5.3,3.1c0.3,0.2,0.4,0.4,0.4,0.6c0,0.1,0,0.1,0,0.2
			c0,0.1,0,0.1,0,0.2c0,0.2-0.1,0.5-0.4,0.6l-4.5,2.6c-0.5,0.3-1.4,0.3-1.9,0l-5.3-3.1C2441,356.7,2440.9,356.5,2441,356.2z
			 M2413.3,348.2l4.5-2.6c0.5-0.3,1.4-0.3,1.9,0l5.3,3.1c0.3,0.2,0.4,0.4,0.4,0.6c0,0.1,0,0.1,0,0.2c0,0.1,0,0.1,0,0.2
			c0,0.2-0.1,0.5-0.4,0.6l-4.5,2.6c-0.5,0.3-1.4,0.3-1.9,0l-5.3-3.1c-0.3-0.2-0.4-0.4-0.4-0.6c0-0.1,0-0.1,0-0.2c0-0.1,0-0.1,0-0.2
			C2412.9,348.6,2413,348.4,2413.3,348.2z M2432.7,350.3l4.5-2.6c0.5-0.3,1.4-0.3,1.9,0l5.3,3.1c0.3,0.2,0.4,0.4,0.4,0.6
			c0,0.1,0,0.1,0,0.2c0,0.1,0,0.1,0,0.2c0,0.2-0.1,0.5-0.4,0.6l-4.5,2.6c-0.5,0.3-1.4,0.3-1.9,0l-5.3-3.1c-0.3-0.2-0.4-0.4-0.4-0.6
			c0-0.1,0-0.1,0-0.2c0-0.1,0-0.1,0-0.2C2432.3,350.7,2432.4,350.4,2432.7,350.3z M2429.5,350l-5.3-3.1c-0.3-0.2-0.4-0.4-0.4-0.6
			c0-0.1,0-0.1,0-0.2c0-0.1,0-0.1,0-0.2c0-0.2,0.1-0.5,0.4-0.6l4.5-2.6c0.5-0.3,1.4-0.3,1.9,0l5.3,3.1c0.3,0.2,0.4,0.4,0.4,0.6
			c0,0.1,0,0.1,0,0.2c0,0.1,0,0.1,0,0.2c0,0.2-0.1,0.5-0.4,0.6l-4.5,2.6C2430.8,350.3,2430,350.3,2429.5,350z M2404.7,343.2
			c6.6-3.8,4.4-3.7,11.7,0.5c0.3,0.2,0.4,0.4,0.4,0.6c0,0.1,0,0.1,0,0.2c0,0.1,0,0.1,0,0.2c0,0.2-0.1,0.5-0.4,0.6l-4.5,2.6
			c-0.5,0.3-1.4,0.3-1.9,0l-5.3-3.1c-0.3-0.2-0.4-0.4-0.4-0.6c0-0.1,0-0.1,0-0.2c0-0.1,0-0.1,0-0.2
			C2404.3,343.6,2404.4,343.4,2404.7,343.2z M2396.1,338.3l4.5-2.6c0.5-0.3,1.4-0.3,1.9,0l5.3,3.1c0.3,0.2,0.4,0.4,0.4,0.6
			c0,0.1,0,0.1,0,0.2c0,0.1,0,0.1,0,0.2c0,0.2-0.1,0.5-0.4,0.6l-4.5,2.6c-0.5,0.3-1.4,0.3-1.9,0l-5.3-3.1c-0.3-0.2-0.4-0.4-0.4-0.6
			c0-0.1,0-0.1,0-0.2c0-0.1,0-0.1,0-0.2C2395.7,338.7,2395.8,338.4,2396.1,338.3z M2387.2,334.1c0-0.1,0-0.1,0-0.2
			c0-0.2,0.1-0.5,0.4-0.6l4.5-2.6c0.5-0.3,1.4-0.3,1.9,0l5.3,3.1c0.3,0.2,0.4,0.4,0.4,0.6c0,0.1,0,0.1,0,0.2c0,0.1,0,0.1,0,0.2
			c0,0.2-0.1,0.5-0.4,0.6c-4.4,2.5-5.2,3.3-6.4,2.6l-5.3-3.1c-0.3-0.2-0.4-0.4-0.4-0.6C2387.2,334.2,2387.2,334.2,2387.2,334.1z
			 M2384.3,333l-5.3-3.1c-0.3-0.2-0.4-0.4-0.4-0.6c0-0.1,0-0.1,0-0.2c0-0.1,0-0.1,0-0.2c0-0.2,0.1-0.5,0.4-0.6l4.5-2.6
			c0.5-0.3,1.4-0.3,1.9,0l5.3,3.1c0.3,0.2,0.4,0.4,0.4,0.6c0,0.1,0,0.1,0,0.2c0,0.1,0,0.1,0,0.2c0,0.2-0.1,0.5-0.4,0.6l-4.5,2.6
			C2385.6,333.3,2384.8,333.3,2384.3,333z M2315.1,301.9c-0.4-0.2-0.5-0.5-0.5-0.8c0-0.1,0-0.1,0-0.2c0-0.1,0-0.1,0-0.2
			c0-0.3,0.1-0.6,0.5-0.8l4.4-2.5c0.4-0.2,1.1-0.2,1.5,0l7.5,4.3c0.4,0.2,0.9,0.2,1.3,0l5.9-3.4c0.6-0.4,1.7-0.4,2.3,0l13.5,7.8
			c0.4,0.2,0.5,0.5,0.5,0.8c0,0.1,0,0.1,0,0.2c0,0.1,0,0.1,0,0.2c0,0.3-0.1,0.6-0.5,0.8l-11.8,6.8c-0.6,0.4-1.7,0.4-2.3,0
			L2315.1,301.9z M2410.1,373.3l4.5-2.6c0.5-0.3,1.4-0.3,1.9,0l5.3,3.1c0.3,0.2,0.4,0.4,0.4,0.6c0,0.1,0,0.1,0,0.2
			c0,0.1,0,0.1,0,0.2c0,0.2-0.1,0.5-0.4,0.6l-4.5,2.6c-0.5,0.3-1.4,0.3-1.9,0l-5.3-3.1c-0.3-0.2-0.4-0.4-0.4-0.6c0-0.1,0-0.1,0-0.2
			c0-0.1,0-0.1,0-0.2C2409.7,373.7,2409.8,373.4,2410.1,373.3z M2401.5,368.3l4.5-2.6c0.5-0.3,1.4-0.3,1.9,0l5.3,3.1
			c0.3,0.2,0.4,0.4,0.4,0.6c0,0.1,0,0.1,0,0.2c0,0.1,0,0.1,0,0.2c0,0.2-0.1,0.5-0.4,0.6l-4.5,2.6c-0.5,0.3-1.4,0.3-1.9,0l-5.3-3.1
			c-0.3-0.2-0.4-0.4-0.4-0.6c0-0.1,0-0.1,0-0.2c0-0.1,0-0.1,0-0.2C2401.1,368.7,2401.2,368.5,2401.5,368.3z M2392.9,363.3l4.5-2.6
			c0.5-0.3,1.4-0.3,1.9,0l5.3,3.1c0.3,0.2,0.4,0.4,0.4,0.6c0,0.1,0,0.1,0,0.2c0,0.1,0,0.1,0,0.2c0,0.2-0.1,0.5-0.4,0.6l-4.5,2.6
			c-0.5,0.3-1.4,0.3-1.9,0l-5.3-3.1c-0.3-0.2-0.4-0.4-0.4-0.6c0-0.1,0-0.1,0-0.2c0-0.1,0-0.1,0-0.2
			C2392.5,363.7,2392.6,363.5,2392.9,363.3z M2384.3,358.4l4.5-2.6c0.5-0.3,1.4-0.3,1.9,0l5.3,3.1c0.3,0.2,0.4,0.4,0.4,0.6
			c0,0.1,0,0.1,0,0.2c0,0.1,0,0.1,0,0.2c0,0.2-0.1,0.5-0.4,0.6l-4.5,2.6c-0.5,0.3-1.4,0.3-1.9,0l-5.3-3.1c-0.3-0.2-0.4-0.4-0.4-0.6
			c0-0.1,0-0.1,0-0.2c0-0.1,0-0.1,0-0.2C2383.9,358.8,2384,358.5,2384.3,358.4z M2341.2,333.6l4.5-2.6c0.5-0.3,1.4-0.3,1.9,0
			l39.8,23c0.3,0.2,0.4,0.4,0.4,0.6c0,0.1,0,0.1,0,0.2c0,0.1,0,0.1,0,0.2c0,0.2-0.1,0.5-0.4,0.6l-4.5,2.6c-0.5,0.3-1.4,0.3-1.9,0
			l-39.8-23c-0.3-0.2-0.4-0.4-0.4-0.6c0-0.1,0-0.1,0-0.2c0-0.1,0-0.1,0-0.2C2340.7,334,2340.9,333.7,2341.2,333.6z M2330,327
			l4.5-2.6c0.5-0.3,1.4-0.3,1.9,0l8.1,4.7c0.3,0.2,0.4,0.4,0.4,0.6c0,0.1,0,0.1,0,0.2c0,0.1,0,0.1,0,0.2c0,0.2-0.1,0.5-0.4,0.6
			l-4.5,2.6c-0.5,0.3-1.4,0.3-1.9,0l-8.1-4.7c-0.3-0.2-0.4-0.4-0.4-0.6c0-0.1,0-0.1,0-0.2c0-0.1,0-0.1,0-0.2
			C2329.6,327.4,2329.7,327.2,2330,327z M2316.4,319.4l4.5-2.6c0.5-0.3,1.4-0.3,1.9,0l5.3,3.1c0.3,0.2,0.4,0.4,0.4,0.6
			c0,0.1,0,0.1,0,0.2c0,0.1,0,0.1,0,0.2c0,0.2-0.1,0.5-0.4,0.6l-4.5,2.6c-0.5,0.3-1.4,0.3-1.9,0l-5.3-3.1c-0.3-0.2-0.4-0.4-0.4-0.6
			c0-0.1,0-0.1,0-0.2c0-0.1,0-0.1,0-0.2C2316,319.8,2316.1,319.6,2316.4,319.4z M2307.8,314.4l4.5-2.6c0.5-0.3,1.4-0.3,1.9,0
			l5.3,3.1c0.3,0.2,0.4,0.4,0.4,0.6c0,0.1,0,0.1,0,0.2c0,0.1,0,0.1,0,0.2c0,0.2-0.1,0.5-0.4,0.6l-4.5,2.6c-0.5,0.3-1.4,0.3-1.9,0
			l-5.3-3.1c-0.3-0.2-0.4-0.4-0.4-0.6c0-0.1,0-0.1,0-0.2c0-0.1,0-0.1,0-0.2C2307.4,314.8,2307.5,314.6,2307.8,314.4z M2356.9,324.5
			l4.5-2.6c0.5-0.3,1.4-0.3,1.9,0l5.3,3.1c0.3,0.2,0.4,0.4,0.4,0.6c0,0.1,0,0.1,0,0.2c0,0.1,0,0.1,0,0.2c0,0.2-0.1,0.5-0.4,0.6
			l-4.5,2.6c-0.5,0.3-1.4,0.3-1.9,0l-5.3-3.1c-0.3-0.2-0.4-0.4-0.4-0.6c0-0.1,0-0.1,0-0.2c0-0.1,0-0.1,0-0.2
			C2356.5,324.9,2356.6,324.7,2356.9,324.5z M2345.2,319c0-0.1,0-0.1,0-0.2c0-0.1,0-0.1,0-0.2c0-0.2,0.1-0.5,0.4-0.6l4.5-2.6
			c0.5-0.3,1.4-0.3,1.9,0l8.1,4.7c0.3,0.2,0.4,0.4,0.4,0.6c0,0.1,0,0.1,0,0.2c0,0.1,0,0.1,0,0.2c0,0.2-0.1,0.5-0.4,0.6l-4.5,2.6
			c-0.5,0.3-1.4,0.3-1.9,0l-8.1-4.7C2345.2,319.4,2345.1,319.2,2345.2,319z M2330.6,293c-0.3-0.2-0.4-0.4-0.4-0.6c0-0.1,0-0.1,0-0.2
			c0-0.1,0-0.1,0-0.2c0-0.2,0.1-0.5,0.4-0.6l4.5-2.6c0.5-0.3,1.4-0.3,1.9,0l5.3,3.1c0.3,0.2,0.4,0.4,0.4,0.6c0,0.1,0,0.1,0,0.2
			c0,0.1,0,0.1,0,0.2c0,0.2-0.1,0.5-0.4,0.6l-4.5,2.6c-0.5,0.3-1.4,0.3-1.9,0L2330.6,293z M2322.7,295.9l4.5-2.6
			c0.5-0.3,1.4-0.3,1.9,0l5.3,3.1c0.3,0.2,0.4,0.4,0.4,0.6c0,0.1,0,0.1,0,0.2c0,0.1,0,0.1,0,0.2c0,0.2-0.1,0.5-0.4,0.6l-4.5,2.6
			c-0.5,0.3-1.4,0.3-1.9,0l-5.3-3.1c-0.3-0.2-0.4-0.4-0.4-0.6c0-0.1,0-0.1,0-0.2c0-0.1,0-0.1,0-0.2
			C2322.3,296.3,2322.4,296,2322.7,295.9z M2430.2,359.1c0-0.1,0-0.1,0-0.2c0-0.1,0-0.1,0-0.2c0-0.2,0.1-0.5,0.4-0.6l4.5-2.6
			c0.5-0.3,1.4-0.3,1.9,0l8.1,4.7c0.3,0.2,0.4,0.4,0.4,0.6c0,0.1,0,0.1,0,0.2c0,0.1,0,0.1,0,0.2c0,0.2-0.1,0.5-0.4,0.6l-4.5,2.6
			c-0.5,0.3-1.4,0.3-1.9,0l-8.1-4.7C2430.2,359.6,2430.1,359.4,2430.2,359.1z M2427.3,357.9l-5.3-3.1c-0.3-0.2-0.4-0.4-0.4-0.6
			c0-0.1,0-0.1,0-0.2c0-0.1,0-0.1,0-0.2c0-0.2,0.1-0.5,0.4-0.6l4.5-2.6c0.5-0.3,1.4-0.3,1.9,0l5.3,3.1c0.3,0.2,0.4,0.4,0.4,0.6
			c0,0.1,0,0.1,0,0.2c0,0.1,0,0.1,0,0.2c0,0.2-0.1,0.5-0.4,0.6l-4.5,2.6C2428.6,358.2,2427.8,358.2,2427.3,357.9z M2413,351.7
			c0.5-0.3,1.4-0.3,1.9,0l5.3,3.1c0.3,0.2,0.4,0.4,0.4,0.6c0,0.1,0,0.1,0,0.2c0,0.1,0,0.1,0,0.2c0,0.2-0.1,0.5-0.4,0.6l-4.5,2.6
			c-0.5,0.3-1.4,0.3-1.9,0l-5.3-3.1c-0.3-0.2-0.4-0.4-0.4-0.6c0-0.1,0-0.1,0-0.2c0-0.1,0-0.1,0-0.2c0-0.2,0.1-0.5,0.4-0.6
			L2413,351.7z M2399.9,349.4l4.5-2.6c0.5-0.3,1.4-0.3,1.9,0l5.3,3.1c0.3,0.2,0.4,0.4,0.4,0.6c0,0.1,0,0.1,0,0.2c0,0.1,0,0.1,0,0.2
			c0,0.2-0.1,0.5-0.4,0.6l-4.5,2.6c-0.5,0.3-1.4,0.3-1.9,0l-5.3-3.1c-0.3-0.2-0.4-0.4-0.4-0.6c0-0.1,0-0.1,0-0.2c0-0.1,0-0.1,0-0.2
			C2399.5,349.8,2399.6,349.5,2399.9,349.4z M2391.3,344.4l4.5-2.6c0.5-0.3,1.4-0.3,1.9,0l5.3,3.1c0.3,0.2,0.4,0.4,0.4,0.6
			c0,0.1,0,0.1,0,0.2c0,0.1,0,0.1,0,0.2c0,0.2-0.1,0.5-0.4,0.6l-4.5,2.6c-0.5,0.3-1.4,0.3-1.9,0l-5.3-3.1c-0.3-0.2-0.4-0.4-0.4-0.6
			c0-0.1,0-0.1,0-0.2c0-0.1,0-0.1,0-0.2C2390.9,344.8,2391,344.6,2391.3,344.4z M2382.7,339.4l4.5-2.6c0.5-0.3,1.4-0.3,1.9,0
			l5.3,3.1c0.3,0.2,0.4,0.4,0.4,0.6c0,0.1,0,0.1,0,0.2c0,0.1,0,0.1,0,0.2c0,0.2-0.1,0.5-0.4,0.6l-4.5,2.6c-0.5,0.3-1.4,0.3-1.9,0
			l-5.3-3.1c-0.3-0.2-0.4-0.4-0.4-0.6c0-0.1,0-0.1,0-0.2c0-0.1,0-0.1,0-0.2C2382.3,339.8,2382.4,339.6,2382.7,339.4z M2373.7,335.1
			c0-0.2,0.1-0.5,0.4-0.6l4.5-2.6c0.5-0.3,1.4-0.3,1.9,0l5.3,3.1c0.3,0.2,0.4,0.4,0.4,0.6c0,0.1,0,0.1,0,0.2c0,0.1,0,0.1,0,0.2
			c0,0.2-0.1,0.5-0.4,0.6l-4.5,2.6c-0.5,0.3-1.4,0.3-1.9,0l-5.3-3.1c-0.3-0.2-0.4-0.4-0.4-0.6c0-0.1,0-0.1,0-0.2
			C2373.7,335.2,2373.7,335.2,2373.7,335.1z M2370.8,334.2l-5.3-3.1c-0.3-0.2-0.4-0.4-0.4-0.6c0-0.1,0-0.1,0-0.2c0-0.1,0-0.1,0-0.2
			c0-0.2,0.1-0.5,0.4-0.6l4.5-2.6c0.5-0.3,1.4-0.3,1.9,0l5.3,3.1c0.3,0.2,0.4,0.4,0.4,0.6c0,0.1,0,0.1,0,0.2c0,0.1,0,0.1,0,0.2
			c0,0.2-0.1,0.5-0.4,0.6l-4.5,2.6C2372.2,334.5,2371.3,334.5,2370.8,334.2z M2312.3,309.6l-5.3-3.1c-0.3-0.2-0.4-0.4-0.4-0.6
			c0-0.1,0-0.1,0-0.2c0-0.1,0-0.1,0-0.2c0-0.2,0.1-0.5,0.4-0.6l4.5-2.6c0.5-0.3,1.4-0.3,1.9,0l5.3,3.1c0.3,0.2,0.4,0.4,0.4,0.6
			c0,0.1,0,0.1,0,0.2c0,0.1,0,0.1,0,0.2c0,0.2-0.1,0.5-0.4,0.6l-4.5,2.6C2313.7,309.9,2312.9,309.9,2312.3,309.6z M2303.6,306.9
			c0.5-0.3,1.4-0.3,1.9,0l5.3,3.1c0.3,0.2,0.4,0.4,0.4,0.6c0,0.1,0,0.1,0,0.2c0,0.1,0,0.1,0,0.2c0,0.2-0.1,0.5-0.4,0.6l-4.5,2.6
			c-0.5,0.3-1.4,0.3-1.9,0l-5.3-3.1c-0.3-0.2-0.4-0.4-0.4-0.6c0-0.1,0-0.1,0-0.2c0-0.1,0-0.1,0-0.2c0-0.2,0.1-0.5,0.4-0.6
			L2303.6,306.9z M2410.8,359.6c0.5-0.3,1.4-0.3,1.9,0l5.3,3.1c0.3,0.2,0.4,0.4,0.4,0.6c0,0.1,0,0.1,0,0.2c0,0.1,0,0.1,0,0.2
			c0,0.2-0.1,0.5-0.4,0.6l-4.5,2.6c-0.5,0.3-1.4,0.3-1.9,0l-5.3-3.1c-0.3-0.2-0.4-0.4-0.4-0.6c0-0.1,0-0.1,0-0.2c0-0.1,0-0.1,0-0.2
			c0-0.2,0.1-0.5,0.4-0.6L2410.8,359.6z M2397.7,357.2l4.5-2.6c0.5-0.3,1.4-0.3,1.9,0l5.3,3.1c0.3,0.2,0.4,0.4,0.4,0.6
			c0,0.1,0,0.1,0,0.2c0,0.1,0,0.1,0,0.2c0,0.2-0.1,0.5-0.4,0.6l-4.5,2.6c-0.5,0.3-1.4,0.3-1.9,0l-5.3-3.1c-0.3-0.2-0.4-0.4-0.4-0.6
			c0-0.1,0-0.1,0-0.2c0-0.1,0-0.1,0-0.2C2397.3,357.6,2397.4,357.4,2397.7,357.2z M2389.1,352.3l4.5-2.6c0.5-0.3,1.4-0.3,1.9,0
			l5.3,3.1c0.3,0.2,0.4,0.4,0.4,0.6c0,0.1,0,0.1,0,0.2c0,0.1,0,0.1,0,0.2c0,0.2-0.1,0.5-0.4,0.6l-4.5,2.6c-0.5,0.3-1.4,0.3-1.9,0
			l-5.3-3.1c-0.3-0.2-0.4-0.4-0.4-0.6c0-0.1,0-0.1,0-0.2c0-0.1,0-0.1,0-0.2C2388.7,352.7,2388.8,352.4,2389.1,352.3z M2380.5,347.3
			l4.5-2.6c0.5-0.3,1.4-0.3,1.9,0l5.3,3.1c0.3,0.2,0.4,0.4,0.4,0.6c0,0.1,0,0.1,0,0.2c0,0.1,0,0.1,0,0.2c0,0.2-0.1,0.5-0.4,0.6
			l-4.5,2.6c-0.5,0.3-1.4,0.3-1.9,0l-5.3-3.1c-0.3-0.2-0.4-0.4-0.4-0.6c0-0.1,0-0.1,0-0.2c0-0.1,0-0.1,0-0.2
			C2380.1,347.7,2380.2,347.5,2380.5,347.3z M2371.9,342.3l4.5-2.6c0.5-0.3,1.4-0.3,1.9,0l5.3,3.1c0.3,0.2,0.4,0.4,0.4,0.6
			c0,0.1,0,0.1,0,0.2c0,0.1,0,0.1,0,0.2c0,0.2-0.1,0.5-0.4,0.6l-4.5,2.6c-0.5,0.3-1.4,0.3-1.9,0l-5.3-3.1c-0.3-0.2-0.4-0.4-0.4-0.6
			c0-0.1,0-0.1,0-0.2c0-0.1,0-0.1,0-0.2C2371.5,342.7,2371.6,342.5,2371.9,342.3z M2363.3,337.4l4.5-2.6c0.5-0.3,1.4-0.3,1.9,0
			l5.3,3.1c0.3,0.2,0.4,0.4,0.4,0.6c0,0.1,0,0.1,0,0.2c0,0.1,0,0.1,0,0.2c0,0.2-0.1,0.5-0.4,0.6l-4.5,2.6c-0.5,0.3-1.4,0.3-1.9,0
			l-5.3-3.1c-0.3-0.2-0.4-0.4-0.4-0.6c0-0.1,0-0.1,0-0.2c0-0.1,0-0.1,0-0.2C2362.9,337.8,2363,337.5,2363.3,337.4z M2354.7,332.4
			l4.5-2.6c0.5-0.3,1.4-0.3,1.9,0l5.3,3.1c0.3,0.2,0.4,0.4,0.4,0.6c0,0.1,0,0.1,0,0.2c0,0.1,0,0.1,0,0.2c0,0.2-0.1,0.5-0.4,0.6
			l-4.5,2.6c-0.5,0.3-1.4,0.3-1.9,0l-5.3-3.1c-0.3-0.2-0.4-0.4-0.4-0.6c0-0.1,0-0.1,0-0.2c0-0.1,0-0.1,0-0.2
			C2354.3,332.8,2354.4,332.6,2354.7,332.4z M2346.1,327.4l4.5-2.6c0.5-0.3,1.4-0.3,1.9,0l5.3,3.1c0.3,0.2,0.4,0.4,0.4,0.6
			c0,0.1,0,0.1,0,0.2c0,0.1,0,0.1,0,0.2c0,0.2-0.1,0.5-0.4,0.6l-4.5,2.6c-0.5,0.3-1.4,0.3-1.9,0l-5.3-3.1c-0.3-0.2-0.4-0.4-0.4-0.6
			c0-0.1,0-0.1,0-0.2c0-0.1,0-0.1,0-0.2C2345.7,327.8,2345.8,327.6,2346.1,327.4z M2337.1,323.1c0-0.2,0.1-0.5,0.4-0.6l4.5-2.6
			c0.5-0.3,1.4-0.3,1.9,0l5.3,3.1c0.3,0.2,0.4,0.4,0.4,0.6c0,0.1,0,0.1,0,0.2c0,0.1,0,0.1,0,0.2c0,0.2-0.1,0.5-0.4,0.6l-4.5,2.6
			c-0.5,0.3-1.4,0.3-1.9,0l-5.3-3.1c-0.3-0.2-0.4-0.4-0.4-0.6c0-0.1,0-0.1,0-0.2C2337.1,323.2,2337.1,323.2,2337.1,323.1z
			 M2323.9,315.9c0-0.1,0-0.1,0-0.2c0-0.1,0-0.1,0-0.2c0-0.2,0.1-0.5,0.4-0.6l4.5-2.6c0.5-0.3,1.4-0.3,1.9,0l5.3,3.1
			c0.3,0.2,0.4,0.4,0.4,0.6c0,0.1,0,0.1,0,0.2c0,0.1,0,0.1,0,0.2c0,0.2-0.1,0.5-0.4,0.6l-4.5,2.6c-0.5,0.3-1.4,0.3-1.9,0l-5.3-3.1
			C2323.9,316.3,2323.8,316.1,2323.9,315.9z M2320.9,314.6l-5.3-3.1c-0.3-0.2-0.4-0.4-0.4-0.6c0-0.1,0-0.1,0-0.2c0-0.1,0-0.1,0-0.2
			c0-0.2,0.1-0.5,0.4-0.6l4.5-2.6c0.5-0.3,1.4-0.3,1.9,0l5.3,3.1c0.3,0.2,0.4,0.4,0.4,0.6c0,0.1,0,0.1,0,0.2c0,0.1,0,0.1,0,0.2
			c0,0.2-0.1,0.5-0.4,0.6l-4.5,2.6C2322.3,314.9,2321.5,314.9,2320.9,314.6z M2328.7,282.6l-41.6,24c-0.6,0.3-0.8,0.8-0.8,1.2v0
			c0,0.4,0.3,0.8,0.8,1.1c0,0,0,0,0,0l129.7,74.9c1.1,0.6,2.9,0.6,4.1,0l41.6-24c0.5-0.3,0.8-0.6,0.8-1c0,0,0-0.1,0-0.1v-0.1
			c0-0.4-0.3-0.8-0.8-1.1l-129.7-74.9c-0.6-0.3-1.3-0.5-2-0.5C2330,282.1,2329.3,282.2,2328.7,282.6z"/>
	</g>
</g>
</svg>
