<?xml version="1.0" encoding="utf-8"?>
<!-- Generator: Adobe Illustrator 24.0.2, SVG Export Plug-In . SVG Version: 6.00 Build 0)  -->
<svg version="1.1" id="Layer_1" xmlns="http://www.w3.org/2000/svg" xmlns:xlink="http://www.w3.org/1999/xlink" x="0px" y="0px"
	 viewBox="0 0 25 16.5" style="enable-background:new 0 0 25 16.5;" xml:space="preserve">
<style type="text/css">
	.st0{clip-path:url(#SVGID_2_);}
	.st1{fill:rgba(0, 214, 214, 0.5);}
	.st2{opacity:0.3;clip-path:url(#SVGID_4_);}
	.st3{opacity:0.5;}
	.st4{opacity:0.2;clip-path:url(#SVGID_6_);}
</style>
<g>
	<defs>
		<rect id="SVGID_1_" y="0" width="25" height="25"/>
	</defs>
	<clipPath id="SVGID_2_">
		<use xlink:href="#SVGID_1_"  style="overflow:visible;"/>
	</clipPath>
	<g class="st0">
		<path class="st1" d="M8.9,8.2L8.9,8.2L6.5,9.5l0,0L4.6,8.1l0,0L8.9,8.2z M8.9,8.2L4.6,8.1l1.9,1.4L8.9,8.2z"/>
		<path class="st1" d="M12.2,4.9L12.2,4.9l0.6,1.2l0,0L9,8.2l-0.1,0L12.2,4.9z M12.2,4.9L9,8.1l3.7-2L12.2,4.9z"/>
		<path class="st1" d="M5.4,4.9L5.4,4.9L4.6,8.1l0,0L1.7,6.9l0,0v0L5.4,4.9z M5.4,4.9l-3.6,2L4.6,8L5.4,4.9z"/>
		<path class="st1" d="M5.4,4.9L5.4,4.9L9,8.1l0,0l0,0L4.6,8.1h0L5.4,4.9z M5.4,4.9L4.6,8l4.3,0.1L5.4,4.9z"/>
		<path class="st1" d="M8.9,8.2L8.9,8.2L8.9,8.2l3.8-2.1l0,0L9.7,9.7l0,0L6.5,9.5h0l0,0L8.9,8.2z M12.7,6.1L9,8.2l0,0h0L6.5,9.5
			l3.2,0.2L12.7,6.1z"/>
		<path class="st1" d="M4.6,8.1L4.6,8.1l1.9,1.4l0,0l0,0L3.9,9.9l0,0L4.6,8.1z M4.6,8.1L3.9,9.9l2.5-0.4L4.6,8.1z"/>
		<path class="st1" d="M4.6,8.1L2.2,8.3h0L1.7,6.9l0,0L4.6,8.1z M4.6,8L1.7,6.9l0.5,1.3L4.6,8z"/>
		<path class="st1" d="M6.5,9.5L6.5,9.5l1.7,1.6l0,0l-4.9,0.1h0L6.5,9.5z M6.5,9.5L6.5,9.5l-3.1,1.7l4.8-0.1L6.5,9.5z"/>
		<path class="st1" d="M3.9,9.9L3.9,9.9L2.7,9.4l0,0L2.2,8.2L3.9,9.9z M3.9,9.8L2.2,8.3l0.4,1.1L3.9,9.8z"/>
		<path class="st1" d="M4.6,8L4.6,8L3.9,9.9l0,0L2.2,8.3l0,0L4.6,8z M4.6,8.1L2.2,8.3l1.7,1.6L4.6,8.1z"/>
		<path class="st1" d="M2.6,9.4L2.6,9.4l0.7,1.8l0,0l-2.2,2.4L2.6,9.4z M2.6,9.4l-1.4,4.2l2.1-2.4L2.6,9.4z"/>
		<path class="st1" d="M3.3,11.2L3.3,11.2l4.4,3.7l0,0l-6.6-1.3l0,0L3.3,11.2z M3.3,11.2l-2.1,2.4l6.5,1.3L3.3,11.2z"/>
		<path class="st1" d="M9.7,9.7L9.7,9.7l2.7,1.3l-4.2,0.1L9.7,9.7z M9.7,9.7l-1.5,1.4l4.1-0.1L9.7,9.7z"/>
		<path class="st1" d="M8.2,11.1L8.2,11.1L8.2,11.1l4.2-0.1h0l-0.7,2.6l0,0l-8.4-2.4l-0.1,0L8.2,11.1z M12.3,11l-4.1,0.1l0,0l0,0
			l-4.8,0.1l8.3,2.4L12.3,11z"/>
		<path class="st1" d="M12.8,6l-0.4,5v0L9.7,9.7l0,0L12.8,6z M12.7,6.1l-3,3.6l2.6,1.3L12.7,6.1z"/>
		<path class="st1" d="M12.4,11L12.4,11l0.6,2.1l0,0l-1.3,0.5l0,0L12.4,11z M12.4,11l-0.6,2.6l1.2-0.5L12.4,11z"/>
		<path class="st1" d="M16.1,11.9L16.1,11.9L13,13.1l0,0L12.4,11l0,0L16.1,11.9z M16.1,11.9L12.4,11l0.6,2.1L16.1,11.9z"/>
		<path class="st1" d="M16.3,6.4L16.3,6.4l-1.4,1.7l0,0l-2.1-2l0,0L16.3,6.4z M16.3,6.4l-3.5-0.3l2.1,2L16.3,6.4z"/>
		<path class="st1" d="M14.9,8.1L14.9,8.1l3.4,1.6l0,0l0,0L12.4,11l0,0L14.9,8.1z M14.9,8.1L12.4,11l5.8-1.3L14.9,8.1z"/>
		<path class="st1" d="M16.3,6.4L16.3,6.4l2,3.2l0,0l-3.4-1.6l0,0L16.3,6.4z M16.3,6.4l-1.4,1.6l3.3,1.6L16.3,6.4z"/>
		<path class="st1" d="M12.7,6.1L12.7,6.1l2.1,2l0,0L12.4,11l0,0L12.7,6.1z M12.8,6.1L12.4,11l2.5-2.9L12.8,6.1z"/>
		<path class="st1" d="M9.7,9.7L9.7,9.7l-1.5,1.4l0,0h0L6.5,9.5l0,0L9.7,9.7z M8.2,11.1l1.5-1.4L6.5,9.5L8.2,11.1L8.2,11.1z"/>
		<path class="st1" d="M11.7,13.6L11.7,13.6L7.8,15l-4.4-3.7l0,0L11.7,13.6z M11.7,13.6l-8.3-2.4l4.4,3.7L11.7,13.6z"/>
		<path class="st1" d="M13,13.1l0.3,1.1l0,0l-1.6-0.6l0,0L13,13.1z M13,13.2l-1.2,0.5l1.5,0.6L13,13.2z"/>
		<path class="st1" d="M24.3,12.7L24.3,12.7L24.3,12.7l-0.5,1l0,0L20.2,13l-0.1,0L24.3,12.7z M24.2,12.7L20.3,13l3.4,0.7L24.2,12.7z
			"/>
		<path class="st1" d="M24.2,12.7L24.2,12.7l0,1.1l-0.6-0.1l0,0L24.2,12.7z M24.2,12.7l-0.5,0.9l0.5,0.1V12.7z"/>
		<path class="st1" d="M24.2,7L24.2,7L24.2,7L24.2,7L24.2,7l0,5.7l-4,0.3l0,0L24.2,7z M24.2,7l-4,6l4-0.3V7z"/>
		<path class="st1" d="M12.2,4.9l4.1,1.5l0.1,0l-3.6-0.3h0L12.2,4.9L12.2,4.9L12.2,4.9z M16.2,6.4l-4-1.5l0.6,1.2L16.2,6.4z"/>
		<path class="st1" d="M18.3,9.6L18.3,9.6l2,3.3l0,0l-4.2-1l0,0L12.4,11l0,0L18.3,9.6z M16.1,11.9L16.1,11.9l4.1,1l-2-3.3L12.4,11
			L16.1,11.9L16.1,11.9z"/>
		<path class="st1" d="M20.9,5.7L20.9,5.7l-2.6,3.9l0,0l0,0l-2-3.3L20.9,5.7z M20.9,5.8l-4.6,0.7l1.9,3.2L20.9,5.8z"/>
		<path class="st1" d="M20.9,5.7L20.9,5.7L24.3,7l0,0l0,0l-6,2.7l0,0L20.9,5.7z M20.9,5.8l-2.6,3.9L24.2,7L20.9,5.8z"/>
		<path class="st1" d="M18.3,9.6l6-2.7l-4,6l0,0L18.3,9.6L18.3,9.6L18.3,9.6z M24.2,7l-6,2.7l2,3.3L24.2,7z"/>
		<path class="st1" d="M3.9,9.9L3.9,9.9l2.6-0.4l0.1,0l-3.2,1.7l0,0L3.9,9.9z M3.9,9.9l-0.6,1.3l3.1-1.7L3.9,9.9z"/>
		<path class="st1" d="M2.6,9.4l1.3,0.5l0,0l-0.6,1.4l0,0L2.6,9.4L2.6,9.4L2.6,9.4z M3.9,9.9L2.7,9.4l0.7,1.8L3.9,9.9z"/>
		<path class="st1" d="M2.2,8.2L2.2,8.2l0.4,1.1v0L2,11.2L2.2,8.2z M2.2,8.3l-0.2,2.8l0.6-1.7L2.2,8.3z"/>
		<path class="st1" d="M7.9,14.9c0-0.1-0.1-0.1-0.1-0.1c-0.1,0-0.1,0.1-0.1,0.1c0,0.1,0.1,0.1,0.1,0.1C7.8,15.1,7.9,15,7.9,14.9z"/>
		<path class="st1" d="M3.5,11.2c0-0.1-0.1-0.1-0.1-0.1c-0.1,0-0.1,0.1-0.1,0.1c0,0.1,0.1,0.1,0.1,0.1C3.4,11.3,3.5,11.3,3.5,11.2z"
			/>
		<path class="st1" d="M4.1,9.9c0-0.1-0.1-0.1-0.1-0.1S3.8,9.8,3.8,9.9c0,0.1,0.1,0.1,0.1,0.1S4.1,9.9,4.1,9.9z"/>
		<path class="st1" d="M2.2,11.1C2.2,11,2.1,11,2,11C2,11,1.9,11,1.9,11.1c0,0.1,0.1,0.1,0.1,0.1C2.1,11.2,2.2,11.2,2.2,11.1z"/>
		<path class="st1" d="M1.3,13.6c0-0.1-0.1-0.1-0.1-0.1c-0.1,0-0.1,0.1-0.1,0.1s0.1,0.1,0.1,0.1C1.3,13.8,1.3,13.7,1.3,13.6z"/>
		<path class="st1" d="M8.4,11.1C8.4,11,8.3,11,8.2,11c-0.1,0-0.1,0.1-0.1,0.1c0,0.1,0.1,0.1,0.1,0.1C8.3,11.2,8.4,11.2,8.4,11.1z"
			/>
		<path class="st1" d="M6.6,9.5c0-0.1-0.1-0.1-0.1-0.1c-0.1,0-0.1,0.1-0.1,0.1c0,0.1,0.1,0.1,0.1,0.1C6.6,9.7,6.6,9.6,6.6,9.5z"/>
		<path class="st1" d="M2.4,8.2c0-0.1-0.1-0.1-0.1-0.1c-0.1,0-0.1,0.1-0.1,0.1c0,0.1,0.1,0.1,0.1,0.1C2.3,8.4,2.4,8.3,2.4,8.2z"/>
		<path class="st1" d="M4.7,8c0-0.1-0.1-0.1-0.1-0.1C4.5,7.9,4.4,8,4.4,8c0,0.1,0.1,0.1,0.1,0.1C4.6,8.2,4.7,8.1,4.7,8z"/>
		<path class="st1" d="M1.8,6.9c0-0.1-0.1-0.1-0.1-0.1c-0.1,0-0.1,0.1-0.1,0.1C1.6,7,1.6,7,1.7,7C1.8,7,1.8,7,1.8,6.9z"/>
		<path class="st1" d="M1.2,8c0-0.1-0.1-0.1-0.1-0.1C1,7.8,0.9,7.9,0.9,8C0.9,8,1,8.1,1.1,8.1C1.2,8.1,1.2,8,1.2,8z"/>
		<path class="st1" d="M5.5,4.9c0-0.1-0.1-0.1-0.1-0.1c-0.1,0-0.1,0.1-0.1,0.1c0,0.1,0.1,0.1,0.1,0.1C5.4,5.1,5.5,5,5.5,4.9z"/>
		<path class="st1" d="M9.9,9.7c0-0.1-0.1-0.1-0.1-0.1c-0.1,0-0.1,0.1-0.1,0.1s0.1,0.1,0.1,0.1C9.8,9.8,9.9,9.8,9.9,9.7z"/>
		<path class="st1" d="M9.1,8.2C9.1,8.1,9,8,8.9,8C8.9,8,8.8,8.1,8.8,8.2c0,0.1,0.1,0.1,0.1,0.1C9,8.3,9.1,8.2,9.1,8.2z"/>
		<path class="st1" d="M12.9,6.1C12.9,6,12.8,6,12.7,6c-0.1,0-0.1,0.1-0.1,0.1s0.1,0.1,0.1,0.1C12.8,6.2,12.9,6.2,12.9,6.1z"/>
		<path class="st1" d="M12.3,4.9c0-0.1-0.1-0.1-0.1-0.1c-0.1,0-0.1,0.1-0.1,0.1C12.1,5,12.1,5,12.2,5C12.3,5,12.3,5,12.3,4.9z"/>
		<path class="st1" d="M15,8.1C15,8,15,7.9,14.9,7.9c-0.1,0-0.1,0.1-0.1,0.1c0,0.1,0.1,0.1,0.1,0.1C15,8.2,15,8.1,15,8.1z"/>
		<path class="st1" d="M16.4,6.4c0-0.1-0.1-0.1-0.1-0.1c-0.1,0-0.1,0.1-0.1,0.1c0,0.1,0.1,0.1,0.1,0.1C16.4,6.5,16.4,6.5,16.4,6.4z"
			/>
		<path class="st1" d="M18.4,9.7c0-0.1-0.1-0.1-0.1-0.1c-0.1,0-0.1,0.1-0.1,0.1c0,0.1,0.1,0.1,0.1,0.1C18.3,9.8,18.4,9.7,18.4,9.7z"
			/>
		<path class="st1" d="M24.4,7c0-0.1-0.1-0.1-0.1-0.1c-0.1,0-0.1,0.1-0.1,0.1s0.1,0.1,0.1,0.1C24.3,7.1,24.4,7,24.4,7z"/>
		<circle class="st1" cx="20.9" cy="5.7" r="0.1"/>
		<path class="st1" d="M11.8,13.6c0-0.1-0.1-0.1-0.1-0.1c-0.1,0-0.1,0.1-0.1,0.1c0,0.1,0.1,0.1,0.1,0.1
			C11.8,13.7,11.8,13.7,11.8,13.6z"/>
		<path class="st1" d="M13.4,14.2c0-0.1-0.1-0.1-0.1-0.1c-0.1,0-0.1,0.1-0.1,0.1c0,0.1,0.1,0.1,0.1,0.1
			C13.3,14.4,13.4,14.3,13.4,14.2z"/>
		<path class="st1" d="M16.2,11.9c0-0.1-0.1-0.1-0.1-0.1c-0.1,0-0.1,0.1-0.1,0.1c0,0.1,0.1,0.1,0.1,0.1C16.2,12.1,16.2,12,16.2,11.9
			z"/>
		<path class="st1" d="M20.4,13c0-0.1-0.1-0.1-0.1-0.1c-0.1,0-0.1,0.1-0.1,0.1c0,0.1,0.1,0.1,0.1,0.1C20.3,13.1,20.4,13.1,20.4,13z"
			/>
		<path class="st1" d="M24.4,12.7c0-0.1-0.1-0.1-0.1-0.1c-0.1,0-0.1,0.1-0.1,0.1c0,0.1,0.1,0.1,0.1,0.1
			C24.3,12.8,24.4,12.8,24.4,12.7z"/>
		<path class="st1" d="M24.4,13.8C24.4,13.7,24.3,13.7,24.4,13.8c-0.2-0.1-0.2-0.1-0.2,0C24.2,13.8,24.2,13.9,24.4,13.8
			C24.3,13.9,24.4,13.8,24.4,13.8z"/>
		<path class="st1" d="M23.8,13.7c0-0.1-0.1-0.1-0.1-0.1c-0.1,0-0.1,0.1-0.1,0.1c0,0.1,0.1,0.1,0.1,0.1
			C23.8,13.8,23.8,13.7,23.8,13.7z"/>
		<path class="st1" d="M12.5,11c0-0.1-0.1-0.1-0.1-0.1c-0.1,0-0.1,0.1-0.1,0.1c0,0.1,0.1,0.1,0.1,0.1C12.5,11.1,12.5,11.1,12.5,11z"
			/>
		<polygon class="st1" points="2.2,8.2 1.7,6.9 1.1,7.9 1.1,7.9 1.7,6.9 1.7,6.9 1.7,6.9 2.2,8.2 		"/>
		<polygon class="st1" points="2.2,8.3 1.1,8 1.1,7.9 2.2,8.3 		"/>
	</g>
</g>
<g>
	<defs>
		<rect id="SVGID_3_" y="0" width="25" height="25"/>
	</defs>
	<clipPath id="SVGID_4_">
		<use xlink:href="#SVGID_3_"  style="overflow:visible;"/>
	</clipPath>
	<g class="st2">
		<path class="st1" d="M19,0C19,0,19,0,19,0C19,0,19,0,19,0C18.9,0,18.9,0,19,0C18.9,0,18.9,0,19,0z"/>
		<path class="st1" d="M19.7,0C19.7,0,19.7,0,19.7,0C19.7,0,19.7,0,19.7,0C19.7,0,19.7,0,19.7,0C19.7,0,19.7,0,19.7,0z"/>
		<path class="st1" d="M20.5,0C20.5,0,20.5,0,20.5,0C20.5,0,20.5,0,20.5,0C20.5,0,20.5,0,20.5,0C20.5,0,20.5,0,20.5,0z"/>
		<path class="st1" d="M17.4,0.8C17.5,0.8,17.5,0.8,17.4,0.8C17.5,0.8,17.5,0.8,17.4,0.8C17.4,0.8,17.4,0.8,17.4,0.8
			C17.4,0.8,17.4,0.8,17.4,0.8z"/>
		<path class="st1" d="M18.2,0.8C18.2,0.8,18.2,0.8,18.2,0.8C18.2,0.8,18.2,0.8,18.2,0.8C18.2,0.8,18.2,0.8,18.2,0.8
			C18.2,0.8,18.2,0.8,18.2,0.8z"/>
		<path class="st1" d="M19,0.8C19,0.8,19,0.8,19,0.8C19,0.8,19,0.8,19,0.8C18.9,0.8,18.9,0.8,19,0.8C18.9,0.8,18.9,0.8,19,0.8z"/>
		<path class="st1" d="M19.7,0.8C19.7,0.8,19.7,0.8,19.7,0.8C19.7,0.8,19.7,0.8,19.7,0.8C19.7,0.8,19.7,0.8,19.7,0.8
			C19.7,0.8,19.7,0.8,19.7,0.8z"/>
		<path class="st1" d="M20.5,0.8C20.5,0.8,20.5,0.8,20.5,0.8C20.5,0.8,20.5,0.8,20.5,0.8C20.5,0.8,20.5,0.8,20.5,0.8
			C20.5,0.8,20.5,0.8,20.5,0.8z"/>
		<path class="st1" d="M21.2,0.8C21.2,0.8,21.2,0.8,21.2,0.8C21.2,0.8,21.2,0.8,21.2,0.8C21.2,0.8,21.2,0.8,21.2,0.8
			C21.2,0.8,21.2,0.8,21.2,0.8z"/>
		<polygon class="st1" points="9.9,1.5 9.9,1.5 9.9,1.5 9.9,1.5 		"/>
		<polygon class="st1" points="10.7,1.5 10.7,1.5 10.7,1.5 10.7,1.5 		"/>
		<polygon class="st1" points="11.4,1.5 11.4,1.5 11.4,1.5 11.4,1.5 		"/>
		<polygon class="st1" points="15.9,1.5 15.9,1.5 15.9,1.5 15.9,1.5 		"/>
		<path class="st1" d="M16.7,1.5C16.7,1.5,16.7,1.5,16.7,1.5C16.7,1.5,16.7,1.5,16.7,1.5C16.7,1.5,16.7,1.5,16.7,1.5
			C16.7,1.5,16.7,1.5,16.7,1.5z"/>
		<path class="st1" d="M17.4,1.5C17.5,1.5,17.5,1.5,17.4,1.5C17.5,1.5,17.5,1.5,17.4,1.5C17.4,1.5,17.4,1.5,17.4,1.5
			C17.4,1.5,17.4,1.5,17.4,1.5z"/>
		<path class="st1" d="M18.2,1.5C18.2,1.5,18.2,1.5,18.2,1.5C18.2,1.5,18.2,1.5,18.2,1.5C18.2,1.5,18.2,1.5,18.2,1.5
			C18.2,1.5,18.2,1.5,18.2,1.5z"/>
		<path class="st1" d="M19,1.5C19,1.5,19,1.5,19,1.5C19,1.5,19,1.5,19,1.5C18.9,1.5,18.9,1.5,19,1.5C18.9,1.5,18.9,1.5,19,1.5z"/>
		<path class="st1" d="M19.7,1.5C19.7,1.5,19.7,1.5,19.7,1.5C19.7,1.5,19.7,1.5,19.7,1.5C19.7,1.5,19.7,1.5,19.7,1.5
			C19.7,1.5,19.7,1.5,19.7,1.5z"/>
		<path class="st1" d="M20.5,1.5C20.5,1.5,20.5,1.5,20.5,1.5C20.5,1.5,20.5,1.5,20.5,1.5C20.5,1.5,20.5,1.5,20.5,1.5
			C20.5,1.5,20.5,1.5,20.5,1.5z"/>
		<path class="st1" d="M21.2,1.5C21.2,1.5,21.2,1.5,21.2,1.5C21.2,1.5,21.2,1.5,21.2,1.5C21.2,1.5,21.2,1.5,21.2,1.5
			C21.2,1.5,21.2,1.5,21.2,1.5z"/>
		<path class="st1" d="M22,1.5C22,1.5,22,1.5,22,1.5C22,1.5,22,1.5,22,1.5C22,1.5,22,1.5,22,1.5C22,1.5,22,1.5,22,1.5z"/>
		<path class="st1" d="M0.1,2.3C0.1,2.3,0.1,2.3,0.1,2.3C0.1,2.3,0.1,2.3,0.1,2.3C0.1,2.3,0.1,2.3,0.1,2.3C0.1,2.3,0.1,2.3,0.1,2.3z
			"/>
		<path class="st1" d="M0.9,2.3C0.9,2.3,0.9,2.3,0.9,2.3C0.9,2.3,0.9,2.3,0.9,2.3C0.9,2.3,0.9,2.3,0.9,2.3C0.9,2.3,0.9,2.3,0.9,2.3z
			"/>
		<path class="st1" d="M1.6,2.3C1.6,2.3,1.6,2.3,1.6,2.3C1.6,2.3,1.6,2.3,1.6,2.3C1.6,2.3,1.6,2.3,1.6,2.3C1.6,2.3,1.6,2.3,1.6,2.3z
			"/>
		<path class="st1" d="M2.4,2.3C2.4,2.3,2.4,2.3,2.4,2.3C2.4,2.3,2.4,2.3,2.4,2.3C2.4,2.3,2.4,2.3,2.4,2.3C2.4,2.3,2.4,2.3,2.4,2.3z
			"/>
		<path class="st1" d="M3.1,2.3C3.1,2.3,3.1,2.3,3.1,2.3C3.1,2.3,3.1,2.3,3.1,2.3C3.1,2.3,3.1,2.3,3.1,2.3C3.1,2.3,3.1,2.3,3.1,2.3z
			"/>
		<polygon class="st1" points="9.2,2.3 9.2,2.3 9.2,2.3 9.2,2.3 		"/>
		<polygon class="st1" points="9.9,2.3 9.9,2.3 9.9,2.3 9.9,2.3 		"/>
		<polygon class="st1" points="10.7,2.3 10.7,2.3 10.7,2.3 10.7,2.3 		"/>
		<polygon class="st1" points="11.4,2.3 11.4,2.3 11.4,2.3 11.4,2.3 		"/>
		<path class="st1" d="M15.2,2.3C15.2,2.3,15.2,2.3,15.2,2.3C15.2,2.3,15.2,2.3,15.2,2.3C15.2,2.3,15.2,2.3,15.2,2.3
			C15.2,2.3,15.2,2.3,15.2,2.3z"/>
		<path class="st1" d="M15.9,2.3C15.9,2.3,16,2.3,15.9,2.3C16,2.3,15.9,2.3,15.9,2.3C15.9,2.3,15.9,2.3,15.9,2.3
			C15.9,2.3,15.9,2.3,15.9,2.3z"/>
		<path class="st1" d="M16.7,2.3C16.7,2.3,16.7,2.3,16.7,2.3C16.7,2.3,16.7,2.3,16.7,2.3C16.7,2.3,16.7,2.3,16.7,2.3
			C16.7,2.3,16.7,2.3,16.7,2.3z"/>
		<path class="st1" d="M17.4,2.3C17.5,2.3,17.5,2.3,17.4,2.3C17.5,2.3,17.5,2.3,17.4,2.3C17.4,2.3,17.4,2.3,17.4,2.3
			C17.4,2.3,17.4,2.3,17.4,2.3z"/>
		<path class="st1" d="M18.2,2.3C18.2,2.3,18.2,2.3,18.2,2.3C18.2,2.3,18.2,2.3,18.2,2.3C18.2,2.3,18.2,2.3,18.2,2.3
			C18.2,2.3,18.2,2.3,18.2,2.3z"/>
		<path class="st1" d="M19,2.3C19,2.3,19,2.3,19,2.3C19,2.3,19,2.3,19,2.3C18.9,2.3,18.9,2.3,19,2.3C18.9,2.3,18.9,2.3,19,2.3z"/>
		<path class="st1" d="M19.7,2.3C19.7,2.3,19.7,2.3,19.7,2.3C19.7,2.3,19.7,2.3,19.7,2.3C19.7,2.3,19.7,2.3,19.7,2.3
			C19.7,2.3,19.7,2.3,19.7,2.3z"/>
		<path class="st1" d="M20.5,2.3C20.5,2.3,20.5,2.3,20.5,2.3C20.5,2.3,20.5,2.3,20.5,2.3C20.5,2.3,20.5,2.3,20.5,2.3
			C20.5,2.3,20.5,2.3,20.5,2.3z"/>
		<path class="st1" d="M21.2,2.3C21.2,2.3,21.2,2.3,21.2,2.3C21.2,2.3,21.2,2.3,21.2,2.3C21.2,2.3,21.2,2.3,21.2,2.3
			C21.2,2.3,21.2,2.3,21.2,2.3z"/>
		<path class="st1" d="M22,2.3C22,2.3,22,2.3,22,2.3C22,2.3,22,2.3,22,2.3C22,2.3,22,2.3,22,2.3C22,2.3,22,2.3,22,2.3z"/>
		<path class="st1" d="M0.1,3.1C0.1,3.1,0.2,3,0.1,3.1C0.2,3,0.1,3,0.1,3.1C0.1,3,0.1,3,0.1,3.1C0.1,3,0.1,3.1,0.1,3.1z"/>
		<path class="st1" d="M0.9,3.1C0.9,3.1,0.9,3,0.9,3.1C0.9,3,0.9,3,0.9,3.1C0.9,3,0.9,3,0.9,3.1C0.9,3,0.9,3.1,0.9,3.1z"/>
		<path class="st1" d="M1.6,3C1.6,3,1.6,3,1.6,3C1.6,3,1.6,3,1.6,3C1.6,3,1.6,3,1.6,3C1.6,3,1.6,3,1.6,3z"/>
		<path class="st1" d="M2.4,3C2.4,3,2.4,3,2.4,3C2.4,3,2.4,3,2.4,3C2.4,3,2.4,3,2.4,3C2.4,3,2.4,3,2.4,3z"/>
		<path class="st1" d="M3.1,3C3.1,3,3.1,3,3.1,3C3.1,3,3.1,3,3.1,3C3.1,3,3.1,3,3.1,3C3.1,3,3.1,3,3.1,3z"/>
		<path class="st1" d="M3.9,3C3.9,3,3.9,3,3.9,3C3.9,3,3.9,3,3.9,3C3.9,3,3.9,3,3.9,3C3.9,3,3.9,3,3.9,3z"/>
		<path class="st1" d="M4.6,3C4.6,3,4.7,3,4.6,3C4.7,3,4.6,3,4.6,3C4.6,3,4.6,3,4.6,3C4.6,3,4.6,3,4.6,3z"/>
		<polygon class="st1" points="8.4,3 8.4,3 8.4,3 8.4,3 		"/>
		<polygon class="st1" points="9.2,3 9.2,3 9.2,3 9.2,3 		"/>
		<polygon class="st1" points="9.9,3 9.9,3 9.9,3 9.9,3 		"/>
		<polygon class="st1" points="10.7,3 10.7,3 10.7,3 10.7,3 		"/>
		<polygon class="st1" points="11.4,3 11.4,3 11.4,3 11.4,3 		"/>
		<path class="st1" d="M12.2,3C12.2,3,12.2,3,12.2,3C12.2,3,12.2,3,12.2,3C12.2,3,12.1,3,12.2,3C12.1,3,12.2,3,12.2,3z"/>
		<path class="st1" d="M12.9,3C12.9,3,12.9,3,12.9,3C12.9,3,12.9,3,12.9,3C12.9,3,12.9,3,12.9,3C12.9,3,12.9,3,12.9,3z"/>
		<path class="st1" d="M13.7,3C13.7,3,13.7,3,13.7,3C13.7,3,13.7,3,13.7,3C13.7,3,13.7,3,13.7,3C13.7,3,13.7,3,13.7,3z"/>
		<path class="st1" d="M14.4,3.1C14.5,3.1,14.5,3,14.4,3.1C14.5,3,14.5,3,14.4,3.1C14.4,3,14.4,3,14.4,3.1C14.4,3,14.4,3.1,14.4,3.1
			z"/>
		<path class="st1" d="M15.2,3C15.2,3,15.2,3,15.2,3C15.2,3,15.2,3,15.2,3C15.2,3,15.2,3,15.2,3C15.2,3,15.2,3,15.2,3z"/>
		<path class="st1" d="M15.9,3C15.9,3,16,3,15.9,3C16,3,15.9,3,15.9,3C15.9,3,15.9,3,15.9,3C15.9,3,15.9,3,15.9,3z"/>
		<path class="st1" d="M16.7,3C16.7,3,16.7,3,16.7,3C16.7,3,16.7,3,16.7,3C16.7,3,16.7,3,16.7,3C16.7,3,16.7,3,16.7,3z"/>
		<path class="st1" d="M17.4,3C17.5,3,17.5,3,17.4,3C17.5,3,17.5,3,17.4,3C17.4,3,17.4,3,17.4,3C17.4,3,17.4,3,17.4,3z"/>
		<path class="st1" d="M18.2,3C18.2,3,18.2,3,18.2,3C18.2,3,18.2,3,18.2,3C18.2,3,18.2,3,18.2,3C18.2,3,18.2,3,18.2,3z"/>
		<path class="st1" d="M19,3C19,3,19,3,19,3C19,3,19,3,19,3C18.9,3,18.9,3,19,3C18.9,3,18.9,3,19,3z"/>
		<path class="st1" d="M19.7,3C19.7,3,19.7,3,19.7,3C19.7,3,19.7,3,19.7,3C19.7,3,19.7,3,19.7,3C19.7,3,19.7,3,19.7,3z"/>
		<path class="st1" d="M20.5,3C20.5,3,20.5,3,20.5,3C20.5,3,20.5,3,20.5,3C20.5,3,20.4,3,20.5,3C20.4,3,20.5,3,20.5,3z"/>
		<path class="st1" d="M21.2,3C21.2,3,21.2,3,21.2,3C21.2,3,21.2,3,21.2,3C21.2,3,21.2,3,21.2,3C21.2,3,21.2,3,21.2,3z"/>
		<path class="st1" d="M22,3C22,3,22,3,22,3C22,3,22,3,22,3C22,3,22,3,22,3C22,3,22,3,22,3z"/>
		<circle class="st1" cx="0.1" cy="3.8" r="0.1"/>
		<path class="st1" d="M0.9,3.8C0.9,3.8,0.9,3.8,0.9,3.8c0.1-0.1,0-0.1,0-0.1C0.8,3.7,0.8,3.7,0.9,3.8C0.8,3.8,0.8,3.8,0.9,3.8z"/>
		<path class="st1" d="M1.6,3.8C1.7,3.8,1.7,3.8,1.6,3.8C1.7,3.8,1.7,3.7,1.6,3.8C1.6,3.7,1.6,3.8,1.6,3.8C1.6,3.8,1.6,3.8,1.6,3.8z
			"/>
		<path class="st1" d="M2.4,3.8C2.4,3.8,2.4,3.8,2.4,3.8C2.4,3.8,2.4,3.8,2.4,3.8C2.4,3.8,2.4,3.8,2.4,3.8C2.4,3.8,2.4,3.8,2.4,3.8z
			"/>
		<path class="st1" d="M3.1,3.8C3.1,3.8,3.2,3.8,3.1,3.8C3.2,3.8,3.1,3.8,3.1,3.8C3.1,3.8,3.1,3.8,3.1,3.8C3.1,3.8,3.1,3.8,3.1,3.8z
			"/>
		<path class="st1" d="M3.9,3.8C3.9,3.8,3.9,3.8,3.9,3.8C3.9,3.8,3.9,3.8,3.9,3.8C3.9,3.8,3.9,3.8,3.9,3.8C3.9,3.8,3.9,3.8,3.9,3.8z
			"/>
		<path class="st1" d="M4.6,3.8C4.7,3.8,4.7,3.8,4.6,3.8C4.7,3.8,4.7,3.8,4.6,3.8C4.6,3.8,4.6,3.8,4.6,3.8C4.6,3.8,4.6,3.8,4.6,3.8z
			"/>
		<path class="st1" d="M5.4,3.8C5.4,3.8,5.4,3.8,5.4,3.8C5.4,3.8,5.4,3.8,5.4,3.8C5.4,3.8,5.4,3.8,5.4,3.8C5.4,3.8,5.4,3.8,5.4,3.8z
			"/>
		<path class="st1" d="M6.1,3.8C6.2,3.8,6.2,3.8,6.1,3.8C6.2,3.8,6.2,3.8,6.1,3.8C6.1,3.8,6.1,3.8,6.1,3.8C6.1,3.8,6.1,3.8,6.1,3.8z
			"/>
		<path class="st1" d="M6.9,3.8C6.9,3.8,6.9,3.8,6.9,3.8C6.9,3.8,6.9,3.8,6.9,3.8C6.9,3.8,6.9,3.8,6.9,3.8C6.9,3.8,6.9,3.8,6.9,3.8z
			"/>
		<polygon class="st1" points="8.4,3.8 8.4,3.8 8.4,3.8 8.4,3.8 		"/>
		<path class="st1" d="M9.2,3.8C9.2,3.8,9.2,3.8,9.2,3.8C9.2,3.8,9.2,3.8,9.2,3.8C9.2,3.8,9.2,3.8,9.2,3.8C9.2,3.8,9.2,3.8,9.2,3.8z
			"/>
		<path class="st1" d="M9.9,3.8C9.9,3.8,9.9,3.8,9.9,3.8C9.9,3.8,9.9,3.8,9.9,3.8C9.9,3.8,9.9,3.8,9.9,3.8C9.9,3.8,9.9,3.8,9.9,3.8z
			"/>
		<path class="st1" d="M10.7,3.8C10.7,3.8,10.7,3.8,10.7,3.8C10.7,3.8,10.7,3.7,10.7,3.8C10.6,3.7,10.6,3.8,10.7,3.8
			C10.6,3.8,10.6,3.8,10.7,3.8z"/>
		<path class="st1" d="M11.4,3.8C11.4,3.8,11.5,3.8,11.4,3.8C11.5,3.8,11.4,3.7,11.4,3.8C11.4,3.7,11.4,3.8,11.4,3.8
			C11.4,3.8,11.4,3.8,11.4,3.8z"/>
		<path class="st1" d="M12.2,3.8C12.2,3.8,12.2,3.8,12.2,3.8C12.2,3.8,12.2,3.7,12.2,3.8C12.2,3.7,12.1,3.8,12.2,3.8
			C12.1,3.8,12.2,3.8,12.2,3.8z"/>
		<path class="st1" d="M12.9,3.8C13,3.8,13,3.8,12.9,3.8c0.1-0.1,0-0.1,0-0.1C12.9,3.7,12.9,3.7,12.9,3.8
			C12.9,3.8,12.9,3.8,12.9,3.8z"/>
		<path class="st1" d="M13.7,3.8C13.7,3.8,13.7,3.8,13.7,3.8C13.7,3.8,13.7,3.7,13.7,3.8C13.7,3.7,13.6,3.8,13.7,3.8
			C13.6,3.8,13.7,3.8,13.7,3.8z"/>
		<path class="st1" d="M14.4,3.8C14.4,3.8,14.5,3.8,14.4,3.8C14.5,3.8,14.4,3.8,14.4,3.8C14.4,3.8,14.4,3.8,14.4,3.8
			C14.4,3.8,14.4,3.8,14.4,3.8z"/>
		<path class="st1" d="M15.2,3.8C15.2,3.8,15.2,3.8,15.2,3.8C15.2,3.8,15.2,3.8,15.2,3.8C15.2,3.8,15.2,3.8,15.2,3.8
			C15.2,3.8,15.2,3.8,15.2,3.8z"/>
		<path class="st1" d="M15.9,3.8C16,3.8,16,3.8,15.9,3.8C16,3.8,16,3.8,15.9,3.8C15.9,3.8,15.9,3.8,15.9,3.8
			C15.9,3.8,15.9,3.8,15.9,3.8z"/>
		<path class="st1" d="M16.7,3.8C16.7,3.8,16.7,3.8,16.7,3.8C16.7,3.8,16.7,3.8,16.7,3.8C16.7,3.8,16.7,3.8,16.7,3.8
			C16.7,3.8,16.7,3.8,16.7,3.8z"/>
		<path class="st1" d="M17.4,3.8C17.5,3.8,17.5,3.8,17.4,3.8C17.5,3.8,17.5,3.8,17.4,3.8C17.4,3.8,17.4,3.8,17.4,3.8
			C17.4,3.8,17.4,3.8,17.4,3.8z"/>
		<path class="st1" d="M18.2,3.8C18.2,3.8,18.2,3.8,18.2,3.8C18.2,3.8,18.2,3.8,18.2,3.8C18.2,3.8,18.2,3.8,18.2,3.8
			C18.2,3.8,18.2,3.8,18.2,3.8z"/>
		<path class="st1" d="M19,3.8C19,3.8,19,3.8,19,3.8C19,3.8,19,3.8,19,3.8C18.9,3.8,18.9,3.8,19,3.8C18.9,3.8,18.9,3.8,19,3.8z"/>
		<path class="st1" d="M19.7,3.8C19.7,3.8,19.7,3.8,19.7,3.8C19.7,3.8,19.7,3.8,19.7,3.8C19.7,3.8,19.7,3.8,19.7,3.8
			C19.7,3.8,19.7,3.8,19.7,3.8z"/>
		<path class="st1" d="M20.5,3.8C20.5,3.8,20.5,3.8,20.5,3.8C20.5,3.8,20.5,3.8,20.5,3.8C20.5,3.8,20.4,3.8,20.5,3.8
			C20.4,3.8,20.5,3.8,20.5,3.8z"/>
		<path class="st1" d="M21.2,3.8C21.2,3.8,21.2,3.8,21.2,3.8C21.2,3.8,21.2,3.8,21.2,3.8C21.2,3.8,21.2,3.8,21.2,3.8
			C21.2,3.8,21.2,3.8,21.2,3.8z"/>
		<path class="st1" d="M22,3.8C22,3.8,22,3.8,22,3.8C22,3.8,22,3.8,22,3.8C22,3.8,22,3.8,22,3.8C22,3.8,22,3.8,22,3.8z"/>
		<path class="st1" d="M22.7,3.8C22.7,3.8,22.7,3.8,22.7,3.8C22.7,3.8,22.7,3.8,22.7,3.8C22.7,3.8,22.7,3.8,22.7,3.8
			C22.7,3.8,22.7,3.8,22.7,3.8z"/>
		<path class="st1" d="M0.1,4.6C0.2,4.6,0.2,4.6,0.1,4.6c0.1-0.1,0-0.1,0-0.1C0.1,4.5,0.1,4.5,0.1,4.6C0.1,4.6,0.1,4.6,0.1,4.6z"/>
		<path class="st1" d="M0.9,4.6C0.9,4.6,0.9,4.6,0.9,4.6c0.1-0.1,0-0.1,0-0.1C0.8,4.5,0.8,4.5,0.9,4.6C0.8,4.6,0.8,4.6,0.9,4.6z"/>
		<path class="st1" d="M1.6,4.6C1.7,4.6,1.7,4.6,1.6,4.6c0.1-0.1,0-0.1,0-0.1C1.6,4.5,1.6,4.5,1.6,4.6C1.6,4.6,1.6,4.6,1.6,4.6z"/>
		<path class="st1" d="M2.4,4.6C2.4,4.6,2.4,4.5,2.4,4.6C2.4,4.5,2.4,4.5,2.4,4.6C2.4,4.5,2.4,4.5,2.4,4.6C2.4,4.5,2.4,4.6,2.4,4.6z
			"/>
		<path class="st1" d="M3.1,4.5C3.1,4.5,3.2,4.5,3.1,4.5C3.2,4.5,3.1,4.5,3.1,4.5C3.1,4.5,3.1,4.5,3.1,4.5C3.1,4.5,3.1,4.5,3.1,4.5z
			"/>
		<path class="st1" d="M3.9,4.5C3.9,4.5,3.9,4.5,3.9,4.5C3.9,4.5,3.9,4.5,3.9,4.5C3.9,4.5,3.9,4.5,3.9,4.5C3.9,4.5,3.9,4.5,3.9,4.5z
			"/>
		<path class="st1" d="M4.6,4.5C4.7,4.5,4.7,4.5,4.6,4.5C4.7,4.5,4.7,4.5,4.6,4.5C4.6,4.5,4.6,4.5,4.6,4.5C4.6,4.5,4.6,4.5,4.6,4.5z
			"/>
		<path class="st1" d="M5.4,4.5C5.4,4.5,5.4,4.5,5.4,4.5C5.4,4.5,5.4,4.5,5.4,4.5C5.4,4.5,5.4,4.5,5.4,4.5C5.4,4.5,5.4,4.5,5.4,4.5z
			"/>
		<path class="st1" d="M6.1,4.5C6.2,4.5,6.2,4.5,6.1,4.5C6.2,4.5,6.2,4.5,6.1,4.5C6.1,4.5,6.1,4.5,6.1,4.5C6.1,4.5,6.1,4.5,6.1,4.5z
			"/>
		<path class="st1" d="M6.9,4.5C6.9,4.5,6.9,4.5,6.9,4.5C6.9,4.5,6.9,4.5,6.9,4.5C6.9,4.5,6.9,4.5,6.9,4.5C6.9,4.5,6.9,4.5,6.9,4.5z
			"/>
		<path class="st1" d="M7.7,4.5C7.7,4.5,7.7,4.5,7.7,4.5C7.7,4.5,7.7,4.5,7.7,4.5C7.6,4.5,7.6,4.5,7.7,4.5C7.6,4.5,7.6,4.5,7.7,4.5z
			"/>
		<path class="st1" d="M8.4,4.6C8.4,4.6,8.5,4.6,8.4,4.6C8.5,4.5,8.4,4.5,8.4,4.6C8.4,4.5,8.4,4.5,8.4,4.6C8.4,4.6,8.4,4.6,8.4,4.6z
			"/>
		<path class="st1" d="M9.2,4.6C9.2,4.6,9.2,4.6,9.2,4.6C9.2,4.5,9.2,4.5,9.2,4.6C9.1,4.5,9.1,4.5,9.2,4.6C9.1,4.6,9.1,4.6,9.2,4.6z
			"/>
		<path class="st1" d="M9.9,4.6C9.9,4.6,10,4.6,9.9,4.6C10,4.5,9.9,4.5,9.9,4.6C9.9,4.5,9.9,4.5,9.9,4.6C9.9,4.6,9.9,4.6,9.9,4.6z"
			/>
		<circle class="st1" cx="10.7" cy="4.5" r="0"/>
		<path class="st1" d="M11.4,4.5C11.4,4.5,11.4,4.5,11.4,4.5C11.4,4.5,11.4,4.5,11.4,4.5C11.4,4.5,11.4,4.5,11.4,4.5
			C11.4,4.5,11.4,4.5,11.4,4.5z"/>
		<path class="st1" d="M12.2,4.6C12.2,4.6,12.2,4.5,12.2,4.6C12.2,4.5,12.2,4.5,12.2,4.6C12.2,4.5,12.1,4.5,12.2,4.6
			C12.1,4.5,12.2,4.6,12.2,4.6z"/>
		<path class="st1" d="M12.9,4.6C12.9,4.6,13,4.5,12.9,4.6C13,4.5,12.9,4.5,12.9,4.6C12.9,4.5,12.9,4.5,12.9,4.6
			C12.9,4.5,12.9,4.6,12.9,4.6z"/>
		<path class="st1" d="M13.7,4.6C13.7,4.6,13.7,4.5,13.7,4.6C13.7,4.5,13.7,4.5,13.7,4.6C13.7,4.5,13.7,4.5,13.7,4.6
			C13.7,4.5,13.7,4.6,13.7,4.6z"/>
		<path class="st1" d="M14.4,4.5C14.4,4.5,14.5,4.5,14.4,4.5C14.5,4.5,14.4,4.5,14.4,4.5C14.4,4.5,14.4,4.5,14.4,4.5
			C14.4,4.5,14.4,4.5,14.4,4.5z"/>
		<path class="st1" d="M15.2,4.5C15.2,4.5,15.2,4.5,15.2,4.5C15.2,4.5,15.2,4.5,15.2,4.5C15.2,4.5,15.2,4.5,15.2,4.5
			C15.2,4.5,15.2,4.5,15.2,4.5z"/>
		<path class="st1" d="M15.9,4.5C16,4.5,16,4.5,15.9,4.5C16,4.5,16,4.5,15.9,4.5C15.9,4.5,15.9,4.5,15.9,4.5
			C15.9,4.5,15.9,4.5,15.9,4.5z"/>
		<path class="st1" d="M16.7,4.5C16.7,4.5,16.7,4.5,16.7,4.5C16.7,4.5,16.7,4.5,16.7,4.5C16.7,4.5,16.7,4.5,16.7,4.5
			C16.7,4.5,16.7,4.5,16.7,4.5z"/>
		<path class="st1" d="M17.4,4.5C17.5,4.5,17.5,4.5,17.4,4.5C17.5,4.5,17.5,4.5,17.4,4.5C17.4,4.5,17.4,4.5,17.4,4.5
			C17.4,4.5,17.4,4.5,17.4,4.5z"/>
		<path class="st1" d="M18.2,4.5C18.2,4.5,18.2,4.5,18.2,4.5C18.2,4.5,18.2,4.5,18.2,4.5C18.2,4.5,18.2,4.5,18.2,4.5
			C18.2,4.5,18.2,4.5,18.2,4.5z"/>
		<path class="st1" d="M19,4.5C19,4.5,19,4.5,19,4.5C19,4.5,19,4.5,19,4.5C18.9,4.5,18.9,4.5,19,4.5C18.9,4.5,18.9,4.5,19,4.5z"/>
		<path class="st1" d="M19.7,4.5C19.7,4.5,19.7,4.5,19.7,4.5C19.7,4.5,19.7,4.5,19.7,4.5C19.7,4.5,19.7,4.5,19.7,4.5
			C19.7,4.5,19.7,4.5,19.7,4.5z"/>
		<path class="st1" d="M20.5,4.5C20.5,4.5,20.5,4.5,20.5,4.5C20.5,4.5,20.5,4.5,20.5,4.5C20.5,4.5,20.4,4.5,20.5,4.5
			C20.4,4.5,20.5,4.5,20.5,4.5z"/>
		<path class="st1" d="M21.2,4.5C21.2,4.5,21.2,4.5,21.2,4.5C21.2,4.5,21.2,4.5,21.2,4.5C21.2,4.5,21.2,4.5,21.2,4.5
			C21.2,4.5,21.2,4.5,21.2,4.5z"/>
		<path class="st1" d="M22,4.6C22,4.6,22,4.6,22,4.6c0.1-0.1,0-0.1,0-0.1C21.9,4.5,21.9,4.5,22,4.6C21.9,4.6,21.9,4.6,22,4.6z"/>
		<path class="st1" d="M22.7,4.6C22.7,4.6,22.7,4.5,22.7,4.6C22.7,4.5,22.7,4.5,22.7,4.6C22.7,4.5,22.7,4.5,22.7,4.6
			C22.7,4.5,22.7,4.6,22.7,4.6z"/>
		<path class="st1" d="M0.1,5.4C0.2,5.4,0.2,5.3,0.1,5.4c0.1-0.1,0-0.1,0-0.1S0.1,5.2,0.1,5.4C0.1,5.3,0.1,5.4,0.1,5.4z"/>
		<path class="st1" d="M0.9,5.4C0.9,5.4,0.9,5.3,0.9,5.4c0.1-0.1,0-0.1,0-0.1C0.8,5.2,0.8,5.2,0.9,5.4C0.8,5.3,0.8,5.4,0.9,5.4z"/>
		<path class="st1" d="M1.6,5.3C1.7,5.3,1.7,5.3,1.6,5.3c0.1-0.1,0-0.1,0-0.1C1.6,5.2,1.6,5.2,1.6,5.3C1.6,5.3,1.6,5.3,1.6,5.3z"/>
		<path class="st1" d="M2.4,5.3C2.4,5.3,2.4,5.3,2.4,5.3C2.4,5.3,2.4,5.2,2.4,5.3C2.4,5.2,2.3,5.3,2.4,5.3C2.3,5.3,2.4,5.3,2.4,5.3z
			"/>
		<path class="st1" d="M3.1,5.3C3.1,5.3,3.2,5.3,3.1,5.3C3.2,5.3,3.1,5.3,3.1,5.3C3.1,5.3,3.1,5.3,3.1,5.3C3.1,5.3,3.1,5.3,3.1,5.3z
			"/>
		<path class="st1" d="M3.9,5.3C3.9,5.3,3.9,5.3,3.9,5.3C3.9,5.3,3.9,5.3,3.9,5.3C3.9,5.3,3.9,5.3,3.9,5.3C3.9,5.3,3.9,5.3,3.9,5.3z
			"/>
		<path class="st1" d="M4.6,5.3C4.7,5.3,4.7,5.3,4.6,5.3C4.7,5.3,4.7,5.3,4.6,5.3C4.6,5.3,4.6,5.3,4.6,5.3C4.6,5.3,4.6,5.3,4.6,5.3z
			"/>
		<path class="st1" d="M5.4,5.3C5.4,5.3,5.4,5.3,5.4,5.3C5.4,5.3,5.4,5.3,5.4,5.3C5.4,5.3,5.4,5.3,5.4,5.3C5.4,5.3,5.4,5.3,5.4,5.3z
			"/>
		<path class="st1" d="M6.1,5.3C6.2,5.3,6.2,5.3,6.1,5.3C6.2,5.3,6.2,5.3,6.1,5.3C6.1,5.3,6.1,5.3,6.1,5.3C6.1,5.3,6.1,5.3,6.1,5.3z
			"/>
		<path class="st1" d="M6.9,5.3C6.9,5.3,6.9,5.3,6.9,5.3C6.9,5.3,6.9,5.2,6.9,5.3C6.9,5.2,6.9,5.3,6.9,5.3C6.9,5.3,6.9,5.3,6.9,5.3z
			"/>
		<path class="st1" d="M7.7,5.3C7.7,5.3,7.7,5.3,7.7,5.3C7.7,5.3,7.7,5.2,7.7,5.3C7.6,5.2,7.6,5.3,7.7,5.3C7.6,5.3,7.6,5.3,7.7,5.3z
			"/>
		<path class="st1" d="M8.4,5.3C8.4,5.3,8.5,5.3,8.4,5.3C8.5,5.3,8.4,5.2,8.4,5.3C8.4,5.2,8.4,5.3,8.4,5.3C8.4,5.3,8.4,5.3,8.4,5.3z
			"/>
		<path class="st1" d="M9.2,5.3C9.2,5.3,9.2,5.3,9.2,5.3C9.2,5.3,9.2,5.2,9.2,5.3C9.1,5.2,9.1,5.3,9.2,5.3C9.1,5.3,9.1,5.3,9.2,5.3z
			"/>
		<path class="st1" d="M9.9,5.3C9.9,5.3,10,5.3,9.9,5.3c0.1-0.1,0-0.1,0-0.1C9.9,5.2,9.9,5.3,9.9,5.3C9.9,5.3,9.9,5.3,9.9,5.3z"/>
		<path class="st1" d="M10.7,5.3C10.7,5.3,10.7,5.3,10.7,5.3C10.7,5.3,10.7,5.2,10.7,5.3C10.6,5.2,10.6,5.3,10.7,5.3
			C10.6,5.3,10.6,5.3,10.7,5.3z"/>
		<path class="st1" d="M11.4,5.3C11.4,5.3,11.4,5.3,11.4,5.3C11.4,5.3,11.4,5.3,11.4,5.3C11.4,5.3,11.4,5.3,11.4,5.3
			C11.4,5.3,11.4,5.3,11.4,5.3z"/>
		<path class="st1" d="M12.2,5.3C12.2,5.3,12.2,5.3,12.2,5.3c0.1-0.1,0-0.1,0-0.1C12.1,5.2,12.1,5.3,12.2,5.3
			C12.1,5.3,12.1,5.3,12.2,5.3z"/>
		<path class="st1" d="M12.9,5.3C13,5.3,13,5.3,12.9,5.3c0.1-0.1,0-0.1,0-0.1S12.9,5.2,12.9,5.3C12.9,5.3,12.9,5.3,12.9,5.3z"/>
		<path class="st1" d="M13.7,5.3C13.7,5.3,13.7,5.3,13.7,5.3C13.7,5.3,13.7,5.2,13.7,5.3C13.7,5.2,13.6,5.3,13.7,5.3
			C13.6,5.3,13.7,5.3,13.7,5.3z"/>
		<path class="st1" d="M14.4,5.3C14.4,5.3,14.5,5.3,14.4,5.3C14.5,5.3,14.4,5.3,14.4,5.3C14.4,5.3,14.4,5.3,14.4,5.3
			C14.4,5.3,14.4,5.3,14.4,5.3z"/>
		<path class="st1" d="M15.2,5.3C15.2,5.3,15.2,5.3,15.2,5.3C15.2,5.3,15.2,5.3,15.2,5.3C15.2,5.3,15.2,5.3,15.2,5.3
			C15.2,5.3,15.2,5.3,15.2,5.3z"/>
		<path class="st1" d="M15.9,5.3C16,5.3,16,5.3,15.9,5.3C16,5.3,16,5.3,15.9,5.3C15.9,5.3,15.9,5.3,15.9,5.3
			C15.9,5.3,15.9,5.3,15.9,5.3z"/>
		<path class="st1" d="M16.7,5.3C16.7,5.3,16.7,5.3,16.7,5.3C16.7,5.3,16.7,5.3,16.7,5.3C16.7,5.3,16.7,5.3,16.7,5.3
			C16.7,5.3,16.7,5.3,16.7,5.3z"/>
		<path class="st1" d="M17.4,5.3C17.5,5.3,17.5,5.3,17.4,5.3C17.5,5.3,17.5,5.3,17.4,5.3C17.4,5.3,17.4,5.3,17.4,5.3
			C17.4,5.3,17.4,5.3,17.4,5.3z"/>
		<path class="st1" d="M18.2,5.3C18.2,5.3,18.2,5.3,18.2,5.3C18.2,5.3,18.2,5.3,18.2,5.3C18.2,5.3,18.2,5.3,18.2,5.3
			C18.2,5.3,18.2,5.3,18.2,5.3z"/>
		<path class="st1" d="M19,5.3C19,5.3,19,5.3,19,5.3C19,5.3,19,5.3,19,5.3C18.9,5.3,18.9,5.3,19,5.3C18.9,5.3,18.9,5.3,19,5.3z"/>
		<path class="st1" d="M19.7,5.3C19.7,5.3,19.7,5.3,19.7,5.3C19.7,5.3,19.7,5.3,19.7,5.3C19.7,5.3,19.7,5.3,19.7,5.3
			C19.7,5.3,19.7,5.3,19.7,5.3z"/>
		<path class="st1" d="M20.5,5.3C20.5,5.3,20.5,5.3,20.5,5.3C20.5,5.3,20.5,5.3,20.5,5.3C20.5,5.3,20.4,5.3,20.5,5.3
			C20.4,5.3,20.5,5.3,20.5,5.3z"/>
		<path class="st1" d="M21.2,5.3C21.2,5.3,21.2,5.3,21.2,5.3C21.2,5.3,21.2,5.3,21.2,5.3C21.2,5.3,21.2,5.3,21.2,5.3
			C21.2,5.3,21.2,5.3,21.2,5.3z"/>
		<path class="st1" d="M22,5.3C22,5.3,22,5.3,22,5.3C22,5.3,22,5.2,22,5.3C21.9,5.2,21.9,5.3,22,5.3C21.9,5.3,21.9,5.3,22,5.3z"/>
		<path class="st1" d="M22.7,5.3C22.7,5.3,22.7,5.3,22.7,5.3C22.7,5.3,22.7,5.3,22.7,5.3C22.7,5.3,22.7,5.3,22.7,5.3
			C22.7,5.3,22.7,5.3,22.7,5.3z"/>
		<path class="st1" d="M0.1,6.2c0.1,0,0.1-0.1,0.1-0.1S0.2,5.9,0.1,5.9S0,6,0,6S0.1,6.2,0.1,6.2z"/>
		<path class="st1" d="M0.9,6.2C0.9,6.2,1,6.1,1,6S0.9,5.9,0.9,5.9S0.8,6,0.8,6S0.8,6.2,0.9,6.2z"/>
		<path class="st1" d="M1.6,6.1C1.7,6.1,1.7,6.1,1.6,6.1c0.1-0.1,0.1-0.2,0-0.2C1.6,5.9,1.5,6,1.6,6.1C1.5,6.1,1.6,6.1,1.6,6.1z"/>
		<path class="st1" d="M2.4,6.1C2.4,6.1,2.5,6.1,2.4,6.1c0.1-0.1,0-0.2,0-0.2C2.3,5.9,2.3,6,2.4,6.1C2.3,6.1,2.3,6.1,2.4,6.1z"/>
		<path class="st1" d="M3.1,6.1C3.2,6.1,3.2,6.1,3.1,6.1C3.2,6,3.2,6,3.1,6C3.1,6,3.1,6,3.1,6.1C3.1,6.1,3.1,6.1,3.1,6.1z"/>
		<path class="st1" d="M3.9,6.1C3.9,6.1,3.9,6.1,3.9,6.1C3.9,6,3.9,6,3.9,6.1C3.9,6,3.9,6,3.9,6.1C3.9,6.1,3.9,6.1,3.9,6.1z"/>
		<path class="st1" d="M4.6,6.1C4.7,6.1,4.7,6,4.6,6.1C4.7,6,4.7,6,4.6,6.1C4.6,6,4.6,6,4.6,6.1C4.6,6,4.6,6.1,4.6,6.1z"/>
		<path class="st1" d="M5.4,6.1C5.4,6.1,5.4,6.1,5.4,6.1C5.4,6,5.4,6,5.4,6.1C5.4,6,5.4,6,5.4,6.1C5.4,6.1,5.4,6.1,5.4,6.1z"/>
		<path class="st1" d="M6.1,6.1C6.2,6.1,6.2,6.1,6.1,6.1C6.2,6,6.2,6,6.1,6.1C6.1,6,6.1,6,6.1,6.1C6.1,6.1,6.1,6.1,6.1,6.1z"/>
		<path class="st1" d="M6.9,6.1C6.9,6.1,6.9,6.1,6.9,6.1C6.9,6,6.9,6,6.9,6.1C6.9,6,6.9,6,6.9,6.1C6.9,6.1,6.9,6.1,6.9,6.1z"/>
		<path class="st1" d="M7.7,6.1C7.7,6.1,7.7,6.1,7.7,6.1C7.7,6,7.7,6,7.7,6.1C7.6,6,7.6,6,7.7,6.1C7.6,6.1,7.6,6.1,7.7,6.1z"/>
		<path class="st1" d="M8.4,6.1C8.4,6.1,8.5,6.1,8.4,6.1C8.5,6,8.4,6,8.4,6C8.4,6,8.3,6,8.4,6.1C8.3,6.1,8.4,6.1,8.4,6.1z"/>
		<path class="st1" d="M9.2,6.1C9.2,6.1,9.2,6.1,9.2,6.1C9.2,6,9.2,6,9.2,6.1C9.1,6,9.1,6,9.2,6.1C9.1,6.1,9.1,6.1,9.2,6.1z"/>
		<path class="st1" d="M9.9,6.1C9.9,6.1,10,6.1,9.9,6.1C10,6,9.9,6,9.9,6.1C9.9,6,9.9,6,9.9,6.1C9.9,6.1,9.9,6.1,9.9,6.1z"/>
		<path class="st1" d="M10.7,6.1C10.7,6.1,10.7,6.1,10.7,6.1C10.7,6,10.7,6,10.7,6.1C10.6,6,10.6,6,10.7,6.1
			C10.6,6.1,10.6,6.1,10.7,6.1z"/>
		<path class="st1" d="M11.4,6.3c0.2,0,0.3-0.1,0.3-0.3c0-0.2-0.1-0.3-0.3-0.3c-0.2,0-0.3,0.1-0.3,0.3C11.1,6.2,11.3,6.3,11.4,6.3z"
			/>
		<path class="st1" d="M12.2,6.1C12.2,6.1,12.2,6.1,12.2,6.1c0.1-0.1,0-0.1,0-0.1C12.1,6,12.1,6,12.2,6.1
			C12.1,6.1,12.1,6.1,12.2,6.1z"/>
		<path class="st1" d="M12.9,6.1C13,6.1,13,6.1,12.9,6.1C13,6,13,6,12.9,6C12.9,6,12.9,6,12.9,6.1C12.9,6.1,12.9,6.1,12.9,6.1z"/>
		<path class="st1" d="M13.7,6.1C13.7,6.1,13.7,6.1,13.7,6.1C13.7,6,13.7,6,13.7,6.1C13.7,6,13.6,6,13.7,6.1
			C13.6,6.1,13.7,6.1,13.7,6.1z"/>
		<path class="st1" d="M14.4,6.1C14.4,6.1,14.5,6,14.4,6.1C14.5,6,14.4,6,14.4,6.1C14.4,6,14.4,6,14.4,6.1C14.4,6,14.4,6.1,14.4,6.1
			z"/>
		<path class="st1" d="M15.2,6.1C15.2,6.1,15.2,6,15.2,6.1C15.2,6,15.2,6,15.2,6.1C15.2,6,15.2,6,15.2,6.1C15.2,6,15.2,6.1,15.2,6.1
			z"/>
		<path class="st1" d="M15.9,6.1C16,6.1,16,6,15.9,6.1C16,6,16,6,15.9,6.1C15.9,6,15.9,6,15.9,6.1C15.9,6,15.9,6.1,15.9,6.1z"/>
		<path class="st1" d="M16.7,6.1C16.7,6.1,16.7,6,16.7,6.1C16.7,6,16.7,6,16.7,6.1C16.7,6,16.7,6,16.7,6.1C16.7,6,16.7,6.1,16.7,6.1
			z"/>
		<path class="st1" d="M17.4,6.1C17.5,6.1,17.5,6,17.4,6.1C17.5,6,17.5,6,17.4,6.1C17.4,6,17.4,6,17.4,6.1C17.4,6,17.4,6.1,17.4,6.1
			z"/>
		<path class="st1" d="M18.2,6.1C18.2,6.1,18.2,6,18.2,6.1C18.2,6,18.2,6,18.2,6.1C18.2,6,18.2,6,18.2,6.1C18.2,6,18.2,6.1,18.2,6.1
			z"/>
		<path class="st1" d="M19,6.1C19,6.1,19,6,19,6.1C19,6,19,6,19,6.1C18.9,6,18.9,6,19,6.1C18.9,6,18.9,6.1,19,6.1z"/>
		<path class="st1" d="M19.7,6.1C19.7,6.1,19.7,6,19.7,6.1C19.7,6,19.7,6,19.7,6.1C19.7,6,19.7,6,19.7,6.1C19.7,6,19.7,6.1,19.7,6.1
			z"/>
		<path class="st1" d="M20.5,6.1C20.5,6.1,20.5,6,20.5,6.1C20.5,6,20.5,6,20.5,6.1C20.5,6,20.4,6,20.5,6.1C20.4,6,20.5,6.1,20.5,6.1
			z"/>
		<path class="st1" d="M21.2,6.1C21.2,6.1,21.3,6.1,21.2,6.1C21.3,6,21.2,6,21.2,6.1C21.2,6,21.2,6,21.2,6.1
			C21.2,6.1,21.2,6.1,21.2,6.1z"/>
		<path class="st1" d="M22,6.1C22,6.1,22,6.1,22,6.1C22,6,22,6,22,6.1C21.9,6,21.9,6,22,6.1C21.9,6.1,21.9,6.1,22,6.1z"/>
		<path class="st1" d="M22.7,6.1C22.7,6.1,22.7,6,22.7,6.1C22.7,6,22.7,6,22.7,6.1C22.7,6,22.7,6,22.7,6.1C22.7,6,22.7,6.1,22.7,6.1
			z"/>
		<path class="st1" d="M0.1,6.9c0.1,0,0.1-0.1,0.1-0.1c0-0.1-0.1-0.1-0.1-0.1S0,6.7,0,6.8C0,6.9,0.1,6.9,0.1,6.9z"/>
		<path class="st1" d="M0.9,6.9C0.9,6.9,1,6.9,1,6.8c0-0.1-0.1-0.1-0.1-0.1c-0.1,0-0.1,0.1-0.1,0.1C0.8,6.9,0.8,6.9,0.9,6.9z"/>
		<path class="st1" d="M1.6,7c0.1,0,0.2-0.1,0.2-0.2c0-0.1-0.1-0.2-0.2-0.2c-0.1,0-0.2,0.1-0.2,0.2C1.4,6.9,1.5,7,1.6,7z"/>
		<circle class="st1" cx="2.4" cy="6.8" r="0.2"/>
		<path class="st1" d="M3.1,6.9c0.1,0,0.1-0.1,0.1-0.1S3.2,6.7,3.1,6.7C3.1,6.7,3,6.7,3,6.8S3.1,6.9,3.1,6.9z"/>
		<path class="st1" d="M3.9,6.9C3.9,6.9,4,6.8,3.9,6.9c0.1-0.1,0.1-0.2,0-0.2C3.8,6.7,3.8,6.7,3.9,6.9C3.8,6.8,3.8,6.9,3.9,6.9z"/>
		<path class="st1" d="M4.6,6.8C4.7,6.8,4.7,6.8,4.6,6.8C4.7,6.8,4.7,6.7,4.6,6.8C4.6,6.7,4.6,6.8,4.6,6.8C4.6,6.8,4.6,6.8,4.6,6.8z
			"/>
		<path class="st1" d="M5.4,6.8C5.4,6.8,5.4,6.8,5.4,6.8C5.4,6.8,5.4,6.8,5.4,6.8C5.4,6.8,5.4,6.8,5.4,6.8C5.4,6.8,5.4,6.8,5.4,6.8z
			"/>
		<path class="st1" d="M6.1,6.8C6.2,6.8,6.2,6.8,6.1,6.8C6.2,6.8,6.2,6.8,6.1,6.8C6.1,6.8,6.1,6.8,6.1,6.8C6.1,6.8,6.1,6.8,6.1,6.8z
			"/>
		<path class="st1" d="M6.9,6.8C6.9,6.8,6.9,6.8,6.9,6.8C6.9,6.8,6.9,6.8,6.9,6.8C6.9,6.8,6.9,6.8,6.9,6.8C6.9,6.8,6.9,6.8,6.9,6.8z
			"/>
		<path class="st1" d="M7.7,6.9C7.7,6.9,7.7,6.8,7.7,6.9c0.1-0.1,0-0.2,0-0.2C7.6,6.7,7.6,6.7,7.7,6.9C7.6,6.8,7.6,6.9,7.7,6.9z"/>
		<path class="st1" d="M8.4,6.8C8.4,6.8,8.5,6.8,8.4,6.8c0.1-0.1,0-0.1,0-0.1S8.4,6.8,8.4,6.8C8.4,6.8,8.4,6.8,8.4,6.8z"/>
		<path class="st1" d="M9.2,6.9C9.2,6.9,9.2,6.8,9.2,6.9c0.1-0.1,0-0.1,0-0.1C9.1,6.7,9.1,6.8,9.2,6.9C9.1,6.8,9.1,6.9,9.2,6.9z"/>
		<circle class="st1" cx="9.9" cy="6.8" r="0.1"/>
		<circle class="st1" cx="10.7" cy="6.8" r="0.2"/>
		<path class="st1" d="M11.4,6.9c0.1,0,0.1,0,0.1-0.1c0-0.1,0-0.1-0.1-0.1c-0.1,0-0.1,0-0.1,0.1C11.3,6.8,11.4,6.9,11.4,6.9z"/>
		<path class="st1" d="M12.2,6.9C12.2,6.9,12.3,6.8,12.2,6.9c0.1-0.1,0.1-0.2,0-0.2C12.1,6.7,12.1,6.7,12.2,6.9
			C12.1,6.8,12.1,6.9,12.2,6.9z"/>
		<path class="st1" d="M12.9,6.8C12.9,6.8,12.9,6.8,12.9,6.8C12.9,6.8,12.9,6.8,12.9,6.8C12.9,6.8,12.9,6.8,12.9,6.8
			C12.9,6.8,12.9,6.8,12.9,6.8z"/>
		<path class="st1" d="M13.7,6.9C13.7,6.9,13.8,6.8,13.7,6.9c0.1-0.1,0.1-0.2,0-0.2C13.6,6.7,13.6,6.7,13.7,6.9
			C13.6,6.8,13.6,6.9,13.7,6.9z"/>
		<path class="st1" d="M14.4,6.9C14.5,6.9,14.5,6.8,14.4,6.9c0.1-0.1,0.1-0.2,0-0.2C14.4,6.7,14.3,6.7,14.4,6.9
			C14.3,6.8,14.4,6.9,14.4,6.9z"/>
		<path class="st1" d="M15.2,6.8C15.2,6.8,15.2,6.8,15.2,6.8c0.1-0.1,0-0.1,0-0.1C15.2,6.7,15.1,6.8,15.2,6.8
			C15.1,6.8,15.2,6.8,15.2,6.8z"/>
		<path class="st1" d="M15.9,6.8C16,6.8,16,6.8,15.9,6.8C16,6.8,16,6.8,15.9,6.8C15.9,6.8,15.9,6.8,15.9,6.8
			C15.9,6.8,15.9,6.8,15.9,6.8z"/>
		<path class="st1" d="M16.7,6.8C16.7,6.8,16.7,6.8,16.7,6.8C16.7,6.8,16.7,6.8,16.7,6.8C16.7,6.8,16.7,6.8,16.7,6.8
			C16.7,6.8,16.7,6.8,16.7,6.8z"/>
		<path class="st1" d="M17.4,6.8C17.5,6.8,17.5,6.8,17.4,6.8C17.5,6.8,17.5,6.8,17.4,6.8C17.4,6.8,17.4,6.8,17.4,6.8
			C17.4,6.8,17.4,6.8,17.4,6.8z"/>
		<path class="st1" d="M18.2,6.8C18.2,6.8,18.2,6.8,18.2,6.8C18.2,6.8,18.2,6.8,18.2,6.8C18.2,6.8,18.2,6.8,18.2,6.8
			C18.2,6.8,18.2,6.8,18.2,6.8z"/>
		<path class="st1" d="M19,6.8C19,6.8,19,6.8,19,6.8C19,6.8,19,6.8,19,6.8C18.9,6.8,18.9,6.8,19,6.8C18.9,6.8,18.9,6.8,19,6.8z"/>
		<path class="st1" d="M19.7,6.8C19.7,6.8,19.7,6.8,19.7,6.8C19.7,6.8,19.7,6.8,19.7,6.8C19.7,6.8,19.7,6.8,19.7,6.8
			C19.7,6.8,19.7,6.8,19.7,6.8z"/>
		<path class="st1" d="M20.5,6.8C20.5,6.8,20.5,6.8,20.5,6.8C20.5,6.8,20.5,6.8,20.5,6.8C20.4,6.8,20.4,6.8,20.5,6.8
			C20.4,6.8,20.4,6.8,20.5,6.8z"/>
		<path class="st1" d="M21.2,6.9C21.3,6.9,21.3,6.8,21.2,6.9c0.1-0.1,0-0.1,0-0.1C21.2,6.7,21.1,6.8,21.2,6.9
			C21.1,6.8,21.2,6.9,21.2,6.9z"/>
		<circle class="st1" cx="22" cy="6.8" r="0.1"/>
		<path class="st1" d="M22.7,6.9C22.8,6.9,22.8,6.8,22.7,6.9c0.1-0.1,0-0.2,0-0.2C22.7,6.7,22.6,6.7,22.7,6.9
			C22.6,6.8,22.7,6.9,22.7,6.9z"/>
		<path class="st1" d="M23.5,6.9c0.1,0,0.1-0.1,0.1-0.1c0-0.1-0.1-0.1-0.1-0.1c-0.1,0-0.1,0.1-0.1,0.1C23.3,6.9,23.4,6.9,23.5,6.9z"
			/>
		<circle class="st1" cx="24.2" cy="6.8" r="0"/>
		<path class="st1" d="M0.1,7.6C0.2,7.6,0.2,7.6,0.1,7.6c0.1-0.1,0.1-0.2,0-0.2C0.1,7.5,0,7.5,0.1,7.6C0,7.6,0.1,7.6,0.1,7.6z"/>
		<path class="st1" d="M0.9,7.6C0.9,7.6,1,7.6,0.9,7.6c0.1-0.1,0.1-0.2,0-0.2C0.8,7.5,0.8,7.5,0.9,7.6C0.8,7.6,0.8,7.6,0.9,7.6z"/>
		<path class="st1" d="M1.6,7.6C1.7,7.6,1.7,7.6,1.6,7.6c0.1-0.1,0-0.1,0-0.1C1.6,7.5,1.6,7.5,1.6,7.6C1.6,7.6,1.6,7.6,1.6,7.6z"/>
		<path class="st1" d="M2.4,7.7c0.1,0,0.2-0.1,0.2-0.2c0-0.1-0.1-0.2-0.2-0.2c-0.1,0-0.2,0.1-0.2,0.2C2.2,7.7,2.3,7.7,2.4,7.7z"/>
		<path class="st1" d="M3.1,7.6C3.2,7.6,3.2,7.6,3.1,7.6c0.1-0.1,0-0.2,0-0.2C3.1,7.5,3.1,7.5,3.1,7.6C3.1,7.6,3.1,7.6,3.1,7.6z"/>
		<path class="st1" d="M3.9,7.6c0.1,0,0.1,0,0.1-0.1c0-0.1,0-0.1-0.1-0.1c-0.1,0-0.1,0-0.1,0.1C3.8,7.6,3.8,7.6,3.9,7.6z"/>
		<path class="st1" d="M4.6,7.7c0.1,0,0.1-0.1,0.1-0.1c0-0.1-0.1-0.1-0.1-0.1c-0.1,0-0.1,0.1-0.1,0.1C4.5,7.6,4.6,7.7,4.6,7.7z"/>
		<path class="st1" d="M5.4,7.7c0.1,0,0.2-0.1,0.2-0.2c0-0.1-0.1-0.2-0.2-0.2c-0.1,0-0.2,0.1-0.2,0.2C5.2,7.6,5.3,7.7,5.4,7.7z"/>
		<path class="st1" d="M6.1,7.8c0.1,0,0.3-0.1,0.3-0.3c0-0.1-0.1-0.3-0.3-0.3C6,7.3,5.9,7.4,5.9,7.5C5.9,7.7,6,7.8,6.1,7.8z"/>
		<path class="st1" d="M6.9,7.7c0.1,0,0.2-0.1,0.2-0.2c0-0.1-0.1-0.2-0.2-0.2c-0.1,0-0.2,0.1-0.2,0.2C6.7,7.6,6.8,7.7,6.9,7.7z"/>
		<path class="st1" d="M7.7,7.8c0.2,0,0.3-0.1,0.3-0.3c0-0.2-0.1-0.3-0.3-0.3c-0.2,0-0.3,0.1-0.3,0.3C7.4,7.7,7.5,7.8,7.7,7.8z"/>
		<path class="st1" d="M8.4,7.8c0.1,0,0.2-0.1,0.2-0.2c0-0.1-0.1-0.2-0.2-0.2c-0.1,0-0.2,0.1-0.2,0.2C8.2,7.7,8.3,7.8,8.4,7.8z"/>
		<path class="st1" d="M9.2,7.7c0.1,0,0.2-0.1,0.2-0.2c0-0.1-0.1-0.2-0.2-0.2C9.1,7.4,9,7.4,9,7.5C9,7.6,9.1,7.7,9.2,7.7z"/>
		<path class="st1" d="M9.9,7.7C10,7.7,10,7.6,10,7.5c0-0.1,0-0.1-0.1-0.1c-0.1,0-0.1,0.1-0.1,0.1C9.8,7.6,9.9,7.7,9.9,7.7z"/>
		<path class="st1" d="M10.7,7.6C10.7,7.6,10.8,7.6,10.7,7.6c0.1-0.1,0.1-0.2,0-0.2C10.6,7.4,10.6,7.5,10.7,7.6
			C10.6,7.6,10.6,7.6,10.7,7.6z"/>
		<path class="st1" d="M11.4,7.6C11.5,7.6,11.5,7.6,11.4,7.6c0.1-0.1,0-0.1,0-0.1C11.4,7.5,11.4,7.5,11.4,7.6
			C11.4,7.6,11.4,7.6,11.4,7.6z"/>
		<path class="st1" d="M12.2,7.7c0.1,0,0.2-0.1,0.2-0.2c0-0.1-0.1-0.2-0.2-0.2c-0.1,0-0.2,0.1-0.2,0.2C12,7.6,12.1,7.7,12.2,7.7z"/>
		<path class="st1" d="M12.9,7.6C13,7.6,13,7.6,12.9,7.6c0.1-0.1,0-0.2,0-0.2S12.8,7.5,12.9,7.6C12.8,7.6,12.9,7.6,12.9,7.6z"/>
		<path class="st1" d="M13.7,7.6C13.7,7.6,13.7,7.6,13.7,7.6C13.7,7.5,13.7,7.5,13.7,7.6C13.7,7.5,13.6,7.5,13.7,7.6
			C13.6,7.6,13.7,7.6,13.7,7.6z"/>
		<path class="st1" d="M14.4,7.6C14.5,7.6,14.5,7.6,14.4,7.6c0.1-0.1,0-0.1,0-0.1C14.4,7.5,14.4,7.5,14.4,7.6
			C14.4,7.6,14.4,7.6,14.4,7.6z"/>
		<path class="st1" d="M15.2,7.6C15.2,7.6,15.2,7.6,15.2,7.6C15.2,7.5,15.2,7.5,15.2,7.6C15.2,7.5,15.1,7.5,15.2,7.6
			C15.1,7.6,15.2,7.6,15.2,7.6z"/>
		<path class="st1" d="M15.9,7.6C16,7.6,16,7.6,15.9,7.6C16,7.5,16,7.5,15.9,7.6C15.9,7.5,15.9,7.5,15.9,7.6
			C15.9,7.6,15.9,7.6,15.9,7.6z"/>
		<path class="st1" d="M16.7,7.6C16.7,7.6,16.7,7.6,16.7,7.6C16.7,7.5,16.7,7.5,16.7,7.6C16.7,7.5,16.7,7.5,16.7,7.6
			C16.7,7.6,16.7,7.6,16.7,7.6z"/>
		<path class="st1" d="M17.4,7.6C17.5,7.6,17.5,7.6,17.4,7.6C17.5,7.5,17.5,7.5,17.4,7.6C17.4,7.5,17.4,7.5,17.4,7.6
			C17.4,7.5,17.4,7.6,17.4,7.6z"/>
		<path class="st1" d="M18.2,7.6C18.2,7.6,18.2,7.6,18.2,7.6C18.2,7.5,18.2,7.5,18.2,7.6C18.2,7.5,18.2,7.5,18.2,7.6
			C18.2,7.6,18.2,7.6,18.2,7.6z"/>
		<path class="st1" d="M19,7.6C19,7.6,19,7.6,19,7.6c0.1-0.1,0-0.1,0-0.1C18.9,7.5,18.9,7.5,19,7.6C18.9,7.6,18.9,7.6,19,7.6z"/>
		<path class="st1" d="M19.7,7.7c0.1,0,0.1-0.1,0.1-0.1c0-0.1-0.1-0.2-0.1-0.2c-0.1,0-0.1,0.1-0.1,0.2C19.6,7.6,19.6,7.7,19.7,7.7z"
			/>
		<path class="st1" d="M20.5,7.7c0.1,0,0.1-0.1,0.1-0.1c0-0.1-0.1-0.1-0.1-0.1c-0.1,0-0.1,0.1-0.1,0.1C20.3,7.6,20.4,7.7,20.5,7.7z"
			/>
		<path class="st1" d="M21.2,7.7c0.1,0,0.1-0.1,0.1-0.1c0-0.1-0.1-0.1-0.1-0.1c-0.1,0-0.1,0.1-0.1,0.1C21.1,7.6,21.1,7.7,21.2,7.7z"
			/>
		<path class="st1" d="M22,7.7c0.1,0,0.2-0.1,0.2-0.2c0-0.1-0.1-0.2-0.2-0.2c-0.1,0-0.2,0.1-0.2,0.2C21.8,7.6,21.9,7.7,22,7.7z"/>
		<path class="st1" d="M22.7,7.6c0.1,0,0.1,0,0.1-0.1c0-0.1,0-0.1-0.1-0.1c-0.1,0-0.1,0-0.1,0.1C22.6,7.6,22.7,7.6,22.7,7.6z"/>
		<path class="st1" d="M23.5,7.9c0.2,0,0.4-0.2,0.4-0.4c0-0.2-0.2-0.4-0.4-0.4c-0.2,0-0.4,0.2-0.4,0.4C23.1,7.7,23.3,7.9,23.5,7.9z"
			/>
		<path class="st1" d="M24.2,7.6C24.2,7.6,24.3,7.6,24.2,7.6C24.3,7.5,24.2,7.5,24.2,7.6C24.2,7.5,24.2,7.5,24.2,7.6
			C24.2,7.5,24.2,7.6,24.2,7.6z"/>
		<path class="st1" d="M0.1,8.3C0.1,8.3,0.2,8.3,0.1,8.3C0.2,8.3,0.1,8.2,0.1,8.3C0.1,8.2,0.1,8.3,0.1,8.3C0.1,8.3,0.1,8.3,0.1,8.3z
			"/>
		<path class="st1" d="M0.9,8.3C0.9,8.3,0.9,8.3,0.9,8.3C0.9,8.3,0.9,8.2,0.9,8.3C0.9,8.2,0.8,8.3,0.9,8.3C0.8,8.3,0.9,8.3,0.9,8.3z
			"/>
		<path class="st1" d="M1.6,8.4C1.7,8.4,1.7,8.3,1.6,8.4c0.1-0.1,0-0.1,0-0.1C1.6,8.2,1.6,8.3,1.6,8.4C1.6,8.3,1.6,8.4,1.6,8.4z"/>
		<path class="st1" d="M2.4,8.3C2.4,8.3,2.4,8.3,2.4,8.3C2.4,8.3,2.4,8.3,2.4,8.3C2.4,8.3,2.4,8.3,2.4,8.3C2.4,8.3,2.4,8.3,2.4,8.3z
			"/>
		<path class="st1" d="M3.1,8.5c0.1,0,0.2-0.1,0.2-0.2c0-0.1-0.1-0.2-0.2-0.2C3,8.1,2.9,8.2,2.9,8.3C2.9,8.4,3,8.5,3.1,8.5z"/>
		<path class="st1" d="M3.9,8.4c0.1,0,0.1,0,0.1-0.1c0-0.1,0-0.1-0.1-0.1c-0.1,0-0.1,0-0.1,0.1C3.8,8.4,3.8,8.4,3.9,8.4z"/>
		<path class="st1" d="M4.6,8.4c0.1,0,0.1-0.1,0.1-0.1S4.7,8.2,4.6,8.2S4.5,8.2,4.5,8.3S4.6,8.4,4.6,8.4z"/>
		<path class="st1" d="M5.4,8.5c0.1,0,0.2-0.1,0.2-0.2c0-0.1-0.1-0.2-0.2-0.2c-0.1,0-0.2,0.1-0.2,0.2C5.2,8.4,5.3,8.5,5.4,8.5z"/>
		<path class="st1" d="M6.1,8.5c0.1,0,0.2-0.1,0.2-0.2c0-0.1-0.1-0.2-0.2-0.2C6.1,8.1,6,8.2,6,8.3C6,8.4,6.1,8.5,6.1,8.5z"/>
		<path class="st1" d="M6.9,8.5c0.1,0,0.2-0.1,0.2-0.2c0-0.1-0.1-0.2-0.2-0.2c-0.1,0-0.2,0.1-0.2,0.2C6.7,8.4,6.8,8.5,6.9,8.5z"/>
		<path class="st1" d="M7.7,8.4c0.1,0,0.1,0,0.1-0.1c0-0.1,0-0.1-0.1-0.1c-0.1,0-0.1,0.1-0.1,0.1C7.5,8.4,7.6,8.4,7.7,8.4z"/>
		<path class="st1" d="M8.4,8.3C8.4,8.3,8.5,8.3,8.4,8.3C8.5,8.3,8.4,8.2,8.4,8.3C8.4,8.2,8.4,8.3,8.4,8.3C8.4,8.3,8.4,8.3,8.4,8.3z
			"/>
		<path class="st1" d="M9.2,8.3C9.2,8.3,9.2,8.3,9.2,8.3C9.2,8.3,9.2,8.3,9.2,8.3C9.1,8.3,9.1,8.3,9.2,8.3C9.1,8.3,9.1,8.3,9.2,8.3z
			"/>
		<path class="st1" d="M9.9,8.3C9.9,8.3,10,8.3,9.9,8.3C10,8.3,9.9,8.3,9.9,8.3C9.9,8.3,9.9,8.3,9.9,8.3C9.9,8.3,9.9,8.3,9.9,8.3z"
			/>
		<path class="st1" d="M10.7,8.3C10.7,8.3,10.7,8.3,10.7,8.3C10.7,8.3,10.7,8.3,10.7,8.3C10.7,8.3,10.7,8.3,10.7,8.3
			C10.7,8.3,10.7,8.3,10.7,8.3z"/>
		<path class="st1" d="M11.4,8.4C11.5,8.4,11.5,8.3,11.4,8.4c0.1-0.1,0-0.2,0-0.2C11.4,8.2,11.3,8.3,11.4,8.4
			C11.3,8.3,11.4,8.4,11.4,8.4z"/>
		<path class="st1" d="M12.2,8.4C12.2,8.4,12.2,8.3,12.2,8.4c0.1-0.1,0-0.1,0-0.1C12.1,8.2,12.1,8.3,12.2,8.4
			C12.1,8.3,12.1,8.4,12.2,8.4z"/>
		<path class="st1" d="M12.9,8.4c0.1,0,0.1-0.1,0.1-0.1c0-0.1-0.1-0.1-0.1-0.1s-0.1,0.1-0.1,0.1C12.8,8.4,12.8,8.4,12.9,8.4z"/>
		<path class="st1" d="M13.7,8.4c0.1,0,0.1-0.1,0.1-0.1c0-0.1-0.1-0.1-0.1-0.1c-0.1,0-0.1,0.1-0.1,0.1C13.5,8.4,13.6,8.4,13.7,8.4z"
			/>
		<path class="st1" d="M14.4,8.4c0.1,0,0.1-0.1,0.1-0.1c0-0.1-0.1-0.1-0.1-0.1c-0.1,0-0.1,0.1-0.1,0.1C14.3,8.4,14.4,8.4,14.4,8.4z"
			/>
		<path class="st1" d="M15.2,8.4c0.1,0,0.1-0.1,0.1-0.1c0-0.1-0.1-0.1-0.1-0.1c-0.1,0-0.1,0.1-0.1,0.1C15.1,8.4,15.1,8.4,15.2,8.4z"
			/>
		<path class="st1" d="M15.9,8.4c0.1,0,0.1-0.1,0.1-0.1c0-0.1-0.1-0.1-0.1-0.1c-0.1,0-0.1,0.1-0.1,0.1C15.8,8.4,15.9,8.4,15.9,8.4z"
			/>
		<path class="st1" d="M16.7,8.4c0.1,0,0.1-0.1,0.1-0.1c0-0.1-0.1-0.1-0.1-0.1c-0.1,0-0.1,0.1-0.1,0.1C16.6,8.4,16.6,8.4,16.7,8.4z"
			/>
		<path class="st1" d="M17.4,8.4c0.1,0,0.1-0.1,0.1-0.1c0-0.1-0.1-0.1-0.1-0.1c-0.1,0-0.1,0.1-0.1,0.1C17.3,8.4,17.4,8.4,17.4,8.4z"
			/>
		<path class="st1" d="M18.2,8.6c0.2,0,0.3-0.2,0.3-0.3c0-0.2-0.2-0.3-0.3-0.3c-0.2,0-0.3,0.2-0.3,0.3C17.9,8.5,18,8.6,18.2,8.6z"/>
		<path class="st1" d="M19,8.5c0.1,0,0.2-0.1,0.2-0.2c0-0.1-0.1-0.2-0.2-0.2c-0.1,0-0.2,0.1-0.2,0.2C18.7,8.4,18.8,8.5,19,8.5z"/>
		<path class="st1" d="M19.7,8.6c0.2,0,0.3-0.2,0.3-0.3c0-0.2-0.2-0.3-0.3-0.3c-0.2,0-0.3,0.2-0.3,0.3C19.4,8.5,19.5,8.6,19.7,8.6z"
			/>
		<path class="st1" d="M20.5,8.7c0.2,0,0.4-0.2,0.4-0.4c0-0.2-0.2-0.4-0.4-0.4c-0.2,0-0.4,0.2-0.4,0.4C20,8.5,20.2,8.7,20.5,8.7z"/>
		<path class="st1" d="M21.2,8.4c0.1,0,0.1-0.1,0.1-0.1c0-0.1-0.1-0.1-0.1-0.1c-0.1,0-0.1,0.1-0.1,0.1C21.1,8.4,21.1,8.4,21.2,8.4z"
			/>
		<path class="st1" d="M22,8.4C22,8.4,22,8.3,22,8.4c0.1-0.1,0-0.2,0-0.2C21.9,8.2,21.9,8.2,22,8.4C21.9,8.3,21.9,8.4,22,8.4z"/>
		<path class="st1" d="M22.7,8.4c0.1,0,0.1,0,0.1-0.1c0-0.1,0-0.1-0.1-0.1c-0.1,0-0.1,0-0.1,0.1C22.6,8.4,22.7,8.4,22.7,8.4z"/>
		<path class="st1" d="M23.5,8.4c0.1,0,0.1,0,0.1-0.1c0-0.1,0-0.1-0.1-0.1c-0.1,0-0.1,0-0.1,0.1C23.4,8.4,23.4,8.4,23.5,8.4z"/>
		<path class="st1" d="M24.2,8.5c0.1,0,0.2-0.1,0.2-0.2c0-0.1-0.1-0.2-0.2-0.2S24,8.2,24,8.3C24,8.4,24.1,8.5,24.2,8.5z"/>
		<circle class="st1" cx="0.1" cy="9" r="0.1"/>
		<path class="st1" d="M0.9,9.1C0.9,9.1,0.9,9.1,0.9,9.1C0.9,9,0.9,9,0.9,9C0.8,9,0.8,9,0.9,9.1C0.8,9.1,0.8,9.1,0.9,9.1z"/>
		<path class="st1" d="M1.6,9.1C1.7,9.1,1.7,9.1,1.6,9.1C1.7,9,1.7,9,1.6,9C1.6,9,1.5,9,1.6,9.1C1.5,9.1,1.6,9.1,1.6,9.1z"/>
		<path class="st1" d="M2.4,9.1C2.4,9.1,2.5,9.1,2.4,9.1C2.5,9,2.4,9,2.4,9C2.3,9,2.3,9,2.4,9.1C2.3,9.1,2.3,9.1,2.4,9.1z"/>
		<path class="st1" d="M3.1,9.4c0.2,0,0.3-0.1,0.3-0.3S3.3,8.7,3.1,8.7C3,8.7,2.8,8.9,2.8,9S3,9.4,3.1,9.4z"/>
		<path class="st1" d="M3.9,9.2C4,9.2,4.1,9.1,4.1,9C4.1,9,4,8.9,3.9,8.9C3.8,8.9,3.7,9,3.7,9C3.7,9.1,3.8,9.2,3.9,9.2z"/>
		<path class="st1" d="M4.6,9.1C4.7,9.1,4.7,9.1,4.6,9.1C4.7,9,4.7,9,4.6,9C4.6,9,4.6,9,4.6,9.1C4.6,9.1,4.6,9.1,4.6,9.1z"/>
		<path class="st1" d="M5.4,9.1C5.4,9.1,5.5,9.1,5.4,9.1C5.5,9,5.4,9,5.4,9C5.4,9,5.3,9,5.4,9.1C5.3,9.1,5.4,9.1,5.4,9.1z"/>
		<path class="st1" d="M6.1,9.1C6.2,9.1,6.2,9.1,6.1,9.1C6.2,9,6.2,9,6.1,9.1C6.1,9,6.1,9,6.1,9.1C6.1,9.1,6.1,9.1,6.1,9.1z"/>
		<path class="st1" d="M6.9,9.1C6.9,9.1,6.9,9.1,6.9,9.1C6.9,9,6.9,9,6.9,9.1C6.9,9,6.9,9,6.9,9.1C6.9,9.1,6.9,9.1,6.9,9.1z"/>
		<path class="st1" d="M7.7,9.1C7.7,9.1,7.7,9.1,7.7,9.1C7.7,9.1,7.7,9,7.7,9.1C7.6,9,7.6,9,7.7,9.1C7.6,9.1,7.6,9.1,7.7,9.1z"/>
		<path class="st1" d="M8.4,9.1C8.4,9.1,8.4,9.1,8.4,9.1C8.4,9.1,8.4,9,8.4,9.1C8.4,9,8.4,9,8.4,9.1C8.4,9.1,8.4,9.1,8.4,9.1z"/>
		<path class="st1" d="M9.2,9.1C9.2,9.1,9.2,9.1,9.2,9.1C9.2,9.1,9.2,9,9.2,9.1C9.1,9,9.1,9,9.2,9.1C9.1,9.1,9.1,9.1,9.2,9.1z"/>
		<path class="st1" d="M9.9,9.1C9.9,9.1,9.9,9.1,9.9,9.1C9.9,9.1,9.9,9,9.9,9.1C9.9,9,9.9,9,9.9,9.1C9.9,9.1,9.9,9.1,9.9,9.1z"/>
		<path class="st1" d="M10.7,9.1C10.7,9.1,10.7,9.1,10.7,9.1C10.7,9.1,10.7,9,10.7,9.1C10.7,9,10.6,9,10.7,9.1
			C10.6,9.1,10.7,9.1,10.7,9.1z"/>
		<path class="st1" d="M11.4,9.1C11.4,9.1,11.5,9.1,11.4,9.1C11.5,9,11.4,9,11.4,9.1C11.4,9,11.4,9,11.4,9.1
			C11.4,9.1,11.4,9.1,11.4,9.1z"/>
		<path class="st1" d="M12.2,9.1c0.1,0,0.1,0,0.1-0.1c0-0.1,0-0.1-0.1-0.1c-0.1,0-0.1,0-0.1,0.1C12.1,9.1,12.1,9.1,12.2,9.1z"/>
		<path class="st1" d="M12.9,9.2C13,9.2,13,9.1,13,9s0-0.1-0.1-0.1S12.8,9,12.8,9S12.9,9.2,12.9,9.2z"/>
		<circle class="st1" cx="13.7" cy="9" r="0.1"/>
		<path class="st1" d="M14.4,9.2c0.1,0,0.1,0,0.1-0.1c0-0.1,0-0.1-0.1-0.1c-0.1,0-0.1,0-0.1,0.1C14.3,9.1,14.4,9.2,14.4,9.2z"/>
		<path class="st1" d="M15.2,9.2c0.1,0,0.1-0.1,0.1-0.1s-0.1-0.1-0.1-0.1c-0.1,0-0.1,0.1-0.1,0.1S15.1,9.2,15.2,9.2z"/>
		<path class="st1" d="M15.9,9.3c0.1,0,0.2-0.1,0.2-0.2c0-0.1-0.1-0.2-0.2-0.2c-0.1,0-0.2,0.1-0.2,0.2C15.7,9.2,15.8,9.3,15.9,9.3z"
			/>
		<path class="st1" d="M16.7,9.2c0.1,0,0.1-0.1,0.1-0.1s-0.1-0.1-0.1-0.1c-0.1,0-0.1,0.1-0.1,0.1S16.6,9.2,16.7,9.2z"/>
		<path class="st1" d="M17.4,9.1C17.5,9.1,17.5,9.1,17.4,9.1c0.1-0.1,0-0.1,0-0.1C17.4,9,17.4,9,17.4,9.1
			C17.4,9.1,17.4,9.1,17.4,9.1z"/>
		<path class="st1" d="M18.2,9.1C18.2,9.1,18.3,9.1,18.2,9.1c0.1-0.1,0-0.1,0-0.1S18.1,9,18.2,9.1C18.1,9.1,18.2,9.1,18.2,9.1z"/>
		<path class="st1" d="M19,9.1C19,9.1,19,9.1,19,9.1C19,9,19,9,19,9C18.9,9,18.9,9,19,9.1C18.9,9.1,18.9,9.1,19,9.1z"/>
		<path class="st1" d="M19.7,9.1C19.7,9.1,19.7,9.1,19.7,9.1C19.7,9,19.7,9,19.7,9.1C19.7,9,19.7,9,19.7,9.1
			C19.7,9.1,19.7,9.1,19.7,9.1z"/>
		<path class="st1" d="M20.5,9.1C20.5,9.1,20.5,9.1,20.5,9.1C20.5,9,20.5,9,20.5,9.1C20.4,9,20.4,9,20.5,9.1
			C20.4,9.1,20.4,9.1,20.5,9.1z"/>
		<path class="st1" d="M21.2,9.1C21.2,9.1,21.3,9.1,21.2,9.1C21.3,9,21.2,9,21.2,9.1C21.2,9,21.2,9,21.2,9.1
			C21.2,9.1,21.2,9.1,21.2,9.1z"/>
		<path class="st1" d="M22,9.1C22,9.1,22,9.1,22,9.1C22,9,22,9,22,9C21.9,9,21.9,9,22,9.1C21.9,9.1,21.9,9.1,22,9.1z"/>
		<path class="st1" d="M22.7,9.2c0.1,0,0.1-0.1,0.1-0.1c0-0.1-0.1-0.1-0.1-0.1c-0.1,0-0.1,0.1-0.1,0.1C22.6,9.1,22.7,9.2,22.7,9.2z"
			/>
		<path class="st1" d="M23.5,9.2c0.1,0,0.1-0.1,0.1-0.1c0-0.1-0.1-0.1-0.1-0.1c-0.1,0-0.1,0.1-0.1,0.1C23.4,9.1,23.4,9.2,23.5,9.2z"
			/>
		<circle class="st1" cx="24.2" cy="9" r="0.2"/>
		<path class="st1" d="M3.9,9.8C3.9,9.8,3.9,9.8,3.9,9.8C3.9,9.8,3.9,9.8,3.9,9.8C3.9,9.8,3.9,9.8,3.9,9.8C3.9,9.8,3.9,9.8,3.9,9.8z
			"/>
		<path class="st1" d="M4.6,9.8C4.7,9.8,4.7,9.8,4.6,9.8C4.7,9.8,4.7,9.8,4.6,9.8C4.6,9.8,4.6,9.8,4.6,9.8C4.6,9.8,4.6,9.8,4.6,9.8z
			"/>
		<path class="st1" d="M5.4,9.8C5.4,9.8,5.4,9.8,5.4,9.8C5.4,9.8,5.4,9.8,5.4,9.8C5.4,9.8,5.4,9.8,5.4,9.8C5.4,9.8,5.4,9.8,5.4,9.8z
			"/>
		<path class="st1" d="M6.1,9.8C6.2,9.8,6.2,9.8,6.1,9.8C6.2,9.8,6.2,9.8,6.1,9.8C6.1,9.8,6.1,9.8,6.1,9.8C6.1,9.8,6.1,9.8,6.1,9.8z
			"/>
		<path class="st1" d="M6.9,9.8C6.9,9.8,6.9,9.8,6.9,9.8C6.9,9.8,6.9,9.8,6.9,9.8C6.9,9.8,6.9,9.8,6.9,9.8C6.9,9.8,6.9,9.8,6.9,9.8z
			"/>
		<path class="st1" d="M7.7,9.8C7.7,9.8,7.7,9.8,7.7,9.8C7.7,9.8,7.7,9.8,7.7,9.8C7.6,9.8,7.6,9.8,7.7,9.8C7.6,9.8,7.6,9.8,7.7,9.8z
			"/>
		<path class="st1" d="M8.4,9.8C8.4,9.8,8.4,9.8,8.4,9.8C8.4,9.8,8.4,9.8,8.4,9.8C8.4,9.8,8.4,9.8,8.4,9.8C8.4,9.8,8.4,9.8,8.4,9.8z
			"/>
		<path class="st1" d="M9.2,9.8C9.2,9.8,9.2,9.8,9.2,9.8C9.2,9.8,9.2,9.8,9.2,9.8C9.2,9.8,9.1,9.8,9.2,9.8C9.1,9.8,9.2,9.8,9.2,9.8z
			"/>
		<path class="st1" d="M9.9,9.8C9.9,9.8,9.9,9.8,9.9,9.8C9.9,9.8,9.9,9.8,9.9,9.8C9.9,9.8,9.9,9.8,9.9,9.8C9.9,9.8,9.9,9.8,9.9,9.8z
			"/>
		<path class="st1" d="M10.7,9.8C10.7,9.8,10.7,9.8,10.7,9.8C10.7,9.8,10.7,9.8,10.7,9.8C10.7,9.8,10.7,9.8,10.7,9.8
			C10.7,9.8,10.7,9.8,10.7,9.8z"/>
		<path class="st1" d="M11.4,9.8C11.4,9.8,11.4,9.8,11.4,9.8C11.4,9.8,11.4,9.8,11.4,9.8C11.4,9.8,11.4,9.8,11.4,9.8
			C11.4,9.8,11.4,9.8,11.4,9.8z"/>
		<path class="st1" d="M12.2,9.8C12.2,9.8,12.2,9.8,12.2,9.8C12.2,9.8,12.2,9.8,12.2,9.8C12.2,9.8,12.1,9.8,12.2,9.8
			C12.1,9.8,12.2,9.8,12.2,9.8z"/>
		<path class="st1" d="M12.9,9.9C13,9.9,13,9.8,12.9,9.9C13,9.8,13,9.8,12.9,9.9C12.9,9.8,12.9,9.8,12.9,9.9
			C12.9,9.8,12.9,9.9,12.9,9.9z"/>
		<path class="st1" d="M13.7,9.9C13.7,9.9,13.7,9.8,13.7,9.9c0.1-0.1,0-0.1,0-0.1C13.6,9.7,13.6,9.8,13.7,9.9
			C13.6,9.8,13.6,9.9,13.7,9.9z"/>
		<path class="st1" d="M14.4,9.9C14.5,9.9,14.5,9.8,14.4,9.9c0.1-0.1,0-0.1,0-0.1C14.4,9.7,14.4,9.8,14.4,9.9
			C14.4,9.8,14.4,9.9,14.4,9.9z"/>
		<path class="st1" d="M15.2,10c0.1,0,0.2-0.1,0.2-0.2c0-0.1-0.1-0.2-0.2-0.2c-0.1,0-0.2,0.1-0.2,0.2C15,9.9,15.1,10,15.2,10z"/>
		<path class="st1" d="M15.9,9.8C16,9.8,16,9.8,15.9,9.8C16,9.8,16,9.8,15.9,9.8C15.9,9.8,15.9,9.8,15.9,9.8
			C15.9,9.8,15.9,9.8,15.9,9.8z"/>
		<path class="st1" d="M16.7,9.8C16.7,9.8,16.7,9.8,16.7,9.8C16.7,9.8,16.7,9.8,16.7,9.8C16.7,9.8,16.7,9.8,16.7,9.8
			C16.7,9.8,16.7,9.8,16.7,9.8z"/>
		<path class="st1" d="M17.4,9.9C17.5,9.9,17.5,9.8,17.4,9.9C17.5,9.8,17.5,9.8,17.4,9.9C17.4,9.8,17.4,9.8,17.4,9.9
			C17.4,9.8,17.4,9.9,17.4,9.9z"/>
		<path class="st1" d="M18.2,9.9C18.2,9.9,18.3,9.9,18.2,9.9c0.1-0.1,0.1-0.2,0-0.2C18.1,9.7,18.1,9.8,18.2,9.9
			C18.1,9.9,18.1,9.9,18.2,9.9z"/>
		<path class="st1" d="M19,9.8C19,9.8,19,9.8,19,9.8C19,9.8,19,9.8,19,9.8C18.9,9.8,18.9,9.8,19,9.8C18.9,9.8,18.9,9.8,19,9.8z"/>
		<path class="st1" d="M19.7,9.8C19.7,9.8,19.7,9.8,19.7,9.8C19.7,9.8,19.7,9.8,19.7,9.8C19.7,9.8,19.7,9.8,19.7,9.8
			C19.7,9.8,19.7,9.8,19.7,9.8z"/>
		<path class="st1" d="M20.5,9.8C20.5,9.8,20.5,9.8,20.5,9.8C20.5,9.8,20.5,9.8,20.5,9.8C20.4,9.8,20.4,9.8,20.5,9.8
			C20.4,9.8,20.4,9.8,20.5,9.8z"/>
		<path class="st1" d="M21.2,9.8C21.2,9.8,21.2,9.8,21.2,9.8C21.2,9.8,21.2,9.8,21.2,9.8C21.2,9.8,21.2,9.8,21.2,9.8
			C21.2,9.8,21.2,9.8,21.2,9.8z"/>
		<path class="st1" d="M22,9.8C22,9.8,22,9.8,22,9.8C22,9.8,22,9.8,22,9.8C22,9.8,21.9,9.8,22,9.8C21.9,9.8,22,9.8,22,9.8z"/>
		<path class="st1" d="M22.7,9.8C22.7,9.8,22.8,9.8,22.7,9.8C22.8,9.8,22.7,9.8,22.7,9.8C22.7,9.8,22.7,9.8,22.7,9.8
			C22.7,9.8,22.7,9.8,22.7,9.8z"/>
		<path class="st1" d="M23.5,9.9C23.5,9.9,23.5,9.8,23.5,9.9c0.1-0.1,0-0.1,0-0.1S23.4,9.8,23.5,9.9C23.4,9.8,23.4,9.9,23.5,9.9z"/>
		<path class="st1" d="M24.2,9.9C24.3,9.9,24.3,9.9,24.2,9.9c0.1-0.1,0-0.2,0-0.2S24.1,9.8,24.2,9.9C24.1,9.9,24.2,9.9,24.2,9.9z"/>
		<path class="st1" d="M3.9,10.6C3.9,10.6,3.9,10.6,3.9,10.6C3.9,10.6,3.9,10.5,3.9,10.6C3.9,10.5,3.9,10.5,3.9,10.6
			C3.9,10.6,3.9,10.6,3.9,10.6z"/>
		<path class="st1" d="M4.6,10.6C4.7,10.6,4.7,10.6,4.6,10.6C4.7,10.5,4.7,10.5,4.6,10.6C4.6,10.5,4.6,10.5,4.6,10.6
			C4.6,10.6,4.6,10.6,4.6,10.6z"/>
		<path class="st1" d="M5.4,10.6C5.4,10.6,5.4,10.6,5.4,10.6C5.4,10.6,5.4,10.5,5.4,10.6C5.4,10.5,5.4,10.5,5.4,10.6
			C5.4,10.6,5.4,10.6,5.4,10.6z"/>
		<path class="st1" d="M6.1,10.6C6.2,10.6,6.2,10.6,6.1,10.6C6.2,10.6,6.2,10.5,6.1,10.6C6.1,10.5,6.1,10.5,6.1,10.6
			C6.1,10.6,6.1,10.6,6.1,10.6z"/>
		<path class="st1" d="M6.9,10.6C6.9,10.6,6.9,10.6,6.9,10.6C6.9,10.6,6.9,10.5,6.9,10.6C6.9,10.5,6.9,10.5,6.9,10.6
			C6.9,10.6,6.9,10.6,6.9,10.6z"/>
		<path class="st1" d="M7.7,10.6C7.7,10.6,7.7,10.6,7.7,10.6C7.7,10.6,7.7,10.5,7.7,10.6C7.6,10.5,7.6,10.6,7.7,10.6
			C7.6,10.6,7.6,10.6,7.7,10.6z"/>
		<path class="st1" d="M8.4,10.6C8.4,10.6,8.4,10.6,8.4,10.6C8.4,10.6,8.4,10.5,8.4,10.6C8.4,10.5,8.4,10.5,8.4,10.6
			C8.4,10.6,8.4,10.6,8.4,10.6z"/>
		<path class="st1" d="M9.2,10.6C9.2,10.6,9.2,10.6,9.2,10.6C9.2,10.6,9.2,10.5,9.2,10.6C9.2,10.5,9.1,10.5,9.2,10.6
			C9.1,10.6,9.2,10.6,9.2,10.6z"/>
		<path class="st1" d="M9.9,10.6C9.9,10.6,9.9,10.6,9.9,10.6C9.9,10.6,9.9,10.5,9.9,10.6C9.9,10.5,9.9,10.5,9.9,10.6
			C9.9,10.6,9.9,10.6,9.9,10.6z"/>
		<path class="st1" d="M10.7,10.6C10.7,10.6,10.7,10.6,10.7,10.6C10.7,10.6,10.7,10.5,10.7,10.6C10.7,10.5,10.7,10.5,10.7,10.6
			C10.7,10.6,10.7,10.6,10.7,10.6z"/>
		<path class="st1" d="M11.4,10.6C11.4,10.6,11.4,10.6,11.4,10.6C11.4,10.6,11.4,10.5,11.4,10.6C11.4,10.5,11.4,10.5,11.4,10.6
			C11.4,10.6,11.4,10.6,11.4,10.6z"/>
		<path class="st1" d="M12.2,10.6C12.2,10.6,12.2,10.6,12.2,10.6C12.2,10.6,12.2,10.5,12.2,10.6C12.2,10.5,12.2,10.5,12.2,10.6
			C12.2,10.6,12.2,10.6,12.2,10.6z"/>
		<path class="st1" d="M12.9,10.6C13,10.6,13,10.6,12.9,10.6C13,10.5,13,10.5,12.9,10.6C12.9,10.5,12.9,10.5,12.9,10.6
			C12.9,10.6,12.9,10.6,12.9,10.6z"/>
		<path class="st1" d="M13.7,10.6C13.7,10.6,13.7,10.6,13.7,10.6c0.1-0.1,0-0.1,0-0.1C13.6,10.5,13.6,10.5,13.7,10.6
			C13.6,10.6,13.6,10.6,13.7,10.6z"/>
		<path class="st1" d="M14.4,10.6C14.5,10.6,14.5,10.6,14.4,10.6C14.5,10.5,14.5,10.5,14.4,10.6C14.4,10.5,14.4,10.5,14.4,10.6
			C14.4,10.6,14.4,10.6,14.4,10.6z"/>
		<path class="st1" d="M15.2,10.6C15.2,10.6,15.2,10.6,15.2,10.6C15.2,10.6,15.2,10.5,15.2,10.6C15.2,10.5,15.2,10.5,15.2,10.6
			C15.2,10.6,15.2,10.6,15.2,10.6z"/>
		<path class="st1" d="M15.9,10.6C16,10.6,16,10.6,15.9,10.6C16,10.5,16,10.5,15.9,10.6C15.9,10.5,15.9,10.5,15.9,10.6
			C15.9,10.6,15.9,10.6,15.9,10.6z"/>
		<path class="st1" d="M16.7,10.6C16.7,10.6,16.7,10.6,16.7,10.6C16.7,10.5,16.7,10.5,16.7,10.6C16.7,10.5,16.6,10.5,16.7,10.6
			C16.6,10.6,16.7,10.6,16.7,10.6z"/>
		<path class="st1" d="M17.4,10.6C17.5,10.6,17.5,10.6,17.4,10.6C17.5,10.5,17.5,10.5,17.4,10.6C17.4,10.5,17.4,10.5,17.4,10.6
			C17.4,10.6,17.4,10.6,17.4,10.6z"/>
		<path class="st1" d="M18.2,10.6C18.2,10.6,18.2,10.6,18.2,10.6C18.2,10.5,18.2,10.5,18.2,10.6C18.2,10.5,18.2,10.5,18.2,10.6
			C18.2,10.6,18.2,10.6,18.2,10.6z"/>
		<path class="st1" d="M19,10.6C19,10.6,19,10.6,19,10.6C19,10.5,19,10.5,19,10.6C18.9,10.5,18.9,10.5,19,10.6
			C18.9,10.6,18.9,10.6,19,10.6z"/>
		<path class="st1" d="M19.7,10.6C19.7,10.6,19.7,10.6,19.7,10.6C19.7,10.5,19.7,10.5,19.7,10.6C19.7,10.5,19.7,10.5,19.7,10.6
			C19.7,10.6,19.7,10.6,19.7,10.6z"/>
		<path class="st1" d="M20.5,10.6C20.5,10.6,20.5,10.6,20.5,10.6C20.5,10.6,20.5,10.5,20.5,10.6C20.4,10.5,20.4,10.5,20.5,10.6
			C20.4,10.6,20.4,10.6,20.5,10.6z"/>
		<path class="st1" d="M21.2,10.6C21.2,10.6,21.2,10.6,21.2,10.6C21.2,10.6,21.2,10.5,21.2,10.6C21.2,10.5,21.2,10.5,21.2,10.6
			C21.2,10.6,21.2,10.6,21.2,10.6z"/>
		<path class="st1" d="M22,10.6C22,10.6,22,10.6,22,10.6C22,10.6,22,10.5,22,10.6C22,10.5,21.9,10.5,22,10.6
			C21.9,10.6,22,10.6,22,10.6z"/>
		<path class="st1" d="M22.7,10.6C22.7,10.6,22.7,10.6,22.7,10.6C22.7,10.6,22.7,10.5,22.7,10.6C22.7,10.5,22.7,10.5,22.7,10.6
			C22.7,10.6,22.7,10.6,22.7,10.6z"/>
		<path class="st1" d="M23.5,10.6C23.5,10.6,23.5,10.6,23.5,10.6C23.5,10.5,23.5,10.5,23.5,10.6C23.5,10.5,23.4,10.5,23.5,10.6
			C23.4,10.6,23.5,10.6,23.5,10.6z"/>
		<circle class="st1" cx="24.2" cy="10.6" r="0"/>
		<path class="st1" d="M3.9,11.3C3.9,11.3,3.9,11.3,3.9,11.3C3.9,11.3,3.9,11.3,3.9,11.3C3.9,11.3,3.9,11.3,3.9,11.3
			C3.9,11.3,3.9,11.3,3.9,11.3z"/>
		<circle class="st1" cx="4.6" cy="11.3" r="0.1"/>
		<path class="st1" d="M5.4,11.3C5.4,11.3,5.4,11.3,5.4,11.3C5.4,11.3,5.4,11.3,5.4,11.3C5.4,11.3,5.4,11.3,5.4,11.3
			C5.4,11.3,5.4,11.3,5.4,11.3z"/>
		<path class="st1" d="M6.1,11.3C6.2,11.3,6.2,11.3,6.1,11.3C6.2,11.3,6.2,11.3,6.1,11.3C6.1,11.3,6.1,11.3,6.1,11.3
			C6.1,11.3,6.1,11.3,6.1,11.3z"/>
		<path class="st1" d="M6.9,11.3C6.9,11.3,6.9,11.3,6.9,11.3C6.9,11.3,6.9,11.3,6.9,11.3C6.9,11.3,6.9,11.3,6.9,11.3
			C6.9,11.3,6.9,11.3,6.9,11.3z"/>
		<path class="st1" d="M7.7,11.3C7.7,11.3,7.7,11.3,7.7,11.3C7.7,11.3,7.7,11.3,7.7,11.3C7.6,11.3,7.6,11.3,7.7,11.3
			C7.6,11.3,7.6,11.3,7.7,11.3z"/>
		<path class="st1" d="M8.4,11.3C8.4,11.3,8.4,11.3,8.4,11.3C8.4,11.3,8.4,11.3,8.4,11.3C8.4,11.3,8.4,11.3,8.4,11.3
			C8.4,11.3,8.4,11.3,8.4,11.3z"/>
		<path class="st1" d="M9.2,11.3C9.2,11.3,9.2,11.3,9.2,11.3C9.2,11.3,9.2,11.3,9.2,11.3C9.2,11.3,9.2,11.3,9.2,11.3
			C9.2,11.3,9.2,11.3,9.2,11.3z"/>
		<path class="st1" d="M9.9,11.3C9.9,11.3,9.9,11.3,9.9,11.3C9.9,11.3,9.9,11.3,9.9,11.3C9.9,11.3,9.9,11.3,9.9,11.3
			C9.9,11.3,9.9,11.3,9.9,11.3z"/>
		<path class="st1" d="M10.7,11.3C10.7,11.3,10.7,11.3,10.7,11.3C10.7,11.3,10.7,11.3,10.7,11.3C10.7,11.3,10.7,11.3,10.7,11.3
			C10.7,11.3,10.7,11.3,10.7,11.3z"/>
		<path class="st1" d="M11.4,11.3C11.4,11.3,11.4,11.3,11.4,11.3C11.4,11.3,11.4,11.3,11.4,11.3C11.4,11.3,11.4,11.3,11.4,11.3
			C11.4,11.3,11.4,11.3,11.4,11.3z"/>
		<path class="st1" d="M12.2,11.3C12.2,11.3,12.2,11.3,12.2,11.3C12.2,11.3,12.2,11.3,12.2,11.3C12.2,11.3,12.2,11.3,12.2,11.3
			C12.2,11.3,12.2,11.3,12.2,11.3z"/>
		<path class="st1" d="M12.9,11.3C12.9,11.3,13,11.3,12.9,11.3C13,11.3,12.9,11.3,12.9,11.3C12.9,11.3,12.9,11.3,12.9,11.3
			C12.9,11.3,12.9,11.3,12.9,11.3z"/>
		<path class="st1" d="M13.7,11.3C13.7,11.3,13.7,11.3,13.7,11.3C13.7,11.3,13.7,11.3,13.7,11.3C13.7,11.3,13.6,11.3,13.7,11.3
			C13.6,11.3,13.7,11.3,13.7,11.3z"/>
		<path class="st1" d="M14.4,11.3C14.4,11.3,14.5,11.3,14.4,11.3C14.5,11.3,14.4,11.3,14.4,11.3C14.4,11.3,14.4,11.3,14.4,11.3
			C14.4,11.3,14.4,11.3,14.4,11.3z"/>
		<path class="st1" d="M15.2,11.3C15.2,11.3,15.2,11.3,15.2,11.3C15.2,11.3,15.2,11.3,15.2,11.3C15.2,11.3,15.2,11.3,15.2,11.3
			C15.2,11.3,15.2,11.3,15.2,11.3z"/>
		<path class="st1" d="M15.9,11.3C16,11.3,16,11.3,15.9,11.3C16,11.3,16,11.3,15.9,11.3C15.9,11.3,15.9,11.3,15.9,11.3
			C15.9,11.3,15.9,11.3,15.9,11.3z"/>
		<path class="st1" d="M16.7,11.4C16.7,11.4,16.7,11.3,16.7,11.4C16.7,11.3,16.7,11.3,16.7,11.4C16.7,11.3,16.6,11.3,16.7,11.4
			C16.6,11.3,16.7,11.4,16.7,11.4z"/>
		<path class="st1" d="M17.4,11.3C17.5,11.3,17.5,11.3,17.4,11.3C17.5,11.3,17.5,11.3,17.4,11.3C17.4,11.3,17.4,11.3,17.4,11.3
			C17.4,11.3,17.4,11.3,17.4,11.3z"/>
		<path class="st1" d="M18.2,11.4C18.2,11.4,18.2,11.3,18.2,11.4C18.2,11.3,18.2,11.3,18.2,11.4C18.2,11.3,18.2,11.3,18.2,11.4
			C18.2,11.3,18.2,11.4,18.2,11.4z"/>
		<path class="st1" d="M19,11.3C19,11.3,19,11.3,19,11.3C19,11.3,19,11.3,19,11.3C18.9,11.3,18.9,11.3,19,11.3
			C18.9,11.3,18.9,11.3,19,11.3z"/>
		<path class="st1" d="M19.7,11.3C19.7,11.3,19.7,11.3,19.7,11.3C19.7,11.3,19.7,11.3,19.7,11.3C19.7,11.3,19.7,11.3,19.7,11.3
			C19.7,11.3,19.7,11.3,19.7,11.3z"/>
		<path class="st1" d="M20.5,11.3C20.5,11.3,20.5,11.3,20.5,11.3C20.5,11.3,20.5,11.3,20.5,11.3C20.4,11.3,20.4,11.3,20.5,11.3
			C20.4,11.3,20.4,11.3,20.5,11.3z"/>
		<path class="st1" d="M21.2,11.3C21.2,11.3,21.2,11.3,21.2,11.3C21.2,11.3,21.2,11.3,21.2,11.3C21.2,11.3,21.2,11.3,21.2,11.3
			C21.2,11.3,21.2,11.3,21.2,11.3z"/>
		<path class="st1" d="M22,11.3C22,11.3,22,11.3,22,11.3C22,11.3,22,11.3,22,11.3C22,11.3,21.9,11.3,22,11.3
			C21.9,11.3,22,11.3,22,11.3z"/>
		<path class="st1" d="M22.7,11.3C22.7,11.3,22.7,11.3,22.7,11.3C22.7,11.3,22.7,11.3,22.7,11.3C22.7,11.3,22.7,11.3,22.7,11.3
			C22.7,11.3,22.7,11.3,22.7,11.3z"/>
		<path class="st1" d="M23.5,11.3C23.5,11.3,23.5,11.3,23.5,11.3C23.5,11.3,23.5,11.3,23.5,11.3C23.5,11.3,23.5,11.3,23.5,11.3
			C23.5,11.3,23.5,11.3,23.5,11.3z"/>
		<path class="st1" d="M24.2,11.3C24.2,11.3,24.3,11.3,24.2,11.3C24.3,11.3,24.2,11.3,24.2,11.3C24.2,11.3,24.2,11.3,24.2,11.3
			C24.2,11.3,24.2,11.3,24.2,11.3z"/>
		<path class="st1" d="M3.9,12.1C3.9,12.1,3.9,12.1,3.9,12.1C3.9,12.1,3.9,12,3.9,12.1C3.9,12,3.9,12,3.9,12.1
			C3.9,12.1,3.9,12.1,3.9,12.1z"/>
		<path class="st1" d="M4.6,12.1C4.6,12.1,4.7,12.1,4.6,12.1C4.7,12.1,4.6,12,4.6,12.1C4.6,12,4.6,12.1,4.6,12.1
			C4.6,12.1,4.6,12.1,4.6,12.1z"/>
		<path class="st1" d="M5.4,12.1C5.4,12.1,5.4,12.1,5.4,12.1C5.4,12.1,5.4,12,5.4,12.1C5.4,12,5.4,12,5.4,12.1
			C5.4,12.1,5.4,12.1,5.4,12.1z"/>
		<path class="st1" d="M6.1,12.1C6.2,12.1,6.2,12.1,6.1,12.1C6.2,12.1,6.2,12,6.1,12.1C6.1,12,6.1,12.1,6.1,12.1
			C6.1,12.1,6.1,12.1,6.1,12.1z"/>
		<path class="st1" d="M6.9,12.1C6.9,12.1,6.9,12.1,6.9,12.1C6.9,12.1,6.9,12,6.9,12.1C6.9,12,6.9,12.1,6.9,12.1
			C6.9,12.1,6.9,12.1,6.9,12.1z"/>
		<path class="st1" d="M7.7,12.1C7.7,12.1,7.7,12.1,7.7,12.1C7.7,12.1,7.7,12,7.7,12.1C7.6,12,7.6,12.1,7.7,12.1
			C7.6,12.1,7.6,12.1,7.7,12.1z"/>
		<path class="st1" d="M8.4,12.1C8.4,12.1,8.4,12.1,8.4,12.1C8.4,12.1,8.4,12.1,8.4,12.1C8.4,12.1,8.4,12.1,8.4,12.1
			C8.4,12.1,8.4,12.1,8.4,12.1z"/>
		<path class="st1" d="M9.2,12.1C9.2,12.1,9.2,12.1,9.2,12.1C9.2,12.1,9.2,12.1,9.2,12.1C9.2,12.1,9.2,12.1,9.2,12.1
			C9.2,12.1,9.2,12.1,9.2,12.1z"/>
		<path class="st1" d="M9.9,12.1C9.9,12.1,9.9,12.1,9.9,12.1C9.9,12.1,9.9,12,9.9,12.1C9.9,12,9.9,12.1,9.9,12.1
			C9.9,12.1,9.9,12.1,9.9,12.1z"/>
		<path class="st1" d="M10.7,12.1C10.7,12.1,10.7,12.1,10.7,12.1C10.7,12.1,10.7,12,10.7,12.1C10.7,12,10.7,12,10.7,12.1
			C10.7,12.1,10.7,12.1,10.7,12.1z"/>
		<path class="st1" d="M11.4,12.1C11.4,12.1,11.4,12.1,11.4,12.1C11.4,12.1,11.4,12,11.4,12.1C11.4,12,11.4,12,11.4,12.1
			C11.4,12.1,11.4,12.1,11.4,12.1z"/>
		<path class="st1" d="M12.2,12.1C12.2,12.1,12.2,12.1,12.2,12.1C12.2,12.1,12.2,12,12.2,12.1C12.2,12,12.1,12,12.2,12.1
			C12.1,12.1,12.2,12.1,12.2,12.1z"/>
		<path class="st1" d="M12.9,12.1C13,12.1,13,12.1,12.9,12.1C13,12,13,12,12.9,12.1C12.9,12,12.9,12,12.9,12.1
			C12.9,12.1,12.9,12.1,12.9,12.1z"/>
		<path class="st1" d="M13.7,12.1C13.7,12.1,13.7,12.1,13.7,12.1C13.7,12,13.7,12,13.7,12.1C13.7,12,13.6,12,13.7,12.1
			C13.6,12.1,13.7,12.1,13.7,12.1z"/>
		<path class="st1" d="M14.4,12.1C14.4,12.1,14.5,12.1,14.4,12.1C14.5,12.1,14.4,12,14.4,12.1C14.4,12,14.4,12,14.4,12.1
			C14.4,12.1,14.4,12.1,14.4,12.1z"/>
		<path class="st1" d="M15.2,12.1C15.2,12.1,15.2,12.1,15.2,12.1C15.2,12,15.2,12,15.2,12.1C15.2,12,15.2,12,15.2,12.1
			C15.2,12.1,15.2,12.1,15.2,12.1z"/>
		<path class="st1" d="M15.9,12.1C16,12.1,16,12.1,15.9,12.1C16,12,16,12,15.9,12.1C15.9,12,15.9,12,15.9,12.1
			C15.9,12.1,15.9,12.1,15.9,12.1z"/>
		<path class="st1" d="M16.7,12.1C16.7,12.1,16.7,12.1,16.7,12.1C16.7,12,16.7,12,16.7,12.1C16.7,12,16.7,12,16.7,12.1
			C16.7,12.1,16.7,12.1,16.7,12.1z"/>
		<path class="st1" d="M17.4,12.1C17.5,12.1,17.5,12.1,17.4,12.1C17.5,12.1,17.5,12,17.4,12.1C17.4,12,17.4,12,17.4,12.1
			C17.4,12.1,17.4,12.1,17.4,12.1z"/>
		<path class="st1" d="M18.2,12.1C18.2,12.1,18.2,12.1,18.2,12.1C18.2,12.1,18.2,12,18.2,12.1C18.2,12,18.2,12.1,18.2,12.1
			C18.2,12.1,18.2,12.1,18.2,12.1z"/>
		<path class="st1" d="M19,12.1C19,12.1,19,12.1,19,12.1C19,12.1,19,12.1,19,12.1C18.9,12.1,18.9,12.1,19,12.1
			C18.9,12.1,18.9,12.1,19,12.1z"/>
		<path class="st1" d="M19.7,12.1C19.7,12.1,19.7,12.1,19.7,12.1C19.7,12.1,19.7,12,19.7,12.1C19.7,12,19.7,12.1,19.7,12.1
			C19.7,12.1,19.7,12.1,19.7,12.1z"/>
		<path class="st1" d="M20.5,12.1C20.5,12.1,20.5,12.1,20.5,12.1C20.5,12.1,20.5,12,20.5,12.1C20.5,12,20.4,12.1,20.5,12.1
			C20.4,12.1,20.5,12.1,20.5,12.1z"/>
		<path class="st1" d="M21.2,12.1C21.2,12.1,21.2,12.1,21.2,12.1C21.2,12.1,21.2,12,21.2,12.1C21.2,12,21.2,12,21.2,12.1
			C21.2,12.1,21.2,12.1,21.2,12.1z"/>
		<path class="st1" d="M22,12.1C22,12.1,22,12.1,22,12.1C22,12.1,22,12,22,12.1C22,12,21.9,12,22,12.1C21.9,12.1,22,12.1,22,12.1z"
			/>
		<path class="st1" d="M22.7,12.1C22.7,12.1,22.7,12.1,22.7,12.1C22.7,12.1,22.7,12,22.7,12.1C22.7,12,22.7,12,22.7,12.1
			C22.7,12.1,22.7,12.1,22.7,12.1z"/>
		<path class="st1" d="M23.5,12.1C23.5,12.1,23.5,12.1,23.5,12.1C23.5,12.1,23.5,12,23.5,12.1C23.5,12,23.4,12,23.5,12.1
			C23.4,12.1,23.5,12.1,23.5,12.1z"/>
		<path class="st1" d="M24.2,12.1C24.2,12.1,24.2,12.1,24.2,12.1C24.2,12.1,24.2,12,24.2,12.1C24.2,12,24.2,12,24.2,12.1
			C24.2,12.1,24.2,12.1,24.2,12.1z"/>
		<path class="st1" d="M3.9,12.8C3.9,12.8,3.9,12.8,3.9,12.8C3.9,12.8,3.9,12.8,3.9,12.8C3.9,12.8,3.9,12.8,3.9,12.8
			C3.9,12.8,3.9,12.8,3.9,12.8z"/>
		<path class="st1" d="M4.6,12.8C4.6,12.8,4.7,12.8,4.6,12.8C4.7,12.8,4.6,12.8,4.6,12.8C4.6,12.8,4.6,12.8,4.6,12.8
			C4.6,12.8,4.6,12.8,4.6,12.8z"/>
		<path class="st1" d="M5.4,12.8C5.4,12.8,5.4,12.8,5.4,12.8C5.4,12.8,5.4,12.8,5.4,12.8C5.4,12.8,5.4,12.8,5.4,12.8
			C5.4,12.8,5.4,12.8,5.4,12.8z"/>
		<path class="st1" d="M6.1,12.8C6.2,12.8,6.2,12.8,6.1,12.8C6.2,12.8,6.2,12.8,6.1,12.8C6.1,12.8,6.1,12.8,6.1,12.8
			C6.1,12.8,6.1,12.8,6.1,12.8z"/>
		<path class="st1" d="M6.9,12.8C6.9,12.8,6.9,12.8,6.9,12.8C6.9,12.8,6.9,12.8,6.9,12.8C6.9,12.8,6.9,12.8,6.9,12.8
			C6.9,12.8,6.9,12.8,6.9,12.8z"/>
		<path class="st1" d="M7.7,12.8C7.7,12.8,7.7,12.8,7.7,12.8C7.7,12.8,7.7,12.8,7.7,12.8C7.6,12.8,7.6,12.8,7.7,12.8
			C7.6,12.8,7.6,12.8,7.7,12.8z"/>
		<path class="st1" d="M8.4,12.8C8.4,12.8,8.4,12.8,8.4,12.8C8.4,12.8,8.4,12.8,8.4,12.8C8.4,12.8,8.4,12.8,8.4,12.8
			C8.4,12.8,8.4,12.8,8.4,12.8z"/>
		<path class="st1" d="M9.2,12.8C9.2,12.8,9.2,12.8,9.2,12.8C9.2,12.8,9.2,12.8,9.2,12.8C9.2,12.8,9.2,12.8,9.2,12.8
			C9.2,12.8,9.2,12.8,9.2,12.8z"/>
		<path class="st1" d="M9.9,12.8C9.9,12.8,9.9,12.8,9.9,12.8C9.9,12.8,9.9,12.8,9.9,12.8C9.9,12.8,9.9,12.8,9.9,12.8
			C9.9,12.8,9.9,12.8,9.9,12.8z"/>
		<path class="st1" d="M10.7,12.8C10.7,12.8,10.7,12.8,10.7,12.8C10.7,12.8,10.7,12.8,10.7,12.8C10.7,12.8,10.7,12.8,10.7,12.8
			C10.7,12.8,10.7,12.8,10.7,12.8z"/>
		<path class="st1" d="M11.4,12.8C11.4,12.8,11.4,12.8,11.4,12.8C11.4,12.8,11.4,12.8,11.4,12.8C11.4,12.8,11.4,12.8,11.4,12.8
			C11.4,12.8,11.4,12.8,11.4,12.8z"/>
		<path class="st1" d="M12.2,12.8C12.2,12.8,12.2,12.8,12.2,12.8C12.2,12.8,12.2,12.8,12.2,12.8C12.2,12.8,12.1,12.8,12.2,12.8
			C12.1,12.8,12.2,12.8,12.2,12.8z"/>
		<path class="st1" d="M12.9,12.8C12.9,12.8,12.9,12.8,12.9,12.8C12.9,12.8,12.9,12.8,12.9,12.8C12.9,12.8,12.9,12.8,12.9,12.8
			C12.9,12.8,12.9,12.8,12.9,12.8z"/>
		<path class="st1" d="M13.7,12.8C13.7,12.8,13.7,12.8,13.7,12.8C13.7,12.8,13.7,12.8,13.7,12.8C13.7,12.8,13.7,12.8,13.7,12.8
			C13.7,12.8,13.7,12.8,13.7,12.8z"/>
		<path class="st1" d="M14.4,12.8C14.4,12.8,14.4,12.8,14.4,12.8C14.4,12.8,14.4,12.8,14.4,12.8C14.4,12.8,14.4,12.8,14.4,12.8
			C14.4,12.8,14.4,12.8,14.4,12.8z"/>
		<polygon class="st1" points="15.2,12.8 15.2,12.8 15.2,12.8 15.2,12.8 		"/>
		<polygon class="st1" points="15.9,12.8 15.9,12.8 15.9,12.8 15.9,12.8 		"/>
		<polygon class="st1" points="16.7,12.8 16.7,12.8 16.7,12.8 16.7,12.8 		"/>
		<polygon class="st1" points="17.4,12.8 17.5,12.8 17.4,12.8 17.4,12.8 		"/>
		<polygon class="st1" points="18.2,12.8 18.2,12.8 18.2,12.8 18.2,12.8 		"/>
		<path class="st1" d="M22,12.8C22,12.8,22,12.8,22,12.8C22,12.8,22,12.8,22,12.8C22,12.8,21.9,12.8,22,12.8
			C21.9,12.8,22,12.8,22,12.8z"/>
		<path class="st1" d="M22.7,12.8C22.7,12.8,22.7,12.8,22.7,12.8C22.7,12.8,22.7,12.8,22.7,12.8C22.7,12.8,22.7,12.8,22.7,12.8
			C22.7,12.8,22.7,12.8,22.7,12.8z"/>
		<path class="st1" d="M23.5,12.8C23.5,12.8,23.5,12.8,23.5,12.8C23.5,12.8,23.5,12.8,23.5,12.8C23.5,12.8,23.5,12.8,23.5,12.8
			C23.5,12.8,23.5,12.8,23.5,12.8z"/>
		<path class="st1" d="M24.2,12.8C24.2,12.8,24.2,12.8,24.2,12.8C24.2,12.8,24.2,12.8,24.2,12.8C24.2,12.8,24.2,12.8,24.2,12.8
			C24.2,12.8,24.2,12.8,24.2,12.8z"/>
		<path class="st1" d="M4.6,13.6C4.6,13.6,4.7,13.6,4.6,13.6C4.7,13.6,4.6,13.6,4.6,13.6C4.6,13.6,4.6,13.6,4.6,13.6
			C4.6,13.6,4.6,13.6,4.6,13.6z"/>
		<path class="st1" d="M5.4,13.6C5.4,13.6,5.4,13.6,5.4,13.6C5.4,13.6,5.4,13.6,5.4,13.6C5.4,13.6,5.4,13.6,5.4,13.6
			C5.4,13.6,5.4,13.6,5.4,13.6z"/>
		<path class="st1" d="M6.1,13.6C6.2,13.6,6.2,13.6,6.1,13.6C6.2,13.6,6.2,13.6,6.1,13.6C6.1,13.6,6.1,13.6,6.1,13.6
			C6.1,13.6,6.1,13.6,6.1,13.6z"/>
		<path class="st1" d="M6.9,13.6C6.9,13.6,6.9,13.6,6.9,13.6C6.9,13.6,6.9,13.6,6.9,13.6C6.9,13.6,6.9,13.6,6.9,13.6
			C6.9,13.6,6.9,13.6,6.9,13.6z"/>
		<path class="st1" d="M7.7,13.6C7.7,13.6,7.7,13.6,7.7,13.6C7.7,13.6,7.7,13.6,7.7,13.6C7.6,13.6,7.6,13.6,7.7,13.6
			C7.6,13.6,7.6,13.6,7.7,13.6z"/>
		<path class="st1" d="M8.4,13.6C8.4,13.6,8.4,13.6,8.4,13.6C8.4,13.6,8.4,13.6,8.4,13.6C8.4,13.6,8.4,13.6,8.4,13.6
			C8.4,13.6,8.4,13.6,8.4,13.6z"/>
		<path class="st1" d="M9.2,13.6C9.2,13.6,9.2,13.6,9.2,13.6C9.2,13.6,9.2,13.6,9.2,13.6C9.2,13.6,9.2,13.6,9.2,13.6
			C9.2,13.6,9.2,13.6,9.2,13.6z"/>
		<path class="st1" d="M9.9,13.6C9.9,13.6,9.9,13.6,9.9,13.6C9.9,13.6,9.9,13.6,9.9,13.6C9.9,13.6,9.9,13.6,9.9,13.6
			C9.9,13.6,9.9,13.6,9.9,13.6z"/>
		<path class="st1" d="M10.7,13.6C10.7,13.6,10.7,13.6,10.7,13.6C10.7,13.6,10.7,13.6,10.7,13.6C10.7,13.6,10.7,13.6,10.7,13.6
			C10.7,13.6,10.7,13.6,10.7,13.6z"/>
		<path class="st1" d="M11.4,13.6C11.4,13.6,11.4,13.6,11.4,13.6C11.4,13.6,11.4,13.5,11.4,13.6C11.4,13.5,11.4,13.6,11.4,13.6
			C11.4,13.6,11.4,13.6,11.4,13.6z"/>
		<path class="st1" d="M14.4,13.6C14.5,13.6,14.5,13.6,14.4,13.6C14.5,13.5,14.5,13.5,14.4,13.6C14.4,13.5,14.4,13.5,14.4,13.6
			C14.4,13.6,14.4,13.6,14.4,13.6z"/>
		<polygon class="st1" points="15.2,13.6 15.2,13.6 15.2,13.6 15.2,13.6 		"/>
		<polygon class="st1" points="15.9,13.6 15.9,13.6 15.9,13.6 15.9,13.6 		"/>
		<polygon class="st1" points="16.7,13.6 16.7,13.6 16.7,13.6 16.7,13.6 		"/>
		<polygon class="st1" points="17.4,13.6 17.5,13.6 17.4,13.6 17.4,13.6 		"/>
		<path class="st1" d="M23.5,13.6C23.5,13.6,23.5,13.6,23.5,13.6C23.5,13.6,23.5,13.6,23.5,13.6C23.5,13.6,23.5,13.6,23.5,13.6
			C23.5,13.6,23.5,13.6,23.5,13.6z"/>
		<path class="st1" d="M24.2,13.6C24.2,13.6,24.2,13.6,24.2,13.6C24.2,13.6,24.2,13.6,24.2,13.6C24.2,13.6,24.2,13.6,24.2,13.6
			C24.2,13.6,24.2,13.6,24.2,13.6z"/>
		<path class="st1" d="M4.6,14.3C4.6,14.3,4.7,14.3,4.6,14.3C4.7,14.3,4.6,14.3,4.6,14.3C4.6,14.3,4.6,14.3,4.6,14.3
			C4.6,14.3,4.6,14.3,4.6,14.3z"/>
		<path class="st1" d="M5.4,14.3C5.4,14.3,5.4,14.3,5.4,14.3C5.4,14.3,5.4,14.3,5.4,14.3C5.4,14.3,5.4,14.3,5.4,14.3
			C5.4,14.3,5.4,14.3,5.4,14.3z"/>
		<path class="st1" d="M6.1,14.3C6.2,14.3,6.2,14.3,6.1,14.3C6.2,14.3,6.2,14.3,6.1,14.3C6.1,14.3,6.1,14.3,6.1,14.3
			C6.1,14.3,6.1,14.3,6.1,14.3z"/>
		<path class="st1" d="M6.9,14.3C6.9,14.3,6.9,14.3,6.9,14.3C6.9,14.3,6.9,14.3,6.9,14.3C6.9,14.3,6.9,14.3,6.9,14.3
			C6.9,14.3,6.9,14.3,6.9,14.3z"/>
		<path class="st1" d="M7.7,14.3C7.7,14.3,7.7,14.3,7.7,14.3C7.7,14.3,7.7,14.3,7.7,14.3C7.6,14.3,7.6,14.3,7.7,14.3
			C7.6,14.3,7.6,14.3,7.7,14.3z"/>
		<path class="st1" d="M8.4,14.3C8.4,14.3,8.4,14.3,8.4,14.3C8.4,14.3,8.4,14.3,8.4,14.3C8.4,14.3,8.4,14.3,8.4,14.3
			C8.4,14.3,8.4,14.3,8.4,14.3z"/>
		<path class="st1" d="M9.2,14.3C9.2,14.3,9.2,14.3,9.2,14.3C9.2,14.3,9.2,14.3,9.2,14.3C9.2,14.3,9.2,14.3,9.2,14.3
			C9.2,14.3,9.2,14.3,9.2,14.3z"/>
		<path class="st1" d="M9.9,14.3C9.9,14.3,9.9,14.3,9.9,14.3C9.9,14.3,9.9,14.3,9.9,14.3C9.9,14.3,9.9,14.3,9.9,14.3
			C9.9,14.3,9.9,14.3,9.9,14.3z"/>
		<polygon class="st1" points="10.7,14.3 10.7,14.3 10.7,14.3 10.7,14.3 		"/>
		<path class="st1" d="M15.2,14.3C15.2,14.3,15.2,14.3,15.2,14.3C15.2,14.3,15.2,14.3,15.2,14.3C15.2,14.3,15.2,14.3,15.2,14.3
			C15.2,14.3,15.2,14.3,15.2,14.3z"/>
		<polygon class="st1" points="15.9,14.3 15.9,14.3 15.9,14.3 15.9,14.3 		"/>
		<path class="st1" d="M16.7,14.3C16.7,14.3,16.7,14.3,16.7,14.3C16.7,14.3,16.7,14.3,16.7,14.3C16.7,14.3,16.7,14.3,16.7,14.3
			C16.7,14.3,16.7,14.3,16.7,14.3z"/>
		<polygon class="st1" points="4.6,15.1 4.6,15.1 4.6,15.1 4.6,15.1 		"/>
		<path class="st1" d="M5.4,15.1C5.4,15.1,5.4,15.1,5.4,15.1C5.4,15.1,5.4,15.1,5.4,15.1C5.4,15.1,5.4,15.1,5.4,15.1
			C5.4,15.1,5.4,15.1,5.4,15.1z"/>
		<path class="st1" d="M6.1,15.1C6.2,15.1,6.2,15.1,6.1,15.1C6.2,15.1,6.2,15.1,6.1,15.1C6.1,15.1,6.1,15.1,6.1,15.1
			C6.1,15.1,6.1,15.1,6.1,15.1z"/>
		<path class="st1" d="M6.9,15.1C6.9,15.1,6.9,15.1,6.9,15.1C6.9,15.1,6.9,15.1,6.9,15.1C6.9,15.1,6.9,15.1,6.9,15.1
			C6.9,15.1,6.9,15.1,6.9,15.1z"/>
		<path class="st1" d="M7.7,15.1C7.7,15.1,7.7,15.1,7.7,15.1C7.7,15.1,7.7,15.1,7.7,15.1C7.6,15.1,7.6,15.1,7.7,15.1
			C7.6,15.1,7.6,15.1,7.7,15.1z"/>
		<path class="st1" d="M8.4,15.1C8.4,15.1,8.4,15.1,8.4,15.1C8.4,15.1,8.4,15.1,8.4,15.1C8.4,15.1,8.4,15.1,8.4,15.1
			C8.4,15.1,8.4,15.1,8.4,15.1z"/>
		<path class="st1" d="M9.2,15.1C9.2,15.1,9.2,15.1,9.2,15.1C9.2,15.1,9.2,15.1,9.2,15.1C9.2,15.1,9.2,15.1,9.2,15.1
			C9.2,15.1,9.2,15.1,9.2,15.1z"/>
		<polygon class="st1" points="5.4,15.8 5.4,15.8 5.4,15.8 5.4,15.8 		"/>
		<path class="st1" d="M6.1,15.8C6.2,15.8,6.2,15.8,6.1,15.8C6.2,15.8,6.2,15.8,6.1,15.8C6.1,15.8,6.1,15.8,6.1,15.8
			C6.1,15.8,6.1,15.8,6.1,15.8z"/>
		<path class="st1" d="M6.9,15.8C6.9,15.8,6.9,15.8,6.9,15.8C6.9,15.8,6.9,15.8,6.9,15.8C6.9,15.8,6.9,15.8,6.9,15.8
			C6.9,15.8,6.9,15.8,6.9,15.8z"/>
		<path class="st1" d="M7.7,15.8C7.7,15.8,7.7,15.8,7.7,15.8C7.7,15.8,7.7,15.8,7.7,15.8C7.6,15.8,7.6,15.8,7.7,15.8
			C7.6,15.8,7.6,15.8,7.7,15.8z"/>
		<polygon class="st1" points="8.4,15.8 8.4,15.8 8.4,15.8 8.4,15.8 		"/>
	</g>
</g>
<g class="st3">
	<defs>
		<rect id="SVGID_5_" y="0" class="st3" width="25" height="25"/>
	</defs>
	<clipPath id="SVGID_6_">
		<use xlink:href="#SVGID_5_"  style="overflow:visible;"/>
	</clipPath>
	<g class="st4">
		<polygon class="st1" points="1.3,7.2 4.9,6.4 1.3,2.8 1.3,2.8 4.9,6.4 4.9,6.4 4.9,6.4 1.3,7.2 		"/>
		<path class="st1" d="M12.6,9.7L12.6,9.7l7.9,2l0,0l-5.8,2.5l0,0L12.6,9.7z M20.4,11.7l-7.8-2l2,4.5L20.4,11.7z"/>
		<polygon class="st1" points="1.3,13.7 4.8,6.5 1.3,8.9 1.3,8.9 4.9,6.4 4.9,6.4 1.3,13.8 		"/>
		<path class="st1" d="M18.9,5L18.9,5l5.4,4.7l0,0l-3.8,2l0,0L18.9,5z M24.3,9.7l-5.3-4.6l1.6,6.6L24.3,9.7z"/>
		<path class="st1" d="M12.6,9.7L12.6,9.7L18.9,5l0,0l1.6,6.7l0,0L12.6,9.7z M18.9,5.1l-6.2,4.6l7.8,2L18.9,5.1z"/>
		<path class="st1" d="M12.6,9.6l2.1,4.6l-1.8,1.6h0l0,0l0,0L12.6,9.6z M14.7,14.2l-2-4.4l0.2,6L14.7,14.2z"/>
		<path class="st1" d="M4.9,6.4l7.8,3.3l0,0l-6.1,6.1h0l0,0L4.9,6.4z M12.6,9.7L4.9,6.4l1.6,9.3L12.6,9.7z"/>
		<path class="st1" d="M10.2,14.4L10.2,14.4l2.5-4.8l0.3,6.2l0,0l0,0L10.2,14.4z M12.6,9.7l-2.4,4.6l2.6,1.4L12.6,9.7z"/>
		<path class="st1" d="M20.5,11.7l3.8-2h0l0,0v6.1H24l0,0L20.5,11.7z M24.3,9.7l-3.8,2l3.5,4.1h0.3V9.7z"/>
		<path class="st1" d="M18.9,5L18.9,5l5.4-2l0,0l0,6.6l0,0L18.9,5z M24.3,3.1L18.9,5l5.3,4.6V3.1z"/>
		<path class="st1" d="M4.8,6.4L4.8,6.4L11.5,4l0,0l1.1,5.7l0,0L4.8,6.4z M11.5,4L4.9,6.4l7.7,3.2L11.5,4z"/>
		<polygon class="st1" points="1.3,8.9 4.8,6.4 1.3,7.2 1.3,7.2 4.9,6.4 4.9,6.4 1.3,8.9 		"/>
		<path class="st1" d="M11.5,4L11.5,4L19,5l0,0l-6.3,4.7l0,0L11.5,4z M18.9,5l-7.3-1l1.1,5.6L18.9,5z"/>
		<path class="st1" d="M6.7,15.8c0,0.1-0.1,0.2-0.2,0.2c-0.1,0-0.2-0.1-0.2-0.2c0-0.1,0.1-0.2,0.2-0.2C6.6,15.6,6.7,15.7,6.7,15.8z"
			/>
		<path class="st1" d="M10.4,14.4c0,0.1-0.1,0.2-0.2,0.2c-0.1,0-0.2-0.1-0.2-0.2s0.1-0.2,0.2-0.2C10.3,14.3,10.4,14.3,10.4,14.4z"/>
		<path class="st1" d="M13.1,15.8c0,0.1-0.1,0.2-0.2,0.2c-0.1,0-0.2-0.1-0.2-0.2c0-0.1,0.1-0.2,0.2-0.2C13,15.6,13.1,15.7,13.1,15.8
			z"/>
		<path class="st1" d="M18.3,15.8c0,0.1-0.1,0.2-0.2,0.2c-0.1,0-0.2-0.1-0.2-0.2c0-0.1,0.1-0.2,0.2-0.2
			C18.2,15.6,18.3,15.7,18.3,15.8z"/>
		<path class="st1" d="M14.9,14.2c0,0.1-0.1,0.2-0.2,0.2c-0.1,0-0.2-0.1-0.2-0.2c0-0.1,0.1-0.2,0.2-0.2C14.8,14,14.9,14.1,14.9,14.2
			z"/>
		<path class="st1" d="M5.1,6.4c0,0.1-0.1,0.2-0.2,0.2S4.7,6.5,4.7,6.4c0-0.1,0.1-0.2,0.2-0.2S5.1,6.3,5.1,6.4z"/>
		<path class="st1" d="M12.9,9.7c0,0.1-0.1,0.2-0.2,0.2c-0.1,0-0.2-0.1-0.2-0.2s0.1-0.2,0.2-0.2C12.8,9.5,12.9,9.6,12.9,9.7z"/>
		<path class="st1" d="M20.7,11.7c0,0.1-0.1,0.2-0.2,0.2c-0.1,0-0.2-0.1-0.2-0.2c0-0.1,0.1-0.2,0.2-0.2
			C20.6,11.5,20.7,11.6,20.7,11.7z"/>
		<path class="st1" d="M24.5,9.7c0,0.1-0.1,0.2-0.2,0.2c-0.1,0-0.2-0.1-0.2-0.2s0.1-0.2,0.2-0.2C24.4,9.5,24.5,9.6,24.5,9.7z"/>
		<path class="st1" d="M24.4,15.7c0,0.1-0.1,0.2-0.2,0.2C24,16,24,15.9,24,15.7c0-0.1,0.1-0.2,0.2-0.2
			C24.3,15.5,24.4,15.6,24.4,15.7z"/>
		<path class="st1" d="M11.7,4c0,0.1-0.1,0.2-0.2,0.2c-0.1,0-0.2-0.1-0.2-0.2c0-0.1,0.1-0.2,0.2-0.2C11.7,3.8,11.7,3.9,11.7,4z"/>
		<path class="st1" d="M19.1,5.1c0,0.1-0.1,0.2-0.2,0.2c-0.1,0-0.2-0.1-0.2-0.2s0.1-0.2,0.2-0.2C19,4.9,19.1,5,19.1,5.1z"/>
		<path class="st1" d="M24.5,3c0,0.1-0.1,0.2-0.2,0.2c-0.1,0-0.2-0.1-0.2-0.2c0-0.1,0.1-0.2,0.2-0.2C24.4,2.8,24.5,2.9,24.5,3z"/>
		<polygon class="st1" points="14.7,14.2 14.7,14.2 14.7,14.2 14.7,14.2 14.7,14.2 20.5,11.7 18.1,15.8 18,15.8 18.1,15.8 
			20.5,11.7 20.5,11.6 		"/>
		<polygon class="st1" points="18.1,15.7 14.7,14.2 14.7,14.2 18.1,15.8 		"/>
	</g>
</g>
<g>
	<defs>
		<rect id="SVGID_7_" y="0" width="25" height="25"/>
	</defs>
	<clipPath id="SVGID_8_">
		<use xlink:href="#SVGID_7_"  style="overflow:visible;"/>
	</clipPath>
</g>
</svg>
