<?xml version="1.0" encoding="utf-8"?>
<!-- Generator: Adobe Illustrator 24.0.2, SVG Export Plug-In . SVG Version: 6.00 Build 0)  -->
<svg version="1.1" id="Capa_1" xmlns="http://www.w3.org/2000/svg" xmlns:xlink="http://www.w3.org/1999/xlink" x="0px" y="0px"
	 viewBox="0 0 800 320" style="enable-background:new 0 0 800 320;" xml:space="preserve">
<style type="text/css">
/* .verificarFondo{fill:url(#SVGID_1_);} */
:root{
	--inicio1 : 0s;
	--inicio2 : 0s;
	--inicio3 : 1.25s;
	--inicio4 : 1.25s;
	--inicio5 : 3s;
}
	.fondo{
		fill-rule:evenodd;clip-rule:evenodd;fill:transparent;
	}
	@keyframes opacity{0%{opacity:0;}100%{opacity:1;}}
	@keyframes opacity2{0%{opacity:0;}100%{opacity:0;}}
	@keyframes Indice{0%{stroke-dashoffset:72px;}100%{stroke-dashoffset:0px;}}
	@keyframes Indice2{0%{stroke-dashoffset:-72px;}100%{stroke-dashoffset:0px;}}
	@keyframes Circulo{0%{stroke-dashoffset:445px;}100%{stroke-dashoffset:0px;}}
	@keyframes Porcentaje{0%{stroke-dashoffset:273px;}100%{stroke-dashoffset:0px;}}
	@keyframes central{
		0%{stroke-dashoffset:1147px;}
		100%{stroke-dashoffset:0px;}
	}
.verifiacarIndice,.procederIndice,.relevarIndice,.registrarIndice{
	fill:none;stroke:#fff;stroke-width:3;stroke-dasharray: 72px;stroke-dashoffset: 72px;
}
.verificarCirculo,.procederCirculo,.relevarCirculo,.registrarCirculo{
	fill:none;stroke:#fff;stroke-width:3;stroke-dasharray: 445px;stroke-dashoffset: 445px;
}
.verificarPorcentaje,.procederPorcentaje,.relevarPorcentaje,.registrarPorcentaje{
	fill:none;stroke:#fff;stroke-width:3;stroke-dasharray: 273px;stroke-dashoffset: 273px;
}
	
	

	.verificarTXT{fill:#fff;opacity: 0;
		animation: opacity 0.25s forwards linear calc(var(--inicio1) + 0s);}
	.verifiacarIndice{
		animation: Indice 0.25s forwards linear calc(var(--inicio1) + 0.25s);}
	.verificarCirculo{
		animation: Circulo 0.25s forwards linear calc(var(--inicio1) + 0.5s);}
	.verificarIcono{fill:#fff;opacity: 0;
		animation: opacity 0.25s forwards linear calc(var(--inicio1) + 0.75s);}
	.verificarFondo{fill:#fff;opacity: 0;
		animation: opacity2 0.25s forwards linear calc(var(--inicio1) + 1s);}
	.verificarPorcentaje{
		animation: Porcentaje 0.25s forwards linear calc(var(--inicio1) + 1.25s);}

	.procederTXT{fill:#fff;opacity: 0;
		animation: opacity 0.25s forwards linear calc(var(--inicio2) + 0s);}
	.procederIndice{
		animation: Indice 0.25s forwards linear calc(var(--inicio2) + 0.25s);}
	.procederCirculo{
		animation: Circulo 0.25s forwards linear calc(var(--inicio2) + 0.5s);}
	.procederIcono{fill:#fff;opacity: 0;
		animation: opacity 0.25s forwards linear calc(var(--inicio2) + 0.75s);}
	.procederFondo{fill:#fff;opacity: 0;
		animation: opacity2 0.25s forwards linear calc(var(--inicio2) + 1s);}
	.procederPorcentaje{
		animation: Porcentaje 0.25s forwards linear calc(var(--inicio2) + 1.25s);}

	.relevarTXT{fill:#fff;opacity: 0;
		animation: opacity 0.25s forwards linear calc(var(--inicio3) + 0s);}
	.relevarIndice{
		animation: Indice2 0.25s forwards linear calc(var(--inicio3) + 0.25s);}
	.relevarCirculo{
		animation: Circulo 0.25s forwards linear calc(var(--inicio3) + 0.5s);}
	.relevarIcono{fill:#fff;opacity: 0;
		animation: opacity 0.25s forwards linear calc(var(--inicio3) + 0.75s);}
	.relevarFondo{fill:#fff;opacity: 0;
		animation: opacity2 0.25s forwards linear calc(var(--inicio3) + 1s);}
	.relevarPorcentaje{
		animation: Porcentaje 0.25s forwards linear calc(var(--inicio3) + 1.25s);}

	.registrarTXT{fill:#fff;opacity: 0;
		animation: opacity 0.25s forwards linear calc(var(--inicio4) + 0s);}
	.registrarIndice{
		animation: Indice2 0.25s forwards linear calc(var(--inicio4) + 0.25s);}
	.registrarCirculo{
		animation: Circulo 0.25s forwards linear calc(var(--inicio4) + 0.5s);}
	.registrarIcono{fill:#fff;opacity: 0;
		animation: opacity 0.25s forwards linear calc(var(--inicio4) + 0.75s);}
	.registrarFondo{fill:#fff;opacity: 0;
		animation: opacity2 0.25s forwards linear calc(var(--inicio4) + 1s);}
	.registrarPorcentaje{
		animation: Porcentaje 0.25s forwards linear calc(var(--inicio4) + 1.25s);}
	.lineaCentral{fill:none;stroke:rgba(0, 214, 214, 0.5);stroke-width:5;
		stroke-linecap: round;
		stroke-dasharray: 1147px;stroke-dashoffset: 1147px;
		animation: central 2s forwards linear calc(var(--inicio5) + 0s);
	}
</style>
<g>
	<rect y="0" class="fondo" width="800" height="320"/>
	<path class="lineaCentral" d="M40,144.1c0,52.2,41.3,94.7,92,94.7c50.8,0,92-42.5,92-94.7c0-49.9,39.5-90.5,88-90.5c48.5,0,88,40.6,88,90.5
		c0,52.2,41.3,94.7,92,94.7c50.8,0,92-42.5,92-94.7c0-49.9,39.5-90.5,88-90.5c48.5,0,88,40.6,88,90.5"/>
	<line class="verifiacarIndice" x1="132" y1="0" x2="132" y2="72.2"/>
	<line class="procederIndice" x1="492.1" y1="0" x2="492.1" y2="72.2"/>
	<line class="relevarIndice" x1="312.1" y1="215.8" x2="312.1" y2="288"/>
	<line class="registrarIndice" x1="670" y1="215.8" x2="670" y2="288"/>
	<path class="relevarCirculo" d="M312,215.9c-38.6,0-69.9-32.2-69.9-71.9c0-39.7,31.3-71.9,69.9-71.9c38.6,0,69.9,32.2,69.9,71.9
		C381.9,183.8,350.6,215.9,312,215.9z"/>
	<path class="relevarFondo" d="M312,213c-36.9,0-67-30.9-67-68.9c0-38,30.1-68.9,67-68.9c37,0,67,30.9,67,68.9C379.1,182.1,349,213,312,213
		 M312,78.3c-35.3,0-63.9,29.5-63.9,65.8c0,36.3,28.7,65.8,63.9,65.8c35.3,0,63.9-29.5,63.9-65.8C376,107.8,347.3,78.3,312,78.3z"/>
	<path class="relevarPorcentaje" d="M312.1,76.7c35.9,0,65.5,30.4,65.5,67.3c0,36.9-29.6,67.3-65.5,67.3c-21.8,0-42.2-11.2-54.4-29.8"/>
	<path class="registrarFondo" d="M670,213c-36.9,0-67-30.9-67-68.9c0-38,30.1-68.9,67-68.9c37,0,67,30.9,67,68.9C737,182.1,706.9,213,670,213
		 M670,78.3c-35.3,0-63.9,29.5-63.9,65.8c0,36.3,28.7,65.8,63.9,65.8c35.3,0,63.9-29.5,63.9-65.8C733.9,107.8,705.2,78.3,670,78.3z"
		/>
	<path class="registrarPorcentaje" d="M670,76.7c35.9,0,65.5,30.4,65.5,67.3c0,36.9-29.6,67.3-65.5,67.3c-21.8,0-42.2-11.2-54.4-29.8"/>
	<path class="procederFondo" d="M492,213c-36.9,0-67-30.9-67-68.9c0-38,30.1-68.9,67-68.9c37,0,67,30.9,67,68.9C559.1,182.1,529,213,492,213
		 M492,78.3c-35.3,0-63.9,29.5-63.9,65.8c0,36.3,28.7,65.8,63.9,65.8c35.3,0,63.9-29.5,63.9-65.8C556,107.8,527.3,78.3,492,78.3z"/>
	<path class="procederPorcentaje" d="M492.1,76.7c35.9,0,65.5,30.4,65.5,67.3c0,36.9-29.6,67.3-65.5,67.3c-21.8,0-42.2-11.2-54.4-29.8"/>
	<path class="procederCirculo" d="M492.1,72.2c38.6,0,69.9,32.2,69.9,71.9c0,39.7-31.3,71.9-69.9,71.9c-38.6,0-69.9-32.2-69.9-71.9
		C422.2,104.4,453.5,72.2,492.1,72.2z"/>
	<path class="verificarCirculo" d="M132,72.2c38.6,0,69.9,32.2,69.9,71.9c0,39.7-31.3,71.9-69.9,71.9c-38.6,0-69.9-32.2-69.9-71.9
		C62.2,104.4,93.5,72.2,132,72.2z"/>
	<path class="registrarCirculo" d="M670,215.9c-38.6,0-69.9-32.2-69.9-71.9c0-39.7,31.3-71.9,69.9-71.9c38.6,0,69.9,32.2,69.9,71.9
		C739.8,183.8,708.6,215.9,670,215.9z"/>
	<path class="verificarIcono" d="M154.7,164.1l-10.1-10.4c-1.3-1.3-3.1-1.7-4.7-1.1l-2.8-2.9c2.7-3.4,4.1-7.6,4.1-12c0-5.1-1.9-10-5.5-13.6
		c-7.3-7.5-19.1-7.5-26.4,0c-3.5,3.6-5.5,8.5-5.5,13.6c0,5.1,1.9,10,5.5,13.6c3.5,3.6,8.2,5.6,13.2,5.6c4.3,0,8.4-1.5,11.7-4.2
		l2.8,2.9c-0.5,1.6-0.2,3.5,1.1,4.8l10.1,10.4c0.9,0.9,2.1,1.4,3.3,1.4c1.2,0,2.4-0.5,3.3-1.4C156.5,169,156.5,166,154.7,164.1
		 M112.2,148.4c-2.8-2.8-4.3-6.6-4.3-10.6c0-4,1.5-7.8,4.3-10.6c2.8-2.9,6.6-4.4,10.3-4.4c3.7,0,7.5,1.5,10.3,4.4
		c2.8,2.8,4.3,6.6,4.3,10.6c0,4-1.5,7.8-4.3,10.6c-2.8,2.8-6.4,4.4-10.3,4.4C118.6,152.8,115,151.2,112.2,148.4z"/>
	<path class="procederIcono" d="M521.7,120.4h-17.1c-0.7-4.2-3.9-7.4-7.9-8c-3.1-0.5-6.2-0.5-9.2,0c-4,0.6-7.2,3.9-7.8,8h-17.1
		c-3.2,0-5.8,2.7-5.8,6v10c0,0.6,0.5,1.2,1.1,1.2h68.5c0.6,0,1.1-0.5,1.1-1.2v-10C527.5,123.1,524.9,120.4,521.7,120.4 M483.4,117.2
		c1.1-1.3,2.7-2.2,4.4-2.5c2.8-0.4,5.7-0.4,8.5,0c1.7,0.3,3.2,1.2,4.4,2.5c0.8,0.9,1.3,2,1.6,3.2h-20.3
		C482.1,119.2,482.7,118.1,483.4,117.2z M526.3,139.9h-68.5c-0.6,0-1.1,0.5-1.1,1.2v27.9c0,3.3,2.6,5.9,5.8,6h3.4v2.4
		c0,1.3,1,2.4,2.3,2.4h7.1c1.3,0,2.3-1.1,2.3-2.4v-2.4h28.9v2.4c0,1.3,1,2.4,2.3,2.4h7.1c1.3,0,2.3-1.1,2.3-2.4v-2.4h3.4
		c3.2,0.1,5.8-2.6,5.9-5.9c0,0,0-0.1,0-0.1V141C527.5,140.4,527,139.9,526.3,139.9z M525.2,168.9c0,2-1.6,3.6-3.5,3.6h-4.6
		c-0.6,0-1.1,0.5-1.1,1.2v3.5h-7.2v-3.5c0-0.6-0.5-1.2-1.1-1.2h-31.1c-0.6,0-1.1,0.5-1.1,1.2v3.5h-7.2v-3.5c0-0.6-0.5-1.2-1.1-1.2
		h-4.6c-1.9,0-3.5-1.6-3.6-3.6c0,0,0,0,0,0v-26.7h66.3V168.9z M492,170.3c6.9,0,12.6-5.8,12.6-12.9c0-7.1-5.6-12.9-12.6-12.9
		c-6.9,0-12.6,5.8-12.6,12.9C479.5,164.5,485.1,170.3,492,170.3z M497.8,166.2l-0.7-0.8c-0.4-0.4-0.8-0.7-1.2-1.1
		c-1-0.8-2.1-1.4-3.2-1.8c-0.5-0.2-1.1-0.2-1.7-0.2c-1,0-2-0.4-2.8-1.1l-1.1-1.1c-0.7-0.8-1-2-0.8-3.1l3,3.1
		c0.2,0.2,0.5,0.3,0.8,0.3c0.3,0,0.6-0.1,0.8-0.3l2.8-2.9c1-1.1,1-2.8,0-3.8l-2.3-2.3c1.3-0.3,2.6,0.1,3.5,1.1l0.9,1
		c0.7,0.7,1.1,1.6,1.1,2.6c0.1,2,0.6,4,1.6,5.7c0.5,0.8,1,1.5,1.7,2.2C499.5,164.6,498.7,165.5,497.8,166.2z M492,146.8
		c5.7,0,10.3,4.7,10.3,10.6c0,1.5-0.3,2.9-0.9,4.2c-0.3-0.4-0.6-0.8-0.9-1.3c-0.8-1.4-1.3-3-1.3-4.7c-0.1-1.6-0.7-3.1-1.8-4.2
		l-0.9-0.9c-2.1-2.1-5.3-2.4-7.7-0.8c-0.5,0.3-0.7,1.1-0.4,1.6c0,0.1,0.1,0.1,0.1,0.2l3.4,3.5c0.1,0.1,0.1,0.4,0,0.5l-2,2l-3.3-3.4
		c-0.2-0.2-0.5-0.4-0.9-0.3c-0.3,0-0.6,0.2-0.8,0.4c-1.6,2.2-1.5,5.3,0.3,7.3l0.1,0.1l1.1,1.2c1.2,1.2,2.8,1.9,4.5,1.8
		c0.3,0,0.6,0,0.9,0.1c0.9,0.3,1.7,0.8,2.4,1.5c0.3,0.3,0.7,0.6,1,0.9l0.2,0.2c-5.3,2-11.2-0.8-13.2-6.3c-2-5.5,0.8-11.6,6.1-13.6
		C489.6,147,490.8,146.8,492,146.8z M525.2,135.1h-66.3v-8.8c0-2,1.6-3.6,3.5-3.6h59.2c1.9,0,3.5,1.6,3.5,3.6V135.1z"/>
	<path class="registrarIcono" d="M653.6,136.8h29.7c0.6,0,1.1,0.5,1.1,1.1c0,0.6-0.5,1.2-1.1,1.2c0,0,0,0-0.1,0h-29.7c-0.6,0-1.1-0.5-1.1-1.1
		C652.5,137.3,653,136.8,653.6,136.8C653.6,136.8,653.6,136.8,653.6,136.8 M651.9,134.2h9.7c0.7,0,1.3-0.4,1.7-0.9
		c0.4-0.5,0.5-1.1,0.3-1.7c-0.8-2.7-1.7-6.2-4.7-6.8c-0.6-0.1-1.2,0.3-1.3,0.9c-0.1,0.6,0.3,1.2,0.9,1.3c1.5,0.3,2.2,2.3,2.9,4.9
		h-1.4v-0.9c0-0.6-0.5-1.2-1.1-1.2c-0.6,0-1.1,0.5-1.1,1.1c0,0,0,0,0,0.1v0.9h-2.4v-0.9c0-0.6-0.5-1.2-1.1-1.2
		c-0.6,0-1.1,0.5-1.1,1.1c0,0,0,0,0,0.1v0.9H652c0.7-2.6,1.4-4.6,2.9-4.9c0.6-0.1,1-0.7,0.9-1.3c-0.1-0.6-0.7-1-1.3-0.9
		c-3,0.6-3.9,4-4.7,6.8c-0.2,0.6,0,1.2,0.3,1.7C650.6,133.8,651.2,134.1,651.9,134.2z M652.8,119.4c0-2.3,1.8-4.1,4-4.1
		c2.2,0,4,1.8,4,4.1c0,2.2-1.7,5.4-4,5.4C654.4,124.8,652.8,121.5,652.8,119.4z M655,119.4c0,1.3,1.1,3.2,1.8,3.2
		c0.7,0,1.8-1.9,1.8-3.2c0-1-0.8-1.8-1.8-1.8C655.8,117.5,655,118.3,655,119.4z M667.1,127.9h8c0.6,0,1.1-0.5,1.1-1.1
		c0-0.6-0.5-1.2-1.1-1.2c0,0,0,0-0.1,0h-8c-0.6,0-1.1,0.5-1.1,1.2C666.1,127.4,666.6,127.8,667.1,127.9z M667.1,132.7h12.8
		c0.6,0,1.1-0.5,1.1-1.2c0-0.6-0.5-1.1-1.1-1.1h-12.8c-0.6,0-1.1,0.5-1.1,1.2C666.1,132.2,666.6,132.7,667.1,132.7z M667.2,163.4
		v6.9c0,0.6-0.5,1.1-1.1,1.1h-21.6c-0.6,0-1.1-0.5-1.1-1.1v0v-6.9c0-0.6,0.5-1.1,1.1-1.1h21.6C666.7,162.2,667.2,162.7,667.2,163.4z
		 M665,164.5h-19.4v4.6H665V164.5z M716.4,168.6c0,8.9-7,16.2-15.7,16.2c-5.8,0-11-3.2-13.8-8.4h-45.9c-1.9,0-3.4-1.6-3.4-3.5v-37.2
		c0-1,0.4-1.9,1-2.5l-3-5.4c-0.9-1.6-0.4-3.7,1.2-4.6l3-1.8l-0.4-1.6c-0.5-1.8,0.6-3.7,2.3-4.2l3.4-0.9V113c0-1.9,1.5-3.4,3.3-3.4
		h11.2l9.7-5.7c1.6-0.9,3.6-0.4,4.5,1.2l0.8,1.4l3.4-0.9c1.8-0.5,3.6,0.6,4,2.4l0.4,1.6h3.5c1.8,0,3.3,1.5,3.3,3.4v19.6l2.7,4.8h6.7
		c0.6,0,1.1,0.5,1.1,1.1v0v14c0.3,0,0.7,0,1.1,0C709.3,152.4,716.4,159.7,716.4,168.6z M693.1,139.6l1.1,1.9h3.2v-1.9H693.1z
		 M691.6,141.5l-1.7-3.1l0.8,3.1H691.6z M671.9,109.6h8.1l-0.3-1c-0.2-0.6-0.8-1-1.3-0.8L671.9,109.6z M664.4,109.3l7.8-2.2
		l-0.5-0.9c-0.3-0.5-1-0.7-1.5-0.4L664.4,109.3z M647.3,113V149h22.4l1.6-3h-17.6c-0.6,0-1.1-0.5-1.1-1.1c0-0.6,0.5-1.2,1.1-1.2
		c0,0,0,0,0.1,0h18.8l0.8-1.6c0.2-0.4,0.6-0.6,1-0.6h12.6V113c0-0.6-0.5-1.1-1.1-1.1h-37.4C647.8,111.8,647.3,112.3,647.3,113
		L647.3,113z M641.5,119.1l3.6,13.7V117l-2.8,0.8C641.7,117.9,641.3,118.5,641.5,119.1L641.5,119.1z M637.4,126.6l6.9,12.3l-4-15.3
		l-2.5,1.5C637.3,125.4,637.2,126.1,637.4,126.6L637.4,126.6z M639.8,135.3c0,0.1-0.1,0.2-0.1,0.4V149h5.3v-4.3L639.8,135.3z
		 M685.9,174c-2.9-8.4,1.3-17.7,9.5-20.7c0.7-0.2,1.3-0.4,2-0.6v-9h-22.4l-3.6,6.9c-0.2,0.4-0.6,0.6-1,0.6h-30.6v21.5
		c0,0.7,0.5,1.2,1.2,1.2H685.9z M714.1,168.6c0-7.7-6-13.9-13.5-13.9c-7.5,0-13.5,6.2-13.5,13.9c0,7.7,6,13.9,13.5,13.9
		C708.1,182.5,714.1,176.2,714.1,168.6z M706.8,167.4v8.4c0,1.2-0.9,2.1-2.1,2.1h-8.2c-1.1,0-2.1-0.9-2.1-2.1v-8.4
		c0-1,0.7-1.9,1.7-2.1v-1.6c0-2.5,2.1-4.6,4.5-4.5c2.4,0,4.4,2,4.4,4.5v1.6C706.1,165.5,706.8,166.4,706.8,167.4z M698.4,163.8v1.5
		h4.5v-1.5c0-1.3-1.1-2.3-2.3-2.3C699.4,161.5,698.4,162.5,698.4,163.8z M704.6,167.6h-7.9v8.1h7.9V167.6z M698.2,170.7
		c0-1.4,1.1-2.6,2.5-2.6c1.4,0,2.5,1.1,2.5,2.5c0,1-0.5,1.9-1.4,2.3v0.9c0,0.6-0.5,1.1-1.1,1.1c-0.6,0-1.1-0.5-1.1-1.1V173
		C698.7,172.6,698.2,171.7,698.2,170.7z M700.4,170.7c0,0.1,0.1,0.3,0.3,0.3c0.1,0,0.3-0.1,0.3-0.3c0-0.1-0.1-0.3-0.3-0.3
		C700.5,170.5,700.4,170.6,700.4,170.7z"/>
	<path class="relevarIcono" d="M348.6,175.4H343c4-6.4,4.6-7.4,4.7-7.6c0-0.1,0.1-0.3,0.1-0.4c0,0,0,0,0,0v-38c0-4-3.2-7.1-6.9-7.1
		c-3.8,0-6.9,3.2-6.9,7.1v38c0,0,0,0,0,0c0,0.1,0,0.3,0.1,0.4c0.1,0.3,0.4,0.7,4.7,7.6h-9.6c0.4-0.7,0.6-1.4,0.6-2.2v-59.4
		c0-2.5-2-4.5-4.4-4.5h-9.6v-0.7c0-1.3-1-2.3-2.2-2.3h-3.8c-0.7-4.3-4.9-7.1-9.2-5.7c-2.4,0.8-4.2,3-4.7,5.7H292
		c-1.2,0-2.2,1-2.2,2.3v0.7h-9.6c-2.4,0-4.4,2-4.4,4.5v59.4c0,0.8,0.2,1.5,0.6,2.2h-0.9c-0.6,0-1.1,0.5-1.1,1.2
		c0,0.6,0.5,1.2,1.1,1.2h73.1c0.6,0,1.1-0.5,1.1-1.2C349.7,175.9,349.2,175.4,348.6,175.4 M336.3,135.3h9.1v30.9h-9.1V135.3z
		 M336.3,129.3c0-2.6,2-4.7,4.6-4.7c2.4,0,4.6,2,4.6,4.7v3.6h-9.1V129.3z M344.5,168.5l-3.6,5.8l-3.6-5.8H344.5z M291,118.8h23.6
		c0.6,0,1.1-0.5,1.1-1.2v-0.5h6.3v52.7h-38.6v-52.7h6.3v0.5C289.8,118.2,290.3,118.8,291,118.8z M296.9,108.6c0.6,0,1.1-0.5,1.1-1.2
		c0-2.1,1.3-4,3.2-4.6c3.3-1.1,6.3,1.4,6.3,4.6c0,0.6,0.5,1.2,1.1,1.2h4.8v7.8h-21.4c0-0.1-0.1-8-0.1-7.8H296.9z M302.8,111.2
		c2,0,3.6-1.6,3.6-3.7c0-2-1.6-3.7-3.6-3.7c-2,0-3.6,1.6-3.6,3.7C299.2,109.6,300.8,111.2,302.8,111.2z M302.8,106.2
		c0.7,0,1.3,0.6,1.3,1.3c0,0.7-0.6,1.3-1.3,1.3c-0.7,0-1.3-0.6-1.3-1.3C301.5,106.8,302.1,106.2,302.8,106.2z M286.6,123v10.1
		c0,0.6,0.5,1.2,1.1,1.2h10.9c0.6,0,1.1-0.5,1.1-1.2V123c0-0.6-0.5-1.2-1.1-1.2h-10.9C287.1,121.8,286.6,122.3,286.6,123z
		 M288.9,124.1h8.6v7.8h-8.6V124.1z M298.7,137.2h-10.9c-0.6,0-1.1,0.5-1.1,1.2v10.1c0,0.6,0.5,1.2,1.1,1.2h10.9
		c0.6,0,1.1-0.5,1.1-1.2v-10.1C299.8,137.8,299.3,137.2,298.7,137.2z M297.5,147.4h-8.6v-7.8h8.6V147.4z M298.7,152.7h-10.9
		c-0.6,0-1.1,0.5-1.1,1.2V164c0,0.6,0.5,1.2,1.1,1.2h10.9c0.6,0,1.1-0.5,1.1-1.2v-10.1C299.8,153.2,299.3,152.7,298.7,152.7z
		 M297.5,162.8h-8.6V155h8.6V162.8z M304.3,129.2h13.5c0.6,0,1.1-0.5,1.1-1.2c0-0.6-0.5-1.2-1.1-1.2h-13.5c-0.6,0-1.1,0.5-1.1,1.2
		C303.2,128.7,303.7,129.2,304.3,129.2z M304.3,144.6h13.5c0.6,0,1.1-0.5,1.1-1.2s-0.5-1.2-1.1-1.2h-13.5c-0.6,0-1.1,0.5-1.1,1.2
		S303.7,144.6,304.3,144.6z M304.3,160.1h13.5c0.6,0,1.1-0.5,1.1-1.2c0-0.6-0.5-1.2-1.1-1.2h-13.5c-0.6,0-1.1,0.5-1.1,1.2
		C303.2,159.6,303.7,160.1,304.3,160.1z M291.8,145.5c0.2,0.2,0.5,0.3,0.8,0.3c0.3,0,0.6-0.1,0.8-0.3l2.3-2.3c0.4-0.5,0.4-1.2,0-1.7
		c-0.4-0.5-1.2-0.5-1.6,0l-1.5,1.5l-0.3-0.3c-0.4-0.5-1.2-0.5-1.6,0c-0.4,0.5-0.4,1.2,0,1.7L291.8,145.5z M294.1,126l-1.5,1.5
		l-0.3-0.3c-0.4-0.5-1.2-0.5-1.6,0c-0.4,0.5-0.4,1.2,0,1.7l1.1,1.2c0.2,0.2,0.5,0.3,0.8,0.3c0.3,0,0.6-0.1,0.8-0.3l2.3-2.3
		c0.4-0.5,0.4-1.2,0-1.7C295.3,125.6,294.5,125.6,294.1,126z M290.8,161.5c0.2,0.2,0.5,0.3,0.8,0.3c0.3,0,0.6-0.1,0.8-0.4l0.7-0.8
		l0.7,0.8c0.2,0.2,0.5,0.4,0.8,0.4c0.3,0,0.6-0.1,0.8-0.3c0.5-0.4,0.5-1.2,0-1.7l-0.8-0.9l0.8-0.9c0.4-0.5,0.4-1.2,0-1.7
		c-0.5-0.4-1.2-0.4-1.6,0l-0.7,0.8l-0.7-0.8c-0.4-0.5-1.2-0.5-1.6,0c-0.5,0.4-0.5,1.2,0,1.7l0.8,0.9l-0.8,0.9
		C290.4,160.3,290.4,161,290.8,161.5z M278.1,113.8c0-1.2,1-2.2,2.1-2.2h9.6v3.2h-7.5c-0.6,0-1.1,0.5-1.1,1.2V171
		c0,0.6,0.5,1.2,1.1,1.2h40.9c0.6,0,1.1-0.5,1.1-1.2v-55.1c0-0.6-0.5-1.2-1.1-1.2h-7.5v-3.2h9.6c1.2,0,2.1,1,2.1,2.2v59.4
		c0,1.2-1,2.2-2.1,2.2h-45.1c-1.2,0-2.1-1-2.1-2.2V113.8z"/>
	<path class="verificarFondo" d="M132,213c-37,0-67-30.9-67-68.9c0-38,30.1-68.9,67-68.9c36.9,0,67,30.9,67,68.9C199.1,182.1,169,213,132,213
		 M132,78.3c-35.3,0-63.9,29.5-63.9,65.8c0,36.3,28.7,65.8,63.9,65.8c35.3,0,63.9-29.5,63.9-65.8C196,107.8,167.3,78.3,132,78.3z"/>
	<path class="verificarPorcentaje" d="M132,76.7c35.9,0,65.5,30.4,65.5,67.3c0,36.9-29.6,67.3-65.5,67.3c-21.8,0-42.2-11.2-54.4-29.8"/>
	<path class="verificarTXT" d="M256,26.5h3.3c0.3,0,0.6,0,0.9-0.1c0.3-0.1,0.5-0.2,0.7-0.4c0.2-0.2,0.4-0.5,0.5-0.8c0.1-0.3,0.2-0.8,0.2-1.4
		c0-0.5-0.1-0.9-0.2-1.3c-0.1-0.3-0.3-0.6-0.5-0.8c-0.2-0.2-0.4-0.3-0.7-0.4c-0.3-0.1-0.6-0.1-0.9-0.1H256V26.5z M252.3,36.3V17.8
		h7.7c0.7,0,1.4,0.1,2,0.3c0.6,0.2,1.2,0.5,1.7,0.9c0.5,0.4,0.9,1,1.1,1.8c0.3,0.8,0.4,1.8,0.4,3c0,0.9-0.1,1.6-0.3,2.2
		c-0.2,0.6-0.4,1.1-0.7,1.5c-0.3,0.4-0.6,0.7-0.9,0.9c-0.4,0.2-0.7,0.4-1.1,0.6l3.5,7.4H262l-3-6.9c-0.2,0-0.4,0-0.7,0
		c-0.3,0-0.5,0-0.8,0c-0.3,0-0.5,0-0.8,0c-0.3,0-0.5,0-0.7,0v6.9H252.3z M239.9,29.1h4.5l-2.3-8.1L239.9,29.1z M234,36.3l5.8-18.5
		h4.7l5.8,18.5h-3.9l-1.2-3.9H239l-1.2,3.9H234z M226.8,36.5c-1.1,0-2-0.1-2.9-0.4c-0.8-0.2-1.5-0.7-2.1-1.4c-0.6-0.7-1-1.6-1.3-2.9
		c-0.3-1.2-0.4-2.9-0.4-4.8c0-1.9,0.2-3.5,0.5-4.7c0.3-1.2,0.8-2.2,1.3-2.8c0.6-0.7,1.3-1.1,2.1-1.4c0.8-0.3,1.8-0.4,2.8-0.4
		c0.8,0,1.6,0,2.3,0.1c0.7,0.1,1.4,0.2,2,0.3c0.6,0.1,1.1,0.3,1.5,0.4v2.9c-0.3-0.1-0.7-0.1-1.2-0.2c-0.5-0.1-1.1-0.1-1.7-0.2
		c-0.6,0-1.3-0.1-2-0.1c-0.7,0-1.3,0.1-1.8,0.2c-0.5,0.2-0.9,0.4-1.2,0.9c-0.3,0.4-0.5,1-0.6,1.8c-0.1,0.8-0.2,1.8-0.2,3.1
		c0,1.2,0.1,2.3,0.2,3c0.1,0.8,0.3,1.4,0.6,1.9c0.3,0.4,0.7,0.8,1.2,0.9c0.5,0.2,1.1,0.3,1.9,0.3c1.3,0,2.3,0,3.1-0.1
		c0.8,0,1.4-0.1,1.9-0.2v2.9c-0.4,0.1-1,0.3-1.5,0.4c-0.6,0.1-1.2,0.2-1.9,0.3C228.4,36.4,227.7,36.5,226.8,36.5z M213.7,36.3V17.8
		h3.7v18.5H213.7z M199.1,36.3V22c0-0.8,0.1-1.5,0.4-2.1c0.3-0.6,0.6-1,1-1.3c0.4-0.3,0.9-0.5,1.4-0.7c0.5-0.1,1-0.2,1.5-0.2
		c0.6,0,1.3,0,2.2,0c0.9,0,1.8,0,2.8,0.1c1,0,2,0.1,2.9,0.2v3.1h-7c-0.5,0-0.9,0.1-1.2,0.4c-0.3,0.3-0.4,0.6-0.4,1.1v3.1l7.3,0.2V29
		l-7.3,0.2v7.1H199.1z M192.2,36.3V17.8h3.7v18.5H192.2z M180.2,26.5h3.3c0.3,0,0.6,0,0.9-0.1c0.3-0.1,0.5-0.2,0.7-0.4
		c0.2-0.2,0.4-0.5,0.5-0.8c0.1-0.3,0.2-0.8,0.2-1.4c0-0.5-0.1-0.9-0.2-1.3c-0.1-0.3-0.3-0.6-0.5-0.8c-0.2-0.2-0.4-0.3-0.7-0.4
		c-0.3-0.1-0.6-0.1-0.9-0.1h-3.3V26.5z M176.5,36.3V17.8h7.7c0.7,0,1.4,0.1,2,0.3c0.6,0.2,1.2,0.5,1.7,0.9c0.5,0.4,0.9,1,1.1,1.8
		c0.3,0.8,0.4,1.8,0.4,3c0,0.9-0.1,1.6-0.3,2.2c-0.2,0.6-0.4,1.1-0.7,1.5c-0.3,0.4-0.6,0.7-0.9,0.9c-0.4,0.2-0.7,0.4-1.1,0.6
		l3.5,7.4h-3.8l-3-6.9c-0.2,0-0.4,0-0.7,0c-0.3,0-0.5,0-0.8,0c-0.3,0-0.5,0-0.8,0c-0.3,0-0.5,0-0.7,0v6.9H176.5z M166.1,36.4
		c-0.4,0-0.9,0-1.4-0.1c-0.5-0.1-1-0.2-1.5-0.5c-0.5-0.3-0.9-0.7-1.2-1.2c-0.3-0.5-0.5-1.3-0.5-2.2V22c0-0.8,0.1-1.5,0.4-2.1
		c0.3-0.6,0.6-1,1-1.3c0.4-0.3,0.9-0.5,1.4-0.7c0.5-0.1,1-0.2,1.5-0.2c1.2,0,2.4,0,3.3,0.1c1,0,1.8,0.1,2.6,0.1
		c0.8,0,1.5,0.1,2.1,0.2v3.1h-6.9c-0.5,0-0.9,0.1-1.2,0.4c-0.3,0.2-0.4,0.6-0.4,1.1v2.7l7.3,0.2v2.9l-7.3,0.2v2.5
		c0,0.4,0.1,0.8,0.2,1c0.1,0.2,0.3,0.4,0.6,0.5c0.2,0.1,0.5,0.1,0.8,0.1h7v3.1c-0.7,0.1-1.5,0.2-2.4,0.2c-0.9,0-1.8,0.1-2.7,0.1
		C167.8,36.4,166.9,36.4,166.1,36.4z M149.7,36.3l-5.8-18.5h3.8l4.3,14.5l4.3-14.5h3.8l-5.8,18.5H149.7z"/>
	<path class="relevarTXT" d="M355.2,300.5h3.3c0.3,0,0.6,0,0.9-0.1c0.3-0.1,0.5-0.2,0.7-0.4c0.2-0.2,0.4-0.5,0.5-0.8
		c0.1-0.3,0.2-0.8,0.2-1.4c0-0.5-0.1-0.9-0.2-1.3c-0.1-0.3-0.3-0.6-0.5-0.8c-0.2-0.2-0.4-0.3-0.7-0.4c-0.3-0.1-0.6-0.1-0.9-0.1h-3.3
		V300.5z M351.5,310.4v-18.5h7.6c0.7,0,1.4,0.1,2,0.3c0.6,0.2,1.2,0.5,1.7,0.9c0.5,0.4,0.9,1,1.1,1.8c0.3,0.8,0.4,1.8,0.4,3
		c0,0.9-0.1,1.6-0.3,2.2c-0.2,0.6-0.4,1.1-0.7,1.5c-0.3,0.4-0.6,0.7-0.9,0.9c-0.4,0.2-0.7,0.4-1.1,0.6l3.5,7.4h-3.8l-3-6.9
		c-0.2,0-0.4,0-0.7,0c-0.3,0-0.5,0-0.8,0c-0.3,0-0.5,0-0.8,0s-0.5,0-0.7,0v6.9H351.5z M339,303.2h4.5l-2.3-8.1L339,303.2z
		 M333.2,310.4l5.8-18.5h4.7l5.8,18.5h-3.9l-1.2-3.9h-6.3l-1.2,3.9H333.2z M322.7,310.4l-5.8-18.5h3.8l4.3,14.5l4.3-14.5h3.8
		l-5.8,18.5H322.7z M307.7,310.5c-0.4,0-0.9,0-1.4-0.1c-0.5-0.1-1-0.2-1.5-0.5c-0.5-0.3-0.9-0.7-1.2-1.2c-0.3-0.5-0.5-1.3-0.5-2.2
		v-10.3c0-0.8,0.1-1.5,0.4-2.1c0.3-0.6,0.6-1,1-1.3c0.4-0.3,0.9-0.5,1.4-0.7c0.5-0.1,1-0.2,1.5-0.2c1.2,0,2.4,0,3.3,0.1
		c1,0,1.8,0.1,2.6,0.1c0.8,0,1.5,0.1,2.1,0.2v3.1h-6.9c-0.5,0-0.9,0.1-1.2,0.4c-0.3,0.2-0.4,0.6-0.4,1.1v2.7l7.3,0.2v2.9l-7.3,0.2
		v2.5c0,0.4,0.1,0.8,0.2,1c0.1,0.2,0.3,0.4,0.6,0.5c0.2,0.1,0.5,0.1,0.8,0.1h7v3.1c-0.7,0.1-1.5,0.1-2.4,0.2c-0.9,0-1.8,0.1-2.7,0.1
		C309.3,310.5,308.5,310.5,307.7,310.5z M294.2,310.4c-0.9,0-1.8-0.1-2.4-0.4c-0.7-0.3-1.1-0.8-1.5-1.4c-0.3-0.6-0.5-1.5-0.5-2.5
		v-14.1h3.7v13.5c0,0.4,0.1,0.7,0.2,1c0.1,0.3,0.3,0.4,0.6,0.5c0.2,0.1,0.5,0.1,0.8,0.1h5.9v3.3H294.2z M279.4,310.5
		c-0.4,0-0.9,0-1.4-0.1c-0.5-0.1-1-0.2-1.5-0.5c-0.5-0.3-0.9-0.7-1.2-1.2c-0.3-0.5-0.5-1.3-0.5-2.2v-10.3c0-0.8,0.1-1.5,0.4-2.1
		c0.3-0.6,0.6-1,1-1.3c0.4-0.3,0.9-0.5,1.4-0.7c0.5-0.1,1-0.2,1.5-0.2c1.2,0,2.4,0,3.3,0.1c1,0,1.8,0.1,2.6,0.1
		c0.8,0,1.5,0.1,2.1,0.2v3.1h-6.9c-0.5,0-0.9,0.1-1.2,0.4c-0.3,0.2-0.4,0.6-0.4,1.1v2.7l7.3,0.2v2.9l-7.3,0.2v2.5
		c0,0.4,0.1,0.8,0.2,1c0.1,0.2,0.3,0.4,0.6,0.5c0.2,0.1,0.5,0.1,0.8,0.1h7v3.1c-0.7,0.1-1.5,0.1-2.4,0.2c-0.9,0-1.8,0.1-2.7,0.1
		C281,310.5,280.2,310.5,279.4,310.5z M262.9,300.5h3.3c0.3,0,0.6,0,0.9-0.1c0.3-0.1,0.5-0.2,0.7-0.4c0.2-0.2,0.4-0.5,0.5-0.8
		c0.1-0.3,0.2-0.8,0.2-1.4c0-0.5-0.1-0.9-0.2-1.3c-0.1-0.3-0.3-0.6-0.5-0.8c-0.2-0.2-0.4-0.3-0.7-0.4c-0.3-0.1-0.6-0.1-0.9-0.1h-3.3
		V300.5z M259.2,310.4v-18.5h7.7c0.7,0,1.4,0.1,2,0.3c0.6,0.2,1.2,0.5,1.7,0.9c0.5,0.4,0.9,1,1.1,1.8c0.3,0.8,0.4,1.8,0.4,3
		c0,0.9-0.1,1.6-0.3,2.2c-0.2,0.6-0.4,1.1-0.7,1.5c-0.3,0.4-0.6,0.7-0.9,0.9c-0.4,0.2-0.7,0.4-1.1,0.6l3.5,7.4h-3.8l-3-6.9
		c-0.2,0-0.4,0-0.7,0c-0.3,0-0.5,0-0.8,0c-0.3,0-0.5,0-0.8,0s-0.5,0-0.7,0v6.9H259.2z"/>
	<path class="procederTXT" d="M615.4,26.5h3.3c0.3,0,0.6,0,0.9-0.1c0.3-0.1,0.5-0.2,0.7-0.4c0.2-0.2,0.4-0.5,0.5-0.8
		c0.1-0.3,0.2-0.8,0.2-1.4c0-0.5-0.1-0.9-0.2-1.3c-0.1-0.3-0.3-0.6-0.5-0.8c-0.2-0.2-0.4-0.3-0.7-0.4c-0.3-0.1-0.6-0.1-0.9-0.1h-3.3
		V26.5z M611.7,36.3V17.8h7.7c0.7,0,1.4,0.1,2,0.3c0.6,0.2,1.2,0.5,1.7,0.9c0.5,0.4,0.9,1,1.1,1.8c0.3,0.8,0.4,1.8,0.4,3
		c0,0.9-0.1,1.6-0.3,2.2c-0.2,0.6-0.4,1.1-0.7,1.5c-0.3,0.4-0.6,0.7-0.9,0.9c-0.4,0.2-0.7,0.4-1.1,0.6l3.5,7.4h-3.8l-3-6.9
		c-0.2,0-0.4,0-0.7,0c-0.3,0-0.5,0-0.8,0c-0.3,0-0.5,0-0.8,0c-0.3,0-0.5,0-0.7,0v6.9H611.7z M601.2,36.4c-0.4,0-0.9,0-1.4-0.1
		c-0.5-0.1-1-0.2-1.5-0.5c-0.5-0.3-0.9-0.7-1.2-1.2c-0.3-0.5-0.5-1.3-0.5-2.2V22c0-0.8,0.1-1.5,0.4-2.1c0.3-0.6,0.6-1,1-1.3
		c0.4-0.3,0.9-0.5,1.4-0.7c0.5-0.1,1-0.2,1.5-0.2c1.2,0,2.4,0,3.3,0.1c1,0,1.8,0.1,2.6,0.1c0.8,0,1.5,0.1,2.1,0.2v3.1h-6.9
		c-0.5,0-0.9,0.1-1.2,0.4c-0.3,0.2-0.4,0.6-0.4,1.1v2.7l7.3,0.2v2.9l-7.3,0.2v2.5c0,0.4,0.1,0.8,0.2,1c0.1,0.2,0.3,0.4,0.6,0.5
		c0.2,0.1,0.5,0.1,0.8,0.1h7v3.1c-0.7,0.1-1.5,0.2-2.4,0.2c-0.9,0-1.8,0.1-2.7,0.1C602.9,36.4,602.1,36.4,601.2,36.4z M583.4,33h3.7
		c0.8,0,1.4-0.2,1.8-0.7c0.4-0.4,0.8-1.1,1-2c0.2-0.9,0.3-2,0.3-3.3c0-1.2-0.1-2.2-0.2-3c-0.1-0.8-0.3-1.4-0.6-1.8
		c-0.3-0.4-0.6-0.7-1-0.9c-0.4-0.2-0.8-0.2-1.4-0.2h-3.7V33z M579.7,36.3V17.8h7.8c1.2,0,2.3,0.2,3.1,0.7c0.8,0.4,1.5,1.1,2,1.9
		c0.5,0.8,0.8,1.8,1,2.9c0.2,1.1,0.3,2.4,0.3,3.8c0,2.1-0.2,3.8-0.7,5.2c-0.5,1.4-1.2,2.4-2.1,3.1c-0.9,0.7-2.1,1-3.6,1H579.7z
		 M569.3,36.4c-0.4,0-0.9,0-1.4-0.1c-0.5-0.1-1-0.2-1.5-0.5c-0.5-0.3-0.9-0.7-1.2-1.2c-0.3-0.5-0.5-1.3-0.5-2.2V22
		c0-0.8,0.1-1.5,0.4-2.1c0.3-0.6,0.6-1,1-1.3c0.4-0.3,0.9-0.5,1.4-0.7c0.5-0.1,1-0.2,1.5-0.2c1.2,0,2.4,0,3.3,0.1
		c1,0,1.8,0.1,2.6,0.1c0.8,0,1.5,0.1,2.1,0.2v3.1h-6.9c-0.5,0-0.9,0.1-1.2,0.4c-0.3,0.2-0.4,0.6-0.4,1.1v2.7l7.3,0.2v2.9l-7.3,0.2
		v2.5c0,0.4,0.1,0.8,0.2,1c0.1,0.2,0.3,0.4,0.6,0.5c0.2,0.1,0.5,0.1,0.8,0.1h7v3.1c-0.7,0.1-1.5,0.2-2.4,0.2c-0.9,0-1.8,0.1-2.7,0.1
		C571,36.4,570.1,36.4,569.3,36.4z M556.6,36.5c-1.1,0-2-0.1-2.9-0.4c-0.8-0.2-1.5-0.7-2.1-1.4c-0.6-0.7-1-1.6-1.3-2.9
		c-0.3-1.2-0.4-2.9-0.4-4.8c0-1.9,0.2-3.5,0.5-4.7c0.3-1.2,0.8-2.2,1.3-2.8c0.6-0.7,1.3-1.1,2.1-1.4c0.8-0.3,1.8-0.4,2.8-0.4
		c0.8,0,1.6,0,2.3,0.1c0.7,0.1,1.4,0.2,2,0.3c0.6,0.1,1.1,0.3,1.5,0.4v2.9c-0.3-0.1-0.7-0.1-1.2-0.2c-0.5-0.1-1.1-0.1-1.7-0.2
		c-0.6,0-1.3-0.1-2-0.1c-0.7,0-1.3,0.1-1.8,0.2c-0.5,0.2-0.9,0.4-1.2,0.9c-0.3,0.4-0.5,1-0.6,1.8c-0.1,0.8-0.2,1.8-0.2,3.1
		c0,1.2,0.1,2.3,0.2,3c0.1,0.8,0.3,1.4,0.6,1.9c0.3,0.4,0.7,0.8,1.2,0.9c0.5,0.2,1.1,0.3,1.9,0.3c1.3,0,2.3,0,3.1-0.1
		c0.8,0,1.4-0.1,1.9-0.2v2.9c-0.5,0.1-1,0.3-1.5,0.4c-0.6,0.1-1.2,0.2-1.9,0.3C558.3,36.4,557.5,36.5,556.6,36.5z M540.1,33.1
		c0.8,0,1.4-0.1,1.9-0.3c0.5-0.2,0.9-0.5,1.2-0.9c0.3-0.4,0.5-1,0.6-1.8c0.1-0.8,0.2-1.8,0.2-3.1c0-1.3-0.1-2.4-0.2-3.2
		c-0.1-0.8-0.3-1.4-0.6-1.8c-0.3-0.4-0.7-0.7-1.2-0.9c-0.5-0.1-1.1-0.2-1.9-0.2c-0.7,0-1.3,0.1-1.8,0.2c-0.5,0.2-0.9,0.4-1.2,0.9
		c-0.3,0.4-0.5,1-0.7,1.8c-0.1,0.8-0.2,1.9-0.2,3.2c0,1.3,0.1,2.3,0.2,3.1c0.1,0.8,0.3,1.4,0.6,1.8c0.3,0.4,0.7,0.7,1.2,0.9
		C538.7,33.1,539.3,33.1,540.1,33.1z M540.1,36.5c-1.3,0-2.4-0.1-3.3-0.4c-0.9-0.2-1.7-0.7-2.4-1.3c-0.6-0.7-1.1-1.6-1.4-2.8
		c-0.3-1.2-0.5-2.8-0.5-4.8c0-2,0.2-3.6,0.5-4.8c0.3-1.2,0.8-2.2,1.4-2.9c0.6-0.7,1.4-1.1,2.4-1.4c1-0.3,2.1-0.4,3.3-0.4
		c1.3,0,2.4,0.1,3.3,0.4c0.9,0.2,1.7,0.7,2.4,1.4c0.6,0.7,1.1,1.6,1.4,2.9c0.3,1.2,0.5,2.9,0.5,4.8c0,2-0.2,3.6-0.5,4.8
		c-0.3,1.2-0.8,2.2-1.4,2.8c-0.6,0.7-1.4,1.1-2.4,1.3C542.5,36.3,541.3,36.5,540.1,36.5z M521,26.5h3.3c0.3,0,0.6,0,0.9-0.1
		c0.3-0.1,0.5-0.2,0.7-0.4c0.2-0.2,0.4-0.5,0.5-0.8c0.1-0.3,0.2-0.8,0.2-1.4c0-0.5-0.1-0.9-0.2-1.3c-0.1-0.3-0.3-0.6-0.5-0.8
		c-0.2-0.2-0.4-0.3-0.7-0.4c-0.3-0.1-0.6-0.1-0.9-0.1H521V26.5z M517.3,36.3V17.8h7.7c0.7,0,1.4,0.1,2,0.3c0.6,0.2,1.2,0.5,1.7,0.9
		c0.5,0.4,0.9,1,1.1,1.8c0.3,0.8,0.4,1.8,0.4,3c0,0.9-0.1,1.6-0.3,2.2c-0.2,0.6-0.4,1.1-0.7,1.5c-0.3,0.4-0.6,0.7-0.9,0.9
		c-0.4,0.2-0.7,0.4-1.1,0.6l3.5,7.4h-3.8l-3-6.9c-0.2,0-0.4,0-0.7,0c-0.3,0-0.5,0-0.8,0c-0.3,0-0.5,0-0.8,0c-0.3,0-0.5,0-0.7,0v6.9
		H517.3z M505.4,27.3h3.7c0.4,0,0.8-0.1,1.1-0.3c0.3-0.2,0.5-0.5,0.7-1c0.1-0.5,0.2-1.1,0.2-1.8c0-0.8-0.1-1.3-0.2-1.8
		c-0.2-0.4-0.4-0.8-0.7-1c-0.3-0.2-0.6-0.3-1-0.3h-3.8V27.3z M501.7,36.3V17.8h7.8c0.6,0,1.2,0.1,1.8,0.2c0.6,0.1,1.2,0.4,1.7,0.9
		c0.5,0.4,0.9,1.1,1.3,1.9c0.3,0.9,0.5,2,0.5,3.4c0,1.4-0.2,2.5-0.5,3.4c-0.3,0.9-0.7,1.5-1.3,2c-0.5,0.4-1.1,0.8-1.7,0.9
		c-0.6,0.2-1.2,0.2-1.7,0.2c-0.3,0-0.7,0-1.1,0c-0.4,0-0.8-0.1-1.2-0.1c-0.4,0-0.8-0.1-1.1-0.1c-0.3,0-0.6-0.1-0.9-0.1v6H501.7z"/>
	<path class="registrarTXT" d="M725.1,300.5h3.3c0.3,0,0.6,0,0.9-0.1c0.3-0.1,0.5-0.2,0.7-0.4c0.2-0.2,0.4-0.5,0.5-0.8
		c0.1-0.3,0.2-0.8,0.2-1.4c0-0.5-0.1-0.9-0.2-1.3c-0.1-0.3-0.3-0.6-0.5-0.8c-0.2-0.2-0.4-0.3-0.7-0.4c-0.3-0.1-0.6-0.1-0.9-0.1h-3.3
		V300.5z M721.4,310.4v-18.5h7.7c0.7,0,1.4,0.1,2,0.3c0.6,0.2,1.2,0.5,1.7,0.9c0.5,0.4,0.9,1,1.1,1.8c0.3,0.8,0.4,1.8,0.4,3
		c0,0.9-0.1,1.6-0.3,2.2c-0.2,0.6-0.4,1.1-0.7,1.5c-0.3,0.4-0.6,0.7-0.9,0.9c-0.4,0.2-0.7,0.4-1.1,0.6l3.5,7.4h-3.8l-3-6.9
		c-0.2,0-0.4,0-0.7,0c-0.3,0-0.5,0-0.8,0c-0.3,0-0.5,0-0.8,0c-0.3,0-0.5,0-0.7,0v6.9H721.4z M708.9,303.2h4.5l-2.3-8.1L708.9,303.2z
		 M703.1,310.4l5.8-18.5h4.7l5.8,18.5h-3.9l-1.2-3.9h-6.3l-1.2,3.9H703.1z M692.3,300.5h3.3c0.3,0,0.6,0,0.9-0.1
		c0.3-0.1,0.5-0.2,0.7-0.4c0.2-0.2,0.4-0.5,0.5-0.8c0.1-0.3,0.2-0.8,0.2-1.4c0-0.5-0.1-0.9-0.2-1.3c-0.1-0.3-0.3-0.6-0.5-0.8
		c-0.2-0.2-0.4-0.3-0.7-0.4c-0.3-0.1-0.6-0.1-0.9-0.1h-3.3V300.5z M688.6,310.4v-18.5h7.7c0.7,0,1.4,0.1,2,0.3
		c0.6,0.2,1.2,0.5,1.7,0.9c0.5,0.4,0.9,1,1.1,1.8c0.3,0.8,0.4,1.8,0.4,3c0,0.9-0.1,1.6-0.3,2.2c-0.2,0.6-0.4,1.1-0.7,1.5
		c-0.3,0.4-0.6,0.7-0.9,0.9c-0.4,0.2-0.7,0.4-1.1,0.6l3.5,7.4h-3.8l-3-6.9c-0.2,0-0.4,0-0.7,0c-0.3,0-0.5,0-0.8,0
		c-0.3,0-0.5,0-0.8,0s-0.5,0-0.7,0v6.9H688.6z M677.8,310.4v-15.2h-5.1v-3.3h13.9v3.3h-5.1v15.2H677.8z M664.8,310.5
		c-0.5,0-1,0-1.5,0c-0.5,0-1-0.1-1.5-0.1c-0.5-0.1-1-0.1-1.5-0.2c-0.5-0.1-0.9-0.2-1.3-0.3V307c0.5,0.1,1.1,0.1,1.7,0.1
		c0.6,0,1.3,0.1,2,0.1c0.7,0,1.3,0,2,0c0.6,0,1.2-0.1,1.6-0.2c0.5-0.1,0.8-0.3,1.1-0.6c0.2-0.3,0.4-0.7,0.4-1.1v-0.7
		c0-0.6-0.2-1-0.5-1.3c-0.3-0.3-0.8-0.4-1.4-0.4h-1.6c-1.8,0-3.1-0.4-4.1-1.2c-0.9-0.8-1.4-2.1-1.4-4v-0.9c0-1.8,0.5-3.1,1.5-4
		c1-0.8,2.5-1.3,4.4-1.3c0.7,0,1.4,0,2,0.1c0.7,0.1,1.3,0.1,2,0.2c0.6,0.1,1.2,0.2,1.6,0.3v2.9c-0.8,0-1.6-0.1-2.6-0.1
		c-0.9,0-1.8-0.1-2.6-0.1c-0.6,0-1.1,0.1-1.5,0.2c-0.4,0.1-0.8,0.3-1,0.6c-0.2,0.3-0.4,0.7-0.4,1.3v0.5c0,0.6,0.2,1.1,0.6,1.4
		c0.4,0.3,0.9,0.4,1.6,0.4h1.8c1.1,0,2,0.2,2.8,0.6c0.7,0.4,1.3,1,1.6,1.7c0.4,0.7,0.5,1.5,0.5,2.5v1.1c0,1.4-0.3,2.6-0.8,3.3
		c-0.5,0.8-1.3,1.3-2.3,1.6C667.2,310.4,666.1,310.5,664.8,310.5z M652.3,310.4v-18.5h3.7v18.5H652.3z M640.9,310.5
		c-1.2,0-2.1-0.2-2.9-0.7c-0.7-0.4-1.3-1.1-1.7-1.9c-0.4-0.8-0.7-1.8-0.9-3c-0.2-1.1-0.2-2.4-0.2-3.9c0-1.5,0.1-2.8,0.3-4
		c0.2-1.2,0.5-2.2,1-3c0.5-0.8,1.2-1.4,2.1-1.8c0.9-0.4,2-0.6,3.4-0.6c0.9,0,1.6,0,2.3,0.1c0.7,0.1,1.4,0.2,2,0.3
		c0.6,0.1,1.3,0.3,1.9,0.4v2.9c-0.3-0.1-0.8-0.1-1.4-0.1c-0.6-0.1-1.2-0.1-2-0.1c-0.7,0-1.5-0.1-2.2-0.1c-1.1,0-1.8,0.2-2.4,0.6
		c-0.5,0.4-0.9,1-1.1,1.9c-0.2,0.9-0.3,2.1-0.3,3.7c0,1.2,0.1,2.2,0.2,3s0.3,1.4,0.5,1.8c0.3,0.4,0.6,0.8,1,0.9
		c0.4,0.2,0.9,0.3,1.5,0.3c0.7,0,1.3-0.1,2-0.2c0.6-0.1,1.1-0.2,1.5-0.3V303h-3.3V300c0.3,0,0.8-0.1,1.2-0.1c0.5,0,1-0.1,1.5-0.1
		c0.5,0,1,0,1.5,0c0.5,0,1,0,1.4,0c0.4,0,0.8,0,1.2,0.1v10.5h-2.8l-0.5-1.2c-0.5,0.3-1.2,0.6-2.1,0.9
		C642.9,310.3,641.9,310.5,640.9,310.5z M625.2,310.5c-0.4,0-0.9,0-1.4-0.1c-0.5-0.1-1-0.2-1.5-0.5c-0.5-0.3-0.9-0.7-1.2-1.2
		s-0.5-1.3-0.5-2.2v-10.3c0-0.8,0.1-1.5,0.4-2.1c0.3-0.6,0.6-1,1-1.3c0.4-0.3,0.9-0.5,1.4-0.7c0.5-0.1,1-0.2,1.5-0.2
		c1.2,0,2.4,0,3.3,0.1c1,0,1.8,0.1,2.6,0.1c0.8,0,1.5,0.1,2.1,0.2v3.1h-6.9c-0.5,0-0.9,0.1-1.2,0.4c-0.3,0.2-0.4,0.6-0.4,1.1v2.7
		l7.3,0.2v2.9l-7.3,0.2v2.5c0,0.4,0.1,0.8,0.2,1c0.1,0.2,0.3,0.4,0.6,0.5c0.2,0.1,0.5,0.1,0.8,0.1h7v3.1c-0.7,0.1-1.5,0.1-2.4,0.2
		c-0.9,0-1.8,0.1-2.7,0.1C626.9,310.5,626.1,310.5,625.2,310.5z M608.8,300.5h3.3c0.3,0,0.6,0,0.9-0.1c0.3-0.1,0.5-0.2,0.7-0.4
		c0.2-0.2,0.4-0.5,0.5-0.8c0.1-0.3,0.2-0.8,0.2-1.4c0-0.5-0.1-0.9-0.2-1.3c-0.1-0.3-0.3-0.6-0.5-0.8c-0.2-0.2-0.4-0.3-0.7-0.4
		c-0.3-0.1-0.6-0.1-0.9-0.1h-3.3V300.5z M605.1,310.4v-18.5h7.7c0.7,0,1.4,0.1,2,0.3c0.6,0.2,1.2,0.5,1.7,0.9c0.5,0.4,0.9,1,1.1,1.8
		c0.3,0.8,0.4,1.8,0.4,3c0,0.9-0.1,1.6-0.3,2.2s-0.4,1.1-0.7,1.5c-0.3,0.4-0.6,0.7-0.9,0.9c-0.4,0.2-0.7,0.4-1.1,0.6l3.5,7.4h-3.8
		l-3-6.9c-0.2,0-0.4,0-0.7,0c-0.3,0-0.5,0-0.8,0c-0.3,0-0.5,0-0.8,0s-0.5,0-0.7,0v6.9H605.1z"/>
</g>
</svg>
