<?xml version="1.0" encoding="utf-8"?>
<!-- Generator: Adobe Illustrator 24.0.2, SVG Export Plug-In . SVG Version: 6.00 Build 0)  -->
<svg version="1.1" id="Capa_1" xmlns="http://www.w3.org/2000/svg" xmlns:xlink="http://www.w3.org/1999/xlink" x="0px" y="0px"
	 viewBox="0 0 859.3 866.4" style="enable-background:new 0 0 859.3 866.4;" xml:space="preserve">
<style type="text/css">
	.st0{fill-rule:evenodd;clip-rule:evenodd;fill:#333333;}
	.st1{fill:#231F20;}
</style>
<g>
	<path class="st0" d="M108.1,451.4c-7,0-9.9,0.5-15.1,4.5c-3,2.3-6.6,7.9-6.6,12.9v52.6c0,3.1,2.4,6.1,4.2,7.2
		c3.3,2,8.1,0.8,8.1,3.8v25.9c0,3.6-3.9,3-6.4,3c-0.1-4.1-3.3-8.7-5.8-10.8c-6.4-5.4-15.9-6.7-15.9-2.4V628c0,4.2,11.3,4,18.6-5.2
		c4-5.1,3.5-11.5,3.5-17.3h25.9c1.5,0,5.7,6.4,14.9,6.4c15.1,0,23.3-16.7,16.8-27.8c-0.7-1.3-0.9-0.9-1.1-2.7l0-45
		c5.2,1.2,10.1,2.7,15.5,4.1c6.8,1.8,4.7-5.2,7.5-10.9l32.2,8.5c1.7,0.5,3.4,0.8,5.4,1.4c11.8,3.4,22.8-1.4,27.4-11.6
		c3.1-6.8,2.8-14.3-1.1-20.7c-1.3-2.2-2.9-4.2-4.9-5.7l-2.1-1.7c1.9-0.4,19.7-11.1,22.5-12.7c1.4-0.8,3.5-1.6,4.2-3
		c0.9-1.9-0.1-3.7-1.8-4.5L214.8,469c-3.9-1.1-7.4-1.9-11.4-3.1c-3.8-1.1-7.2-2-11.1-2.9c-4-1-7.6-2.1-11.4-3.1
		c-14.7-3.6-30-8.3-44.8-12.1c-2.4-0.6-21.1-5.9-23-5.9C109.1,442,109.6,448.2,108.1,451.4 M107.2,479.4c-0.8,3.4-1.9,6.8-2.8,10.4
		l-4.2,15.4c-0.6,2.1-0.8,3.4,0.7,4.7c0.9,0.8,8.4,2.9,10.1,3.1c0,1.7-1.2,5.4-1.7,6.8c-2,6.8,1.2,6,7.7,7.9
		c2.4,0.7,4.7,1.3,7.1,1.8l0,41.6c0,2.6,0.5,4.5-0.9,5.9c-0.8,0.7-1,0.6-1.9,1.5c-0.7,0.7-1.2,1.6-2.2,1.6H92.8v-12.3h3.8
		c5.1,0,8.9-5,8.9-10.2c0-5.8,0.8-24.9-1.1-28.6c-1.9-3.6-4.3-4.8-8.3-5.3c-1.7-0.2-3.4-0.7-3.4-3.4v-49.7c0-7.6,5.8-12.7,13.6-12.7
		c-0.2,2-1,4-1.5,6.1C102.6,473,98.7,478.7,107.2,479.4z M115.3,449.3c2.4,0.2,5.9,1.5,8.2,2c13.2,3.2,27,7.4,40.2,10.8
		c5.2,1.3,10.7,2.7,16.1,4.3l60.3,16.1c1.4,0.4,2.9,0.6,4,1.1c-0.7,0.9-8.2,5.1-9.8,5.9l-9.9,5.8c-3.5,2.2-4.5,1-11.8-1l-37.9-10.1
		c-4.4-1.1-8-2.2-12.4-3.3c-10.9-2.7-10.2-4.3-19.8-2c-7.3,1.7-5.9,1.9-13.1-0.3l-13.1-3.5c-1.5-0.4-5.2-1.6-6.8-1.6
		c0-1.8,0.8-4.3,1.3-5.9c0.5-2,1.1-4.1,1.6-6C112.9,458.9,115.2,451.4,115.3,449.3z M210,532.9l-25.4-6.9c-4-1.1-8.4-2.2-12.7-3.5
		l-64.7-17.3l6.4-24.2c1.1,0.5,4.8,1.4,6.3,1.8l12.7,3.4c4.1,1.1,7.9-0.3,13.6-1.5c3.4-0.7,3-0.6,6.6,0.4l65.2,17.6l-6,22.4
		C211.4,527.7,210.6,530.3,210,532.9z M216.3,534.2l7.6-29.3c5.5,1.3,10,9.4,8.3,17.6C230.8,529.2,224.5,534.2,216.3,534.2z
		 M116.1,520.2c0-1.6,1.1-3.5,1.3-5.5l42.1,11.4c1.5,0.4,5.2,1.3,6.3,1.8c-0.4,1.8-1.2,3.3-1.3,5.5c-2.4-0.1-21.7-5.4-24.4-6.2
		l-18.1-4.8C120.6,521.9,116.1,521,116.1,520.2z M130.6,531.2l12.3,3.4v41.6c-5.1-2.4-7-2.1-12.3-2.1V531.2z M114.4,592.8
		c-0.1,1.2,1,5.6,1.3,6.4H92.8v-12.3h22.5L114.4,592.8z M121.2,594c0-3.9,0.4-7,3.5-10.1c6.3-6.3,21.1-4.7,21.1,10.1
		c0,3.1-1.9,5.9-3.5,7.6C134.8,609.1,121.2,603.7,121.2,594z M77.1,623.8v-71.3c4.9,2.4,9.3,4.5,9.3,13.2v45
		C86.4,619.2,82,621.4,77.1,623.8z"/>
	<path class="st0" d="M246.5,533c0,2.4,1.5,3.1,3.6,3.7c2.8,0.8,9.2,3.3,9.2-2c0-3.6-8.4-4.7-10.2-4.7
		C247.8,530,246.5,531.8,246.5,533"/>
	<path class="st0" d="M259.2,519.4c0-4.4-1.8-4.5-5.9-3.4c-2.6,0.7-6.3,0.9-6.6,3.9C246.1,526.7,259.2,521.9,259.2,519.4"/>
	<path class="st0" d="M240.1,544.5c0,1.3,4.2,7.6,8.5,7.6c1.2,0,2.5-1.8,2.5-3c0-2-5.6-8.4-8.3-7.8
		C241.5,541.6,240.1,543.1,240.1,544.5"/>
	<path class="st0" d="M133.6,598.8c1.5,0,2.9-1.2,3.2-2.7c0.9-4.7-6.9-5.1-6.5-0.3C130.4,597.2,131.8,598.8,133.6,598.8"/>
	<path class="st0" d="M203.6,511.8c0,4.8,6.4,4,6.4,0.4C210,507.8,203.6,507.5,203.6,511.8"/>
	<path class="st0" d="M340.4,457.7v43.1c0,7.7,9,16.8,19.5,15.6c17.1-1.9,16.4-17.2,16.4-28.7h52.8v4.8c-5,0.4-16,6.5-19.7,8.9
		c-6,4-10.5,8.1-15.1,13.5c-8.8,10.4-16.1,26.7-16.1,41.5c0,14.4,0.6,21.6,7.1,34.6c26,52,99.5,53.3,126.5-0.3
		c9.1-18.1,9.1-39.2,1.6-58c-5-12.5-14.8-24-25.9-31.3c-3.7-2.5-14.7-8.5-19.7-8.9c0-12.2,2.1-26.9-3.6-35.2
		c-1.9-2.8-5.6-5.8-8.6-6.9c-7.4-2.8-14.1-1.3-19.5,3.2c-7,5.8-4.9,10.3-7.6,10.3h-52.4c0-9.4-2.1-16.1-10.2-20.3
		C354,437.3,340.4,447.9,340.4,457.7 M349.6,475.6c0,3.8,1.6,7.1,4,9.1c4.4,3.8,10.5,3,16.8,3c0,9.7,1.5,14.9-3.7,20
		c-7.3,7-21,2.1-21-7.9v-41.2c0-3.3,1.9-6.2,3.7-7.9c8.8-8.5,21-0.3,21,7.4v5.8c-7.5,0-13.3-1.2-17.7,3.6
		C350.9,469.6,349.6,472,349.6,475.6z M354.9,476.1c0-3.6,2.4-6.8,5.8-6.8h68.4v13.1h-65C359.7,482.4,354.9,480.9,354.9,476.1z
		 M434.4,491.2c0-13.8-3.9-36.6,14.1-36.6c17.8,0,14.1,22.2,14.1,36.6C457.5,488.7,440.8,489.7,434.4,491.2z M383.5,563.4
		c0-12.3,0.8-20.7,6.3-31.5c3.8-7.5,7.5-12.6,13.2-18.3c30.5-30.6,84-22.6,104.1,18.3c10.3,21,7.9,48-6.1,66.6l-7.4,8.6
		c-6.1,4.8-10.5,9.2-18.9,12.6c-21.4,8.5-43.6,7.4-62.5-5.5l-6.5-5.1c-1.1-1-1.4-1-2.4-1.9l-7.2-8.4c-1.3-1.7-1.9-2.6-3.1-4.6
		C387.9,585.5,383.5,575.1,383.5,563.4z"/>
	<path class="st0" d="M420.9,566.5c0,25.3,18.3,43.4,43.2,45.1c9.7,0.7,23.8-5.1,30.9-12.2c3.8-3.8,6.6-7,9.2-12.2
		c9.8-19.7,3.5-43.7-14.5-56c-22.4-15.3-51.8-7.6-64.4,17.4C422.9,553.2,420.9,559.6,420.9,566.5 M426.2,567.5
		c0-32.5,39.2-52,65.3-28c6.5,6,11.7,17,11.7,26.1c0,7-0.3,11.8-3.5,18.3c-1,2-1.9,3.8-3.2,5.6c-2.7,4-5.1,6.2-8.9,9.1
		c-11.5,8.7-27.6,9.8-40.5,3.3c-4.4-2.2-7.1-4.7-10.5-8C431.2,588.3,426.2,578.3,426.2,567.5z"/>
	<path class="st0" d="M437.8,567.5c0,13.8,11.1,26.7,28.1,26.7c22.5,0,34.1-29.3,18.6-44.7c-7.2-7.1-11.5-8.6-21.5-8.6
		C449.1,540.8,437.8,554.4,437.8,567.5 M463,546.2c6.8,0,12.3,1.1,17.3,6.4c12.7,13.5,3.7,36.3-15.9,36.3c-22,0-29.1-30.2-9.7-40.2
		C457,547.4,459.7,546.2,463,546.2z"/>
	<path class="st0" d="M449,567c0,5.2,1.6,8.8,4.7,11.8c1.4,1.3,2.8,2.2,4.6,3.1c9.8,4.7,22.2-2.2,22.2-14.4h-5.3
		c0,14-20.8,14.1-20.8-0.5c0-2.1,0.7-3.5,1.5-4.8c-1.7-0.9-2.7-1.9-4.8-2.4C449.9,561.6,449,564.1,449,567"/>
	<path class="st0" d="M456.3,553.9c0.8,1.1,2,2.9,2.4,4.4c2.3-0.2,3.2-1.4,6.3-1.5v-5.3C461.1,551.5,458.8,552.6,456.3,553.9"/>
	<path class="st0" d="M521.1,40c0,6.7,3.5,11.4,6.4,16.7l15.2,26.5c1.3,2.5,2.6,4.4,3.9,6.8c4.9,8.8,5.5,4.2,12.8,3.6
		c0,14.1-3.8,35.8,13.8,40.4c7.1,1.8,39.7,4.4,48.5,5.6c4.2,0.6,21.5,2.8,24.2,2.2c3.5-0.7,6.5-2.8,9.3-4.2l35.9-18.2
		c2.5-1.2,6.8-3.8,9.2-4.3c0,16.3,0,32.7,0,49c0,4.8-1.2,20.9,1,23.2c2.5,2.6,6.7,1.4,7.3-1.9c0.5-2.3,0.1-9.5,0.1-12.3
		c3.5-0.8,7.6-2.8,10.9-4.3l21.6-8.9c5.7-2.4,4.8-3,11.5-1.5c-0.1,0.1-0.3,0-0.4,0.2c-0.2,0.7-0.2,0.1-0.7,0.4
		c-0.3,0.1-0.8,0.4-1.1,0.5c-9.2,4.4-18.9,7.9-28.2,12.4c-3.7,1.8-8.5,2.4-8.5,7.3c0,2.3,2.7,3.4,4.5,3.4c2.8,0,19-7.8,22.7-9.4
		l10.9-4.9c3.4-1.6,7.9-4.1,11.5-4.9v9c-5,1.2-9.4,4.2-13.9,6.4c-1.7,0.8-3.1,1.3-4.7,2.1c-3,1.5-6,3-9,4.5l-27.4,13.2
		c-8.4,4.2-14.1,6.6-25,6.6c-16.4,0-13-15.7-13-27.6l0-30.5c0-4.1-0.4-7.3-5.1-7.3c-1.8,0-3.4,2.5-3.4,4.5v52.4
		c0,6.2,5.7,12,10,14.3c5.7,3,13.2,3.5,20.9,2.5c8.9-1.2,25.8-9.9,34.5-14.5c2.8,5.4,6.9,5.8,13.4,7.4c5.7,1.4,39.4,11.1,42.6,10.3
		c2.8-0.6,4.8-2.9,4.8-5.9v-67.7c0-2.4-2.3-5.7-3.8-6.9c-2.3-1.7-5.2-2.1-8.5-2.8c-5.4-1.3-41.6-10-44.7-9c-7,2-5,12.7-5,18.7
		c0,3.4,1.1,5.6,4.5,5.6c6.2,0,4.5-9.2,4.5-15.2c3.9,0.3,7.9,1.7,12.1,2.6c10,2.2,20.4,3.8,30.2,6.4c2.9,0.8,2.3,2,2.3,5.6
		c-0.3,19.7,0,39.5,0,59.2c-2-0.2-3.5-0.8-5.4-1.3l-16.5-4.3c-3.7-1-7.5-1.8-11.2-2.9c-2.5-0.7-8.6-2.5-11.3-2.8v-1.1
		c4.7-1.1,14.7-6.8,19.5-9.2c3.5-1.7,6.5-3,10-4.7c10.2-5.1,7.7-4.6,7.7-22.7c0-7.7-8.6-6.9-14-7.9c-7.7-1.5-10.4-3.1-17.9,0.2
		c-3.3,1.5-28.5,12.5-31.8,12.8v-53L753,88.2c7.3-3.6,15-7,21.9-11.3c5.2-3.2,16.4-19.3,4.4-19.3c-1.4,0-2.5,1.5-3,2.6
		c-0.8,1.9-0.6,2.5-1.7,4.5c-3.2,6-15.8,11-22,14.1l-87.4,44c-2.8,1.4-5.2,3.4-8.3,4.1V98.7c7.8-3.7,16.4-6.3,24.5-9.3l92.3-35.1
		c18.1-6.7,14.6-2.9,14.6-24.9c0-14.7-12.2-25.4-27.1-25.4c-21,0-46.2-1.1-66.5,1.2c-45.3,5.2-90.2,11.4-135.8,17L534.2,25
		C527.3,26,521.1,32.7,521.1,40 M578,28.2c5.4,0,10.7-1.1,15.8-1.7c31-3.4,63.7-8.4,94.7-11.8c5.4-0.6,10.5-1.7,16.3-1.7h58.6
		c6.9,0,11.7,4.3,14.2,8.9c2.8,5.2,2.2,13.1,2.2,21l-97.8,37c-3.1,1.2-30.4,12-33,12.1l-21.6-45.5c-8.4-17-22.4-14.2-42.5-16.7
		C580.4,29.2,579.9,29.9,578,28.2z M648.5,102.1v25.4c0,7.6-6,6-14.4,4.8c-15.9-2.2-35.6-3.8-51.7-5.8c-3.9-0.5-6.6-0.3-9.3-1.9
		c-2-1.2-4.6-4.3-4.6-7.2V56.4c0-7,10.6-3.8,21.5-2.9c4.2,0.4,8.4,0.9,12.4,1.2c3.7,0.2,10.1,2.3,10.1-3.9c0-4.3-3.7-4.3-7.9-4.5
		c-3.7-0.2-7.8-0.8-11.8-1.2c-13.1-1.1-33.1-7.6-33.3,13.6c-0.1,8.6,0,17.3,0,26c-2.6,0.2-2.7,1.1-5.6,1.1L548,75.2
		c-3-5.3-16.6-28.5-17.8-31.8c-1.6-4.5,1.3-8.7,5.4-9.8c3-0.8,51.6,5.2,59.4,5.9c25.5,2.2,20.4,2.9,34.6,31.4L643,99.1
		C644.3,101.5,645,102.1,648.5,102.1z"/>
	<path class="st0" d="M572.9,62v54.7c0,5.8,7.4,5.1,12.8,5.8c8,1,46.3,5.5,52,5.5c8,0,6.2-10.9,6.2-17.5c0-3.9-4.5-5.7-7.2-3.3
		c-2.2,2-1.3,8.5-1.3,12.3c-3.5-0.8-9.2-1.2-13-1.6l-27.4-3c-3.4-0.4-10.1-1.5-13.7-1.5V64.9c4.7,1.1,11.3,1.2,16.8,1.9
		c5.1,0.6,11.2,1.5,17.1,1.5c1,0,7.8-7.3-3.6-8.8l-33-3C575.8,56.4,572.9,59.2,572.9,62"/>
	<path class="st0" d="M607.9,114.5c2,0,5.5-1.2,7.1-2c1.9-1,3.6-2.6,4.9-4.1c16.7-21.2-11.2-53-27.2-31.2
		c-7.5,10.2-4.6,27.8,7.1,34.8C601.4,113.1,605.4,114.5,607.9,114.5 M597.2,91.4c0-16.7,15.8-16.6,18.7-0.1c1.1,6.4-2,14.2-8,14.2
		C601.5,105.4,597.2,97.9,597.2,91.4z"/>
	<path class="st0" d="M622.6,473.9c0,12.1-1,16.7,1.6,27.2c1.9,7.5,0.8,6.7,9.1,6.7v27.1c0,7,3.9,14.5,7.9,17.5
		c4.1,3.2,2.8,3.3,2.8,13c0,8.2,0.2,12.4,1.8,19.1c1.3,5.4,3.3,10.4,6,14.9c5.6,9.2,11.2,15.7,20.2,21.5
		c20.3,13.2,46.3,13.3,66.7,0.2c8.8-5.6,14.9-12.4,20.3-21.4c11.4-18.8,6.7-36.5,8-43.8c0.5-2.8,1.9-1.9,5-5.7
		c3.1-3.9,5.7-8.3,5.7-15.2v-27.1c8.3,0,7.3,0.9,9-6.2c2.7-11.2,1.7-14.7,1.7-27.6c0-3.1-1.1-6.1-1.8-8.9c-0.7-2.9-1.1-5.7-5-5.7
		H629.4c-3.9,0-4.3,2.8-5,5.7C623.8,467.8,622.6,470.7,622.6,473.9 M631.7,464.8h147.7c2,0,2.2,3,2.3,5.1H629.4
		C629.4,467.9,629.6,464.8,631.7,464.8z M628.3,473.3h154.5v20.9H628.3V473.3z M628.8,497h153.3c-0.6,1.2-1.1,3.2-1.1,5.1H630
		C629.9,500.2,629.4,498.2,628.8,497z M646.3,548.8c-3.9-2.6-7.3-7.6-7.3-14.1v-27.1h133v27.1c0,6.5-3.4,11.5-7.3,14.1
		c-11.7-17.4-34.9-30.4-56.4-30.4c-15.5,0-27.3,2.4-39.4,9.7c-2.4,1.5-4.2,2.5-6.5,4.2C656.4,536.9,650.5,542.6,646.3,548.8z
		 M649.7,570.8c0-18.4-2.4-16.4,9.2-28c10.3-10.4,27.7-18.7,43.8-18.7c16.4,0,24.9,2.2,37.8,9.6c3.8,2.2,8.6,6,11.7,9.1
		c11.5,11.6,9.2,9.6,9.2,28c0,43.1-55.3,74.8-95,38.1l-6.2-7.3C654,593.1,649.7,582,649.7,570.8z"/>
	<path class="st0" d="M665.5,579.7c0,13.6,2.5,21.9,12,31.4c15.1,15.1,40.9,15.2,55.8,0.3c14.7-14.7,16.4-35.7,4.6-52.8
		c-8.4-12.3-25-18.8-40.8-15.5c-8,1.7-14,5.2-19.7,10.7l-0.6,0.6c-0.3,0.3-0.7,0.8-1.1,1.2c-2.3,2.5-4.5,5.3-6.1,8.5
		C667.8,567.7,665.5,574.6,665.5,579.7 M671.1,584.2c0-14.5,6-26.1,18.8-32.5c17.3-8.6,38.1-1.8,46.6,15.6
		c10.6,21.6-4,49.6-31.6,49.6C687.1,616.9,671.1,601.3,671.1,584.2z"/>
	<path class="st0" d="M676.2,579.7c0,10.4,1.2,16.1,8.6,23.5c18.9,18.9,50,4.1,50-19c0-7.4-0.8-13.5-5.8-19.6c-1.2-1.4-2-2.8-3.4-4
		C703.2,541.4,676.2,561,676.2,579.7 M679,583c0-15.7,11.1-27.1,27.6-27.1c13.8,0,25.4,11.9,25.4,27.1c0,14.1-12.3,25.9-26.5,25.9
		C691.3,609,679,597.1,679,583z"/>
	<path class="st0" d="M134.8,58.4v127.9c0,3.3,3.3,6,6.9,6h86.5c3.6,0,6.9-2.7,6.9-6V81.4c0-2.8-11.3-12.9-13.7-15.3l-10.8-10.8
		c-1.2-1.2-2.2-2.9-4.5-2.9h-64.4C138.2,52.4,134.8,55.1,134.8,58.4 M208.9,60.2l18.5,18.3c-5.9,0.1-13.1,0.8-18.1-0.3
		C208.2,73.2,208.9,66,208.9,60.2z M139.4,58.9c0-1.4,1.3-1.8,2.8-1.8h62.1c0,5.8-1,20.3,1.5,23.8c1,1.4,3.1,2.5,5.4,2.5h19.3v69.5
		H179c-4.1,0-3.2,4.6-0.9,4.6h52.4v28.5c0,1.4-1.3,1.8-2.8,1.8h-85.6c-1.4,0-2.8-0.4-2.8-1.8v-28.5h19.8c2.3,0,3.2-4.6-0.9-4.6
		h-18.9V58.9z"/>
	<path class="st0" d="M165.6,87.8c-1.1,4.8-0.5,38-0.5,45.5c0,1,1.3,2.3,1.8,2.3c1.7,0,8.8-4.3,10.7-5.4l26.6-14.8
		c2.6-1.5,7.4-3.8,2.8-6.5c-0.9-0.5-1.5-0.9-2.7-1.5c-2-1-3.4-1.8-5.4-2.9l-31.1-17.2C167.2,87.4,166.2,87.6,165.6,87.8
		 M169.8,129.2V93.8c1.8,0.4,2.5,1.1,4,2l20.1,11.2c2.2,1.2,6.5,3.3,8.1,4.8c-1.7,0.4-2.7,1.1-4.1,1.9l-12.1,6.7
		c-2.7,1.6-5.2,2.8-8,4.4C175,126.5,172.5,127.8,169.8,129.2z"/>
	<path class="st0" d="M162.9,164.7c0,4.3-1.2,18.9,1.8,18.9c3.9,0,2.8-3.2,2.8-10.6c1.7,1.2,1.2,2.8,3.7,2.8c1.6,0,1.4-1.3,2.8-2.3
		c0,3.5-0.2,6.8,0.5,9.7c3,0.7,0.9,0.7,3.7,0c0.8-3.6,0.8-17.6,0-21.2c-6.4-1.5-3.7,3.7-7.8,6.4c-0.7-1.3-1.2-2.5-2-4
		C165.4,158.9,162.9,162.2,162.9,164.7"/>
	<path class="st0" d="M191.4,176.6c0,3.2,2.5,2.3,8.7,2.3l0.5,4.1c2.1,0.5,4.1,1.8,4.1-4.1c1.6-0.1,2.3-0.7,2.2-2.2
		c-0.2-1.9-1.2-1.5-2.2-2.8c0-3.9,0.3-8.7-0.5-12c-3.4-0.8-2.7-1.1-5.3,2.9C197.6,166.9,191.4,175.7,191.4,176.6 M200.1,171.6v2.8
		h-1.8c0.3-0.6,0.4-0.9,0.8-1.5C199.5,172.3,199.8,172,200.1,171.6z"/>
	<path class="st0" d="M180.4,163.8v17.5c0,2.9,4.6,3,4.6,0.5v-6.9c13.3,0,9.2-13.3,2.8-13.3C185,161.5,180.4,160.7,180.4,163.8
		 M187.3,170.2H185v-4.1c2.5,0,4.1-0.4,4.1,2.3C189.1,169.4,188.3,170.2,187.3,170.2z"/>
	<path class="st0" d="M165.6,153.2c-0.7,3-0.7,0.9,0,3.7c2.9,0.7,3.1,0.7,6,0c0.7-3,0.7-0.9,0-3.7
		C169.7,152.7,167.8,152.3,165.6,153.2"/>
	<path class="st0" d="M70.7,22.4v212.9c0,9.9,10.1,18.8,19.7,18.8h139.8v20.6H89.5c-5.5,0-9.4,2.4-12.5,5.3
		c-2.5,2.4-6.3,7.2-6.3,11.5v47.8c0,9.9,10.1,18.8,19.7,18.8h106c2.6,0,5.7-3.4,6.2-6c0.7-3.8-1.9-5.8-3.4-8.1h-91
		c-28.4,0-23.5,5.9-23.5-49.7c0-2.3,3.4-5.6,5.6-5.6h349c2.3,0,5.6,3.4,5.6,5.6c0,54.5,4.6,49.7-20.6,49.7H226.4
		c-1.5,2.3-4.1,4.3-3.4,8.1c0.5,2.6,3.6,6,6.2,6h210.1c9.6,0,19.7-8.9,19.7-18.8v-46c0-9.7-9.1-18.8-18.8-18.8H299.6v-20.6h139.8
		c9.6,0,19.7-8.9,19.7-18.8V22.4c0-9.9-10.1-18.8-19.7-18.8H221.7c-8.4,0-9.5,10-4.7,13.1c3.9,2.5,107.7,1,113.5,1h91
		c10.2,0,23.5-2.5,23.5,7.5v207.3c0,5.6-3.8,7.5-9.4,7.5H94.2c-5.6,0-9.4-1.9-9.4-7.5V25.3c0-9.8,12.6-7.5,22.5-7.5
		c8.2,0,79.1,1.1,82.7-0.7c6.3-3.2,4-13.3-3.9-13.3H90.4C80.8,3.7,70.7,12.6,70.7,22.4 M244.3,254.2h41.3v19.7h-41.3V254.2z"/>
	<path class="st0" d="M91.4,36.5v182.9c0,8.5,6.6,14.1,15,14.1h317.1c8.4,0,15-5.5,15-14.1v-181c0-8.5-6.6-14.1-15-14.1H106.4
		C98.8,24.3,91.4,29.9,91.4,36.5 M272.4,39.3h152v82.5h-152V39.3z M257.4,136v61v21.5h-152V197v-61v-14.1V75.7V39.3h152v36.3v46.2
		V136z M272.4,136h152v82.6h-152V136z"/>
	<path class="st0" d="M91.4,307.6c0,12.3-3,30,15,30h122.9c17.8,0,15-18.8,15-28.1c0-7.3-5.4-14.1-12.2-14.1H103.5
		C97.8,295.4,91.4,301.9,91.4,307.6 M105.4,309.5h124.8v13.1H105.4V309.5z"/>
	<path class="st0" d="M250.8,315.1c0,29.9,42.2,29,42.2,0.9C293,288.8,250.8,288.9,250.8,315.1 M270.5,309.5c2.4,0,4.9,1.1,6.6,1.9
		c4.6,19.6-17.7,10.2-10.5,0.8C267.3,311.2,269.6,309.5,270.5,309.5z"/>
	<path class="st0" d="M396.2,315.1c0,30.1,42.2,28,42.2,2.8c0-6.8-0.9-12.3-6.3-17.2c-9-8.1-26.5-8.1-33.5,6.5
		C398,308.8,396.2,313.6,396.2,315.1 M417.8,322.6c-10.5,0-7.3-13.1,0-13.1C425.2,309.5,427.9,322.6,417.8,322.6z"/>
	<path class="st0" d="M299.6,313.2v4.7c0,16.2,22.3,27,35.9,13.4c12-12,6.2-35.9-16.2-35.9C309.1,295.4,299.6,305.1,299.6,313.2
		 M313.7,317c0-9.2,13.1-11,13.1,0.9C326.8,324.5,313.7,324.4,313.7,317z"/>
	<path class="st0" d="M369,337.6c10.6,0,20.6-9.9,20.6-17.8v-5.6c0-17.6-24.7-25.6-36.3-12C340.9,316.7,351.7,337.6,369,337.6
		 M362.5,316.1c0-8.5,13.1-8.5,13.1,0C375.6,325.1,362.5,325.1,362.5,316.1z"/>
	<path class="st0" d="M325.7,55.7c-1.1,4.8-0.5,38-0.5,45.5c0,1,1.3,2.3,1.8,2.3c1.7,0,8.8-4.3,10.7-5.4l26.6-14.8
		c2.6-1.5,7.4-3.8,2.8-6.5c-0.9-0.5-1.5-0.9-2.7-1.5c-2-1-3.4-1.8-5.4-2.9L328,55.3C327.3,55.3,326.3,55.5,325.7,55.7 M329.9,97.1
		V61.7c1.8,0.4,2.5,1.1,4,2L354,74.9c2.2,1.2,6.5,3.3,8.1,4.8c-1.7,0.4-2.7,1.1-4.1,1.9l-12.1,6.7c-2.7,1.6-5.2,2.8-8,4.4
		C335.1,94.4,332.6,95.7,329.9,97.1z"/>
	<path class="st0" d="M325.7,148.6c-1.1,4.8-0.5,38-0.5,45.5c0,1,1.3,2.3,1.8,2.3c1.7,0,8.8-4.3,10.7-5.4l26.6-14.8
		c2.6-1.5,7.4-3.8,2.8-6.5c-0.9-0.5-1.5-0.9-2.7-1.5c-2-1-3.4-1.8-5.4-2.9L328,148.2C327.3,148.2,326.3,148.4,325.7,148.6
		 M329.9,190v-35.4c1.8,0.4,2.5,1.1,4,2l20.1,11.2c2.2,1.2,6.5,3.3,8.1,4.8c-1.7,0.4-2.7,1.1-4.1,1.9l-12.1,6.7
		c-2.7,1.6-5.2,2.8-8,4.4C335.1,187.3,332.6,188.6,329.9,190z"/>
	<path class="st0" d="M541.3,232.5v76.4c0,2,2,3.6,4.1,3.6H597c2.1,0,4.1-1.6,4.1-3.6v-62.6c0-1.7-6.7-7.7-8.2-9.1l-6.5-6.5
		c-0.7-0.7-1.3-1.7-2.7-1.7h-38.5C543.3,228.9,541.3,230.5,541.3,232.5 M585.5,233.6l11.1,10.9c-3.5,0.1-7.8,0.5-10.8-0.2
		C585.1,241.4,585.5,237,585.5,233.6z M544,232.8c0-0.8,0.8-1.1,1.6-1.1h37.1c0,3.5-0.6,12.1,0.9,14.2c0.6,0.8,1.8,1.5,3.2,1.5h11.5
		v41.5h-30.8c-2.4,0-1.9,2.7-0.5,2.7h31.3v17c0,0.8-0.8,1.1-1.6,1.1h-51.1c-0.8,0-1.6-0.3-1.6-1.1v-17h11.8c1.4,0,1.9-2.7-0.5-2.7
		H544V232.8z"/>
	<path class="st0" d="M559.7,250.1c-0.7,2.9-0.3,22.7-0.3,27.2c0,0.6,0.8,1.4,1.1,1.4c1,0,5.2-2.6,6.4-3.2l15.9-8.9
		c1.6-0.9,4.4-2.2,1.7-3.9c-0.5-0.3-0.9-0.5-1.6-0.9c-1.2-0.6-2-1.1-3.2-1.7L561,249.8C560.6,249.8,560,250,559.7,250.1
		 M562.1,274.8v-21.2c1.1,0.3,1.5,0.7,2.4,1.2l12,6.7c1.3,0.7,3.9,2,4.9,2.8c-1,0.2-1.6,0.7-2.4,1.2l-7.2,4c-1.6,1-3.1,1.7-4.8,2.6
		C565.3,273.2,563.8,274,562.1,274.8z"/>
	<path class="st0" d="M558,296c0,2.6-0.7,11.3,1.1,11.3c2.3,0,1.6-1.9,1.6-6.3c1,0.7,0.7,1.6,2.2,1.6c1,0,0.9-0.8,1.6-1.4
		c0,2.1-0.1,4,0.3,5.8c1.8,0.4,0.5,0.4,2.2,0c0.5-2.2,0.5-10.5,0-12.6c-3.8-0.9-2.2,2.2-4.7,3.8c-0.4-0.8-0.7-1.5-1.2-2.4
		C559.6,292.5,558,294.5,558,296"/>
	<path class="st0" d="M575.1,303.1c0,1.9,1.5,1.4,5.2,1.4l0.3,2.5c1.3,0.3,2.5,1,2.5-2.5c0.9-0.1,1.4-0.4,1.3-1.3
		c-0.1-1.1-0.7-0.9-1.3-1.7c0-2.4,0.2-5.2-0.3-7.1c-2-0.5-1.6-0.6-3.2,1.8C578.8,297.3,575.1,302.6,575.1,303.1 M580.3,300.1v1.6
		h-1.1c0.2-0.3,0.3-0.5,0.5-0.9C579.9,300.6,580.1,300.3,580.3,300.1z"/>
	<path class="st0" d="M568.5,295.4v10.4c0,1.7,2.7,1.8,2.7,0.3V302c7.9,0,5.5-8,1.6-8C571.2,294.1,568.5,293.6,568.5,295.4
		 M572.6,299.3h-1.4v-2.5c1.5,0,2.5-0.2,2.5,1.4C573.7,298.8,573.2,299.3,572.6,299.3z"/>
	<path class="st0" d="M559.7,289.1c-0.4,1.8-0.4,0.5,0,2.2c1.7,0.4,1.8,0.4,3.6,0c0.4-1.8,0.4-0.5,0-2.2
		C562.1,288.8,561,288.6,559.7,289.1"/>
	<path class="st0" d="M504.2,206.9v200.6c0,4.5,1.6,7,3.7,9.8c5.1,6.9,13.1,6.8,13.1,1.4c0-6.1-8.4-3.1-8.4-12.3v-16.2h116
		c0,24.9,1.5,24.6-17.9,24.6l-73.8,0.1c-4.9,1-5.4,8.9,2.7,8.9h76.7c6.3,0,10.5-1,14.2-3.7c3-2.2,6.5-7.1,6.5-12V206.3
		c0-9.8-9.2-15.7-20.7-15.7c-4.9,0-18.9-0.9-21.5,1.5c-1.5,1.5-1.8,3.7-0.5,5.4c5.5,7.5,34.3-6.3,34.3,11.1v7.3h-116
		c0-19.2,0.5-16.2,32.5-16.2l30.3,0c2.4,0,2.6,0.3,4.2-0.9c3.1-2.3,3.4-8.1-5.3-8.1h-49.3C513.5,190.6,504.2,196.1,504.2,206.9
		 M512.6,224.2h116v157.4h-116V224.2z"/>
	<path class="st0" d="M673.4,274.1c0,3.7,13.4,12.6,13.4,29.7c0,11.8-1.1,20-8.9,29.8c-1.7,2.2-4.6,3.8-4.6,6.6
		c0,2.4,1.7,4.5,3.9,4.5c3.3,0,6-4.2,7.7-6.3c13.7-16.6,14.3-45.1,0.5-61.9c-1.2-1.4-5.4-6.9-7.1-6.9
		C675.5,269.6,673.4,271.1,673.4,274.1"/>
	<path class="st0" d="M536.4,332c-4.2,0.4-4.5,5.9,0,6.3c0,2.1-0.3,27.8,0.2,29.2c1,2.6,4.9,2.6,5.9,0c0.5-1.4,0.2-27.1,0.2-29.2
		c4.3-0.4,4.1-6,0-6.3c0-5.8,1.2-9.2-3.8-9.2c-0.8,0-1.4,0.6-1.8,1.1c-0.8,1-0.6,0.7-0.7,2.2C536.3,327.8,536.4,330.1,536.4,332"/>
	<path class="st0" d="M551.9,353.8c-4.5,0.4-4.2,6,0,6.3c0,1.9-0.1,4.1,0,5.9c0.2,4.1,4.1,4,5.7,2.2c0.8-1,0.6-0.7,0.7-2.2
		c0.1-1.8,0-4.1,0-5.9c4.1-0.3,4.3-5.9,0-6.3c0-2.1,0.3-27.8-0.2-29.2c-1-2.6-4.9-2.6-5.9,0C551.6,326,551.9,351.7,551.9,353.8"/>
	<path class="st0" d="M583,332c-4.2,0.4-4.5,5.9,0,6.3c0,2.1-0.3,27.8,0.2,29.2c1,2.6,4.9,2.6,5.9,0c0.5-1.4,0.2-27.1,0.2-29.2
		c4.3-0.4,4.1-6,0-6.3c0-1.9,0.1-4.1,0-5.9c-0.2-4.6-6.1-4.6-6.4,0C582.9,327.8,583,330.1,583,332"/>
	<path class="st0" d="M598.6,350.5c-4.4,1-4.4,5.7,0,6.7c0,8.3-1.3,12.2,3.8,12.2c2.4,0,2.6-3,2.5-4.6c0-2.5,0-5.1,0-7.6
		c1.6-0.8,3.2-1,3.2-3.4c0-1.8-1.4-2.9-3.2-3.4c0-2.2,0.4-24.7-0.3-26.1c-0.8-1.5-6.1-4.1-6,3.4L598.6,350.5z"/>
	<path class="st0" d="M567.5,341.2c-4.5,1.1-4.2,6.2,0,6.3v19.3c0,3.3,6.3,3.3,6.3,0v-19.3c4.3-0.1,4.3-5.3,0-6.3l0-15.6
		c-0.4-4-5.7-3.8-6.3-0.4L567.5,341.2z"/>
	<path class="st0" d="M674.5,307.2c0,6.2-2,10.7-4.6,14.5c-1.3,1.8-3.5,3.6-4,5.5c-1,3.3,4,11.9,13.1-3.8c5.3-9.2,5.3-23.3,0-32.4
		c-9.1-15.6-13.6-6.9-13.1-4.1c0.3,2,2.7,3.8,3.9,5.5C672.5,296.3,674.5,300.8,674.5,307.2"/>
	<path class="st0" d="M554.1,402.4c0,2.7,1.8,4.5,4.5,4.5h24.1c6.1,0,6.6-9-1.7-9h-20.7C556.9,397.9,554.1,399,554.1,402.4"/>
	<path class="st0" d="M658.3,298.2c0,4.6,3.4,2.1,3.4,10.1c0,3.4-3.4,4.7-3.4,7.3c0,2,2.5,4.5,4.5,4.5c4.1,0,7.8-8.3,7.8-12.9
		c0-4.6-3.8-12.9-7.8-12.9C660.9,294.3,658.3,296.1,658.3,298.2"/>
	<path class="st0" d="M649.3,307.2c0,6,8.4,5.9,8.4,0C657.7,301.2,649.3,301.2,649.3,307.2"/>
	<path class="st0" d="M524.9,206.9c0,7,8.4,6.6,8.4,0C533.3,202.4,524.9,202.4,524.9,206.9"/>
	<path class="st1" d="M713.5,862.7c2.6-4.2,5.2-8.9,7.6-14c2.4-5.1,4.4-10.8,6-16.9c1.6-6.2,2.4-12.9,2.4-20.3
		c0-7.3-0.6-13.8-1.9-19.6c-1.3-5.8-3.1-11.2-5.5-16.3c-2.4-5.1-5.2-10.3-8.5-15.6h16.4c3.1,3.3,6.1,7.2,8.8,11.9
		c2.8,4.6,5,10.2,6.7,16.6c1.7,6.4,2.6,14.1,2.6,23c0,8.3-0.9,15.7-2.7,22.2c-1.8,6.5-4.1,12.1-6.9,16.9c-2.8,4.8-5.6,8.8-8.6,12.1
		H713.5z M673.2,842.6l-15.9-51.7h19.2l7.9,34.6l8.3-34.6h19l-16.9,51.7H673.2z M643.5,842.6c-4.4,0-8-0.6-10.6-1.8
		c-2.7-1.2-4.5-3.2-5.7-6c-1.1-2.8-1.6-6.7-1.5-11.7l0.6-17.5h-8v-11.9l8.7-2.9l2.3-14.5h14.8v14.5h10.5v14.8h-10.5V823
		c0,0.8,0.1,1.6,0.2,2.2c0.1,0.6,0.3,1.1,0.6,1.5c0.3,0.4,0.7,0.7,1.1,1c0.4,0.2,1,0.4,1.5,0.4l6.6,0.7v13.8H643.5z M596,843.1
		c-3.3,0-6.3-0.4-9-1.3c-2.8-0.9-5.1-2.3-7.1-4.3c-2-2-3.5-4.7-4.6-8s-1.6-7.5-1.6-12.5c0-5.2,0.5-9.6,1.5-13.1
		c1-3.5,2.4-6.3,4.4-8.3c1.9-2,4.3-3.5,7.2-4.4c2.9-0.9,6.2-1.3,9.9-1.3c3.5,0,6.6,0.2,9.4,0.7c2.8,0.4,5.9,1.2,9.3,2.3v10.7h-12.6
		c-2.8,0-4.9,0.4-6.4,1.1c-1.5,0.7-2.5,2-3.1,3.9c-0.6,1.9-0.9,4.6-0.9,8.1c0,3.6,0.3,6.3,0.8,8.1c0.5,1.8,1.6,3,3.1,3.6
		c1.5,0.6,3.7,0.9,6.7,0.9h13.1v10.5c-1.6,0.6-3.5,1.2-5.8,1.8c-2.3,0.5-4.6,1-7.1,1.2C600.6,843,598.3,843.1,596,843.1z M549,843.1
		c-3.3,0-6.3-0.4-9-1.3c-2.8-0.9-5.1-2.3-7.1-4.3s-3.5-4.7-4.6-8c-1.1-3.4-1.6-7.5-1.6-12.5c0-5.2,0.5-9.6,1.5-13.1
		c1-3.5,2.4-6.3,4.4-8.3c1.9-2,4.3-3.5,7.2-4.4c2.9-0.9,6.2-1.3,9.9-1.3c3.5,0,6.6,0.2,9.4,0.7c2.8,0.4,5.9,1.2,9.3,2.3v10.7h-12.6
		c-2.8,0-4.9,0.4-6.4,1.1c-1.5,0.7-2.5,2-3.1,3.9c-0.6,1.9-0.9,4.6-0.9,8.1c0,3.6,0.3,6.3,0.8,8.1c0.5,1.8,1.6,3,3.1,3.6
		c1.5,0.6,3.7,0.9,6.7,0.9h13.1v10.5c-1.6,0.6-3.5,1.2-5.8,1.8c-2.3,0.5-4.6,1-7.1,1.2C553.6,843,551.2,843.1,549,843.1z
		 M506.3,862.7c-3.1-3.3-6.1-7.3-8.8-11.9c-2.8-4.6-5-10.1-6.7-16.6c-1.7-6.5-2.6-14.1-2.6-22.9c0-8.4,0.9-15.8,2.7-22.3
		c1.8-6.5,4.1-12.1,6.9-16.9c2.8-4.8,5.6-8.8,8.6-12.1h16.4c-2.6,4.2-5.2,8.8-7.6,14c-2.4,5.2-4.4,10.8-6,17
		c-1.6,6.2-2.4,12.9-2.4,20.3c0,7.2,0.7,13.7,2,19.5c1.3,5.8,3.2,11.2,5.5,16.4c2.4,5.1,5.2,10.3,8.4,15.6H506.3z M432.5,828.2
		c1.2,0,2.2-0.1,3-0.3c0.8-0.2,1.4-0.7,1.8-1.5c0.4-0.8,0.8-2,1-3.6c0.2-1.6,0.3-3.7,0.3-6.4c0-2.7-0.1-4.8-0.3-6.4
		c-0.2-1.6-0.5-2.7-1-3.5c-0.4-0.8-1.1-1.3-1.8-1.5c-0.8-0.2-1.8-0.3-3-0.3c-1.2,0-2.2,0.1-3,0.3c-0.8,0.2-1.4,0.7-1.8,1.5
		c-0.4,0.8-0.8,1.9-1,3.5c-0.2,1.6-0.3,3.7-0.3,6.4c0,2.7,0.1,4.8,0.3,6.4c0.2,1.6,0.5,2.8,1,3.6c0.4,0.8,1.1,1.3,1.8,1.5
		C430.3,828.1,431.3,828.2,432.5,828.2z M432.5,843c-4.6,0-8.5-0.5-11.7-1.4c-3.2-1-5.7-2.5-7.6-4.6c-1.9-2.1-3.3-4.8-4.1-8.2
		c-0.8-3.4-1.2-7.4-1.2-12.2c0-5.2,0.4-9.5,1.3-12.9c0.9-3.4,2.3-6.1,4.2-8.2c1.9-2,4.5-3.4,7.6-4.3c3.2-0.8,7-1.2,11.6-1.2
		c4.6,0,8.5,0.4,11.7,1.3c3.2,0.9,5.7,2.4,7.6,4.4c1.9,2,3.3,4.7,4.1,8.2c0.9,3.4,1.3,7.7,1.3,12.7c0,5-0.4,9.2-1.2,12.6
		c-0.8,3.4-2.1,6.1-4,8.2c-1.9,2-4.4,3.5-7.6,4.4C441.2,842.6,437.3,843,432.5,843z M376.7,828.2c1.3,0,2.4-0.2,3.4-0.6
		c1-0.4,1.7-0.8,2.3-1.3v-20.9c-0.6-0.3-1.4-0.7-2.4-1.1c-1-0.4-1.9-0.6-2.8-0.6c-1.7,0-3.1,0.3-4.2,0.9c-1.1,0.6-1.8,1.8-2.3,3.6
		c-0.4,1.8-0.7,4.5-0.7,8.2c0,3.5,0.2,6.1,0.6,7.8c0.4,1.7,1.1,2.8,2.1,3.3C373.8,828,375.1,828.2,376.7,828.2z M369.8,843.1
		c-3.9,0-7.2-0.8-10-2.4c-2.8-1.6-4.8-4.3-6.3-8.1c-1.4-3.8-2.2-8.9-2.2-15.3c0-6.4,0.6-11.6,1.7-15.6c1.1-4,3.1-7,5.9-8.9
		c2.8-1.9,6.8-2.9,11.8-2.9c2,0,4.1,0.2,6.1,0.6c2,0.4,3.8,0.9,5.4,1.4v-22.7h18.6v73.3h-15.7l-2.9-4.7c-1.2,1.1-2.5,2-3.8,2.8
		c-1.3,0.8-2.7,1.4-4.1,1.8C372.9,842.9,371.4,843.1,369.8,843.1z M321,830.5c0.3,0,0.7,0,1.1-0.1c0.4-0.1,0.8-0.1,1.2-0.2
		c0.4-0.1,0.8-0.2,1.1-0.3c0.4-0.1,0.7-0.2,0.9-0.3c0.3-0.1,0.5-0.2,0.7-0.3v-9.3l-3.9,0.6c-1.8,0.3-3.2,0.7-4.1,1.4
		c-0.9,0.7-1.4,1.7-1.4,3.1v1.9c0,0.8,0.2,1.5,0.5,2.1c0.4,0.5,0.9,0.9,1.5,1.2C319.2,830.3,320,830.5,321,830.5z M311.2,843.1
		c-4,0-7.2-1.2-9.6-3.6c-2.5-2.4-3.7-5.6-3.7-9.6v-5.3c0-3.8,1.4-7,4.2-9.6c2.8-2.6,7.3-3.8,13.4-3.8h10.4v-1.6c0-1.3-0.2-2.3-0.7-3
		c-0.4-0.7-1.4-1.2-2.7-1.5c-1.4-0.3-3.5-0.4-6.5-0.4h-15.1V794c2.7-1.1,5.8-2,9.3-2.7c3.5-0.7,7.8-1.1,12.8-1.1
		c4.4,0,8.1,0.5,11.4,1.5c3.2,1,5.7,2.8,7.5,5.4c1.8,2.6,2.6,6.3,2.6,11.2v34.3h-14.8l-2.9-5.2c-0.6,0.6-1.4,1.3-2.4,1.9
		c-0.9,0.6-2,1.3-3.3,1.9c-1.3,0.6-2.8,1.1-4.4,1.4C315.1,843,313.2,843.1,311.2,843.1z M260.2,842.6v-51.7h14.5l4.1,7.2
		c1.5-2.1,3.3-4,5.3-5.6c2-1.6,4.5-2.4,7.3-2.4c0.5,0,1.1,0,1.8,0.1c0.7,0.1,1.4,0.2,2,0.4v19.1c-1.1-0.1-2.2-0.2-3.3-0.3
		c-1.1-0.1-2.1-0.1-3-0.1c-1.5,0-2.9,0.1-4.2,0.4c-1.3,0.3-2.4,0.7-3.4,1.3c-1,0.6-1.8,1.3-2.5,2.3v29.3H260.2z M218.9,842.6v-51.7
		h14.5l4.1,7.2c1.5-2.1,3.3-4,5.3-5.6c2-1.6,4.5-2.4,7.3-2.4c0.5,0,1.1,0,1.8,0.1c0.7,0.1,1.4,0.2,2,0.4v19.1
		c-1.1-0.1-2.2-0.2-3.3-0.3c-1.1-0.1-2.1-0.1-3-0.1c-1.5,0-2.9,0.1-4.2,0.4c-1.3,0.3-2.4,0.7-3.4,1.3c-1,0.6-1.8,1.3-2.5,2.3v29.3
		H218.9z M184.4,812.2h7.4c1.3,0,2.2-0.3,2.8-0.9c0.6-0.6,0.9-1.6,0.9-3c0-1.2-0.2-2.2-0.6-3c-0.4-0.8-1-1.3-1.8-1.7
		c-0.8-0.4-1.9-0.5-3.3-0.5c-1.2,0-2.2,0.3-3,0.8c-0.8,0.5-1.4,1.4-1.8,2.7C184.6,808,184.4,809.8,184.4,812.2z M190.7,843
		c-5.9,0-10.6-0.7-14.2-2.2c-3.6-1.5-6.2-4.1-7.8-7.9c-1.6-3.8-2.4-9.2-2.4-16.1c0-7.1,0.7-12.6,2.2-16.5c1.5-3.9,3.9-6.6,7.3-8.1
		c3.4-1.5,8.1-2.3,14.1-2.3c5.5,0,9.9,0.5,13.1,1.5c3.2,1,5.5,2.9,6.9,5.5c1.4,2.7,2.1,6.4,2.1,11.3c0,3.8-0.7,6.7-2.2,8.9
		c-1.5,2.1-3.6,3.7-6.2,4.6c-2.7,0.9-5.9,1.3-9.5,1.3h-9.2c0.2,1.5,0.6,2.8,1.2,3.7c0.6,0.9,1.6,1.6,3.2,2c1.5,0.4,3.8,0.6,6.8,0.6
		h14.1v10.8c-2.2,0.6-4.9,1.3-8,1.9C198.8,842.7,195,843,190.7,843z M136.4,843.1c-4,0-7.6-0.5-10.8-1.4c-3.2-1-6-2.7-8.3-5.3
		c-2.3-2.6-4.1-6.2-5.3-11c-1.2-4.8-1.8-11-1.8-18.7c0-7.4,0.6-13.5,1.9-18.2c1.3-4.7,3.1-8.4,5.4-11c2.3-2.6,5.1-4.4,8.3-5.4
		c3.2-1,6.7-1.5,10.6-1.5c4,0,7.5,0.2,10.5,0.6c3,0.4,5.6,0.9,7.8,1.5c2.1,0.6,3.9,1.2,5.1,1.7v14.5c-1.2-0.3-2.8-0.5-4.7-0.8
		s-4.1-0.5-6.6-0.6c-2.5-0.2-5.1-0.2-8-0.2c-2.2,0-4,0.2-5.5,0.7c-1.5,0.4-2.7,1.3-3.6,2.7c-0.9,1.3-1.6,3.3-2,5.9
		c-0.4,2.6-0.6,6-0.6,10.3c0,3.8,0.2,7,0.5,9.6c0.3,2.6,0.9,4.6,1.7,6c0.8,1.4,2,2.5,3.6,3.1c1.6,0.6,3.6,0.9,6.1,0.9
		c4.9,0,8.8-0.1,11.9-0.2c3-0.2,5.5-0.4,7.2-0.6v14.5c-1.6,0.6-3.5,1.2-5.6,1.6c-2.1,0.4-4.7,0.8-7.5,1.1
		C143.8,843,140.4,843.1,136.4,843.1z M577.1,718.6c1.2,0,2.2-0.1,3-0.3c0.8-0.2,1.4-0.7,1.8-1.5c0.4-0.8,0.8-2,1-3.6
		c0.2-1.6,0.3-3.7,0.3-6.4c0-2.7-0.1-4.8-0.3-6.4c-0.2-1.6-0.5-2.7-1-3.5c-0.4-0.8-1.1-1.3-1.8-1.5c-0.8-0.2-1.8-0.3-3-0.3
		c-1.2,0-2.2,0.1-3,0.3c-0.8,0.2-1.4,0.7-1.8,1.5c-0.4,0.8-0.8,1.9-1,3.5c-0.2,1.6-0.3,3.7-0.3,6.4c0,2.7,0.1,4.8,0.3,6.4
		c0.2,1.6,0.5,2.8,1,3.6c0.4,0.8,1.1,1.3,1.8,1.5C574.9,718.5,575.9,718.6,577.1,718.6z M577.1,733.4c-4.6,0-8.5-0.5-11.7-1.4
		c-3.2-1-5.7-2.5-7.6-4.6c-1.9-2.1-3.3-4.8-4.1-8.2c-0.8-3.4-1.2-7.4-1.2-12.2c0-5.2,0.4-9.5,1.3-12.9c0.9-3.4,2.3-6.1,4.2-8.2
		c1.9-2,4.5-3.4,7.6-4.3c3.2-0.8,7-1.2,11.6-1.2c4.6,0,8.5,0.4,11.7,1.3c3.2,0.9,5.7,2.4,7.6,4.4c1.9,2,3.3,4.7,4.1,8.2
		c0.9,3.4,1.3,7.7,1.3,12.7c0,5-0.4,9.2-1.2,12.6c-0.8,3.4-2.1,6.1-4,8.2c-1.9,2-4.4,3.5-7.6,4.4
		C585.8,732.9,581.8,733.4,577.1,733.4z M536.5,732.9c-4.4,0-8-0.6-10.6-1.8c-2.7-1.2-4.5-3.2-5.7-6c-1.1-2.8-1.6-6.7-1.5-11.7
		l0.6-17.5h-8V684l8.7-2.9l2.3-14.5h14.8v14.5h10.5v14.8h-10.5v17.4c0,0.8,0.1,1.6,0.2,2.2c0.1,0.6,0.3,1.1,0.6,1.5
		c0.3,0.4,0.7,0.7,1.1,1c0.4,0.2,1,0.4,1.5,0.4l6.6,0.7v13.8H536.5z M488,732.9v-51.7h18.6v51.7H488z M490.1,674.6
		c-1.5,0-2.3-0.7-2.3-2.2v-10.7c0-1.6,0.8-2.4,2.3-2.4h14.6c0.7,0,1.2,0.2,1.6,0.7c0.4,0.4,0.5,1,0.5,1.7v10.7
		c0,1.5-0.7,2.2-2.1,2.2H490.1z M444.6,733.5c-4.5,0-8-1.4-10.6-4.3c-2.6-2.8-3.8-6.6-3.8-11.3v-36.8h18.6v30.9c0,2,0.5,3.3,1.4,4
		c1,0.7,2.2,1,3.6,1c1,0,2.2-0.3,3.7-0.9c1.5-0.6,2.6-1.3,3.3-2.1v-32.9h18.6v51.7H464l-3.1-5c-2.2,1.4-4.7,2.7-7.4,3.8
		C450.7,732.9,447.7,733.5,444.6,733.5z M404.4,733.5c-3.3,0-6.3-0.4-9-1.3s-5.1-2.3-7.1-4.3c-2-2-3.5-4.7-4.6-8
		c-1.1-3.4-1.6-7.5-1.6-12.5c0-5.2,0.5-9.6,1.5-13.1c1-3.5,2.4-6.3,4.4-8.3c1.9-2,4.3-3.5,7.2-4.4c2.9-0.9,6.2-1.3,9.9-1.3
		c3.5,0,6.6,0.2,9.4,0.7c2.8,0.4,5.9,1.2,9.3,2.3v10.7H411c-2.8,0-4.9,0.4-6.4,1.1c-1.5,0.7-2.5,2-3.1,3.9c-0.6,1.9-0.9,4.6-0.9,8.1
		c0,3.6,0.3,6.3,0.8,8.1c0.5,1.8,1.6,3,3.1,3.6c1.5,0.6,3.7,0.9,6.7,0.9h13.1V730c-1.6,0.6-3.5,1.2-5.8,1.8c-2.3,0.5-4.6,1-7.1,1.2
		C408.9,733.3,406.6,733.5,404.4,733.5z M342,732.9v-51.7h14.5l4.1,7.2c1.5-2.1,3.3-4,5.3-5.6c2-1.6,4.5-2.4,7.3-2.4
		c0.5,0,1.1,0,1.8,0.1c0.7,0.1,1.4,0.2,2,0.4V700c-1.1-0.1-2.2-0.2-3.3-0.3c-1.1-0.1-2.1-0.1-3-0.1c-1.5,0-2.9,0.1-4.2,0.4
		c-1.3,0.3-2.4,0.7-3.4,1.3c-1,0.6-1.8,1.3-2.5,2.3v29.3H342z M315,732.9v-51.7h18.6v51.7H315z M317.1,674.6c-1.5,0-2.3-0.7-2.3-2.2
		v-10.7c0-1.6,0.8-2.4,2.3-2.4h14.6c0.7,0,1.2,0.2,1.6,0.7c0.4,0.4,0.5,1,0.5,1.7v10.7c0,1.5-0.7,2.2-2.1,2.2H317.1z M283.9,733.5
		c-4,0-7.6-0.5-10.8-1.4c-3.2-1-6-2.7-8.3-5.3c-2.3-2.6-4.1-6.2-5.3-11c-1.2-4.8-1.8-11-1.8-18.7c0-7.4,0.6-13.5,1.9-18.2
		c1.3-4.7,3.1-8.4,5.4-11c2.3-2.6,5.1-4.4,8.3-5.4c3.2-1,6.7-1.5,10.6-1.5c4,0,7.5,0.2,10.5,0.6c3,0.4,5.6,0.9,7.8,1.5
		c2.1,0.6,3.9,1.2,5.1,1.7v14.5c-1.2-0.3-2.8-0.5-4.7-0.8s-4.1-0.5-6.6-0.6c-2.5-0.2-5.1-0.2-8-0.2c-2.2,0-4,0.2-5.5,0.7
		c-1.5,0.4-2.7,1.3-3.6,2.7c-0.9,1.3-1.6,3.3-2,5.9c-0.4,2.6-0.6,6-0.6,10.3c0,3.8,0.2,7,0.5,9.6c0.3,2.6,0.9,4.6,1.7,6
		c0.8,1.4,2,2.5,3.6,3.1c1.6,0.6,3.6,0.9,6.1,0.9c4.9,0,8.8-0.1,11.9-0.2c3-0.2,5.5-0.4,7.2-0.6v14.5c-1.6,0.6-3.5,1.2-5.6,1.6
		c-2.1,0.4-4.7,0.8-7.5,1.1C291.3,733.4,287.8,733.5,283.9,733.5z"/>
</g>
</svg>
