<?xml version="1.0" encoding="utf-8"?>
<!-- Generator: Adobe Illustrator 24.0.2, SVG Export Plug-In . SVG Version: 6.00 Build 0)  -->
<svg version="1.1" id="Capa_1" xmlns="http://www.w3.org/2000/svg" xmlns:xlink="http://www.w3.org/1999/xlink" x="0px" y="0px"
	 viewBox="0 0 859.3 866.4" style="enable-background:new 0 0 859.3 866.4;" xml:space="preserve">
<style type="text/css">
	.st0{fill-rule:evenodd;clip-rule:evenodd;fill:#A7A7A7;}
	.st1{fill:#A7A7A7;}
</style>
<g>
	<g>
		<path class="st0" d="M521.8,110.8c0,6.7,3.5,11.4,6.4,16.7l15.2,26.5c1.3,2.5,2.6,4.4,3.9,6.8c4.9,8.8,5.5,4.2,12.8,3.6
			c0,14.1-3.8,35.8,13.8,40.4c7.1,1.8,39.7,4.4,48.5,5.6c4.2,0.6,21.5,2.8,24.2,2.2c3.5-0.7,6.5-2.8,9.3-4.2l35.9-18.2
			c2.5-1.2,6.8-3.8,9.2-4.3c0,16.3,0,32.7,0,49c0,4.8-1.2,20.9,1,23.2c2.5,2.6,6.7,1.4,7.3-1.9c0.5-2.3,0.1-9.5,0.1-12.3
			c3.5-0.8,7.6-2.8,10.9-4.3l21.6-8.9c5.7-2.4,4.8-3,11.5-1.5c-0.1,0.1-0.3,0-0.4,0.2c-0.2,0.7-0.2,0.1-0.7,0.4
			c-0.3,0.1-0.8,0.4-1.1,0.5c-9.2,4.4-18.9,7.9-28.2,12.4c-3.7,1.8-8.5,2.4-8.5,7.3c0,2.3,2.7,3.4,4.5,3.4c2.8,0,19-7.8,22.7-9.4
			l10.9-4.9c3.4-1.6,7.9-4.1,11.5-4.9v9c-5,1.2-9.4,4.2-13.9,6.4c-1.7,0.8-3.1,1.3-4.7,2.1c-3,1.5-6,3-9,4.5l-27.4,13.2
			c-8.4,4.2-14.1,6.6-25,6.6c-16.4,0-13-15.7-13-27.6v-30.5c0-4.1-0.4-7.3-5.1-7.3c-1.8,0-3.4,2.5-3.4,4.5v52.4
			c0,6.2,5.7,12,10,14.3c5.7,3,13.2,3.5,20.9,2.5c8.9-1.2,25.8-9.9,34.5-14.5c2.8,5.4,6.9,5.8,13.4,7.4c5.7,1.4,39.4,11.1,42.6,10.3
			c2.8-0.6,4.8-2.9,4.8-5.9v-67.7c0-2.4-2.3-5.7-3.8-6.9c-2.3-1.7-5.2-2.1-8.5-2.8c-5.4-1.3-41.6-10-44.7-9c-7,2-5,12.7-5,18.7
			c0,3.4,1.1,5.6,4.5,5.6c6.2,0,4.5-9.2,4.5-15.2c3.9,0.3,7.9,1.7,12.1,2.6c10,2.2,20.4,3.8,30.2,6.4c2.9,0.8,2.3,2,2.3,5.6
			c-0.3,19.7,0,39.5,0,59.2c-2-0.2-3.5-0.8-5.4-1.3l-16.5-4.3c-3.7-1-7.5-1.8-11.2-2.9c-2.5-0.7-8.6-2.5-11.3-2.8v-1.1
			c4.7-1.1,14.7-6.8,19.5-9.2c3.5-1.7,6.5-3,10-4.7c10.2-5.1,7.7-4.6,7.7-22.7c0-7.7-8.6-6.9-14-7.9c-7.7-1.5-10.4-3.1-17.9,0.2
			c-3.3,1.5-28.5,12.5-31.8,12.8v-53l44.2-22.2c7.3-3.6,15-7,21.9-11.3c5.2-3.2,16.4-19.3,4.4-19.3c-1.4,0-2.5,1.5-3,2.6
			c-0.8,1.9-0.6,2.5-1.7,4.5c-3.2,6-15.8,11-22,14.1l-87.4,44c-2.8,1.4-5.2,3.4-8.3,4.1v-28.2c7.8-3.7,16.4-6.3,24.5-9.3l92.3-35.1
			c18.1-6.7,14.6-2.9,14.6-24.9c0-14.7-12.2-25.4-27.1-25.4c-21,0-46.2-1.1-66.5,1.2c-45.3,5.2-90.2,11.4-135.8,17l-24.7,2.8
			C528,96.8,521.8,103.5,521.8,110.8 M578.7,99c5.4,0,10.7-1.1,15.8-1.7c31-3.4,63.7-8.4,94.7-11.8c5.4-0.6,10.5-1.7,16.3-1.7h58.6
			c6.9,0,11.7,4.3,14.2,8.9c2.8,5.2,2.2,13.1,2.2,21l-97.8,37c-3.1,1.2-30.4,12-33,12.1l-21.6-45.5c-8.4-17-22.4-14.2-42.5-16.7
			C581.1,100,580.6,100.7,578.7,99z M649.2,172.9v25.4c0,7.6-6,6-14.4,4.8c-15.9-2.2-35.6-3.8-51.7-5.8c-3.9-0.5-6.6-0.3-9.3-1.9
			c-2-1.2-4.6-4.3-4.6-7.2v-61c0-7,10.6-3.8,21.5-2.9c4.2,0.4,8.4,0.9,12.4,1.2c3.7,0.2,10.1,2.3,10.1-3.9c0-4.3-3.7-4.3-7.9-4.5
			c-3.7-0.2-7.8-0.8-11.8-1.2c-13.1-1.1-33.1-7.6-33.3,13.6c-0.1,8.6,0,17.3,0,26c-2.6,0.2-2.7,1.1-5.6,1.1l-5.9-10.6
			c-3-5.3-16.6-28.5-17.8-31.8c-1.6-4.5,1.3-8.7,5.4-9.8c3-0.8,51.6,5.2,59.4,5.9c25.5,2.2,20.4,2.9,34.6,31.4l13.4,28.2
			C645,172.3,645.7,172.9,649.2,172.9z"/>
		<path class="st0" d="M573.6,132.8v54.7c0,5.8,7.4,5.1,12.8,5.8c8,1,46.3,5.5,52,5.5c8,0,6.2-10.9,6.2-17.5c0-3.9-4.5-5.7-7.2-3.3
			c-2.2,2-1.3,8.5-1.3,12.3c-3.5-0.8-9.2-1.2-13-1.6l-27.4-3c-3.4-0.4-10.1-1.5-13.7-1.5v-48.5c4.7,1.1,11.3,1.2,16.8,1.9
			c5.1,0.6,11.2,1.5,17.1,1.5c1,0,7.8-7.3-3.6-8.8l-33-3C576.5,127.2,573.6,130,573.6,132.8"/>
		<path class="st0" d="M608.6,185.3c2,0,5.5-1.2,7.1-2c1.9-1,3.6-2.6,4.9-4.1c16.7-21.2-11.2-53-27.2-31.2
			c-7.5,10.2-4.6,27.8,7.1,34.8C602.1,183.9,606.1,185.3,608.6,185.3 M597.9,162.2c0-16.7,15.8-16.6,18.7-0.1c1.1,6.4-2,14.2-8,14.2
			C602.2,176.2,597.9,168.7,597.9,162.2z"/>
	</g>
	<g>
		<path class="st0" d="M135.1,200.2v127.9c0,3.3,3.3,6,6.9,6h86.5c3.6,0,6.9-2.7,6.9-6V223.2c0-2.8-11.3-12.9-13.7-15.3l-10.8-10.8
			c-1.2-1.2-2.2-2.9-4.5-2.9H142C138.5,194.2,135.1,196.9,135.1,200.2 M209.2,202l18.5,18.3c-5.9,0.1-13.1,0.8-18.1-0.3
			C208.5,215,209.2,207.8,209.2,202z M139.7,200.7c0-1.4,1.3-1.8,2.8-1.8h62.1c0,5.8-1,20.3,1.5,23.8c1,1.4,3.1,2.5,5.4,2.5h19.3
			v69.5h-51.5c-4.1,0-3.2,4.6-0.9,4.6h52.4v28.5c0,1.4-1.3,1.8-2.8,1.8h-85.6c-1.4,0-2.8-0.4-2.8-1.8v-28.5h19.8
			c2.3,0,3.2-4.6-0.9-4.6h-18.9L139.7,200.7L139.7,200.7z"/>
		<path class="st0" d="M165.9,229.6c-1.1,4.8-0.5,38-0.5,45.5c0,1,1.3,2.3,1.8,2.3c1.7,0,8.8-4.3,10.7-5.4l26.6-14.8
			c2.6-1.5,7.4-3.8,2.8-6.5c-0.9-0.5-1.5-0.9-2.7-1.5c-2-1-3.4-1.8-5.4-2.9l-31.1-17.2C167.5,229.2,166.5,229.4,165.9,229.6
			 M170.1,271v-35.4c1.8,0.4,2.5,1.1,4,2l20.1,11.2c2.2,1.2,6.5,3.3,8.1,4.8c-1.7,0.4-2.7,1.1-4.1,1.9l-12.1,6.7
			c-2.7,1.6-5.2,2.8-8,4.4C175.3,268.3,172.8,269.6,170.1,271z"/>
		<path class="st0" d="M163.2,306.5c0,4.3-1.2,18.9,1.8,18.9c3.9,0,2.8-3.2,2.8-10.6c1.7,1.2,1.2,2.8,3.7,2.8c1.6,0,1.4-1.3,2.8-2.3
			c0,3.5-0.2,6.8,0.5,9.7c3,0.7,0.9,0.7,3.7,0c0.8-3.6,0.8-17.6,0-21.2c-6.4-1.5-3.7,3.7-7.8,6.4c-0.7-1.3-1.2-2.5-2-4
			C165.7,300.7,163.2,304,163.2,306.5"/>
		<path class="st0" d="M191.7,318.4c0,3.2,2.5,2.3,8.7,2.3l0.5,4.1c2.1,0.5,4.1,1.8,4.1-4.1c1.6-0.1,2.3-0.7,2.2-2.2
			c-0.2-1.9-1.2-1.5-2.2-2.8c0-3.9,0.3-8.7-0.5-12c-3.4-0.8-2.7-1.1-5.3,2.9C197.9,308.7,191.7,317.5,191.7,318.4 M200.4,313.4v2.8
			h-1.8c0.3-0.6,0.4-0.9,0.8-1.5C199.8,314.1,200.1,313.8,200.4,313.4z"/>
		<path class="st0" d="M180.7,305.6v17.5c0,2.9,4.6,3,4.6,0.5v-6.9c13.3,0,9.2-13.3,2.8-13.3C185.3,303.3,180.7,302.5,180.7,305.6
			 M187.6,312h-2.3v-4.1c2.5,0,4.1-0.4,4.1,2.3C189.4,311.2,188.6,312,187.6,312z"/>
		<path class="st0" d="M165.9,295c-0.7,3-0.7,0.9,0,3.7c2.9,0.7,3.1,0.7,6,0c0.7-3,0.7-0.9,0-3.7C170,294.5,168.1,294.1,165.9,295"
			/>
		<path class="st0" d="M71,164.2v212.9c0,9.9,10.1,18.8,19.7,18.8h139.8v20.6H89.8c-5.5,0-9.4,2.4-12.5,5.3
			c-2.5,2.4-6.3,7.2-6.3,11.5V481c0,9.9,10.1,18.8,19.7,18.8h106c2.6,0,5.7-3.4,6.2-6c0.7-3.8-1.9-5.8-3.4-8.1h-91
			c-28.4,0-23.5,5.9-23.5-49.7c0-2.3,3.4-5.6,5.6-5.6h349c2.3,0,5.6,3.4,5.6,5.6c0,54.5,4.6,49.7-20.6,49.7H226.7
			c-1.5,2.3-4.1,4.3-3.4,8.1c0.5,2.6,3.6,6,6.2,6h210.1c9.6,0,19.7-8.9,19.7-18.8v-46c0-9.7-9.1-18.8-18.8-18.8H299.9v-20.6h139.8
			c9.6,0,19.7-8.9,19.7-18.8V164.2c0-9.9-10.1-18.8-19.7-18.8H222c-8.4,0-9.5,10-4.7,13.1c3.9,2.5,107.7,1,113.5,1h91
			c10.2,0,23.5-2.5,23.5,7.5v207.3c0,5.6-3.8,7.5-9.4,7.5H94.5c-5.6,0-9.4-1.9-9.4-7.5V167.1c0-9.8,12.6-7.5,22.5-7.5
			c8.2,0,79.1,1.1,82.7-0.7c6.3-3.2,4-13.3-3.9-13.3H90.7C81.1,145.5,71,154.4,71,164.2 M244.6,396h41.3v19.7h-41.3V396z"/>
		<path class="st0" d="M91.7,178.3v182.9c0,8.5,6.6,14.1,15,14.1h317.1c8.4,0,15-5.5,15-14.1v-181c0-8.5-6.6-14.1-15-14.1H106.7
			C99.1,166.1,91.7,171.7,91.7,178.3 M272.7,181.1h152v82.5h-152V181.1z M257.7,277.8v61v21.5h-152v-21.5v-61v-14.1v-46.2v-36.4h152
			v36.3v46.2V277.8z M272.7,277.8h152v82.6h-152V277.8z"/>
		<path class="st0" d="M91.7,449.4c0,12.3-3,30,15,30h122.9c17.8,0,15-18.8,15-28.1c0-7.3-5.4-14.1-12.2-14.1H103.8
			C98.1,437.2,91.7,443.7,91.7,449.4 M105.7,451.3h124.8v13.1H105.7V451.3z"/>
		<path class="st0" d="M251.1,456.9c0,29.9,42.2,29,42.2,0.9C293.3,430.6,251.1,430.7,251.1,456.9 M270.8,451.3
			c2.4,0,4.9,1.1,6.6,1.9c4.6,19.6-17.7,10.2-10.5,0.8C267.6,453,269.9,451.3,270.8,451.3z"/>
		<path class="st0" d="M396.5,456.9c0,30.1,42.2,28,42.2,2.8c0-6.8-0.9-12.3-6.3-17.2c-9-8.1-26.5-8.1-33.5,6.5
			C398.3,450.6,396.5,455.4,396.5,456.9 M418.1,464.4c-10.5,0-7.3-13.1,0-13.1C425.5,451.3,428.2,464.4,418.1,464.4z"/>
		<path class="st0" d="M299.9,455v4.7c0,16.2,22.3,27,35.9,13.4c12-12,6.2-35.9-16.2-35.9C309.4,437.2,299.9,446.9,299.9,455
			 M314,458.8c0-9.2,13.1-11,13.1,0.9C327.1,466.3,314,466.2,314,458.8z"/>
		<path class="st0" d="M369.3,479.4c10.6,0,20.6-9.9,20.6-17.8V456c0-17.6-24.7-25.6-36.3-12C341.2,458.5,352,479.4,369.3,479.4
			 M362.8,457.9c0-8.5,13.1-8.5,13.1,0C375.9,466.9,362.8,466.9,362.8,457.9z"/>
		<path class="st0" d="M326,197.5c-1.1,4.8-0.5,38-0.5,45.5c0,1,1.3,2.3,1.8,2.3c1.7,0,8.8-4.3,10.7-5.4l26.6-14.8
			c2.6-1.5,7.4-3.8,2.8-6.5c-0.9-0.5-1.5-0.9-2.7-1.5c-2-1-3.4-1.8-5.4-2.9l-31-17.1C327.6,197.1,326.6,197.3,326,197.5
			 M330.2,238.9v-35.4c1.8,0.4,2.5,1.1,4,2l20.1,11.2c2.2,1.2,6.5,3.3,8.1,4.8c-1.7,0.4-2.7,1.1-4.1,1.9l-12.1,6.7
			c-2.7,1.6-5.2,2.8-8,4.4C335.4,236.2,332.9,237.5,330.2,238.9z"/>
		<path class="st0" d="M326,290.4c-1.1,4.8-0.5,38-0.5,45.5c0,1,1.3,2.3,1.8,2.3c1.7,0,8.8-4.3,10.7-5.4l26.6-14.8
			c2.6-1.5,7.4-3.8,2.8-6.5c-0.9-0.5-1.5-0.9-2.7-1.5c-2-1-3.4-1.8-5.4-2.9l-31-17.1C327.6,290,326.6,290.2,326,290.4 M330.2,331.8
			v-35.4c1.8,0.4,2.5,1.1,4,2l20.1,11.2c2.2,1.2,6.5,3.3,8.1,4.8c-1.7,0.4-2.7,1.1-4.1,1.9l-12.1,6.7c-2.7,1.6-5.2,2.8-8,4.4
			C335.4,329.1,332.9,330.4,330.2,331.8z"/>
	</g>
	<g>
		<path class="st0" d="M633.4,389.6v77.3c0,2,2,3.6,4.1,3.6h52.2c2.1,0,4.1-1.6,4.1-3.6v-63.3c0-1.7-6.8-7.8-8.3-9.2l-6.6-6.6
			c-0.7-0.7-1.3-1.7-2.7-1.7h-38.9C635.4,386,633.4,387.6,633.4,389.6 M678.1,390.8l11.2,11c-3.5,0.1-7.9,0.5-10.9-0.2
			C677.7,398.6,678.1,394.2,678.1,390.8z M636.1,390c0-0.8,0.8-1.1,1.6-1.1h37.5c0,3.5-0.6,12.2,0.9,14.4c0.6,0.8,1.8,1.5,3.2,1.5
			h11.6v42h-31.1c-2.4,0-1.9,2.7-0.5,2.7h31.6v17.2c0,0.8-0.8,1.1-1.6,1.1h-51.7c-0.8,0-1.6-0.3-1.6-1.1v-17.2h11.9
			c1.4,0,1.9-2.7-0.5-2.7h-11.4V390z"/>
		<path class="st0" d="M652,407.4c-0.7,2.9-0.3,23-0.3,27.5c0,0.6,0.8,1.4,1.1,1.4c1,0,5.3-2.6,6.5-3.2l16.1-9
			c1.6-0.9,4.4-2.2,1.7-3.9c-0.5-0.3-0.9-0.5-1.6-0.9c-1.2-0.6-2-1.1-3.2-1.7l-18.9-10.4C652.9,407.1,652.3,407.3,652,407.4
			 M654.4,432.4V411c1.1,0.3,1.5,0.7,2.4,1.2L669,419c1.3,0.7,3.9,2,5,2.8c-1,0.2-1.6,0.7-2.4,1.2l-7.3,4c-1.6,1-3.1,1.7-4.9,2.6
			C657.7,430.8,656.2,431.6,654.4,432.4z"/>
		<path class="st0" d="M650.3,453.9c0,2.6-0.7,11.4,1.1,11.4c2.3,0,1.6-1.9,1.6-6.4c1,0.7,0.7,1.6,2.2,1.6c1,0,0.9-0.8,1.6-1.4
			c0,2.1-0.1,4,0.3,5.9c1.8,0.4,0.5,0.4,2.2,0c0.5-2.2,0.5-10.6,0-12.7c-3.8-0.9-2.2,2.2-4.8,3.8c-0.4-0.8-0.7-1.5-1.2-2.4
			C651.9,450.3,650.3,452.3,650.3,453.9"/>
		<path class="st0" d="M667.6,461c0,1.9,1.5,1.4,5.3,1.4l0.3,2.5c1.3,0.3,2.5,1,2.5-2.5c0.9-0.1,1.4-0.4,1.3-1.3
			c-0.1-1.1-0.7-0.9-1.3-1.7c0-2.4,0.2-5.3-0.3-7.2c-2-0.5-1.6-0.6-3.2,1.8C671.3,455.2,667.6,460.5,667.6,461 M672.9,458v1.6h-1.1
			c0.2-0.3,0.3-0.5,0.5-0.9C672.4,458.5,672.6,458.2,672.9,458z"/>
		<path class="st0" d="M660.9,453.2v10.5c0,1.7,2.7,1.8,2.7,0.3v-4.1c8,0,5.6-8.1,1.6-8.1C663.7,451.9,660.9,451.4,660.9,453.2
			 M665.1,457.2h-1.4v-2.5c1.5,0,2.5-0.2,2.5,1.4C666.2,456.7,665.7,457.2,665.1,457.2z"/>
		<path class="st0" d="M652,446.9c-0.4,1.8-0.4,0.5,0,2.2c1.7,0.4,1.8,0.4,3.6,0c0.4-1.8,0.4-0.5,0-2.2
			C654.4,446.6,653.3,446.4,652,446.9"/>
		<path class="st0" d="M595.9,363.8v202.8c0,4.6,1.6,7.1,3.7,9.9c5.2,7,13.2,6.9,13.2,1.4c0-6.2-8.5-3.1-8.5-12.4v-16.4h117.3
			c0,25.2,1.5,24.9-18.1,24.9l-74.6,0.1c-5,1-5.5,9,2.7,9h77.6c6.4,0,10.6-1,14.4-3.7c3-2.2,6.6-7.2,6.6-12.1v-204
			c0-9.9-9.3-15.9-20.9-15.9c-5,0-19.1-0.9-21.7,1.5c-1.5,1.5-1.8,3.7-0.5,5.5c5.6,7.6,34.7-6.4,34.7,11.2v7.4H604.4
			c0-19.4,0.5-16.4,32.9-16.4h30.6c2.4,0,2.6,0.3,4.2-0.9c3.1-2.3,3.4-8.2-5.4-8.2h-49.8C605.3,347.3,595.9,352.8,595.9,363.8
			 M604.4,381.3h117.3v159.2H604.4V381.3z"/>
		<path class="st0" d="M767,431.7c0,3.7,13.5,12.7,13.5,30c0,11.9-1.1,20.2-9,30.1c-1.7,2.2-4.7,3.8-4.7,6.7c0,2.4,1.7,4.6,3.9,4.6
			c3.3,0,6.1-4.2,7.8-6.4c13.9-16.8,14.5-45.6,0.5-62.6c-1.2-1.4-5.5-7-7.2-7C769.1,427.2,767,428.7,767,431.7"/>
		<path class="st0" d="M628.5,490.3c-4.2,0.4-4.6,6,0,6.4c0,2.1-0.3,28.1,0.2,29.5c1,2.6,5,2.6,6,0c0.5-1.4,0.2-27.4,0.2-29.5
			c4.3-0.4,4.1-6.1,0-6.4c0-5.9,1.2-9.3-3.8-9.3c-0.8,0-1.4,0.6-1.8,1.1c-0.8,1-0.6,0.7-0.7,2.2C628.4,486,628.5,488.3,628.5,490.3"
			/>
		<path class="st0" d="M644.1,512.3c-4.6,0.4-4.2,6.1,0,6.4c0,1.9-0.1,4.1,0,6c0.2,4.1,4.1,4,5.8,2.2c0.8-1,0.6-0.7,0.7-2.2
			c0.1-1.8,0-4.1,0-6c4.1-0.3,4.3-6,0-6.4c0-2.1,0.3-28.1-0.2-29.5c-1-2.6-5-2.6-6,0C643.8,484.2,644.1,510.2,644.1,512.3"/>
		<path class="st0" d="M675.6,490.3c-4.2,0.4-4.6,6,0,6.4c0,2.1-0.3,28.1,0.2,29.5c1,2.6,5,2.6,6,0c0.5-1.4,0.2-27.4,0.2-29.5
			c4.3-0.4,4.1-6.1,0-6.4c0-1.9,0.1-4.1,0-6c-0.2-4.7-6.2-4.7-6.5,0C675.5,486,675.6,488.3,675.6,490.3"/>
		<path class="st0" d="M691.4,509c-4.4,1-4.4,5.8,0,6.8c0,8.4-1.3,12.3,3.8,12.3c2.4,0,2.6-3,2.5-4.7c0-2.5,0-5.2,0-7.7
			c1.6-0.8,3.2-1,3.2-3.4c0-1.8-1.4-2.9-3.2-3.4c0-2.2,0.4-25-0.3-26.4c-0.8-1.5-6.2-4.1-6.1,3.4V509z"/>
		<path class="st0" d="M659.9,499.6c-4.6,1.1-4.2,6.3,0,6.4v19.5c0,3.3,6.4,3.3,6.4,0v-19.5c4.3-0.1,4.3-5.4,0-6.4v-15.8
			c-0.4-4-5.8-3.8-6.4-0.4V499.6z"/>
		<path class="st0" d="M768.1,465.2c0,6.3-2,10.8-4.7,14.7c-1.3,1.8-3.5,3.6-4,5.6c-1,3.3,4,12,13.2-3.8c5.4-9.3,5.4-23.6,0-32.8
			c-9.2-15.8-13.8-7-13.2-4.1c0.3,2,2.7,3.8,3.9,5.6C766.1,454.2,768.1,458.7,768.1,465.2"/>
		<path class="st0" d="M646.4,561.4c0,2.7,1.8,4.6,4.6,4.6h24.4c6.2,0,6.7-9.1-1.7-9.1h-20.9C649.2,556.9,646.4,558,646.4,561.4"/>
		<path class="st0" d="M751.7,456.1c0,4.7,3.4,2.1,3.4,10.2c0,3.4-3.4,4.8-3.4,7.4c0,2,2.5,4.6,4.6,4.6c4.1,0,7.9-8.4,7.9-13
			s-3.8-13-7.9-13C754.3,452.1,751.7,454,751.7,456.1"/>
		<path class="st0" d="M742.6,465.2c0,6.1,8.5,6,8.5,0C751.1,459.1,742.6,459.1,742.6,465.2"/>
		<path class="st0" d="M616.8,363.8c0,7.1,8.5,6.7,8.5,0C625.3,359.2,616.8,359.2,616.8,363.8"/>
	</g>
	<path class="st1" d="M713.5,862.7c2.6-4.2,5.2-8.9,7.6-14c2.4-5.1,4.4-10.8,6-16.9c1.6-6.2,2.4-12.9,2.4-20.3
		c0-7.3-0.6-13.8-1.9-19.6c-1.3-5.8-3.1-11.2-5.5-16.3s-5.2-10.3-8.5-15.6H730c3.1,3.3,6.1,7.2,8.8,11.9c2.8,4.6,5,10.2,6.7,16.6
		c1.7,6.4,2.6,14.1,2.6,23c0,8.3-0.9,15.7-2.7,22.2s-4.1,12.1-6.9,16.9c-2.8,4.8-5.6,8.8-8.6,12.1L713.5,862.7L713.5,862.7z
		 M673.2,842.6l-15.9-51.7h19.2l7.9,34.6l8.3-34.6h19l-16.9,51.7H673.2z M643.5,842.6c-4.4,0-8-0.6-10.6-1.8c-2.7-1.2-4.5-3.2-5.7-6
		c-1.1-2.8-1.6-6.7-1.5-11.7l0.6-17.5h-8v-11.9l8.7-2.9l2.3-14.5h14.8v14.5h10.5v14.8h-10.5V823c0,0.8,0.1,1.6,0.2,2.2
		c0.1,0.6,0.3,1.1,0.6,1.5s0.7,0.7,1.1,1c0.4,0.2,1,0.4,1.5,0.4l6.6,0.7v13.8L643.5,842.6L643.5,842.6z M596,843.1
		c-3.3,0-6.3-0.4-9-1.3c-2.8-0.9-5.1-2.3-7.1-4.3s-3.5-4.7-4.6-8s-1.6-7.5-1.6-12.5c0-5.2,0.5-9.6,1.5-13.1s2.4-6.3,4.4-8.3
		c1.9-2,4.3-3.5,7.2-4.4s6.2-1.3,9.9-1.3c3.5,0,6.6,0.2,9.4,0.7c2.8,0.4,5.9,1.2,9.3,2.3v10.7h-12.6c-2.8,0-4.9,0.4-6.4,1.1
		c-1.5,0.7-2.5,2-3.1,3.9s-0.9,4.6-0.9,8.1c0,3.6,0.3,6.3,0.8,8.1s1.6,3,3.1,3.6s3.7,0.9,6.7,0.9h13.1v10.5
		c-1.6,0.6-3.5,1.2-5.8,1.8c-2.3,0.5-4.6,1-7.1,1.2C600.6,843,598.3,843.1,596,843.1z M549,843.1c-3.3,0-6.3-0.4-9-1.3
		c-2.8-0.9-5.1-2.3-7.1-4.3s-3.5-4.7-4.6-8c-1.1-3.4-1.6-7.5-1.6-12.5c0-5.2,0.5-9.6,1.5-13.1s2.4-6.3,4.4-8.3
		c1.9-2,4.3-3.5,7.2-4.4s6.2-1.3,9.9-1.3c3.5,0,6.6,0.2,9.4,0.7c2.8,0.4,5.9,1.2,9.3,2.3v10.7h-12.6c-2.8,0-4.9,0.4-6.4,1.1
		c-1.5,0.7-2.5,2-3.1,3.9s-0.9,4.6-0.9,8.1c0,3.6,0.3,6.3,0.8,8.1s1.6,3,3.1,3.6s3.7,0.9,6.7,0.9h13.1v10.5
		c-1.6,0.6-3.5,1.2-5.8,1.8c-2.3,0.5-4.6,1-7.1,1.2C553.6,843,551.2,843.1,549,843.1z M506.3,862.7c-3.1-3.3-6.1-7.3-8.8-11.9
		c-2.8-4.6-5-10.1-6.7-16.6s-2.6-14.1-2.6-22.9c0-8.4,0.9-15.8,2.7-22.3c1.8-6.5,4.1-12.1,6.9-16.9c2.8-4.8,5.6-8.8,8.6-12.1h16.4
		c-2.6,4.2-5.2,8.8-7.6,14c-2.4,5.2-4.4,10.8-6,17s-2.4,12.9-2.4,20.3c0,7.2,0.7,13.7,2,19.5s3.2,11.2,5.5,16.4
		c2.4,5.1,5.2,10.3,8.4,15.6L506.3,862.7L506.3,862.7z M432.5,828.2c1.2,0,2.2-0.1,3-0.3s1.4-0.7,1.8-1.5s0.8-2,1-3.6
		s0.3-3.7,0.3-6.4s-0.1-4.8-0.3-6.4c-0.2-1.6-0.5-2.7-1-3.5c-0.4-0.8-1.1-1.3-1.8-1.5c-0.8-0.2-1.8-0.3-3-0.3s-2.2,0.1-3,0.3
		s-1.4,0.7-1.8,1.5s-0.8,1.9-1,3.5s-0.3,3.7-0.3,6.4s0.1,4.8,0.3,6.4c0.2,1.6,0.5,2.8,1,3.6c0.4,0.8,1.1,1.3,1.8,1.5
		C430.3,828.1,431.3,828.2,432.5,828.2z M432.5,843c-4.6,0-8.5-0.5-11.7-1.4c-3.2-1-5.7-2.5-7.6-4.6s-3.3-4.8-4.1-8.2
		c-0.8-3.4-1.2-7.4-1.2-12.2c0-5.2,0.4-9.5,1.3-12.9s2.3-6.1,4.2-8.2c1.9-2,4.5-3.4,7.6-4.3c3.2-0.8,7-1.2,11.6-1.2
		s8.5,0.4,11.7,1.3c3.2,0.9,5.7,2.4,7.6,4.4s3.3,4.7,4.1,8.2c0.9,3.4,1.3,7.7,1.3,12.7s-0.4,9.2-1.2,12.6c-0.8,3.4-2.1,6.1-4,8.2
		c-1.9,2-4.4,3.5-7.6,4.4C441.2,842.6,437.3,843,432.5,843z M376.7,828.2c1.3,0,2.4-0.2,3.4-0.6c1-0.4,1.7-0.8,2.3-1.3v-20.9
		c-0.6-0.3-1.4-0.7-2.4-1.1c-1-0.4-1.9-0.6-2.8-0.6c-1.7,0-3.1,0.3-4.2,0.9c-1.1,0.6-1.8,1.8-2.3,3.6c-0.4,1.8-0.7,4.5-0.7,8.2
		c0,3.5,0.2,6.1,0.6,7.8s1.1,2.8,2.1,3.3C373.8,828,375.1,828.2,376.7,828.2z M369.8,843.1c-3.9,0-7.2-0.8-10-2.4
		c-2.8-1.6-4.8-4.3-6.3-8.1c-1.4-3.8-2.2-8.9-2.2-15.3c0-6.4,0.6-11.6,1.7-15.6s3.1-7,5.9-8.9s6.8-2.9,11.8-2.9c2,0,4.1,0.2,6.1,0.6
		c2,0.4,3.8,0.9,5.4,1.4v-22.7h18.6v73.3h-15.7l-2.9-4.7c-1.2,1.1-2.5,2-3.8,2.8s-2.7,1.4-4.1,1.8
		C372.9,842.9,371.4,843.1,369.8,843.1z M321,830.5c0.3,0,0.7,0,1.1-0.1s0.8-0.1,1.2-0.2c0.4-0.1,0.8-0.2,1.1-0.3
		c0.4-0.1,0.7-0.2,0.9-0.3c0.3-0.1,0.5-0.2,0.7-0.3V820l-3.9,0.6c-1.8,0.3-3.2,0.7-4.1,1.4s-1.4,1.7-1.4,3.1v1.9
		c0,0.8,0.2,1.5,0.5,2.1c0.4,0.5,0.9,0.9,1.5,1.2C319.2,830.3,320,830.5,321,830.5z M311.2,843.1c-4,0-7.2-1.2-9.6-3.6
		c-2.5-2.4-3.7-5.6-3.7-9.6v-5.3c0-3.8,1.4-7,4.2-9.6c2.8-2.6,7.3-3.8,13.4-3.8h10.4v-1.6c0-1.3-0.2-2.3-0.7-3
		c-0.4-0.7-1.4-1.2-2.7-1.5c-1.4-0.3-3.5-0.4-6.5-0.4h-15.1V794c2.7-1.1,5.8-2,9.3-2.7s7.8-1.1,12.8-1.1c4.4,0,8.1,0.5,11.4,1.5
		c3.2,1,5.7,2.8,7.5,5.4c1.8,2.6,2.6,6.3,2.6,11.2v34.3h-14.8l-2.9-5.2c-0.6,0.6-1.4,1.3-2.4,1.9c-0.9,0.6-2,1.3-3.3,1.9
		c-1.3,0.6-2.8,1.1-4.4,1.4C315.1,843,313.2,843.1,311.2,843.1z M260.2,842.6v-51.7h14.5l4.1,7.2c1.5-2.1,3.3-4,5.3-5.6
		s4.5-2.4,7.3-2.4c0.5,0,1.1,0,1.8,0.1c0.7,0.1,1.4,0.2,2,0.4v19.1c-1.1-0.1-2.2-0.2-3.3-0.3c-1.1-0.1-2.1-0.1-3-0.1
		c-1.5,0-2.9,0.1-4.2,0.4c-1.3,0.3-2.4,0.7-3.4,1.3s-1.8,1.3-2.5,2.3v29.3H260.2z M218.9,842.6v-51.7h14.5l4.1,7.2
		c1.5-2.1,3.3-4,5.3-5.6s4.5-2.4,7.3-2.4c0.5,0,1.1,0,1.8,0.1s1.4,0.2,2,0.4v19.1c-1.1-0.1-2.2-0.2-3.3-0.3s-2.1-0.1-3-0.1
		c-1.5,0-2.9,0.1-4.2,0.4c-1.3,0.3-2.4,0.7-3.4,1.3s-1.8,1.3-2.5,2.3v29.3H218.9z M184.4,812.2h7.4c1.3,0,2.2-0.3,2.8-0.9
		c0.6-0.6,0.9-1.6,0.9-3c0-1.2-0.2-2.2-0.6-3c-0.4-0.8-1-1.3-1.8-1.7s-1.9-0.5-3.3-0.5c-1.2,0-2.2,0.3-3,0.8s-1.4,1.4-1.8,2.7
		C184.6,808,184.4,809.8,184.4,812.2z M190.7,843c-5.9,0-10.6-0.7-14.2-2.2c-3.6-1.5-6.2-4.1-7.8-7.9c-1.6-3.8-2.4-9.2-2.4-16.1
		c0-7.1,0.7-12.6,2.2-16.5s3.9-6.6,7.3-8.1c3.4-1.5,8.1-2.3,14.1-2.3c5.5,0,9.9,0.5,13.1,1.5c3.2,1,5.5,2.9,6.9,5.5
		c1.4,2.7,2.1,6.4,2.1,11.3c0,3.8-0.7,6.7-2.2,8.9c-1.5,2.1-3.6,3.7-6.2,4.6c-2.7,0.9-5.9,1.3-9.5,1.3h-9.2c0.2,1.5,0.6,2.8,1.2,3.7
		c0.6,0.9,1.6,1.6,3.2,2c1.5,0.4,3.8,0.6,6.8,0.6h14.1v10.8c-2.2,0.6-4.9,1.3-8,1.9C198.8,842.7,195,843,190.7,843z M136.4,843.1
		c-4,0-7.6-0.5-10.8-1.4c-3.2-1-6-2.7-8.3-5.3s-4.1-6.2-5.3-11c-1.2-4.8-1.8-11-1.8-18.7c0-7.4,0.6-13.5,1.9-18.2s3.1-8.4,5.4-11
		s5.1-4.4,8.3-5.4c3.2-1,6.7-1.5,10.6-1.5c4,0,7.5,0.2,10.5,0.6c3,0.4,5.6,0.9,7.8,1.5c2.1,0.6,3.9,1.2,5.1,1.7v14.5
		c-1.2-0.3-2.8-0.5-4.7-0.8s-4.1-0.5-6.6-0.6c-2.5-0.2-5.1-0.2-8-0.2c-2.2,0-4,0.2-5.5,0.7c-1.5,0.4-2.7,1.3-3.6,2.7
		c-0.9,1.3-1.6,3.3-2,5.9c-0.4,2.6-0.6,6-0.6,10.3c0,3.8,0.2,7,0.5,9.6s0.9,4.6,1.7,6s2,2.5,3.6,3.1s3.6,0.9,6.1,0.9
		c4.9,0,8.8-0.1,11.9-0.2c3-0.2,5.5-0.4,7.2-0.6v14.5c-1.6,0.6-3.5,1.2-5.6,1.6c-2.1,0.4-4.7,0.8-7.5,1.1
		C143.8,843,140.4,843.1,136.4,843.1z M577.1,718.6c1.2,0,2.2-0.1,3-0.3s1.4-0.7,1.8-1.5c0.4-0.8,0.8-2,1-3.6s0.3-3.7,0.3-6.4
		s-0.1-4.8-0.3-6.4c-0.2-1.6-0.5-2.7-1-3.5c-0.4-0.8-1.1-1.3-1.8-1.5c-0.8-0.2-1.8-0.3-3-0.3s-2.2,0.1-3,0.3s-1.4,0.7-1.8,1.5
		c-0.4,0.8-0.8,1.9-1,3.5s-0.3,3.7-0.3,6.4s0.1,4.8,0.3,6.4c0.2,1.6,0.5,2.8,1,3.6c0.4,0.8,1.1,1.3,1.8,1.5
		C574.9,718.5,575.9,718.6,577.1,718.6z M577.1,733.4c-4.6,0-8.5-0.5-11.7-1.4c-3.2-1-5.7-2.5-7.6-4.6c-1.9-2.1-3.3-4.8-4.1-8.2
		s-1.2-7.4-1.2-12.2c0-5.2,0.4-9.5,1.3-12.9c0.9-3.4,2.3-6.1,4.2-8.2c1.9-2,4.5-3.4,7.6-4.3c3.2-0.8,7-1.2,11.6-1.2
		s8.5,0.4,11.7,1.3c3.2,0.9,5.7,2.4,7.6,4.4c1.9,2,3.3,4.7,4.1,8.2c0.9,3.4,1.3,7.7,1.3,12.7s-0.4,9.2-1.2,12.6
		c-0.8,3.4-2.1,6.1-4,8.2c-1.9,2-4.4,3.5-7.6,4.4C585.8,732.9,581.8,733.4,577.1,733.4z M536.5,732.9c-4.4,0-8-0.6-10.6-1.8
		c-2.7-1.2-4.5-3.2-5.7-6c-1.1-2.8-1.6-6.7-1.5-11.7l0.6-17.5h-8V684l8.7-2.9l2.3-14.5h14.8v14.5h10.5v14.8h-10.5v17.4
		c0,0.8,0.1,1.6,0.2,2.2c0.1,0.6,0.3,1.1,0.6,1.5s0.7,0.7,1.1,1c0.4,0.2,1,0.4,1.5,0.4l6.6,0.7v13.8H536.5z M488,732.9v-51.7h18.6
		v51.7H488z M490.1,674.6c-1.5,0-2.3-0.7-2.3-2.2v-10.7c0-1.6,0.8-2.4,2.3-2.4h14.6c0.7,0,1.2,0.2,1.6,0.7c0.4,0.4,0.5,1,0.5,1.7
		v10.7c0,1.5-0.7,2.2-2.1,2.2H490.1z M444.6,733.5c-4.5,0-8-1.4-10.6-4.3c-2.6-2.8-3.8-6.6-3.8-11.3v-36.8h18.6V712
		c0,2,0.5,3.3,1.4,4c1,0.7,2.2,1,3.6,1c1,0,2.2-0.3,3.7-0.9c1.5-0.6,2.6-1.3,3.3-2.1v-32.9h18.6v51.7H464l-3.1-5
		c-2.2,1.4-4.7,2.7-7.4,3.8C450.7,732.9,447.7,733.5,444.6,733.5z M404.4,733.5c-3.3,0-6.3-0.4-9-1.3s-5.1-2.3-7.1-4.3
		s-3.5-4.7-4.6-8c-1.1-3.4-1.6-7.5-1.6-12.5c0-5.2,0.5-9.6,1.5-13.1s2.4-6.3,4.4-8.3c1.9-2,4.3-3.5,7.2-4.4c2.9-0.9,6.2-1.3,9.9-1.3
		c3.5,0,6.6,0.2,9.4,0.7c2.8,0.4,5.9,1.2,9.3,2.3V694H411c-2.8,0-4.9,0.4-6.4,1.1c-1.5,0.7-2.5,2-3.1,3.9s-0.9,4.6-0.9,8.1
		c0,3.6,0.3,6.3,0.8,8.1s1.6,3,3.1,3.6s3.7,0.9,6.7,0.9h13.1V730c-1.6,0.6-3.5,1.2-5.8,1.8c-2.3,0.5-4.6,1-7.1,1.2
		C408.9,733.3,406.6,733.5,404.4,733.5z M342,732.9v-51.7h14.5l4.1,7.2c1.5-2.1,3.3-4,5.3-5.6s4.5-2.4,7.3-2.4c0.5,0,1.1,0,1.8,0.1
		c0.7,0.1,1.4,0.2,2,0.4V700c-1.1-0.1-2.2-0.2-3.3-0.3c-1.1-0.1-2.1-0.1-3-0.1c-1.5,0-2.9,0.1-4.2,0.4c-1.3,0.3-2.4,0.7-3.4,1.3
		s-1.8,1.3-2.5,2.3v29.3H342z M315,732.9v-51.7h18.6v51.7H315z M317.1,674.6c-1.5,0-2.3-0.7-2.3-2.2v-10.7c0-1.6,0.8-2.4,2.3-2.4
		h14.6c0.7,0,1.2,0.2,1.6,0.7c0.4,0.4,0.5,1,0.5,1.7v10.7c0,1.5-0.7,2.2-2.1,2.2H317.1z M283.9,733.5c-4,0-7.6-0.5-10.8-1.4
		c-3.2-1-6-2.7-8.3-5.3s-4.1-6.2-5.3-11c-1.2-4.8-1.8-11-1.8-18.7c0-7.4,0.6-13.5,1.9-18.2s3.1-8.4,5.4-11s5.1-4.4,8.3-5.4
		c3.2-1,6.7-1.5,10.6-1.5c4,0,7.5,0.2,10.5,0.6c3,0.4,5.6,0.9,7.8,1.5c2.1,0.6,3.9,1.2,5.1,1.7v14.5c-1.2-0.3-2.8-0.5-4.7-0.8
		s-4.1-0.5-6.6-0.6c-2.5-0.2-5.1-0.2-8-0.2c-2.2,0-4,0.2-5.5,0.7c-1.5,0.4-2.7,1.3-3.6,2.7c-0.9,1.3-1.6,3.3-2,5.9
		c-0.4,2.6-0.6,6-0.6,10.3c0,3.8,0.2,7,0.5,9.6s0.9,4.6,1.7,6c0.8,1.4,2,2.5,3.6,3.1s3.6,0.9,6.1,0.9c4.9,0,8.8-0.1,11.9-0.2
		c3-0.2,5.5-0.4,7.2-0.6v14.5c-1.6,0.6-3.5,1.2-5.6,1.6c-2.1,0.4-4.7,0.8-7.5,1.1C291.3,733.4,287.8,733.5,283.9,733.5z"/>
</g>
</svg>
