<?xml version="1.0" encoding="utf-8"?>
<!-- Generator: Adobe Illustrator 16.0.0, SVG Export Plug-In . SVG Version: 6.00 Build 0)  -->
<!DOCTYPE svg PUBLIC "-//W3C//DTD SVG 1.1//EN" "http://www.w3.org/Graphics/SVG/1.1/DTD/svg11.dtd">
<svg version="1.1" id="Capa_1" xmlns="http://www.w3.org/2000/svg" xmlns:xlink="http://www.w3.org/1999/xlink" x="0px" y="0px"
	 width="150px" height="150px" viewBox="-42.5 -42.5 150 150" style="enable-background:new -42.5 -42.5 150 150;"
	 xml:space="preserve">
<style type="text/css">
<![CDATA[
	.st0{fill:#333333;}
	.st1{fill-rule:evenodd;clip-rule:evenodd;fill:#333333;}
]]>
</style>
<ellipse class="st0" cx="32.5" cy="99.8" rx="62.4" ry="1.8"/>
<path class="st1" d="M68,59.6c2-1,3.8-0.9,5.8,0.2c2-0.8,3.8-1.1,5.9,0.6c1.2,1,1.9,2.4,2.3,3.8c1,0,2.1-0.1,3-0.2
	c0.1-0.7,0-2.2,0-2.7L85.2,29c-3,3.5-4.2,4-9.9,4.1c-2.3,0-4.6,0.1-6.9,0.1c-2.3,0-4.5,0-6.8,0c-5.9,0-7-0.4-10.2-4
	c-0.1,10.7,0.1,21.4,0.1,32.1c0,0.5-0.1,2.2,0,3c0.7,0.1,1.9,0.1,3,0.1c0.9-2.6,2.6-4.7,5.7-5c1-0.1,1.6,0,2.3,0.3
	C64.4,58.5,66,58.5,68,59.6 M49,22.6c-0.2,12.6,0,25.9,0,38.7c0,2.1-0.4,4.4,1.2,5.2c0.8,0.4,5,0.3,6.2,0.2c0.5-2.4,1.4-4.7,4-4.9
	c1.1-0.1,1.5,0.3,2.1,0.7c2.5-1.9,3.3-1.5,5.5,0c2.4-1.5,3.5-1.4,5.6,0.2c0.7-0.3,2.6-1.9,4.5-0.3c1.1,0.9,1.6,2.6,1.9,4.4
	c0.3,0,5.8-0.3,6-0.3c1.9-0.5,1.5-3,1.5-5l0.4-39.1c-0.6,0.3-2.7,3-3.3,3.7c-3.4,4.1-3.5,4.5-9.2,4.6c-2.3,0-4.6,0.1-6.9,0.1
	c-2.3,0-4.5,0-6.8,0c-5.8,0-5.8-0.2-9.4-4.4C51.8,25.8,49.3,22.8,49,22.6z"/>
<path class="st1" d="M31.2,51.1c3.1,0.2,10.8,0.2,14.1-0.4c0-1.2,0-2.4,0-3.4c0-3.2,0-6.4-0.1-9.7c0-4.9-0.1-9.9-0.2-14.8
	c0-2.7,0.1-2.8,1.2-5.2c0.2-0.4,0.3-0.8,0.5-1.2l-2-0.8c-1.2,1.3-2.3,2.7-3.7,3.9c-6.6,5.6-9.6,5.6-16.2,0.1c-1.5-1.2-2.6-2.6-3.8-4
	c-0.4,0.2-0.8,0.4-1.2,0.5L31.2,51.1z M29.3,53.2c0.3,0.3,0.4,0.2,0.9,0.3c3.9,0.3,15.1,0.3,17.5-0.9c0.2-1.2-0.1-27.4-0.2-29.8
	c0-2.6,0.1-2.2,0.9-4.2c0.6-1.3,1-2.4,1.5-3.5l-4.3-1.8c-0.6-0.3-0.8-0.5-1.4-0.8c-0.2,0.2-3.2,3.6-4.9,5.1
	c-5.8,4.9-7.5,4.7-13.1,0.1c-1.6-1.3-4.6-4.9-4.9-5.1c-1.6,1-4.5,2.1-4.7,2.3L29.3,53.2z"/>
<path class="st1" d="M21.4-15.2c0.3,1.8,0.9,3.7,1.3,5.5c0.5,2.3,1.2,4.5,2.1,6.7c1.1,2.8,4.7,7,8,6.9c3.5,0,6.7-4.2,8-7.1
	c1.5-3.3,2.7-8.4,3.4-12.4C36.2-19.3,29.5-17.3,21.4-15.2 M18.7-17c0.2,2.5,1.1,5.5,1.6,7.9c0.6,2.4,1.4,4.9,2.3,7.1
	c1.4,3.4,5.6,8.5,10.3,8.5c4.8-0.1,8.7-5.1,10.2-8.6c1.6-3.6,3.3-10.5,3.8-14.8C36.7-22.6,28.6-19.5,18.7-17z"/>
<path class="st1" d="M59.4,26.8c2.6,0.2,7.1,0,8.9,0c1.7,0,6.6,0.2,9.2-0.1c0.1-2.2-0.1-4.6-0.1-6.6c0-1.8,0-4.2-0.1-6.2H59.6
	L59.4,26.8z M56.9,28.8c1.3,0.8,9.3,0.5,11.4,0.5c2.2,0,10.1,0.2,11.5-0.5c0.2-0.9,0-16.7-0.2-17.3H57.1L56.9,28.8z"/>
<path class="st1" d="M18.3-29.1c1.6-0.6,3-1.2,4.8-1.6c3.1-0.8,6.3-1.2,9.5-1.2c4.5,0,9.3,0.9,13.6,2.3c0.3,0.1,0.6,0.2,1,0.4
	c0.1-1-0.1-1.9-0.4-3c-0.6-1.6-1.5-2.5-2.8-3.6c-3.2-2.5-7.3-3.3-11.3-3.3c-4.8,0-12.2,1.8-14,6.9C18.5-31.6,18.4-30.3,18.3-29.1
	 M16.4-25.8c2-0.6,3.2-1.5,7.3-2.5c2.8-0.7,5.9-1.1,8.9-1.1c4.2,0,8.9,0.8,12.8,2.2c1.2,0.4,2.6,1.2,3.7,1.5c0.6-2.5,0.9-4.6,0-7.2
	c-0.8-2.3-2.1-3.5-3.6-4.7c-3.3-2.5-7.5-3.9-12.8-3.9c-6.3,0-14.3,2.6-16.3,8.6C15.8-31.3,15.6-27.4,16.4-25.8z"/>
<path class="st1" d="M30.6-27.5c-4.7,0.4-8.6,1.2-12.8,2.8c-1,0.4-1.4,0.4-2,1.2c-0.7,1-2.1,3.1-1.1,4.6c1.1,1.6,2.8,0.2,4.2-0.4
	c5-2,10.5-3.2,16.1-2.8c3.4,0.2,7.2,1.2,10.1,2.3c0.9,0.3,3.8,1.8,4.5,1.6c2.7-0.5,0.7-5.1-0.7-6c-1.3-0.8-5.6-2-7.1-2.4
	C38.4-27.3,34.4-27.8,30.6-27.5"/>
<path class="st1" d="M26.7,9.2c-0.3,0.8-0.6,1.6-1.1,2.3c1.9,2,5.8,5.3,7.1,5.5c1.4-0.1,5.3-3.5,7.3-5.5c-0.5-0.8-0.8-1.5-1.1-2.3
	c-0.1,0-0.2,0.1-0.2,0.1C34.6,11.5,30.5,11.3,26.7,9.2 M24.9,4.8c-0.1,3.1-0.7,4.8-2.4,6.7c0.2,0.9,7.2,7.8,10.2,7.9
	c3,0.1,10-6.9,10.4-7.9c-1.6-2-2.2-3.4-2.3-6.8c-0.5,0.3-1,0.8-1.5,1.2c-0.5,0.4-1.1,0.8-1.7,1.1c-3.9,2.1-7.5,1.5-10.9-1
	C26,5.7,25.5,5.2,24.9,4.8z"/>
<path class="st1" d="M80.9,27.9c0.7-0.4,2.7-2.8,3.3-3.6c3.9-5,3.7-2.7,1.4-8.5c-1-2.6-1.3-2.2-4.4-2.3L80.9,27.9z"/>
<path class="st1" d="M55.6,27.8l-0.1-14.1c-0.7-0.2-2.5-0.2-3,0.1c-0.7,0.4-3.1,6.4-2.9,6.7C49.7,20.9,55,27.5,55.6,27.8"/>
<path class="st1" d="M63,67.5c0,1.5-0.2,3.8,1.6,4.4c0.8,0.3,1.6-0.3,1.9-0.6c0.9-0.9,0.7-2.1,0.7-3.8c0-1.6,0.4-4.6-2-4.6
	C62.8,62.8,63,65.9,63,67.5"/>
<path class="st1" d="M69.9,63.4c-1,0.3-1.4,0.8-1.3,1.9c0,1.1,0,2.2,0.1,3.3c0,1.3-0.1,1.7,0.6,2.6c0.4,0.5,1.3,1.2,2.3,0.8
	c1.7-0.7,1.4-3.1,1.2-5.2c-0.1-0.9,0-2.2-0.4-2.7C71.9,63.5,70.9,63,69.9,63.4"/>
<path class="st1" d="M75.6,63.4c-1.7,0.9-1.3,2.8-1.1,5c0.1,1.3,0.2,1.7,0.7,2.5c0.4,0.5,1.1,1.4,2.1,0.9
	C79.7,70.6,78.8,61.8,75.6,63.4"/>
<path class="st1" d="M60.1,63.6c-1.6,0.6-2,2.1-2.1,3.9c-0.3,5.4,3.4,4.2,3.7,2.9c0.2-0.6,0.1-2.2,0.1-2.9
	C61.9,65.9,62.1,62.9,60.1,63.6"/>
<path class="st1" d="M32.9,35.5c-1.4,0.7-0.2,2.7,1,1.9C35,36.8,34.2,34.8,32.9,35.5"/>
<g>
	<path class="st0" d="M-23.5,90.6h-4.8l0.2-1.6c0.2-0.2,0.6-0.4,1.2-0.6l2.2-8.7c-0.5-0.2-0.8-0.4-0.9-0.6l0.6-1.6h4.2
		c2,0,3.5,0.6,4.4,1.7c0.9,1.1,1.1,2.8,0.5,5c-0.6,2.2-1.5,3.8-2.9,4.8C-20.1,90.1-21.7,90.6-23.5,90.6z M-24.2,88.6h1.4
		c0.9,0,1.8-0.3,2.5-0.9s1.3-1.7,1.7-3.3c0.8-3.2,0-4.7-2.4-4.7H-22L-24.2,88.6z"/>
	<path class="st0" d="M-11.1,90.8c-1.8,0-3-0.5-3.6-1.6c-0.6-1-0.6-2.7,0-5c0.6-2.3,1.5-4,2.8-5.1c1.3-1.1,2.8-1.7,4.6-1.7
		c1.8,0,3,0.5,3.7,1.5c0.6,1,0.7,2.6,0.1,4.9c-0.6,2.3-1.5,4-2.8,5.2C-7.8,90.2-9.3,90.8-11.1,90.8z M-10.3,80.6
		c-0.6,0.7-1.1,1.8-1.6,3.4c-0.4,1.6-0.5,2.8-0.2,3.6c0.3,0.7,0.9,1.1,1.7,1.1c0.8,0,1.6-0.4,2.2-1c0.6-0.7,1.2-1.9,1.6-3.5
		c0.8-3,0.3-4.5-1.6-4.5C-9,79.6-9.7,79.9-10.3,80.6z"/>
	<path class="st0" d="M5.6,79.8c-0.3-0.2-0.9-0.2-1.6-0.2s-1.5,0.3-2.1,1c-0.6,0.7-1.2,1.8-1.6,3.4c-0.4,1.6-0.5,2.8-0.2,3.5
		c0.3,0.7,0.8,1,1.7,1c1.4,0,2.6-0.2,3.8-0.6l0.3,1.7c-1.5,0.8-3.2,1.2-5,1.2c-1.8,0-3-0.5-3.5-1.5c-0.5-1-0.5-2.7,0.1-5
		s1.5-4,2.8-5.1C1.5,78,3,77.4,4.8,77.4c1.4,0,2.7,0.4,3.8,1.2c0,0.1-0.1,0.2-0.1,0.4c-0.1,0.2-0.2,0.6-0.4,1.1
		c-0.2,0.5-0.5,0.9-0.7,1.3H5.6C5.5,81.1,5.5,80.6,5.6,79.8z"/>
	<path class="st0" d="M15.8,89.6c-1,0.8-2.3,1.2-4,1.2c-1.7,0-2.8-0.4-3.2-1.2c-0.5-0.8-0.5-2-0.1-3.7l1.6-6.1
		c-0.4-0.2-0.7-0.4-0.9-0.6l0.6-1.6h4.4L14,79.2c-0.3,0.2-0.7,0.5-1.2,0.6L11.2,86c-0.2,0.9-0.3,1.6-0.1,2c0.2,0.4,0.7,0.7,1.4,0.7
		c0.8,0,1.4-0.2,1.8-0.7c0.4-0.4,0.8-1.1,1-2l1.6-6.2c-0.5-0.2-0.8-0.4-0.9-0.6l0.6-1.6h4.1l-0.2,1.6c-0.3,0.2-0.7,0.5-1.2,0.6
		l-1.6,6.1C17.4,87.6,16.7,88.8,15.8,89.6z"/>
	<path class="st0" d="M32.7,83.5c0.1-0.5,0.4-1.3,0.7-2.3l0.2-0.5l-0.2,0c-0.6,1.1-1,1.9-1.4,2.6l-4.4,7.4h-2.5l-0.8-7.4
		c-0.1-0.6-0.1-1.3-0.1-2.1l0-0.4l-0.2,0c-0.2,1.1-0.4,2.1-0.5,2.8l-1.3,5c0.4,0.2,0.7,0.4,0.9,0.7l-0.6,1.5h-3.7l0.2-1.5
		c0.3-0.3,0.7-0.5,1.2-0.7l2.2-8.7c-0.5-0.2-0.8-0.4-0.9-0.7l0.6-1.5h4.3l0.8,7.6c0.1,0.8,0.2,1.6,0.1,2.3l0,0.3h0.3
		c0.2-0.8,0.7-1.6,1.3-2.6l4.6-7.6h4.2L37.5,79c-0.3,0.3-0.7,0.5-1.3,0.7l-2.2,8.7c0.4,0.2,0.7,0.4,0.9,0.7l-0.6,1.6H30l0.2-1.6
		c0.3-0.3,0.7-0.5,1.2-0.7L32.7,83.5z"/>
	<path class="st0" d="M44.7,90.6h-8.8l0.2-1.6c0.2-0.2,0.6-0.4,1.2-0.6l2.2-8.7c-0.5-0.2-0.8-0.4-0.9-0.6l0.6-1.6h8.6l-0.8,3.3
		l-1.4,0.2c-0.2-0.3-0.3-0.7-0.3-1.4h-3l-0.8,3.3h2.6c0.2-0.4,0.5-0.6,0.7-0.8l1.2,0.1l-0.9,3.4l-1.2,0.2c-0.1-0.1-0.2-0.4-0.3-0.8
		H41L40,88.6h3.1c0.3-0.7,0.7-1.1,1.1-1.4l1.4,0.2L44.7,90.6z"/>
	<path class="st0" d="M50.8,83.5l-1.3,5c0.4,0.2,0.7,0.4,0.9,0.7l-0.6,1.5h-3.7l0.2-1.5c0.3-0.3,0.7-0.5,1.2-0.7l2.2-8.7
		c-0.5-0.2-0.8-0.4-0.9-0.7l0.6-1.5h3.9l1.9,7.3c0.1,0.5,0.2,1.2,0.3,2.1l0,0.5l0.2-0.1c0.1-1.1,0.3-2,0.4-2.8l1.3-4.9
		c-0.4-0.2-0.7-0.4-0.9-0.7l0.6-1.5h3.7L60.7,79c-0.3,0.3-0.7,0.5-1.2,0.7l-2.8,10.9h-3l-1.9-7.4c-0.1-0.5-0.2-1.2-0.3-2.1l0-0.4
		l-0.2,0.1C51.2,81.8,51,82.8,50.8,83.5z"/>
	<path class="st0" d="M72.2,77.6l-0.7,2.7l-1.2,0.2c-0.1-0.1-0.2-0.4-0.3-0.8h-2.3l-2.2,8.8c0.5,0.2,0.7,0.4,0.9,0.6l-0.6,1.6h-4.4
		l0.2-1.6c0.2-0.2,0.6-0.4,1.2-0.6l2.2-8.8h-2.3c-0.3,0.4-0.5,0.7-0.7,0.8l-1.2-0.2l0.7-2.7H72.2z"/>
</g>
<g>
	<path class="st0" d="M74.7,90.8c-1.8,0-3-0.5-3.6-1.6c-0.6-1-0.6-2.7,0-5c0.6-2.3,1.5-4,2.8-5.1c1.3-1.1,2.8-1.7,4.6-1.7
		s3,0.5,3.7,1.5c0.6,1,0.7,2.6,0.1,4.9c-0.6,2.3-1.5,4-2.8,5.2C78,90.2,76.5,90.8,74.7,90.8z M75.5,80.6c-0.6,0.7-1.1,1.8-1.6,3.4
		c-0.4,1.6-0.5,2.8-0.2,3.6s0.9,1.1,1.7,1.1c0.8,0,1.6-0.4,2.2-1c0.6-0.7,1.2-1.9,1.6-3.5c0.8-3,0.3-4.5-1.6-4.5
		C76.8,79.6,76.1,79.9,75.5,80.6z"/>
	<path class="st0" d="M90.2,79.7c-0.4-0.1-0.8-0.2-1.3-0.2c-0.5,0-0.9,0.1-1.2,0.4c-0.3,0.2-0.6,0.6-0.7,1c-0.1,0.4-0.1,0.8,0.1,1
		s0.5,0.4,1.1,0.6l1.6,0.5c0.8,0.3,1.5,0.7,1.9,1.2c0.4,0.6,0.5,1.4,0.2,2.5c-0.3,1.3-1.1,2.3-2.2,3s-2.4,1.1-3.7,1.1
		c-0.8,0-1.5-0.1-2.3-0.3c-0.8-0.2-1.3-0.5-1.8-0.8c0-0.1,0.1-0.2,0.1-0.4s0.2-0.6,0.4-1.1c0.2-0.5,0.5-0.9,0.7-1.3h1.8
		c0.1,0.4,0.1,0.9,0,1.6c0.4,0.2,0.9,0.3,1.5,0.3c0.6,0,1.1-0.1,1.6-0.4c0.4-0.3,0.7-0.7,0.9-1.2c0.1-0.2,0.1-0.4,0.1-0.6
		c0-0.2-0.1-0.3-0.2-0.5c-0.1-0.2-0.4-0.3-0.7-0.4L86,85c-1.8-0.6-2.5-1.8-2-3.8c0.3-1.1,0.9-2.1,2-2.8c1-0.7,2.2-1,3.5-1
		c1.3,0,2.6,0.3,3.7,0.9c0,0.1-0.1,0.2-0.1,0.4c-0.1,0.2-0.2,0.6-0.4,1.1c-0.2,0.5-0.5,0.9-0.7,1.3h-1.8
		C90.1,80.8,90.1,80.3,90.2,79.7z"/>
</g>
<g>
	<path class="st0" d="M-29.3,70.6l1.6-7.2h2c0.6,0,1.1,0.1,1.6,0.4c0.4,0.3,0.7,0.7,0.8,1.2c0.1,0.5,0.1,1.1,0,1.8l-0.1,0.5
		c-0.2,0.7-0.4,1.3-0.8,1.8c-0.4,0.5-0.8,0.9-1.4,1.2c-0.5,0.3-1.1,0.4-1.8,0.4H-29.3z M-27,64.2l-1.3,5.6h1c0.7,0,1.4-0.2,1.9-0.7
		c0.5-0.5,0.9-1.1,1-1.9l0.1-0.4c0.2-0.8,0.1-1.5-0.1-1.9c-0.3-0.5-0.8-0.7-1.5-0.7H-27z"/>
	<path class="st0" d="M-17.9,67.2H-21l-0.6,2.5h3.6l-0.2,0.8h-4.6l1.6-7.2h4.5l-0.2,0.8h-3.6l-0.5,2.3h3.1L-17.9,67.2z"/>
	<path class="st0" d="M-15.8,69.8h3.4l-0.2,0.8H-17l1.6-7.2h1L-15.8,69.8z"/>
	<path class="st0" d="M-10.5,70.6h-0.9l1.6-7.2h0.9L-10.5,70.6z"/>
	<path class="st0" d="M-6.1,69.3l3.4-5.9h1L-6,70.6h-0.8l-1-7.2h1L-6.1,69.3z"/>
	<path class="st0" d="M2.5,67.2h-3.1l-0.6,2.5h3.6l-0.2,0.8h-4.6l1.6-7.2h4.5l-0.2,0.8H0l-0.5,2.3h3.1L2.5,67.2z"/>
	<path class="st0" d="M6.7,67.7H5l-0.7,2.9h-1L5,63.4h2.4c0.8,0,1.4,0.2,1.7,0.6c0.4,0.4,0.4,0.9,0.3,1.6c-0.1,0.4-0.3,0.8-0.6,1.2
		c-0.3,0.3-0.7,0.6-1.2,0.7l1,3.1l0,0.1h-1L6.7,67.7z M5.2,66.9h1.5c0.5,0,0.9-0.1,1.2-0.4c0.3-0.2,0.5-0.6,0.6-1
		c0.1-0.4,0-0.8-0.2-1c-0.2-0.2-0.6-0.4-1.1-0.4H5.8L5.2,66.9z"/>
</g>
<g>
	<path class="st0" d="M12.4,67l2.7-3.6h1.1l-3.5,4.5l-0.6,2.7h-0.9l0.6-2.7l-1.5-4.5h1.1L12.4,67z"/>
</g>
<path class="st1" d="M-33,18.9c0,7.1,0.6,11,4.9,16.9c1,1.4,1.7,2,2.9,3.2c15.6,15.7,43,4,43-18.1c0-9.9-6-19.1-14.1-23
	c-12.8-6.2-27.8-1-34.1,11.6C-31.5,11.6-33,15.9-33,18.9 M-4,2.6l7,0c1.5,0,1.1-0.2,1.7,0.6h-6.1v0.9C2.2,4.1,5.4,3.5,7,5h-7v0.9
	c1.6,0,3.3,0,4.9,0c3.6,0,2.9-0.2,3.8,1.2H3v0.9c3.7,0,6.3-0.6,7.3,0.9H4.7v0.9c3.5,0,6-0.6,6.4,0.9c-1.4,0-3.1-0.2-4.1,0.3
	c1.3,1.8,4.3-0.8,4.9,1.5H7.6v0.9c4.6,0,5.1-0.6,5.2,1.4H7v0.9l5.6,0.1c0.5,0.1,0.6-0.1,0.8,0.8H6.2c0.1,1.7,1.2,1.2,3.2,1.2
	c1.4,0,2.9,0,4.4,0v0.9H8.2v0.9h5.5V20l-8.1,0c-1.6,0-1.7-0.3-2,0.9h10.2c-0.1,1.5,0.7,0.7-2,0.6c-1.5-0.1-2-0.2-2.6,0.6
	c0.8,1,1.8,0.6,4.6,0.6c-0.1,0.9,0.7,0.8-2.3,0.9c-1.2,0-2.5,0-3.8,0v0.9h5.8c-0.1,2.5-1.4,1.2-5.3,1.4c-1.4,0.1-1.1-0.2-1.4,0.9
	h6.1v0.9H5.3v0.9h7c-0.2,2-1.4,1-2.9,0.9c-1.3-0.1-3,0-4.3,0c0.2,1.8,1.6,1.2,6.4,1.2c-0.4,1.3,0.3,0.6-2.9,0.6c-1.5,0-2.9,0-4.4,0
	c0.2,1.8,1.6,1.2,6.4,1.2c-0.6,0.9-0.3,0.9-1.2,1.1l-6.9,0v0.9h6.4c-0.3,1.2-0.1,0.9-3.5,0.9c-1.5,0-3.1,0-4.6,0
	C1,36.4,1.8,36,3.6,36c1.3,0,2.5,0,3.8,0c-1.6,2.3-4.1,0.7-6.7,0.8c-1.5,0.1-0.8-0.2-1.4,0.6c0.6,0.9,1.1,0.6,2.6,0.6
	c1.1,0,2.1,0,3.2,0c-1.8,1.6-2.3,0.6-7.3,0.6v1.2h4.4c-2,1.8-8.1,2.6-10.8,2.4c-2.7-0.3-3.7-0.3-6-1c-17.2-5.7-20.7-30.6-2.3-39.8
	c5.7-2.8,12.6-2.8,18.3-0.2C2,1.4,2,1.4,2.4,1.8H-4V2.6z"/>
<path class="st1" d="M-15.7,29.8c-1.4-1.6-2.7-4.6-5.2-4.8c-1.3-0.1-2.8,1-3.2,1.9c-0.5,1.3,1.1,2.3,1.7,3.1
	c0.5,0.6,4.1,5.5,4.3,5.6c0.9,0.5,3.6,0.4,4.4-0.2c0.6-0.5,1.4-2.5,1.8-3.4c2.5-5.9,8.7-17.4,13.4-21.7c0.7-0.6,2.2-2,2.4-2.8
	c-1.1-0.4-3,0-4.3,0.3c-3.7,1-9.6,11.3-11.6,14.9c-0.6,1.1-1.1,2.3-1.7,3.5l-1.6,3.1C-15.5,29.7-15.6,29.7-15.7,29.8"/>
<path class="st1" d="M32.9,28.3c-1.4,0.7-0.2,2.7,1,1.9C35,29.6,34.2,27.6,32.9,28.3"/>
<path class="st1" d="M56.7,36.3c-1.2,3.5-0.6,17.9,0,22.2C57.6,56.9,57.7,38.1,56.7,36.3"/>
<path class="st1" d="M80.4,36.3c-1.1,2.6-0.8,19.1,0,22.1C81.5,56.7,81.5,38.2,80.4,36.3"/>
</svg>
