<?xml version="1.0" encoding="utf-8"?>
<!-- Generator: Adobe Illustrator 24.0.2, SVG Export Plug-In . SVG Version: 6.00 Build 0)  -->
<svg version="1.1" id="Capa_1" xmlns="http://www.w3.org/2000/svg" xmlns:xlink="http://www.w3.org/1999/xlink" x="0px" y="0px"
	 viewBox="0 0 859.3 866.4" style="enable-background:new 0 0 859.3 866.4;" xml:space="preserve">
<style type="text/css">
	.st0{fill:#333333;}
	.st1{fill-rule:evenodd;clip-rule:evenodd;fill:#333333;}
</style>
<g>
	<path class="st0" d="M328.6,190.8c4.1,0,7.4,3.3,7.4,7.4s-3.3,7.4-7.4,7.4H92.5c-8.3,0-15.9,3.4-21.5,8.9
		c-5.5,5.5-8.9,13.1-8.9,21.5v173.7c0,4.1-3.3,7.4-7.4,7.4s-7.4-3.3-7.4-7.4V236c0-12.4,5.1-23.7,13.3-31.9
		c8.2-8.2,19.5-13.3,31.9-13.3H328.6z M47.3,534.9c0-4.1,3.3-7.4,7.4-7.4s7.4,3.3,7.4,7.4v48.6c0,8.3,3.4,15.9,8.9,21.5
		c5.5,5.5,13.1,8.9,21.5,8.9h242c7.2,0,13.8,3,18.6,7.7c4.8,4.8,7.7,11.3,7.7,18.6c0,7.2-3,13.8-7.7,18.6
		c-4.8,4.8-11.3,7.7-18.6,7.7H290c-1.6,0-3.1,0.7-4.2,1.8c-1.1,1.1-1.8,2.6-1.8,4.2c0,1.6,0.7,3.1,1.8,4.2c1.1,1.1,2.6,1.8,4.2,1.8
		h270.7c1.6,0,3.1-0.7,4.2-1.8c1.1-1.1,1.8-2.6,1.8-4.2c0-1.6-0.7-3.1-1.8-4.2c-1.1-1.1-2.6-1.8-4.2-1.8h-50.6
		c-7.2,0-13.8-3-18.6-7.7c-4.8-4.8-7.7-11.3-7.7-18.6c0-7.2,3-13.8,7.7-18.6c4.8-4.8,11.3-7.7,18.6-7.7h250.6
		c8.3,0,15.9-3.4,21.5-8.9c5.5-5.5,8.9-13.1,8.9-21.5V236c0-8.3-3.4-15.9-8.9-21.5c-5.5-5.5-13.1-8.9-21.5-8.9h-28.6
		c-4.1,0-7.4-3.3-7.4-7.4s3.3-7.4,7.4-7.4h28.6c12.4,0,23.7,5.1,31.9,13.3c8.2,8.2,13.3,19.5,13.3,31.9v347.5
		c0,12.4-5.1,23.7-13.3,31.9c-8.2,8.2-19.5,13.3-31.9,13.3H510.1c-3.2,0-6,1.3-8.1,3.4c-2.1,2.1-3.4,5-3.4,8.1s1.3,6,3.4,8.1
		c2.1,2.1,5,3.4,8.1,3.4h50.6c5.7,0,10.9,2.3,14.7,6.1c3.8,3.8,6.1,9,6.1,14.7c0,5.7-2.3,10.9-6.1,14.7c-3.8,3.8-9,6.1-14.7,6.1H290
		c-5.7,0-10.9-2.3-14.7-6.1c-3.8-3.8-6.1-9-6.1-14.7c0-5.7,2.3-10.9,6.1-14.7c3.8-3.8,9-6.1,14.7-6.1h44.5c3.2,0,6-1.3,8.1-3.4
		c2.1-2.1,3.4-5,3.4-8.1c0-3.2-1.3-6-3.4-8.1c-2.1-2.1-5-3.4-8.1-3.4h-242c-12.4,0-23.7-5.1-31.9-13.3c-8.2-8.2-13.3-19.5-13.3-31.9
		V534.9z M47.3,453.3c0-4.1,3.3-7.4,7.4-7.4s7.4,3.3,7.4,7.4v28.1c0,4.1-3.3,7.4-7.4,7.4s-7.4-3.3-7.4-7.4V453.3z"/>
	<path class="st0" d="M640.1,491.3H213c-4.5,0-8.6,1.8-11.6,4.8c-3,3-4.8,7.1-4.8,11.6c0,4.5,1.8,8.6,4.8,11.6c3,3,7.1,4.8,11.6,4.8
		h427c4.5,0,8.6-1.8,11.6-4.8c3-3,4.8-7.1,4.8-11.6c0-4.5-1.8-8.6-4.8-11.6C648.7,493.2,644.6,491.3,640.1,491.3 M213,476.5h427
		c8.6,0,16.4,3.5,22.1,9.2c5.7,5.7,9.2,13.5,9.2,22.1c0,8.6-3.5,16.4-9.2,22.1c-5.7,5.7-13.5,9.2-22.1,9.2H213
		c-8.6,0-16.4-3.5-22.1-9.2c-5.7-5.7-9.2-13.5-9.2-22.1c0-8.6,3.5-16.4,9.2-22.1C196.6,480,204.5,476.5,213,476.5z"/>
	<path class="st0" d="M350.3,500.3c4.1,0,7.4,3.3,7.4,7.4c0,4.1-3.3,7.4-7.4,7.4H213.8c-4.1,0-7.4-3.3-7.4-7.4
		c0-4.1,3.3-7.4,7.4-7.4H350.3z"/>
	<path class="st0" d="M798.5,568.3c4.1,0,7.4,3.3,7.4,7.4c0,4.1-3.3,7.4-7.4,7.4H54.7c-4.1,0-7.4-3.3-7.4-7.4c0-4.1,3.3-7.4,7.4-7.4
		H798.5z"/>
	<path class="st1" d="M155.5,306.1c0.4,5.2,2,9.7,2.4,15.2c-4.4,3.5-8.7,5.3-12.9,8.5c-13.4-5.9-40.6-23.2-42-8.4
		c-0.3,3.8,0.3,9.3,1,13c6.2,34.2,48.4,60.3,85.9,40.6c4.9-2.6,8.7-6.1,13.1-9.6c3.6,4.2,58.3,29.6,70.1,36l58.9,30.5
		c10.9,6.9,21.8,8.2,33.1,3.7c22.7-9,27.2-41.1,3.3-55.8c-7.7-4.7-61.2-22.5-73.6-27.6c-7.5-3.1-17.2-7.5-24.8-9.7L221,324.9
		c-0.8-11.8-1.8-19.8-7.5-30.1c-20.3-36.2-71-39-92.5-13.9C111.5,292.1,140.6,299.6,155.5,306.1 M345.8,402.1
		c-3.1,7.1-3.7,8.5,3.9,11.8c2.4,1.1,6.6-1.3,7.7-3.7C361.6,400.7,348.5,396,345.8,402.1z M177.1,282.2
		c39.8,17.5,25.4,50.6,31.2,53.2c18.9,8.3,38.4,14.1,56.2,21.8l22.8,8.1c4,1.3,7.7,3.6,11.7,4.9c14.5,4.6,30.1,11.3,45.2,17.1
		c7.3,2.8,16,4.1,20.9,10.1c11.5,14.4-1.7,35.4-20.8,25.6c-9.9-5.1-21.4-9.9-29.7-15.1l-29.6-15.2c-14-8.1-44.4-22.1-60.2-30.7
		c-5.1-2.8-10.4-5.1-14.9-7.6c-18-9.9-8.9,4.1-35.7,12.8c-16.5,5.4-38.8-2.5-49.4-17c-3.8-5.2-6-10.3-7-16.2
		c5.4,2.4,10.7,4.7,16.1,7.1c7.3,3.2,9.9,5.8,15.1,2.6c28-16.7,24-12.5,18.8-41.8c-1.1-6.4-3.8-6.3-11.4-9.6
		c-5.7-2.5-11.3-5-16.9-7.5C148.5,279.2,163.6,276.3,177.1,282.2z"/>
	<path class="st1" d="M343.5,120.6L388.6,357c1.4,7.4,9,15.2,14.1,17.7c7.4,3.6,14.6,4.2,25.5,2.1l271-51.7c9.2-1.8,17-4.7,21.4-10
		c3.9-4.6,8.1-12.9,6.6-20.8l-29.9-156.4c-2.1-10.8-15.7-22.4-30.1-19.7l-18.2,3.5c-4-21-4-40-21.1-48.1
		c-10.1-4.8-15.3-2.4-29.5,0.3L496.6,93.3c-22.4,4.3-23.7,8.1-37.7,1.9c-7.1-3.2-35.5-18.1-40.6-17.1l-55.5,10.6
		C351.4,90.8,340.7,105.8,343.5,120.6 M420.9,363.1c-8.8,1.7-17.5-2.6-19.1-11.4l-44.4-232.8c-1.4-7.1,3.3-15.7,10-17l50.9-9.7
		c1.7-0.3,39.4,17.7,41.8,18.8c8,3.6,16.6,0.2,29.2-2.2l126.3-24c16.5-1.2,17.2,20.4,20.4,37.5c0.8,4.1-5.9,4-10.4,4.8
		c-28.3,5.2-202,37.6-207.8,40c-5.9,2.5-11.6,9.4-13.3,14.7c-3.1,9.6-1.7,12.5,0.7,25L431.8,346
		C433.5,355.1,430.3,361.3,420.9,363.1z M445.4,358.5c0.5-13.3,2.4-2.2-1.3-21.4l-22.9-120c-1.9-10.2-11.1-35.6,4.9-38.6L668.9,132
		c7.3-1.4,13.8,3,15.2,10.3l28.8,151c2.4,12.5-6.5,15.4-19.2,17.8L445.4,358.5z"/>
	<path class="st1" d="M592.4,288.9c9.4,0.7,12.7,13.5,21.1-3.9c2.3-4.8,11.7-19.8,11.3-24.1c-0.5-6-6.8-7.5-13.5-11.4
		c10.2-2.9,10.6-2.8,15.5-7.7c-2-10.5-5.1-19.1-8-27.9c-4.3-13.1-10.3-7.2-20.8-4.3c3.1-7.3,8-10.8,5.1-16.7
		c-1.4-2.8-28.4-16.8-31.5-16.7c-7.2,0.2-6.4,8.5-11.3,13.3c-3.8-19.8-10.4-15.9-25.4-10.9c-24.8,8.3-19.2,4.6-15.6,23.4
		c-3-0.9-3.5-1.2-6.1-2.6c-2.1-1.1-3.8-2.4-6.4-2.4c-5.7,0-6.7,4-9.3,9.2c-12.9,25.9-16.5,23.6-1.2,32.1c1.5,0.8,2.7,1.5,4,2.3
		c-18.6,5.2-17.9,6.8-11.6,25.3c8.6,25.5,6.1,19.2,24.1,15.7c-7,16.5-11.9,13.9,11,25.8c3.2,1.7,13,7.5,16.3,7.3
		c6.3-0.4,7.7-10.2,11.2-14c3.9,20.5,8.6,17,25.1,11.5c5.1-1.7,13.8-3.5,16.5-6.2C597.2,301.3,593.8,296.5,592.4,288.9 M532,194.9
		c4.5-0.9,9.8-2.9,13.3-4.4c2,4.6,2.6,10.4,6,13.3c2,1.7,3.3,2,5.7,2.2c6.7,0.6,9.9,2.7,13.6-4.6c1.6-3.1,2.6-4.6,3.6-7.9
		c4.7,2,7.8,4.1,12.5,6.1c-0.5,7.2-6.1,7.6-4.5,15.9c0,0,6.8,11.9,12.4,10.8c5.5-1.1,6.5-2.2,11.6-3.2c0.9,4,3.3,9.4,4.4,13.3
		c-5.6,1.1-11.1,1.5-13.5,5.1c-1.4,2.1-2.2,11.3-1.9,12.9c1.2,6.5,7.6,5.2,12.3,9.9c-0.3,3.9-4.3,8.3-6.1,12.5
		c-14.9-6.3-10.2-9.4-20.9-0.7c-13.5,10.9,5.5,17.1-6.1,21.1c-9,3.1-9.2,3.6-10.8-0.9c-1.6-4.4-1.9-8.3-5.9-9.9
		c-1.9-0.8-10.3-1.2-13-0.7c-3.3,0.6-4.3,3.5-5.4,5.8c-1.1,2.4-2.5,4.9-3.5,7.1c-4.3-1.8-8-4.2-12.5-6.1c0.8-11.5,11.8-7.7,0.3-21.5
		c-7.8-9.4-4.3-5.1-19.9-2.1c-0.7-3.8-2.8-11.1-4.4-13.3c4.1-1.1,11.1-3.2,13.4-5.9c1.8-2.1,1.9-3.6,2.1-6.5
		c0.7-7.3,1.9-9.7-5.3-13.2c-2.4-1.1-4.8-2.2-7.3-3.3c1-2.5,5.4-11,7-12.6c3,1.3,4.3,2,7.1,3.5c8,4.3,9.2,0.4,14-3.4
		C539.1,207.4,534.3,206.8,532,194.9z"/>
	<path class="st1" d="M374.8,151.4c1,5.4,5.1,6.6,10.5,5.5l144.6-27.6c8.4-1.6,10.1-17-6.4-13.9L384.3,142
		C378.2,143.2,373.6,145.2,374.8,151.4"/>
	<path class="st1" d="M523.2,247.5c2.7,14,4.3,17.5,15.9,25.5c21.2,14.6,54.2-3.8,48.3-34.9c-4.9-25.5-41.1-35-57.7-12.3
		C526,230.7,521.7,239.4,523.2,247.5 M560.3,264c-26.4,5-31.3-31.7-7.9-36.2C576.1,223.2,582.7,259.7,560.3,264z"/>
	<path class="st1" d="M369.2,122.3c0.9,4.9,3.7,7.8,8.8,6.8l47.3-9c8.7-1.7,6.1-15.3-2.6-13.6l-49.1,9.4
		C371.5,116.2,368.8,120.1,369.2,122.3"/>
	<path class="st0" d="M786,779.9c1.3,0,2.3-0.1,3.1-0.4c0.8-0.2,1.5-0.8,1.9-1.6c0.5-0.8,0.8-2.1,1-3.8c0.2-1.7,0.3-4,0.3-6.8
		c0-2.8-0.1-5.1-0.3-6.7c-0.2-1.7-0.5-2.9-1-3.7c-0.5-0.8-1.1-1.3-1.9-1.6c-0.8-0.2-1.9-0.4-3.1-0.4c-1.3,0-2.3,0.1-3.1,0.4
		c-0.8,0.2-1.5,0.8-1.9,1.6c-0.5,0.8-0.8,2-1,3.7c-0.2,1.7-0.3,3.9-0.3,6.7c0,2.8,0.1,5.1,0.3,6.8c0.2,1.7,0.5,2.9,1,3.8
		c0.5,0.8,1.1,1.3,1.9,1.6C783.6,779.8,784.7,779.9,786,779.9 M786,795.5c-4.9,0-9-0.5-12.3-1.5c-3.3-1-6-2.6-8.1-4.9
		c-2-2.2-3.5-5.1-4.4-8.7c-0.9-3.6-1.3-7.9-1.3-12.9c0-5.5,0.5-10,1.4-13.6c0.9-3.6,2.4-6.5,4.4-8.6c2-2.1,4.7-3.6,8.1-4.5
		c3.3-0.9,7.4-1.3,12.2-1.3c4.9,0,9,0.5,12.3,1.4c3.3,0.9,6,2.5,8,4.6c2,2.1,3.4,5,4.4,8.6c0.9,3.6,1.4,8.1,1.4,13.4
		c0,5.3-0.4,9.7-1.3,13.3c-0.8,3.6-2.3,6.5-4.3,8.6c-2,2.2-4.7,3.7-8,4.7C795.2,795,791,795.5,786,795.5z M733.8,795.6
		c-3.4,0-6.6-0.5-9.5-1.4c-2.9-0.9-5.4-2.4-7.5-4.5c-2.1-2.1-3.7-4.9-4.9-8.5c-1.1-3.6-1.7-8-1.7-13.2c0-5.5,0.5-10.2,1.6-13.8
		c1-3.7,2.6-6.6,4.6-8.8c2-2.2,4.6-3.7,7.6-4.6c3-0.9,6.5-1.4,10.4-1.4c3.7,0,6.9,0.2,9.9,0.7c2.9,0.5,6.2,1.3,9.8,2.4v11.3h-13.3
		c-2.9,0-5.2,0.4-6.7,1.2c-1.6,0.8-2.7,2.2-3.3,4.2c-0.6,2-0.9,4.9-0.9,8.6c0,3.8,0.3,6.6,0.9,8.5c0.6,1.9,1.7,3.1,3.2,3.8
		c1.6,0.6,3.9,0.9,7.1,0.9h13.8v11.1c-1.7,0.7-3.7,1.3-6.1,1.9c-2.4,0.6-4.9,1-7.5,1.3C738.7,795.4,736.2,795.6,733.8,795.6z
		 M683,795v-54.7h19.7V795H683z M685.2,733.4c-1.6,0-2.4-0.8-2.4-2.3v-11.3c0-1.7,0.8-2.5,2.4-2.5h15.4c0.7,0,1.3,0.2,1.7,0.7
		c0.4,0.5,0.6,1.1,0.6,1.8v11.3c0,1.6-0.7,2.3-2.2,2.3H685.2z M622.1,795v-54.7h16.4l3.2,5.3c1.7-1.6,4-3,6.8-4.3
		c2.8-1.3,5.7-1.9,8.6-1.9c4.7,0,8.3,0.9,10.8,2.7c2.4,1.8,4.1,4.2,5,7.3c0.9,3.1,1.3,6.5,1.3,10.3V795h-19.7v-32.7
		c0-1.4-0.2-2.5-0.7-3.2c-0.5-0.7-1.1-1.3-1.9-1.6c-0.8-0.3-1.7-0.5-2.8-0.5c-0.9,0-1.8,0.1-2.7,0.4c-0.9,0.3-1.8,0.6-2.6,1.1
		c-0.8,0.5-1.5,1-2.1,1.6V795H622.1z M594.6,795.6c-3.4,0-6.6-0.5-9.5-1.4c-2.9-0.9-5.4-2.4-7.5-4.5c-2.1-2.1-3.7-4.9-4.9-8.5
		c-1.1-3.6-1.7-8-1.7-13.2c0-5.5,0.5-10.2,1.6-13.8c1-3.7,2.6-6.6,4.6-8.8c2-2.2,4.6-3.7,7.6-4.6c3-0.9,6.5-1.4,10.4-1.4
		c3.7,0,6.9,0.2,9.9,0.7c2.9,0.5,6.2,1.3,9.8,2.4v11.3h-13.3c-2.9,0-5.2,0.4-6.7,1.2c-1.6,0.8-2.7,2.2-3.3,4.2
		c-0.6,2-0.9,4.9-0.9,8.6c0,3.8,0.3,6.6,0.9,8.5c0.6,1.9,1.7,3.1,3.2,3.8c1.6,0.6,3.9,0.9,7.1,0.9h13.8v11.1
		c-1.7,0.7-3.7,1.3-6.1,1.9c-2.4,0.6-4.9,1-7.5,1.3C599.5,795.4,597,795.6,594.6,795.6z M536,731l6.9-14.5h15.6l-11,14.5H536z
		 M536,762.9h7.8c1.4,0,2.3-0.3,2.9-0.9c0.6-0.6,0.9-1.7,0.9-3.1c0-1.3-0.2-2.3-0.6-3.1c-0.4-0.8-1-1.4-1.9-1.8
		c-0.9-0.4-2-0.6-3.4-0.6c-1.3,0-2.4,0.3-3.2,0.8c-0.8,0.5-1.5,1.5-1.9,2.9C536.2,758.5,536,760.4,536,762.9z M542.6,795.5
		c-6.2,0-11.2-0.8-15-2.3c-3.8-1.6-6.5-4.3-8.3-8.4c-1.7-4-2.6-9.7-2.6-17c0-7.5,0.8-13.3,2.3-17.4c1.6-4.1,4.1-6.9,7.8-8.6
		c3.6-1.6,8.6-2.4,14.9-2.4c5.8,0,10.4,0.5,13.8,1.6c3.4,1.1,5.8,3,7.3,5.8c1.5,2.8,2.2,6.8,2.2,11.9c0,4-0.8,7.1-2.3,9.4
		c-1.6,2.3-3.8,3.9-6.6,4.8c-2.8,0.9-6.2,1.4-10,1.4h-9.7c0.2,1.6,0.6,2.9,1.2,3.9c0.6,1,1.7,1.7,3.3,2.1c1.6,0.4,4,0.6,7.2,0.6
		h14.9v11.5c-2.4,0.7-5.2,1.4-8.5,2C551.1,795.2,547.2,795.5,542.6,795.5z M478.5,795v-57.7h-19v-17.7h57.6v17.7h-19V795H478.5z
		 M403.4,779.9c1.3,0,2.3-0.1,3.1-0.4c0.8-0.2,1.5-0.8,1.9-1.6c0.5-0.8,0.8-2.1,1-3.8c0.2-1.7,0.3-4,0.3-6.8c0-2.8-0.1-5.1-0.3-6.7
		c-0.2-1.7-0.5-2.9-1-3.7c-0.5-0.8-1.1-1.3-1.9-1.6c-0.8-0.2-1.9-0.4-3.1-0.4c-1.3,0-2.3,0.1-3.1,0.4c-0.8,0.2-1.5,0.8-1.9,1.6
		c-0.5,0.8-0.8,2-1,3.7c-0.2,1.7-0.3,3.9-0.3,6.7c0,2.8,0.1,5.1,0.3,6.8c0.2,1.7,0.5,2.9,1,3.8c0.5,0.8,1.1,1.3,1.9,1.6
		C401.1,779.8,402.1,779.9,403.4,779.9z M403.4,795.5c-4.9,0-9-0.5-12.3-1.5c-3.3-1-6-2.6-8.1-4.9c-2-2.2-3.5-5.1-4.4-8.7
		c-0.9-3.6-1.3-7.9-1.3-12.9c0-5.5,0.5-10,1.4-13.6c0.9-3.6,2.4-6.5,4.4-8.6c2-2.1,4.7-3.6,8.1-4.5c3.3-0.9,7.4-1.3,12.2-1.3
		c4.9,0,9,0.5,12.3,1.4c3.3,0.9,6,2.5,8,4.6c2,2.1,3.4,5,4.4,8.6c0.9,3.6,1.4,8.1,1.4,13.4c0,5.3-0.4,9.7-1.3,13.3
		c-0.8,3.6-2.3,6.5-4.3,8.6c-2,2.2-4.7,3.7-8,4.7C412.6,795,408.4,795.5,403.4,795.5z M350.1,795v-54.7h19.7V795H350.1z
		 M352.4,733.4c-1.6,0-2.4-0.8-2.4-2.3v-11.3c0-1.7,0.8-2.5,2.4-2.5h15.4c0.7,0,1.3,0.2,1.7,0.7c0.4,0.5,0.6,1.1,0.6,1.8v11.3
		c0,1.6-0.7,2.3-2.2,2.3H352.4z M322.6,795.6c-3.4,0-6.6-0.5-9.5-1.4c-2.9-0.9-5.4-2.4-7.5-4.5c-2.1-2.1-3.7-4.9-4.9-8.5
		s-1.7-8-1.7-13.2c0-5.5,0.5-10.2,1.6-13.8c1-3.7,2.6-6.6,4.6-8.8c2-2.2,4.6-3.7,7.6-4.6c3-0.9,6.5-1.4,10.4-1.4
		c3.7,0,6.9,0.2,9.9,0.7c2.9,0.5,6.2,1.3,9.8,2.4v11.3h-13.3c-2.9,0-5.2,0.4-6.7,1.2c-1.6,0.8-2.7,2.2-3.3,4.2
		c-0.6,2-0.9,4.9-0.9,8.6c0,3.8,0.3,6.6,0.9,8.5c0.6,1.9,1.7,3.1,3.2,3.8c1.6,0.6,3.9,0.9,7.1,0.9h13.8v11.1
		c-1.7,0.7-3.7,1.3-6.1,1.9c-2.4,0.6-4.9,1-7.5,1.3C327.5,795.4,325,795.6,322.6,795.6z M271.8,795v-54.7h19.7V795H271.8z
		 M274,733.4c-1.6,0-2.4-0.8-2.4-2.3v-11.3c0-1.7,0.8-2.5,2.4-2.5h15.4c0.7,0,1.3,0.2,1.7,0.7c0.4,0.5,0.6,1.1,0.6,1.8v11.3
		c0,1.6-0.7,2.3-2.2,2.3H274z M225.9,795l-16.8-54.7h20.3l8.3,36.5l8.7-36.5h20.1L248.7,795H225.9z M169.1,795v-54.7h15.3l4.4,7.6
		c1.6-2.2,3.5-4.2,5.6-5.9c2.1-1.7,4.7-2.5,7.8-2.5c0.5,0,1.2,0,1.9,0.1c0.7,0.1,1.5,0.2,2.1,0.4v20.2c-1.1-0.1-2.3-0.2-3.5-0.3
		c-1.2-0.1-2.2-0.1-3.2-0.1c-1.6,0-3.1,0.2-4.5,0.5c-1.4,0.3-2.6,0.8-3.6,1.4c-1,0.6-1.9,1.4-2.7,2.4V795H169.1z M132.7,762.9h7.8
		c1.4,0,2.3-0.3,2.9-0.9c0.6-0.6,0.9-1.7,0.9-3.1c0-1.3-0.2-2.3-0.6-3.1c-0.4-0.8-1-1.4-1.9-1.8c-0.9-0.4-2-0.6-3.4-0.6
		c-1.3,0-2.4,0.3-3.2,0.8c-0.8,0.5-1.5,1.5-1.9,2.9C132.9,758.5,132.7,760.4,132.7,762.9z M139.3,795.5c-6.2,0-11.2-0.8-15-2.3
		c-3.8-1.6-6.5-4.3-8.3-8.4c-1.7-4-2.6-9.7-2.6-17c0-7.5,0.8-13.3,2.3-17.4c1.6-4.1,4.1-6.9,7.8-8.6c3.6-1.6,8.6-2.4,14.9-2.4
		c5.8,0,10.4,0.5,13.8,1.6c3.4,1.1,5.8,3,7.3,5.8c1.5,2.8,2.2,6.8,2.2,11.9c0,4-0.8,7.1-2.3,9.4c-1.6,2.3-3.8,3.9-6.6,4.8
		c-2.8,0.9-6.2,1.4-10,1.4h-9.7c0.2,1.6,0.6,2.9,1.2,3.9c0.6,1,1.7,1.7,3.3,2.1c1.6,0.4,4,0.6,7.2,0.6h14.9v11.5
		c-2.4,0.7-5.2,1.4-8.5,2C147.8,795.2,143.9,795.5,139.3,795.5z M79,795.6c-2.2,0-4.4-0.1-6.5-0.2c-2.1-0.1-4.2-0.3-6.3-0.6
		c-2.1-0.3-4-0.6-5.9-0.9c-1.9-0.3-3.7-0.7-5.5-1.2V777c2.3,0.2,4.8,0.4,7.5,0.5c2.7,0.1,5.4,0.2,8.1,0.3c2.7,0.1,5.3,0.1,7.7,0.1
		c2.2,0,4.1-0.2,5.6-0.5c1.5-0.3,2.6-0.9,3.3-1.6c0.7-0.7,1.1-1.8,1.1-3v-1.2c0-1.5-0.5-2.6-1.6-3.3c-1-0.7-2.3-1.1-3.7-1.1h-5.4
		c-7.8,0-13.8-1.7-17.9-5.2s-6.1-9.2-6.1-17.3v-3.3c0-7.4,2.2-13,6.7-16.7c4.5-3.7,10.9-5.5,19.3-5.5c3.2,0,6.2,0.2,9,0.5
		c2.8,0.3,5.4,0.7,7.9,1.1c2.5,0.4,4.7,0.9,6.6,1.4v15.6c-3.1-0.3-6.6-0.5-10.5-0.7c-3.9-0.2-7.4-0.3-10.6-0.3
		c-1.9,0-3.6,0.1-5.1,0.4c-1.5,0.3-2.6,0.8-3.4,1.6c-0.8,0.8-1.2,2-1.2,3.6v1c0,1.7,0.5,3,1.6,3.9c1.1,0.9,2.7,1.3,5,1.3h6.7
		c4.7,0,8.7,0.9,11.8,2.7c3.1,1.8,5.5,4.2,7.1,7.3c1.6,3.1,2.4,6.6,2.4,10.5v3.3c0,6.4-1.1,11.3-3.3,14.7c-2.2,3.4-5.4,5.7-9.5,6.8
		C89.7,795,84.8,795.6,79,795.6z"/>
</g>
</svg>
