<?xml version="1.0" encoding="utf-8"?>
<!-- Generator: Adobe Illustrator 16.0.0, SVG Export Plug-In . SVG Version: 6.00 Build 0)  -->
<!DOCTYPE svg PUBLIC "-//W3C//DTD SVG 1.1//EN" "http://www.w3.org/Graphics/SVG/1.1/DTD/svg11.dtd">
<svg version="1.1" id="Capa_1" xmlns="http://www.w3.org/2000/svg" xmlns:xlink="http://www.w3.org/1999/xlink" x="0px" y="0px"
	 width="150px" height="150px" viewBox="-42.5 -42.5 150 150" style="enable-background:new -42.5 -42.5 150 150;"
	 xml:space="preserve">
<style type="text/css">
<![CDATA[
	.st0{enable-background:new    ;}
	.st1{fill:#333333;}
]]>
</style>
<path class="st1" d="M19.8-8.3l1.2-15l0.9,16.4H5.5L19.8-8.3z M4.1,12h18c0.9,0,1.6,0.7,1.6,1.6c0,0.9-0.7,1.6-1.6,1.6h-18
	c-0.9,0-1.6-0.7-1.6-1.6C2.5,12.7,3.2,12,4.1,12z M-3.5,28.2H17c0.9,0,1.6,0.7,1.6,1.6c0,0.9-0.7,1.6-1.6,1.6H-3.5
	c-0.9,0-1.6-0.7-1.6-1.6C-5.1,28.9-4.4,28.2-3.5,28.2z M16.3,19.9h13.8c0.9,0,1.6,0.7,1.6,1.6l0,0c0,0.9-0.7,1.6-1.6,1.6H16.3
	c-0.9,0-1.6-0.7-1.6-1.6l0,0C14.7,20.6,15.4,19.9,16.3,19.9z M13.1,36.3H27c0.9,0,1.6,0.7,1.6,1.6c0,0.9-0.7,1.6-1.6,1.6H13.1
	c-0.9,0-1.6-0.7-1.6-1.6C11.5,37,12.2,36.3,13.1,36.3z M27.9,29.1l6.2,5.5l-3.9,8.8L17.5,53.6l1.2,2.3l-1.8,1.6l-5.1-6.7L24,41.1
	l0.2-0.7h3c1.4,0,2.8-1.2,2.8-2.8l0,0c0-1.6-1.2-2.8-2.8-2.8H26v-0.2L27.9,29.1z M23.3-6.2c0.9-4.2,11.3-3.9,11.3-0.2v0.9l6-0.2v0.9
	l-6,0.2l-0.2,4.2C33.9,4,25.3,4.7,24,0.5L23.3-6.2z M41,3h17.1c0.7,0,1.2,0.5,1.2,1.2v18c0,0.7-0.5,1.2-1.2,1.2H41
	c-0.7,0-1.2-0.5-1.2-1.2v-1.4h15.2l0,0l0,0c1.2-0.2,1.8-1.2,2.1-1.8l0,0c0-0.2,0.2-0.5,0.2-0.9c0-0.2,0-0.5-0.2-0.7
	c-0.2-0.5-0.5-0.7-0.9-0.7h-0.7l0,0V16l0.2-0.9h-0.9h-2.8h-0.2l0.2,0.5l-1.4,1.6L42,16.2l-1.8-2.5V4.2C39.9,3.5,40.3,3,41,3z
	 M43.8,36.5c-7.8-0.9-12.9-4.2-15.9-9.7l-0.2-2.3H30c1.6,0,2.8-1.4,2.8-2.8l0,0c0-1.6-1.4-2.8-2.8-2.8h-3.2L25.3,9
	c0.5-4.6,6.7-4.4,9.5-0.7l6.5,8.8l9.5,0.9l1.8-1.8h2.8v0.7H54v0.9h2.8c0.7,0,0.5,2.3-1.4,2.5H53l0,0H39.9l-4.6-4.6
	c-0.9-0.5-1.6,0-0.7,1.2l3,2.8l0.7,7.4L49.6,34l2.8,18.7l3.2-0.2l0.2,2.5l-8.5,1.4L43.8,36.5z M3.7,8.1C2.7,7,1.8,5.8,1.1,4.7
	l1.6-0.9L2.3,2.8L0.7,3.7C-1,0.7-1.9-3-2.1-6.7h1.8v-0.9h-1.8c0-3.7,1.2-7.2,2.8-10.4L2.3-17L2.7-18l-1.6-0.9c1.8-3,4.4-5.8,7.4-7.6
	l0.9,1.8l0.9-0.5L9.4-27c3-1.8,6.5-2.8,10.4-3v2.3h0.9V-30c3.7,0,7.4,0.9,10.4,2.8L30-25.1l0.9,0.5l1.2-2.1c3.2,1.8,5.8,4.4,7.8,7.6
	L37.8-18l0.5,0.9l2.1-1.2c1.8,3.2,2.8,7.2,2.8,11.1c0,0,0,0,0,0.2L45.9-8C45.7-15,42.7-21,38.3-25.6l1.8-2.5l0.7,0.7l2.1-2.5
	l-4.6-3.7l-2.1,2.5l0.7,0.7L35-28.1c-3.5-2.5-7.6-4.2-12-4.6v-3.9h1.4v-4.8h-8.3v4.8h1.4v3.9c-4.4,0.5-8.5,2.1-12,4.6l-1.6-2.1
	l0.7-0.7l-2.1-2.5L-1.7-30l2.1,2.5l0.7-0.7L2.7-26c-4.8,4.6-7.8,11.3-7.8,18.7C-5.1-1.1-3,4.4,0.7,8.8L3.7,8.1z"/>
<g>
	<path class="st1" d="M-10.3,81.2h-12.3l0.3-2.3c0.3-0.3,0.9-0.6,1.7-0.9l3.2-12.1c-0.6-0.3-1.1-0.6-1.1-0.9l0.9-2.3h12.1l-1.1,4.6
		l-2,0.3c-0.3-0.3-0.6-1.1-0.6-2h-4.3l-1.1,4.6h3.7c0.3-0.6,0.6-0.9,0.9-1.2l1.7,0.3L-9.7,74l-1.7,0.3c-0.3-0.3-0.3-0.6-0.3-1.1
		h-3.7l-1.1,5.2h4.3c0.6-0.9,0.9-1.4,1.4-2l2,0.3L-10.3,81.2z"/>
	<path class="st1" d="M1.8,70c0.3-0.3,0.6-1.1,1.4-2l1.4-2c-0.6-0.3-0.9-0.6-1.1-0.9l0.9-2.3h6l-0.3,2.3c-0.3,0.3-1.1,0.9-2,1.1
		l-4.9,5.5l2,6.3c0.6,0.3,1.1,0.6,1.4,0.9l-0.9,2.3h-6L0,78.9c0.3-0.3,0.6-0.6,1.4-0.9l-0.9-2.3c-0.3-0.9-0.3-1.7-0.3-2.3v-0.3H0
		c-0.3,0.6-0.9,1.4-1.4,2.3L-3.1,78c0.6,0.3,0.9,0.6,1.1,0.9l-0.9,2.3h-6l0.3-2.3c0.3-0.3,1.2-0.9,2-1.1l5.2-6.3l-2-5.5
		c-0.9-0.3-1.1-0.6-1.4-0.9l0.9-2.3h6l-0.3,2.3c-0.3,0.3-0.6,0.6-1.1,0.9l0.6,2c0.3,0.9,0.3,1.7,0.3,2.3h0.3V70z"/>
	<path class="st1" d="M15,74.9h-1.1L13,78c1.1,0.3,2,0.6,2,1.1l-0.9,2.3H6.9l0.3-2.3c0.3-0.3,0.9-0.6,1.7-0.9l3.2-12.1
		c-0.6-0.3-1.1-0.6-1.1-0.9l0.9-2.3h6.9c2.3,0,4,0.6,5.2,1.4c0.9,0.9,1.1,2.3,0.6,4.6C23.6,72.9,20.4,74.9,15,74.9z M17.8,66h-1.7
		l-1.4,6h1.7c1.1,0,2-0.3,2.9-0.9c0.6-0.6,1.1-1.4,1.4-2.6c0.3-1.1,0.3-2-0.3-2.3C19.8,66,19,66,17.8,66z"/>
	<path class="st1" d="M40.5,68.3c-0.3,1.1-0.9,2.3-2,3.2c-0.9,0.9-2,1.4-3.2,1.7c0.9,0.3,1.1,0.9,1.4,1.4l0.9,3.7
		c0.9,0.3,1.1,0.6,1.4,0.9l-0.9,2h-4.6l-1.2-6.3c0-0.6-0.3-0.9-0.9-0.9h-1.7l-1.1,4.3c1.1,0.3,2,0.6,2,1.1l-0.9,2.3h-7.2l0.3-2.3
		c0.3-0.3,0.9-0.6,1.7-0.9l3.2-12.1c-0.6-0.3-1.1-0.6-1.1-0.9l0.9-2.3h6.6c2.6,0,4.3,0.6,5.2,1.1C40.8,64.8,41.1,66.3,40.5,68.3z
		 M33.6,66h-1.4L31,71.1h1.4c1.2,0,2-0.3,2.9-0.6c0.6-0.3,1.1-1.1,1.4-2c0.3-0.9,0-1.7-0.3-2C35.6,66,34.8,66,33.6,66z"/>
	<path class="st1" d="M52,81.2H39.6l0.3-2.3c0.3-0.3,0.9-0.6,1.7-0.9L44.8,66c-0.6-0.3-1.1-0.6-1.1-0.9l0.9-2.3h12.1l-1.4,4.9
		l-2,0.3c-0.3-0.3-0.6-1.1-0.6-2h-4l-1.1,4.6h3.7c0.3-0.6,0.6-0.9,0.9-1.1l1.7,0.3l-1.1,4.6l-1.7,0.3c-0.3-0.3-0.3-0.6-0.3-1.1h-3.7
		l-1.1,5.2H50c0.6-0.9,0.9-1.4,1.4-2l2,0.3L52,81.2z"/>
	<path class="st1" d="M65.8,66c-0.6-0.3-1.2-0.3-1.7-0.3c-0.6,0-1.1,0.3-1.7,0.6c-0.6,0.3-0.9,0.9-0.9,1.4c-0.3,0.6,0,1.1,0,1.4
		c0,0.3,0.9,0.6,1.4,0.9l2.3,0.6c1.2,0.3,2,0.9,2.6,1.7c0.6,0.9,0.6,2,0.3,3.4c-0.6,1.7-1.4,3.2-3.2,4.3c-1.7,1.1-3.2,1.4-5.2,1.4
		c-1.1,0-2,0-3.2-0.3c-1.1-0.3-2-0.6-2.6-1.1c0,0,0-0.3,0.3-0.6c0-0.3,0.3-0.9,0.6-1.4c0.3-0.9,0.6-1.4,0.9-1.7h2.6
		c0,0.6,0,1.1,0,2.3c0.6,0.3,1.1,0.3,2,0.3s1.4-0.3,2.3-0.6c0.6-0.3,1.1-0.9,1.1-1.7c0-0.3,0-0.6,0-0.9c0-0.3,0-0.6-0.3-0.9
		c-0.3-0.3-0.6-0.6-1.1-0.6l-2.6-0.9c-2.6-0.9-3.4-2.6-2.9-5.2c0.3-1.7,1.4-2.9,2.6-3.7c1.4-0.9,3.2-1.4,4.9-1.4
		c2,0,3.7,0.3,5.2,1.1c0,0,0,0.3-0.3,0.6c0,0.3-0.3,0.9-0.6,1.4c-0.3,0.6-0.6,1.4-0.9,1.7h-2.6C65.5,67.4,65.5,66.8,65.8,66z"/>
	<path class="st1" d="M79.8,66c-0.6-0.3-1.1-0.3-1.7-0.3c-0.6,0-1.1,0.3-1.7,0.6c-0.6,0.3-0.9,0.9-0.9,1.4c-0.3,0.6,0,1.1,0,1.4
		c0,0.3,0.9,0.6,1.4,0.9l2.3,0.6c1.1,0.3,2,0.9,2.6,1.7c0.6,0.9,0.6,2,0.3,3.4c-0.6,1.7-1.4,3.2-3.2,4.3c-1.7,1.1-3.2,1.4-5.2,1.4
		c-1.1,0-2,0-3.2-0.3c-1.1-0.3-2-0.6-2.6-1.1c0,0,0-0.3,0.3-0.6c0-0.3,0.3-0.9,0.6-1.4c0.3-0.9,0.6-1.4,0.9-1.7h2.6
		c0,0.6,0,1.1,0,2.3c0.6,0.3,1.1,0.3,2,0.3s1.4-0.3,2.3-0.6c0.6-0.3,1.1-0.9,1.1-1.7c0-0.3,0-0.6,0-0.9c0-0.3,0-0.6-0.3-0.9
		c-0.3-0.3-0.6-0.6-1.1-0.6l-2.6-0.9c-2.6-0.9-3.4-2.6-2.9-5.2c0.3-1.7,1.4-2.9,2.6-3.7c1.4-0.9,3.2-1.4,4.9-1.4
		c2,0,3.7,0.3,5.2,1.1c0,0,0,0.3-0.3,0.6c0,0.3-0.3,0.9-0.6,1.4c-0.3,0.6-0.6,1.4-0.9,1.7h-2.6C79.8,67.4,79.8,66.8,79.8,66z"/>
</g>
<g>
	<path class="st1" d="M21.3,95l2.3-9.8h2.9c0.9,0,1.4,0.3,2,0.6c0.6,0.3,0.9,0.9,1.1,1.7c0.3,0.6,0.3,1.4,0,2.3v0.6
		c-0.3,0.9-0.6,1.7-1.1,2.3c-0.6,0.6-1.2,1.1-2,1.7C25.6,94.7,25,95,24.1,95H21.3z M24.4,86.3l-1.7,7.8h1.4c0.9,0,1.7-0.3,2.6-0.9
		c0.6-0.6,1.1-1.4,1.4-2.6v-0.6c0.3-1.1,0.3-2-0.3-2.6c-0.3-0.6-1.1-0.9-2-0.9h-1.4V86.3z"/>
	<path class="st1" d="M36.8,90.4h-4.3l-0.9,3.4h4.9V95h-6l2.3-9.8h6l-0.6,1.1h-4.9l-0.6,3.2h4.3L36.8,90.4z"/>
	<path class="st1" d="M39.4,93.8H44V95h-5.7l2.3-9.8h1.1L39.4,93.8z"/>
	<path class="st1" d="M46.5,95h-1.1l2.3-9.8h1.1L46.5,95z"/>
	<path class="st1" d="M52.6,93.2l4.6-8h1.4L52.9,95h-1.2l-1.4-9.8h1.4L52.6,93.2z"/>
	<path class="st1" d="M64,90.4h-4.3l-0.9,3.4h4.9V95h-6l2.3-9.8h6l-0.3,1.1h-4.9l-0.6,3.2h4.3L64,90.4z"/>
	<path class="st1" d="M69.8,90.9h-2.3l-0.9,4h-1.1l2.3-9.8h3.2c1.1,0,2,0.3,2.3,0.9c0.6,0.6,0.6,1.1,0.3,2.3c0,0.6-0.3,1.1-0.9,1.7
		c-0.3,0.6-0.9,0.9-1.7,1.1l1.4,3.7l0,0h-1.4L69.8,90.9z M67.8,90.1h2c0.6,0,1.2-0.3,1.7-0.6c0.6-0.3,0.9-0.9,0.9-1.4
		c0-0.6,0-1.1-0.3-1.4c-0.3-0.3-0.9-0.3-1.4-0.3h-2L67.8,90.1z"/>
</g>
<g class="st0">
	<path class="st1" d="M77.6,90.1l3.6-4.9h1.5l-4.7,6.1L77.1,95h-1.3l0.8-3.6l-2-6.1h1.5L77.6,90.1z"/>
</g>
<ellipse class="st1" cx="32.5" cy="99.8" rx="62.4" ry="1.8"/>
</svg>
