<?xml version="1.0" encoding="utf-8"?>
<!-- Generator: Adobe Illustrator 24.0.2, SVG Export Plug-In . SVG Version: 6.00 Build 0)  -->
<svg version="1.1" id="Capa_1" xmlns="http://www.w3.org/2000/svg" xmlns:xlink="http://www.w3.org/1999/xlink" x="0px" y="0px"
	 viewBox="0 0 859.3 866.4" style="enable-background:new 0 0 859.3 866.4;" xml:space="preserve">
<style type="text/css">
	.st0{fill-rule:evenodd;clip-rule:evenodd;fill:#333333;}
	.st1{fill:#333333;}
	.st2{fill:none;stroke:#333333;stroke-width:11.9999;stroke-miterlimit:22.9256;}
</style>
<g>
	<path class="st0" d="M679.5,200.2c0,6.9,25.3,44.2,25.3,51.9v146.4c-9.3,0-18.6-1.9-18.6,5.3v215.6c0,17.1,18,35.9,38.6,35.9
		c18.3,0,32.1-4.8,40.4-22.1c2.2-4.6,3.5-8.9,3.5-15.2c0-29.9,2.1-203.6-1.3-218.2c-8.9-2.1-6.7-1.3-17.3-1.3v-145
		c0-5.7,16.4-33.5,20.9-41.7c2.3-4.3,6.2-9.8,5-14.7l-18.1-45.9c-5.7-16.4-4.9-12.1-49.1-12.1c-7.9,0-8.9,5.3-11.2,11.4
		C693.6,160.5,679.5,194,679.5,200.2 M695.5,198.8c0-5,13.5-33.5,16-43.9h33.3c0.6,7.5,16,39.8,16,43.9c0,3.4-8.8,17.5-10.6,21.3
		c-3.2,6.4-9,14.2-10.6,21.3h-22.6c-1.1-4.9-3.1-7.1-5.3-10.7L695.5,198.8z M719.4,256.1h16v142.4h-16V256.1z M728.8,640.6
		c-13.5,0-27.9-9.1-27.9-21.3V413.1H754v199.6c0,8.8-2.6,14.8-7,19.6C742.7,637,732.8,640.6,728.8,640.6z"/>
	<path class="st0" d="M604.8,398.4c-10.3,0-7.4-0.7-16,1.3c-3.4,14.6-1.3,187.1-1.3,216.9c0,20.6,18,38.6,38.6,38.6
		c12.2,0,22.4-1.1,32.3-10.3c4.9-4.5,11.6-15.4,11.6-24.3V403.8c0-6.8-7.9-5.3-14.6-5.3l1.3-34.6c0.7-12.8-0.2-24.6,1.1-36.1
		c2.5-22.6-0.8-50.2,1.7-72.8l2.5-70.7c-0.6-7-10-17.7-13.9-23.4c-13.6-19.6-16.1-29.3-28.7-11.2c-29.1,41.7-21.4,21.6-21.3,69.3
		c0,8,1.3,9.6,1.4,17.2L604.8,398.4z M639.4,398.4h-20c0-23-1.3-41.2-1.3-63.9l-2.7-78.5c-0.1-7.2-1.2-7.8-1.4-14.5
		c-0.3-10.8,0.8-22.3-0.7-32.5c-1.3-8.6-2-21.6,2.6-28.2c3.5-5.1,10.1-16.4,14.2-19.1c3.5,2.6,10.3,14.2,13.3,18.6
		c7.2,10.4,2.5,13.3,2.6,28l-1.7,63.5c-1.2,9-0.9,20-0.9,31l-2.7,79.8C640.5,389.4,639.4,390.7,639.4,398.4z M602.1,612.7V413.1
		h53.2v206.3C655.3,645,602.1,651.6,602.1,612.7z"/>
	<path class="st0" d="M439.2,375.2h71.2c5.8,0,12.2-1.5,12.2-7.3c0-2.9-2-3.6-3.7-6.1h-80.2L439.2,375.2z M464.1,410.4
		c16.7,0.1,31.6,0.2,43.9,0.3c10.9,0.1,13.4,1,13.4-7.3c0-3.9-4.4-6.1-8.5-6.1h-48.7V410.4z M192.5,1.5c-0.9,3.6-1.8,7.9-2.6,11.7
		c-0.7,3.4-1.2,6.1-1.2,6.9c0,0.3,0.2-0.2,0.8,0.1c1.3,0.8,3.2,1.8,5.6,3.4c7,4.7,12.5,8,16.7,10.6c7.7,4.7,11.7,7.1,13.3,11
		c2.2,5.3-0.4,8.8-5.8,16.3c-1.7,2.4-3.8,5.3-6.4,9.1l0,0l-12.4,18.7c0.5,0.5,2.1,1.9,4.5,4c1.1,1,2.4,2.1,4,3.6
		c0.7,0.6,1.3,1.1,1.9,1.5v0c0.8,0.6,1.6,1.2,2.9,2.3c1,1,1.6,1.6,2.2,2.2c0.6,0.6,1.2,1.3,1.7,1.7c2.6,2.4,5.1,4.5,7,6.1
		c4.1,3.5,6.2,5.2,7.1,8.7c0.8,3.1,0.1,5.9-1.2,11.5c-0.7,3-1.7,6.8-2.7,11.8c-0.7,3.4-1.5,6.5-2.2,9.5c-0.7,2.9-1.4,5.5-1.7,7.5
		c0.9-1.5,2.1-3.5,3-5.1c0.6-0.9,1-1.7,1.6-2.4c1.2-1.7,2.3-3.3,3.7-5.3c7.4-10.5,21.7-30.8,21.7-31.3c0-0.2-4.3-4.6-9-9.3
		c-5.2-5.2-10.7-10.8-13-15.2l-1.7-3.2l32.2-35.5l0.4-0.4c2.1-2.2,7.6-7.8,7.6-8.5c0-0.6-8.4-4.8-16.6-10.1
		c-7.4-4.8-14.7-9.4-17.5-12.4l-1.6-1.7l0.2-2.3c0.1-1.5,1.6-5.7,3.7-10.2h0c0.8-1.7,1.7-3.6,2.6-5.4H253h7.4h351.4
		c10.1,0,20.9,7.4,26,13.1c5.8,6.5,9.5,16.6,9.5,28.4V131c0,6.3-3.2,7.6-7.3,9.8c-2.7-1.4-3.7-2-6.1-3.7c0-24.8,0-49.7,0-74.5
		c0-17.4,3.6-47.6-25.6-47.6H246.4c-0.1,0.3-0.3,0.6-0.4,0.9c3,2.3,8.2,5.6,13.4,8.9c10.6,6.8,21.5,13.7,21.5,18.8
		c0,4.8-7.5,12.6-10.5,15.7l-0.2,0.2l0,0l-27,29.7c2.3,2.9,5.8,6.5,9.2,9.9c6.2,6.3,12,12.1,12,16.5c0,3.8-15.6,25.9-23.6,37.3
		c-1.9,2.6-3.4,4.8-3.7,5.3c-0.2,0.3-0.7,1.1-1.3,2c-2.9,4.7-7.4,11.9-13,11.9c-7,0-9.5-3.7-9.5-9.9c0-3.4,1.1-7.6,2.4-12.5
		c0.7-2.8,1.5-5.8,2.1-8.9c1.1-5.4,2-9.3,2.8-12.3c1-3.9,1.4-5.9,1.3-6.5c-0.1-0.3-1.3-1.3-3.7-3.3c-1.8-1.5-4-3.4-7.3-6.4
		c-1-1-1.6-1.6-2.2-2.2c-0.6-0.6-1.2-1.3-1.7-1.7c-0.8-0.7-1.3-1.1-1.9-1.5l0,0c-0.8-0.6-1.5-1.1-2.9-2.4c-1.1-1-2.5-2.3-3.8-3.4
		c-6-5.2-9.8-8.5-7.8-15l0.2-0.7l13.7-20.5v0c2.5-3.7,4.8-6.9,6.6-9.4c3.1-4.3,4.7-6.1,4.7-6.2c-0.3-0.8-3.3-2.6-9.1-6.1
		c-4.4-2.6-10.1-6.1-17.1-10.8c-2.1-1.4-3.7-2.3-4.9-2.9c-4.9-2.8-6.1-3.4-6.1-9.2c0-1,0.3-2.9,0.7-5.2h-54.2
		c-12.5,0-23.2,10.7-23.2,23.2v251.6c0,12.4,10.1,20.8,21.2,22.8c8.5,1.5,341.8,0.4,374.1,0.4c11.1,0,33.4-3.7,22,13.4H203
		c-2.1,4.4-13.1,31.5-13.4,35.4h82.5v13.8l-88.6-0.3c-18.3,0-9.5-13.5-3.7-28.1c2.6-6.4,5.5-14.9,8.5-20.8c-18.9,0-51,1.9-68.3-0.1
		c-16.1-1.9-31.9-18-31.9-36.5V38.1c0-19.2,17.3-36.6,36.6-36.6h19.3h37.6H192.5z M101.7,498.6c26,0,34.8,1.9,48.1-1.2
		c2.3-9.7,1.7-6-2.4-12.2l-34.7,0c-4,0-8.4,0.5-11.2-1c-11.4-6.1,3.1-20.9,12.9-40.2c1.8-3.5,2.8-5,4.4-7.8l13.5-25.6
		c30.4,0,61.6-0.1,112.2-0.2v-13.2H132.2c-9.2,0-9,2.6-12.3,8.5l-30.7,54.8C72.8,487.4,94.3,498.6,101.7,498.6z"/>
	<path class="st0" d="M289.6,614.8l-40.1,107.1h209.4l-2.3-4.4c-4.2-8-7.1-16.7-10.1-25.1v0l-30.5-77.6H289.6z M433.3,614.8l0.8,3.6
		c1.6,6.8,4.8,13.2,7.4,19.7c1.3,3.2,2.4,6.4,3.2,9.8l0.5,2.3h2.4c9.3,0,18.7,0.3,28,0.7c8.5,0.3,17.1,0.6,25.6,0.3
		c12.2-0.4,28.5-1.8,37.3-11.3c5.1-5.5,6.9-12.6,6.9-20v-97.8H164.4v3c0,16.1-0.2,32.2-0.5,48.3c-0.2,11.3-0.5,22.6-0.2,33.9
		c0.2,11.2,0.6,28.2,9.5,36.3c7.4,6.8,20,7.2,29.5,7.4c8.1,0.1,16.3-0.1,24.4-0.3c11-0.3,22-0.5,33-0.5h2.7l0.2-2.7
		c0.2-2.2,0.9-4.6,1.5-6.7c0.8-2.8,1.8-5.5,2.9-8.2c1-2.6,2-5.2,3.1-7.7c0.8-1.9,1.7-3.9,2.7-5.7l2.3-4.4h-4.9
		c-8,0-15.9,0.7-23.9,0.8c-3.8,0-9.9-0.1-12.8-2.7c-2.1-1.9-2.4-5.1-2.4-7.7c0-3.3,2.2-5.5,5.5-5.5h231.7c2.6,0,4.2,1.4,5.6,3.4
		c0.3,0.5,0.7,1,1,1.5l0.8,1.2l-0.4,1.3c-0.8,2.5-1.9,4.3-3.4,6.5l-0.9,1.3H433.3z M189,507h331.9l-6-5.2c-0.4-0.3-0.8-0.7-1.2-1.1
		c-0.8-0.7-2-1.3-2.8-1.8c-1.3-0.9-2.8-1.6-4.2-2.4l-22.5-12.3H228.5c-5.3,0-11.8,3.3-16.4,5.9c-3.6,2-7,4.3-10.4,6.6
		c-1.5,1-2.9,2.1-4.4,3.2l-0.3,0.2l-0.3,0.1c-0.4,0.2-0.8,0.4-1.2,0.8c-0.2,0.2-0.4,0.4-0.6,0.6l-0.2,0.2L189,507z M432,402v67h8
		v-67H432z M292.9,366.2v102.9h121.8V366.2H292.9z M267.7,402v67h10.2v-67H267.7z M500.3,535.7c8.2,0,14.8,6.6,14.8,14.8
		c0,8.2-6.6,14.8-14.8,14.8c-8.2,0-14.8-6.6-14.8-14.8C485.5,542.3,492.1,535.7,500.3,535.7z M452.5,545.8h16c3.5,0,6.3,2.8,6.3,6.3
		c0,3.5-2.8,6.3-6.3,6.3h-16c-3.5,0-6.3-2.8-6.3-6.3C446.2,548.7,449,545.8,452.5,545.8z M417.6,545.8h16c3.5,0,6.3,2.8,6.3,6.3
		c0,3.5-2.8,6.3-6.3,6.3h-16c-3.5,0-6.3-2.8-6.3-6.3C411.3,548.7,414.1,545.8,417.6,545.8z M273.9,698.2h154c3.5,0,6.3,2.8,6.3,6.3
		c0,3.5-2.8,6.3-6.3,6.3h-154c-3.5,0-6.3-2.8-6.3-6.3C267.6,701,270.5,698.2,273.9,698.2z M290.5,671.8h120.7c3.5,0,6.3,2.8,6.3,6.3
		c0,3.5-2.8,6.3-6.3,6.3H290.5c-3.5,0-6.3-2.8-6.3-6.3C284.2,674.7,287.1,671.8,290.5,671.8z M252.5,469.1v-3
		c0-11.5-0.2-22.9-0.4-34.4c-0.1-7.7-0.3-15.3-0.2-23c0.1-4.9,0-16,3.9-19.3c3.5-3,14.4-2.5,19.1-2.5h3v-26.1c0-2.7,0.4-6.9,2.5-8.7
		c0.8-0.7,1.9-1,2.9-1h141.2c1,0,2,0.2,2.9,0.8c4.1,2.7,4.7,12.2,4.8,16.8c0.2,5.1-0.1,10.2-0.1,15.3v3h3c5.1,0,14.5-1,18.4,2.8
		c1.4,1.3,1.8,3,1.8,4.8v74.6h3c6.8,0,13.6-0.2,20.4-0.1c3.8,0.1,7.6,0.2,11.3,1.2c4.4,1.1,8.5,3.5,12.4,5.7
		c7.9,4.6,15.6,9.5,23.5,14.2c5.1,3.1,10.4,5.7,15.7,8.6c4.7,2.6,9.4,5.3,13.6,8.6c1.9,1.5,5.3,4.5,5.5,7.1l0,0.1v105.4
		c0,19.8-10.6,37.1-29.9,43.2c-5.4,1.7-11.7,2.2-17.3,2.6c-7.7,0.5-15.3,0.5-23,0.4c-11.4-0.1-22.9-0.7-34.3-0.7h-4.9l2.3,4.4
		c1.9,3.6,3.3,7.5,4.9,11.2c2.7,6.5,5.2,13,7.7,19.5c2.5,6.5,4.9,13,7.1,19.5c0.8,2.4,1.6,4.9,2.3,7.4c0.3,1,0.6,2.1,0.8,3.2
		l0.1,0.7L476,732c-0.2,0.6-0.4,1.1-0.6,1.7l-0.6,1.7l-1.8,0.2c-0.9,0.1-1.7,0.2-2.6,0.3c-3.3,0.3-6.5,0.5-9.8,0.7
		c-9.5,0.5-19,0.8-28.5,0.9c-25.8,0.5-51.6,0.5-77.5,0.4c-23.6-0.1-47.2-0.3-70.8-0.5c-15.6-0.1-31.3-0.4-46.9-0.4
		c-1.3,0-2.9-0.2-3.9-1l-0.1-0.1l-0.1-0.1c-1.7-1.8-1.3-5.1-1-7.4c0.2-1.6,0.6-3.4,1-5c2-7.7,5.2-15.1,8.3-22.3
		c2.5-5.9,5.1-11.8,7.3-17.7c1.7-4.5,3.7-9.9,4.1-14.7l0.3-3.2h-3.2c-10.2,0-20.4,0.6-30.6,0.8c-7.1,0.2-14.3,0.3-21.5-0.1
		c-5.6-0.3-11.6-0.8-17-2.3c-4.4-1.3-8.5-3.3-12.3-5.7c-8.8-5.7-18.8-16.5-18.8-27.7V512.1l0.3-0.6c2.1-4.1,13.3-10.6,17.6-13
		c5.8-3.3,11.9-6.3,17.6-9.7c7.1-4.2,14.1-8.6,21.3-12.9c3.6-2.1,7.4-4.3,11.5-5.5c3.6-1,7.4-1.3,11.2-1.4c6.9-0.2,13.8,0,20.8,0
		H252.5z"/>
	<path class="st1" d="M632.2,841.5v-53.2h16l3.2,5.1c1.6-1.5,3.9-2.9,6.6-4.1c2.8-1.3,5.6-1.9,8.4-1.9c4.6,0,8.1,0.9,10.5,2.6
		c2.4,1.7,4,4.1,4.8,7.1c0.9,3,1.3,6.3,1.3,10v34.4h-19.2v-31.8c0-1.4-0.2-2.4-0.7-3.2c-0.5-0.7-1.1-1.2-1.8-1.5
		c-0.8-0.3-1.7-0.4-2.7-0.4c-0.9,0-1.7,0.1-2.7,0.4c-0.9,0.3-1.8,0.6-2.5,1.1c-0.8,0.5-1.4,1-2,1.6v33.9H632.2z M594.6,779.2
		l6.7-14.1h15.2l-10.7,14.1H594.6z M599.6,826.8c1.3,0,2.3-0.1,3.1-0.3c0.8-0.2,1.4-0.7,1.9-1.5c0.5-0.8,0.8-2,1-3.7
		c0.2-1.6,0.3-3.9,0.3-6.6c0-2.8-0.1-5-0.3-6.6c-0.2-1.6-0.5-2.8-1-3.6c-0.5-0.8-1.1-1.3-1.9-1.5c-0.8-0.2-1.8-0.3-3.1-0.3
		c-1.3,0-2.3,0.1-3.1,0.3c-0.8,0.2-1.4,0.7-1.9,1.5c-0.5,0.8-0.8,2-1,3.6c-0.2,1.6-0.3,3.8-0.3,6.6c0,2.8,0.1,5,0.3,6.6
		c0.2,1.6,0.5,2.9,1,3.7c0.5,0.8,1.1,1.3,1.9,1.5C597.3,826.7,598.3,826.8,599.6,826.8z M599.6,842c-4.7,0-8.7-0.5-12-1.5
		c-3.3-1-5.9-2.6-7.9-4.7c-2-2.2-3.4-5-4.2-8.4c-0.9-3.5-1.3-7.7-1.3-12.6c0-5.3,0.4-9.8,1.3-13.3c0.9-3.5,2.3-6.3,4.3-8.4
		c2-2.1,4.6-3.5,7.9-4.4c3.3-0.9,7.2-1.3,11.9-1.3c4.7,0,8.7,0.5,12,1.4c3.3,0.9,5.9,2.4,7.8,4.5c1.9,2.1,3.4,4.9,4.2,8.4
		c0.9,3.5,1.3,7.9,1.3,13.1c0,5.1-0.4,9.4-1.2,12.9c-0.8,3.5-2.2,6.3-4.1,8.4c-1.9,2.1-4.5,3.6-7.8,4.5
		C608.5,841.5,604.4,842,599.6,842z M547.7,841.5v-53.2h19.2v53.2H547.7z M549.9,781.5c-1.6,0-2.4-0.8-2.4-2.3v-11
		c0-1.6,0.8-2.5,2.4-2.5h15c0.7,0,1.3,0.2,1.6,0.7c0.4,0.5,0.5,1.1,0.5,1.8v11c0,1.5-0.7,2.3-2.2,2.3H549.9z M520.9,842.1
		c-3.4,0-6.5-0.4-9.3-1.3c-2.8-0.9-5.3-2.4-7.3-4.4c-2-2-3.6-4.8-4.7-8.2c-1.1-3.5-1.7-7.8-1.7-12.9c0-5.4,0.5-9.9,1.5-13.5
		c1-3.6,2.5-6.4,4.5-8.5c2-2.1,4.4-3.6,7.4-4.5c3-0.9,6.4-1.3,10.2-1.3c3.6,0,6.8,0.2,9.6,0.7c2.9,0.5,6,1.3,9.5,2.4v11h-12.9
		c-2.8,0-5,0.4-6.6,1.1c-1.5,0.8-2.6,2.1-3.2,4c-0.6,1.9-0.9,4.7-0.9,8.3c0,3.7,0.3,6.5,0.8,8.3c0.6,1.8,1.6,3.1,3.2,3.7
		c1.5,0.6,3.8,0.9,6.9,0.9h13.4v10.8c-1.6,0.7-3.6,1.3-6,1.8c-2.3,0.6-4.8,1-7.3,1.3C525.6,841.9,523.2,842.1,520.9,842.1z
		 M466.6,829c0.3,0,0.7,0,1.1-0.1c0.4-0.1,0.8-0.1,1.2-0.2c0.4-0.1,0.8-0.2,1.1-0.3c0.4-0.1,0.7-0.2,0.9-0.3
		c0.3-0.1,0.5-0.2,0.7-0.3v-9.6l-4,0.6c-1.8,0.3-3.2,0.7-4.2,1.4c-1,0.7-1.4,1.8-1.4,3.2v2c0,0.9,0.2,1.6,0.5,2.1
		c0.4,0.6,0.9,1,1.6,1.2C464.8,828.9,465.6,829,466.6,829z M456.5,842.1c-4.1,0-7.4-1.2-9.9-3.7c-2.5-2.4-3.8-5.7-3.8-9.9v-5.4
		c0-4,1.4-7.2,4.3-9.9c2.9-2.6,7.5-4,13.8-4h10.7v-1.7c0-1.3-0.2-2.4-0.7-3.1c-0.5-0.8-1.4-1.3-2.8-1.6c-1.4-0.3-3.6-0.4-6.7-0.4
		H446v-11c2.8-1.1,5.9-2,9.5-2.8c3.6-0.7,8-1.1,13.2-1.1c4.5,0,8.4,0.5,11.7,1.5c3.3,1,5.9,2.9,7.7,5.5c1.8,2.7,2.7,6.5,2.7,11.5
		v35.3h-15.2l-3-5.3c-0.7,0.7-1.5,1.3-2.4,2c-1,0.7-2.1,1.3-3.4,1.9c-1.3,0.6-2.8,1.1-4.5,1.5C460.5,841.9,458.6,842.1,456.5,842.1z
		 M404.1,841.5v-53.2H419l4.2,7.4c1.6-2.2,3.4-4.1,5.5-5.7c2.1-1.6,4.6-2.5,7.6-2.5c0.5,0,1.2,0,1.9,0.1c0.7,0.1,1.4,0.2,2.1,0.4
		v19.7c-1.1-0.1-2.3-0.2-3.4-0.3c-1.2-0.1-2.2-0.1-3.1-0.1c-1.6,0-3,0.1-4.3,0.4c-1.3,0.3-2.5,0.7-3.5,1.3c-1,0.6-1.9,1.4-2.6,2.4
		v30.1H404.1z M371.4,829c0.3,0,0.7,0,1.1-0.1c0.4-0.1,0.8-0.1,1.2-0.2c0.4-0.1,0.8-0.2,1.1-0.3c0.4-0.1,0.7-0.2,0.9-0.3
		c0.3-0.1,0.5-0.2,0.7-0.3v-9.6l-4,0.6c-1.8,0.3-3.2,0.7-4.2,1.4c-1,0.7-1.4,1.8-1.4,3.2v2c0,0.9,0.2,1.6,0.5,2.1
		c0.4,0.6,0.9,1,1.6,1.2C369.6,828.9,370.4,829,371.4,829z M361.3,842.1c-4.1,0-7.4-1.2-9.9-3.7c-2.5-2.4-3.8-5.7-3.8-9.9v-5.4
		c0-4,1.4-7.2,4.3-9.9c2.9-2.6,7.5-4,13.8-4h10.7v-1.7c0-1.3-0.2-2.4-0.7-3.1c-0.5-0.8-1.4-1.3-2.8-1.6c-1.4-0.3-3.6-0.4-6.7-0.4
		h-15.5v-11c2.8-1.1,5.9-2,9.5-2.8c3.6-0.7,8-1.1,13.2-1.1c4.5,0,8.4,0.5,11.7,1.5c3.3,1,5.9,2.9,7.7,5.5c1.8,2.7,2.7,6.5,2.7,11.5
		v35.3h-15.2l-3-5.3c-0.7,0.7-1.5,1.3-2.4,2c-1,0.7-2.1,1.3-3.4,1.9c-1.3,0.6-2.8,1.1-4.5,1.5C365.3,841.9,363.4,842.1,361.3,842.1z
		 M316.8,826.6c0.9,0,1.9-0.3,2.8-0.8c1-0.6,1.7-1.7,2.4-3.3c0.6-1.6,0.9-4.1,0.9-7.4c0-3.3-0.2-5.8-0.7-7.7c-0.5-1.8-1.1-3-2-3.7
		c-0.9-0.7-2-1-3.3-1c-1.4,0-2.7,0.2-3.9,0.6c-1.2,0.4-2.1,0.9-2.8,1.3v20.4c0.7,0.5,1.6,0.8,2.8,1.1
		C314.3,826.4,315.5,826.6,316.8,826.6z M291.1,864.9v-76.6h16.2l3,4.8c1.3-1.1,2.6-2.1,3.9-3c1.3-0.9,2.6-1.5,4.1-2
		c1.5-0.5,3.2-0.7,5.1-0.7c3.2,0,5.9,0.6,8.3,1.7c2.4,1.1,4.3,2.8,5.9,5.1c1.5,2.3,2.7,5.2,3.5,8.6c0.8,3.5,1.1,7.6,1.1,12.2
		c0,5.5-0.5,10.3-1.5,14.4c-1,4.1-2.9,7.2-5.6,9.5c-2.7,2.2-6.6,3.4-11.7,3.4c-2.2,0-4.5-0.2-6.8-0.6c-2.3-0.4-4.4-1-6.2-1.9v25.1
		H291.1z M255.6,810.3h7.6c1.3,0,2.3-0.3,2.9-0.9c0.6-0.6,0.9-1.6,0.9-3.1c0-1.3-0.2-2.3-0.6-3.1c-0.4-0.8-1-1.4-1.9-1.7
		c-0.9-0.4-2-0.5-3.4-0.5c-1.3,0-2.3,0.3-3.1,0.8c-0.8,0.5-1.4,1.5-1.8,2.8C255.8,806,255.6,807.8,255.6,810.3z M262,842
		c-6.1,0-10.9-0.8-14.6-2.3c-3.7-1.5-6.4-4.2-8.1-8.1c-1.7-3.9-2.5-9.4-2.5-16.5c0-7.3,0.8-13,2.3-16.9c1.5-4,4-6.8,7.6-8.3
		c3.5-1.6,8.3-2.4,14.5-2.4c5.7,0,10.1,0.5,13.4,1.6c3.3,1.1,5.6,2.9,7.1,5.7c1.4,2.7,2.1,6.6,2.1,11.6c0,3.9-0.8,6.9-2.3,9.1
		c-1.5,2.2-3.7,3.8-6.4,4.7c-2.8,0.9-6,1.4-9.8,1.4h-9.5c0.2,1.6,0.6,2.8,1.2,3.8c0.6,1,1.7,1.6,3.3,2c1.6,0.4,3.9,0.6,7,0.6h14.5
		V839c-2.3,0.7-5.1,1.3-8.2,2C270.4,841.7,266.5,842,262,842z M196.3,801h8.7c1.1,0,2-0.1,2.8-0.4c0.8-0.3,1.5-0.8,2-1.4
		c0.6-0.7,1-1.5,1.2-2.5c0.3-1,0.4-2.3,0.4-3.7c0-1.4-0.1-2.7-0.4-3.7c-0.3-1-0.7-1.8-1.2-2.3c-0.6-0.6-1.2-1-2-1.2
		c-0.8-0.3-1.7-0.4-2.8-0.4h-8.7V801z M177.1,841.5v-73.4h31.3c3.2,0,6.2,0.4,8.9,1.2c2.7,0.8,5,2.1,7,4c2,1.9,3.5,4.4,4.6,7.6
		c1.1,3.2,1.6,7.1,1.6,12c0,3-0.3,5.7-0.8,7.9c-0.5,2.2-1.2,4.1-2.1,5.7c-0.9,1.5-1.9,2.8-3.2,3.9c-1.2,1.1-2.5,2-3.9,2.8l12.7,28.4
		h-19.5l-10.3-25.3c-0.6,0-1.2,0-1.8,0c-0.6,0-1.2,0-1.8,0c-0.6,0-1.2,0-1.8,0s-1.2,0-1.8,0v25.3H177.1z"/>
	<path class="st2" d="M413,180.6l2.6-59.6c0-0.1,0-0.1,0-0.2c0-2.3-1.9-4.3-4.3-4.3c0,0,0,0,0,0h-14.1c-2.3,0-4.3,1.9-4.3,4.3
		c0,0.1,0,0.1,0,0.2l2.6,59.6c0.1,2.3,2,4.1,4.3,4.1c0,0,0,0,0,0h8.9c0,0,0,0,0,0C411.1,184.7,412.9,182.9,413,180.6z M417.1,210.1
		c0-7.4-5.6-12.7-12.8-12.7c-7.1,0-12.7,5.3-12.7,12.7c0,7.4,5.6,12.8,12.7,12.8C411.5,223,417.1,217.5,417.1,210.1z M404.3,65.9
		c57.3,0,103.8,46.5,103.8,103.8s-46.5,103.8-103.8,103.8c-57.3,0-103.8-46.5-103.8-103.8S347,65.9,404.3,65.9z"/>
</g>
</svg>
