<?xml version="1.0" encoding="utf-8"?>
<!-- Generator: Adobe Illustrator 24.0.2, SVG Export Plug-In . SVG Version: 6.00 Build 0)  -->
<svg version="1.1" id="Capa_1" xmlns="http://www.w3.org/2000/svg" xmlns:xlink="http://www.w3.org/1999/xlink" x="0px" y="0px"
	 viewBox="0 0 859.3 866.4" style="enable-background:new 0 0 859.3 866.4;" xml:space="preserve">
<style type="text/css">
	.st0{fill-rule:evenodd;clip-rule:evenodd;fill:#A7A7A7;}
</style>
<g>
	<path class="st0" d="M293.7,193.8H144.9c-3.2,0-6.7-1.7-6.7-4.8V76.9c0-2.2,2.6-4.8,4.8-4.8h152.7c2.2,0,4.8,2.6,4.8,4.8V187
		C300.5,191.5,298.2,193.8,293.7,193.8 M201.9,199.6h34.8c0.1,3.8,1.5,8.4,2.6,12c1.2,4.3,2.2,8.1,3.2,12.2h-46.4
		C196.7,216.1,201.3,207.6,201.9,199.6z M171,230.5h96.7v1H171V230.5z M141,78.8v87.9c0,3,2.8,3.9,5.8,3.9h145c3,0,5.8-0.9,5.8-3.9
		V78.8c0-2.2-0.7-2.9-2.9-2.9H143.9C141.7,75.9,141,76.5,141,78.8z M146.8,81.7h145v82.1h-145V81.7z M310.1,159
		c0,2.2,0.7,2.9,2.9,2.9h278.6v31.9c0,3.2,1.9,3.7,4.8,3.9c2.2-3.7,1-32.2,1-38.7c0-2.2-0.7-2.9-2.9-2.9H313
		C310.8,156.1,310.1,156.7,310.1,159z M121.7,72v44.4c0,4.2,3,3.6,5.8,2.9l-0.1-44.5c0-7.9,0.9-7.1,3.9-11.5c6.1,0,12.2,0,18.4,0
		c7.1,0,12.4,1.3,15.4-2.9c-1.7-6.2-7.7-3.9-26.1-3.9C128.4,56.5,121.7,61.5,121.7,72z M210.6,181.2c0,15.1,17.4,12.2,17.4,1.9
		C228,170.9,210.6,172.7,210.6,181.2z M216.4,183.1c1.4-5.2,4.6-4,5.8,1c-1.2,0.7-1,1-2.9,1C216.5,185.1,217.5,184.6,216.4,183.1z
		 M204.8,423.6c0-16.9,22.2-17.4,22.2,0C227,436.3,204.8,435.6,204.8,423.6z M722.9,567.6H582.6c-3.4,0-7.4-2.6-7.4-5.6V458.7
		c0-4.3,2.2-6.5,6.5-6.5h144c4.3,0,6.5,2.2,6.5,6.5v101.6C732.1,565.7,728.4,567.6,722.9,567.6z M637.9,573.2h32.3
		c1.4,6,5.4,18.3,5.6,24h-44.3C634.3,591.3,635.1,579.1,637.9,573.2z M607.5,602.6h92.3v0.9h-92.3V602.6z M578.9,457.7
		c0,14.9-1.3,78.1,0.9,87.7h147.7c1.8-7.7,1.8-82.7,0-90.4c-45.5,0-95.9,0.7-141.2-0.1C582.3,454.8,578.9,454,578.9,457.7z
		 M584.4,460.5h138.4v79.4H584.4V460.5z M561.3,448.5v45.3c0,2.2,0.7,2.7,2.7,2.7c4.5,0,2.7-10.5,2.7-19.3
		c0-39.9-5.7-34.1,34.1-34.1c1.8-8.1-3.2-5.6-26.7-5.6C567.6,437.5,561.3,442,561.3,448.5z M651.8,565.8c4.7,0,10.1-0.8,9.6-8.1
		c-0.7-10.2-14.1-9.3-15.7-0.7C645,560.4,648.4,565.8,651.8,565.8z M653.6,555.6c2.7,2,1.7-0.2,1.8,4.6h-3.7
		C651.9,555.5,651,557.5,653.6,555.6z M262.6,546.9c0,3.1,0.9,4,4,4h131.2c3.6,0,3.9-1.9,5.3-4c-1.4-2.1-1.7-4-5.3-4H266.6
		C263.5,542.9,262.6,543.8,262.6,546.9z M328.8,568.1h82.1c4.3,0,5-2.7,5.3-6.6c-5.5-3.1-76.7-1.3-88.8-1.3
		C320.6,560.1,323.6,568.1,328.8,568.1z M216.2,564.1c0,3.1,0.9,4,4,4h37.1c5.6,0,5.6-8,0-8h-37.1
		C217.1,560.1,216.2,561,216.2,564.1z M417.6,546.9c1.4,2.1,1.7,4,5.3,4h35.8c5.6,0,5.6-8,0-8h-35.8
		C419.6,542.9,418.7,544.8,417.6,546.9z M286.5,564.1c3.8,5.7,4.6,4,21.2,4c5.6,0,5.6-8,0-8C293.3,560.1,289.6,558.3,286.5,564.1z
		 M394.7,293.9v7h-94.6v26.2h94.6c0,11.5-3.9,8.7,21.6,8.7v16.9H300.1v60.8h259.2v-60.7H443.1v-16.9h19.8c2.6,0,1.7-2.7,1.7-8.7
		h94.6V301h-94.6c0-6.1,0.8-8.7-1.7-8.7h-66.5C395.1,292.1,394.7,292.5,394.7,293.9z M308.8,309.6h85.8v8.1h-85.8V309.6z
		 M464.6,309.6h85.8v8.1h-85.8V309.6z M404,301.5h51.4v25.1H404V301.5z M425.5,335.9h8.1v16.9h-8.1V335.9z M308.8,361.6h241.7v42.6
		H308.8V361.6z M378.9,228.5l6.3,6.6c3.4-2.4,8.1-8.6,17.9-13.4c3.5-1.7,6.7-3.3,10.8-4.4c21.7-5.9,39.1,1.5,55.6,13.6
		c1.9,1.4,3,2.8,4.7,4l6.6-6.3c-2.1-1.5-3.5-2.9-5.3-4.3c-23.4-18.8-55.5-25-81.9-7.5c-1.8,1.2-3.2,2.3-5.1,3.7L378.9,228.5z
		 M356.1,396h43.8v-24.5c0-1.3-0.4-1.7-1.7-1.7h-42V396z M364.8,379.1h25.7v8.1h-25.7V379.1z M459.4,371.6V396h43.8v-26.2h-42
		C459.8,369.8,459.4,370.1,459.4,371.6z M468.8,379.1h25.7v8.1h-25.7V379.1z M408.1,396h43.2v-26.2h-43.2V396z M416.8,379.1h25.7
		v8.1h-25.7V379.1z M392.3,237.3c1.5,2.2,3.7,4.9,5.8,6.4c8.5-5.6,16-12.3,29.8-12.3c14.3,0,23.2,5.5,33.3,12.3
		c2.2-1.5,4.3-4.2,5.8-6.4c-1.9-2.6-12.8-8.4-16.4-9.9c-18.9-7.7-34.3-6.1-51.5,4.4C397.6,232.8,393.2,236,392.3,237.3z M317,383.2
		c0,7,5.6,12.9,14.6,12.9c6.7,0,11.7-5.7,11.7-14c0-10.5-14.2-16.4-22.3-8.3C319.2,375.5,317,379.9,317,383.2z M329.8,387.2
		c-3.9,0-5.8-8.1,0.6-8.1C335.9,379.1,335.9,387.2,329.8,387.2z M429.7,283.9c3.4,0,7-1.7,8.9-3.4c7.7-7,4.6-22.8-9.5-22.8
		C413,257.7,412.1,283.9,429.7,283.9z M425.5,271.1c0-6.5,8.1-5.5,8.1-0.6C433.8,276.5,425.5,275.6,425.5,271.1z M405.1,250.7l5.7,6
		c5-3.4,8.6-8.3,18.3-8.3c9.3,0,13.6,4.4,19.3,8.1l6-5.7c-3.6-5.2-14.8-11.2-23.5-11.2h-4.6C418.3,239.6,408.3,245.9,405.1,250.7z
		 M533,371.6c0,9-1.4,7.6,7.6,7.6c2.5,0,1.7-2.2,1.7-7.6c0-2.5-2.2-1.7-7.6-1.7C533.4,369.8,533,370.1,533,371.6z M533,396h9.3v-8.7
		H533V396z M516,379.1h8.7v-9.3H516V379.1z M412.2,318.4h7.6c1.3,0,1.7-0.4,1.7-1.7v-7h-9.3V318.4z M437.8,316.7
		c0,1.3,0.4,1.7,1.7,1.7h7.6v-8.7h-9.3V316.7z M516,396h8.7v-8.7H516V396z M530.9,491c0-2.2-0.7-2.9-2.9-2.9H249.4v-31.9
		c0-3.2-1.9-3.7-4.8-3.9c-2.2,3.7-1,32.2-1,38.7c0,2.2,0.7,2.9,2.9,2.9H528C530.2,493.9,530.9,493.2,530.9,491z M664.3,260.9v93.3
		h-31.9c-3.2,0-3.7,1.9-3.9,4.8c3.7,2.2,32.2,1,38.7,1c2.2,0,2.9-0.7,2.9-2.9v-95.8c19-1.3,20.8-33.1,1.7-34.7
		c0-16.4,1.4-86.5-1-96.7c-10.5-2.5-345.4-1-364.5-1V76.9c0-5.7-5.8-10.6-8.7-10.6H142c-8.3,0-10.6,8.8-10.6,17.4v99.6
		c0,6.2,2,12.1,5.7,14.5c5.6,3.7,50.4,1.9,59,1.9c-1.4,6.1-5.7,19.5-5.8,24.2c-8.1,0-17.3-0.8-25.2,1c0,4.8-1.6,12.5,2.9,12.5
		c16.9,0,95.1,1.4,105.4-1c0-16.3,2.1-12.5-25.2-12.5c-0.7-8.1-5.1-16.5-5.8-24.2c11,0,21.9,0,32.9,0c36.9,0,31,2.2,30.9-51.2
		c0-4.4-1.7-13.5,2.9-13.5H665v91.8C647.2,227,644.6,257,664.3,260.9z M218.4,405.3v-0.2v-94.4h31.9c3.2,0,3.7-1.9,3.9-4.8
		c-3.7-2.2-32.2-1-38.7-1c-2.2,0-2.9,0.7-2.9,2.9v97.3c0,0.1,0,0.2,0,0.3c-7.6,1.6-13.3,8.4-13.3,16.3c0,8.5,5.1,16.4,13.9,16.6
		v71.1c0,2.2,0.7,2.7,2.7,2.7h353.7v49.8c0,6.6,6,11,13,11h48.9c-0.2,8-4.9,16.4-5.6,24c-25.7,0-24-2.2-24,9.2
		c0,2.2,1.5,3.7,3.7,3.7c16,0,89.9,1.3,99.7-0.9c3.5-15.1-0.7-12-23.1-12l-6.5-24c7.3,0,49.3,1.1,54.4-1c4.5-1.8,7.5-5.4,7.5-11.9
		V457.7c0-7.4-7-12-15.7-12H585.3c-8.9,0-15.7,4.1-15.7,13v48H218.7v-68.3C238.5,436.7,236.8,407.7,218.4,405.3z M542.2,866.9
		c-1.9,0-3.8-0.1-5.8-0.2c-1.9-0.1-3.8-0.3-5.6-0.5s-3.5-0.5-5.1-0.9s-3-0.9-4.3-1.4v-11.2h24.8c0.9,0,1.5-0.1,1.9-0.2
		c0.4-0.2,0.7-0.4,0.8-0.7s0.2-0.6,0.2-1v-1.3c0-0.7-0.2-1.2-0.6-1.5c-0.4-0.4-1.4-0.5-3-0.5h-8.9c-3,0-5.7-0.5-8.2-1.5
		s-4.5-2.6-6-4.9c-1.5-2.2-2.2-5.3-2.2-9v-3.3c0-3.4,0.7-6.4,2-8.8c1.3-2.4,3.7-4.3,7-5.6c3.4-1.3,8.1-1.9,14.2-1.9
		c2.4,0,4.9,0.1,7.4,0.4c2.5,0.3,4.8,0.7,7,1.1c2.1,0.5,3.8,1,5,1.5v11.2h-23.5c-1,0-1.7,0.1-2.2,0.4c-0.5,0.3-0.7,0.8-0.7,1.5v1.3
		c0,0.5,0.1,0.9,0.3,1.2s0.6,0.5,1.2,0.6c0.6,0.1,1.4,0.2,2.4,0.2h9.2c5.8,0,9.9,1.3,12.3,4c2.3,2.6,3.5,6.2,3.5,10.7v5.5
		c0,3.6-0.9,6.4-2.6,8.6c-1.7,2.2-4.3,3.8-7.7,4.7C551.7,866.4,547.4,866.9,542.2,866.9z M486.4,835h7.6c1.3,0,2.3-0.3,2.9-0.9
		c0.6-0.6,0.9-1.6,0.9-3.1c0-1.3-0.2-2.3-0.6-3.1s-1-1.4-1.9-1.7c-0.9-0.4-2-0.5-3.4-0.5c-1.3,0-2.3,0.3-3.1,0.8
		c-0.8,0.5-1.4,1.5-1.8,2.8S486.4,832.5,486.4,835z M492.9,866.8c-6.1,0-11-0.8-14.7-2.3s-6.4-4.2-8.1-8.2
		c-1.7-3.9-2.5-9.5-2.5-16.6c0-7.3,0.8-13,2.3-17s4.1-6.8,7.6-8.4c3.5-1.6,8.4-2.4,14.5-2.4c5.7,0,10.2,0.5,13.5,1.6s5.7,3,7.1,5.7
		c1.4,2.7,2.1,6.6,2.1,11.7c0,3.9-0.8,7-2.3,9.2s-3.7,3.8-6.4,4.7c-2.8,0.9-6.1,1.4-9.8,1.4h-9.5c0.2,1.6,0.6,2.9,1.2,3.8
		c0.6,1,1.7,1.6,3.3,2c1.6,0.4,3.9,0.6,7,0.6h14.6v11.2c-2.3,0.7-5.1,1.3-8.3,2C501.2,866.5,497.4,866.8,492.9,866.8z M435.3,851.5
		c1.3,0,2.5-0.2,3.5-0.6c1-0.4,1.8-0.9,2.3-1.3V828c-0.6-0.3-1.4-0.7-2.4-1.1c-1-0.4-2-0.6-2.9-0.6c-1.8,0-3.2,0.3-4.3,0.9
		c-1.1,0.6-1.9,1.8-2.3,3.7c-0.5,1.9-0.7,4.7-0.7,8.4c0,3.6,0.2,6.3,0.6,8.1s1.2,2.9,2.2,3.4C432.3,851.3,433.7,851.5,435.3,851.5z
		 M428.3,866.9c-4,0-7.5-0.8-10.3-2.5s-5-4.5-6.5-8.4s-2.2-9.2-2.2-15.8s0.6-12,1.7-16.1c1.2-4.1,3.2-7.2,6.1-9.2s7-3,12.2-3
		c2.1,0,4.2,0.2,6.3,0.6c2.1,0.4,4,0.9,5.6,1.5v-23.4h19.2v75.7h-16.3l-3-4.9c-1.3,1.1-2.6,2.1-4,2.9s-2.8,1.5-4.3,1.9
		C431.5,866.7,429.9,866.9,428.3,866.9z M375,835h7.6c1.3,0,2.3-0.3,2.9-0.9c0.6-0.6,0.9-1.6,0.9-3.1c0-1.3-0.2-2.3-0.6-3.1
		s-1-1.4-1.9-1.7c-0.9-0.4-2-0.5-3.4-0.5c-1.3,0-2.3,0.3-3.1,0.8c-0.8,0.5-1.4,1.5-1.8,2.8S375,832.5,375,835z M381.4,866.8
		c-6.1,0-11-0.8-14.7-2.3s-6.4-4.2-8.1-8.2c-1.7-3.9-2.5-9.5-2.5-16.6c0-7.3,0.8-13,2.3-17s4.1-6.8,7.6-8.4
		c3.5-1.6,8.4-2.4,14.5-2.4c5.7,0,10.2,0.5,13.5,1.6s5.7,3,7.1,5.7s2.1,6.6,2.1,11.7c0,3.9-0.8,7-2.3,9.2s-3.7,3.8-6.4,4.7
		c-2.8,0.9-6.1,1.4-9.8,1.4h-9.5c0.2,1.6,0.6,2.9,1.2,3.8c0.6,1,1.7,1.6,3.3,2c1.6,0.4,3.9,0.6,7,0.6h14.6v11.2
		c-2.3,0.7-5.1,1.3-8.3,2C389.8,866.5,385.9,866.8,381.4,866.8z M315.4,825.6h8.7c1.1,0,2-0.1,2.8-0.4c0.8-0.3,1.5-0.8,2-1.4
		c0.6-0.7,1-1.5,1.2-2.5c0.3-1,0.4-2.3,0.4-3.7c0-1.5-0.1-2.7-0.4-3.7s-0.7-1.8-1.2-2.3c-0.6-0.6-1.2-1-2-1.2
		c-0.8-0.3-1.7-0.4-2.8-0.4h-8.7V825.6z M296.1,866.3v-73.7h31.4c3.2,0,6.2,0.4,8.9,1.2c2.7,0.8,5.1,2.1,7,4c2,1.9,3.5,4.4,4.6,7.6
		c1.1,3.2,1.6,7.2,1.6,12c0,3-0.3,5.7-0.8,7.9s-1.2,4.2-2.1,5.7c-0.9,1.6-2,2.9-3.2,3.9c-1.2,1.1-2.5,2-3.9,2.8l12.8,28.6H333
		l-10.3-25.4c-0.6,0-1.2,0-1.8,0c-0.6,0-1.2,0-1.8,0c-0.6,0-1.2,0-1.8,0c-0.6,0-1.2,0-1.8,0v25.4H296.1z M679.9,721.7h7.6
		c1.3,0,2.3-0.3,2.9-0.9c0.6-0.6,0.9-1.6,0.9-3.1c0-1.3-0.2-2.3-0.6-3.1c-0.4-0.8-1-1.4-1.9-1.7c-0.9-0.4-2-0.5-3.4-0.5
		c-1.3,0-2.3,0.3-3.1,0.8s-1.4,1.5-1.8,2.8C680.1,717.3,679.9,719.2,679.9,721.7z M686.3,753.5c-6.1,0-11-0.8-14.7-2.3
		s-6.4-4.2-8.1-8.2c-1.7-3.9-2.5-9.5-2.5-16.6c0-7.3,0.8-13,2.3-17s4.1-6.8,7.6-8.4c3.5-1.6,8.4-2.4,14.5-2.4
		c5.7,0,10.2,0.5,13.5,1.6s5.7,3,7.1,5.7c1.4,2.7,2.1,6.6,2.1,11.7c0,3.9-0.8,7-2.3,9.2s-3.7,3.8-6.4,4.7c-2.8,0.9-6.1,1.4-9.8,1.4
		h-9.5c0.2,1.6,0.6,2.9,1.2,3.8c0.6,1,1.7,1.6,3.3,2s3.9,0.6,7,0.6h14.6v11.2c-2.3,0.7-5.1,1.3-8.3,2
		C694.7,753.2,690.8,753.5,686.3,753.5z M628.8,738.2c1.3,0,2.5-0.2,3.5-0.6c1-0.4,1.8-0.9,2.3-1.3v-21.6c-0.6-0.3-1.4-0.7-2.4-1.1
		c-1-0.4-2-0.6-2.9-0.6c-1.8,0-3.2,0.3-4.3,0.9c-1.1,0.6-1.9,1.8-2.3,3.7c-0.5,1.9-0.7,4.7-0.7,8.4c0,3.6,0.2,6.3,0.6,8.1
		c0.4,1.8,1.2,2.9,2.2,3.4C625.8,738,627.1,738.2,628.8,738.2z M621.7,753.6c-4,0-7.5-0.8-10.3-2.5s-5-4.5-6.5-8.4
		s-2.2-9.2-2.2-15.8s0.6-12,1.7-16.1c1.2-4.1,3.2-7.2,6.1-9.2c2.9-2,7-3,12.2-3c2.1,0,4.2,0.2,6.3,0.6c2.1,0.4,4,0.9,5.6,1.5v-23.4
		h19.2V753h-16.3l-3-4.9c-1.3,1.1-2.6,2.1-4,2.9c-1.4,0.8-2.8,1.5-4.3,1.9C624.9,753.4,623.4,753.6,621.7,753.6z M549,753.6
		c-1.9,0-3.8-0.1-5.8-0.2c-1.9-0.1-3.8-0.3-5.6-0.5s-3.5-0.5-5.1-0.9s-3-0.9-4.3-1.4v-11.2H553c0.9,0,1.5-0.1,1.9-0.2
		c0.4-0.2,0.7-0.4,0.8-0.7s0.2-0.6,0.2-1V736c0-0.7-0.2-1.2-0.6-1.5c-0.4-0.4-1.4-0.5-3-0.5h-8.9c-3,0-5.7-0.5-8.2-1.5
		s-4.5-2.6-6-4.9c-1.5-2.2-2.2-5.3-2.2-9v-3.3c0-3.4,0.7-6.4,2-8.8c1.3-2.4,3.7-4.3,7-5.6c3.4-1.3,8.1-1.9,14.2-1.9
		c2.4,0,4.9,0.1,7.4,0.4c2.5,0.3,4.8,0.7,7,1.1c2.1,0.5,3.8,1,5,1.5v11.2h-23.5c-1,0-1.7,0.1-2.2,0.4c-0.5,0.3-0.7,0.8-0.7,1.5v1.3
		c0,0.5,0.1,0.9,0.3,1.2s0.6,0.5,1.2,0.6c0.6,0.1,1.4,0.2,2.4,0.2h9.2c5.8,0,9.9,1.3,12.3,4c2.3,2.6,3.5,6.2,3.5,10.7v5.5
		c0,3.6-0.9,6.4-2.6,8.6c-1.7,2.2-4.3,3.8-7.7,4.7C558.6,753.1,554.2,753.6,549,753.6z M496,740.5c0.3,0,0.7,0,1.1-0.1
		s0.8-0.1,1.2-0.2c0.4-0.1,0.8-0.2,1.1-0.3c0.4-0.1,0.7-0.2,0.9-0.3c0.3-0.1,0.5-0.2,0.7-0.3v-9.6l-4.1,0.6
		c-1.9,0.3-3.3,0.7-4.2,1.4c-1,0.7-1.4,1.8-1.4,3.2v2c0,0.9,0.2,1.6,0.5,2.1c0.4,0.6,0.9,1,1.6,1.2C494.2,740.4,495,740.5,496,740.5
		z M485.9,753.6c-4.1,0-7.4-1.2-10-3.7c-2.5-2.4-3.8-5.8-3.8-9.9v-5.5c0-4,1.5-7.3,4.4-9.9c2.9-2.6,7.5-4,13.9-4h10.7V719
		c0-1.3-0.2-2.4-0.7-3.1c-0.5-0.8-1.4-1.3-2.8-1.6s-3.7-0.4-6.7-0.4h-15.6v-11c2.8-1.1,6-2.1,9.6-2.8s8-1.1,13.2-1.1
		c4.5,0,8.4,0.5,11.8,1.5c3.3,1,5.9,2.9,7.7,5.6c1.8,2.7,2.7,6.5,2.7,11.6V753H505l-3-5.4c-0.7,0.7-1.5,1.3-2.4,2
		c-1,0.7-2.1,1.3-3.4,1.9c-1.3,0.6-2.8,1.1-4.6,1.5C490,753.4,488,753.6,485.9,753.6z M382.6,753v-53.5h16.1l3.2,5.2
		c2.1-1.7,4.4-3.1,6.8-4.3s5.6-1.8,9.7-1.8c3.3,0,6,0.7,8.2,2c2.1,1.4,3.8,3.1,4.9,5.2c1.4-1.1,3-2.1,4.8-3.3
		c1.8-1.1,3.7-2.1,5.8-2.8c2.1-0.8,4.2-1.1,6.3-1.1c4.6,0,8.1,0.8,10.6,2.4c2.5,1.6,4.2,4,5.1,7c0.9,3.1,1.4,6.8,1.4,11.2V753h-19.2
		v-31.9c0-1.4-0.2-2.4-0.7-3.2c-0.5-0.7-1.1-1.2-1.8-1.5c-0.8-0.3-1.7-0.4-2.7-0.4c-1.3,0-2.6,0.3-4,0.9s-2.4,1.3-3.3,2.2
		c0,0.4,0,0.8,0,1.2s0,0.8,0,1.2V753h-19.2v-31.9c0-1.4-0.2-2.4-0.7-3.2c-0.5-0.7-1.1-1.2-1.8-1.5c-0.8-0.3-1.7-0.4-2.7-0.4
		c-0.9,0-1.8,0.1-2.7,0.4c-0.9,0.3-1.8,0.6-2.5,1.1c-0.8,0.5-1.4,1-2,1.6v34L382.6,753L382.6,753z M347,721.7h7.6
		c1.3,0,2.3-0.3,2.9-0.9c0.6-0.6,0.9-1.6,0.9-3.1c0-1.3-0.2-2.3-0.6-3.1s-1-1.4-1.9-1.7c-0.9-0.4-2-0.5-3.4-0.5
		c-1.3,0-2.3,0.3-3.1,0.8c-0.8,0.5-1.4,1.5-1.8,2.8S347,719.2,347,721.7z M353.5,753.5c-6.1,0-11-0.8-14.7-2.3s-6.4-4.2-8.1-8.2
		c-1.7-3.9-2.5-9.5-2.5-16.6c0-7.3,0.8-13,2.3-17s4.1-6.8,7.6-8.4c3.5-1.6,8.4-2.4,14.5-2.4c5.7,0,10.2,0.5,13.5,1.6s5.7,3,7.1,5.7
		s2.1,6.6,2.1,11.7c0,3.9-0.8,7-2.3,9.2s-3.7,3.8-6.4,4.7c-2.8,0.9-6.1,1.4-9.8,1.4h-9.5c0.2,1.6,0.6,2.9,1.2,3.8
		c0.6,1,1.7,1.6,3.3,2c1.6,0.4,3.9,0.6,7,0.6h14.6v11.2c-2.3,0.7-5.1,1.3-8.3,2C361.8,753.2,358,753.5,353.5,753.5z M311.7,753
		c-4.6,0-8.2-0.6-11-1.8c-2.7-1.2-4.7-3.3-5.9-6.3c-1.2-2.9-1.7-7-1.5-12.1l0.6-18.1h-8.2v-12.3l9-3l2.4-15h15.3v15h10.8v15.3h-10.8
		v18c0,0.9,0.1,1.6,0.2,2.2c0.1,0.6,0.3,1.2,0.6,1.6c0.3,0.4,0.7,0.8,1.1,1c0.5,0.2,1,0.4,1.6,0.4l6.8,0.7V753H311.7z M259.3,753.6
		c-1.9,0-3.8-0.1-5.8-0.2c-1.9-0.1-3.8-0.3-5.6-0.5s-3.5-0.5-5.1-0.9s-3-0.9-4.3-1.4v-11.2h24.8c0.9,0,1.5-0.1,1.9-0.2
		c0.4-0.2,0.7-0.4,0.8-0.7c0.1-0.3,0.2-0.6,0.2-1V736c0-0.7-0.2-1.2-0.6-1.5c-0.4-0.4-1.4-0.5-3-0.5h-8.9c-3,0-5.7-0.5-8.2-1.5
		s-4.5-2.6-6-4.9c-1.5-2.2-2.2-5.3-2.2-9v-3.3c0-3.4,0.7-6.4,2-8.8c1.3-2.4,3.7-4.3,7-5.6c3.4-1.3,8.1-1.9,14.2-1.9
		c2.4,0,4.9,0.1,7.4,0.4c2.5,0.3,4.8,0.7,7,1.1c2.1,0.5,3.8,1,5,1.5v11.2h-23.5c-1,0-1.7,0.1-2.2,0.4c-0.5,0.3-0.7,0.8-0.7,1.5v1.3
		c0,0.5,0.1,0.9,0.3,1.2s0.6,0.5,1.2,0.6c0.6,0.1,1.4,0.2,2.4,0.2h9.2c5.8,0,9.9,1.3,12.3,4c2.3,2.6,3.5,6.2,3.5,10.7v5.5
		c0,3.6-0.9,6.4-2.6,8.6c-1.7,2.2-4.3,3.8-7.7,4.7C268.9,753.1,264.5,753.6,259.3,753.6z M211.2,753v-53.5h19.2V753H211.2z
		 M213.4,692.8c-1.6,0-2.4-0.8-2.4-2.3v-11c0-1.7,0.8-2.5,2.4-2.5h15.1c0.7,0,1.3,0.2,1.6,0.7c0.4,0.5,0.5,1.1,0.5,1.8v11
		c0,1.5-0.7,2.3-2.2,2.3H213.4z M176.2,753.6c-2.2,0-4.3-0.1-6.4-0.2c-2.1-0.1-4.1-0.3-6.2-0.6c-2-0.3-4-0.6-5.8-0.9
		c-1.9-0.3-3.6-0.7-5.4-1.2v-15.3c2.2,0.2,4.7,0.4,7.3,0.5s5.3,0.2,7.9,0.3c2.7,0.1,5.2,0.1,7.5,0.1c2.2,0,4-0.2,5.5-0.5
		s2.5-0.9,3.3-1.6c0.7-0.7,1.1-1.7,1.1-3V730c0-1.5-0.5-2.5-1.5-3.3c-1-0.7-2.2-1.1-3.6-1.1h-5.3c-7.7,0-13.5-1.7-17.5-5.1
		c-4-3.4-6-9-6-17v-3.3c0-7.3,2.2-12.7,6.5-16.3c4.4-3.6,10.6-5.4,18.8-5.4c3.1,0,6,0.1,8.8,0.4c2.7,0.3,5.3,0.7,7.7,1.1
		c2.4,0.4,4.6,0.9,6.5,1.3v15.3c-3-0.3-6.5-0.5-10.3-0.6c-3.8-0.2-7.3-0.2-10.4-0.2c-1.9,0-3.5,0.1-5,0.4c-1.5,0.3-2.6,0.8-3.4,1.6
		c-0.8,0.8-1.2,2-1.2,3.5v1c0,1.7,0.5,2.9,1.6,3.8c1.1,0.9,2.7,1.3,4.9,1.3h6.5c4.6,0,8.5,0.9,11.6,2.6c3.1,1.8,5.4,4.1,6.9,7.1
		c1.6,3,2.3,6.4,2.3,10.3v3.3c0,6.3-1.1,11.1-3.3,14.4c-2.2,3.3-5.3,5.5-9.3,6.7C186.6,753,181.8,753.6,176.2,753.6z M656.3,244
		c0-15,23.2-18.3,23.2,1C679.5,258.9,656.3,258.6,656.3,244z"/>
</g>
</svg>
