<?xml version="1.0" encoding="utf-8"?>
<!-- Generator: Adobe Illustrator 24.0.2, SVG Export Plug-In . SVG Version: 6.00 Build 0)  -->
<svg version="1.1" id="Capa_1" xmlns="http://www.w3.org/2000/svg" xmlns:xlink="http://www.w3.org/1999/xlink" x="0px" y="0px"
	 viewBox="0 0 859.3 866.4" style="enable-background:new 0 0 859.3 866.4;" xml:space="preserve">
<style type="text/css">
	.st0{fill-rule:evenodd;clip-rule:evenodd;fill:#333333;}
</style>
<g>
	<path class="st0" d="M265.9,165.3H86.7c-3.9,0-8.1-2.1-8.1-5.8v-135c0-2.7,3.1-5.8,5.8-5.8h183.9c2.7,0,5.8,3.1,5.8,5.8v132.7
		C274.1,162.6,271.4,165.3,265.9,165.3 M155.4,172.3h41.9c0.1,4.6,1.8,10.1,3.1,14.4c1.5,5.2,2.7,9.7,3.9,14.7h-55.9
		C149.1,192.2,154.6,182,155.4,172.3z M118.1,209.5h116.4v1.2H118.1V209.5z M82,26.8v105.9c0,3.6,3.4,4.7,7,4.7h174.6
		c3.6,0,7-1.1,7-4.7V26.8c0-2.7-0.8-3.5-3.5-3.5H85.5C82.9,23.3,82,24.1,82,26.8z M89,30.3h174.6v98.9H89V30.3z M285.7,123.4
		c0,2.7,0.8,3.5,3.5,3.5h335.5v38.4c0,3.8,2.3,4.4,5.8,4.7c2.6-4.5,1.2-38.8,1.2-46.6c0-2.7-0.8-3.5-3.5-3.5h-339
		C286.5,119.9,285.7,120.7,285.7,123.4z M58.8,18.6v53.5c0,5.1,3.6,4.3,7,3.5l-0.1-53.6c0-9.5,1.1-8.5,4.7-13.9c7.4,0,14.7,0,22.1,0
		c8.6,0,14.9,1.6,18.6-3.5c-2-7.5-9.3-4.7-31.4-4.7C66.9,0,58.8,6,58.8,18.6z M165.8,150.2c0,18.2,20.9,14.7,20.9,2.3
		C186.8,137.7,165.8,139.9,165.8,150.2z M172.8,152.5c1.7-6.3,5.6-4.8,7,1.2c-1.4,0.8-1.2,1.2-3.5,1.2
		C173,154.8,174.2,154.3,172.8,152.5z M158.9,442.1c0-20.3,26.7-21,26.7,0C185.6,457.4,158.9,456.5,158.9,442.1z M782.8,615.5h-169
		c-4.1,0-8.9-3.1-8.9-6.7V484.3c0-5.2,2.6-7.8,7.8-7.8h173.4c5.2,0,7.8,2.6,7.8,7.8v122.3C793.9,613.2,789.4,615.5,782.8,615.5z
		 M680.5,622.2h38.9c1.7,7.2,6.5,22,6.7,28.9h-53.4C676.1,644,677.1,629.3,680.5,622.2z M643.8,657.7H755v1.1H643.8V657.7z
		 M609.4,483.2c0,17.9-1.6,94.1,1.1,105.6h177.9c2.2-9.3,2.2-99.6,0-108.9c-54.8,0-115.5,0.8-170.1-0.1
		C613.5,479.7,609.4,478.7,609.4,483.2z M616,486.5h166.7v95.6H616V486.5z M588.2,472.1v54.5c0,2.6,0.8,3.3,3.3,3.3
		c5.4,0,3.3-12.6,3.3-23.3c0-48-6.9-41.1,41.1-41.1c2.2-9.7-3.8-6.7-32.2-6.7C595.8,458.8,588.2,464.3,588.2,472.1z M697.2,613.3
		c5.7,0,12.2-1,11.6-9.8c-0.9-12.3-17-11.2-18.9-0.8C689,606.8,693.1,613.3,697.2,613.3z M699.4,601c3.2,2.4,2.1-0.2,2.2,5.6h-4.4
		C697.3,600.9,696.2,603.4,699.4,601z M228.5,590.6c0,3.7,1.1,4.8,4.8,4.8h158c4.3,0,4.7-2.3,6.4-4.8c-1.7-2.5-2.1-4.8-6.4-4.8h-158
		C229.6,585.8,228.5,586.9,228.5,590.6z M308.2,616.1h98.9c5.2,0,6-3.2,6.4-8c-6.6-3.7-92.4-1.6-106.9-1.6
		C298.3,606.5,301.9,616.1,308.2,616.1z M172.6,611.3c0,3.7,1.1,4.8,4.8,4.8h44.7c6.8,0,6.8-9.6,0-9.6h-44.7
		C173.7,606.5,172.6,607.6,172.6,611.3z M415.1,590.6c1.7,2.5,2.1,4.8,6.4,4.8h43.1c6.8,0,6.8-9.6,0-9.6h-43.1
		C417.5,585.8,416.5,588,415.1,590.6z M257.2,611.3c4.6,6.9,5.6,4.8,25.5,4.8c6.8,0,6.8-9.6,0-9.6
		C265.4,606.5,261,604.3,257.2,611.3z M387.5,285.9v8.4H273.6v31.6h113.9c0,13.9-4.7,10.5,26,10.5v20.4H273.6V430h312.2v-73.1H445.8
		v-20.4h23.9c3.1,0,2.1-3.3,2.1-10.5h113.9v-31.6H471.8c0-7.3,1-10.5-2.1-10.5h-80.1C388,283.7,387.5,284.2,387.5,285.9z
		 M284.1,304.8h103.3v9.8H284.1V304.8z M471.8,304.8h103.3v9.8H471.8V304.8z M398.7,295h61.9v30.2h-61.9V295z M424.7,336.5h9.8v20.4
		h-9.8V336.5z M284.1,367.4h291.1v51.3H284.1V367.4z M368.5,207.1l7.6,7.9c4.1-2.9,9.8-10.3,21.5-16.1c4.2-2.1,8.1-4,13-5.3
		c26.1-7.1,47.1,1.8,66.9,16.4c2.3,1.7,3.6,3.4,5.7,4.8l7.9-7.6c-2.5-1.8-4.2-3.5-6.4-5.2c-28.2-22.6-66.8-30.1-98.6-9
		c-2.2,1.5-3.9,2.8-6.1,4.4L368.5,207.1z M341.1,408.9h52.7v-29.5c0-1.6-0.5-2.1-2.1-2.1h-50.6V408.9z M351.6,388.5h30.9v9.8h-30.9
		V388.5z M465.5,379.4v29.5h52.7v-31.6h-50.6C466,377.3,465.5,377.7,465.5,379.4z M476.8,388.5h30.9v9.8h-30.9V388.5z M403.7,408.9
		h52v-31.6h-52V408.9z M414.2,388.5h30.9v9.8h-30.9V388.5z M384.7,217.7c1.8,2.7,4.4,5.9,7,7.7c10.2-6.8,19.3-14.8,35.9-14.8
		c17.2,0,27.9,6.6,40.1,14.8c2.7-1.8,5.2-5,7-7.7c-2.3-3.1-15.4-10.1-19.8-11.9c-22.8-9.3-41.3-7.3-62,5.3
		C391,212.3,385.7,216.2,384.7,217.7z M294,393.4c0,8.4,6.7,15.5,17.6,15.5c8.1,0,14.1-6.9,14.1-16.9c0-12.6-17.1-19.8-26.9-10
		C296.6,384.1,294,389.5,294,393.4z M309.4,398.3c-4.7,0-7-9.8,0.7-9.8C316.8,388.5,316.7,398.3,309.4,398.3z M429.7,273.9
		c4.1,0,8.4-2.1,10.7-4.1c9.3-8.4,5.5-27.5-11.4-27.5C409.6,242.3,408.5,273.9,429.7,273.9z M424.7,258.4c0-7.8,9.8-6.6,9.8-0.7
		C434.6,264.9,424.7,263.9,424.7,258.4z M400.1,233.8l6.9,7.2c6-4.1,10.4-10,22-10c11.2,0,16.4,5.3,23.2,9.8l7.2-6.9
		c-4.3-6.3-17.8-13.5-28.3-13.5h-5.6C416,220.5,403.9,228.1,400.1,233.8z M554.1,379.4c0,10.8-1.7,9.1,9.1,9.1c3,0,2.1-2.7,2.1-9.1
		c0-3-2.7-2.1-9.1-2.1C554.6,377.3,554.1,377.7,554.1,379.4z M554.1,408.9h11.2v-10.5h-11.2V408.9z M533.7,388.5h10.5v-11.2h-10.5
		V388.5z M408.6,315.4h9.1c1.6,0,2.1-0.5,2.1-2.1v-8.4h-11.2V315.4z M439.5,313.3c0,1.6,0.5,2.1,2.1,2.1h9.1v-10.5h-11.2V313.3z
		 M533.7,408.9h10.5v-10.5h-10.5V408.9z M551.6,523.3c0-2.7-0.8-3.5-3.5-3.5H212.6v-38.4c0-3.8-2.3-4.4-5.8-4.7
		c-2.6,4.5-1.2,38.8-1.2,46.6c0,2.7,0.8,3.5,3.5,3.5h339C550.8,526.7,551.6,525.9,551.6,523.3z M712.3,246.2v112.4h-38.4
		c-3.8,0-4.4,2.3-4.7,5.8c4.5,2.6,38.8,1.2,46.6,1.2c2.7,0,3.5-0.8,3.5-3.5V246.7c22.9-1.6,25.1-39.9,2-41.8
		c0-19.8,1.7-104.2-1.2-116.4c-12.7-3-416-1.2-439-1.2V24.5c0-6.9-7-12.8-10.5-12.8H83.2c-10,0-12.8,10.6-12.8,20.9v119.9
		c0,7.5,2.4,14.6,6.9,17.5c6.8,4.4,60.7,2.3,71.1,2.3c-1.7,7.4-6.9,23.5-7,29.1c-9.8,0-20.8-1-30.3,1.2c0,5.8-1.9,15.1,3.5,15.1
		c20.3,0,114.5,1.7,126.9-1.2c0-19.6,2.5-15.1-30.3-15.1c-0.8-9.7-6.2-19.9-7-29.1c13.2,0,26.4,0,39.6,0c44.4,0,37.3,2.7,37.2-61.7
		c0-5.3-2.1-16.3,3.5-16.3h428.6v110.6C691.6,205.3,688.5,241.4,712.3,246.2z M175.2,420l0-0.2V306.1h38.4c3.8,0,4.4-2.3,4.7-5.8
		c-4.5-2.6-38.8-1.2-46.6-1.2c-2.7,0-3.5,0.8-3.5,3.5v117.2c0,0.1,0,0.3,0,0.4c-9.1,1.9-16,10.1-16,19.6c0,10.2,6.2,19.8,16.7,20
		v85.6c0,2.6,0.8,3.3,3.3,3.3h426v60c0,7.9,7.2,13.3,15.6,13.3h58.9c-0.2,9.6-5.9,19.8-6.7,28.9c-30.9,0-28.9-2.7-28.9,11.1
		c0,2.6,1.8,4.4,4.4,4.4c19.3,0,108.3,1.6,120.1-1.1c4.2-18.2-0.8-14.5-27.8-14.5l-7.8-28.9c8.8,0,59.4,1.3,65.5-1.2
		c5.4-2.2,9-6.5,9-14.3V483.2c0-8.9-8.4-14.5-18.9-14.5H617.1c-10.7,0-18.9,4.9-18.9,15.6v57.8H175.6v-82.3
		C199.4,457.9,197.4,422.9,175.2,420z M542.2,866.9c-1.9,0-3.8-0.1-5.8-0.2c-1.9-0.1-3.8-0.3-5.6-0.5c-1.8-0.2-3.5-0.5-5.1-0.9
		c-1.6-0.4-3-0.9-4.3-1.4v-11.2h24.8c0.9,0,1.5-0.1,1.9-0.2c0.4-0.2,0.7-0.4,0.8-0.7c0.1-0.3,0.2-0.6,0.2-1v-1.3
		c0-0.7-0.2-1.2-0.6-1.5c-0.4-0.4-1.4-0.5-3-0.5h-8.9c-3,0-5.7-0.5-8.2-1.5c-2.5-1-4.5-2.6-6-4.9c-1.5-2.2-2.2-5.3-2.2-9v-3.3
		c0-3.4,0.7-6.4,2-8.8c1.3-2.4,3.7-4.3,7-5.6c3.4-1.3,8.1-1.9,14.2-1.9c2.4,0,4.9,0.1,7.4,0.4c2.5,0.3,4.8,0.7,7,1.1
		c2.1,0.5,3.8,1,5,1.5v11.2h-23.5c-1,0-1.7,0.1-2.2,0.4c-0.5,0.3-0.7,0.8-0.7,1.5v1.3c0,0.5,0.1,0.9,0.3,1.2
		c0.2,0.3,0.6,0.5,1.2,0.6c0.6,0.1,1.4,0.2,2.4,0.2h9.2c5.8,0,9.9,1.3,12.3,4c2.3,2.6,3.5,6.2,3.5,10.7v5.5c0,3.6-0.9,6.4-2.6,8.6
		c-1.7,2.2-4.3,3.8-7.7,4.7C551.7,866.4,547.4,866.9,542.2,866.9z M486.4,835h7.6c1.3,0,2.3-0.3,2.9-0.9c0.6-0.6,0.9-1.6,0.9-3.1
		c0-1.3-0.2-2.3-0.6-3.1c-0.4-0.8-1-1.4-1.9-1.7c-0.9-0.4-2-0.5-3.4-0.5c-1.3,0-2.3,0.3-3.1,0.8c-0.8,0.5-1.4,1.5-1.8,2.8
		C486.6,830.6,486.4,832.5,486.4,835z M492.9,866.8c-6.1,0-11-0.8-14.7-2.3c-3.7-1.5-6.4-4.2-8.1-8.2c-1.7-3.9-2.5-9.5-2.5-16.6
		c0-7.3,0.8-13,2.3-17c1.5-4,4.1-6.8,7.6-8.4c3.5-1.6,8.4-2.4,14.5-2.4c5.7,0,10.2,0.5,13.5,1.6c3.3,1.1,5.7,3,7.1,5.7
		c1.4,2.7,2.1,6.6,2.1,11.7c0,3.9-0.8,7-2.3,9.2c-1.5,2.2-3.7,3.8-6.4,4.7c-2.8,0.9-6.1,1.4-9.8,1.4h-9.5c0.2,1.6,0.6,2.9,1.2,3.8
		c0.6,1,1.7,1.6,3.3,2c1.6,0.4,3.9,0.6,7,0.6h14.6v11.2c-2.3,0.7-5.1,1.3-8.3,2C501.2,866.5,497.4,866.8,492.9,866.8z M435.3,851.5
		c1.3,0,2.5-0.2,3.5-0.6c1-0.4,1.8-0.9,2.3-1.3v-21.6c-0.6-0.3-1.4-0.7-2.4-1.1c-1-0.4-2-0.6-2.9-0.6c-1.8,0-3.2,0.3-4.3,0.9
		c-1.1,0.6-1.9,1.8-2.3,3.7c-0.5,1.9-0.7,4.7-0.7,8.4c0,3.6,0.2,6.3,0.6,8.1c0.4,1.8,1.2,2.9,2.2,3.4
		C432.3,851.3,433.7,851.5,435.3,851.5z M428.3,866.9c-4,0-7.5-0.8-10.3-2.5c-2.8-1.7-5-4.5-6.5-8.4c-1.5-3.9-2.2-9.2-2.2-15.8
		c0-6.6,0.6-12,1.7-16.1c1.2-4.1,3.2-7.2,6.1-9.2c2.9-2,7-3,12.2-3c2.1,0,4.2,0.2,6.3,0.6c2.1,0.4,4,0.9,5.6,1.5v-23.4h19.2v75.7
		h-16.3l-3-4.9c-1.3,1.1-2.6,2.1-4,2.9s-2.8,1.5-4.3,1.9C431.5,866.7,429.9,866.9,428.3,866.9z M375,835h7.6c1.3,0,2.3-0.3,2.9-0.9
		c0.6-0.6,0.9-1.6,0.9-3.1c0-1.3-0.2-2.3-0.6-3.1c-0.4-0.8-1-1.4-1.9-1.7c-0.9-0.4-2-0.5-3.4-0.5c-1.3,0-2.3,0.3-3.1,0.8
		c-0.8,0.5-1.4,1.5-1.8,2.8C375.2,830.6,375,832.5,375,835z M381.4,866.8c-6.1,0-11-0.8-14.7-2.3c-3.7-1.5-6.4-4.2-8.1-8.2
		c-1.7-3.9-2.5-9.5-2.5-16.6c0-7.3,0.8-13,2.3-17c1.5-4,4.1-6.8,7.6-8.4c3.5-1.6,8.4-2.4,14.5-2.4c5.7,0,10.2,0.5,13.5,1.6
		c3.3,1.1,5.7,3,7.1,5.7c1.4,2.7,2.1,6.6,2.1,11.7c0,3.9-0.8,7-2.3,9.2c-1.5,2.2-3.7,3.8-6.4,4.7c-2.8,0.9-6.1,1.4-9.8,1.4h-9.5
		c0.2,1.6,0.6,2.9,1.2,3.8c0.6,1,1.7,1.6,3.3,2c1.6,0.4,3.9,0.6,7,0.6h14.6v11.2c-2.3,0.7-5.1,1.3-8.3,2
		C389.8,866.5,385.9,866.8,381.4,866.8z M315.4,825.6h8.7c1.1,0,2-0.1,2.8-0.4c0.8-0.3,1.5-0.8,2-1.4c0.6-0.7,1-1.5,1.2-2.5
		c0.3-1,0.4-2.3,0.4-3.7c0-1.5-0.1-2.7-0.4-3.7c-0.3-1-0.7-1.8-1.2-2.3c-0.6-0.6-1.2-1-2-1.2c-0.8-0.3-1.7-0.4-2.8-0.4h-8.7V825.6z
		 M296.1,866.3v-73.7h31.4c3.2,0,6.2,0.4,8.9,1.2c2.7,0.8,5.1,2.1,7,4c2,1.9,3.5,4.4,4.6,7.6c1.1,3.2,1.6,7.2,1.6,12
		c0,3-0.3,5.7-0.8,7.9c-0.5,2.2-1.2,4.2-2.1,5.7c-0.9,1.6-2,2.9-3.2,3.9c-1.2,1.1-2.5,2-3.9,2.8l12.8,28.6H333l-10.3-25.4
		c-0.6,0-1.2,0-1.8,0c-0.6,0-1.2,0-1.8,0c-0.6,0-1.2,0-1.8,0c-0.6,0-1.2,0-1.8,0v25.4H296.1z M679.9,721.7h7.6
		c1.3,0,2.3-0.3,2.9-0.9c0.6-0.6,0.9-1.6,0.9-3.1c0-1.3-0.2-2.3-0.6-3.1c-0.4-0.8-1-1.4-1.9-1.7c-0.9-0.4-2-0.5-3.4-0.5
		c-1.3,0-2.3,0.3-3.1,0.8c-0.8,0.5-1.4,1.5-1.8,2.8C680.1,717.3,679.9,719.2,679.9,721.7z M686.3,753.5c-6.1,0-11-0.8-14.7-2.3
		c-3.7-1.5-6.4-4.2-8.1-8.2c-1.7-3.9-2.5-9.5-2.5-16.6c0-7.3,0.8-13,2.3-17c1.5-4,4.1-6.8,7.6-8.4c3.5-1.6,8.4-2.4,14.5-2.4
		c5.7,0,10.2,0.5,13.5,1.6c3.3,1.1,5.7,3,7.1,5.7c1.4,2.7,2.1,6.6,2.1,11.7c0,3.9-0.8,7-2.3,9.2c-1.5,2.2-3.7,3.8-6.4,4.7
		c-2.8,0.9-6.1,1.4-9.8,1.4h-9.5c0.2,1.6,0.6,2.9,1.2,3.8c0.6,1,1.7,1.6,3.3,2c1.6,0.4,3.9,0.6,7,0.6h14.6v11.2
		c-2.3,0.7-5.1,1.3-8.3,2C694.7,753.2,690.8,753.5,686.3,753.5z M628.8,738.2c1.3,0,2.5-0.2,3.5-0.6c1-0.4,1.8-0.9,2.3-1.3v-21.6
		c-0.6-0.3-1.4-0.7-2.4-1.1c-1-0.4-2-0.6-2.9-0.6c-1.8,0-3.2,0.3-4.3,0.9c-1.1,0.6-1.9,1.8-2.3,3.7c-0.5,1.9-0.7,4.7-0.7,8.4
		c0,3.6,0.2,6.3,0.6,8.1c0.4,1.8,1.2,2.9,2.2,3.4C625.8,738,627.1,738.2,628.8,738.2z M621.7,753.6c-4,0-7.5-0.8-10.3-2.5
		c-2.8-1.7-5-4.5-6.5-8.4c-1.5-3.9-2.2-9.2-2.2-15.8c0-6.6,0.6-12,1.7-16.1c1.2-4.1,3.2-7.2,6.1-9.2c2.9-2,7-3,12.2-3
		c2.1,0,4.2,0.2,6.3,0.6c2.1,0.4,4,0.9,5.6,1.5v-23.4h19.2V753h-16.3l-3-4.9c-1.3,1.1-2.6,2.1-4,2.9c-1.4,0.8-2.8,1.5-4.3,1.9
		C624.9,753.4,623.4,753.6,621.7,753.6z M549,753.6c-1.9,0-3.8-0.1-5.8-0.2c-1.9-0.1-3.8-0.3-5.6-0.5c-1.8-0.2-3.5-0.5-5.1-0.9
		c-1.6-0.4-3-0.9-4.3-1.4v-11.2h24.8c0.9,0,1.5-0.1,1.9-0.2c0.4-0.2,0.7-0.4,0.8-0.7c0.1-0.3,0.2-0.6,0.2-1V736
		c0-0.7-0.2-1.2-0.6-1.5c-0.4-0.4-1.4-0.5-3-0.5h-8.9c-3,0-5.7-0.5-8.2-1.5c-2.5-1-4.5-2.6-6-4.9c-1.5-2.2-2.2-5.3-2.2-9v-3.3
		c0-3.4,0.7-6.4,2-8.8c1.3-2.4,3.7-4.3,7-5.6c3.4-1.3,8.1-1.9,14.2-1.9c2.4,0,4.9,0.1,7.4,0.4c2.5,0.3,4.8,0.7,7,1.1
		c2.1,0.5,3.8,1,5,1.5v11.2h-23.5c-1,0-1.7,0.1-2.2,0.4c-0.5,0.3-0.7,0.8-0.7,1.5v1.3c0,0.5,0.1,0.9,0.3,1.2s0.6,0.5,1.2,0.6
		c0.6,0.1,1.4,0.2,2.4,0.2h9.2c5.8,0,9.9,1.3,12.3,4c2.3,2.6,3.5,6.2,3.5,10.7v5.5c0,3.6-0.9,6.4-2.6,8.6c-1.7,2.2-4.3,3.8-7.7,4.7
		C558.6,753.1,554.2,753.6,549,753.6z M496,740.5c0.3,0,0.7,0,1.1-0.1c0.4-0.1,0.8-0.1,1.2-0.2c0.4-0.1,0.8-0.2,1.1-0.3
		c0.4-0.1,0.7-0.2,0.9-0.3c0.3-0.1,0.5-0.2,0.7-0.3v-9.6l-4.1,0.6c-1.9,0.3-3.3,0.7-4.2,1.4c-1,0.7-1.4,1.8-1.4,3.2v2
		c0,0.9,0.2,1.6,0.5,2.1c0.4,0.6,0.9,1,1.6,1.2C494.2,740.4,495,740.5,496,740.5z M485.9,753.6c-4.1,0-7.4-1.2-10-3.7
		c-2.5-2.4-3.8-5.8-3.8-9.9v-5.5c0-4,1.5-7.3,4.4-9.9c2.9-2.6,7.5-4,13.9-4h10.7V719c0-1.3-0.2-2.4-0.7-3.1
		c-0.5-0.8-1.4-1.3-2.8-1.6c-1.4-0.3-3.7-0.4-6.7-0.4h-15.6v-11c2.8-1.1,6-2.1,9.6-2.8c3.6-0.7,8-1.1,13.2-1.1
		c4.5,0,8.4,0.5,11.8,1.5c3.3,1,5.9,2.9,7.7,5.6c1.8,2.7,2.7,6.5,2.7,11.6V753h-15.3l-3-5.4c-0.7,0.7-1.5,1.3-2.4,2
		c-1,0.7-2.1,1.3-3.4,1.9c-1.3,0.6-2.8,1.1-4.6,1.5C490,753.4,488,753.6,485.9,753.6z M382.6,753v-53.5h16.1l3.2,5.2
		c2.1-1.7,4.4-3.1,6.8-4.3c2.4-1.2,5.6-1.8,9.7-1.8c3.3,0,6,0.7,8.2,2c2.1,1.4,3.8,3.1,4.9,5.2c1.4-1.1,3-2.1,4.8-3.3
		c1.8-1.1,3.7-2.1,5.8-2.8c2.1-0.8,4.2-1.1,6.3-1.1c4.6,0,8.1,0.8,10.6,2.4c2.5,1.6,4.2,4,5.1,7c0.9,3.1,1.4,6.8,1.4,11.2V753h-19.2
		v-31.9c0-1.4-0.2-2.4-0.7-3.2c-0.5-0.7-1.1-1.2-1.8-1.5c-0.8-0.3-1.7-0.4-2.7-0.4c-1.3,0-2.6,0.3-4,0.9s-2.4,1.3-3.3,2.2
		c0,0.4,0,0.8,0,1.2c0,0.4,0,0.8,0,1.2V753h-19.2v-31.9c0-1.4-0.2-2.4-0.7-3.2c-0.5-0.7-1.1-1.2-1.8-1.5c-0.8-0.3-1.7-0.4-2.7-0.4
		c-0.9,0-1.8,0.1-2.7,0.4c-0.9,0.3-1.8,0.6-2.5,1.1c-0.8,0.5-1.4,1-2,1.6v34H382.6z M347,721.7h7.6c1.3,0,2.3-0.3,2.9-0.9
		c0.6-0.6,0.9-1.6,0.9-3.1c0-1.3-0.2-2.3-0.6-3.1c-0.4-0.8-1-1.4-1.9-1.7c-0.9-0.4-2-0.5-3.4-0.5c-1.3,0-2.3,0.3-3.1,0.8
		c-0.8,0.5-1.4,1.5-1.8,2.8C347.2,717.3,347,719.2,347,721.7z M353.5,753.5c-6.1,0-11-0.8-14.7-2.3c-3.7-1.5-6.4-4.2-8.1-8.2
		c-1.7-3.9-2.5-9.5-2.5-16.6c0-7.3,0.8-13,2.3-17c1.5-4,4.1-6.8,7.6-8.4c3.5-1.6,8.4-2.4,14.5-2.4c5.7,0,10.2,0.5,13.5,1.6
		c3.3,1.1,5.7,3,7.1,5.7c1.4,2.7,2.1,6.6,2.1,11.7c0,3.9-0.8,7-2.3,9.2c-1.5,2.2-3.7,3.8-6.4,4.7c-2.8,0.9-6.1,1.4-9.8,1.4h-9.5
		c0.2,1.6,0.6,2.9,1.2,3.8c0.6,1,1.7,1.6,3.3,2c1.6,0.4,3.9,0.6,7,0.6h14.6v11.2c-2.3,0.7-5.1,1.3-8.3,2
		C361.8,753.2,358,753.5,353.5,753.5z M311.7,753c-4.6,0-8.2-0.6-11-1.8c-2.7-1.2-4.7-3.3-5.9-6.3c-1.2-2.9-1.7-7-1.5-12.1l0.6-18.1
		h-8.2v-12.3l9-3l2.4-15h15.3v15h10.8v15.3h-10.8v18c0,0.9,0.1,1.6,0.2,2.2c0.1,0.6,0.3,1.2,0.6,1.6c0.3,0.4,0.7,0.8,1.1,1
		c0.5,0.2,1,0.4,1.6,0.4l6.8,0.7V753H311.7z M259.3,753.6c-1.9,0-3.8-0.1-5.8-0.2c-1.9-0.1-3.8-0.3-5.6-0.5
		c-1.8-0.2-3.5-0.5-5.1-0.9c-1.6-0.4-3-0.9-4.3-1.4v-11.2h24.8c0.9,0,1.5-0.1,1.9-0.2c0.4-0.2,0.7-0.4,0.8-0.7
		c0.1-0.3,0.2-0.6,0.2-1V736c0-0.7-0.2-1.2-0.6-1.5c-0.4-0.4-1.4-0.5-3-0.5h-8.9c-3,0-5.7-0.5-8.2-1.5c-2.5-1-4.5-2.6-6-4.9
		c-1.5-2.2-2.2-5.3-2.2-9v-3.3c0-3.4,0.7-6.4,2-8.8c1.3-2.4,3.7-4.3,7-5.6c3.4-1.3,8.1-1.9,14.2-1.9c2.4,0,4.9,0.1,7.4,0.4
		c2.5,0.3,4.8,0.7,7,1.1c2.1,0.5,3.8,1,5,1.5v11.2h-23.5c-1,0-1.7,0.1-2.2,0.4c-0.5,0.3-0.7,0.8-0.7,1.5v1.3c0,0.5,0.1,0.9,0.3,1.2
		c0.2,0.3,0.6,0.5,1.2,0.6c0.6,0.1,1.4,0.2,2.4,0.2h9.2c5.8,0,9.9,1.3,12.3,4c2.3,2.6,3.5,6.2,3.5,10.7v5.5c0,3.6-0.9,6.4-2.6,8.6
		c-1.7,2.2-4.3,3.8-7.7,4.7C268.9,753.1,264.5,753.6,259.3,753.6z M211.2,753v-53.5h19.2V753H211.2z M213.4,692.8
		c-1.6,0-2.4-0.8-2.4-2.3v-11c0-1.7,0.8-2.5,2.4-2.5h15.1c0.7,0,1.3,0.2,1.6,0.7c0.4,0.5,0.5,1.1,0.5,1.8v11c0,1.5-0.7,2.3-2.2,2.3
		H213.4z M176.2,753.6c-2.2,0-4.3-0.1-6.4-0.2c-2.1-0.1-4.1-0.3-6.2-0.6c-2-0.3-4-0.6-5.8-0.9c-1.9-0.3-3.6-0.7-5.4-1.2v-15.3
		c2.2,0.2,4.7,0.4,7.3,0.5c2.6,0.1,5.3,0.2,7.9,0.3c2.7,0.1,5.2,0.1,7.5,0.1c2.2,0,4-0.2,5.5-0.5c1.5-0.3,2.5-0.9,3.3-1.6
		c0.7-0.7,1.1-1.7,1.1-3v-1.2c0-1.5-0.5-2.5-1.5-3.3c-1-0.7-2.2-1.1-3.6-1.1h-5.3c-7.7,0-13.5-1.7-17.5-5.1c-4-3.4-6-9-6-17v-3.3
		c0-7.3,2.2-12.7,6.5-16.3c4.4-3.6,10.6-5.4,18.8-5.4c3.1,0,6,0.1,8.8,0.4c2.7,0.3,5.3,0.7,7.7,1.1c2.4,0.4,4.6,0.9,6.5,1.3v15.3
		c-3-0.3-6.5-0.5-10.3-0.6c-3.8-0.2-7.3-0.2-10.4-0.2c-1.9,0-3.5,0.1-5,0.4c-1.5,0.3-2.6,0.8-3.4,1.6c-0.8,0.8-1.2,2-1.2,3.5v1
		c0,1.7,0.5,2.9,1.6,3.8c1.1,0.9,2.7,1.3,4.9,1.3h6.5c4.6,0,8.5,0.9,11.6,2.6c3.1,1.8,5.4,4.1,6.9,7.1c1.6,3,2.3,6.4,2.3,10.3v3.3
		c0,6.3-1.1,11.1-3.3,14.4c-2.2,3.3-5.3,5.5-9.3,6.7C186.6,753,181.8,753.6,176.2,753.6z M702.6,225.8c0-18.1,27.9-22,27.9,1.2
		C730.6,243.7,702.6,243.4,702.6,225.8z"/>
</g>
</svg>
