<?xml version="1.0" encoding="utf-8"?>
<!-- Generator: Adobe Illustrator 24.0.2, SVG Export Plug-In . SVG Version: 6.00 Build 0)  -->
<svg version="1.1" id="Capa_1" xmlns="http://www.w3.org/2000/svg" xmlns:xlink="http://www.w3.org/1999/xlink" x="0px" y="0px"
	 viewBox="0 0 859.3 866.4" style="enable-background:new 0 0 859.3 866.4;" xml:space="preserve">
<style type="text/css">
	.st0{fill:#333333;}
	.st1{fill-rule:evenodd;clip-rule:evenodd;fill:#333333;}
</style>
<g>
	<path class="st0" d="M335.9,167.9c3.9,0,7.1,3.2,7.1,7.1c0,3.9-3.2,7.1-7.1,7.1h-226c-8,0-15.3,3.3-20.5,8.6
		c-5.3,5.3-8.6,12.5-8.6,20.5v166.3c0,3.9-3.2,7.1-7.1,7.1c-3.9,0-7.1-3.2-7.1-7.1V211.2c0-11.9,4.9-22.7,12.7-30.6
		c7.8-7.8,18.7-12.7,30.6-12.7H335.9z M66.6,497.3c0-3.9,3.2-7.1,7.1-7.1c3.9,0,7.1,3.2,7.1,7.1v46.5c0,8,3.3,15.3,8.6,20.5
		c5.3,5.3,12.5,8.6,20.5,8.6h231.6c6.9,0,13.2,2.8,17.8,7.4c4.6,4.6,7.4,10.9,7.4,17.8c0,6.9-2.8,13.2-7.4,17.8
		c-4.6,4.6-10.9,7.4-17.8,7.4H299c-1.6,0-3,0.6-4.1,1.7c-1,1-1.7,2.5-1.7,4.1c0,1.6,0.6,3,1.7,4.1c1,1,2.5,1.7,4.1,1.7H558
		c1.6,0,3-0.6,4.1-1.7c1-1,1.7-2.5,1.7-4.1c0-1.6-0.6-3-1.7-4.1c-1-1-2.5-1.7-4.1-1.7h-48.4c-6.9,0-13.2-2.8-17.8-7.4
		c-4.6-4.6-7.4-10.9-7.4-17.8c0-6.9,2.8-13.2,7.4-17.8c4.6-4.6,10.9-7.4,17.8-7.4h239.8c8,0,15.3-3.3,20.5-8.6
		c5.3-5.3,8.6-12.5,8.6-20.5V211.2c0-8-3.3-15.3-8.6-20.5c-5.3-5.3-12.5-8.6-20.5-8.6h-27.3c-3.9,0-7.1-3.2-7.1-7.1
		c0-3.9,3.2-7.1,7.1-7.1h27.3c11.9,0,22.7,4.9,30.6,12.7c7.8,7.8,12.7,18.7,12.7,30.6v332.6c0,11.9-4.9,22.7-12.7,30.6
		c-7.8,7.8-18.7,12.7-30.6,12.7H509.6c-3,0-5.8,1.2-7.8,3.2c-2,2-3.2,4.7-3.2,7.8c0,3,1.2,5.8,3.2,7.8c2,2,4.7,3.2,7.8,3.2H558
		c5.5,0,10.5,2.2,14.1,5.8c3.6,3.6,5.8,8.6,5.8,14.1c0,5.5-2.2,10.5-5.8,14.1c-3.6,3.6-8.6,5.8-14.1,5.8H299
		c-5.5,0-10.5-2.2-14.1-5.8c-3.6-3.6-5.8-8.6-5.8-14.1c0-5.5,2.2-10.5,5.8-14.1c3.6-3.6,8.6-5.8,14.1-5.8h42.6c3,0,5.8-1.2,7.8-3.2
		c2-2,3.2-4.7,3.2-7.8c0-3-1.2-5.8-3.2-7.8c-2-2-4.7-3.2-7.8-3.2H109.9c-11.9,0-22.7-4.9-30.6-12.7c-7.8-7.8-12.7-18.7-12.7-30.6
		V497.3z M66.6,419.2c0-3.9,3.2-7.1,7.1-7.1c3.9,0,7.1,3.2,7.1,7.1v26.9c0,3.9-3.2,7.1-7.1,7.1c-3.9,0-7.1-3.2-7.1-7.1V419.2z"/>
	<path class="st0" d="M634,455.6H225.3c-4.3,0-8.2,1.8-11.1,4.6c-2.8,2.8-4.6,6.8-4.6,11.1c0,4.3,1.8,8.2,4.6,11.1
		c2.8,2.8,6.8,4.6,11.1,4.6H634c4.3,0,8.2-1.8,11.1-4.6c2.8-2.8,4.6-6.8,4.6-11.1c0-4.3-1.8-8.2-4.6-11.1
		C642.3,457.4,638.3,455.6,634,455.6 M225.3,441.4H634c8.2,0,15.7,3.4,21.1,8.8c5.4,5.4,8.8,12.9,8.8,21.1c0,8.2-3.4,15.7-8.8,21.1
		c-5.4,5.4-12.9,8.8-21.1,8.8H225.3c-8.2,0-15.7-3.4-21.1-8.8c-5.4-5.4-8.8-12.9-8.8-21.1c0-8.2,3.4-15.7,8.8-21.1
		C209.6,444.8,217.1,441.4,225.3,441.4z"/>
	<path class="st0" d="M356.6,464.2c3.9,0,7.1,3.2,7.1,7.1s-3.2,7.1-7.1,7.1H226c-3.9,0-7.1-3.2-7.1-7.1s3.2-7.1,7.1-7.1H356.6z"/>
	<path class="st0" d="M785.6,529.2c3.9,0,7.1,3.2,7.1,7.1c0,3.9-3.2,7.1-7.1,7.1H73.7c-3.9,0-7.1-3.2-7.1-7.1c0-3.9,3.2-7.1,7.1-7.1
		H785.6z"/>
	<path class="st1" d="M170.2,278.3c0.4,5,1.9,9.2,2.3,14.6c-4.2,3.3-8.4,5-12.3,8.1c-12.8-5.6-38.9-22.2-40.2-8
		c-0.3,3.6,0.3,8.9,1,12.5c5.9,32.7,46.3,57.8,82.2,38.9c4.7-2.5,8.4-5.8,12.6-9.1c3.4,4,55.8,28.3,67.1,34.4l56.3,29.2
		c10.4,6.6,20.8,7.8,31.7,3.5c21.7-8.6,26-39.3,3.2-53.4c-7.4-4.5-58.6-21.6-70.4-26.4c-7.2-2.9-16.5-7.2-23.8-9.3l-47-17.1
		c-0.8-11.3-1.7-18.9-7.2-28.8c-19.4-34.7-68-37.3-88.5-13.3C128.1,264.9,156,272,170.2,278.3 M352.4,370.2c-3,6.8-3.5,8.1,3.7,11.3
		c2.3,1,6.4-1.2,7.4-3.5C367.5,368.8,355,364.4,352.4,370.2z M190.9,255.5c38.1,16.8,24.3,48.5,29.9,50.9
		c18.1,8,36.8,13.5,53.8,20.8l21.8,7.8c3.9,1.2,7.4,3.5,11.2,4.7c13.9,4.4,28.8,10.8,43.3,16.3c7,2.7,15.4,3.9,20,9.7
		c11,13.8-1.6,33.9-19.9,24.5c-9.5-4.9-20.5-9.5-28.5-14.4l-28.3-14.5c-13.4-7.8-42.5-21.2-57.7-29.4c-4.9-2.7-10-4.9-14.2-7.2
		c-17.2-9.5-8.5,3.9-34.2,12.3c-15.8,5.2-37.2-2.4-47.3-16.3c-3.6-5-5.7-9.9-6.7-15.5c5.1,2.3,10.3,4.5,15.4,6.8
		c7,3.1,9.5,5.5,14.4,2.5c26.8-16,23-11.9,18-40c-1.1-6.2-3.7-6.1-10.9-9.2c-5.4-2.4-10.8-4.8-16.2-7.1
		C163.5,252.6,177.9,249.8,190.9,255.5z"/>
	<path class="st1" d="M368.7,35.4v230.4c0,7.2,5.7,15.9,10.1,19.2c6.3,4.7,12.9,6.5,23.6,6.5h264.1c9,0,16.8-1.4,21.9-5.6
		c4.5-3.7,10-10.7,10-18.4V115.1c0-10.5-10.8-23.9-24.8-23.9h-17.7c0-20.5,3.4-38.3-11.2-49c-8.6-6.3-13.9-5-27.8-5h-99.2
		c-21.8,0-23.7,3.4-35.8-5c-6.1-4.2-30.1-23.4-35.1-23.4h-54.1C381.5,8.8,368.7,20.9,368.7,35.4 M398,277.3
		c-8.6,0-15.9-5.6-15.9-14.2V36.3c0-6.9,5.9-14.2,12.4-14.2H444c1.7,0,33.8,23.7,36,25.2c6.9,4.8,15.6,3.2,27.8,3.2l123.1,0.1
		c15.7,1.8,12.5,22.3,12.5,38.9c0,4-6.3,2.7-10.6,2.7c-27.5-0.2-196.7-0.9-202.6,0.3c-5.9,1.3-12.6,6.8-15.1,11.5
		c-4.6,8.5-3.8,11.4-3.8,23.7l0,135.6C411.3,272,407.2,277.3,398,277.3z M421.9,277.3c2.9-12.4,2.7-1.6,2.7-20.4l0-117
		c0-9.9-4-35.4,11.5-35.4h236.6c7.1,0,12.4,5.3,12.4,12.4V264c0,12.2-8.8,13.3-21.3,13.3L421.9,277.3z"/>
	<path class="st1" d="M572.5,238.3c8.7,2.3,9.5,15,20.5,0.1c3.1-4.1,14.5-16.5,14.9-20.6c0.6-5.8-5-8.3-10.6-13.2
		c10.1-0.8,10.5-0.8,15.9-4.4c0-10.3-1.4-18.9-2.5-27.7c-1.7-13.1-8.4-8.7-18.8-7.8c4.2-6.3,9.5-8.7,7.8-14.8
		c-0.8-2.9-23.6-20.9-26.7-21.4c-6.8-1.2-7.5,6.8-13.1,10.5c0-19.3-6.9-16.8-21.9-14.8c-24.8,3.3-18.9,0.9-18.9,19.2
		c-2.6-1.4-3.1-1.8-5.3-3.5c-1.8-1.4-3.2-2.9-5.6-3.4c-5.3-1.1-7,2.5-10.4,7c-16.8,22.1-19.7,19.2-6.9,29.9c1.3,1.1,2.2,1.9,3.3,2.9
		c-18.4,1.5-18,3.2-15.5,21.7c3.5,25.5,2.3,19.1,19.9,19.1c-9.5,14.2-13.7,11,5.7,26.2c2.7,2.2,10.9,9.4,14,9.8c6,0.7,9-8.2,13-11.1
		c0,19.9,5,17.5,21.5,15.3c5.1-0.7,13.6-0.8,16.6-2.9C574.8,250.8,572.5,245.7,572.5,238.3 M532.7,139.1c4.4,0,9.7-0.9,13.3-1.8
		c1.1,4.7,0.6,10.3,3.3,13.6c1.6,2,2.8,2.4,4.9,3c6.2,1.7,8.8,4.3,13.6-1.9c2-2.7,3.3-3.9,4.8-6.7c4,2.7,6.6,5.3,10.6,8
		c-1.8,6.7-7.1,6.1-7.1,14.2c0,0,4.3,12.4,9.7,12.4c5.4,0,6.5-0.9,11.5-0.9c0.1,3.9,1.5,9.5,1.8,13.3c-5.5,0-10.7-0.6-13.6,2.4
		c-1.7,1.7-4.1,10.2-4.1,11.8c0,6.3,6.3,6.3,9.7,11.5c-1,3.6-5.5,7-8,10.6c-12.9-8.6-7.9-10.7-19.5-4.4c-14.6,7.8,2.1,17.1-9.6,18.8
		c-9,1.3-9.3,1.7-10-2.7c-0.7-4.4-0.3-8.1-3.8-10.4c-1.6-1.1-9.5-3-12.1-3c-3.2,0-4.7,2.5-6.1,4.5c-1.5,2.1-3.2,4.1-4.5,6.1
		c-3.7-2.5-6.8-5.4-10.6-8c2.9-10.7,12.5-5.2,4.2-20.1c-5.7-10.2-3.1-5.6-18.3-5.6c0-3.7-0.7-11-1.8-13.3c4.1-0.3,11-1,13.7-3.1
		c2.1-1.7,2.4-3,3.2-5.7c2-6.7,3.5-8.8-2.7-13.4c-2-1.5-4.1-2.9-6.2-4.4c1.4-2.1,7.1-9.3,8.9-10.6c2.6,1.7,3.7,2.6,6.1,4.6
		c6.7,5.4,8.6,2.1,13.8-0.7C537.1,152.1,532.7,150.6,532.7,139.1z"/>
	<path class="st1" d="M392.7,69.9c0,5.3,3.6,7.1,8.9,7.1h140.9c8.2,0,12.6-14.2-3.5-14.2H403.3C397.3,62.9,392.7,63.9,392.7,69.9"/>
	<path class="st1" d="M514.9,186.9c0,13.7,0.9,17.2,10.4,26.8c17.3,17.6,51.6,6.1,51.6-24.2c0-24.9-32.4-40.3-52.1-21.9
		C520.6,171.6,514.9,179.1,514.9,186.9 M546.8,209.1c-25.7,0-23.7-35.4-0.9-35.4C569,173.6,568.7,209.1,546.8,209.1z"/>
	<path class="st1" d="M392.7,41.6c0,4.8,2.1,8,7.1,8h46.1c8.5,0,8.5-13.3,0-13.3H398C395.8,36.3,392.7,39.5,392.7,41.6"/>
	<path class="st0" d="M650.5,842.6c1.2,0,2.2-0.1,3-0.3c0.8-0.2,1.4-0.7,1.8-1.5c0.5-0.8,0.8-2,1-3.6c0.2-1.6,0.3-3.8,0.3-6.5
		c0-2.7-0.1-4.9-0.3-6.5c-0.2-1.6-0.5-2.8-1-3.5c-0.5-0.8-1.1-1.3-1.8-1.5c-0.8-0.2-1.8-0.3-3-0.3c-1.2,0-2.2,0.1-3,0.3
		c-0.8,0.2-1.4,0.7-1.8,1.5c-0.5,0.8-0.8,2-1,3.5c-0.2,1.6-0.3,3.7-0.3,6.5c0,2.7,0.1,4.9,0.3,6.5c0.2,1.6,0.5,2.8,1,3.6
		c0.5,0.8,1.1,1.3,1.8,1.5C648.2,842.5,649.2,842.6,650.5,842.6 M650.5,857.6c-4.7,0-8.6-0.5-11.8-1.5c-3.2-1-5.8-2.5-7.7-4.7
		c-1.9-2.1-3.3-4.9-4.2-8.3c-0.8-3.4-1.3-7.5-1.3-12.4c0-5.2,0.4-9.6,1.3-13.1c0.9-3.5,2.3-6.2,4.2-8.3s4.5-3.5,7.7-4.3
		c3.2-0.8,7.1-1.3,11.7-1.3c4.7,0,8.6,0.5,11.8,1.4c3.2,0.9,5.8,2.4,7.7,4.4c1.9,2,3.3,4.8,4.2,8.3c0.9,3.5,1.3,7.8,1.3,12.9
		c0,5-0.4,9.3-1.2,12.7c-0.8,3.4-2.2,6.2-4.1,8.3c-1.9,2.1-4.5,3.6-7.7,4.5C659.3,857.2,655.3,857.6,650.5,857.6z M584.9,857.1
		l-16.1-52.3h19.4l8,35l8.4-35h19.2l-17.1,52.3H584.9z M544.9,857.1v-52.3h18.8v52.3H544.9z M547.1,798.2c-1.6,0-2.3-0.7-2.3-2.2
		v-10.8c0-1.6,0.8-2.4,2.3-2.4h14.8c0.7,0,1.2,0.2,1.6,0.7c0.4,0.5,0.5,1,0.5,1.7v10.8c0,1.5-0.7,2.2-2.1,2.2H547.1z M527.4,857.1
		c-4.5,0-8-0.6-10.7-1.8c-2.7-1.2-4.6-3.2-5.7-6.1c-1.1-2.9-1.6-6.8-1.5-11.8l0.6-17.7H502v-12l8.8-2.9l2.3-14.7h15v14.7h10.6v15
		h-10.6v17.6c0,0.8,0.1,1.6,0.2,2.2c0.1,0.6,0.3,1.1,0.6,1.6c0.3,0.4,0.7,0.7,1.1,1c0.5,0.2,1,0.4,1.6,0.4l6.7,0.7v14H527.4z
		 M447.5,857.1v-52.3h15.7l3.1,5c1.6-1.5,3.8-2.8,6.5-4.1c2.7-1.2,5.5-1.8,8.3-1.8c4.5,0,8,0.9,10.3,2.6c2.3,1.7,3.9,4,4.8,7
		c0.8,2.9,1.3,6.2,1.3,9.9v33.8h-18.8v-31.3c0-1.4-0.2-2.4-0.7-3.1c-0.5-0.7-1.1-1.2-1.8-1.5c-0.7-0.3-1.6-0.4-2.7-0.4
		c-0.8,0-1.7,0.1-2.6,0.4c-0.9,0.3-1.7,0.6-2.5,1.1c-0.7,0.5-1.4,1-2,1.6v33.3H447.5z M412.7,826.4h7.5c1.3,0,2.2-0.3,2.8-0.9
		c0.6-0.6,0.9-1.6,0.9-3c0-1.2-0.2-2.2-0.6-3c-0.4-0.8-1-1.3-1.8-1.7c-0.8-0.4-1.9-0.5-3.3-0.5c-1.2,0-2.2,0.3-3.1,0.8
		c-0.8,0.5-1.4,1.4-1.8,2.8C412.9,822.2,412.7,824,412.7,826.4z M419,857.6c-6,0-10.7-0.7-14.4-2.2c-3.6-1.5-6.3-4.2-7.9-8
		c-1.7-3.9-2.5-9.3-2.5-16.3c0-7.2,0.7-12.7,2.2-16.7c1.5-3.9,4-6.7,7.4-8.2c3.5-1.6,8.2-2.3,14.2-2.3c5.6,0,10,0.5,13.2,1.6
		c3.2,1,5.6,2.9,6.9,5.6c1.4,2.7,2.1,6.5,2.1,11.4c0,3.8-0.7,6.8-2.2,9c-1.5,2.2-3.6,3.7-6.3,4.6c-2.7,0.9-5.9,1.4-9.6,1.4h-9.3
		c0.2,1.6,0.6,2.8,1.2,3.7c0.6,0.9,1.7,1.6,3.2,2c1.6,0.4,3.9,0.6,6.9,0.6h14.3v11c-2.3,0.6-5,1.3-8.1,1.9
		C427.2,857.3,423.4,857.6,419,857.6z M353.6,857.1l-16.1-52.3h19.4l8,35l8.4-35h19.2l-17.1,52.3H353.6z M307.1,826.4h7.5
		c1.3,0,2.2-0.3,2.8-0.9c0.6-0.6,0.9-1.6,0.9-3c0-1.2-0.2-2.2-0.6-3c-0.4-0.8-1-1.3-1.8-1.7c-0.8-0.4-1.9-0.5-3.3-0.5
		c-1.2,0-2.2,0.3-3.1,0.8c-0.8,0.5-1.4,1.4-1.8,2.8C307.3,822.2,307.1,824,307.1,826.4z M313.4,857.6c-6,0-10.7-0.7-14.4-2.2
		c-3.6-1.5-6.3-4.2-7.9-8c-1.7-3.9-2.5-9.3-2.5-16.3c0-7.2,0.7-12.7,2.2-16.7c1.5-3.9,4-6.7,7.4-8.2c3.5-1.6,8.2-2.3,14.2-2.3
		c5.6,0,10,0.5,13.2,1.6c3.2,1,5.6,2.9,6.9,5.6c1.4,2.7,2.1,6.5,2.1,11.4c0,3.8-0.7,6.8-2.2,9c-1.5,2.2-3.6,3.7-6.3,4.6
		c-2.7,0.9-5.9,1.4-9.6,1.4h-9.3c0.2,1.6,0.6,2.8,1.2,3.7c0.6,0.9,1.7,1.6,3.2,2c1.6,0.4,3.9,0.6,6.9,0.6h14.3v11
		c-2.3,0.6-5,1.3-8.1,1.9C321.6,857.3,317.8,857.6,313.4,857.6z M248.3,857.1v-52.3h14.7l4.2,7.3c1.6-2.1,3.3-4,5.4-5.6
		c2-1.6,4.5-2.4,7.4-2.4c0.5,0,1.1,0,1.8,0.1c0.7,0.1,1.4,0.2,2,0.4v19.3c-1.1-0.1-2.2-0.2-3.3-0.3c-1.1-0.1-2.2-0.1-3.1-0.1
		c-1.6,0-3,0.1-4.3,0.4c-1.3,0.3-2.4,0.7-3.4,1.3c-1,0.6-1.9,1.4-2.6,2.3v29.6H248.3z M206.7,820.4h10.9c1.3,0,2.3-0.4,3.1-1.1
		c0.7-0.7,1.3-1.8,1.6-3.2c0.3-1.4,0.4-3.1,0.4-5.2c0-2-0.2-3.7-0.5-5c-0.4-1.4-0.9-2.4-1.6-3.1c-0.7-0.7-1.7-1-2.9-1h-10.9V820.4z
		 M187.9,857.1V785h31.7c2.5,0,5,0.3,7.6,0.8c2.6,0.6,5,1.7,7.1,3.4c2.2,1.7,3.9,4.3,5.2,7.8c1.3,3.5,2,8.1,2,13.8
		c0,5.8-0.6,10.5-1.9,14c-1.3,3.5-3,6.2-5,8c-2.1,1.8-4.3,3-6.7,3.6c-2.4,0.6-4.8,0.9-7.1,0.9c-1.2,0-2.5-0.1-3.8-0.2
		c-1.3-0.1-2.6-0.3-3.9-0.5c-1.3-0.2-2.4-0.5-3.5-0.7c-1.1-0.2-2-0.4-2.7-0.5v21.8H187.9z M751.8,731.8c1.2,0,2.2-0.1,3-0.3
		c0.8-0.2,1.4-0.7,1.8-1.5c0.5-0.8,0.8-2,1-3.6c0.2-1.6,0.3-3.8,0.3-6.5c0-2.7-0.1-4.9-0.3-6.5c-0.2-1.6-0.5-2.8-1-3.5
		c-0.5-0.8-1.1-1.3-1.8-1.5c-0.8-0.2-1.8-0.3-3-0.3c-1.2,0-2.2,0.1-3,0.3c-0.8,0.2-1.4,0.7-1.8,1.5c-0.5,0.8-0.8,2-1,3.5
		c-0.2,1.6-0.3,3.7-0.3,6.5c0,2.7,0.1,4.9,0.3,6.5c0.2,1.6,0.5,2.8,1,3.6c0.5,0.8,1.1,1.3,1.8,1.5
		C749.6,731.6,750.6,731.8,751.8,731.8z M751.8,746.7c-4.7,0-8.6-0.5-11.8-1.5c-3.2-1-5.8-2.5-7.7-4.7c-1.9-2.1-3.3-4.9-4.2-8.3
		c-0.8-3.4-1.3-7.5-1.3-12.4c0-5.2,0.4-9.6,1.3-13.1c0.9-3.5,2.3-6.2,4.2-8.3c1.9-2,4.5-3.5,7.7-4.3c3.2-0.8,7.1-1.3,11.7-1.3
		c4.7,0,8.6,0.5,11.8,1.4c3.2,0.9,5.8,2.4,7.7,4.4c1.9,2,3.3,4.8,4.2,8.3c0.9,3.5,1.3,7.8,1.3,12.9c0,5-0.4,9.3-1.2,12.7
		c-0.8,3.4-2.2,6.2-4.1,8.3c-1.9,2.1-4.5,3.6-7.7,4.5C760.6,746.3,756.6,746.7,751.8,746.7z M710.7,746.2c-4.5,0-8-0.6-10.7-1.8
		c-2.7-1.2-4.6-3.2-5.7-6.1c-1.1-2.9-1.6-6.8-1.5-11.8l0.6-17.7h-8.1v-12l8.8-2.9l2.3-14.7h15v14.7H722v15h-10.6v17.6
		c0,0.8,0.1,1.6,0.2,2.2c0.1,0.6,0.3,1.1,0.6,1.6c0.3,0.4,0.7,0.7,1.1,1c0.5,0.2,1,0.4,1.6,0.4l6.7,0.7v14H710.7z M630.8,746.2
		v-52.3h15.7l3.1,5c1.6-1.5,3.8-2.8,6.5-4.1c2.7-1.2,5.5-1.8,8.3-1.8c4.5,0,8,0.9,10.3,2.6c2.3,1.7,3.9,4,4.8,7
		c0.8,2.9,1.3,6.2,1.3,9.9v33.8h-18.8V715c0-1.4-0.2-2.4-0.7-3.1c-0.5-0.7-1.1-1.2-1.8-1.5c-0.7-0.3-1.6-0.4-2.7-0.4
		c-0.8,0-1.7,0.1-2.6,0.4c-0.9,0.3-1.7,0.6-2.5,1.1c-0.7,0.5-1.4,1-2,1.6v33.3H630.8z M596,715.5h7.5c1.3,0,2.2-0.3,2.8-0.9
		c0.6-0.6,0.9-1.6,0.9-3c0-1.2-0.2-2.2-0.6-3s-1-1.3-1.8-1.7c-0.8-0.4-1.9-0.5-3.3-0.5c-1.2,0-2.2,0.3-3.1,0.8
		c-0.8,0.5-1.4,1.4-1.8,2.8C596.1,711.3,596,713.1,596,715.5z M602.3,746.7c-6,0-10.7-0.7-14.4-2.2c-3.6-1.5-6.3-4.2-7.9-8
		c-1.7-3.9-2.5-9.3-2.5-16.3c0-7.2,0.7-12.7,2.2-16.7c1.5-3.9,4-6.7,7.4-8.2c3.5-1.6,8.2-2.3,14.2-2.3c5.6,0,10,0.5,13.2,1.6
		c3.2,1,5.6,2.9,6.9,5.6c1.4,2.7,2.1,6.5,2.1,11.4c0,3.8-0.7,6.8-2.2,9c-1.5,2.2-3.6,3.7-6.3,4.6c-2.7,0.9-5.9,1.4-9.6,1.4h-9.3
		c0.2,1.6,0.6,2.8,1.2,3.7c0.6,0.9,1.7,1.6,3.2,2c1.6,0.4,3.9,0.6,6.9,0.6h14.3v11c-2.3,0.6-5,1.3-8.1,1.9
		C610.4,746.4,606.7,746.7,602.3,746.7z M551.5,746.2v-52.3h18.8v52.3H551.5z M553.6,687.3c-1.6,0-2.3-0.7-2.3-2.2v-10.8
		c0-1.6,0.8-2.4,2.3-2.4h14.8c0.7,0,1.2,0.2,1.6,0.7c0.4,0.5,0.5,1,0.5,1.7V685c0,1.5-0.7,2.2-2.1,2.2H553.6z M462.1,746.2v-52.3
		h15.7l3.1,5c2.1-1.6,4.3-3,6.7-4.2c2.4-1.2,5.5-1.7,9.5-1.7c3.2,0,5.9,0.7,8,2c2.1,1.3,3.7,3,4.8,5.1c1.4-1,2.9-2.1,4.7-3.2
		c1.7-1.1,3.6-2,5.7-2.8c2-0.7,4.1-1.1,6.2-1.1c4.5,0,7.9,0.8,10.3,2.4c2.4,1.6,4.1,3.9,5,6.9c0.9,3,1.4,6.7,1.4,10.9v33h-18.8V715
		c0-1.4-0.2-2.4-0.7-3.1c-0.5-0.7-1.1-1.2-1.8-1.5c-0.7-0.3-1.6-0.4-2.7-0.4c-1.3,0-2.6,0.3-3.9,0.9s-2.4,1.3-3.2,2.1
		c0,0.4,0,0.8,0,1.2c0,0.4,0,0.8,0,1.2v30.9h-18.8V715c0-1.4-0.2-2.4-0.7-3.1c-0.5-0.7-1.1-1.2-1.8-1.5c-0.7-0.3-1.6-0.4-2.7-0.4
		c-0.8,0-1.7,0.1-2.6,0.4c-0.9,0.3-1.7,0.6-2.5,1.1c-0.7,0.5-1.4,1-2,1.6v33.3H462.1z M434.8,746.2v-52.3h18.8v52.3H434.8z
		 M436.9,687.3c-1.6,0-2.3-0.7-2.3-2.2v-10.8c0-1.6,0.8-2.4,2.3-2.4h14.8c0.7,0,1.2,0.2,1.6,0.7c0.4,0.5,0.5,1,0.5,1.7V685
		c0,1.5-0.7,2.2-2.1,2.2H436.9z M376.5,746.2v-52.3h15.7l3.1,5c1.6-1.5,3.8-2.8,6.5-4.1c2.7-1.2,5.5-1.8,8.3-1.8
		c4.5,0,8,0.9,10.3,2.6c2.3,1.7,3.9,4,4.8,7c0.8,2.9,1.3,6.2,1.3,9.9v33.8h-18.8V715c0-1.4-0.2-2.4-0.7-3.1
		c-0.5-0.7-1.1-1.2-1.8-1.5c-0.7-0.3-1.6-0.4-2.7-0.4c-0.8,0-1.7,0.1-2.6,0.4c-0.9,0.3-1.7,0.6-2.5,1.1c-0.7,0.5-1.4,1-2,1.6v33.3
		H376.5z M341.6,715.5h7.5c1.3,0,2.2-0.3,2.8-0.9c0.6-0.6,0.9-1.6,0.9-3c0-1.2-0.2-2.2-0.6-3c-0.4-0.8-1-1.3-1.8-1.7
		c-0.8-0.4-1.9-0.5-3.3-0.5c-1.2,0-2.2,0.3-3.1,0.8c-0.8,0.5-1.4,1.4-1.8,2.8C341.8,711.3,341.6,713.1,341.6,715.5z M348,746.7
		c-6,0-10.7-0.7-14.4-2.2c-3.6-1.5-6.3-4.2-7.9-8c-1.7-3.9-2.5-9.3-2.5-16.3c0-7.2,0.7-12.7,2.2-16.7c1.5-3.9,4-6.7,7.4-8.2
		c3.5-1.6,8.2-2.3,14.2-2.3c5.6,0,10,0.5,13.2,1.6c3.2,1,5.6,2.9,6.9,5.6c1.4,2.7,2.1,6.5,2.1,11.4c0,3.8-0.7,6.8-2.2,9
		c-1.5,2.2-3.6,3.7-6.3,4.6c-2.7,0.9-5.9,1.4-9.6,1.4h-9.3c0.2,1.6,0.6,2.8,1.2,3.7c0.6,0.9,1.7,1.6,3.2,2c1.6,0.4,3.9,0.6,6.9,0.6
		h14.3v11c-2.3,0.6-5,1.3-8.1,1.9C356.1,746.4,352.4,746.7,348,746.7z M307.1,746.2c-4.5,0-8-0.6-10.7-1.8c-2.7-1.2-4.6-3.2-5.7-6.1
		c-1.1-2.9-1.6-6.8-1.5-11.8l0.6-17.7h-8.1v-12l8.8-2.9l2.3-14.7h15v14.7h10.6v15h-10.6v17.6c0,0.8,0.1,1.6,0.2,2.2
		c0.1,0.6,0.3,1.1,0.6,1.6c0.3,0.4,0.7,0.7,1.1,1c0.5,0.2,1,0.4,1.6,0.4l6.7,0.7v14H307.1z M227.2,746.2v-52.3h15.7l3.1,5
		c1.6-1.5,3.8-2.8,6.5-4.1c2.7-1.2,5.5-1.8,8.3-1.8c4.5,0,8,0.9,10.3,2.6c2.3,1.7,3.9,4,4.8,7c0.8,2.9,1.3,6.2,1.3,9.9v33.8h-18.8
		V715c0-1.4-0.2-2.4-0.7-3.1c-0.5-0.7-1.1-1.2-1.8-1.5c-0.7-0.3-1.6-0.4-2.7-0.4c-0.8,0-1.7,0.1-2.6,0.4c-0.9,0.3-1.7,0.6-2.5,1.1
		c-0.7,0.5-1.4,1-2,1.6v33.3H227.2z M195,734c0.3,0,0.7,0,1.1-0.1c0.4-0.1,0.8-0.1,1.2-0.2c0.4-0.1,0.8-0.2,1.1-0.3
		c0.4-0.1,0.7-0.2,0.9-0.3c0.3-0.1,0.5-0.2,0.7-0.3v-9.4l-4,0.6c-1.8,0.3-3.2,0.7-4.1,1.4c-0.9,0.7-1.4,1.7-1.4,3.2v1.9
		c0,0.8,0.2,1.5,0.5,2.1c0.4,0.6,0.9,0.9,1.6,1.2C193.2,733.9,194,734,195,734z M185.1,746.8c-4,0-7.3-1.2-9.8-3.6
		c-2.5-2.4-3.7-5.6-3.7-9.7v-5.3c0-3.9,1.4-7.1,4.3-9.7c2.8-2.6,7.4-3.9,13.6-3.9H200v-1.7c0-1.3-0.2-2.3-0.7-3.1
		c-0.5-0.7-1.4-1.3-2.8-1.6c-1.4-0.3-3.6-0.4-6.6-0.4h-15.2v-10.8c2.7-1.1,5.8-2,9.4-2.7c3.5-0.7,7.8-1.1,13-1.1
		c4.4,0,8.2,0.5,11.5,1.5c3.3,1,5.8,2.8,7.6,5.4c1.8,2.6,2.7,6.4,2.7,11.3v34.7h-15l-2.9-5.2c-0.6,0.6-1.4,1.3-2.4,1.9
		c-0.9,0.6-2.1,1.3-3.3,1.9c-1.3,0.6-2.8,1.1-4.5,1.5C189.1,746.6,187.2,746.8,185.1,746.8z M84.6,746.2l8.5-72.1h17.7l14.9,50.7
		l14.9-50.7H158l8.6,72.1h-18.2l-5.5-46.4l2.7,0.1l-11.4,46.3h-17.7l-11.5-46.3l3-0.1l-5.4,46.4H84.6z"/>
</g>
</svg>
