<?xml version="1.0" encoding="utf-8"?>
<!-- Generator: Adobe Illustrator 24.0.2, SVG Export Plug-In . SVG Version: 6.00 Build 0)  -->
<svg version="1.1" id="Capa_1" xmlns="http://www.w3.org/2000/svg" xmlns:xlink="http://www.w3.org/1999/xlink" x="0px" y="0px"
	 viewBox="0 0 859.3 866.4" style="enable-background:new 0 0 859.3 866.4;" xml:space="preserve">
<style type="text/css">
	.st0{fill:#A7A7A7;}
	.st1{fill-rule:evenodd;clip-rule:evenodd;fill:#A7A7A7;}
</style>
<g>
	<g>
		<path class="st0" d="M353.8,198.6c3.2,0,5.7,2.6,5.7,5.7c0,3.2-2.6,5.7-5.7,5.7H170.9c-6.5,0-12.4,2.7-16.6,7
			c-4.3,4.3-7,10.1-7,16.6v134.6c0,3.2-2.6,5.7-5.7,5.7s-5.7-2.6-5.7-5.7V233.7c0-9.6,4-18.4,10.3-24.8c6.3-6.3,15.1-10.3,24.8-10.3
			H353.8z M135.9,465.1c0-3.2,2.6-5.7,5.7-5.7s5.7,2.6,5.7,5.7v37.6c0,6.5,2.7,12.4,7,16.6c4.3,4.3,10.1,7,16.6,7h187.4
			c5.6,0,10.7,2.3,14.4,6c3.7,3.7,6,8.8,6,14.4c0,5.6-2.3,10.7-6,14.4s-8.8,6-14.4,6h-34.4c-1.3,0-2.4,0.5-3.3,1.4
			c-0.8,0.8-1.4,2-1.4,3.3c0,1.3,0.5,2.4,1.4,3.3c0.8,0.8,2,1.4,3.3,1.4h209.6c1.3,0,2.4-0.5,3.3-1.4c0.8-0.8,1.4-2,1.4-3.3
			c0-1.3-0.5-2.4-1.4-3.3c-0.8-0.8-2-1.4-3.3-1.4h-39.2c-5.6,0-10.7-2.3-14.4-6c-3.7-3.7-6-8.8-6-14.4c0-5.6,2.3-10.7,6-14.4
			c3.7-3.7,8.8-6,14.4-6h194c6.5,0,12.4-2.7,16.6-7c4.3-4.3,7-10.1,7-16.6V233.7c0-6.5-2.7-12.4-7-16.6c-4.3-4.3-10.1-7-16.6-7
			h-22.1c-3.2,0-5.7-2.6-5.7-5.7c0-3.2,2.6-5.7,5.7-5.7h22.1c9.6,0,18.4,4,24.8,10.3c6.3,6.3,10.3,15.1,10.3,24.8v269.1
			c0,9.6-4,18.4-10.3,24.8c-6.3,6.3-15.1,10.3-24.8,10.3h-194c-2.4,0-4.7,1-6.3,2.6c-1.6,1.6-2.6,3.8-2.6,6.3c0,2.4,1,4.7,2.6,6.3
			c1.6,1.6,3.8,2.6,6.3,2.6h39.2c4.5,0,8.5,1.8,11.4,4.7c2.9,2.9,4.7,7,4.7,11.4s-1.8,8.5-4.7,11.4c-2.9,2.9-7,4.7-11.4,4.7H323.9
			c-4.4,0-8.5-1.8-11.4-4.7c-2.9-2.9-4.7-7-4.7-11.4s1.8-8.5,4.7-11.4c2.9-2.9,7-4.7,11.4-4.7h34.5c2.4,0,4.7-1,6.3-2.6
			s2.6-3.8,2.6-6.3c0-2.4-1-4.7-2.6-6.3s-3.8-2.6-6.3-2.6H170.9c-9.6,0-18.4-4-24.8-10.3c-6.3-6.3-10.3-15.1-10.3-24.8
			C135.9,502.8,135.9,465.1,135.9,465.1z M135.9,402c0-3.2,2.6-5.7,5.7-5.7s5.7,2.6,5.7,5.7v21.8c0,3.2-2.6,5.7-5.7,5.7
			s-5.7-2.6-5.7-5.7V402z"/>
		<path class="st0" d="M595,431.4H264.3c-3.5,0-6.6,1.5-9,3.7c-2.3,2.3-3.7,5.5-3.7,9s1.5,6.6,3.7,9c2.3,2.3,5.5,3.7,9,3.7H595
			c3.5,0,6.6-1.5,9-3.7c2.3-2.3,3.7-5.5,3.7-9c0-3.5-1.5-6.6-3.7-9C601.7,432.9,598.5,431.4,595,431.4 M264.3,419.9H595
			c6.6,0,12.7,2.8,17.1,7.1c4.4,4.4,7.1,10.4,7.1,17.1c0,6.6-2.8,12.7-7.1,17.1c-4.4,4.4-10.4,7.1-17.1,7.1H264.3
			c-6.6,0-12.7-2.8-17.1-7.1c-4.4-4.4-7.1-10.4-7.1-17.1c0-6.6,2.8-12.7,7.1-17.1C251.6,422.7,257.7,419.9,264.3,419.9z"/>
		<path class="st0" d="M370.5,438.4c3.2,0,5.7,2.6,5.7,5.7s-2.6,5.7-5.7,5.7H264.9c-3.2,0-5.7-2.6-5.7-5.7s2.6-5.7,5.7-5.7H370.5z"
			/>
		<path class="st0" d="M717.6,491c3.2,0,5.7,2.6,5.7,5.7c0,3.2-2.6,5.7-5.7,5.7h-576c-3.2,0-5.7-2.6-5.7-5.7c0-3.2,2.6-5.7,5.7-5.7
			H717.6z"/>
		<path class="st1" d="M219.7,288c0.3,4,1.5,7.4,1.9,11.8c-3.4,2.7-6.8,4-10,6.6c-10.4-4.5-31.5-18-32.5-6.5
			c-0.2,2.9,0.2,7.2,0.8,10.1c4.8,26.5,37.5,46.8,66.5,31.5c3.8-2,6.8-4.7,10.2-7.4c2.8,3.2,45.1,22.9,54.3,27.8l45.6,23.6
			c8.4,5.3,16.8,6.3,25.6,2.8c17.6-7,21-31.8,2.6-43.2c-6-3.6-47.4-17.5-57-21.4c-5.8-2.3-13.4-5.8-19.3-7.5l-38-13.8
			c-0.6-9.1-1.4-15.3-5.8-23.3c-15.7-28.1-55-30.2-71.6-10.8C185.7,277.1,208.2,282.9,219.7,288 M367.1,362.3
			c-2.4,5.5-2.8,6.6,3,9.1c1.9,0.8,5.2-1,6-2.8C379.4,361.2,369.3,357.6,367.1,362.3z M236.5,269.5c30.8,13.6,19.7,39.2,24.2,41.2
			c14.6,6.5,29.8,10.9,43.5,16.8l17.6,6.3c3.2,1,6,2.8,9.1,3.8c11.2,3.6,23.3,8.7,35,13.2c5.7,2.2,12.5,3.2,16.2,7.8
			c8.9,11.2-1.3,27.4-16.1,19.8c-7.7-4-16.6-7.7-23.1-11.7l-22.9-11.7c-10.8-6.3-34.4-17.2-46.7-23.8c-4-2.2-8.1-4-11.5-5.8
			c-13.9-7.7-6.9,3.2-27.7,10c-12.8,4.2-30.1-1.9-38.3-13.2c-2.9-4-4.6-8-5.4-12.5c4.1,1.9,8.3,3.6,12.5,5.5c5.7,2.5,7.7,4.4,11.7,2
			c21.7-12.9,18.6-9.6,14.6-32.4c-0.9-5-3-4.9-8.8-7.4c-4.4-1.9-8.7-3.9-13.1-5.7C214.3,267.2,226,264.9,236.5,269.5z"/>
		<path class="st1" d="M380.3,91.4v186.4c0,5.8,4.6,12.9,8.2,15.5c5.1,3.8,10.4,5.3,19.1,5.3h213.7c7.3,0,13.6-1.1,17.7-4.5
			c3.6-3,8.1-8.7,8.1-14.9V155.9c0-8.5-8.7-19.3-20.1-19.3h-14.3c0-16.6,2.8-31-9.1-39.6c-7-5.1-11.2-4-22.5-4h-80.3
			c-17.6,0-19.2,2.8-29-4c-4.9-3.4-24.4-18.9-28.4-18.9h-43.8C390.7,69.9,380.3,79.7,380.3,91.4 M404,287.1c-7,0-12.9-4.5-12.9-11.5
			V92.2c0-5.6,4.8-11.5,10-11.5h40.1c1.4,0,27.3,19.2,29.1,20.4c5.6,3.9,12.6,2.6,22.5,2.6l99.6,0.1c12.7,1.5,10.1,18,10.1,31.5
			c0,3.2-5.1,2.2-8.6,2.2c-22.3-0.2-159.1-0.7-163.9,0.2c-4.8,1.1-10.2,5.5-12.2,9.3c-3.7,6.9-3.1,9.2-3.1,19.2v109.7
			C414.8,282.9,411.5,287.1,404,287.1z M423.4,287.1c2.3-10,2.2-1.3,2.2-16.5V176c0-8-3.2-28.6,9.3-28.6h191.4c5.7,0,10,4.3,10,10
			v119c0,9.9-7.1,10.8-17.2,10.8H423.4z"/>
		<path class="st1" d="M545.2,255.6c7,1.9,7.7,12.1,16.6,0.1c2.5-3.3,11.7-13.4,12.1-16.7c0.5-4.7-4-6.7-8.6-10.7
			c8.2-0.6,8.5-0.6,12.9-3.6c0-8.3-1.1-15.3-2-22.4c-1.4-10.6-6.8-7-15.2-6.3c3.4-5.1,7.7-7,6.3-12c-0.6-2.3-19.1-16.9-21.6-17.3
			c-5.5-1-6.1,5.5-10.6,8.5c0-15.6-5.6-13.6-17.7-12c-20.1,2.7-15.3,0.7-15.3,15.5c-2.1-1.1-2.5-1.5-4.3-2.8
			c-1.5-1.1-2.6-2.3-4.5-2.8c-4.3-0.9-5.7,2-8.4,5.7c-13.6,17.9-15.9,15.5-5.6,24.2c1.1,0.9,1.8,1.5,2.7,2.3
			c-14.9,1.2-14.6,2.6-12.5,17.6c2.8,20.6,1.9,15.5,16.1,15.5c-7.7,11.5-11.1,8.9,4.6,21.2c2.2,1.8,8.8,7.6,11.3,7.9
			c4.9,0.6,7.3-6.6,10.5-9c0,16.1,4,14.2,17.4,12.4c4.1-0.6,11-0.6,13.4-2.3C547.1,265.7,545.2,261.6,545.2,255.6 M513,175.3
			c3.6,0,7.8-0.7,10.8-1.5c0.9,3.8,0.5,8.3,2.7,11c1.3,1.6,2.3,1.9,4,2.4c5,1.4,7.1,3.5,11-1.5c1.6-2.2,2.7-3.2,3.9-5.4
			c3.2,2.2,5.3,4.3,8.6,6.5c-1.5,5.4-5.7,4.9-5.7,11.5c0,0,3.5,10,7.8,10s5.3-0.7,9.3-0.7c0.1,3.2,1.2,7.7,1.5,10.8
			c-4.5,0-8.7-0.5-11,1.9c-1.4,1.4-3.3,8.3-3.3,9.5c0,5.1,5.1,5.1,7.8,9.3c-0.8,2.9-4.4,5.7-6.5,8.6c-10.4-7-6.4-8.7-15.8-3.6
			c-11.8,6.3,1.7,13.8-7.8,15.2c-7.3,1.1-7.5,1.4-8.1-2.2c-0.6-3.6-0.2-6.6-3.1-8.4c-1.3-0.9-7.7-2.4-9.8-2.4c-2.6,0-3.8,2-4.9,3.6
			c-1.2,1.7-2.6,3.3-3.6,4.9c-3-2-5.5-4.4-8.6-6.5c2.3-8.7,10.1-4.2,3.4-16.3c-4.6-8.3-2.5-4.5-14.8-4.5c0-3-0.6-8.9-1.5-10.8
			c3.3-0.2,8.9-0.8,11.1-2.5c1.7-1.4,1.9-2.4,2.6-4.6c1.6-5.4,2.8-7.1-2.2-10.8c-1.6-1.2-3.3-2.3-5-3.6c1.1-1.7,5.7-7.5,7.2-8.6
			c2.1,1.4,3,2.1,4.9,3.7c5.4,4.4,7,1.7,11.2-0.6C516.6,185.8,513,184.6,513,175.3z"/>
		<path class="st1" d="M399.8,119.3c0,4.3,2.9,5.7,7.2,5.7h114c6.6,0,10.2-11.5-2.8-11.5H408.3C403.5,113.7,399.8,114.5,399.8,119.3
			"/>
		<path class="st1" d="M498.6,214c0,11.1,0.7,13.9,8.4,21.7c14,14.2,41.7,4.9,41.7-19.6c0-20.1-26.2-32.6-42.2-17.7
			C503.2,201.6,498.6,207.7,498.6,214 M524.4,232c-20.8,0-19.2-28.6-0.7-28.6C542.4,203.2,542.2,232,524.4,232z"/>
		<path class="st1" d="M399.8,96.4c0,3.9,1.7,6.5,5.7,6.5h37.3c6.9,0,6.9-10.8,0-10.8H404C402.3,92.2,399.8,94.7,399.8,96.4"/>
	</g>
	<path class="st0" d="M650.5,842.6c1.2,0,2.2-0.1,3-0.3s1.4-0.7,1.8-1.5c0.5-0.8,0.8-2,1-3.6s0.3-3.8,0.3-6.5s-0.1-4.9-0.3-6.5
		s-0.5-2.8-1-3.5c-0.5-0.8-1.1-1.3-1.8-1.5c-0.8-0.2-1.8-0.3-3-0.3s-2.2,0.1-3,0.3s-1.4,0.7-1.8,1.5c-0.5,0.8-0.8,2-1,3.5
		c-0.2,1.6-0.3,3.7-0.3,6.5c0,2.7,0.1,4.9,0.3,6.5s0.5,2.8,1,3.6s1.1,1.3,1.8,1.5S649.2,842.6,650.5,842.6 M650.5,857.6
		c-4.7,0-8.6-0.5-11.8-1.5s-5.8-2.5-7.7-4.7c-1.9-2.1-3.3-4.9-4.2-8.3c-0.8-3.4-1.3-7.5-1.3-12.4c0-5.2,0.4-9.6,1.3-13.1
		c0.9-3.5,2.3-6.2,4.2-8.3s4.5-3.5,7.7-4.3s7.1-1.3,11.7-1.3c4.7,0,8.6,0.5,11.8,1.4s5.8,2.4,7.7,4.4s3.3,4.8,4.2,8.3
		s1.3,7.8,1.3,12.9c0,5-0.4,9.3-1.2,12.7s-2.2,6.2-4.1,8.3c-1.9,2.1-4.5,3.6-7.7,4.5C659.3,857.2,655.3,857.6,650.5,857.6z
		 M584.9,857.1l-16.1-52.3h19.4l8,35l8.4-35h19.2l-17.1,52.3H584.9z M544.9,857.1v-52.3h18.8v52.3H544.9z M547.1,798.2
		c-1.6,0-2.3-0.7-2.3-2.2v-10.8c0-1.6,0.8-2.4,2.3-2.4h14.8c0.7,0,1.2,0.2,1.6,0.7c0.4,0.5,0.5,1,0.5,1.7V796c0,1.5-0.7,2.2-2.1,2.2
		H547.1z M527.4,857.1c-4.5,0-8-0.6-10.7-1.8s-4.6-3.2-5.7-6.1c-1.1-2.9-1.6-6.8-1.5-11.8l0.6-17.7H502v-12l8.8-2.9l2.3-14.7h15
		v14.7h10.6v15h-10.6v17.6c0,0.8,0.1,1.6,0.2,2.2c0.1,0.6,0.3,1.1,0.6,1.6c0.3,0.4,0.7,0.7,1.1,1c0.5,0.2,1,0.4,1.6,0.4l6.7,0.7v14
		h-10.9V857.1z M447.5,857.1v-52.3h15.7l3.1,5c1.6-1.5,3.8-2.8,6.5-4.1c2.7-1.2,5.5-1.8,8.3-1.8c4.5,0,8,0.9,10.3,2.6
		c2.3,1.7,3.9,4,4.8,7c0.8,2.9,1.3,6.2,1.3,9.9v33.8h-18.8v-31.3c0-1.4-0.2-2.4-0.7-3.1c-0.5-0.7-1.1-1.2-1.8-1.5
		c-0.7-0.3-1.6-0.4-2.7-0.4c-0.8,0-1.7,0.1-2.6,0.4c-0.9,0.3-1.7,0.6-2.5,1.1c-0.7,0.5-1.4,1-2,1.6v33.3h-18.9V857.1z M412.7,826.4
		h7.5c1.3,0,2.2-0.3,2.8-0.9c0.6-0.6,0.9-1.6,0.9-3c0-1.2-0.2-2.2-0.6-3s-1-1.3-1.8-1.7s-1.9-0.5-3.3-0.5c-1.2,0-2.2,0.3-3.1,0.8
		c-0.8,0.5-1.4,1.4-1.8,2.8C412.9,822.2,412.7,824,412.7,826.4z M419,857.6c-6,0-10.7-0.7-14.4-2.2c-3.6-1.5-6.3-4.2-7.9-8
		c-1.7-3.9-2.5-9.3-2.5-16.3c0-7.2,0.7-12.7,2.2-16.7c1.5-3.9,4-6.7,7.4-8.2c3.5-1.6,8.2-2.3,14.2-2.3c5.6,0,10,0.5,13.2,1.6
		c3.2,1,5.6,2.9,6.9,5.6c1.4,2.7,2.1,6.5,2.1,11.4c0,3.8-0.7,6.8-2.2,9s-3.6,3.7-6.3,4.6c-2.7,0.9-5.9,1.4-9.6,1.4h-9.3
		c0.2,1.6,0.6,2.8,1.2,3.7s1.7,1.6,3.2,2c1.6,0.4,3.9,0.6,6.9,0.6h14.3v11c-2.3,0.6-5,1.3-8.1,1.9
		C427.2,857.3,423.4,857.6,419,857.6z M353.6,857.1l-16.1-52.3h19.4l8,35l8.4-35h19.2l-17.1,52.3H353.6z M307.1,826.4h7.5
		c1.3,0,2.2-0.3,2.8-0.9c0.6-0.6,0.9-1.6,0.9-3c0-1.2-0.2-2.2-0.6-3s-1-1.3-1.8-1.7s-1.9-0.5-3.3-0.5c-1.2,0-2.2,0.3-3.1,0.8
		c-0.8,0.5-1.4,1.4-1.8,2.8C307.3,822.2,307.1,824,307.1,826.4z M313.4,857.6c-6,0-10.7-0.7-14.4-2.2c-3.6-1.5-6.3-4.2-7.9-8
		c-1.7-3.9-2.5-9.3-2.5-16.3c0-7.2,0.7-12.7,2.2-16.7c1.5-3.9,4-6.7,7.4-8.2c3.5-1.6,8.2-2.3,14.2-2.3c5.6,0,10,0.5,13.2,1.6
		c3.2,1,5.6,2.9,6.9,5.6c1.4,2.7,2.1,6.5,2.1,11.4c0,3.8-0.7,6.8-2.2,9s-3.6,3.7-6.3,4.6c-2.7,0.9-5.9,1.4-9.6,1.4h-9.3
		c0.2,1.6,0.6,2.8,1.2,3.7s1.7,1.6,3.2,2c1.6,0.4,3.9,0.6,6.9,0.6h14.3v11c-2.3,0.6-5,1.3-8.1,1.9
		C321.6,857.3,317.8,857.6,313.4,857.6z M248.3,857.1v-52.3H263l4.2,7.3c1.6-2.1,3.3-4,5.4-5.6c2-1.6,4.5-2.4,7.4-2.4
		c0.5,0,1.1,0,1.8,0.1c0.7,0.1,1.4,0.2,2,0.4v19.3c-1.1-0.1-2.2-0.2-3.3-0.3c-1.1-0.1-2.2-0.1-3.1-0.1c-1.6,0-3,0.1-4.3,0.4
		c-1.3,0.3-2.4,0.7-3.4,1.3s-1.9,1.4-2.6,2.3v29.6H248.3z M206.7,820.4h10.9c1.3,0,2.3-0.4,3.1-1.1c0.7-0.7,1.3-1.8,1.6-3.2
		s0.4-3.1,0.4-5.2c0-2-0.2-3.7-0.5-5c-0.4-1.4-0.9-2.4-1.6-3.1c-0.7-0.7-1.7-1-2.9-1h-10.9v18.6H206.7z M187.9,857.1V785h31.7
		c2.5,0,5,0.3,7.6,0.8c2.6,0.6,5,1.7,7.1,3.4c2.2,1.7,3.9,4.3,5.2,7.8s2,8.1,2,13.8c0,5.8-0.6,10.5-1.9,14c-1.3,3.5-3,6.2-5,8
		c-2.1,1.8-4.3,3-6.7,3.6s-4.8,0.9-7.1,0.9c-1.2,0-2.5-0.1-3.8-0.2c-1.3-0.1-2.6-0.3-3.9-0.5c-1.3-0.2-2.4-0.5-3.5-0.7
		s-2-0.4-2.7-0.5v21.8L187.9,857.1L187.9,857.1z M751.8,731.8c1.2,0,2.2-0.1,3-0.3s1.4-0.7,1.8-1.5c0.5-0.8,0.8-2,1-3.6
		s0.3-3.8,0.3-6.5s-0.1-4.9-0.3-6.5s-0.5-2.8-1-3.5c-0.5-0.8-1.1-1.3-1.8-1.5c-0.8-0.2-1.8-0.3-3-0.3s-2.2,0.1-3,0.3
		s-1.4,0.7-1.8,1.5c-0.5,0.8-0.8,2-1,3.5c-0.2,1.6-0.3,3.7-0.3,6.5c0,2.7,0.1,4.9,0.3,6.5s0.5,2.8,1,3.6s1.1,1.3,1.8,1.5
		C749.6,731.6,750.6,731.8,751.8,731.8z M751.8,746.7c-4.7,0-8.6-0.5-11.8-1.5s-5.8-2.5-7.7-4.7c-1.9-2.1-3.3-4.9-4.2-8.3
		c-0.8-3.4-1.3-7.5-1.3-12.4c0-5.2,0.4-9.6,1.3-13.1c0.9-3.5,2.3-6.2,4.2-8.3c1.9-2,4.5-3.5,7.7-4.3s7.1-1.3,11.7-1.3
		c4.7,0,8.6,0.5,11.8,1.4s5.8,2.4,7.7,4.4s3.3,4.8,4.2,8.3s1.3,7.8,1.3,12.9c0,5-0.4,9.3-1.2,12.7s-2.2,6.2-4.1,8.3
		c-1.9,2.1-4.5,3.6-7.7,4.5C760.6,746.3,756.6,746.7,751.8,746.7z M710.7,746.2c-4.5,0-8-0.6-10.7-1.8s-4.6-3.2-5.7-6.1
		c-1.1-2.9-1.6-6.8-1.5-11.8l0.6-17.7h-8.1v-12l8.8-2.9l2.3-14.7h15v14.7H722v15h-10.6v17.6c0,0.8,0.1,1.6,0.2,2.2
		c0.1,0.6,0.3,1.1,0.6,1.6c0.3,0.4,0.7,0.7,1.1,1c0.5,0.2,1,0.4,1.6,0.4l6.7,0.7v14h-10.9V746.2z M630.8,746.2v-52.3h15.7l3.1,5
		c1.6-1.5,3.8-2.8,6.5-4.1c2.7-1.2,5.5-1.8,8.3-1.8c4.5,0,8,0.9,10.3,2.6c2.3,1.7,3.9,4,4.8,7c0.8,2.9,1.3,6.2,1.3,9.9v33.8H662V715
		c0-1.4-0.2-2.4-0.7-3.1c-0.5-0.7-1.1-1.2-1.8-1.5s-1.6-0.4-2.7-0.4c-0.8,0-1.7,0.1-2.6,0.4c-0.9,0.3-1.7,0.6-2.5,1.1
		c-0.7,0.5-1.4,1-2,1.6v33.3h-18.9V746.2z M596,715.5h7.5c1.3,0,2.2-0.3,2.8-0.9c0.6-0.6,0.9-1.6,0.9-3c0-1.2-0.2-2.2-0.6-3
		s-1-1.3-1.8-1.7s-1.9-0.5-3.3-0.5c-1.2,0-2.2,0.3-3.1,0.8c-0.8,0.5-1.4,1.4-1.8,2.8C596.1,711.3,596,713.1,596,715.5z M602.3,746.7
		c-6,0-10.7-0.7-14.4-2.2c-3.6-1.5-6.3-4.2-7.9-8c-1.7-3.9-2.5-9.3-2.5-16.3c0-7.2,0.7-12.7,2.2-16.7c1.5-3.9,4-6.7,7.4-8.2
		c3.5-1.6,8.2-2.3,14.2-2.3c5.6,0,10,0.5,13.2,1.6c3.2,1,5.6,2.9,6.9,5.6c1.4,2.7,2.1,6.5,2.1,11.4c0,3.8-0.7,6.8-2.2,9
		s-3.6,3.7-6.3,4.6c-2.7,0.9-5.9,1.4-9.6,1.4h-9.3c0.2,1.6,0.6,2.8,1.2,3.7c0.6,0.9,1.7,1.6,3.2,2c1.6,0.4,3.9,0.6,6.9,0.6h14.3v11
		c-2.3,0.6-5,1.3-8.1,1.9C610.4,746.4,606.7,746.7,602.3,746.7z M551.5,746.2v-52.3h18.8v52.3H551.5z M553.6,687.3
		c-1.6,0-2.3-0.7-2.3-2.2v-10.8c0-1.6,0.8-2.4,2.3-2.4h14.8c0.7,0,1.2,0.2,1.6,0.7c0.4,0.5,0.5,1,0.5,1.7V685c0,1.5-0.7,2.2-2.1,2.2
		L553.6,687.3L553.6,687.3z M462.1,746.2v-52.3h15.7l3.1,5c2.1-1.6,4.3-3,6.7-4.2c2.4-1.2,5.5-1.7,9.5-1.7c3.2,0,5.9,0.7,8,2
		s3.7,3,4.8,5.1c1.4-1,2.9-2.1,4.7-3.2c1.7-1.1,3.6-2,5.7-2.8c2-0.7,4.1-1.1,6.2-1.1c4.5,0,7.9,0.8,10.3,2.4c2.4,1.6,4.1,3.9,5,6.9
		s1.4,6.7,1.4,10.9v33h-18.8V715c0-1.4-0.2-2.4-0.7-3.1c-0.5-0.7-1.1-1.2-1.8-1.5s-1.6-0.4-2.7-0.4c-1.3,0-2.6,0.3-3.9,0.9
		s-2.4,1.3-3.2,2.1c0,0.4,0,0.8,0,1.2s0,0.8,0,1.2v30.9h-18.8V715c0-1.4-0.2-2.4-0.7-3.1c-0.5-0.7-1.1-1.2-1.8-1.5
		c-0.7-0.3-1.6-0.4-2.7-0.4c-0.8,0-1.7,0.1-2.6,0.4c-0.9,0.3-1.7,0.6-2.5,1.1c-0.7,0.5-1.4,1-2,1.6v33.3h-18.9V746.2z M434.8,746.2
		v-52.3h18.8v52.3H434.8z M436.9,687.3c-1.6,0-2.3-0.7-2.3-2.2v-10.8c0-1.6,0.8-2.4,2.3-2.4h14.8c0.7,0,1.2,0.2,1.6,0.7
		s0.5,1,0.5,1.7V685c0,1.5-0.7,2.2-2.1,2.2L436.9,687.3L436.9,687.3z M376.5,746.2v-52.3h15.7l3.1,5c1.6-1.5,3.8-2.8,6.5-4.1
		c2.7-1.2,5.5-1.8,8.3-1.8c4.5,0,8,0.9,10.3,2.6c2.3,1.7,3.9,4,4.8,7c0.8,2.9,1.3,6.2,1.3,9.9v33.8h-18.8V715c0-1.4-0.2-2.4-0.7-3.1
		c-0.5-0.7-1.1-1.2-1.8-1.5c-0.7-0.3-1.6-0.4-2.7-0.4c-0.8,0-1.7,0.1-2.6,0.4c-0.9,0.3-1.7,0.6-2.5,1.1c-0.7,0.5-1.4,1-2,1.6v33.3
		h-18.9V746.2z M341.6,715.5h7.5c1.3,0,2.2-0.3,2.8-0.9c0.6-0.6,0.9-1.6,0.9-3c0-1.2-0.2-2.2-0.6-3s-1-1.3-1.8-1.7s-1.9-0.5-3.3-0.5
		c-1.2,0-2.2,0.3-3.1,0.8c-0.8,0.5-1.4,1.4-1.8,2.8C341.8,711.3,341.6,713.1,341.6,715.5z M348,746.7c-6,0-10.7-0.7-14.4-2.2
		c-3.6-1.5-6.3-4.2-7.9-8c-1.7-3.9-2.5-9.3-2.5-16.3c0-7.2,0.7-12.7,2.2-16.7c1.5-3.9,4-6.7,7.4-8.2c3.5-1.6,8.2-2.3,14.2-2.3
		c5.6,0,10,0.5,13.2,1.6c3.2,1,5.6,2.9,6.9,5.6c1.4,2.7,2.1,6.5,2.1,11.4c0,3.8-0.7,6.8-2.2,9s-3.6,3.7-6.3,4.6
		c-2.7,0.9-5.9,1.4-9.6,1.4h-9.3c0.2,1.6,0.6,2.8,1.2,3.7s1.7,1.6,3.2,2c1.6,0.4,3.9,0.6,6.9,0.6h14.3v11c-2.3,0.6-5,1.3-8.1,1.9
		C356.1,746.4,352.4,746.7,348,746.7z M307.1,746.2c-4.5,0-8-0.6-10.7-1.8s-4.6-3.2-5.7-6.1c-1.1-2.9-1.6-6.8-1.5-11.8l0.6-17.7
		h-8.1v-12l8.8-2.9l2.3-14.7h15v14.7h10.6v15h-10.6v17.6c0,0.8,0.1,1.6,0.2,2.2c0.1,0.6,0.3,1.1,0.6,1.6c0.3,0.4,0.7,0.7,1.1,1
		c0.5,0.2,1,0.4,1.6,0.4l6.7,0.7v14h-10.9V746.2z M227.2,746.2v-52.3h15.7l3.1,5c1.6-1.5,3.8-2.8,6.5-4.1c2.7-1.2,5.5-1.8,8.3-1.8
		c4.5,0,8,0.9,10.3,2.6c2.3,1.7,3.9,4,4.8,7c0.8,2.9,1.3,6.2,1.3,9.9v33.8h-18.8V715c0-1.4-0.2-2.4-0.7-3.1
		c-0.5-0.7-1.1-1.2-1.8-1.5s-1.6-0.4-2.7-0.4c-0.8,0-1.7,0.1-2.6,0.4c-0.9,0.3-1.7,0.6-2.5,1.1c-0.7,0.5-1.4,1-2,1.6v33.3h-18.9
		V746.2z M195,734c0.3,0,0.7,0,1.1-0.1c0.4-0.1,0.8-0.1,1.2-0.2c0.4-0.1,0.8-0.2,1.1-0.3c0.4-0.1,0.7-0.2,0.9-0.3
		c0.3-0.1,0.5-0.2,0.7-0.3v-9.4l-4,0.6c-1.8,0.3-3.2,0.7-4.1,1.4c-0.9,0.7-1.4,1.7-1.4,3.2v1.9c0,0.8,0.2,1.5,0.5,2.1
		c0.4,0.6,0.9,0.9,1.6,1.2C193.2,733.9,194,734,195,734z M185.1,746.8c-4,0-7.3-1.2-9.8-3.6c-2.5-2.4-3.7-5.6-3.7-9.7v-5.3
		c0-3.9,1.4-7.1,4.3-9.7c2.8-2.6,7.4-3.9,13.6-3.9H200v-1.7c0-1.3-0.2-2.3-0.7-3.1c-0.5-0.7-1.4-1.3-2.8-1.6
		c-1.4-0.3-3.6-0.4-6.6-0.4h-15.2V697c2.7-1.1,5.8-2,9.4-2.7c3.5-0.7,7.8-1.1,13-1.1c4.4,0,8.2,0.5,11.5,1.5s5.8,2.8,7.6,5.4
		c1.8,2.6,2.7,6.4,2.7,11.3v34.7h-15l-2.9-5.2c-0.6,0.6-1.4,1.3-2.4,1.9c-0.9,0.6-2.1,1.3-3.3,1.9c-1.3,0.6-2.8,1.1-4.5,1.5
		C189.1,746.6,187.2,746.8,185.1,746.8z M84.6,746.2l8.5-72.1h17.7l14.9,50.7l14.9-50.7H158l8.6,72.1h-18.2l-5.5-46.4l2.7,0.1
		l-11.4,46.3h-17.7L105,699.9l3-0.1l-5.4,46.4H84.6z"/>
</g>
</svg>
