<?xml version="1.0" encoding="utf-8"?>
<!-- Generator: Adobe Illustrator 24.0.2, SVG Export Plug-In . SVG Version: 6.00 Build 0)  -->
<svg version="1.1" id="Capa_1" xmlns="http://www.w3.org/2000/svg" xmlns:xlink="http://www.w3.org/1999/xlink" x="0px" y="0px"
	 viewBox="0 0 859.3 866.4" style="enable-background:new 0 0 859.3 866.4;" xml:space="preserve">
<style type="text/css">
	.st0{fill:#A7A7A7;}
	.st1{fill-rule:evenodd;clip-rule:evenodd;fill:#A7A7A7;}
</style>
<g>
	<path class="st0" d="M479.8,751.9c-1.9,0-3.8-0.1-5.7-0.2c-1.9-0.1-3.8-0.3-5.6-0.5c-1.8-0.2-3.5-0.5-5.1-0.9s-3-0.9-4.3-1.4v-11.2
		h24.8c0.9,0,1.5-0.1,1.9-0.2c0.4-0.2,0.7-0.4,0.8-0.7c0.1-0.3,0.2-0.6,0.2-1v-1.3c0-0.7-0.2-1.2-0.6-1.5c-0.4-0.4-1.4-0.5-3-0.5
		h-8.9c-3,0-5.7-0.5-8.2-1.5s-4.5-2.6-5.9-4.9c-1.5-2.2-2.2-5.3-2.2-9v-3.3c0-3.4,0.7-6.4,2-8.8c1.3-2.4,3.7-4.3,7-5.5
		c3.4-1.3,8.1-1.9,14.2-1.9c2.4,0,4.9,0.1,7.4,0.4c2.5,0.3,4.8,0.7,7,1.1c2.1,0.5,3.8,1,5,1.5v11.2H477c-1,0-1.7,0.1-2.2,0.4
		c-0.5,0.3-0.7,0.8-0.7,1.5v1.3c0,0.5,0.1,0.9,0.3,1.2c0.2,0.3,0.6,0.5,1.2,0.6s1.4,0.2,2.4,0.2h9.2c5.8,0,9.9,1.3,12.2,4
		c2.3,2.6,3.5,6.2,3.5,10.7v5.5c0,3.6-0.9,6.4-2.6,8.6c-1.7,2.2-4.3,3.7-7.7,4.7C489.3,751.5,485,751.9,479.8,751.9 M426.9,736.6
		c1.3,0,2.3-0.1,3.1-0.3c0.8-0.2,1.4-0.7,1.9-1.5s0.8-2,1-3.7s0.3-3.9,0.3-6.6c0-2.8-0.1-5-0.3-6.6c-0.2-1.6-0.5-2.8-1-3.6
		s-1.1-1.3-1.9-1.5s-1.8-0.3-3.1-0.3c-1.3,0-2.3,0.1-3.1,0.3c-0.8,0.2-1.4,0.7-1.9,1.5s-0.8,2-1,3.6s-0.3,3.8-0.3,6.6s0.1,5,0.3,6.6
		c0.2,1.7,0.5,2.9,1,3.7s1.1,1.3,1.9,1.5C424.6,736.5,425.6,736.6,426.9,736.6z M426.9,751.8c-4.8,0-8.8-0.5-12-1.5
		c-3.3-1-5.9-2.6-7.9-4.8s-3.4-5-4.3-8.5s-1.3-7.7-1.3-12.6c0-5.4,0.4-9.8,1.3-13.3s2.3-6.3,4.3-8.4c2-2.1,4.6-3.6,7.9-4.4
		c3.3-0.9,7.3-1.3,11.9-1.3c4.8,0,8.8,0.5,12,1.4c3.3,0.9,5.9,2.4,7.8,4.5s3.4,4.9,4.3,8.4s1.3,7.9,1.3,13.1c0,5.2-0.4,9.5-1.2,13
		c-0.8,3.5-2.2,6.3-4.2,8.4c-1.9,2.1-4.6,3.6-7.8,4.6C435.8,751.4,431.7,751.8,426.9,751.8z M311.6,751.3v-53.4h16.1l3.2,5.2
		c2.1-1.7,4.4-3.1,6.8-4.3s5.6-1.8,9.7-1.8c3.3,0,6,0.7,8.2,2c2.1,1.4,3.8,3.1,4.9,5.2c1.4-1.1,3-2.1,4.8-3.3
		c1.8-1.1,3.7-2.1,5.8-2.8c2.1-0.8,4.2-1.1,6.3-1.1c4.6,0,8.1,0.8,10.6,2.4c2.5,1.6,4.2,4,5.1,7c0.9,3.1,1.4,6.8,1.4,11.1v33.7H375
		v-31.9c0-1.4-0.2-2.4-0.7-3.2c-0.5-0.7-1.1-1.2-1.8-1.5c-0.8-0.3-1.7-0.4-2.7-0.4c-1.3,0-2.6,0.3-4,0.9c-1.3,0.6-2.4,1.3-3.3,2.2
		c0,0.4,0,0.8,0,1.2s0,0.8,0,1.2v31.5h-19.2v-31.9c0-1.4-0.2-2.4-0.7-3.2c-0.5-0.7-1.1-1.2-1.8-1.5c-0.8-0.3-1.7-0.4-2.7-0.4
		c-0.9,0-1.8,0.1-2.7,0.4c-0.9,0.3-1.8,0.6-2.5,1.1c-0.8,0.5-1.4,1-2,1.6v34H311.6z M266.8,751.9c-4.6,0-8.3-1.5-10.9-4.4
		s-4-6.8-4-11.6v-38h19.2v31.9c0,2,0.5,3.4,1.5,4.1c1,0.7,2.2,1,3.8,1c1,0,2.3-0.3,3.8-0.9c1.6-0.6,2.7-1.3,3.4-2.2v-34h19.2v53.4
		h-16.1l-3.2-5.2c-2.2,1.5-4.8,2.8-7.7,4C273.1,751.3,270,751.9,266.8,751.9z M221.9,751.9c-1.9,0-3.8-0.1-5.7-0.2
		c-1.9-0.1-3.8-0.3-5.6-0.5s-3.5-0.5-5.1-0.9s-3-0.9-4.3-1.4v-11.2H226c0.9,0,1.5-0.1,1.9-0.2c0.4-0.2,0.7-0.4,0.8-0.7
		s0.2-0.6,0.2-1v-1.3c0-0.7-0.2-1.2-0.6-1.5c-0.4-0.4-1.4-0.5-3-0.5h-8.9c-3,0-5.7-0.5-8.2-1.5s-4.5-2.6-5.9-4.9
		c-1.5-2.2-2.2-5.3-2.2-9v-3.3c0-3.4,0.7-6.4,2-8.8c1.3-2.4,3.7-4.3,7-5.5c3.4-1.3,8.1-1.9,14.2-1.9c2.4,0,4.9,0.1,7.4,0.4
		c2.5,0.3,4.8,0.7,7,1.1c2.1,0.5,3.8,1,5,1.5v11.2h-23.5c-1,0-1.7,0.1-2.2,0.4c-0.5,0.3-0.7,0.8-0.7,1.5v1.3c0,0.5,0.1,0.9,0.3,1.2
		s0.6,0.5,1.2,0.6c0.6,0.1,1.4,0.2,2.4,0.2h9.2c5.8,0,9.9,1.3,12.2,4c2.3,2.6,3.5,6.2,3.5,10.7v5.5c0,3.6-0.9,6.4-2.6,8.6
		c-1.7,2.2-4.3,3.7-7.7,4.7C231.5,751.5,227.1,751.9,221.9,751.9z M142.3,751.3v-53.4h16.1l3.2,5.2c1.7-1.5,3.9-2.9,6.6-4.2
		c2.8-1.3,5.6-1.9,8.4-1.9c4.6,0,8.1,0.9,10.5,2.6c2.4,1.8,4,4.1,4.9,7.1s1.3,6.4,1.3,10.1v34.5H174v-31.9c0-1.4-0.2-2.4-0.7-3.2
		c-0.5-0.7-1.1-1.2-1.8-1.5c-0.8-0.3-1.7-0.4-2.7-0.4c-0.9,0-1.8,0.1-2.7,0.4c-0.9,0.3-1.8,0.6-2.5,1.1c-0.8,0.5-1.4,1-2,1.6v34
		L142.3,751.3L142.3,751.3z M113.3,751.3v-73.6h19.2v73.6H113.3z"/>
	<path class="st1" d="M158,388.7c-7-0.2-10.7-5.3-13.1,1.2c-0.5,1.4-0.8,2.4-1.2,3.9L131.4,434c-1,2.7-1.6,5.4-2.4,7.9
		c-1.8,5.5-3.8,8.6,1,10.3c1.2,0.4,2.4,0.8,3.8,1.2l23.5,7.2c5.8,1.8,26.9,9.1,32.6,9.1c1-1.8,2.8-6.5,2.9-9.1
		c2.5,0.1,6.7,1.4,8.6,2.3c-1.1,2.4-2.3,6.6-2.3,10.3c2.9,1.6,12.7,4.1,16.8,5.5l84.9,26.2c3,1,5.5,1.7,8.3,2.5
		c5.1,1.6,22.1,7.3,26.3,7.3c1.4-2.1,1.1-1.4,1.9-4.3l14.2-46.2c2.9-8.8,13.5-21.1,14.6-25.8c-2.7-3.1-13.2-9.2-17.2-11.9
		l-30.2-19.4c-2.1-1.4-3.8-2.4-5.9-3.8l-11.8-7.6c-2.4-1.4-4-2.6-6.2-4c-4.1-2.8-8-5-12.2-7.8l-72.1-46.3c-2.2-1.4-3.8-2.3-5.9-3.8
		l-12.2-7.8c-2.1-1.4-3.9-2.7-6.2-4c-4.1-2.4-8.1-6.8-13.1-6.8l-18.6,28.7c-2.5,4.2-18.7,27.3-17.9,29.9c0.3,1.3,8.9,6.5,10.6,7.6
		L158,388.7z M175.1,322.1c2.4,1.2,3.6,2,5.7,3.4c2,1.3,3.8,2.4,5.9,3.8l22.9,14.7c2.1,1.4,3.5,2.2,5.6,3.5l143.3,92
		c-0.6,2.4-5.8,10-7.4,12.6l-23.9,37.6c-2.4-0.2-5-2.4-6.7-3.5c-2.4-1.6-3.8-2.5-6.4-3.8c0.9-1.6,5.1-7.9,5.1-9.1
		c0-0.3-2.1-6.8-6.7,0.7c-1,1.7-2.1,3.3-3,5.1c-2-0.5-4.5-2.7-6.4-3.8c-2.2-1.4-4.5-3-6.7-4.1c5.6-8.4,7.1-9.4,2.3-12
		c-3.5,1.8-3.8,4.1-6.8,8.6c-2-0.5-4.1-2.4-6.1-3.6s-4.5-3.3-6.5-3.8c0.3-2.9,9.2-12,1.7-12c-1.9,0-5.8,6.3-6.3,7.9
		c-2.6-0.3-8.9-5.1-13.1-7.4c1-3.5,4.2-5.8,5.1-9.7c-0.1-0.1-0.2-0.4-0.3-0.3l-0.8-1c-3-2.6-4.2-0.1-6,2.7c-1.1,1.7-2.1,2.6-2.6,4.8
		c-4.6-2.4-8.6-5.6-13.1-7.9c0.9-1.7,5.1-7.8,5.1-9.1c0-1-2.3-8.2-9.7,5.7c-2.1-0.5-10-6.4-13.1-7.9c5.6-8.4,7.1-9.4,2.3-12
		c-2.2,1.1-2.4,1.4-3.8,3.7c-1.1,2-1.9,3.1-3.1,4.9c-1.7-0.4-9.5-5.8-12.6-7.4c7.5-11.2,7.7-9-5.8-17.5c-4.5-2.9-5.1-3.8-8.1,1.3
		c-1,1.8-2.1,3.2-3.1,4.8c-3.6-1.9-10.2-6.9-12.6-7.4c0.3-4.3,9.4-10.6,1.1-12.6c-1.3,1.1-2,2.1-3.1,3.8c-1,1.4-2.2,3.2-2.6,4.8
		c-2.4-0.6-11.6-6.8-14.2-8.6c0.5-0.7,5.1-7.8,5.1-7.9c0-3.8-3.5-5.7-6.8,0c-1,1.7-1.8,3-2.9,4.5c-2.5-0.6-10.6-6.3-13.1-7.9
		c1.3-2.5,2.3-4,3.8-6.4c1.5-2.2,2.5-4.1,4-6.3l16.1-25C169.8,330.5,172.3,326.2,175.1,322.1z M340.3,480c-0.2,2.2-1.3,4.8-1.9,7.2
		c-0.8,2.7-1.4,4.3-2.2,7c-1.2,4.5-3.4,9.8-4.5,14.4l-13.1-4c0.5-6.5,6-11.4-2.3-11.4c-1.7,2.4-2.6,6.5-3.4,9.7
		c-1.7-0.8-11.1-3.8-13.1-4c0.2-6.7,4.5-8,0-12c-2.5,0.6-3.1,1.2-3.9,3.5c-0.6,1.7-1.4,4.5-1.7,6.2c-2.2-0.2-12-3.1-13.7-4
		c0.3-0.7,1.8-5.5,2.1-6.5c1.6-6.7-6.2-7.8-7.2,4.8c-2.2-0.2-4.4-1.2-6.7-1.8c-2.2-0.6-4.5-1.6-7-2.2c0.4-5.1,3.8-6.3,1.1-11.4
		c-6.5,0-3.8,3.3-6.8,9.7c-1.9-0.9-4.2-1.3-6.5-2.1c-2.4-0.8-4.1-1.3-6.6-1.9c0.2-5.9,6.4-11.4-2.3-11.4c-1.7,2.5-2.6,6.2-3.4,9.7
		c-4-1.9-9.7-2.6-13.7-4.5c1.1-2.4,4.5-9.6,0.8-11.1c-4.2-1.7-5.8,8.1-5.9,9.3c-4.8-0.4-8.7-3.3-13.1-3.4c0.3-4.1,2.3-5.1,2.3-10.3
		c-3.1-2.1-14.4-5.7-17.6-5.7c-1.7,2.4-3.1,6.6-3.4,9.7c-4.8-1.1-9-2.9-13.7-4c0.3-2.9,1.5-4.5,2.1-7.1c0.9-4.1-0.8-4.3-4.4-4.3
		c-0.8,1.6-1.1,2.6-1.8,4.5c-0.4,1.3-1,4-1.7,5.2c-2.9-1.4-11.4-3.2-14.2-4.5c0.4-5,3.1-5.1,1.7-10.8c-6.9-1.7-4.3,2.5-7.4,9.1
		c-3.7-0.9-10.2-3.7-13.7-4l14.5-47.7c0.8-2.3,1.6-4.9,2.1-7.1c3.6,1.7,19.8,4.4,24.4,6.5l14,8.8c9.1,6.2,6.5-1.7,11.9-5.6
		c3.2,0.8,4.5,3.2,7.4,4c-1.5,6.5-9.5,8.3-1.1,13.2l18.4,11.8c1.7,1.1,3.1,2.4,5,3c-0.1,5.8-7.5,18.8-4.5,21.5
		c1.6,1.4,18.6,6.5,22.1,6.5c0.8-1.2,1-1,1.7-2.4c0.5-1.1,0.6-2.2,1-3.6c0.8-2.6,1.8-4.4,1.9-7.2c1.8,0.4,11.6,7.2,14.1,8.8
		l42.4,27.1c1.3,0.9,18.2,12.1,19.4,12c2.4-1.2,2.2-1.5,3.7-3.8C332.9,491,338.8,481,340.3,480z M244.6,456c-4.8-1.1-9-2.9-13.7-4
		c0.3-2.8,3.2-10.3,4-13.7c2.2,0.6,8.9,5.5,12.6,7.4C246.8,447,244.6,454.3,244.6,456z M169.3,360.9c0,2,5.9,5.1,8.9,7.1l29.9,18.6
		c2.4,0,13.8-19,14.2-21.1c-2.6-3.1-10.4-7.4-14.1-9.8c-4.1-2.6-22.6-15.3-25.1-15.3c-1.9,0-3.1,3.1-4,4.5
		C177.5,347.4,169.3,358.9,169.3,360.9z M184.2,347.2c2.4,0.6,25.6,16.7,30.8,19.4c-1,4.3-6.4,9.3-7.4,13.1l-31.3-19.9L184.2,347.2z
		 M195.6,444.1c3.5,0,5.5-9.9,6.8-14.8c2.8-10.2,6.9-8.4-22.5-16.8c-19.6-5.6-18.1-8.3-21.2,2c-5.9,19.5-6.8,15.8,3.8,19.4
		c5.2,1.7,11.1,3.5,16.5,5.1L195.6,444.1z M193.9,437.2c-2.8-0.3-5.8-1.5-8-2.2c-2.9-0.9-5.4-1.7-8.3-2.5l-16.8-4.9
		c0.2-1.7,3.3-12.3,4-13.7l33.1,10.3L193.9,437.2z M254.3,419.6c3.7-3.2,5.8-8,8.7-12.3c11.4-17,11-13.1-7.2-24.6
		c-2-1.3-3.3-2.7-6.2-3c-1.7,1.6-2.8,3.5-4.1,5.6c-1.4,2.2-2.4,3.8-3.8,5.9c-1.4,2.1-2.4,3.8-3.8,5.9c-1.4,2.1-2.6,3.8-3.8,5.8
		c-2.6,4.5,1.2,5,7.9,9.4C244.6,414.1,251.9,419,254.3,419.6z M253.1,412.7c-2.3-1.6-11-7.5-13.1-7.9c2.5-4.7,8.6-12.9,11.4-18.2
		l12.6,7.9c-0.6,2.5-6.5,10.6-8.1,13.5C254.8,409.6,253.6,410.9,253.1,412.7z M286.2,438.3c0,3.8,4.2,4.9,9.7,8.6
		c12.8,8.6,11.1,7.6,15.5,0.7l8.5-13.2c5.1-8.5,8.1-6.1-11.2-17.9c-2.1-1.3-3.4-2.6-5.9-3.1c-1.9,1.7-3.1,3.5-4.5,5.8l-8,12.5
		C289.5,432.4,286.2,437.5,286.2,438.3z M305.5,446.4l-12.6-7.9c0.6-2.5,3.8-6.4,5.3-8.9c1.9-3.2,3.8-5.6,5.5-8.7
		c3.9,0.9,9.6,6.6,13.1,7.4C314.1,433.4,308,441.6,305.5,446.4z M321.5,463.5c4.4,1,3.5,1.3,7.6-4.9c2.2-3.2,11.7-17.5,12.3-20.2
		c-1-1-3.2-4.8-6.3,0l-13.4,20.9C320,462.6,321.5,461.3,321.5,463.5z M220.6,392.8c0,8.2,9.5,0,6.6-3.8
		C224.3,384.9,220.6,391.3,220.6,392.8z M268.5,427.5c0,1.3,0.2,0.7,0.6,2.3c2.3,0.5,3,1.6,5.1-1.2c3.3-4.4,1.7-5.3-1-6.7
		C271.2,422.8,268.5,424.8,268.5,427.5z M230.9,376.8c0,2.4,0.9,2.4,2.9,3.4c1.8-1,1.7-0.4,2.9-2.3c2.4-3.6,2.1-6.3-1.7-6.3
		C232.5,371.7,230.9,376.7,230.9,376.8z M283.3,410.4c2.5,0,2.4,0,3.7-2c4.1-5.8-1.9-8.7-5.1-2.8C281,407.3,280.5,410.4,283.3,410.4
		z M212.6,449.1c3-1.9,5.8-8.6,0-8.6C210.5,440.6,206.5,447.7,212.6,449.1z M386.4,456.7v167.8h366.7V456.7
		c0-3.1-42.4-91.3-49-104.9c-1.1-2.4-1.9-5.8-4.6-5.8H440c-3.1,0-6.5,9.5-7.7,12.2l-39.6,84C391.2,445.8,386.4,453.3,386.4,456.7z
		 M443.5,355.6H696c1.1,5,8.7,19.2,11.1,25.2c5.7,14.1,23.8,51.2,31.9,68.5c1.2,2.6,1.7,4.4,2.9,6.6H397.7l22.9-49.8
		C424.5,396.6,442.1,361.6,443.5,355.6z M395,465.4h349.3V615H395V465.4z M477.2,372c-5.5,0-11.6-0.8-14.7,3.5
		c0.8,2.8,0.9,2.5,3.5,3.5c2,0.8,3.2,0.8,6,0.9c4.4,0.2,8.5,0.8,10.4,3.5c-5.1,0.4-20.8,10.6-20.8,19v5.1c0,7.9,13.9,17.5,20.8,19
		c-1.8,2.5-3.5,2-10.5,4.2c-7.4,2.4-17.2,5.9-25,6.2c-7.4,0.2-8.6,1.6-13,2.6c0.1,3.5-0.4,3.2,2.2,4.7c3.3,1.8,10.9,1.4,15.1,1.4
		c6.4,0,7.2-2.9,12-4.4l26.5-8.1c6-2.1,7.5-0.7,13.6,0.9c35.8,9,87.8,9.8,124.8,1.8c20-4.3,9.2-6.9,37.1,2.3l11,3.8
		c6.9,4.7,5,3.8,17.9,3.8c4.6,0,7.7-1.6,9.5-4.4c-4.8-5.1-12.7-3.6-17.8-4.6c-4.9-1-27.2-7.9-28.9-10c8.6-2,32.7-17.5,13.6-35.3
		c-2.8-2.6-9.6-7.1-13.6-7.9v-1.7c3.1-0.3,16.1-2.4,19.9-4.4c-0.8-3.3-0.6-3.2-3.6-4.3c-12.3-4.3-25,5-29.2,4.8
		c-1.5-0.1-7.5-1.7-9.6-2.3c-38.8-9.8-89.5-9.1-128.5-0.5c-8.4,1.8-9.2,4.9-19.2,0.3C484,374,481.9,372,477.2,372z M510.1,381.5
		c4.2,0,28-5.1,47.6-5.1c22.2,0,38-0.3,59.8,3.3c4.2,0.7,7.7,1.8,12,1.8c-1.7,2.4-2.4,1.8-5.8,2.8c-2.4,0.6-3.8,1.7-6.8,1.2
		c-2.1-0.3-4.5-1.2-6.9-1.7c-2.8-0.6-4.6-1-7.3-1.3c-33.3-4.5-47.6-3.3-80,3C519.2,386,511.9,384,510.1,381.5z M497.1,403.1
		c0,13,7.2,10.9,11.3,16.4c-13.4,3.1-9.2,6.3-23,0.5c-21.6-9-22.3-21.2,0-30.4c12.3-5.1,9.3-3.5,17.1-1.4c3.5,1,4.1,0.4,5.8,2.8
		C504.3,392.1,497.1,398.2,497.1,403.1z M565.4,387.6c19.6,0,20.7,1.2,37.2,2.6l-2.9,1.4c-9.5,3.8-10.1,0.5-20.4,0.3
		c-10.5-0.3-9.4-2.4-26.8,0.9c-9.9,1.8-8.3-1-16.4-1.7l2.4-1C542.7,388.7,560.8,387.6,565.4,387.6z M630.3,390.1
		c12-2.8,13.1-8.1,32.7,4.5c15.6,10,2.9,19.5-9.1,25.2c-12.8,6.2-10,2.9-23.7-0.3c0.7-0.6,24.5-13.5,4.2-26.6L630.3,390.1z
		 M603.5,398c8.5-0.7,12.8-7.9,25.6,0.3c11.2,7.2,4,11.6-7.2,16.4c-6.1,2.6-9.9-2.3-17.5-2.9C606.4,404.1,610.1,407.9,603.5,398z
		 M532.5,403.1c0,9.3,1,2.9,2.6,8.6c-9.7,0.8-10.7,5.4-17.6,3c-6.3-2.2-10.7-4.7-13.5-10c3-5.6,6.9-7.6,13.5-10
		c4.1-1.4,4-0.8,8.1,0.3c3.1,0.9,6.3,2.4,9.5,2.6C534.1,401.9,532.5,400.2,532.5,403.1z M564.5,398.8h9.5c-0.7,0.4-0.4,0.4-1.7,1
		C569.7,400.9,568,401.2,564.5,398.8z M583.6,404c3.4-0.3,5.6-1.6,8.2-2c3.1-0.4,4,1.2,7.3,2v1.7C598.4,405.9,588.3,410.5,583.6,404
		z M540.4,404c2.9-0.7,4.4-2.2,6.8-2.1c2.5,0.1,4.4,1.7,7.9,2.1v1.7c-3.8,0.3-5.5,1.7-9.5,1.7c-1.7,0-2.8-1.1-5.1-1.7L540.4,404
		L540.4,404z M569.7,409.2c3.1,0,4.3,1,5.1,1.7h-11.3L569.7,409.2z M545.5,416.2c9,0,16.4,3.7,37.1,1.6c1.8-0.2,5.1-1,7.4-1.3
		c5.6-0.8,8,1.8,13.4,2.3l-3.2,1.1c-14.1,3.3-35.3,2.1-49.6,1.5c-5.1-0.2-10.1-1.7-14.7-1.7L545.5,416.2z M510.1,426.5
		c3.5-0.3,8.6-2.6,10.4-2.6c5.8,0,28.2,9.7,74.5,4.4l23.3-4.4c3.7,0,6.1,2.3,10.4,2.6v1.7c-3.4,0.1-7.9,1.1-11.3,1.7
		c-3.9,0.7-8,1.4-12.1,1.7c-28,2.4-54.4,3.1-82.2-1.6c-4.1-0.7-8.6-1.8-12.8-1.8L510.1,426.5L510.1,426.5z M653.6,534.6
		c0,2.2,11.6,13.9,13.9,13.9h51.1c2.2,0,13.9-11.6,13.9-13.9v-43.2h-78.7L653.6,534.6L653.6,534.6z M714.2,538.9h-43.2
		c-2.1,0-7.8-5.7-7.8-7.8v-30.3h59.7v29.4C722.8,532.4,716.2,538.9,714.2,538.9z M661.4,598.6h63.1v-35.4h-63.1V598.6z M705.5,575.2
		h1.7v11.3h-1.7V575.2z M669.2,570.9h23.3v19.9h-23.3V570.9z M478,583.8h11.3v-10.4H478V583.8z M478,506.9h11.3v-10.4H478V506.9z
		 M478,602.9h11.3v-10.4H478V602.9z M629.4,583.8h11.3v-10.4h-11.3V583.8z M607.8,583.8H619v-10.4h-11.3V583.8z M586.2,583.8h11.3
		v-10.4h-11.3V583.8z M564.5,583.8h11.3v-10.4h-11.3V583.8z M542.9,583.8h11.3v-10.4h-11.3V583.8z M521.3,583.8h11.3v-10.4h-11.3
		V583.8z M499.7,583.8H511v-10.4h-11.3V583.8z M456.5,583.8h11.3v-10.4h-11.3V583.8z M434.8,583.8h11.3v-10.4h-11.3V583.8z
		 M413.2,583.8h11.3v-10.4h-11.3V583.8z M499.7,506.9H511v-10.4h-11.3V506.9z M521.3,506.9h11.3v-10.4h-11.3V506.9z M434.8,602.9
		h11.3v-10.4h-11.3V602.9z M629.4,602.9h11.3v-10.4h-11.3V602.9z M607.8,602.9H619v-10.4h-11.3V602.9z M586.2,602.9h11.3v-10.4
		h-11.3V602.9z M564.5,602.9h11.3v-10.4h-11.3V602.9z M542.9,602.9h11.3v-10.4h-11.3V602.9z M521.3,602.9h11.3v-10.4h-11.3V602.9z
		 M499.7,602.9H511v-10.4h-11.3V602.9z M456.5,602.9h11.3v-10.4h-11.3V602.9z M413.2,602.9h11.3v-10.4h-11.3V602.9z M478,487.9h11.3
		v-10.4H478V487.9z M607.8,487.9H619v-10.4h-11.3V487.9z M586.2,487.9h11.3v-10.4h-11.3V487.9z M499.7,487.9H511v-10.4h-11.3V487.9z
		 M542.9,487.9h11.3v-10.4h-11.3V487.9z M564.5,487.9h11.3v-10.4h-11.3V487.9z M413.2,487.9h11.3v-10.4h-11.3V487.9z M434.8,487.9
		h11.3v-10.4h-11.3V487.9z M456.5,487.9h11.3v-10.4h-11.3V487.9z M629.4,487.9h11.3v-10.4h-11.3V487.9z M521.3,487.9h11.3v-10.4
		h-11.3V487.9z M434.8,499.2v7.8h11.3v-10.4h-8.6C435.5,496.5,434.8,497.2,434.8,499.2z M629.4,506.9h11.3v-7.8c0-2-0.6-2.6-2.6-2.6
		h-8.6V506.9z M607.8,506.9H619v-7.8c0-2-0.6-2.6-2.6-2.6h-8.6V506.9z M564.5,506.9h11.3v-7.8c0-2-0.6-2.6-2.6-2.6h-8.6V506.9z
		 M456.5,499.2v7.8h11.3v-10.4h-8.6C457.1,496.5,456.5,497.2,456.5,499.2z M413.2,499.2v7.8h11.3v-10.4h-8.6
		C413.8,496.5,413.2,497.2,413.2,499.2z M542.9,506.9h11.3v-7.8c0-2-0.6-2.6-2.6-2.6h-8.6V506.9z M586.2,506.9h11.3v-7.8
		c0-2-0.6-2.6-2.6-2.6h-8.6V506.9z M478,562.3c0,3.5,2.4,2.6,8.6,2.6c3.6,0,2.6-3,2.6-10.4H478V562.3z M607.8,562.3
		c0,3.5,2.4,2.6,8.6,2.6c3.6,0,2.6-3,2.6-10.4h-11.3V562.3z M499.7,562.3c0,3.5,2.4,2.6,8.6,2.6c3.6,0,2.6-3,2.6-10.4h-11.3V562.3z
		 M521.3,562.3c0,3.5,2.4,2.6,8.6,2.6c3.6,0,2.6-3,2.6-10.4h-11.3V562.3z M564.5,562.3c0,3.5,2.4,2.6,8.6,2.6c3.6,0,2.6-3,2.6-10.4
		h-11.3V562.3z M413.2,562.3c0,3.5,2.4,2.6,8.6,2.6c3.6,0,2.6-3,2.6-10.4h-11.3V562.3z M629.4,562.3c0,3.5,2.4,2.6,8.6,2.6
		c3.6,0,2.6-3,2.6-10.4h-11.3V562.3z M456.5,562.3c0,3.5,2.4,2.6,8.6,2.6c3.6,0,2.6-3,2.6-10.4h-11.3V562.3z M542.9,562.3
		c0,3.5,2.4,2.6,8.6,2.6c3.6,0,2.6-3,2.6-10.4h-11.3V562.3z M434.8,562.3c0,3.5,2.4,2.6,8.6,2.6c3.6,0,2.6-3,2.6-10.4h-11.3V562.3z
		 M586.2,562.3c0,3.5,2.4,2.6,8.6,2.6c3.6,0,2.6-3,2.6-10.4h-11.3V562.3z M478,545h11.3v-9.5H478V545z M478,526h11.3v-9.5H478V526z
		 M456.5,545h11.3v-9.5h-11.3V545z M434.8,545h11.3v-9.5h-11.3V545z M413.2,545h11.3v-9.5h-11.3V545z M629.4,526h11.3v-9.5h-11.3
		V526z M607.8,526H619v-9.5h-11.3V526z M586.2,526h11.3v-9.5h-11.3V526z M542.9,545h11.3v-9.5h-11.3V545z M542.9,526h11.3v-9.5
		h-11.3V526z M499.7,526H511v-9.5h-11.3V526z M564.5,545h11.3v-9.5h-11.3V545z M456.5,526h11.3v-9.5h-11.3V526z M607.8,545H619v-9.5
		h-11.3V545z M434.8,526h11.3v-9.5h-11.3V526z M413.2,526h11.3v-9.5h-11.3V526z M564.5,526h11.3v-9.5h-11.3V526z M629.4,545h11.3
		v-9.5h-11.3V545z M499.7,545H511v-9.5h-11.3V545z M586.2,545h11.3v-9.5h-11.3V545z M521.3,545h11.3v-9.5h-11.3V545z M521.3,526
		h11.3v-9.5h-11.3V526z M703.8,509.5c0,12.9-1.5,11.3,7.8,11.3v-13.9C705.9,506.9,703.8,506.1,703.8,509.5z M689.1,534.6h7.8v-13
		h-7.8V534.6z M674.4,520.7h6.9v-13.9h-6.9V520.7z M680.5,586.4c13.4,0,5.1-17.5-3-10C673.3,580.4,676.7,586.4,680.5,586.4z
		 M683.9,578.7C683.6,590.3,672.5,576.3,683.9,578.7z M106.6,51.7c0,1.7,0.5,2.1,2.1,2.1h19.2v19.9h-10.6v11.5h10.6v10
		c-6.8,0-13.4-1-17.8,2.9c-1.7,1.5-3.6,4-3.6,7.1v33.4c0,3.1,2.3,5.8,4,7.3c3.9,3.5,11.2,2.6,17.3,2.6v10h-10.6v10.6h10.6v10h-10.6
		v11.4h10.6v10c-25.6,0-21.4,1.8-21.4,43.5c0,5.2,5.3,10,12.8,10h8.6v10h-10.6v10.7h10.6c0,22.7-2.7,21.4,14.9,21.4
		c4.7,0,7.3-5.7,9.5-9c1.9-2.9,6.2-8.4,7.1-11.5c1.3-4.7,0.5-29,0.5-36.5c3.4,2.3,6.7,5.3,10,7.9c1.7,1.3,3.4,2.6,5.1,4.1
		c4.9,4.1,6.5,3,15.5,3v10h-10v10.7c23.9,0,21.4,3.1,21.4-20.7h20.7v11.4c0,4.4,4.9,9.3,9.3,9.3c20.5,0,22.8,0.7,22.8-20.7h10
		c0,6.3-1.6,20.7,9.3,20.7h86.8c7.2,0,10-7.8,10-14.9V254h20c0,7.9-1,11,3.4,15.2c7.9,7.7,2.8,5.5,28.7,5.5V264
		c-23.5,0-20.7,2.4-20.7-10h29.2c7.5,0,12.8-4.7,12.8-10V94.4c0-6.2-5.7-8.8-10.6-10c0-4.5,0.7-11-0.7-14.3
		c-1.1-2.8-4.8-6.4-8.6-6.4H189.8c-10.5,0-10,14.4-10,20.7c-2.5,1.3-2.9,1.4-5.3,3.2l-14.7,11c0-7.4,0.8-31.2-0.5-35.8
		c-0.9-3.1-5.1-8.6-7.1-11.5c-2.1-3.3-4.7-9-9.4-9h-36.3V51.7z M191.3,74.4h231.5v10H191.3V74.4z M296,127.2h33.4
		c5.4,0,19.2,15.7,25,15.7h79.1v10h-52.7v11.4h52.7v10h-52.7v11.3h52.7v10H348c-3.5,0-14.3,15.7-17.8,15.7H296v10.6h38.5
		c3.5,0,14.3-15.7,17.8-15.7h81.2v36.3h-82.7c-3.1,0-2.1,2.7-2.1,9.3c0,3.1,3.3,2.1,10.6,2.1v10h-84.1v-10h63.4v-11.4H182.8
		c-1.3,0-9.8-7.3-11.4-8.6c-2.4-1.8-8.6-7.8-11.4-8.6v-113c3.9-2.6,7.2-5.2,11.1-8.1c1.7-1.2,10.4-8.2,11.7-8.2h250.8v36.3h-76.2
		c-2.6,0-20.2-15.7-22.8-15.7H296V127.2z M117.2,106.5h10.6v30.6h-10.6V106.5z M117.2,211.9h10.6v30.6h-10.6V211.9z M233.3,253.9h10
		v10h-10V253.9z M141.4,284.5h-2.9V53.8h2.9c0.9,3.4,7.2,9.8,7.2,12.1v206.5C148.6,274.8,142.4,281.1,141.4,284.5z M169.9,167
		c0,14.8,3.2,27.7,11.3,38.6l7.1,8.6c23.8,23.8,63.9,25.4,90.1-0.7c24.4-24.3,24.5-64.2,0-88.7c-18.9-18.9-48.3-24.9-71.4-13.4
		c-6.6,3.3-12.8,7.4-18.3,12.3c-3.8,3.4-10.3,12.8-12.7,18C172.6,149.3,169.9,156.4,169.9,167z M247.7,146.5c-3.6-1-4.5-2.7-8.7-3.1
		v-26.3c4.2,0,11.6,2.3,14.8,3.8l12.3,6.9L247.7,146.5z M200.4,128.7c3.6-5.2,19.6-11.5,27.2-11.5v26.4c-3.6,0.1-6.7,2.2-9.3,3.6
		L200.4,128.7z M255.4,154.2c6.1-4.1,14.7-16.6,19.2-17.8l6.6,11.9c1.7,3.3,3.9,10.7,4,15.2h-26.4
		C258.6,160,256.7,156.7,255.4,154.2z M207.6,163.5h-26.4c0-10.3,5.7-19.6,10.6-27.1l18.7,18.3C209.2,157.4,207.7,159.7,207.6,163.5
		z M234,184.8c-22.3,0-21.1-31.3-0.7-31.3c12.1,0,21.4,15.4,11.3,26.2C242.5,182,238,184.8,234,184.8z M274.6,202
		c-4.5-1.2-13.1-13.7-19.2-17.8c1.3-2.5,3.2-5.8,3.6-9.3h26.4C285,187.9,275.1,200.1,274.6,202z M181.3,174.9h26.4
		c0.1,3.8,1.5,6,2.9,8.6l-18.3,18.7C187,194.5,181.3,185.2,181.3,174.9z M200.6,209.7l18-18.3c2.4,1.2,5.5,3.3,9.1,3.4v26.4
		C220,221.2,203.9,214.8,200.6,209.7z M239,221.2v-26.4c4.2-0.3,5.1-2.1,8.6-2.9l18.7,18.3C264.6,210.9,251.4,221.2,239,221.2z
		 M296,139.3c0,12.9-3.1,8.6,22.2,9.2c3.6,0.1,4.1,0.7,6.2,2.4c21.5,16.8,14.2,13.4,44.3,13.4c3.1,0,2.1-2.7,2.1-9.3
		c0-3.5-7.2-2.1-14.2-2.1c-15.6,0-9.6,1.3-29.2-13.4c-2-1.5-2.9-2.2-6.4-2.2h-22.8C296.5,137.1,296,137.6,296,139.3z M296,191.9
		c0,12.1-4.2,9.3,25,9.3c8.3,0,19.4-15.4,26.3-15.7l17.2,0.1c7.3,0.1,6.4,1.2,6.4-9.3c0-1.7-0.5-2.1-2.1-2.1h-24.3
		c-3.5,0-7.9,4.1-10.4,6c-3.4,2.5-6,4.5-9.3,7.1c-4.9,3.8-5.4,2.6-13.7,2.6C304.1,189.8,296,188.5,296,191.9z M306.6,174.9H328
		v-11.4h-21.4V174.9z M412.1,116.5h11.4V108c0-1.7-0.5-2.1-2.1-2.1h-9.3L412.1,116.5L412.1,116.5z M412.1,232.6h9.3
		c1.7,0,2.1-0.5,2.1-2.1v-8.6H412L412.1,232.6L412.1,232.6z M525.2,149.1v13.6h-16.5c-4.5,0-7.9,4.2-7.9,7v13.2h-13.6
		c-3.4,0-3.4,4.1,0,4.1h13.6v17.8c-4.8,0-8.2-0.8-8.2,2.4c0,3.8,8.2-0.3,8.2,2.9V227h-14.4c-2.6,0-1.4,3.2-1.2,3.8
		c3.8,0.9,11.4,0.4,15.7,0.4v17.7c-6.2,0-8.2-0.8-8.2,2.4c0,2.4,3.9,1.7,8.2,1.7c0,19.2,1.4,18.2-3.3,18.2c-5.7-0.1-12.8-1.2-12.8,2
		c0,1.3,1.5,2.1,2.9,2.1h13.2V288c0,3.1,4,7,7,7h17.3v14.1c0,2,4.1,2.9,4.1-0.8v-13.2h17.7c0,5.1-0.7,6.3,1.4,8
		c0.1,0,0.2,0.1,0.3,0.2c3.2-0.8,2.4-1.7,2.4-8.2h18.2v14.1c0,2,4.1,2.9,4.1-0.8v-13.2H591c0,7.4-0.6,6.8,2.1,8.2
		c2.7-1.4,2.1-0.8,2.1-8.2h17.7v12.7c0,3.6,4.5,4.5,4.5-0.8v-12h19.4c4.2,0,7.9-3.8,7.9-7.9v-12h12.7c3.8,0,3.3-4.1,1.2-4.1h-14.1
		v-18.2c4.8,0,7.9,0.8,7.9-2.1c0-2.8-4.7-2.1-7.9-2.1v-17.7h13.6c2.5,0,1.9-2.5,1.7-3.8c-3.8-0.9-11-0.4-15.3-0.4v-18.2
		c5.6,0,7.9,0.8,7.9-2.1c0-2.7-5.2-2.1-7.9-2.1v-17.7h13.6c2.6,0,2.6-4.1,0-4.1h-13.6v-12.4c0-4.1-3.8-7.9-7.9-7.9h-19.4v-12
		c0-2.1-0.6-3.6-2.4-3.6c-0.3,0-0.7,0-1,0.3c-1.8,1.3-1,11-1,15.2h-17.7c0-3.6,0.3-4.5-0.4-7.4c-4.5-1-3.8,1.1-3.8,7.4h-17.7v-12.7
		c0-3.8-4.1-3.3-4.1-1.2v14.1H551c0-4.8,0.8-7.9-2.1-7.9c-2.7,0-2.1,5.2-2.1,7.9h-17.7v-13.6C529.3,146.4,525.2,146.4,525.2,149.1z
		 M636.9,290.9H508.7c-2,0-3.8-1.7-3.8-3.8V170.4c0-2.5,1.9-3.8,4.5-3.8h127c2.4,0,4.1,1.8,4.1,4.1v116
		C640.7,288.8,639.2,290.9,636.9,290.9z M509.1,210.9v35.9c0,2.4,4.2,5.6,5.7,7.1c1.4,1.4,2.4,1.7,2.6,4l-0.1,19.5
		c0.1,2.2,0.7,3.5,1.8,4.7c0.8,0.9,2.9,2.3,4.4,2.3h97.8c9.3,0,7-12.5,7-18.6c0-7.7-1-8.5,1.7-11c1.1-1,6.1-5.3,6.1-6.7v-38.3
		c0-1.4-5-5.6-6.1-6.7c-2.7-2.5-1.7-3.5-1.7-11c0-6,2.3-18.6-7-18.6h-96.9c-3.5,0-6.7,3-7,6.2c-0.4,4.7,0.2,14.1,0,19.8
		C517.3,204.2,509.1,206.7,509.1,210.9z M513.2,245.9v-34.2c0-1.2,3.2-3.9,4.1-4.5v43.3C516.5,249.9,513.2,247.2,513.2,245.9z
		 M628.3,250.5v-43.3c0.9,0.6,3.8,3,3.8,4.1v35.1C632,247.5,629.1,249.9,628.3,250.5z M620.8,280.2H524c-1,0-2.4-1.5-2.4-2.4V180
		c0-1.3,1.8-2.4,3.3-2.4h96.1c2,0,3.3,1.3,3.3,3.3v96.1C624.2,278.9,622.9,280.2,620.8,280.2z M535.5,191.9
		c-1,4.5-0.4,62.1-0.4,71.7c0,1.9,1,2.9,2.9,2.9c9.7,0,67.1,0.7,71.7-0.4c0.4-1,0.8-1.8,0.8-3.3v-68.4c0-2-1.3-3.3-3.3-3.3h-68.4
		C537.3,191.1,536.4,191.5,535.5,191.9z M539.2,195.7H606v66.8h-66.8V195.7z M574.2,199.3c0,13.2-2.2,11.2,10.7,11.2
		c3.1,0,2.1-6.1,2.1-10.7c0-3.1-6.3-2.1-11.2-2.1C574.9,197.7,574.2,198.4,574.2,199.3z M578.3,201.8h4.5v4.5h-4.5V201.8z
		 M589.9,215.8c0,13.4-2.3,11.2,10.7,11.2c2.9,0,2.1-6.4,2.1-9.9c0-4-3.8-2.9-11.2-2.9C590.6,214.2,589.9,214.9,589.9,215.8z
		 M594.1,218.3h4.5v4.5h-4.5V218.3z M574.7,231.1c-0.8,3.3-0.4,7.2-0.4,10.7c0,2.6,5.2,1.7,10.7,1.7c3.1,0,2.1-6.1,2.1-10.7
		c0-3.1-5.8-2.1-10.3-2.1C576.1,230.7,575.2,230.9,574.7,231.1z M578.3,234.8h4.5v4.5h-4.5V234.8z M574.2,215.8
		c0,13.2-2.2,11.2,10.7,11.2c3.1,0,2.1-6.1,2.1-10.7c0-3.1-5.8-2.1-10.3-2.1C575.5,214.2,574.2,214.6,574.2,215.8z M578.3,218.3h4.5
		v4.5h-4.5V218.3z M558.6,249.3c0,12.8-2,10.7,11.2,10.7c2.5,0,1.7-6.6,1.7-10.7c0-3.1-6.1-2.1-10.7-2.1
		C559.7,247.2,558.6,248.3,558.6,249.3z M562.7,251.3h4.5v4.5h-4.5V251.3z M542.9,216.3c0,12.5-1.7,10.7,10.3,10.7
		c3.6,0,2.4-2.6,2.4-11.2c0-2.5-6.6-1.7-10.7-1.7C544,214.2,542.9,215.3,542.9,216.3z M547,218.3h4.5v4.5H547V218.3z M589.9,232.3
		c0,13.4-2.3,11.2,10.7,11.2c2.9,0,2.1-6.4,2.1-9.9c0-3.9-4.2-2.9-10.3-2.9C591.2,230.7,589.9,231,589.9,232.3z M594.1,234.8h4.5
		v4.5h-4.5V234.8z M589.9,248.8c0,13.4-2.3,11.2,10.7,11.2c2.9,0,2.1-6.4,2.1-9.9c0-3.9-4.2-2.9-10.3-2.9
		C591.2,247.2,589.9,247.5,589.9,248.8z M594.1,251.3h4.5v4.5h-4.5V251.3z M589.9,199.3c0,13.2-2.2,11.2,10.7,11.2
		c2.9,0,2.1-6.4,2.1-9.9c0-4-3.8-2.9-11.2-2.9C590.6,197.7,589.9,198.4,589.9,199.3z M594.1,201.8h4.5v4.5h-4.5V201.8z M542.9,199.8
		c0,12.5-1.7,10.7,10.3,10.7c1.1,0,1.1-0.2,2.1-0.4c0.8-3.3,0.4-7.2,0.4-10.7c0-2.6-5.2-1.7-10.7-1.7
		C544,197.7,542.9,198.8,542.9,199.8z M547,201.8h4.5v4.5H547V201.8z M542.9,232.8c0,12.7-1.9,10.7,11.2,10.7
		c2.6,0,1.7-5.1,1.7-10.3c0-1.1-0.2-1.1-0.4-2.1c-3.2-0.8-6.5-0.4-10.3-0.4C544,230.7,542.9,231.8,542.9,232.8z M547,234.8h4.5v4.5
		H547V234.8z M559,198.1c-0.8,3.2-0.4,6.5-0.4,10.3c0,3.1,6.1,2.1,10.7,2.1c3.1,0,2.1-5.8,2.1-10.3c0-1.1-0.2-1.1-0.4-2.1
		C568.5,197.5,561.2,197.2,559,198.1z M562.7,201.8h4.5v4.5h-4.5V201.8z M574.7,247.6c-0.8,3.3-0.4,7.2-0.4,10.7
		c0,2.6,5.1,1.7,10.3,1.7c1.1,0,1.1-0.2,2.1-0.4c0.7-3.1,0.4-5.8,0.4-9.5c0-3.9-4.2-2.9-10.3-2.9
		C576.1,247.2,575.2,247.4,574.7,247.6z M578.3,251.3h4.5v4.5h-4.5V251.3z M559,214.6c-0.7,3.1-0.7,8.9,0,12c3.1,0.7,8.9,0.7,12,0
		c0.7-3.1,0.7-8.9,0-12C568.5,214,561.2,213.7,559,214.6z M562.7,218.3h4.5v4.5h-4.5V218.3z M542.9,250c0,3.8-0.3,6.4,0.4,9.5
		c3.3,0.8,7.2,0.4,10.7,0.4c2.6,0,1.7-5.1,1.7-10.3c0-1.1-0.2-1.1-0.4-2.1c-3.1-0.7-5.8-0.4-9.5-0.4
		C543.9,247.2,542.9,248.1,542.9,250z M547,251.3h4.5v4.5H547V251.3z M558.6,232.8c0,3.8-0.3,7.2,0.4,10.3c3.1,0.7,8.9,0.7,12,0
		c0.8-3.2,0.4-6.5,0.4-10.3c0-3.1-6.1-2.1-10.7-2.1C559.7,230.7,558.6,231.8,558.6,232.8z M562.7,234.8h4.5v4.5h-4.5V234.8z
		 M340.3,480l0.3-1.2L340.3,480z"/>
</g>
<g>
	<path class="st0" d="M339.8,864.4l-20-67.6h18.3l12.8,48.4l12.8-48.4h18.1l-20,67.6H339.8z"/>
	<path class="st0" d="M394.6,864.9c-3.8,0-6.8-1.1-9.1-3.4c-2.3-2.2-3.5-5.3-3.5-9.1v-5c0-3.6,1.3-6.7,4-9.1
		c2.7-2.4,6.9-3.6,12.7-3.6h9.8v-1.5c0-1.2-0.2-2.2-0.6-2.9s-1.3-1.2-2.6-1.5c-1.3-0.3-3.4-0.4-6.1-0.4h-14.3v-10.1
		c2.5-1,5.5-1.9,8.8-2.5c3.3-0.7,7.4-1,12.1-1c4.1,0,7.7,0.5,10.8,1.4c3.1,0.9,5.4,2.6,7.1,5.1s2.5,6,2.5,10.6v32.5h-14l-2.7-4.9
		c-0.6,0.6-1.4,1.2-2.2,1.8c-0.9,0.6-1.9,1.2-3.1,1.8s-2.6,1-4.2,1.4C398.3,864.8,396.5,864.9,394.6,864.9z M403.9,852.9
		c0.3,0,0.6,0,1-0.1s0.7-0.1,1.1-0.2c0.4-0.1,0.7-0.2,1-0.3s0.6-0.2,0.9-0.3c0.2-0.1,0.5-0.2,0.6-0.3v-8.8l-3.7,0.5
		c-1.7,0.2-3,0.7-3.9,1.3s-1.3,1.6-1.3,3v1.8c0,0.8,0.2,1.4,0.5,2c0.3,0.5,0.8,0.9,1.5,1.1C402.2,852.8,403,852.9,403.9,852.9z"/>
	<path class="st0" d="M434,864.4v-49h13.7l3.9,6.8c1.5-2,3.1-3.8,5-5.3s4.2-2.3,7-2.3c0.5,0,1.1,0,1.7,0.1c0.7,0.1,1.3,0.2,1.9,0.4
		v18.1c-1-0.1-2.1-0.2-3.1-0.3c-1.1-0.1-2-0.1-2.9-0.1c-1.5,0-2.8,0.1-4,0.4c-1.2,0.3-2.3,0.7-3.2,1.2c-0.9,0.5-1.7,1.3-2.4,2.2
		v27.8L434,864.4L434,864.4z"/>
	<path class="st0" d="M475.1,809.2c-1.5,0-2.2-0.7-2.2-2.1V797c0-1.5,0.7-2.3,2.2-2.3H489c0.7,0,1.2,0.2,1.5,0.6
		c0.3,0.4,0.5,1,0.5,1.6V807c0,1.4-0.7,2.1-2,2.1h-13.9V809.2z M473.1,864.4v-49h17.7v49H473.1z"/>
	<path class="st0" d="M509.8,864.9c-3.8,0-6.8-1.1-9.1-3.4c-2.3-2.2-3.5-5.3-3.5-9.1v-5c0-3.6,1.3-6.7,4-9.1
		c2.7-2.4,6.9-3.6,12.7-3.6h9.8v-1.5c0-1.2-0.2-2.2-0.6-2.9c-0.4-0.7-1.3-1.2-2.6-1.5s-3.4-0.4-6.1-0.4h-14.3v-10.1
		c2.5-1,5.5-1.9,8.8-2.5c3.3-0.7,7.4-1,12.1-1c4.1,0,7.7,0.5,10.8,1.4s5.4,2.6,7.1,5.1c1.7,2.5,2.5,6,2.5,10.6v32.5h-14l-2.7-4.9
		c-0.6,0.6-1.4,1.2-2.2,1.8c-0.9,0.6-1.9,1.2-3.1,1.8c-1.2,0.6-2.6,1-4.2,1.4C513.5,864.8,511.7,864.9,509.8,864.9z M519.1,852.9
		c0.3,0,0.6,0,1-0.1s0.7-0.1,1.1-0.2c0.4-0.1,0.7-0.2,1-0.3s0.6-0.2,0.9-0.3c0.2-0.1,0.5-0.2,0.6-0.3v-8.8l-3.7,0.5
		c-1.7,0.2-3,0.7-3.9,1.3s-1.3,1.6-1.3,3v1.8c0,0.8,0.2,1.4,0.5,2c0.3,0.5,0.8,0.9,1.5,1.1C517.4,852.8,518.2,852.9,519.1,852.9z"/>
	<path class="st0" d="M565.4,864.9c-3.7,0-6.9-0.8-9.5-2.3s-4.6-4.1-6-7.7c-1.4-3.6-2-8.4-2-14.5s0.5-11,1.6-14.8s2.9-6.6,5.6-8.4
		c2.7-1.8,6.4-2.7,11.2-2.7c1.9,0,3.9,0.2,5.8,0.5c1.9,0.4,3.6,0.8,5.1,1.4V795h17.7v69.4H580l-2.7-4.5c-1.2,1-2.4,1.9-3.6,2.7
		c-1.3,0.8-2.6,1.3-3.9,1.7C568.3,864.8,566.9,864.9,565.4,864.9z M571.8,850.8c1.2,0,2.3-0.2,3.2-0.6c0.9-0.4,1.7-0.8,2.1-1.2
		v-19.8c-0.5-0.3-1.3-0.6-2.2-1s-1.8-0.5-2.7-0.5c-1.6,0-3,0.3-4,0.8s-1.7,1.7-2.1,3.4c-0.4,1.7-0.6,4.3-0.6,7.7
		c0,3.3,0.2,5.8,0.6,7.4c0.4,1.6,1.1,2.7,2,3.1C569.1,850.6,570.3,850.8,571.8,850.8z"/>
	<path class="st0" d="M624.8,864.9c-4.4,0-8.1-0.5-11.1-1.4s-5.4-2.4-7.2-4.4s-3.1-4.6-3.9-7.8c-0.8-3.2-1.2-7.1-1.2-11.6
		c0-4.9,0.4-9,1.2-12.2s2.1-5.8,4-7.7c1.8-1.9,4.2-3.3,7.2-4c3-0.8,6.7-1.2,11-1.2c4.4,0,8.1,0.4,11.1,1.3c3,0.8,5.4,2.2,7.2,4.1
		c1.8,1.9,3.1,4.5,3.9,7.7c0.8,3.2,1.2,7.3,1.2,12.1c0,4.7-0.4,8.7-1.1,11.9c-0.8,3.2-2,5.8-3.8,7.7s-4.2,3.3-7.2,4.2
		C633,864.4,629.3,864.9,624.8,864.9z M624.8,850.8c1.2,0,2.1-0.1,2.8-0.3s1.3-0.7,1.7-1.4s0.7-1.8,0.9-3.4c0.2-1.5,0.3-3.5,0.3-6.1
		s-0.1-4.6-0.3-6.1s-0.5-2.6-0.9-3.3s-1-1.2-1.7-1.4s-1.7-0.3-2.8-0.3c-1.2,0-2.1,0.1-2.8,0.3s-1.3,0.7-1.7,1.4s-0.7,1.8-0.9,3.3
		s-0.3,3.5-0.3,6.1s0.1,4.6,0.3,6.1s0.5,2.6,0.9,3.4c0.4,0.7,1,1.2,1.7,1.4S623.7,850.8,624.8,850.8z"/>
	<path class="st0" d="M673.4,864.9c-1.8,0-3.5-0.1-5.3-0.2c-1.8-0.1-3.5-0.3-5.1-0.5c-1.7-0.2-3.2-0.5-4.7-0.9s-2.8-0.8-3.9-1.3
		v-10.3h22.7c0.8,0,1.4-0.1,1.8-0.2c0.4-0.2,0.7-0.4,0.8-0.6c0.1-0.3,0.2-0.6,0.2-1v-1.2c0-0.6-0.2-1.1-0.6-1.4
		c-0.4-0.3-1.3-0.5-2.8-0.5h-8.2c-2.7,0-5.2-0.5-7.5-1.4s-4.1-2.4-5.5-4.5s-2-4.8-2-8.3v-3c0-3.2,0.6-5.8,1.8-8.1
		c1.2-2.2,3.4-3.9,6.5-5.1s7.4-1.8,13-1.8c2.2,0,4.5,0.1,6.8,0.4c2.3,0.3,4.4,0.6,6.4,1s3.5,0.9,4.6,1.4V828h-21.6
		c-0.9,0-1.6,0.1-2,0.4c-0.4,0.3-0.6,0.7-0.6,1.4v1.2c0,0.5,0.1,0.9,0.3,1.1c0.2,0.3,0.6,0.5,1.1,0.6s1.3,0.2,2.2,0.2h8.5
		c5.3,0,9.1,1.2,11.2,3.6c2.2,2.4,3.2,5.7,3.2,9.8v5c0,3.3-0.8,5.9-2.4,7.9c-1.6,2-3.9,3.4-7.1,4.3
		C682.2,864.5,678.2,864.9,673.4,864.9z"/>
</g>
</svg>
