<?xml version="1.0" encoding="utf-8"?>
<!-- Generator: Adobe Illustrator 24.0.2, SVG Export Plug-In . SVG Version: 6.00 Build 0)  -->
<svg version="1.1" id="Capa_1" xmlns="http://www.w3.org/2000/svg" xmlns:xlink="http://www.w3.org/1999/xlink" x="0px" y="0px"
	 viewBox="0 0 859.3 866.4" style="enable-background:new 0 0 859.3 866.4;" xml:space="preserve">
<style type="text/css">
	.st0{fill:#333333;}
	.st1{fill-rule:evenodd;clip-rule:evenodd;fill:#333333;}
</style>
<g>
	<path class="st0" d="M479.8,751.9c-1.9,0-3.8-0.1-5.7-0.2c-1.9-0.1-3.8-0.3-5.6-0.5c-1.8-0.2-3.5-0.5-5.1-0.9
		c-1.6-0.4-3-0.9-4.3-1.4v-11.2h24.8c0.9,0,1.5-0.1,1.9-0.2c0.4-0.2,0.7-0.4,0.8-0.7c0.1-0.3,0.2-0.6,0.2-1v-1.3
		c0-0.7-0.2-1.2-0.6-1.5c-0.4-0.4-1.4-0.5-3-0.5h-8.9c-3,0-5.7-0.5-8.2-1.5c-2.5-1-4.5-2.6-5.9-4.9c-1.5-2.2-2.2-5.3-2.2-9v-3.3
		c0-3.4,0.7-6.4,2-8.8c1.3-2.4,3.7-4.3,7-5.5c3.4-1.3,8.1-1.9,14.2-1.9c2.4,0,4.9,0.1,7.4,0.4c2.5,0.3,4.8,0.7,7,1.1
		c2.1,0.5,3.8,1,5,1.5v11.2H477c-1,0-1.7,0.1-2.2,0.4c-0.5,0.3-0.7,0.8-0.7,1.5v1.3c0,0.5,0.1,0.9,0.3,1.2c0.2,0.3,0.6,0.5,1.2,0.6
		c0.6,0.1,1.4,0.2,2.4,0.2h9.2c5.8,0,9.9,1.3,12.2,4c2.3,2.6,3.5,6.2,3.5,10.7v5.5c0,3.6-0.9,6.4-2.6,8.6c-1.7,2.2-4.3,3.7-7.7,4.7
		C489.3,751.5,485,751.9,479.8,751.9 M426.9,736.6c1.3,0,2.3-0.1,3.1-0.3c0.8-0.2,1.4-0.7,1.9-1.5c0.5-0.8,0.8-2,1-3.7
		c0.2-1.7,0.3-3.9,0.3-6.6c0-2.8-0.1-5-0.3-6.6c-0.2-1.6-0.5-2.8-1-3.6c-0.5-0.8-1.1-1.3-1.9-1.5c-0.8-0.2-1.8-0.3-3.1-0.3
		c-1.3,0-2.3,0.1-3.1,0.3c-0.8,0.2-1.4,0.7-1.9,1.5c-0.5,0.8-0.8,2-1,3.6c-0.2,1.6-0.3,3.8-0.3,6.6c0,2.8,0.1,5,0.3,6.6
		c0.2,1.7,0.5,2.9,1,3.7c0.5,0.8,1.1,1.3,1.9,1.5C424.6,736.5,425.6,736.6,426.9,736.6z M426.9,751.8c-4.8,0-8.8-0.5-12-1.5
		c-3.3-1-5.9-2.6-7.9-4.8c-2-2.2-3.4-5-4.3-8.5c-0.9-3.5-1.3-7.7-1.3-12.6c0-5.4,0.4-9.8,1.3-13.3c0.9-3.5,2.3-6.3,4.3-8.4
		c2-2.1,4.6-3.6,7.9-4.4c3.3-0.9,7.3-1.3,11.9-1.3c4.8,0,8.8,0.5,12,1.4c3.3,0.9,5.9,2.4,7.8,4.5c1.9,2.1,3.4,4.9,4.3,8.4
		c0.9,3.5,1.3,7.9,1.3,13.1c0,5.2-0.4,9.5-1.2,13c-0.8,3.5-2.2,6.3-4.2,8.4c-1.9,2.1-4.6,3.6-7.8,4.6
		C435.8,751.4,431.7,751.8,426.9,751.8z M311.6,751.3v-53.4h16.1l3.2,5.2c2.1-1.7,4.4-3.1,6.8-4.3c2.4-1.2,5.6-1.8,9.7-1.8
		c3.3,0,6,0.7,8.2,2c2.1,1.4,3.8,3.1,4.9,5.2c1.4-1.1,3-2.1,4.8-3.3c1.8-1.1,3.7-2.1,5.8-2.8c2.1-0.8,4.2-1.1,6.3-1.1
		c4.6,0,8.1,0.8,10.6,2.4c2.5,1.6,4.2,4,5.1,7c0.9,3.1,1.4,6.8,1.4,11.1v33.7H375v-31.9c0-1.4-0.2-2.4-0.7-3.2
		c-0.5-0.7-1.1-1.2-1.8-1.5c-0.8-0.3-1.7-0.4-2.7-0.4c-1.3,0-2.6,0.3-4,0.9c-1.3,0.6-2.4,1.3-3.3,2.2c0,0.4,0,0.8,0,1.2
		c0,0.4,0,0.8,0,1.2v31.5h-19.2v-31.9c0-1.4-0.2-2.4-0.7-3.2c-0.5-0.7-1.1-1.2-1.8-1.5c-0.8-0.3-1.7-0.4-2.7-0.4
		c-0.9,0-1.8,0.1-2.7,0.4c-0.9,0.3-1.8,0.6-2.5,1.1c-0.8,0.5-1.4,1-2,1.6v34H311.6z M266.8,751.9c-4.6,0-8.3-1.5-10.9-4.4
		c-2.6-2.9-4-6.8-4-11.6v-38h19.2v31.9c0,2,0.5,3.4,1.5,4.1c1,0.7,2.2,1,3.8,1c1,0,2.3-0.3,3.8-0.9c1.6-0.6,2.7-1.3,3.4-2.2v-34
		h19.2v53.4h-16.1l-3.2-5.2c-2.2,1.5-4.8,2.8-7.7,4C273.1,751.3,270,751.9,266.8,751.9z M221.9,751.9c-1.9,0-3.8-0.1-5.7-0.2
		c-1.9-0.1-3.8-0.3-5.6-0.5c-1.8-0.2-3.5-0.5-5.1-0.9c-1.6-0.4-3-0.9-4.3-1.4v-11.2H226c0.9,0,1.5-0.1,1.9-0.2
		c0.4-0.2,0.7-0.4,0.8-0.7c0.1-0.3,0.2-0.6,0.2-1v-1.3c0-0.7-0.2-1.2-0.6-1.5c-0.4-0.4-1.4-0.5-3-0.5h-8.9c-3,0-5.7-0.5-8.2-1.5
		c-2.5-1-4.5-2.6-5.9-4.9c-1.5-2.2-2.2-5.3-2.2-9v-3.3c0-3.4,0.7-6.4,2-8.8c1.3-2.4,3.7-4.3,7-5.5c3.4-1.3,8.1-1.9,14.2-1.9
		c2.4,0,4.9,0.1,7.4,0.4c2.5,0.3,4.8,0.7,7,1.1c2.1,0.5,3.8,1,5,1.5v11.2h-23.5c-1,0-1.7,0.1-2.2,0.4c-0.5,0.3-0.7,0.8-0.7,1.5v1.3
		c0,0.5,0.1,0.9,0.3,1.2c0.2,0.3,0.6,0.5,1.2,0.6c0.6,0.1,1.4,0.2,2.4,0.2h9.2c5.8,0,9.9,1.3,12.2,4c2.3,2.6,3.5,6.2,3.5,10.7v5.5
		c0,3.6-0.9,6.4-2.6,8.6c-1.7,2.2-4.3,3.7-7.7,4.7C231.5,751.5,227.1,751.9,221.9,751.9z M142.3,751.3v-53.4h16.1l3.2,5.2
		c1.7-1.5,3.9-2.9,6.6-4.2c2.8-1.3,5.6-1.9,8.4-1.9c4.6,0,8.1,0.9,10.5,2.6c2.4,1.8,4,4.1,4.9,7.1c0.9,3,1.3,6.4,1.3,10.1v34.5H174
		v-31.9c0-1.4-0.2-2.4-0.7-3.2c-0.5-0.7-1.1-1.2-1.8-1.5c-0.8-0.3-1.7-0.4-2.7-0.4c-0.9,0-1.8,0.1-2.7,0.4c-0.9,0.3-1.8,0.6-2.5,1.1
		c-0.8,0.5-1.4,1-2,1.6v34H142.3z M113.3,751.3v-73.6h19.2v73.6H113.3z"/>
	<path class="st1" d="M118.4,396.8c-8-0.2-12.3-6.1-15,1.4c-0.6,1.6-0.9,2.8-1.4,4.5l-14.1,45.9c-1.1,3.1-1.8,6.2-2.8,9
		c-2.1,6.3-4.4,9.9,1.1,11.8c1.4,0.5,2.7,0.9,4.4,1.4l26.9,8.3c6.7,2.1,30.8,10.4,37.3,10.4c1.1-2.1,3.2-7.4,3.3-10.4
		c2.9,0.1,7.7,1.6,9.8,2.6c-1.3,2.8-2.6,7.6-2.6,11.8c3.3,1.8,14.5,4.7,19.2,6.3l97.3,30c3.4,1.1,6.3,2,9.5,2.9
		c5.9,1.8,25.3,8.4,30.1,8.4c1.6-2.4,1.3-1.6,2.2-4.9l16.3-52.9c3.3-10.1,15.5-24.2,16.7-29.6c-3.1-3.5-15.1-10.5-19.7-13.6
		l-34.6-22.2c-2.4-1.6-4.3-2.7-6.8-4.3l-13.5-8.7c-2.7-1.6-4.6-3-7.1-4.6c-4.7-3.2-9.2-5.7-14-8.9l-82.6-53.1
		c-2.5-1.6-4.3-2.6-6.8-4.3l-14-8.9c-2.4-1.6-4.5-3.1-7.1-4.6c-4.7-2.8-9.3-7.8-15-7.8l-21.3,32.9c-2.9,4.8-21.4,31.3-20.5,34.3
		c0.4,1.5,10.2,7.5,12.2,8.7L118.4,396.8z M138,320.5c2.7,1.4,4.1,2.3,6.5,3.9c2.3,1.5,4.3,2.7,6.8,4.3l26.2,16.8
		c2.4,1.6,4,2.5,6.4,4l164.2,105.4c-0.7,2.8-6.6,11.5-8.5,14.4l-27.4,43.1c-2.7-0.2-5.7-2.7-7.7-4c-2.7-1.8-4.4-2.9-7.3-4.4
		c1-1.8,5.9-9.1,5.9-10.4c0-0.3-2.4-7.8-7.7,0.8c-1.2,2-2.4,3.8-3.4,5.8c-2.3-0.6-5.2-3.1-7.3-4.4c-2.5-1.6-5.2-3.4-7.7-4.7
		c6.4-9.6,8.1-10.8,2.6-13.7c-4,2.1-4.4,4.7-7.8,9.8c-2.3-0.6-4.7-2.8-7-4.1c-2.3-1.3-5.2-3.8-7.4-4.4c0.3-3.3,10.5-13.7,2-13.7
		c-2.2,0-6.7,7.2-7.2,9.1c-3-0.3-10.2-5.9-15-8.5c1.1-4,4.8-6.7,5.9-11.1c-0.1-0.1-0.2-0.5-0.3-0.4l-0.9-1.1c-3.4-3-4.8-0.1-6.9,3.1
		c-1.3,2-2.4,3-3,5.5c-5.3-2.8-9.8-6.4-15-9.1c1-1.9,5.9-8.9,5.9-10.4c0-1.2-2.6-9.4-11.1,6.5c-2.4-0.6-11.5-7.3-15-9.1
		c6.4-9.6,8.1-10.8,2.6-13.7c-2.5,1.3-2.8,1.6-4.3,4.2c-1.3,2.3-2.2,3.6-3.5,5.6c-2-0.5-10.9-6.7-14.4-8.5
		c8.6-12.8,8.8-10.3-6.7-20.1c-5.1-3.3-5.8-4.3-9.3,1.5c-1.2,2.1-2.4,3.7-3.6,5.5c-4.1-2.2-11.7-7.9-14.4-8.5
		c0.4-4.9,10.8-12.1,1.3-14.4c-1.5,1.3-2.3,2.4-3.5,4.3c-1.1,1.6-2.5,3.7-3,5.5c-2.8-0.7-13.3-7.8-16.3-9.8c0.6-0.8,5.9-8.9,5.9-9.1
		c0-4.3-4-6.5-7.8,0c-1.1,2-2.1,3.4-3.3,5.2c-2.9-0.7-12.1-7.2-15-9.1c1.5-2.9,2.6-4.6,4.4-7.3c1.7-2.5,2.9-4.7,4.6-7.2l18.4-28.6
		C131.9,330.1,134.8,325.1,138,320.5z M327.3,501.3c-0.2,2.5-1.5,5.5-2.2,8.2c-0.9,3.1-1.6,4.9-2.5,8c-1.4,5.1-3.9,11.2-5.1,16.5
		l-15-4.6c0.6-7.4,6.9-13.1-2.6-13.1c-1.9,2.8-3,7.4-3.9,11.1c-1.9-0.9-12.7-4.4-15-4.6c0.2-7.7,5.2-9.2,0-13.7
		c-2.9,0.7-3.6,1.4-4.5,4c-0.7,1.9-1.6,5.2-2,7.1c-2.5-0.2-13.7-3.6-15.7-4.6c0.4-0.8,2.1-6.3,2.4-7.5c1.8-7.7-7.1-8.9-8.3,5.5
		c-2.5-0.2-5-1.4-7.7-2.1c-2.5-0.7-5.2-1.8-8-2.5c0.5-5.9,4.4-7.2,1.3-13.1c-7.4,0-4.3,3.8-7.8,11.1c-2.2-1-4.8-1.5-7.4-2.4
		c-2.8-0.9-4.7-1.5-7.6-2.2c0.2-6.8,7.3-13.1-2.6-13.1c-2,2.9-3,7.1-3.9,11.1c-4.6-2.2-11.1-3-15.7-5.2c1.3-2.7,5.1-11,0.9-12.7
		c-4.8-1.9-6.6,9.3-6.8,10.7c-5.5-0.5-10-3.8-15-3.9c0.4-4.7,2.6-5.8,2.6-11.8c-3.5-2.4-16.5-6.5-20.2-6.5
		c-1.9,2.8-3.6,7.6-3.9,11.1c-5.5-1.3-10.3-3.3-15.7-4.6c0.3-3.3,1.7-5.1,2.4-8.1c1-4.7-0.9-4.9-5-4.9c-0.9,1.8-1.3,3-2.1,5.1
		c-0.5,1.5-1.2,4.6-1.9,6c-3.3-1.6-13.1-3.7-16.3-5.2c0.5-5.7,3.5-5.9,2-12.4c-7.9-1.9-4.9,2.9-8.5,10.4c-4.2-1-11.7-4.2-15.7-4.6
		l16.6-54.6c0.9-2.6,1.8-5.6,2.4-8.1c4.1,2,22.7,5,27.9,7.4l16,10.1c10.4,7.1,7.4-1.9,13.6-6.4c3.7,0.9,5.1,3.7,8.5,4.6
		c-1.7,7.5-10.9,9.5-1.3,15.1l21.1,13.5c1.9,1.3,3.5,2.8,5.7,3.4c-0.1,6.6-8.6,21.5-5.1,24.6c1.8,1.6,21.3,7.4,25.3,7.4
		c0.9-1.4,1.2-1.2,1.9-2.7c0.6-1.3,0.7-2.5,1.2-4.1c0.9-3,2.1-5,2.2-8.3c2.1,0.5,13.3,8.3,16.1,10.1l48.6,31.1
		c1.5,1,20.8,13.9,22.2,13.7c2.7-1.4,2.5-1.7,4.2-4.3C318.8,514,325.6,502.5,327.3,501.3z M217.6,473.9c-5.5-1.3-10.3-3.3-15.7-4.6
		c0.3-3.2,3.7-11.8,4.6-15.7c2.5,0.7,10.2,6.3,14.4,8.5C220.2,463.5,217.6,471.9,217.6,473.9z M131.4,364.9c0,2.3,6.8,5.9,10.2,8.1
		l34.2,21.3c2.8,0,15.8-21.8,16.3-24.2c-3-3.5-11.9-8.5-16.2-11.2c-4.7-3-25.9-17.5-28.8-17.5c-2.2,0-3.6,3.6-4.6,5.2
		C140.8,349.4,131.4,362.6,131.4,364.9z M148.4,349.2c2.7,0.7,29.3,19.1,35.3,22.2c-1.1,4.9-7.3,10.6-8.5,15l-35.9-22.8L148.4,349.2
		z M161.5,460.2c4,0,6.3-11.3,7.8-17c3.2-11.7,7.9-9.6-25.8-19.2c-22.5-6.4-20.7-9.5-24.3,2.3c-6.8,22.3-7.8,18.1,4.4,22.2
		c6,2,12.7,4,18.9,5.9L161.5,460.2z M159.5,452.3c-3.2-0.3-6.6-1.7-9.2-2.5c-3.3-1-6.2-1.9-9.5-2.9l-19.2-5.6
		c0.2-2,3.8-14.1,4.6-15.7l37.9,11.8L159.5,452.3z M228.7,432.1c4.2-3.7,6.7-9.2,10-14.1c13.1-19.5,12.6-15-8.2-28.2
		c-2.3-1.5-3.8-3.1-7.1-3.4c-1.9,1.8-3.2,4-4.7,6.4c-1.6,2.5-2.7,4.4-4.3,6.8c-1.6,2.4-2.7,4.3-4.3,6.8c-1.6,2.4-3,4.3-4.4,6.7
		c-3,5.1,1.4,5.7,9,10.8C217.6,425.8,226,431.5,228.7,432.1z M227.4,424.3c-2.6-1.8-12.6-8.6-15-9.1c2.9-5.4,9.8-14.8,13.1-20.9
		l14.4,9.1c-0.7,2.9-7.4,12.1-9.3,15.5C229.3,420.7,227.9,422.2,227.4,424.3z M265.3,453.6c0,4.4,4.8,5.6,11.1,9.8
		c14.7,9.8,12.7,8.7,17.8,0.8l9.7-15.1c5.8-9.7,9.3-7-12.8-20.5c-2.4-1.5-3.9-3-6.8-3.6c-2.2,2-3.6,4-5.2,6.6l-9.2,14.3
		C269.1,446.8,265.3,452.7,265.3,453.6z M287.4,462.8l-14.4-9.1c0.7-2.9,4.4-7.3,6.1-10.2c2.2-3.7,4.4-6.4,6.3-10
		c4.5,1,11,7.6,15,8.5C297.3,448,290.3,457.4,287.4,462.8z M305.7,482.4c5,1.2,4,1.5,8.7-5.6c2.5-3.7,13.4-20.1,14.1-23.1
		c-1.1-1.2-3.7-5.5-7.2,0l-15.3,23.9C304,481.4,305.7,479.9,305.7,482.4z M190.2,401.4c0,9.4,10.9,0,7.6-4.3
		C194.4,392.4,190.2,399.7,190.2,401.4z M245,441.2c0,1.5,0.2,0.8,0.7,2.6c2.6,0.6,3.4,1.8,5.8-1.4c3.8-5,1.9-6.1-1.2-7.7
		C248.1,435.8,245,438.1,245,441.2z M201.9,383.1c0,2.8,1,2.7,3.3,3.9c2.1-1.1,1.9-0.5,3.3-2.6c2.7-4.1,2.4-7.2-2-7.2
		C203.8,377.3,201.9,383,201.9,383.1z M262,421.6c2.9,0,2.7,0,4.2-2.3c4.7-6.7-2.2-10-5.8-3.2C259.4,418.1,258.8,421.6,262,421.6z
		 M181,466c3.4-2.2,6.7-9.8,0-9.8C178.6,456.2,174,464.4,181,466z M380.1,474.7v192.2h420.1V474.7c0-3.6-48.6-104.6-56.1-120.2
		c-1.3-2.8-2.2-6.6-5.3-6.6H441.5c-3.5,0-7.5,10.9-8.8,14l-45.4,96.2C385.6,462.2,380.1,470.8,380.1,474.7z M445.5,358.8h289.3
		c1.3,5.7,10,22,12.7,28.9c6.5,16.1,27.3,58.7,36.5,78.5c1.4,3,1.9,5,3.3,7.6H393l26.2-57C423.7,405.8,443.9,365.7,445.5,358.8z
		 M390,484.6h400.2V656H390V484.6z M484.1,377.6c-6.3,0-13.3-0.9-16.8,4c0.9,3.2,1,2.9,4,4c2.3,0.9,3.7,0.9,6.9,1
		c5,0.2,9.7,0.9,11.9,4c-5.8,0.5-23.8,12.2-23.8,21.8v5.9c0,9,15.9,20,23.8,21.8c-2.1,2.9-4,2.3-12,4.8c-8.5,2.7-19.7,6.8-28.6,7.1
		c-8.5,0.2-9.8,1.8-14.9,3c0.1,4-0.5,3.7,2.5,5.4c3.8,2.1,12.5,1.6,17.3,1.6c7.3,0,8.2-3.3,13.8-5l30.4-9.3c6.9-2.4,8.6-0.8,15.6,1
		c41,10.3,100.6,11.2,143,2.1c22.9-4.9,10.5-7.9,42.5,2.6l12.6,4.3c7.9,5.4,5.7,4.3,20.5,4.3c5.3,0,8.8-1.8,10.9-5
		c-5.5-5.8-14.6-4.1-20.4-5.3c-5.6-1.2-31.2-9-33.1-11.5c9.8-2.3,37.5-20.1,15.6-40.4c-3.2-3-11-8.1-15.6-9.1v-2
		c3.6-0.3,18.4-2.7,22.8-5c-0.9-3.8-0.7-3.7-4.1-4.9c-14.1-4.9-28.6,5.7-33.5,5.5c-1.7-0.1-8.6-2-11-2.6
		c-44.5-11.2-102.5-10.4-147.2-0.6c-9.6,2.1-10.5,5.6-22,0.4C491.9,379.9,489.5,377.6,484.1,377.6z M521.8,388.5
		c4.8,0,32.1-5.9,54.5-5.9c25.4,0,43.5-0.3,68.5,3.8c4.8,0.8,8.8,2.1,13.7,2.1c-2,2.7-2.7,2.1-6.7,3.2c-2.7,0.7-4.3,1.9-7.8,1.4
		c-2.4-0.3-5.2-1.4-7.9-2c-3.2-0.7-5.3-1.1-8.4-1.5c-38.2-5.2-54.5-3.8-91.7,3.4C532.2,393.7,523.9,391.4,521.8,388.5z M506.9,413.3
		c0,14.9,8.2,12.5,12.9,18.8c-15.4,3.6-10.5,7.2-26.3,0.6c-24.8-10.3-25.6-24.3,0-34.8c14.1-5.8,10.6-4,19.6-1.6
		c4,1.1,4.7,0.5,6.7,3.2C515.2,400.7,506.9,407.6,506.9,413.3z M585.2,395.5c22.4,0,23.7,1.4,42.6,3l-3.3,1.6
		c-10.9,4.3-11.6,0.6-23.4,0.3c-12-0.3-10.8-2.7-30.7,1c-11.3,2.1-9.5-1.2-18.8-2l2.7-1.2C559.2,396.7,579.9,395.5,585.2,395.5z
		 M659.5,398.4c13.8-3.2,15-9.3,37.5,5.1c17.9,11.5,3.3,22.3-10.4,28.9c-14.7,7.1-11.5,3.3-27.1-0.3c0.8-0.7,28.1-15.5,4.8-30.5
		L659.5,398.4z M628.8,407.4c9.7-0.8,14.7-9,29.3,0.4c12.8,8.2,4.6,13.3-8.2,18.8c-7,3-11.3-2.6-20.1-3.3
		C632.1,414.4,636.4,418.7,628.8,407.4z M547.5,413.3c0,10.6,1.2,3.3,3,9.9c-11.1,0.9-12.3,6.2-20.2,3.4
		c-7.2-2.5-12.3-5.4-15.5-11.4c3.4-6.4,7.9-8.7,15.5-11.4c4.7-1.6,4.6-0.9,9.3,0.4c3.6,1,7.2,2.7,10.9,3
		C549.3,411.9,547.5,409.9,547.5,413.3z M584.2,408.3h10.9c-0.8,0.5-0.5,0.5-1.9,1.1C590.1,410.7,588.1,411.1,584.2,408.3z
		 M606,414.3c3.9-0.3,6.4-1.8,9.4-2.3c3.5-0.5,4.6,1.4,8.4,2.3v2C623,416.5,611.4,421.7,606,414.3z M556.5,414.3
		c3.3-0.8,5-2.5,7.8-2.4c2.9,0.1,5,2,9.1,2.4v2c-4.3,0.4-6.3,2-10.9,2c-1.9,0-3.2-1.3-5.9-2V414.3z M590.1,420.2
		c3.5,0,4.9,1.2,5.9,2h-12.9L590.1,420.2z M562.4,428.2c10.3,0,18.8,4.2,42.5,1.8c2.1-0.2,5.8-1.1,8.5-1.5c6.4-0.9,9.2,2.1,15.4,2.6
		l-3.7,1.3c-16.2,3.8-40.4,2.4-56.8,1.7c-5.8-0.2-11.6-1.9-16.8-2L562.4,428.2z M521.8,440c4-0.3,9.9-3,11.9-3
		c6.7,0,32.3,11.1,85.3,5l26.7-5c4.2,0,7,2.6,11.9,3v2c-3.9,0.1-9.1,1.3-12.9,2c-4.5,0.8-9.2,1.6-13.9,2
		c-32.1,2.7-62.3,3.5-94.2-1.8c-4.7-0.8-9.9-2.1-14.7-2.1V440z M686.2,563.9c0,2.5,13.3,15.9,15.9,15.9h58.5
		c2.5,0,15.9-13.3,15.9-15.9v-49.5h-90.2V563.9z M755.6,568.8h-49.5c-2.4,0-8.9-6.5-8.9-8.9v-34.7h68.4v33.7
		C765.5,561.4,758,568.8,755.6,568.8z M695.2,637.2h72.3v-40.6h-72.3V637.2z M745.7,610.4h2v12.9h-2V610.4z M704.1,605.5h26.7v22.8
		h-26.7V605.5z M485.1,620.3H498v-11.9h-12.9V620.3z M485.1,532.2H498v-11.9h-12.9V532.2z M485.1,642.1H498v-11.9h-12.9V642.1z
		 M658.5,620.3h12.9v-11.9h-12.9V620.3z M633.7,620.3h12.9v-11.9h-12.9V620.3z M609,620.3h12.9v-11.9H609V620.3z M584.2,620.3h12.9
		v-11.9h-12.9V620.3z M559.4,620.3h12.9v-11.9h-12.9V620.3z M534.7,620.3h12.9v-11.9h-12.9V620.3z M509.9,620.3h12.9v-11.9h-12.9
		V620.3z M460.4,620.3h12.9v-11.9h-12.9V620.3z M435.6,620.3h12.9v-11.9h-12.9V620.3z M410.8,620.3h12.9v-11.9h-12.9V620.3z
		 M509.9,532.2h12.9v-11.9h-12.9V532.2z M534.7,532.2h12.9v-11.9h-12.9V532.2z M435.6,642.1h12.9v-11.9h-12.9V642.1z M658.5,642.1
		h12.9v-11.9h-12.9V642.1z M633.7,642.1h12.9v-11.9h-12.9V642.1z M609,642.1h12.9v-11.9H609V642.1z M584.2,642.1h12.9v-11.9h-12.9
		V642.1z M559.4,642.1h12.9v-11.9h-12.9V642.1z M534.7,642.1h12.9v-11.9h-12.9V642.1z M509.9,642.1h12.9v-11.9h-12.9V642.1z
		 M460.4,642.1h12.9v-11.9h-12.9V642.1z M410.8,642.1h12.9v-11.9h-12.9V642.1z M485.1,510.4H498v-11.9h-12.9V510.4z M633.7,510.4
		h12.9v-11.9h-12.9V510.4z M609,510.4h12.9v-11.9H609V510.4z M509.9,510.4h12.9v-11.9h-12.9V510.4z M559.4,510.4h12.9v-11.9h-12.9
		V510.4z M584.2,510.4h12.9v-11.9h-12.9V510.4z M410.8,510.4h12.9v-11.9h-12.9V510.4z M435.6,510.4h12.9v-11.9h-12.9V510.4z
		 M460.4,510.4h12.9v-11.9h-12.9V510.4z M658.5,510.4h12.9v-11.9h-12.9V510.4z M534.7,510.4h12.9v-11.9h-12.9V510.4z M435.6,523.3
		v8.9h12.9v-11.9h-9.9C436.3,520.3,435.6,521,435.6,523.3z M658.5,532.2h12.9v-8.9c0-2.3-0.7-3-3-3h-9.9V532.2z M633.7,532.2h12.9
		v-8.9c0-2.3-0.7-3-3-3h-9.9V532.2z M584.2,532.2h12.9v-8.9c0-2.3-0.7-3-3-3h-9.9V532.2z M460.4,523.3v8.9h12.9v-11.9h-9.9
		C461.1,520.3,460.4,521,460.4,523.3z M410.8,523.3v8.9h12.9v-11.9h-9.9C411.5,520.3,410.8,521,410.8,523.3z M559.4,532.2h12.9v-8.9
		c0-2.3-0.7-3-3-3h-9.9V532.2z M609,532.2h12.9v-8.9c0-2.3-0.7-3-3-3H609V532.2z M485.1,595.6c0,4,2.8,3,9.9,3c4.1,0,3-3.4,3-11.9
		h-12.9V595.6z M633.7,595.6c0,4,2.8,3,9.9,3c4.1,0,3-3.4,3-11.9h-12.9V595.6z M509.9,595.6c0,4,2.8,3,9.9,3c4.1,0,3-3.4,3-11.9
		h-12.9V595.6z M534.7,595.6c0,4,2.8,3,9.9,3c4.1,0,3-3.4,3-11.9h-12.9V595.6z M584.2,595.6c0,4,2.8,3,9.9,3c4.1,0,3-3.4,3-11.9
		h-12.9V595.6z M410.8,595.6c0,4,2.8,3,9.9,3c4.1,0,3-3.4,3-11.9h-12.9V595.6z M658.5,595.6c0,4,2.8,3,9.9,3c4.1,0,3-3.4,3-11.9
		h-12.9V595.6z M460.4,595.6c0,4,2.8,3,9.9,3c4.1,0,3-3.4,3-11.9h-12.9V595.6z M559.4,595.6c0,4,2.8,3,9.9,3c4.1,0,3-3.4,3-11.9
		h-12.9V595.6z M435.6,595.6c0,4,2.8,3,9.9,3c4.1,0,3-3.4,3-11.9h-12.9V595.6z M609,595.6c0,4,2.8,3,9.9,3c4.1,0,3-3.4,3-11.9H609
		V595.6z M485.1,575.8H498v-10.9h-12.9V575.8z M485.1,554H498v-10.9h-12.9V554z M460.4,575.8h12.9v-10.9h-12.9V575.8z M435.6,575.8
		h12.9v-10.9h-12.9V575.8z M410.8,575.8h12.9v-10.9h-12.9V575.8z M658.5,554h12.9v-10.9h-12.9V554z M633.7,554h12.9v-10.9h-12.9V554
		z M609,554h12.9v-10.9H609V554z M559.4,575.8h12.9v-10.9h-12.9V575.8z M559.4,554h12.9v-10.9h-12.9V554z M509.9,554h12.9v-10.9
		h-12.9V554z M584.2,575.8h12.9v-10.9h-12.9V575.8z M460.4,554h12.9v-10.9h-12.9V554z M633.7,575.8h12.9v-10.9h-12.9V575.8z
		 M435.6,554h12.9v-10.9h-12.9V554z M410.8,554h12.9v-10.9h-12.9V554z M584.2,554h12.9v-10.9h-12.9V554z M658.5,575.8h12.9v-10.9
		h-12.9V575.8z M509.9,575.8h12.9v-10.9h-12.9V575.8z M609,575.8h12.9v-10.9H609V575.8z M534.7,575.8h12.9v-10.9h-12.9V575.8z
		 M534.7,554h12.9v-10.9h-12.9V554z M743.7,535.1c0,14.8-1.7,12.9,8.9,12.9v-15.9C746.2,532.2,743.7,531.3,743.7,535.1z
		 M726.9,563.9h8.9V549h-8.9V563.9z M710,548h7.9v-15.9H710V548z M717,623.3c15.3,0,5.9-20.1-3.4-11.4
		C708.8,616.4,712.7,623.3,717,623.3z M720.9,614.4C720.6,627.7,707.9,611.7,720.9,614.4z M59.5,10.6c0,1.9,0.6,2.4,2.4,2.4h22v22.8
		H71.7V49h12.2v11.4c-7.8,0-15.4-1.2-20.4,3.3c-1.9,1.7-4.1,4.6-4.1,8.1v38.3c0,3.5,2.6,6.6,4.6,8.4c4.5,4,12.8,3,19.8,3V133H71.7
		v12.2h12.2v11.4H71.7v13.1h12.2v11.4c-29.3,0-24.5,2.1-24.5,49.8c0,6,6.1,11.4,14.7,11.4h9.8v11.4H71.7V266h12.2
		c0,26-3.1,24.5,17.1,24.5c5.4,0,8.4-6.5,10.9-10.3c2.2-3.3,7.1-9.6,8.1-13.2c1.5-5.4,0.6-33.2,0.6-41.8c3.9,2.6,7.7,6.1,11.4,9
		c2,1.5,3.9,3,5.9,4.7c5.6,4.7,7.5,3.4,17.8,3.4v11.4h-11.4V266c27.4,0,24.5,3.5,24.5-23.7h23.7v13.1c0,5,5.6,10.6,10.6,10.6
		c23.5,0,26.1,0.8,26.1-23.7h11.4c0,7.2-1.8,23.7,10.6,23.7h99.5c8.3,0,11.4-8.9,11.4-17.1v-6.5H385c0,9-1.1,12.6,3.9,17.4
		c9.1,8.8,3.2,6.3,32.9,6.3v-12.2c-26.9,0-23.7,2.7-23.7-11.4h33.5c8.6,0,14.7-5.4,14.7-11.4V59.6c0-7.1-6.5-10.1-12.2-11.4
		c0-5.1,0.8-12.6-0.8-16.4c-1.3-3.2-5.5-7.3-9.9-7.3H154.9c-12,0-11.4,16.5-11.4,23.7c-2.9,1.5-3.3,1.6-6.1,3.7l-16.8,12.6
		c0-8.5,0.9-35.7-0.6-41c-1-3.6-5.9-9.9-8.1-13.2C109.5,6.5,106.5,0,101.1,0H59.5V10.6z M156.6,36.7h265.2v11.4H156.6V36.7z
		 M276.5,97.1h38.3c6.2,0,22,18,28.6,18H434v11.4h-60.4v13.1H434V151h-60.4V164H434v11.4h-97.9c-4,0-16.4,18-20.4,18h-39.2v12.2
		h44.1c4,0,16.4-18,20.4-18h93v41.6h-94.7c-3.5,0-2.4,3.1-2.4,10.6c0,3.6,3.8,2.4,12.2,2.4v11.4h-96.3v-11.4h72.6v-13.1H146.8
		c-1.5,0-11.2-8.4-13.1-9.8c-2.7-2.1-9.8-8.9-13.1-9.8V80c4.5-3,8.2-6,12.7-9.3c1.9-1.4,11.9-9.4,13.4-9.4H434v41.6h-87.3
		c-3,0-23.1-18-26.1-18h-44.1V97.1z M71.7,73.4h12.2v35.1H71.7V73.4z M71.7,194.2h12.2v35.1H71.7V194.2z M204.7,242.3h11.4v11.4
		h-11.4V242.3z M99.4,277.4h-3.3V13.1h3.3c1,3.9,8.2,11.2,8.2,13.9v236.6C107.6,266.2,100.5,273.5,99.4,277.4z M132.1,142.8
		c0,17,3.7,31.7,12.9,44.2l8.1,9.9c27.3,27.3,73.2,29.1,103.2-0.8c27.9-27.8,28.1-73.6,0-101.6C234.6,72.8,201,66,174.5,79.1
		c-7.6,3.8-14.7,8.5-21,14.1c-4.3,3.9-11.8,14.7-14.5,20.6C135.2,122.5,132.1,130.6,132.1,142.8z M221.2,119.3
		c-4.1-1.1-5.2-3.1-10-3.5V85.7c4.8,0,13.3,2.6,16.9,4.3l14.1,7.9L221.2,119.3z M167,98.9c4.1-6,22.5-13.2,31.2-13.2v30.2
		c-4.1,0.1-7.7,2.5-10.6,4.1L167,98.9z M230,128.1c7-4.7,16.8-19,22-20.4l7.6,13.6c1.9,3.8,4.5,12.3,4.6,17.4h-30.2
		C233.7,134.7,231.5,131,230,128.1z M175.3,138.7h-30.2c0-11.8,6.5-22.4,12.2-31l21.4,21C177.1,131.8,175.4,134.4,175.3,138.7z
		 M205.5,163.2c-25.5,0-24.2-35.9-0.8-35.9c13.9,0,24.5,17.7,12.9,30C215.2,159.9,210.1,163.2,205.5,163.2z M252,182.8
		c-5.2-1.4-15-15.7-22-20.4c1.5-2.9,3.7-6.6,4.1-10.6h30.2C263.9,166.7,252.6,180.7,252,182.8z M145.1,151.8h30.2
		c0.1,4.3,1.7,6.9,3.3,9.8l-21,21.4C151.6,174.3,145.1,163.6,145.1,151.8z M167.2,191.7l20.6-21c2.8,1.4,6.3,3.8,10.4,3.9v30.2
		C189.5,204.8,171,197.5,167.2,191.7z M211.2,204.8v-30.2c4.8-0.4,5.9-2.4,9.8-3.3l21.4,21C240.5,193,225.4,204.8,211.2,204.8z
		 M276.5,111c0,14.8-3.5,9.9,25.4,10.5c4.1,0.1,4.7,0.8,7.1,2.7c24.6,19.2,16.3,15.3,50.8,15.3c3.5,0,2.4-3.1,2.4-10.6
		c0-4-8.3-2.4-16.3-2.4c-17.9,0-11,1.5-33.5-15.4c-2.3-1.7-3.3-2.5-7.3-2.5h-26.1C277.1,108.5,276.5,109.1,276.5,111z M276.5,171.3
		c0,13.9-4.8,10.6,28.6,10.6c9.5,0,22.2-17.6,30.1-18l19.7,0.1c8.4,0.1,7.3,1.4,7.3-10.6c0-1.9-0.6-2.4-2.4-2.4H332
		c-4,0-9,4.7-11.9,6.9c-3.9,2.9-6.9,5.1-10.7,8.1c-5.6,4.4-6.2,3-15.7,3C285.8,168.9,276.5,167.4,276.5,171.3z M288.7,151.8h24.5
		v-13.1h-24.5V151.8z M409.5,84.9h13.1v-9.8c0-1.9-0.6-2.4-2.4-2.4h-10.6V84.9z M409.5,217.9h10.6c1.9,0,2.4-0.6,2.4-2.4v-9.8h-13.1
		V217.9z M539.1,122.2v15.6h-18.9c-5.1,0-9,4.8-9,8v15.1h-15.6c-3.9,0-3.9,4.7,0,4.7h15.6V186c-5.5,0-9.4-0.9-9.4,2.8
		c0,4.3,9.4-0.4,9.4,3.3v19.4h-16.5c-3,0-1.6,3.7-1.4,4.3c4.4,1,13.1,0.5,18,0.5v20.3c-7.1,0-9.4-0.9-9.4,2.8c0,2.8,4.5,1.9,9.4,1.9
		c0,22,1.6,20.9-3.8,20.8c-6.5-0.1-14.7-1.4-14.7,2.3c0,1.5,1.7,2.4,3.3,2.4h15.1v14.6c0,3.5,4.6,8,8,8h19.8v16.1
		c0,2.3,4.7,3.3,4.7-0.9v-15.1h20.3c0,5.8-0.8,7.2,1.6,9.2c0.1,0,0.2,0.1,0.3,0.2c3.7-0.9,2.8-1.9,2.8-9.4h20.8v16.1
		c0,2.3,4.7,3.3,4.7-0.9v-15.1h20.3c0,8.5-0.7,7.8,2.4,9.4c3.1-1.6,2.4-0.9,2.4-9.4h20.3v14.6c0,4.1,5.2,5.2,5.2-0.9v-13.7h22.2
		c4.8,0,9-4.3,9-9v-13.7h14.6c4.3,0,3.8-4.7,1.4-4.7h-16.1v-20.8c5.5,0,9,0.9,9-2.4c0-3.2-5.4-2.4-9-2.4v-20.3h15.6
		c2.9,0,2.2-2.9,1.9-4.3c-4.3-1-12.6-0.5-17.5-0.5v-20.8c6.4,0,9,0.9,9-2.4c0-3.1-6-2.4-9-2.4v-20.3h15.6c3,0,3-4.7,0-4.7h-15.6
		v-14.2c0-4.7-4.3-9-9-9h-22.2v-13.7c0-2.4-0.7-4.1-2.8-4.1c-0.4,0-0.8,0-1.2,0.4c-2.1,1.5-1.1,12.6-1.1,17.4h-20.3
		c0-4.1,0.3-5.1-0.5-8.5c-5.1-1.2-4.3,1.3-4.3,8.5h-20.3v-14.6c0-4.3-4.7-3.8-4.7-1.4v16.1h-20.8c0-5.5,0.9-9-2.4-9
		c-3.1,0-2.4,6-2.4,9h-20.3v-15.6C543.8,119.2,539.1,119.2,539.1,122.2z M667.1,284.7H520.2c-2.3,0-4.3-1.9-4.3-4.3V146.7
		c0-2.9,2.2-4.3,5.2-4.3h145.5c2.7,0,4.7,2.1,4.7,4.7V280C671.4,282.3,669.7,284.7,667.1,284.7z M520.7,193v41.1
		c0,2.7,4.8,6.4,6.5,8.1c1.6,1.6,2.8,2,3,4.6l-0.1,22.3c0.1,2.5,0.8,4,2.1,5.4c0.9,1,3.3,2.6,5,2.6h112c10.7,0,8-14.3,8-21.3
		c0-8.8-1.1-9.7,2-12.6c1.3-1.2,7-6.1,7-7.7v-43.9c0-1.6-5.7-6.4-7-7.7c-3.1-2.9-2-4-2-12.6c0-6.9,2.6-21.3-8-21.3h-111
		c-4,0-7.7,3.4-8,7.1c-0.5,5.4,0.2,16.2,0,22.7C530.1,185.4,520.7,188.2,520.7,193z M525.4,233.2V194c0-1.4,3.7-4.5,4.7-5.2v49.6
		C529.1,237.7,525.4,234.6,525.4,233.2z M657.2,238.4v-49.6c1,0.7,4.3,3.4,4.3,4.7v40.2C661.5,235,658.2,237.7,657.2,238.4z
		 M648.7,272.4h-111c-1.1,0-2.8-1.7-2.8-2.8v-112c0-1.5,2.1-2.8,3.8-2.8h110.1c2.3,0,3.8,1.5,3.8,3.8v110.1
		C652.5,270.9,651,272.4,648.7,272.4z M550.9,171.3c-1.2,5.2-0.5,71.1-0.5,82.2c0,2.2,1.1,3.3,3.3,3.3c11.1,0,76.9,0.8,82.2-0.5
		c0.5-1.1,0.9-2.1,0.9-3.8v-78.4c0-2.3-1.5-3.8-3.8-3.8h-78.4C553,170.4,552,170.8,550.9,171.3z M555.2,175.6h76.5v76.5h-76.5V175.6
		z M595.3,179.8c0,15.1-2.5,12.8,12.3,12.8c3.5,0,2.4-7,2.4-12.3c0-3.5-7.2-2.4-12.8-2.4C596.1,177.9,595.3,178.7,595.3,179.8z
		 M600,182.6h5.2v5.2H600V182.6z M613.3,198.7c0,15.4-2.6,12.8,12.3,12.8c3.3,0,2.4-7.3,2.4-11.3c0-4.6-4.3-3.3-12.8-3.3
		C614.1,196.8,613.3,197.6,613.3,198.7z M618,201.5h5.2v5.2H618V201.5z M595.8,216.2c-0.9,3.8-0.5,8.3-0.5,12.3c0,3,6,1.9,12.3,1.9
		c3.5,0,2.4-7,2.4-12.3c0-3.5-6.7-2.4-11.8-2.4C597.4,215.7,596.4,216,595.8,216.2z M600,220.4h5.2v5.2H600V220.4z M595.3,198.7
		c0,15.1-2.5,12.8,12.3,12.8c3.5,0,2.4-7,2.4-12.3c0-3.5-6.7-2.4-11.8-2.4C596.7,196.8,595.3,197.3,595.3,198.7z M600,201.5h5.2v5.2
		H600V201.5z M577.4,237c0,14.7-2.3,12.3,12.8,12.3c2.9,0,1.9-7.6,1.9-12.3c0-3.5-7-2.4-12.3-2.4C578.6,234.6,577.4,235.9,577.4,237
		z M582.1,239.3h5.2v5.2h-5.2V239.3z M559.4,199.2c0,14.3-2,12.3,11.8,12.3c4.1,0,2.8-3,2.8-12.8c0-2.9-7.6-1.9-12.3-1.9
		C560.7,196.8,559.4,198.1,559.4,199.2z M564.1,201.5h5.2v5.2h-5.2V201.5z M613.3,217.6c0,15.4-2.6,12.8,12.3,12.8
		c3.3,0,2.4-7.3,2.4-11.3c0-4.5-4.8-3.3-11.8-3.3C614.7,215.7,613.3,216.1,613.3,217.6z M618,220.4h5.2v5.2H618V220.4z M613.3,236.5
		c0,15.4-2.6,12.8,12.3,12.8c3.3,0,2.4-7.3,2.4-11.3c0-4.5-4.8-3.3-11.8-3.3C614.7,234.6,613.3,235,613.3,236.5z M618,239.3h5.2v5.2
		H618V239.3z M613.3,179.8c0,15.1-2.5,12.8,12.3,12.8c3.3,0,2.4-7.3,2.4-11.3c0-4.6-4.3-3.3-12.8-3.3
		C614.1,177.9,613.3,178.7,613.3,179.8z M618,182.6h5.2v5.2H618V182.6z M559.4,180.3c0,14.3-2,12.3,11.8,12.3c1.3,0,1.3-0.2,2.4-0.5
		c0.9-3.8,0.5-8.3,0.5-12.3c0-3-6-1.9-12.3-1.9C560.7,177.9,559.4,179.2,559.4,180.3z M564.1,182.6h5.2v5.2h-5.2V182.6z
		 M559.4,218.1c0,14.5-2.2,12.3,12.8,12.3c3,0,1.9-5.8,1.9-11.8c0-1.3-0.2-1.3-0.5-2.4c-3.7-0.9-7.4-0.5-11.8-0.5
		C560.7,215.7,559.4,217,559.4,218.1z M564.1,220.4h5.2v5.2h-5.2V220.4z M577.8,178.4c-0.9,3.7-0.5,7.4-0.5,11.8
		c0,3.5,7,2.4,12.3,2.4c3.5,0,2.4-6.7,2.4-11.8c0-1.3-0.2-1.3-0.5-2.4C588.7,177.7,580.4,177.4,577.8,178.4z M582.1,182.6h5.2v5.2
		h-5.2V182.6z M595.8,235.1c-0.9,3.8-0.5,8.3-0.5,12.3c0,3,5.8,1.9,11.8,1.9c1.3,0,1.3-0.2,2.4-0.5c0.8-3.6,0.5-6.6,0.5-10.9
		c0-4.5-4.8-3.3-11.8-3.3C597.4,234.6,596.4,234.9,595.8,235.1z M600,239.3h5.2v5.2H600V239.3z M577.8,197.3
		c-0.8,3.5-0.8,10.2,0,13.7c3.5,0.8,10.2,0.8,13.7,0c0.8-3.5,0.8-10.2,0-13.7C588.7,196.6,580.4,196.3,577.8,197.3z M582.1,201.5
		h5.2v5.2h-5.2V201.5z M559.4,237.9c0,4.3-0.4,7.3,0.5,10.9c3.8,0.9,8.3,0.5,12.3,0.5c3,0,1.9-5.8,1.9-11.8c0-1.3-0.2-1.3-0.5-2.4
		c-3.6-0.8-6.6-0.5-10.9-0.5C560.5,234.6,559.4,235.7,559.4,237.9z M564.1,239.3h5.2v5.2h-5.2V239.3z M577.4,218.1
		c0,4.4-0.4,8.2,0.5,11.8c3.5,0.8,10.2,0.8,13.7,0c0.9-3.7,0.5-7.4,0.5-11.8c0-3.5-7-2.4-12.3-2.4
		C578.6,215.7,577.4,217,577.4,218.1z M582.1,220.4h5.2v5.2h-5.2V220.4z M327.3,501.3l0.4-1.4L327.3,501.3z"/>
</g>
<g>
	<path class="st0" d="M339.8,864.4l-20-67.6h18.3l12.8,48.4l12.8-48.4h18.1l-20,67.6H339.8z"/>
	<path class="st0" d="M394.6,864.9c-3.8,0-6.8-1.1-9.1-3.4c-2.3-2.2-3.5-5.3-3.5-9.1v-5c0-3.6,1.3-6.7,4-9.1
		c2.7-2.4,6.9-3.6,12.7-3.6h9.8v-1.5c0-1.2-0.2-2.2-0.6-2.9c-0.4-0.7-1.3-1.2-2.6-1.5c-1.3-0.3-3.4-0.4-6.1-0.4h-14.3v-10.1
		c2.5-1,5.5-1.9,8.8-2.5c3.3-0.7,7.4-1,12.1-1c4.1,0,7.7,0.5,10.8,1.4c3.1,0.9,5.4,2.6,7.1,5.1c1.7,2.5,2.5,6,2.5,10.6v32.5h-14
		l-2.7-4.9c-0.6,0.6-1.4,1.2-2.2,1.8c-0.9,0.6-1.9,1.2-3.1,1.8c-1.2,0.6-2.6,1-4.2,1.4C398.3,864.8,396.5,864.9,394.6,864.9z
		 M403.9,852.9c0.3,0,0.6,0,1-0.1s0.7-0.1,1.1-0.2c0.4-0.1,0.7-0.2,1-0.3c0.3-0.1,0.6-0.2,0.9-0.3c0.2-0.1,0.5-0.2,0.6-0.3v-8.8
		l-3.7,0.5c-1.7,0.2-3,0.7-3.9,1.3c-0.9,0.6-1.3,1.6-1.3,3v1.8c0,0.8,0.2,1.4,0.5,2c0.3,0.5,0.8,0.9,1.5,1.1
		C402.2,852.8,403,852.9,403.9,852.9z"/>
	<path class="st0" d="M434,864.4v-49h13.7l3.9,6.8c1.5-2,3.1-3.8,5-5.3c1.9-1.5,4.2-2.3,7-2.3c0.5,0,1.1,0,1.7,0.1
		c0.7,0.1,1.3,0.2,1.9,0.4v18.1c-1-0.1-2.1-0.2-3.1-0.3c-1.1-0.1-2-0.1-2.9-0.1c-1.5,0-2.8,0.1-4,0.4c-1.2,0.3-2.3,0.7-3.2,1.2
		c-0.9,0.5-1.7,1.3-2.4,2.2v27.8H434z"/>
	<path class="st0" d="M475.1,809.2c-1.5,0-2.2-0.7-2.2-2.1V797c0-1.5,0.7-2.3,2.2-2.3H489c0.7,0,1.2,0.2,1.5,0.6
		c0.3,0.4,0.5,1,0.5,1.6v10.1c0,1.4-0.7,2.1-2,2.1H475.1z M473.1,864.4v-49h17.7v49H473.1z"/>
	<path class="st0" d="M509.8,864.9c-3.8,0-6.8-1.1-9.1-3.4c-2.3-2.2-3.5-5.3-3.5-9.1v-5c0-3.6,1.3-6.7,4-9.1
		c2.7-2.4,6.9-3.6,12.7-3.6h9.8v-1.5c0-1.2-0.2-2.2-0.6-2.9c-0.4-0.7-1.3-1.2-2.6-1.5c-1.3-0.3-3.4-0.4-6.1-0.4h-14.3v-10.1
		c2.5-1,5.5-1.9,8.8-2.5c3.3-0.7,7.4-1,12.1-1c4.1,0,7.7,0.5,10.8,1.4c3.1,0.9,5.4,2.6,7.1,5.1c1.7,2.5,2.5,6,2.5,10.6v32.5h-14
		l-2.7-4.9c-0.6,0.6-1.4,1.2-2.2,1.8c-0.9,0.6-1.9,1.2-3.1,1.8c-1.2,0.6-2.6,1-4.2,1.4C513.5,864.8,511.7,864.9,509.8,864.9z
		 M519.1,852.9c0.3,0,0.6,0,1-0.1s0.7-0.1,1.1-0.2c0.4-0.1,0.7-0.2,1-0.3c0.3-0.1,0.6-0.2,0.9-0.3c0.2-0.1,0.5-0.2,0.6-0.3v-8.8
		l-3.7,0.5c-1.7,0.2-3,0.7-3.9,1.3c-0.9,0.6-1.3,1.6-1.3,3v1.8c0,0.8,0.2,1.4,0.5,2c0.3,0.5,0.8,0.9,1.5,1.1
		C517.4,852.8,518.2,852.9,519.1,852.9z"/>
	<path class="st0" d="M565.4,864.9c-3.7,0-6.9-0.8-9.5-2.3c-2.6-1.5-4.6-4.1-6-7.7c-1.4-3.6-2-8.4-2-14.5c0-6.1,0.5-11,1.6-14.8
		c1.1-3.8,2.9-6.6,5.6-8.4c2.7-1.8,6.4-2.7,11.2-2.7c1.9,0,3.9,0.2,5.8,0.5c1.9,0.4,3.6,0.8,5.1,1.4V795h17.7v69.4h-14.9l-2.7-4.5
		c-1.2,1-2.4,1.9-3.6,2.7c-1.3,0.8-2.6,1.3-3.9,1.7C568.3,864.8,566.9,864.9,565.4,864.9z M571.8,850.8c1.2,0,2.3-0.2,3.2-0.6
		c0.9-0.4,1.7-0.8,2.1-1.2v-19.8c-0.5-0.3-1.3-0.6-2.2-1c-0.9-0.4-1.8-0.5-2.7-0.5c-1.6,0-3,0.3-4,0.8s-1.7,1.7-2.1,3.4
		c-0.4,1.7-0.6,4.3-0.6,7.7c0,3.3,0.2,5.8,0.6,7.4c0.4,1.6,1.1,2.7,2,3.1C569.1,850.6,570.3,850.8,571.8,850.8z"/>
	<path class="st0" d="M624.8,864.9c-4.4,0-8.1-0.5-11.1-1.4c-3-0.9-5.4-2.4-7.2-4.4c-1.8-2-3.1-4.6-3.9-7.8
		c-0.8-3.2-1.2-7.1-1.2-11.6c0-4.9,0.4-9,1.2-12.2c0.8-3.2,2.1-5.8,4-7.7c1.8-1.9,4.2-3.3,7.2-4c3-0.8,6.7-1.2,11-1.2
		c4.4,0,8.1,0.4,11.1,1.3c3,0.8,5.4,2.2,7.2,4.1c1.8,1.9,3.1,4.5,3.9,7.7c0.8,3.2,1.2,7.3,1.2,12.1c0,4.7-0.4,8.7-1.1,11.9
		c-0.8,3.2-2,5.8-3.8,7.7c-1.8,1.9-4.2,3.3-7.2,4.2C633,864.4,629.3,864.9,624.8,864.9z M624.8,850.8c1.2,0,2.1-0.1,2.8-0.3
		c0.7-0.2,1.3-0.7,1.7-1.4c0.4-0.7,0.7-1.8,0.9-3.4c0.2-1.5,0.3-3.5,0.3-6.1s-0.1-4.6-0.3-6.1c-0.2-1.5-0.5-2.6-0.9-3.3
		c-0.4-0.7-1-1.2-1.7-1.4c-0.7-0.2-1.7-0.3-2.8-0.3c-1.2,0-2.1,0.1-2.8,0.3c-0.7,0.2-1.3,0.7-1.7,1.4c-0.4,0.7-0.7,1.8-0.9,3.3
		c-0.2,1.5-0.3,3.5-0.3,6.1s0.1,4.6,0.3,6.1c0.2,1.5,0.5,2.6,0.9,3.4c0.4,0.7,1,1.2,1.7,1.4C622.7,850.7,623.7,850.8,624.8,850.8z"
		/>
	<path class="st0" d="M673.4,864.9c-1.8,0-3.5-0.1-5.3-0.2c-1.8-0.1-3.5-0.3-5.1-0.5c-1.7-0.2-3.2-0.5-4.7-0.9s-2.8-0.8-3.9-1.3
		v-10.3h22.7c0.8,0,1.4-0.1,1.8-0.2c0.4-0.2,0.7-0.4,0.8-0.6c0.1-0.3,0.2-0.6,0.2-1v-1.2c0-0.6-0.2-1.1-0.6-1.4
		c-0.4-0.3-1.3-0.5-2.8-0.5h-8.2c-2.7,0-5.2-0.5-7.5-1.4c-2.3-0.9-4.1-2.4-5.5-4.5c-1.4-2.1-2-4.8-2-8.3v-3c0-3.2,0.6-5.8,1.8-8.1
		c1.2-2.2,3.4-3.9,6.5-5.1s7.4-1.8,13-1.8c2.2,0,4.5,0.1,6.8,0.4c2.3,0.3,4.4,0.6,6.4,1c2,0.4,3.5,0.9,4.6,1.4V828h-21.6
		c-0.9,0-1.6,0.1-2,0.4c-0.4,0.3-0.6,0.7-0.6,1.4v1.2c0,0.5,0.1,0.9,0.3,1.1c0.2,0.3,0.6,0.5,1.1,0.6c0.5,0.1,1.3,0.2,2.2,0.2h8.5
		c5.3,0,9.1,1.2,11.2,3.6c2.2,2.4,3.2,5.7,3.2,9.8v5c0,3.3-0.8,5.9-2.4,7.9c-1.6,2-3.9,3.4-7.1,4.3
		C682.2,864.5,678.2,864.9,673.4,864.9z"/>
</g>
</svg>
