<?xml version="1.0" encoding="utf-8"?>
<!-- Generator: Adobe Illustrator 24.0.2, SVG Export Plug-In . SVG Version: 6.00 Build 0)  -->
<svg version="1.1" id="Capa_1" xmlns="http://www.w3.org/2000/svg" xmlns:xlink="http://www.w3.org/1999/xlink" x="0px" y="0px"
	 viewBox="0 0 859.3 866.4" style="enable-background:new 0 0 859.3 866.4;" xml:space="preserve">
<style type="text/css">
	.st0{fill-rule:evenodd;clip-rule:evenodd;fill:#A7A7A7;}
	.st1{fill:#A7A7A7;}
	.st2{fill:none;stroke:#A7A7A7;stroke-width:11.9999;stroke-miterlimit:22.9256;}
</style>
<g>
	<path class="st0" d="M632.6,232c0,5.6,20.6,35.9,20.6,42.2v118.9c-7.6,0-15.1-1.5-15.1,4.3v175.1c0,13.9,14.6,29.2,31.4,29.2
		c14.9,0,26.1-3.9,32.8-18c1.8-3.7,2.8-7.2,2.8-12.3c0-24.3,1.7-165.4-1.1-177.3c-7.2-1.7-5.4-1.1-14.1-1.1V275.3
		c0-4.6,13.3-27.2,17-33.9c1.9-3.5,5-8,4.1-11.9l-14.7-37.3c-4.6-13.3-4-9.8-39.9-9.8c-6.4,0-7.2,4.3-9.1,9.3
		C644.1,199.8,632.6,227,632.6,232 M645.6,230.9c0-4.1,11-27.2,13-35.7h27.1c0.5,6.1,13,32.3,13,35.7c0,2.8-7.1,14.2-8.6,17.3
		c-2.6,5.2-7.3,11.5-8.6,17.3h-18.4c-0.9-4-2.5-5.8-4.3-8.7L645.6,230.9z M665,277.4h13v115.7h-13V277.4z M672.7,589.8
		c-11,0-22.7-7.4-22.7-17.3V405h43.1v162.1c0,7.1-2.1,12-5.7,15.9C684,586.8,675.9,589.8,672.7,589.8z"/>
	<path class="st0" d="M571.9,393c-8.4,0-6-0.6-13,1.1c-2.8,11.9-1.1,152-1.1,176.2c0,16.7,14.6,31.4,31.4,31.4
		c9.9,0,18.2-0.9,26.2-8.4c4-3.7,9.4-12.5,9.4-19.7V397.4c0-5.5-6.4-4.3-11.9-4.3l1.1-28.1c0.6-10.4-0.2-20,0.9-29.3
		c2-18.4-0.6-40.8,1.4-59.1l2-57.4c-0.5-5.7-8.1-14.4-11.3-19c-11-15.9-13.1-23.8-23.3-9.1c-23.6,33.9-17.4,17.5-17.3,56.3
		c0,6.5,1.1,7.8,1.1,14L571.9,393z M600.1,393h-16.2c0-18.7-1.1-33.5-1.1-51.9l-2.2-63.8c-0.1-5.8-1-6.3-1.1-11.8
		c-0.2-8.8,0.6-18.1-0.6-26.4c-1.1-7-1.6-17.5,2.1-22.9c2.8-4.1,8.2-13.3,11.5-15.5c2.8,2.1,8.4,11.5,10.8,15.1
		c5.8,8.4,2,10.8,2.1,22.7l-1.4,51.6c-1,7.3-0.7,16.2-0.7,25.2l-2.2,64.8C600.9,385.7,600.1,386.8,600.1,393z M569.7,567.1V405H613
		v167.6C613,593.3,569.7,598.7,569.7,567.1z"/>
	<path class="st0" d="M437.4,374.2h57.8c4.7,0,9.9-1.2,9.9-5.9c0-2.4-1.6-2.9-3-5H437L437.4,374.2z M457.6,402.8
		c13.6,0.1,25.7,0.2,35.7,0.2c8.9,0.1,10.9,0.8,10.9-5.9c0-3.2-3.6-5-6.9-5h-39.6L457.6,402.8L457.6,402.8z M237,70.6
		c-0.7,2.9-1.5,6.4-2.1,9.5c-0.6,2.8-1,5-1,5.6c0,0.2,0.2-0.2,0.6,0.1c1.1,0.6,2.6,1.5,4.5,2.8c5.7,3.8,10.2,6.5,13.6,8.6
		c6.3,3.8,9.5,5.8,10.8,8.9c1.8,4.3-0.3,7.1-4.7,13.2c-1.4,1.9-3.1,4.3-5.2,7.4l0,0l-10.1,15.2c0.4,0.4,1.7,1.5,3.7,3.2
		c0.9,0.8,1.9,1.7,3.2,2.9c0.6,0.5,1.1,0.9,1.5,1.2l0,0c0.6,0.5,1.3,1,2.4,1.9c0.8,0.8,1.3,1.3,1.8,1.8c0.5,0.5,1,1.1,1.4,1.4
		c2.1,1.9,4.1,3.7,5.7,5c3.3,2.8,5,4.2,5.8,7.1c0.6,2.5,0.1,4.8-1,9.3c-0.6,2.4-1.4,5.5-2.2,9.6c-0.6,2.8-1.2,5.3-1.8,7.7
		c-0.6,2.4-1.1,4.5-1.4,6.1c0.7-1.2,1.7-2.8,2.4-4.1c0.5-0.7,0.8-1.4,1.3-1.9c1-1.4,1.9-2.7,3-4.3c6-8.5,17.6-25,17.6-25.4
		c0-0.2-3.5-3.7-7.3-7.6c-4.2-4.2-8.7-8.8-10.6-12.3l-1.4-2.6l26.2-28.8l0.3-0.3c1.7-1.8,6.2-6.3,6.2-6.9c0-0.5-6.8-3.9-13.5-8.2
		c-6-3.9-11.9-7.6-14.2-10.1l-1.3-1.4l0.2-1.9c0.1-1.2,1.3-4.6,3-8.3l0,0c0.6-1.4,1.4-2.9,2.1-4.4h9.5h6h285.5c8.2,0,17,6,21.1,10.6
		c4.7,5.3,7.7,13.5,7.7,23.1v71.6c0,5.1-2.6,6.2-5.9,8c-2.2-1.1-3-1.6-5-3c0-20.1,0-40.4,0-60.5c0-14.1,2.9-38.7-20.8-38.7h-294
		c-0.1,0.2-0.2,0.5-0.3,0.7c2.4,1.9,6.7,4.5,10.9,7.2c8.6,5.5,17.5,11.1,17.5,15.3c0,3.9-6.1,10.2-8.5,12.8l-0.2,0.2l0,0l-21.9,24.1
		c1.9,2.4,4.7,5.3,7.5,8c5,5.1,9.7,9.8,9.7,13.4c0,3.1-12.7,21-19.2,30.3c-1.5,2.1-2.8,3.9-3,4.3c-0.2,0.2-0.6,0.9-1.1,1.6
		c-2.4,3.8-6,9.7-10.6,9.7c-5.7,0-7.7-3-7.7-8c0-2.8,0.9-6.2,1.9-10.2c0.6-2.3,1.2-4.7,1.7-7.2c0.9-4.4,1.6-7.6,2.3-10
		c0.8-3.2,1.1-4.8,1.1-5.3c-0.1-0.2-1.1-1.1-3-2.7c-1.5-1.2-3.2-2.8-5.9-5.2c-0.8-0.8-1.3-1.3-1.8-1.8c-0.5-0.5-1-1.1-1.4-1.4
		c-0.6-0.6-1.1-0.9-1.5-1.2l0,0c-0.6-0.5-1.2-0.9-2.4-1.9c-0.9-0.8-2-1.9-3.1-2.8c-4.9-4.2-8-6.9-6.3-12.2l0.2-0.6l11.1-16.7l0,0
		c2-3,3.9-5.6,5.4-7.6c2.5-3.5,3.8-5,3.8-5c-0.2-0.6-2.7-2.1-7.4-5c-3.6-2.1-8.2-5-13.9-8.8c-1.7-1.1-3-1.9-4-2.4
		c-4-2.3-5-2.8-5-7.5c0-0.8,0.2-2.4,0.6-4.2h-44c-10.2,0-18.8,8.7-18.8,18.8v204.4c0,10.1,8.2,16.9,17.2,18.5
		c6.9,1.2,277.7,0.3,303.9,0.3c9,0,27.1-3,17.9,10.9H245.5c-1.7,3.6-10.6,25.6-10.9,28.8h67v11.2l-72-0.2c-14.9,0-7.7-11-3-22.8
		c2.1-5.2,4.5-12.1,6.9-16.9c-15.4,0-41.4,1.5-55.5-0.1c-13.1-1.5-25.9-14.6-25.9-29.7V100.3c0-15.6,14.1-29.7,29.7-29.7h15.7h30.5
		H237z M163.2,474.4c21.1,0,28.3,1.5,39.1-1c1.9-7.9,1.4-4.9-1.9-9.9h-28.2c-3.2,0-6.8,0.4-9.1-0.8c-9.3-5,2.5-17,10.5-32.7
		c1.5-2.8,2.3-4.1,3.6-6.3l11-20.8c24.7,0,50-0.1,91.1-0.2V392H188c-7.5,0-7.3,2.1-10,6.9l-24.9,44.5
		C139.8,465.3,157.2,474.4,163.2,474.4z"/>
	<path class="st0" d="M315.9,568.8l-32.6,87h170.1l-1.9-3.6c-3.4-6.5-5.8-13.6-8.2-20.4l0,0l-24.8-63H315.9z M432.6,568.8l0.6,2.9
		c1.3,5.5,3.9,10.7,6,16c1.1,2.6,1.9,5.2,2.6,8l0.4,1.9h1.9c7.6,0,15.2,0.2,22.7,0.6c6.9,0.2,13.9,0.5,20.8,0.2
		c9.9-0.3,23.2-1.5,30.3-9.2c4.1-4.5,5.6-10.2,5.6-16.2v-79.4H214.2v2.4c0,13.1-0.2,26.2-0.4,39.2c-0.2,9.2-0.4,18.4-0.2,27.5
		c0.2,9.1,0.5,22.9,7.7,29.5c6,5.5,16.2,5.8,24,6c6.6,0.1,13.2-0.1,19.8-0.2c8.9-0.2,17.9-0.4,26.8-0.4h2.2l0.2-2.2
		c0.2-1.8,0.7-3.7,1.2-5.4c0.6-2.3,1.5-4.5,2.4-6.7c0.8-2.1,1.6-4.2,2.5-6.3c0.6-1.5,1.4-3.2,2.2-4.6l1.9-3.6h-4
		c-6.5,0-12.9,0.6-19.4,0.6c-3.1,0-8-0.1-10.4-2.2c-1.7-1.5-1.9-4.1-1.9-6.3c0-2.7,1.8-4.5,4.5-4.5h188.2c2.1,0,3.4,1.1,4.5,2.8
		c0.2,0.4,0.6,0.8,0.8,1.2l0.6,1l-0.3,1.1c-0.6,2-1.5,3.5-2.8,5.3l-0.7,1.1L432.6,568.8L432.6,568.8z M234.2,481.2h269.6l-4.9-4.2
		c-0.3-0.2-0.6-0.6-1-0.9c-0.6-0.6-1.6-1.1-2.3-1.5c-1.1-0.7-2.3-1.3-3.4-1.9l-18.3-10H266.3c-4.3,0-9.6,2.7-13.3,4.8
		c-2.9,1.6-5.7,3.5-8.4,5.4c-1.2,0.8-2.4,1.7-3.6,2.6l-0.2,0.2l-0.2,0.1c-0.3,0.2-0.6,0.3-1,0.6c-0.2,0.2-0.3,0.3-0.5,0.5l-0.2,0.2
		L234.2,481.2z M431.6,395.9v54.4h6.5v-54.4H431.6z M318.6,366.9v83.6h98.9v-83.6H318.6z M298.1,395.9v54.4h8.3v-54.4H298.1z
		 M487.1,504.5c6.7,0,12,5.4,12,12c0,6.7-5.4,12-12,12s-12-5.4-12-12C475,509.9,480.4,504.5,487.1,504.5z M448.2,512.8h13
		c2.8,0,5.1,2.3,5.1,5.1s-2.3,5.1-5.1,5.1h-13c-2.8,0-5.1-2.3-5.1-5.1C443.1,515.1,445.4,512.8,448.2,512.8z M419.9,512.8h13
		c2.8,0,5.1,2.3,5.1,5.1s-2.3,5.1-5.1,5.1h-13c-2.8,0-5.1-2.3-5.1-5.1C414.8,515.1,417,512.8,419.9,512.8z M303.1,636.6h125.1
		c2.8,0,5.1,2.3,5.1,5.1c0,2.8-2.3,5.1-5.1,5.1H303.1c-2.8,0-5.1-2.3-5.1-5.1C298,638.8,300.4,636.6,303.1,636.6z M316.6,615.1h98.1
		c2.8,0,5.1,2.3,5.1,5.1c0,2.8-2.3,5.1-5.1,5.1h-98.1c-2.8,0-5.1-2.3-5.1-5.1C311.5,617.5,313.9,615.1,316.6,615.1z M285.8,450.4
		V448c0-9.3-0.2-18.6-0.3-27.9c-0.1-6.3-0.2-12.4-0.2-18.7c0.1-4,0-13,3.2-15.7c2.8-2.4,11.7-2,15.5-2h2.4v-21.2
		c0-2.2,0.3-5.6,2-7.1c0.6-0.6,1.5-0.8,2.4-0.8h114.7c0.8,0,1.6,0.2,2.4,0.6c3.3,2.2,3.8,9.9,3.9,13.6c0.2,4.1-0.1,8.3-0.1,12.4v2.4
		h2.4c4.1,0,11.8-0.8,14.9,2.3c1.1,1.1,1.5,2.4,1.5,3.9v60.6h2.4c5.5,0,11-0.2,16.6-0.1c3.1,0.1,6.2,0.2,9.2,1
		c3.6,0.9,6.9,2.8,10.1,4.6c6.4,3.7,12.7,7.7,19.1,11.5c4.1,2.5,8.4,4.6,12.8,7c3.8,2.1,7.6,4.3,11,7c1.5,1.2,4.3,3.7,4.5,5.8v0.1
		V573c0,16.1-8.6,30.1-24.3,35.1c-4.4,1.4-9.5,1.8-14.1,2.1c-6.3,0.4-12.4,0.4-18.7,0.3c-9.3-0.1-18.6-0.6-27.9-0.6h-4l1.9,3.6
		c1.5,2.9,2.7,6.1,4,9.1c2.2,5.3,4.2,10.6,6.3,15.8s4,10.6,5.8,15.8c0.6,1.9,1.3,4,1.9,6c0.2,0.8,0.5,1.7,0.6,2.6l0.1,0.6l-0.4,0.5
		c-0.2,0.5-0.3,0.9-0.5,1.4l-0.5,1.4l-1.5,0.2c-0.7,0.1-1.4,0.2-2.1,0.2c-2.7,0.2-5.3,0.4-8,0.6c-7.7,0.4-15.4,0.6-23.2,0.7
		c-21,0.4-41.9,0.4-63,0.3c-19.2-0.1-38.3-0.2-57.5-0.4c-12.7-0.1-25.4-0.3-38.1-0.3c-1.1,0-2.4-0.2-3.2-0.8l-0.1-0.1l-0.1-0.1
		c-1.4-1.5-1.1-4.1-0.8-6c0.2-1.3,0.5-2.8,0.8-4.1c1.6-6.3,4.2-12.3,6.7-18.1c2-4.8,4.1-9.6,5.9-14.4c1.4-3.7,3-8,3.3-11.9l0.2-2.6
		h-2.6c-8.3,0-16.6,0.5-24.9,0.6c-5.8,0.2-11.6,0.2-17.5-0.1c-4.5-0.2-9.4-0.6-13.8-1.9c-3.6-1.1-6.9-2.7-10-4.6
		c-7.1-4.6-15.3-13.4-15.3-22.5v-96.2l0.2-0.5c1.7-3.3,10.8-8.6,14.3-10.6c4.7-2.7,9.7-5.1,14.3-7.9c5.8-3.4,11.5-7,17.3-10.5
		c2.9-1.7,6-3.5,9.3-4.5c2.9-0.8,6-1.1,9.1-1.1c5.6-0.2,11.2,0,16.9,0L285.8,450.4L285.8,450.4z"/>
	<path class="st1" d="M632.2,841.5v-53.2h16l3.2,5.1c1.6-1.5,3.9-2.9,6.6-4.1c2.8-1.3,5.6-1.9,8.4-1.9c4.6,0,8.1,0.9,10.5,2.6
		c2.4,1.7,4,4.1,4.8,7.1c0.9,3,1.3,6.3,1.3,10v34.4h-19.2v-31.8c0-1.4-0.2-2.4-0.7-3.2c-0.5-0.7-1.1-1.2-1.8-1.5
		c-0.8-0.3-1.7-0.4-2.7-0.4c-0.9,0-1.7,0.1-2.7,0.4c-0.9,0.3-1.8,0.6-2.5,1.1c-0.8,0.5-1.4,1-2,1.6v33.9L632.2,841.5L632.2,841.5z
		 M594.6,779.2l6.7-14.1h15.2l-10.7,14.1H594.6z M599.6,826.8c1.3,0,2.3-0.1,3.1-0.3s1.4-0.7,1.9-1.5s0.8-2,1-3.7
		c0.2-1.6,0.3-3.9,0.3-6.6c0-2.8-0.1-5-0.3-6.6s-0.5-2.8-1-3.6s-1.1-1.3-1.9-1.5c-0.8-0.2-1.8-0.3-3.1-0.3s-2.3,0.1-3.1,0.3
		s-1.4,0.7-1.9,1.5s-0.8,2-1,3.6s-0.3,3.8-0.3,6.6s0.1,5,0.3,6.6s0.5,2.9,1,3.7s1.1,1.3,1.9,1.5
		C597.3,826.7,598.3,826.8,599.6,826.8z M599.6,842c-4.7,0-8.7-0.5-12-1.5s-5.9-2.6-7.9-4.7c-2-2.2-3.4-5-4.2-8.4
		c-0.9-3.5-1.3-7.7-1.3-12.6c0-5.3,0.4-9.8,1.3-13.3c0.9-3.5,2.3-6.3,4.3-8.4c2-2.1,4.6-3.5,7.9-4.4c3.3-0.9,7.2-1.3,11.9-1.3
		s8.7,0.5,12,1.4s5.9,2.4,7.8,4.5c1.9,2.1,3.4,4.9,4.2,8.4c0.9,3.5,1.3,7.9,1.3,13.1c0,5.1-0.4,9.4-1.2,12.9s-2.2,6.3-4.1,8.4
		c-1.9,2.1-4.5,3.6-7.8,4.5C608.5,841.5,604.4,842,599.6,842z M547.7,841.5v-53.2h19.2v53.2H547.7z M549.9,781.5
		c-1.6,0-2.4-0.8-2.4-2.3v-11c0-1.6,0.8-2.5,2.4-2.5h15c0.7,0,1.3,0.2,1.6,0.7c0.4,0.5,0.5,1.1,0.5,1.8v11c0,1.5-0.7,2.3-2.2,2.3
		H549.9z M520.9,842.1c-3.4,0-6.5-0.4-9.3-1.3c-2.8-0.9-5.3-2.4-7.3-4.4s-3.6-4.8-4.7-8.2c-1.1-3.5-1.7-7.8-1.7-12.9
		c0-5.4,0.5-9.9,1.5-13.5s2.5-6.4,4.5-8.5s4.4-3.6,7.4-4.5c3-0.9,6.4-1.3,10.2-1.3c3.6,0,6.8,0.2,9.6,0.7c2.9,0.5,6,1.3,9.5,2.4v11
		h-12.9c-2.8,0-5,0.4-6.6,1.1c-1.5,0.8-2.6,2.1-3.2,4c-0.6,1.9-0.9,4.7-0.9,8.3c0,3.7,0.3,6.5,0.8,8.3c0.6,1.8,1.6,3.1,3.2,3.7
		c1.5,0.6,3.8,0.9,6.9,0.9h13.4v10.8c-1.6,0.7-3.6,1.3-6,1.8c-2.3,0.6-4.8,1-7.3,1.3C525.6,841.9,523.2,842.1,520.9,842.1z
		 M466.6,829c0.3,0,0.7,0,1.1-0.1s0.8-0.1,1.2-0.2c0.4-0.1,0.8-0.2,1.1-0.3c0.4-0.1,0.7-0.2,0.9-0.3c0.3-0.1,0.5-0.2,0.7-0.3v-9.6
		l-4,0.6c-1.8,0.3-3.2,0.7-4.2,1.4s-1.4,1.8-1.4,3.2v2c0,0.9,0.2,1.6,0.5,2.1c0.4,0.6,0.9,1,1.6,1.2
		C464.8,828.9,465.6,829,466.6,829z M456.5,842.1c-4.1,0-7.4-1.2-9.9-3.7c-2.5-2.4-3.8-5.7-3.8-9.9v-5.4c0-4,1.4-7.2,4.3-9.9
		c2.9-2.6,7.5-4,13.8-4h10.7v-1.7c0-1.3-0.2-2.4-0.7-3.1c-0.5-0.8-1.4-1.3-2.8-1.6s-3.6-0.4-6.7-0.4H446v-11c2.8-1.1,5.9-2,9.5-2.8
		c3.6-0.7,8-1.1,13.2-1.1c4.5,0,8.4,0.5,11.7,1.5c3.3,1,5.9,2.9,7.7,5.5c1.8,2.7,2.7,6.5,2.7,11.5v35.3h-15.2l-3-5.3
		c-0.7,0.7-1.5,1.3-2.4,2c-1,0.7-2.1,1.3-3.4,1.9c-1.3,0.6-2.8,1.1-4.5,1.5C460.5,841.9,458.6,842.1,456.5,842.1z M404.1,841.5
		v-53.2H419l4.2,7.4c1.6-2.2,3.4-4.1,5.5-5.7c2.1-1.6,4.6-2.5,7.6-2.5c0.5,0,1.2,0,1.9,0.1c0.7,0.1,1.4,0.2,2.1,0.4v19.7
		c-1.1-0.1-2.3-0.2-3.4-0.3c-1.2-0.1-2.2-0.1-3.1-0.1c-1.6,0-3,0.1-4.3,0.4c-1.3,0.3-2.5,0.7-3.5,1.3s-1.9,1.4-2.6,2.4v30.1
		L404.1,841.5L404.1,841.5z M371.4,829c0.3,0,0.7,0,1.1-0.1s0.8-0.1,1.2-0.2c0.4-0.1,0.8-0.2,1.1-0.3c0.4-0.1,0.7-0.2,0.9-0.3
		c0.3-0.1,0.5-0.2,0.7-0.3v-9.6l-4,0.6c-1.8,0.3-3.2,0.7-4.2,1.4s-1.4,1.8-1.4,3.2v2c0,0.9,0.2,1.6,0.5,2.1c0.4,0.6,0.9,1,1.6,1.2
		C369.6,828.9,370.4,829,371.4,829z M361.3,842.1c-4.1,0-7.4-1.2-9.9-3.7c-2.5-2.4-3.8-5.7-3.8-9.9v-5.4c0-4,1.4-7.2,4.3-9.9
		c2.9-2.6,7.5-4,13.8-4h10.7v-1.7c0-1.3-0.2-2.4-0.7-3.1c-0.5-0.8-1.4-1.3-2.8-1.6s-3.6-0.4-6.7-0.4h-15.5v-11
		c2.8-1.1,5.9-2,9.5-2.8c3.6-0.7,8-1.1,13.2-1.1c4.5,0,8.4,0.5,11.7,1.5c3.3,1,5.9,2.9,7.7,5.5c1.8,2.7,2.7,6.5,2.7,11.5v35.3h-15.2
		l-3-5.3c-0.7,0.7-1.5,1.3-2.4,2c-1,0.7-2.1,1.3-3.4,1.9c-1.3,0.6-2.8,1.1-4.5,1.5C365.3,841.9,363.4,842.1,361.3,842.1z
		 M316.8,826.6c0.9,0,1.9-0.3,2.8-0.8c1-0.6,1.7-1.7,2.4-3.3c0.6-1.6,0.9-4.1,0.9-7.4c0-3.3-0.2-5.8-0.7-7.7c-0.5-1.8-1.1-3-2-3.7
		s-2-1-3.3-1c-1.4,0-2.7,0.2-3.9,0.6c-1.2,0.4-2.1,0.9-2.8,1.3V825c0.7,0.5,1.6,0.8,2.8,1.1C314.3,826.4,315.5,826.6,316.8,826.6z
		 M291.1,864.9v-76.6h16.2l3,4.8c1.3-1.1,2.6-2.1,3.9-3s2.6-1.5,4.1-2s3.2-0.7,5.1-0.7c3.2,0,5.9,0.6,8.3,1.7
		c2.4,1.1,4.3,2.8,5.9,5.1c1.5,2.3,2.7,5.2,3.5,8.6c0.8,3.5,1.1,7.6,1.1,12.2c0,5.5-0.5,10.3-1.5,14.4c-1,4.1-2.9,7.2-5.6,9.5
		c-2.7,2.2-6.6,3.4-11.7,3.4c-2.2,0-4.5-0.2-6.8-0.6c-2.3-0.4-4.4-1-6.2-1.9v25.1H291.1z M255.6,810.3h7.6c1.3,0,2.3-0.3,2.9-0.9
		c0.6-0.6,0.9-1.6,0.9-3.1c0-1.3-0.2-2.3-0.6-3.1s-1-1.4-1.9-1.7c-0.9-0.4-2-0.5-3.4-0.5c-1.3,0-2.3,0.3-3.1,0.8
		c-0.8,0.5-1.4,1.5-1.8,2.8C255.8,806,255.6,807.8,255.6,810.3z M262,842c-6.1,0-10.9-0.8-14.6-2.3c-3.7-1.5-6.4-4.2-8.1-8.1
		c-1.7-3.9-2.5-9.4-2.5-16.5c0-7.3,0.8-13,2.3-16.9c1.5-4,4-6.8,7.6-8.3c3.5-1.6,8.3-2.4,14.5-2.4c5.7,0,10.1,0.5,13.4,1.6
		s5.6,2.9,7.1,5.7c1.4,2.7,2.1,6.6,2.1,11.6c0,3.9-0.8,6.9-2.3,9.1c-1.5,2.2-3.7,3.8-6.4,4.7c-2.8,0.9-6,1.4-9.8,1.4h-9.5
		c0.2,1.6,0.6,2.8,1.2,3.8s1.7,1.6,3.3,2c1.6,0.4,3.9,0.6,7,0.6h14.5v11c-2.3,0.7-5.1,1.3-8.2,2C270.4,841.7,266.5,842,262,842z
		 M196.3,801h8.7c1.1,0,2-0.1,2.8-0.4c0.8-0.3,1.5-0.8,2-1.4c0.6-0.7,1-1.5,1.2-2.5c0.3-1,0.4-2.3,0.4-3.7s-0.1-2.7-0.4-3.7
		c-0.3-1-0.7-1.8-1.2-2.3c-0.6-0.6-1.2-1-2-1.2c-0.8-0.3-1.7-0.4-2.8-0.4h-8.7V801z M177.1,841.5v-73.4h31.3c3.2,0,6.2,0.4,8.9,1.2
		s5,2.1,7,4s3.5,4.4,4.6,7.6c1.1,3.2,1.6,7.1,1.6,12c0,3-0.3,5.7-0.8,7.9s-1.2,4.1-2.1,5.7c-0.9,1.5-1.9,2.8-3.2,3.9
		c-1.2,1.1-2.5,2-3.9,2.8l12.7,28.4h-19.5l-10.3-25.3c-0.6,0-1.2,0-1.8,0s-1.2,0-1.8,0s-1.2,0-1.8,0s-1.2,0-1.8,0v25.3h-19.1V841.5z
		"/>
	<path class="st2" d="M416.1,216.1l2.1-48.4c0-0.1,0-0.1,0-0.2c0-1.9-1.5-3.5-3.5-3.5l0,0h-11.5c-1.9,0-3.5,1.5-3.5,3.5
		c0,0.1,0,0.1,0,0.2l2.1,48.4c0.1,1.9,1.6,3.3,3.5,3.3l0,0h7.2l0,0C414.6,219.4,416.1,217.9,416.1,216.1z M419.5,240
		c0-6-4.5-10.3-10.4-10.3c-5.8,0-10.3,4.3-10.3,10.3c0,6,4.5,10.4,10.3,10.4C414.9,250.5,419.5,246.1,419.5,240z M409.1,122.9
		c46.5,0,84.3,37.8,84.3,84.3s-37.8,84.3-84.3,84.3s-84.3-37.8-84.3-84.3S362.5,122.9,409.1,122.9z"/>
</g>
</svg>
