<?xml version="1.0" encoding="utf-8"?>
<!-- Generator: Adobe Illustrator 24.0.2, SVG Export Plug-In . SVG Version: 6.00 Build 0)  -->
<svg version="1.1" id="Capa_1" xmlns="http://www.w3.org/2000/svg" xmlns:xlink="http://www.w3.org/1999/xlink" x="0px" y="0px"
	 viewBox="0 0 286 428" style="enable-background:new 0 0 286 428;" xml:space="preserve">
<style type="text/css">
	.st1{fill-rule:evenodd;clip-rule:evenodd;fill:#eee;opacity: 0.5;}
	@keyframes click{0%{opacity:0;}100%{opacity:0.5;}}
	.st2{fill-rule:evenodd;clip-rule:evenodd;fill:#000;
		animation: click 1s infinite;
	}
	.st3{fill-rule:evenodd;clip-rule:evenodd;fill:#000;
		animation: click 1s infinite 0.5s;
	}
</style>
<path class="st1" d="M88,269c-3.1-2-3.7-4-6.3-6.7c-2.5-2.7-3.6-4.3-6-7C59.4,236.9,52.2,221,29,221c-14.2,0-29,11.2-29,25
	c0,15.2,4.3,17.2,12,30c10.2,17,32.3,53.4,44.3,67.7c5.3,6.3,12.7,12.6,19,18C98.7,381.5,97.1,372.9,97,395
	c-0.1,11.2,1.6,20.8,10.5,27.5c3.9,2.9,7.2,5.5,13.5,5.5h104c6.7,0,14.1-4.9,17.2-8.8c12.4-15.6,3.5-29.3,7.4-44.6
	c0.9-3.7,2.2-6.1,3.7-9.3l20.8-46.2c4.5-11,9.8-27.5,9.8-43.2v-80c0-13.1-14.2-28-31-28c-9,0-11.8,3.5-18,5c-1.4-1.1-10.4-14-26-14
	c-7.8,0-13.9,3.3-19,6c-1.4-5.3-10-11.1-15.1-12.9c-10.3-3.6-14.8-1.2-23.9,0.9c0-26.7,5.8-57.4-9.5-71.5
	c-18.2-16.9-48.3-8.1-52.7,18.4C86.7,112.7,88,249,88,269 M18,249c0-7.3,8.3-10,12-10c9.3,0,16.1,9.5,22.7,17.3
	c1.7,2,1.6,2.4,3.6,4.4c6.5,7,34.3,43.3,39.7,43.3c11.5,0,11-6.1,11-20l0-175c-0.1-8.5,1.9-18,12-18c17.3,0,14,18.2,14,29l0,109
	c-0.1,7.6,1.8,13,9,13c7.7,0,9.1-5.9,9-14l0.1-46.9c1.9-16.3,24.8-16.2,25.9-0.1l0,46c-0.1,6.4,0.9,15,9,15c24.3,0-4.7-64,21-64
	c6.7,0,12.2,1.3,14.3,9.7c1.2,5.1,0.8,33.9,0.7,41.3c-0.1,5.5,0.7,13,8,13c18.2,0,6.3-32.1,10.5-46.5c3.6-12.4,25.5-12.1,25.5,4.5
	v72c0,38.5-32.8,82.7-34.9,101.1c-2.5,21.9,2.7,36.9-9.1,36.9h-98c-11.2,0-7.7-14.1-8-25c-0.6-24.6-22.5-26.8-46.3-53.7
	C62.4,322.9,18,254.5,18,249z"/>
<path class="st2" d="M51,178c9.1,0,11-1.9,11-11c0-3.9-26-24.4-26-59c0-27.8,6.6-44.2,24.5-63.5C74.6,29.2,98.8,20,121,20
	c45.4,0,83,38.5,83,84c0,14.1-7.7,29,7,29c12.3,0,11-22.6,11-33c0-33.8-24.1-70.1-49.3-83.7C149.1,3.7,141.1,2,113,2
	C76.1,2,38.8,30.9,24.6,66.6C0.2,127.4,44.3,178,51,178"/>
<path class="st3" d="M53,101c0,16.5,14.3,12.9,17.2,7.2c1.4-2.7,1.3-9.2,1.8-12.2c1.4-8.6,4.1-13.8,8.2-19.8
	c22.3-33,78.1-25.4,87.3,18.4c2,9.5-1.3,18.5,10.5,18.5c22.7,0,1.2-76-57-76c-20.4,0-37,8.4-47.3,18.7C62.2,67.5,53,83,53,101"/>
</svg>
