<?xml version="1.0" encoding="utf-8"?>
<!-- Generator: Adobe Illustrator 16.0.0, SVG Export Plug-In . SVG Version: 6.00 Build 0)  -->
<!DOCTYPE svg PUBLIC "-//W3C//DTD SVG 1.1//EN" "http://www.w3.org/Graphics/SVG/1.1/DTD/svg11.dtd">
<svg version="1.1" id="Capa_1" xmlns="http://www.w3.org/2000/svg" xmlns:xlink="http://www.w3.org/1999/xlink" x="0px" y="0px"
	 width="150px" height="150px" viewBox="0 0 150 150" style="enable-background:new 0 0 150 150;" xml:space="preserve">
<style type="text/css">
<![CDATA[
	.st0{fill:#333333;}
	.st1{fill-rule:evenodd;clip-rule:evenodd;fill:#333333;}
]]>
</style>
<path class="st1" d="M50.1,33.1L49,34c8.7,2.5,11,4.8,24.8,8.1c-0.1,2.1-0.1,8.6-0.9,9.9c0.5,3,0,7.4,0,10.6c0,3.6,0.1,7.2,0.3,10.8
	c0.4,6,1.1,12.8,2.8,18.1c0.1-3.3-0.7-7.9-1-11.5c-0.8-11.9-0.9-25.6,1.4-37.2c2.8-0.7,8.9,1.1,13.1,0c1.5-0.4,9.1-3,10.1-3.7
	L96,36.9c2.8-5.9,6.2-7.4,5.2-11.7l4.5-1.5c-0.6-2-2.1-3.3-4.3-3.8l-2,4.5c-4-0.2-4.6,0.9-7.4,2.1l-0.2-3.7l-1.3,0
	c-1.3,1.1-4.4,0.9-6.5,0.8c-3.4-0.1-3.4,0.8-5.1,2.3c-5.7,5.2-4.7,4.2-5,9.3c-4.2,2.8-9.5,1.1-7.1-4.1c-1.8,1.8-2,4.4,0.1,6.1
	c2.3,1.8,4.9,0.6,7.2,0c0.1-1.5,0.3-3.2,0.6-4.6c0.5-2.7,3.9-4,7.2-7.3l7.3,0.4c0.8,5.3-0.1,2.2-2.9,7.7c-0.8-0.4-1.6-0.9-2.3-1.7
	l1.6-1.1l-2,0.4c0.1-0.4,0.2-0.8,0.2-1.2c0-1,0.2,0-0.4-0.7l-0.7,2L80,30.6c0.9,0.8,0.9,0.4,1.2,1.4c-4.2,1.3-3.8,5.8-0.1,6.9
	c-3.2-1.3-2-7.9,3.9-4.4c-0.1,1.5-2.1,5.3-3,6.5c-2.3,0.7-6.8-0.6-9.4-1.1c-1.6-0.4-3.1-0.7-4.7-1.1c-0.8-0.2-1.5-0.3-2.2-0.5
	c-0.5-0.1-0.7-0.2-1.2-0.4c-2.3-1-3.5-10.1,8.5-9.3c-1.2-1.2-1.8-0.7-3.1-1.5l-0.3-4.9l-1.6,0.4c0.4,1.9,1.2,2.3,0.8,4.7l-2,0.2
	c-0.2-0.2-0.2-0.2-0.5-0.7C65.8,25.6,66,25.2,65,24c-1.5-1.6-2.5-0.6-3.3-2.5c0-0.1-1.2-4.2-1.2-4.4c0.1-1.7,1.3-1.1,0-4.4
	c-3.5-0.6-4.4-0.1-7,0.8c0.1,0.7,0.3,2.2,0.6,2.8c0.4,1,0.4,0.6,0.6,0.9c0.1,0.1,0.2,0.1,0.2,0.2l0.4,0.4c0.8,1,1.1,5.4,1.1,5.5
	c-0.9,1.2-2,1.5-2.2,3.8c-0.1,1.9,0.6,3.8,0.4,5.6L50.1,33.1z M56.3,26.5c0.4-1.5,1.2-1.3,2.1-2.5l-1.6-8l1.6-0.2
	c1.4,1.2,1.7,6,2.3,7.9c2.6,1.4,3.8,0.6,4,4.6c-2.8,2.1-4.2,3.7-3.9,8.5c-4.3-0.9-3.4-1.6-4.1-6C56.4,29.6,55.9,27.8,56.3,26.5z
	 M85.2,41.6c-0.1-1.8,7-16.2,13.4-14.9c0.5,2.7-2.3,5.1-4.3,9.7c-1.1,2.5-0.6,3.3-3.1,4.2C88.6,41.7,88.5,41.7,85.2,41.6z"/>
<path class="st1" d="M62,86.4c0.8-1.4,2.8-3.6,4.9-3.6c5.6,0,7,12.5-1.8,14.1c0.7-0.8,1-0.9,1.9-1.8c-1.4,0.2-1.2,0.2-2.3,0.9
	c-1.1,1.6-2.8,1.7-4.3,3c2.8-0.5,7.3-2.1,9.6-3.8c2.1,1.1,4,2.8,6,4.2c2.1,1.6,4.5,0.2,7.6-0.4c6.7-1.4,11.4-1.8,18.5-1.9
	c3.1-20.4,2.6-33.7-0.2-54c2.2,0.1,5.1,1.3,6.5,2.5c0.7,0.6,1.4,1.6,1.6,3c0.8,4.7-3.1,2.6-4.8,1.6c1.4,2.6,5.3,4.6,6.9,0.8
	c1.8-4.1-2.1-6.7-2.3-7.6c-3.4-1.5-4.9-2.8-9.7-2.8c2.1,15.8,4.2,39-0.1,54.3c-3.6,0.1-7.1,0-10.7,0.2c-3.3,0.2-6.2,0.8-9.2,1.1
	c0.9-1.5,2.8-3.4,4-4.8c5.3-6.3,5.2-6.1,9.6-3.4c0.9,0.6,1.7,1.1,2.5,1.7l2.4,2c1.5-2.9,2.4-14.6,2.4-18.4c-0.1,0.1-0.1,0.2-0.1,0.3
	l-0.5,2.1C100,78,99,87.3,98.2,88.9c-0.3,0.7-0.1,0.3-0.5,0.8c-1.4-1.8-1.8-1.9-3.5-3.3c-1.1-0.9-3.1-1.7-4.2-3L88.8,53
	c-0.9,3-0.5,19.4-0.5,23.9c-0.1,8.4,1.1,5.2-5.4,13.2c-1,1.2-1.3,1.9-2.4,3.2c-1.2-1.8-2.5-12-2.9-15.1c-0.7-5.6-0.5-11.5-1.2-16.9
	c0.1,0.4-0.5,7-0.5,8.6c0,10.8,1.6,16.3,2.8,26.4l-6.4-3.6c0.8-2.9,1.7-4.4,0.3-7.6c-2-4.4-6.7-6-11.2-1.6c-3.1,3-2.4,1.4-6,2.5
	C58.5,87.8,59.2,86.8,62,86.4"/>
<path class="st1" d="M43.5,40.3c-0.4,0.3-11.9,6.5-4.9,12.8c1.9,1.7,2.9,1.4,5.5,2.2c0.1,3.4-0.7,8.8-0.9,12.6
	c-0.1,2.5-0.4,10.1,0.3,12.4c0.4,1.3,6.9,3.7,8.5,4.4c-0.7,1.8-3.4,2.7-1.6,7.6c1.5,4.1,2.7,3.3,4.7,5.4l2.7,0.6
	c-1.4-0.2-3.8-2.6-4.7-3.8c-1.4-1.9-1.7-4.6,0.7-5.6c1.1,1,1.7,1.7,0,2.5c-1.4-2.1,0-0.2,0.1-1.2c0.1-0.6,0.2-0.8-1-0.3
	c-0.5,1.3,0.1,1.8,0.7,2.5c4.4,0.2,2.5-7.4-2.1-2.8c0.3-2.6,1.5-3.7,3.7-4.5c1.2-0.4,2.3-0.5,3.3-0.9c1.4-0.5,1.6-1.1,2.4-1.5
	c-2.5,0.8-1.4,0.1-1.9-0.2c0.3-3.9,2.7-5.9,5.9-6.9c-0.7,1.8-1.6,3.7-2.6,4.9c-1.6,0.1-1.4-0.2-2.1-0.7c-0.1,0-0.1-0.1-0.2-0.2
	c-0.1,3.4,2.7,3,4.7-0.5c2.6-4.7,1-2.2,5-4.7c-3.7-0.9-9.5-2.3-10.5,1.9c0.8-0.8,0.8-1.1,2.5-1.3c-1.5,1.8-2,1-3.2,5.2
	c-1-1-2.4-3.6-3.1-4.8c-0.3,0.6-0.2-0.7-0.3,0.9c-0.2,2.3,3.1,3.6,3.2,7c-3.1,0.3-4.2-0.7-6.6-1.9c-1.8-0.9-4.5-1.8-5.9-2.9
	c-1-6.3-1.1-17.1-0.4-23.5c1.6-0.8,3.2-0.9,5.1-2c3.5-2,4.6-4.1,8.7-6.8c1.6-1.1,5.9-2.8,6.1-0.4l1.5-0.3c-0.2-2.9-2.5-3.3-5.4-2.5
	c-4.4,1.2-9.8,7.5-15.9,8.8L47,40.8c4.3-1.1,5.8,0.6,7.6,0.3c-0.7-2.5-3.6-2.1-6.6-2C46.4,39.3,45.2,39.9,43.5,40.3 M46.6,41
	c-0.2,2.6-1,5.5-1.4,8.3c-0.1,0.7,0.2,5.4-4.7,1.9C36.5,48.5,41.1,42.5,46.6,41z"/>
<path class="st1" d="M66.9,47.1l-0.6,0.8c1.1,0,0.5,0.1,1.5-0.2c0.1,0,0.4-0.1,0.5-0.2l0.5-0.1l0-2.5c-0.1,0.1-0.1,0.2-0.1,0.2
	L66.9,47.1z"/>
<g>
	<path class="st0" d="M43.2,122.5l-0.9-12.3c-0.6-0.2-0.9-0.5-1-0.7l0.7-1.8h5l-0.2,1.8c-0.3,0.3-0.7,0.5-1.3,0.7l0.2,6.3
		c0,1,0,1.9-0.1,2.7l-0.1,0.4h0.3c0.2-0.9,0.7-1.9,1.3-3l3.5-6.3c-0.5-0.2-0.8-0.4-1-0.7l0.7-1.8h4.9l-0.2,1.8
		c-0.3,0.3-0.9,0.6-1.6,0.8l-7.1,12.2H43.2z"/>
	<path class="st0" d="M61.1,107.7l-0.2,1.8c-0.3,0.3-0.8,0.5-1.4,0.7L57,120c0.5,0.2,0.8,0.5,1,0.7l-0.7,1.8h-5l0.2-1.8
		c0.2-0.2,0.7-0.5,1.4-0.7l2.5-9.7c-0.5-0.2-0.9-0.5-1-0.7l0.7-1.8H61.1z"/>
	<path class="st0" d="M63.4,122.5l-0.9-12.3c-0.6-0.2-0.9-0.5-1-0.7l0.7-1.8h5l-0.2,1.8c-0.3,0.3-0.7,0.5-1.3,0.7l0.2,6.3
		c0,1,0,1.9-0.1,2.7l-0.1,0.4H66c0.2-0.9,0.7-1.9,1.3-3l3.5-6.3c-0.5-0.2-0.8-0.4-1-0.7l0.7-1.8h4.9l-0.2,1.8
		c-0.3,0.3-0.9,0.6-1.6,0.8l-7.1,12.2H63.4z"/>
	<path class="st0" d="M82.4,122.4h-9.9l0.2-1.8c0.2-0.2,0.7-0.5,1.4-0.7l2.5-9.7c-0.5-0.2-0.9-0.5-1-0.7l0.7-1.8H86l-1,3.7l-1.6,0.2
		c-0.3-0.3-0.4-0.8-0.4-1.6h-3.3l-0.9,3.7h3c0.3-0.4,0.5-0.7,0.8-0.9l1.3,0.2l-1,3.8l-1.4,0.2c-0.1-0.1-0.2-0.4-0.3-0.9h-3l-1,4.1
		h3.5c0.4-0.7,0.8-1.3,1.2-1.6l1.5,0.2L82.4,122.4z"/>
	<path class="st0" d="M98.1,112c-0.2,1-0.8,1.8-1.5,2.4c-0.8,0.7-1.7,1.2-2.7,1.5c0.6,0.3,1,0.7,1.1,1.1l0.8,3
		c0.6,0.2,1,0.5,1.2,0.8l-0.6,1.6h-3.6l-1.1-5.2c-0.1-0.5-0.3-0.8-0.6-0.8h-1.4l-0.9,3.4c1,0.2,1.6,0.5,1.7,0.8l-0.7,1.8h-5.8
		l0.2-1.8c0.2-0.2,0.7-0.5,1.4-0.7l2.5-9.7c-0.5-0.2-0.9-0.5-1-0.7l0.7-1.8h5.4c2,0,3.4,0.3,4.2,1C98.3,109.3,98.5,110.4,98.1,112z
		 M92.5,110h-1.3l-1,4h1.2c1,0,1.7-0.1,2.3-0.4c0.5-0.3,0.9-0.8,1.1-1.6c0.2-0.8,0.1-1.3-0.3-1.6C94.1,110.2,93.4,110,92.5,110z"/>
	<path class="st0" d="M107.4,122.4h-9.9l0.2-1.8c0.2-0.2,0.7-0.5,1.4-0.7l2.5-9.7c-0.5-0.2-0.9-0.5-1-0.7l0.7-1.8h9.7l-1,3.7
		l-1.6,0.2c-0.3-0.3-0.4-0.8-0.4-1.6h-3.3l-0.9,3.7h3c0.3-0.4,0.5-0.7,0.8-0.9l1.3,0.2l-1,3.8l-1.4,0.2c-0.2-0.1-0.3-0.4-0.3-0.9h-3
		l-1,4.1h3.5c0.4-0.7,0.8-1.3,1.2-1.6l1.5,0.2L107.4,122.4z"/>
	<path class="st0" d="M118.5,110c-0.5-0.1-0.9-0.2-1.5-0.2c-0.5,0-1,0.1-1.4,0.4c-0.4,0.3-0.6,0.6-0.8,1.1c-0.1,0.5-0.1,0.8,0.1,1.1
		c0.2,0.3,0.6,0.5,1.2,0.7l1.8,0.6c1,0.3,1.6,0.8,2.1,1.4c0.4,0.6,0.5,1.6,0.2,2.8c-0.4,1.5-1.2,2.6-2.5,3.4
		c-1.3,0.8-2.7,1.3-4.2,1.3c-0.9,0-1.7-0.1-2.6-0.3c-0.8-0.2-1.5-0.5-2-0.9c0-0.1,0.1-0.3,0.1-0.5c0.1-0.2,0.2-0.7,0.5-1.2
		c0.2-0.6,0.5-1.1,0.8-1.4h2c0.1,0.4,0.1,1,0,1.8c0.4,0.2,1,0.3,1.7,0.3c0.7,0,1.2-0.2,1.8-0.5c0.5-0.3,0.8-0.8,1-1.3
		c0.1-0.3,0.1-0.5,0.1-0.7c0-0.2-0.1-0.4-0.2-0.6c-0.2-0.2-0.4-0.4-0.8-0.5l-2-0.6c-2.1-0.6-2.8-2.1-2.3-4.3
		c0.3-1.3,1.1-2.3,2.2-3.1s2.5-1.2,4-1.2c1.5,0,2.9,0.3,4.2,1c0,0.1-0.1,0.2-0.1,0.5c-0.1,0.2-0.2,0.7-0.5,1.2
		c-0.2,0.6-0.5,1.1-0.8,1.4h-2C118.3,111.4,118.3,110.8,118.5,110z"/>
</g>
<g>
	<path class="st0" d="M60.2,133.5l1.8-7.8h2.2c0.7,0,1.3,0.2,1.7,0.5c0.5,0.3,0.8,0.7,0.9,1.3c0.2,0.6,0.2,1.2,0,1.9l-0.1,0.5
		c-0.2,0.7-0.5,1.4-0.9,1.9c-0.4,0.6-0.9,1-1.5,1.3c-0.6,0.3-1.3,0.4-2,0.5H60.2z M62.8,126.5l-1.4,6.2h1.1c0.8,0,1.5-0.2,2-0.7
		c0.6-0.5,0.9-1.2,1.1-2.1l0.1-0.5c0.2-0.9,0.1-1.6-0.2-2.1c-0.3-0.5-0.8-0.7-1.6-0.8H62.8z"/>
	<path class="st0" d="M72.7,129.9h-3.4l-0.6,2.8h4l-0.2,0.8h-5l1.8-7.8h4.9l-0.2,0.8h-3.9l-0.6,2.5h3.4L72.7,129.9z"/>
	<path class="st0" d="M75,132.6h3.7l-0.2,0.8h-4.8l1.8-7.8h1L75,132.6z"/>
	<path class="st0" d="M80.8,133.5h-1l1.8-7.8h1L80.8,133.5z"/>
	<path class="st0" d="M85.6,132.1l3.7-6.5h1.1l-4.7,7.8h-0.9l-1.1-7.8h1.1L85.6,132.1z"/>
	<path class="st0" d="M95,129.9h-3.4l-0.6,2.8h4l-0.2,0.8h-5l1.8-7.8h4.9l-0.2,0.8h-3.9l-0.6,2.5h3.4L95,129.9z"/>
	<path class="st0" d="M99.6,130.3h-1.8l-0.7,3.2h-1l1.8-7.8h2.6c0.9,0,1.5,0.2,1.9,0.6c0.4,0.4,0.5,1,0.3,1.8
		c-0.1,0.5-0.3,0.9-0.7,1.3c-0.3,0.4-0.8,0.6-1.3,0.8l1.1,3.3l0,0.1h-1.1L99.6,130.3z M98,129.5h1.6c0.5,0,1-0.1,1.3-0.4
		c0.4-0.3,0.6-0.6,0.7-1.1c0.1-0.5,0.1-0.9-0.2-1.1c-0.2-0.3-0.6-0.4-1.2-0.4h-1.6L98,129.5z"/>
</g>
<g>
	<path class="st0" d="M105.8,129.6l2.9-3.9h1.2l-3.8,4.9l-0.7,2.9h-1l0.7-2.9l-1.6-4.9h1.2L105.8,129.6z"/>
</g>
<ellipse class="st0" cx="75" cy="142.3" rx="62.4" ry="1.8"/>
</svg>
