<?xml version="1.0" encoding="utf-8"?>
<!-- Generator: Adobe Illustrator 24.0.2, SVG Export Plug-In . SVG Version: 6.00 Build 0)  -->
<svg version="1.1" id="Capa_1" xmlns="http://www.w3.org/2000/svg" xmlns:xlink="http://www.w3.org/1999/xlink" x="0px" y="0px"
	 viewBox="0 0 859.3 866.4" style="enable-background:new 0 0 859.3 866.4;" xml:space="preserve">
<style type="text/css">
	.st0{fill:#333333;}
	.st1{fill-rule:evenodd;clip-rule:evenodd;fill:#333333;}
</style>
<g>
	<path class="st0" d="M505.2,850.3c1,0,1.9-0.3,2.9-0.8c0.9-0.5,1.7-1.7,2.3-3.4c0.6-1.7,0.9-4.4,0.9-7.9c0-3.8-0.3-6.5-0.9-8.1
		c-0.6-1.7-1.4-2.7-2.4-3.1c-1-0.4-1.9-0.6-2.8-0.6c-1.3,0-2.5,0.2-3.8,0.7c-1.3,0.5-2.2,0.9-2.7,1.3v20.5c0.7,0.4,1.6,0.7,2.7,1
		C502.4,850.2,503.7,850.3,505.2,850.3 M512.7,865.9c-2.2,0-4.2-0.2-5.8-0.7c-1.6-0.5-3.1-1.1-4.4-1.9c-1.3-0.8-2.6-1.8-3.9-2.8
		l-3,4.9h-16.2v-75.6h19.2v25.2c1.8-0.9,3.8-1.8,6.2-2.6c2.3-0.8,4.6-1.2,6.9-1.2c4.8,0,8.5,1,11.2,3c2.7,2,4.7,5,5.8,9.2
		c1.2,4.1,1.7,9.5,1.7,16.1c0,6.3-0.7,11.4-2,15.3c-1.3,3.9-3.3,6.8-5.9,8.6C520,865,516.7,865.9,512.7,865.9z M443.9,834h7.6
		c1.3,0,2.3-0.3,2.9-0.9c0.6-0.6,0.9-1.6,0.9-3.1c0-1.3-0.2-2.3-0.6-3.1c-0.4-0.8-1-1.4-1.9-1.7c-0.9-0.4-2-0.5-3.4-0.5
		c-1.3,0-2.3,0.3-3.1,0.8c-0.8,0.5-1.4,1.5-1.8,2.8C444.1,829.7,443.9,831.6,443.9,834z M450.3,865.8c-6.1,0-11-0.8-14.7-2.3
		c-3.7-1.5-6.4-4.2-8.1-8.2c-1.7-3.9-2.5-9.5-2.5-16.6c0-7.3,0.8-13,2.3-17s4-6.8,7.6-8.4c3.5-1.6,8.4-2.4,14.5-2.4
		c5.7,0,10.2,0.5,13.5,1.6c3.3,1.1,5.7,3,7.1,5.7c1.4,2.7,2.1,6.6,2.1,11.6c0,3.9-0.8,6.9-2.3,9.2c-1.5,2.2-3.7,3.8-6.4,4.7
		c-2.8,0.9-6,1.4-9.8,1.4h-9.5c0.2,1.6,0.6,2.9,1.2,3.8c0.6,1,1.7,1.6,3.3,2c1.6,0.4,3.9,0.6,7,0.6h14.6v11.2
		c-2.3,0.7-5.1,1.3-8.3,2C458.7,865.5,454.8,865.8,450.3,865.8z M345.3,865.3l-16.8-73.6h19.9l9.1,44.8l11-44.8h17.2l10.9,44.8
		l9.1-44.8h19.9l-16.8,73.6h-19.2l-12.5-45l-12.6,45H345.3z M587.9,752.8c-1.9,0-3.8-0.1-5.7-0.2c-1.9-0.1-3.8-0.3-5.6-0.5
		c-1.8-0.2-3.5-0.5-5.1-0.9c-1.6-0.4-3-0.9-4.3-1.4v-11.2h24.8c0.9,0,1.5-0.1,1.9-0.2c0.4-0.2,0.7-0.4,0.8-0.7
		c0.1-0.3,0.2-0.6,0.2-1v-1.3c0-0.7-0.2-1.2-0.6-1.5c-0.4-0.4-1.4-0.5-3-0.5h-8.9c-3,0-5.7-0.5-8.2-1.5c-2.5-1-4.5-2.6-5.9-4.9
		c-1.5-2.2-2.2-5.2-2.2-9v-3.3c0-3.4,0.7-6.4,2-8.8c1.3-2.4,3.7-4.3,7-5.5c3.4-1.3,8.1-1.9,14.2-1.9c2.4,0,4.9,0.1,7.4,0.4
		c2.5,0.3,4.8,0.7,7,1.1c2.1,0.5,3.8,1,5,1.5v11.2h-23.5c-1,0-1.7,0.1-2.2,0.4c-0.5,0.3-0.7,0.8-0.7,1.5v1.3c0,0.5,0.1,0.9,0.3,1.2
		c0.2,0.3,0.6,0.5,1.2,0.6c0.6,0.1,1.4,0.2,2.4,0.2h9.2c5.8,0,9.9,1.3,12.2,4c2.3,2.6,3.5,6.2,3.5,10.7v5.4c0,3.6-0.9,6.4-2.6,8.6
		c-1.7,2.2-4.3,3.7-7.7,4.7C597.4,752.3,593.1,752.8,587.9,752.8z M535,737.4c1.3,0,2.3-0.1,3.1-0.3c0.8-0.2,1.4-0.7,1.9-1.5
		c0.5-0.8,0.8-2,1-3.7c0.2-1.7,0.3-3.9,0.3-6.6c0-2.8-0.1-5-0.3-6.6c-0.2-1.6-0.5-2.8-1-3.6c-0.5-0.8-1.1-1.3-1.9-1.5
		c-0.8-0.2-1.8-0.3-3.1-0.3c-1.3,0-2.3,0.1-3.1,0.3c-0.8,0.2-1.4,0.7-1.9,1.5c-0.5,0.8-0.8,2-1,3.6c-0.2,1.6-0.3,3.8-0.3,6.6
		c0,2.8,0.1,5,0.3,6.6c0.2,1.7,0.5,2.9,1,3.7c0.5,0.8,1.1,1.3,1.9,1.5C532.7,737.3,533.7,737.4,535,737.4z M535,752.7
		c-4.8,0-8.8-0.5-12-1.5c-3.3-1-5.9-2.6-7.9-4.8c-2-2.2-3.4-5-4.3-8.5c-0.9-3.5-1.3-7.7-1.3-12.6c0-5.3,0.4-9.8,1.3-13.3
		c0.9-3.5,2.3-6.3,4.3-8.4c2-2.1,4.6-3.5,7.9-4.4c3.3-0.9,7.2-1.3,11.9-1.3c4.8,0,8.8,0.5,12,1.4c3.3,0.9,5.9,2.4,7.8,4.5
		c1.9,2.1,3.4,4.9,4.3,8.4c0.9,3.5,1.3,7.9,1.3,13.1c0,5.2-0.4,9.5-1.2,13c-0.8,3.5-2.2,6.3-4.2,8.4c-1.9,2.1-4.6,3.6-7.8,4.6
		C543.9,752.2,539.9,752.7,535,752.7z M458.2,691.1c0.3-3.6,0.9-6.4,1.9-8.5c1-2.1,2.3-3.6,3.9-4.5c1.6-0.9,3.3-1.4,5.2-1.4
		c1.7,0,3.2,0.2,4.5,0.5c1.3,0.4,2.4,0.8,3.4,1.3c1,0.5,2,0.9,2.9,1.3c0.9,0.4,1.9,0.5,3.1,0.5c1,0,1.7-0.4,2.2-1.1
		c0.5-0.8,0.8-1.8,0.8-3.2h9.5c-0.3,5.1-1.3,8.8-3.1,11.2c-1.8,2.4-4.3,3.6-7.6,3.6c-1.7,0-3.1-0.2-4.5-0.5
		c-1.3-0.4-2.5-0.8-3.6-1.3c-1.1-0.5-2.1-0.9-3.1-1.3c-1-0.4-1.9-0.5-2.8-0.5c-1.1,0-1.8,0.4-2.3,1.1c-0.5,0.8-0.8,1.7-0.9,2.7
		H458.2z M451.5,752.2v-53.4h16l3.2,5.2c1.7-1.5,3.9-2.9,6.6-4.2c2.8-1.3,5.6-1.9,8.4-1.9c4.6,0,8.1,0.9,10.5,2.6
		c2.4,1.7,4,4.1,4.9,7.1c0.9,3,1.3,6.4,1.3,10.1v34.5h-19.2v-31.9c0-1.4-0.2-2.4-0.7-3.2c-0.5-0.7-1.1-1.2-1.8-1.5
		c-0.8-0.3-1.7-0.4-2.7-0.4c-0.9,0-1.7,0.1-2.7,0.4c-0.9,0.3-1.8,0.6-2.5,1.1c-0.8,0.5-1.4,1-2,1.6v34H451.5z M415.9,720.9h7.6
		c1.3,0,2.3-0.3,2.9-0.9c0.6-0.6,0.9-1.6,0.9-3.1c0-1.3-0.2-2.3-0.6-3.1c-0.4-0.8-1-1.4-1.9-1.7c-0.9-0.4-2-0.5-3.4-0.5
		c-1.3,0-2.3,0.3-3.1,0.8c-0.8,0.5-1.4,1.5-1.8,2.8C416.1,716.5,415.9,718.4,415.9,720.9z M422.4,752.7c-6.1,0-11-0.8-14.7-2.3
		c-3.7-1.5-6.4-4.2-8.1-8.2c-1.7-3.9-2.5-9.5-2.5-16.6c0-7.3,0.8-13,2.3-17c1.5-4,4-6.8,7.6-8.4c3.5-1.6,8.4-2.4,14.5-2.4
		c5.7,0,10.2,0.5,13.5,1.6c3.3,1.1,5.7,3,7.1,5.7c1.4,2.7,2.1,6.6,2.1,11.6c0,3.9-0.8,6.9-2.3,9.2c-1.5,2.2-3.7,3.8-6.4,4.7
		c-2.8,0.9-6,1.4-9.8,1.4h-9.5c0.2,1.6,0.6,2.9,1.2,3.8c0.6,1,1.7,1.6,3.3,2c1.6,0.4,3.9,0.6,7,0.6h14.6v11.2
		c-2.3,0.7-5.1,1.3-8.3,2C430.7,752.3,426.9,752.7,422.4,752.7z M368.3,752.8c-1.9,0-3.8-0.1-5.7-0.2c-1.9-0.1-3.8-0.3-5.6-0.5
		c-1.8-0.2-3.5-0.5-5.1-0.9c-1.6-0.4-3-0.9-4.3-1.4v-11.2h24.8c0.9,0,1.5-0.1,1.9-0.2c0.4-0.2,0.7-0.4,0.8-0.7
		c0.1-0.3,0.2-0.6,0.2-1v-1.3c0-0.7-0.2-1.2-0.6-1.5c-0.4-0.4-1.4-0.5-3-0.5h-8.9c-3,0-5.7-0.5-8.2-1.5c-2.5-1-4.5-2.6-5.9-4.9
		c-1.5-2.2-2.2-5.2-2.2-9v-3.3c0-3.4,0.7-6.4,2-8.8c1.3-2.4,3.7-4.3,7-5.5c3.4-1.3,8.1-1.9,14.2-1.9c2.4,0,4.9,0.1,7.4,0.4
		c2.5,0.3,4.8,0.7,7,1.1c2.1,0.5,3.8,1,5,1.5v11.2h-23.5c-1,0-1.7,0.1-2.2,0.4c-0.5,0.3-0.7,0.8-0.7,1.5v1.3c0,0.5,0.1,0.9,0.3,1.2
		c0.2,0.3,0.6,0.5,1.2,0.6c0.6,0.1,1.4,0.2,2.4,0.2h9.2c5.8,0,9.9,1.3,12.2,4c2.3,2.6,3.5,6.2,3.5,10.7v5.4c0,3.6-0.9,6.4-2.6,8.6
		s-4.3,3.7-7.7,4.7C377.8,752.3,373.5,752.8,368.3,752.8z M320.3,752.2v-53.4h19.2v53.4H320.3z M322.4,692.1c-1.6,0-2.4-0.8-2.4-2.3
		v-11c0-1.7,0.8-2.5,2.4-2.5h15.1c0.7,0,1.3,0.2,1.6,0.7c0.4,0.5,0.5,1.1,0.5,1.8v11c0,1.5-0.7,2.3-2.2,2.3H322.4z M272.4,734.9
		h11.3c2.4,0,4.3-0.7,5.7-2c1.4-1.3,2.3-3.4,2.9-6.3c0.6-2.9,0.8-6.6,0.8-11.2c0-4.4-0.2-7.8-0.6-10.4c-0.4-2.6-1.1-4.6-1.9-5.9
		c-0.8-1.3-1.8-2.2-3-2.6c-1.2-0.4-2.5-0.6-3.9-0.6h-11.3V734.9z M253.2,752.2v-73.6h32.5c5.3,0,9.7,0.9,13.2,2.8
		c3.4,1.9,6.1,4.5,8.1,7.9c2,3.4,3.4,7.3,4.2,11.7c0.8,4.5,1.2,9.3,1.2,14.4c0,8.6-1,15.7-2.9,21c-1.9,5.4-4.9,9.3-8.8,11.9
		c-3.9,2.5-8.9,3.8-14.9,3.8H253.2z"/>
	<path class="st1" d="M68.8,24.5v281.2c0.5,1.3,0.8,4.3,1.4,6.1c1.7,5.3,5.1,10.2,9.3,13.4c7.6,5.9,12.9,6.2,24.4,6.2h167.3
		c4.8,0,10.8-0.3,15.4,0.1l0.1,28.3c-6.1,0.3-27.8-0.8-31.6,0.6c-6.2,2.2-8.4,10.4-3.6,15.5c2,2.2,2.7,1.6,5.2,2.9h136.1
		c2.5-1.5,3-0.8,5.1-3.1c4.7-5,2.2-13.2-3.8-15.3c-4-1.4-25.4-0.3-31.6-0.6l0-28.3c4.5-0.3,10.1-0.1,14.8-0.1h161.3
		c9.7,0,18.3,1,26.2-3.1c3.4-1.8,6.1-4,8.4-6.5c1.3-1.4,5-6.6,5.3-9.3c-8.5,0-11.7,0.5-19.9-1.4c-2-0.4-1.5-0.2-3.1,0.6
		c-2.3,1-4.7,0.8-7.4,0.8l-448.5,0c-5.6,0-9-1.6-10.8-5.6c-1.6-3.4-1.1-26.9-0.8-32.3l400.5,0c-0.8-1.7-5.5-4.6-9.8-13.8
		c-0.4-0.9-0.8-1.7-1.1-2.6c-0.2-0.4-0.3-1-0.5-1.4c-0.6-1.4,0-0.6-0.9-1l-388.2,0c-0.4-7.7,0-16.2,0-24V39.8
		c0-8.3-1.5-15.7,4.6-19.4c4-2.5,16.9-1.4,22.6-1.4h431.8c5.8,0,14.1-0.1,14.5,9.5c0.6,13.3-0.2,33.5,0,48c3.3-0.2,5.7-0.7,9.1-0.7
		c3.2,0,6.5,0.1,9.8,0c0.2-5.8,0.3-46.4-0.1-50.4c-1-9.9-7.5-18.3-15.5-22.3c-5.2-2.6-7.6-2.1-9.6-3H93.5c-2,1.1-17.6,2.3-23.3,19.7
		C69.7,21.2,69.3,23.6,68.8,24.5 M305.5,331.5l37.8-0.1l0,2.5l0,24.6l0,1.2l-37.8,0L305.5,331.5z"/>
	<path class="st1" d="M674.8,204.4v-19.5c-0.8-2.1-0.8-4.4-2-7c-2.7-5.7-7.6-10.9-14.4-12.8c-3.5-1-2.6-1.8-4.1-5.1
		c-1.3-2.9-0.6-1.6,1.4-6.4c1.9-4.8,2.1-10.6,0.5-15.6c-1.7-5.3-4.4-8.1-7.3-11c-2.8-2.9-6-6.4-9.1-8.9c-3.2-2.7-7.2-5-12.7-5.6
		c-7.1-0.8-9.9,1-14.8,3.2c-1.4,0.6-2.2-0.2-3.5-0.7c-0.7-0.3-2.7-1-3.2-1.3c-1.6-1-1.9-10-11.5-15.6c-5-2.9-8.3-3.3-15-3.3
		c-5.5,0-12.1-0.5-17.1,0.9c-6.7,1.9-12,6.7-14.7,12.7c-0.5,1.1-0.9,2-1.2,3.2c-0.5,1.9-0.2,1.7-2,2.4c-4.6,1.8-4.2,2.5-6.5,1.1
		c-6.5-3.8-15.7-3.6-22-0.3c-4.6,2.4-15.9,13.5-18.5,17.8c-2.4,3.9-4,9-3.5,14.8c0.3,2.7,0.9,4.9,1.9,7.3c1.7,3.8,2.3,2,0.5,6.2
		c-2,4.6-0.3,2.9-4.6,4.5c-2.2,0.8-4.3,2-6,3.2c-10,7.2-9.5,16.7-9.5,26.8c0,10.7,0.8,18.7,11,25.3c6.6,4.3,6.9,1.1,8.5,5.1
		c0.4,1.1,0.8,1.9,1.3,3.1c1,2.3-0.6,2.2-2,6.4c-0.8,2.3-1.3,5.2-1.3,8c0.1,11.2,6.6,16.1,13.5,23c2.9,2.9,5.4,5.7,10.2,7.8
		c4.6,2,10.8,2.5,15.8,1c1.6-0.5,5.9-2.7,6.5-2.7c0.7,0,5.1,2.1,6.4,2.4c1.1,8,7.9,14.7,14.5,17.2c5.6,2.1,22.7,2.3,28.7,0.6
		c7.4-2.2,13.6-8.3,15.6-15.6c0.9-3.1,1.6-2.4,4.3-3.6c3.7-1.6,2.3-1,5.5,0.5c4,1.8,8.4,2.7,13.4,2c9.4-1.3,14.7-8,19.1-12.4
		c4.6-4.6,10.8-10,10.5-21c-0.3-7.7-3.6-10.8-3.6-12.3c0-0.2,2-5.4,2.2-5.7c0.6-1,1.2-0.8,2.5-1.2c6.6-1.9,11.8-7.1,14.5-13
		L674.8,204.4z M564.2,128c0.2-3.1-0.6-9.8,0.7-12.2c1.7-2.9,6.3-2.1,10.5-2.1c4.4,0,9-0.8,10.6,2.3c1.2,2.4,0.3,8.9,0.6,12
		c2.7,0.7,5.3,1.1,7.9,1.9c12,3.5,17.5,8.6,19.7,9.5c2.1-1.5,6.4-6.9,8.5-7.8c2.8-1.1,4.7,0.7,5.8,1.9c1.4,1.4,2.6,2.6,3.9,4
		c3.4,3.5,7.4,6,5.3,9.9c-1,1.8-6.1,5.9-7.6,8c1.5,3.2,3.9,5.4,6.9,12.5c1,2.3,1.8,4.6,2.6,7.2c0.8,2.5,1.1,5.3,1.9,7.9
		c3.2,0.4,9.8-0.6,12.2,0.7c2.9,1.6,2.1,6.4,2.1,10.5c0,4,0.9,8.9-2.3,10.6c-2.2,1.2-9,0.4-12,0.6c-1.9,6.9-1.2,7.3-4.5,15.1
		c-2.9,6.9-5.3,9.2-6.9,12.5c4.8,5.6,11.7,8.5,6.1,14.1l-8,8.1c-5.6,5.6-8.7-2.2-14-6.2c-2.9,1.3-6.3,4.3-12.7,7
		c-8,3.3-8.9,2.6-14.8,4.4c-0.4,3.2,0.6,9.8-0.8,12.2c-1.7,2.9-6.4,2.1-10.5,2.1c-4.3,0-9,0.8-10.6-2.3c-1.2-2.3-0.4-8.9-0.6-12
		c-6-1.5-9.6-2.3-15.1-4.5c-7-2.8-10-5.7-12.5-6.9c-1.1,0.7-3.4,3.2-4.2,4.1c-6.5,7.2-7.9,3.9-14-2.1c-1.4-1.4-2.7-2.7-4.1-4.1
		c-5.3-5.5,2.4-8.8,6.4-13.8c-1-1.8-2.5-3.9-3.7-6c-1.2-2.2-2.3-4.2-3.2-6.5c-2.3-5.4-2.9-9.2-4.5-15.1c-3.2-0.3-9.8,0.7-12.2-0.7
		c-2.9-1.7-2.1-6.3-2.1-10.5c0-4.1-0.9-8.9,2.3-10.6c2.3-1.2,8.9-0.4,12-0.6c1.5-5.9,2.3-9.7,4.5-15.1c2.8-6.7,5.7-9.9,6.9-12.5
		l-4.1-4.2c-6.3-6.4-5.3-6.6,2-13.9c1.5-1.5,2.7-2.7,4.1-4.1c4.8-4.8,7.6,0.1,12,4.3l2,1.9c3.5-1.6,5.9-4.3,12.7-7
		C557.3,129.2,556.8,129.9,564.2,128z"/>
	<path class="st1" d="M571.4,156.5c-19.6,2.2-36.1,19.4-33.6,41.9c2.1,19.4,19.7,35.9,41.8,33.4c19.4-2.1,36-19.6,33.5-41.9
		C610.9,170.5,593.4,154,571.4,156.5 M572.7,175.4c11.1-1.8,20,6.5,21.4,15.8c1.7,11.2-6.5,20.2-15.8,21.6
		c-11.3,1.7-20.1-6.4-21.6-15.8C554.9,185.5,563.2,176.9,572.7,175.4z"/>
	<path class="st1" d="M444.4,137.3c-1.2,1.2-4.4,3-6,4.1l-53,35.4c-3.6,2.4-15.1,9.2-17,12.4c-4.6,7.6,3,17,11.6,13.8
		c2.4-0.9,20.9-13.7,23.8-15.6c7.9-5,15.6-10.5,23.5-15.6c11.5-7.4,23.6-15.9,35.2-23.5c3.8-2.5,8.7-4.7,8.7-10.9
		c0-6.4-5.1-8.4-8.9-11c-3.9-2.8-7.8-5.1-11.7-7.9l-35.4-23.6c-3.9-2.5-33-22.4-35.4-23.3c-6-2.2-11.1,1.8-12.4,6.4
		c-1.9,6.7,3,9.8,6.6,12.2L444.4,137.3z"/>
	<path class="st1" d="M204.5,137.3c0.8-1,4.5-3.1,5.8-4c2-1.3,3.6-2.4,5.9-3.9l58.7-39.2c3.9-2.6,8.4-5.7,6.6-12.3
		c-1.2-4.5-6.4-8.7-12.4-6.4c-2.3,0.9-9.4,5.9-11.9,7.6l-35.4,23.6c-11.5,7.9-23.9,15.7-35.2,23.5c-3.9,2.7-8.9,4.8-8.9,11
		c0,6.3,5,8.3,8.7,10.9c3.9,2.8,7.8,5.1,11.7,7.8c3.9,2.7,7.8,5.2,11.7,7.9c3.8,2.6,8,5.1,11.8,7.8c1.9,1.4,3.9,2.6,5.9,3.9
		l29.3,19.6c2.4,1.6,10.1,7,12.1,7.8c8.8,3.3,16.1-6.3,11.5-13.8c-1.3-2.2-3-3-5.2-4.6c-7.7-5.3-15.8-10.6-23.7-15.8l-35.2-23.5
		C214.4,144.1,205.3,138.3,204.5,137.3"/>
	<path class="st1" d="M341.5,57c-7.7,1.7-7.9,9.4-10.1,17.2l-17.2,64.5c-3.8,14.5-7.7,28.4-11.4,42.9c-1.8,7.1-3.8,14.5-5.7,21.4
		c-1.1,4.1-1.8,7.5,0.7,10.8c1.7,2.4,5.2,4.8,9.7,3.8c7.4-1.6,7.9-9.5,10-17.2l34.3-128.8c1.1-4.2,1.9-7.3-0.7-10.8
		C349.4,58.5,346.1,56,341.5,57"/>
	<path class="st1" d="M277.2,295.1c0.6,3.7,3.1,6.5,6.6,7.5c3.1,0.9,62.8,0.4,70.6,0.4c4.2,0,9.6,0.6,12.9-1.3
		c6.7-4.2,5.9-14.8-2.2-17.2c-3.1-0.9-62.8-0.4-70.6-0.4c-4.1,0-9.7-0.7-12.8,1.4C279,287.1,276.5,290.3,277.2,295.1"/>
	<path class="st1" d="M138.6,291.6c0.5,4,4.2,7.4,8.7,6.9c10.5-1,8.7-17.1-1.9-15.8C141.5,283.2,138.1,286.9,138.6,291.6"/>
	<path class="st1" d="M122.5,292.3c1.1-4.6-2.3-8.5-5.9-9.4c-4.9-1.2-8.9,2.2-9.6,5.9C104.8,299.3,120.2,302.6,122.5,292.3"/>
	<path class="st1" d="M91.2,447.3v203.3c0,8.2,7.3,15.9,15.4,15.9h110.6c8.7,0,15.4-8,15.4-16.9v-22.4v-22.9v-5.5v-17.9v-5.5v-15.4
		v-5.5v-10.7V526h28.9c5.8,0,12-6.2,12-12v-35.9c0-5.8-6.1-12-12-12h-28.9v-17.9c0-9-6.7-16.9-15.4-16.9H106.6
		C98.5,431.3,91.2,439.1,91.2,447.3 M138,436.8h47.8c-0.2,2.4-1.4,4.6-2,7H140c-0.3-1.4-0.6-2.1-1.1-3.4
		C138.7,439.6,138.3,437.5,138,436.8z M186.4,478.2V514c0,5.8,6.2,12,12,12h28.9v112.6H96.7V447.3c0-5.2,4.7-10.5,10-10.5h24.4
		c3.3,0,2.5,12.5,7,12.5h47.8c4.6,0,3.7-12.5,7-12.5h24.4c5.3,0,10,5.2,10,10.5v18.9h-29.4C192.5,466.2,186.4,472.3,186.4,478.2z
		 M260.6,520.5h-61.3c-3.7,0-7.5-2.9-7.5-6.5v-35.9c0-3.1,3.4-6.5,6.5-6.5h63.3c3.1,0,6.5,3.4,6.5,6.5V513
		C268.1,517.3,264.9,520.5,260.6,520.5z M96.7,650.6v-6.5h130.6v6.5c0,5.2-4.7,10.5-10,10.5H106.6C101.4,661,96.7,655.8,96.7,650.6z
		"/>
	<path class="st1" d="M184.7,581.1c-2.2,0.5-4,1.6-5.2,1.9c-1-0.7-3.1-3.3-4.1-3.3c-2,0-3.3,2.1-4.4,3.2c-1,1-3.5,2.9-3.5,4.4
		c0,1.8,2.4,3.1,3.3,4.4c-0.4,1.6-1.7,3.2-1.9,5.2c-1.1,0-3-0.1-4.1,0c-1,0.1-2.2,0.9-2.2,1.9c0,10.8-1.1,10.4,6.3,10.4
		c0.1,1.4,1.3,3.8,1.9,4.9l-1.5,1.7c-3.5,3.4-1.6,3.9,3.5,9.1c3.2,3.3,4.4-0.6,6.8-2.1c3.2,1.7,4,1.6,5.2,2.2c0,6.6-1,6.3,8.4,6.3
		c4.5,0,3.5-2.6,3.5-6.3c1.1-0.5,2-0.5,5.2-2.2c4.4,3,2.5,6.3,9.5-0.6c1.5-1.5,2.5-1.8,2.5-4c0-1.1-2.6-3.1-3.3-4.1
		c0.6-1.1,1.8-3.5,1.9-4.9c7.4,0,6.3,0.4,6.3-10.4c0-2.5-4.8-1.9-6.3-1.9c-0.2-2-1.5-3.5-1.9-5.2c0.8-1.3,3.3-2.6,3.3-4.4
		c0-1.5-6.1-7.6-7.6-7.6c-1.5,0-3.2,2.5-4.4,3.3c-1.1-0.3-3-1.4-5.2-1.9c0-7.2,0.8-6.3-9.5-6.3C183.9,574.8,184.7,578.2,184.7,581.1
		 M170.8,587.3l4.1-4.3c0.8,0.5,3.2,3.5,4,3.5c0.6,0,4.3-1.9,7.1-2.7c2.2-0.7,1.6-2.1,1.6-6h6c0,7.2-0.2,5.1,3.7,6.6
		c0.8,0.3,4.2,2.1,4.4,2.1c1.8,0,3.1-2.4,4.4-3.3l4.4,4.3c-0.6,0.4-3.6,3.2-3.6,3.6c0,1,1.3,3,1.7,4c0.7,1.5,0.9,3.1,1.5,4.5
		c2,0.5,3,0.3,5.5,0.3v6.3c-7.1,0-4.9-0.5-6.7,3.9c-0.4,0.9-2,3.9-2,4.2c0,1.1,2.8,3.6,3.5,4.1l-4.3,4.4c-3.8-2.6-2.2-4.6-6.5-2.4
		c-6.5,3.3-6.1-0.4-6.1,7.5h-6c0-7.9,0.1-4.3-6.1-7.5c-4.4-2.2-2.8-0.1-6.4,2.3l-4.4-4.3c1.1-0.7,1.9-1.7,2.7-2.6
		c2-2-0.5-2.8-1.7-7.4c-0.8-3.1-0.9-2.6-6.1-2.6v-6c9,0,3.9-0.3,7.9-6.6C175.6,590,173.1,590.7,170.8,587.3z"/>
	<path class="st1" d="M190.4,617.3c8.3,0,14-6,14.6-14c0.2-3.1-1.4-7.6-3.8-9.9c-1.3-1.3-2.3-2.3-3.9-3.2c-3.9-2.1-9.1-2.1-13.1-0.1
		c-1.7,0.8-2.7,1.9-4,3.1C171.8,601.7,178.1,617.3,190.4,617.3 M189.9,591.7c3.8,0,6.5,0.8,9.1,3.5c1.7,1.8,3.2,4.8,3,7.9
		c-0.1,3.1-1.1,5.8-3.2,7.9c-6.3,6.3-18.5,3.5-19.3-7.5C179,597.2,184.4,591.7,189.9,591.7z"/>
	<path class="st1" d="M215.3,485.6c0,6.2-1.1,22.5,1.6,25.8c4.7,5.8,11.7-0.1,19.4-4.8c2.4-1.4,4.6-2.5,7-4c2.8-1.7,4.9-2.7,4.9-6.6
		c0-5.1-5.4-7.2-11.5-10.5c-2.3-1.3-4.6-2.6-7-4c-1.6-0.9-5.2-3.5-7.5-3.5C218,478.2,215.3,481.4,215.3,485.6 M221.2,508.6
		c-0.9-3.9-0.9-21,0-24.9c3.8,0.3,17,10.4,21.4,11.5c-0.2,1.9-0.2,1.7-1.5,2.5C238.8,499.2,222.8,508.4,221.2,508.6z"/>
	<path class="st1" d="M108.6,505.6c0,1.6,0.5,3.5,2.5,3.5h53.8c2.9,0,3.6-5.5,0.5-5.5h-54.8C109.5,503.6,108.6,504.4,108.6,505.6"/>
	<path class="st1" d="M108.6,487.6l0.5,3c5.1,1.2,33.4,0.5,40.9,0.5c5.1,0,3.9-5.5,1-5.5h-40.4C109.5,485.6,108.6,486.5,108.6,487.6
		"/>
	<path class="st1" d="M108.6,470.7c0,1.8-0.3,3.5,3,3.5c6.2,0,24,0.6,28.9-0.5c0.5-2,1.7-5-2.5-5h-26.4
		C110.1,468.7,108.6,469.2,108.6,470.7"/>
	<path class="st1" d="M179.5,550.4c-0.3,0.3-1.2,0.8-1.6,1.1l-14.3,9.6c-1,0.7-4.1,2.5-4.6,3.4c-1.2,2.1,0.8,4.6,3.1,3.7
		c0.6-0.2,5.7-3.7,6.5-4.2c2.1-1.4,4.2-2.9,6.4-4.2c3.1-2,6.4-4.3,9.5-6.4c1-0.7,2.4-1.3,2.4-2.9c0-1.7-1.4-2.3-2.4-3
		c-1.1-0.7-2.1-1.4-3.2-2.1l-9.6-6.4c-1.1-0.7-8.9-6.1-9.6-6.3c-1.6-0.6-3,0.5-3.4,1.7c-0.5,1.8,0.8,2.6,1.8,3.3L179.5,550.4z"/>
	<path class="st1" d="M114.6,550.4c0.2-0.3,1.2-0.8,1.6-1.1c0.5-0.4,1-0.7,1.6-1.1l15.9-10.6c1.1-0.7,2.3-1.5,1.8-3.3
		c-0.3-1.2-1.7-2.4-3.3-1.7c-0.6,0.2-2.5,1.6-3.2,2.1l-9.6,6.4c-3.1,2.1-6.5,4.2-9.5,6.4c-1.1,0.7-2.4,1.3-2.4,3
		c0,1.7,1.3,2.2,2.4,2.9c1.1,0.7,2.1,1.4,3.2,2.1c1.1,0.7,2.1,1.4,3.2,2.1c1,0.7,2.2,1.4,3.2,2.1c0.5,0.4,1,0.7,1.6,1.1l7.9,5.3
		c0.6,0.4,2.7,1.9,3.3,2.1c2.4,0.9,4.4-1.7,3.1-3.7c-0.4-0.6-0.8-0.8-1.4-1.2c-2.1-1.4-4.3-2.9-6.4-4.3l-9.5-6.3
		C117.2,552.2,114.8,550.6,114.6,550.4"/>
	<path class="st1" d="M151.6,528.6c-2.1,0.5-2.1,2.6-2.7,4.7l-4.7,17.5c-1,3.9-2.1,7.7-3.1,11.6c-0.5,1.9-1,3.9-1.5,5.8
		c-0.3,1.1-0.5,2,0.2,2.9c0.5,0.6,1.4,1.3,2.6,1c2-0.4,2.1-2.6,2.7-4.7l9.3-34.8c0.3-1.1,0.5-2-0.2-2.9
		C153.8,529,152.9,528.4,151.6,528.6"/>
	<path class="st1" d="M329.5,636c0,6.4,1.1,8.5,6.6,12c5.7,3.6,29.9,18.5,33.7,18.5c6.6,0,11.5-4.7,14.1-8.7
		c10.8-17.1,10.1-9.3,25.8-22.1c4.5-3.7,9.2-7,12.3-11.6c2.4,0.6,2.5,1.1,5.4,1.1h270c2.9,0,3-0.5,5.4-1.1
		c4.9,7.4,18.4,16.2,26.1,20.7c6.3,3.8,7.2,5.1,11.4,11.5c1.8,2.8,2.9,4.7,5.3,6.7c10,8.2,19.4-0.8,31.7-8.1c4-2.4,6.9-4,10.9-6.5
		c6.1-3.7,7.2-5.6,7.2-12.4c0-6.1-5.5-9.5-9.3-12.4c-29.1-22.4-20.6-41.8-28.3-83.8c-4.1-22.3-10.9-26.7-27.5-40
		c-7.5-6-6.8-3.3-6.7-16.2c0.1-13,1.4-81.1-1.2-88.1c-3.7-10.3-13-18.6-27.1-18.6H429.7c-36.1,0-28.3,40.4-28.3,61
		c0,14.9-0.1,29.8,0,44.6c0.1,12.4,1.6,11-6.1,16.8c-6.1,4.7-19.6,15.6-22.7,22c-6.4,13.2-9.1,41.1-10.6,56.9
		c-1.9,20.1-4.6,30.6-22.6,44.9C335.7,626.2,329.5,629.6,329.5,636 M412.3,559.8c0-10.1-1.1-154,0.9-160.3
		c1.6-5.1,7.1-10.7,13.3-10.7h272.2c6,0,11.3,5.4,13,9.9c1.9,5.1,1.1,14.8,1.1,21.7v139.4c-17.4-9.2-11.4-12.1-23.3-30.1
		c-9.8-14.9-29.2-15.8-24.2,3.5c3.5,13.4,10.3,18.2,15.3,38.1c3.1,12.6,5.8,31.7,12.6,41.8H431.9c9.5-14.2,8.8-39.7,19.2-60.3
		c3.2-6.3,6.4-11.6,8.4-18.8c5.7-20.4-13.3-19.2-23.6-5.1C424.2,545,431.1,549.9,412.3,559.8z"/>
	<path class="st1" d="M540.8,408.5c0,3.3,1,6.5,4.4,6.5H580c6.3,0,5.3-10.9-1.1-10.9C568.2,404.1,540.8,401.4,540.8,408.5"/>
	<path class="st1" d="M551.6,585.9c0,16,21.8,16,21.8,0C573.4,572.8,551.6,572.8,551.6,585.9"/>
	<path class="st1" d="M642.1,496c-0.7,0.7-2.6,1.8-3.5,2.4l-31.3,20.9c-2.1,1.4-8.9,5.5-10,7.3c-2.7,4.5,1.8,10.1,6.8,8.1
		c1.4-0.5,12.4-8.1,14.1-9.2c4.7-3,9.2-6.2,13.9-9.2c6.8-4.4,14-9.4,20.8-13.9c2.2-1.5,5.1-2.8,5.1-6.4c0-3.8-3-5-5.2-6.5
		c-2.3-1.6-4.6-3-6.9-4.6l-20.9-14c-2.3-1.5-19.5-13.2-21-13.7c-3.6-1.3-6.6,1.1-7.3,3.8c-1.1,4,1.7,5.8,3.9,7.2L642.1,496z"/>
	<path class="st1" d="M500.3,496c0.5-0.6,2.6-1.8,3.4-2.4c1.2-0.8,2.2-1.4,3.5-2.3l34.7-23.1c2.3-1.5,5-3.3,3.9-7.2
		c-0.7-2.6-3.8-5.1-7.3-3.8c-1.4,0.5-5.6,3.5-7.1,4.5l-21,13.9c-6.8,4.6-14.1,9.3-20.8,13.9c-2.3,1.6-5.2,2.8-5.2,6.5
		c0,3.7,2.9,4.9,5.1,6.4c2.3,1.6,4.6,3,6.9,4.6c2.3,1.6,4.6,3.1,6.9,4.7c2.2,1.5,4.7,3,6.9,4.6c1.1,0.8,2.3,1.5,3.5,2.3l17.4,11.6
		c1.4,0.9,6,4.2,7.2,4.6c5.2,2,9.5-3.7,6.8-8.1c-0.8-1.3-1.8-1.8-3.1-2.7c-4.6-3.1-9.3-6.3-14-9.3l-20.8-13.9
		C506.1,500,500.7,496.6,500.3,496"/>
	<path class="st1" d="M581.2,448.6c-4.6,1-4.7,5.6-5.9,10.2l-10.2,38.2c-2.2,8.6-4.6,16.8-6.8,25.3c-1.1,4.2-2.3,8.5-3.4,12.7
		c-0.7,2.4-1,4.4,0.4,6.4c1,1.4,3.1,2.8,5.7,2.2c4.4-1,4.7-5.6,5.9-10.2l20.3-76.1c0.7-2.5,1.1-4.3-0.4-6.4
		C585.9,449.4,583.9,448,581.2,448.6"/>
</g>
</svg>
