<?xml version="1.0" encoding="utf-8"?>
<!-- Generator: Adobe Illustrator 24.0.2, SVG Export Plug-In . SVG Version: 6.00 Build 0)  -->
<svg version="1.1" id="Capa_1" xmlns="http://www.w3.org/2000/svg" xmlns:xlink="http://www.w3.org/1999/xlink" x="0px" y="0px"
	 viewBox="0 0 1000 160" style="enable-background:new 0 0 1000 160;" xml:space="preserve">

<style type="text/css">
	.fondo{stroke-linecap:round;fill-rule:evenodd;clip-rule:evenodd;fill:rgba(0, 0, 0, 0);
	}
	.corazon{fill-rule:evenodd;clip-rule:evenodd;fill:url(#SVGID_1_);
		animation: corazon 4s infinite linear;
	}
.linea1,.linea2,.linea3,.linea4,.linea5{
	stroke-linecap:round;fill:none;stroke:#fff;stroke-width:1;
	stroke-dasharray: 230px;stroke-dashoffset: 230px;
}
@keyframes line{
	0%{stroke-dashoffset:230px;}
	100%{stroke-dashoffset:0px;}
}
@keyframes line2{
	0%{stroke-dashoffset:230px;}
	50%{stroke-dashoffset:0px;}
	100%{stroke-dashoffset:-230px;}
}
@keyframes corazon{
	0%{opacity: 0.1;}
	50%{opacity: 1;}
	100%{opacity: 0.1;}
}
@keyframes opacity2{
	0%{opacity: 0;}
	100%{opacity: 1;}
}
.cooler,.monitor,.fuente,.impre,.placa{
	stroke-linecap:round;fill:none;stroke:#fff;stroke-width:2;opacity: 0;
}
	.linea1{animation: line2 2s infinite linear 0s;
	}
	.linea2{animation: line 1s forwards linear 2s,
						line2 4s 2 linear 10s;
	}
	.linea3{animation: line 1s forwards linear 4s,
						line2 4s 2 linear 12s;
	}
	.linea4{animation: line 1s forwards linear 6s,
						line2 4s 2 linear 14s;
	}
	.linea5{animation: line 1s forwards linear 8s,
						line2 4s 2 linear 16s;
	}

	.placa{animation: opacity2 2s forwards 1s;}
	.impre{animation: opacity2 2s forwards 3s;}
	.fuente{animation: opacity2 2s forwards 5s;}
	.monitor{animation: opacity2 2s forwards 7s;}
	.cooler{animation: opacity2 2s forwards 8s;}
</style>
<g>
	<rect y="0" class="fondo" width="1000" height="160"/>
	<polyline class="linea5" points="810.6,92.3 831.9,92.3 837.7,78.5 843.4,98.5 851.1,55.3 857.4,100.8 863.2,73.6 868.9,92.3 
		902.3,92.3 	"/>
	<polyline class="linea4" points="620.2,94.2 641.6,94.2 647.3,80.5 653.1,100.4 660.7,57.3 667,102.7 672.8,75.5 678.6,94.2 
		711.9,94.2 	"/>
	<polyline class="linea3" points="431.7,94.2 453.1,94.2 458.8,80.5 464.6,100.4 472.3,57.3 478.6,102.7 484.3,75.5 490.1,94.2 
		523.4,94.2 	"/>
	<polyline class="linea2" points="245.2,92.3 266.5,92.3 272.3,78.5 278,98.5 285.7,55.3 292,100.8 297.8,73.6 303.5,92.3 336.9,92.3 	
		"/>
	<polyline class="linea1" points="24.1,81.4 66.5,81.4 73.5,67.7 79.1,92.3 84.8,81.4 139.8,81.4 	"/>
	<g>
		<path class="cooler" d="M960.6,44.3c1.8,1.9,15.3,14.7,15.3,15.8v52.7c0,2.4-1.9,4.3-4.3,4.3h-54.9c-0.3,0-13.6-13.2-15.4-14.5"/>
		<path class="cooler" d="M904.5,42.8h52.7c2.4,0,4.3,1.9,4.3,4.3v52.7c0,2.4-1.9,4.3-4.3,4.3h-52.7c-2.4,0-4.3-1.9-4.3-4.3V47.1
			C900.2,44.8,902.2,42.8,904.5,42.8z"/>
		<path class="cooler" d="M969.1,60.5V107c0,1.9-1.6,3.5-3.5,3.5H919"/>
		<path class="cooler" d="M905.4,46c1,0,1.9,0.8,1.9,1.9c0,1-0.8,1.9-1.9,1.9c-1,0-1.9-0.8-1.9-1.9C903.6,46.9,904.4,46,905.4,46z"/>
		<path class="cooler" d="M954.6,46c1,0,1.9,0.8,1.9,1.9c0,1-0.8,1.9-1.9,1.9c-1,0-1.9-0.8-1.9-1.9C952.7,46.9,953.5,46,954.6,46z"/>
		<path class="cooler" d="M905.4,95.5c1,0,1.9,0.8,1.9,1.9c0,1-0.8,1.9-1.9,1.9c-1,0-1.9-0.8-1.9-1.9C903.6,96.4,904.4,95.5,905.4,95.5
			z"/>
		<path class="cooler" d="M954.6,95.5c1,0,1.9,0.8,1.9,1.9c0,1-0.8,1.9-1.9,1.9c-1,0-1.9-0.8-1.9-1.9C952.7,96.4,953.5,95.5,954.6,95.5
			z"/>
		<circle class="cooler" cx="930.9" cy="73.5" r="5.7"/>
		<path class="cooler" d="M930.9,47.6c14.3,0,25.9,11.6,25.9,25.9s-11.6,25.9-25.9,25.9c-14.3,0-25.9-11.6-25.9-25.9
			S916.6,47.6,930.9,47.6z"/>
		<path class="cooler" d="M930.2,67.9c1.3-8.3,6-13.6,12-17.8"/>
		<path class="cooler" d="M935,69.6c6.9-4.9,14-5.2,21.1-3.8"/>
		<path class="cooler" d="M932.8,78.9c1,8.4-2,14.8-6.6,20.4"/>
		<path class="cooler" d="M926.3,76.7c-8,2.8-14.8,1.3-21.3-2"/>
		<path class="cooler" d="M925.4,72.3c-7.1-4.5-10.2-10.9-11.6-18"/>
		<path class="cooler" d="M936.2,75.8c7.7,3.5,11.6,9.4,14,16.2"/>
	</g>
	<g>
		<path class="monitor" d="M713.9,41.6h92.5c1.2,0,2.1,1,2.1,2.1v57.8c0,1.2-1,2.1-2.1,2.1h-92.5c-1.2,0-2.1-1-2.1-2.1V43.7
			C711.8,42.5,712.8,41.6,713.9,41.6z"/>
		<line class="monitor" x1="711.8" y1="97.4" x2="808.6" y2="97.4"/>
		<line class="monitor" x1="742.3" y1="118.4" x2="778.1" y2="118.4"/>
		<path class="monitor" d="M762.6,103.6v14.8 M757.8,118.4v-14.8"/>
		<line class="monitor" x1="788.3" y1="46.9" x2="804.4" y2="63.1"/>
		<line class="monitor" x1="788.4" y1="57.4" x2="798.5" y2="67.6"/>
	</g>
	<g>
		<rect x="523.4" y="53" class="fuente" width="96.8" height="66.8"/>
		<polygon class="fuente" points="523.4,53 620.2,53 615.1,40.2 528.9,40.2 		"/>
		<path class="fuente" d="M536.3,111.7h-6.5v-7.8 M579.8,103.9v7.8h-6.9 M572.9,59.3h6.9v8.1 M529.9,67.4v-8.1h6.5"/>
		<path class="fuente" d="M554.8,82.3c1.8,0,3.2,1.4,3.2,3.2c0,1.8-1.4,3.2-3.2,3.2c-1.8,0-3.2-1.4-3.2-3.2
			C551.6,83.7,553,82.3,554.8,82.3z"/>
		<path class="fuente" d="M554.8,75.5c5.6,0,10.1,4.5,10.1,10.1c0,5.6-4.5,10.1-10.1,10.1c-5.6,0-10.1-4.5-10.1-10.1
			C544.7,80,549.2,75.5,554.8,75.5z"/>
		<path class="fuente" d="M554.8,68.9c9.2,0,16.6,7.5,16.6,16.6c0,9.2-7.5,16.6-16.6,16.6c-9.2,0-16.6-7.5-16.6-16.6
			C538.1,76.3,545.6,68.9,554.8,68.9z"/>
		<path class="fuente" d="M554.8,62.5c12.7,0,23,10.3,23,23c0,12.7-10.3,23-23,23c-12.7,0-23-10.3-23-23
			C531.8,72.8,542.1,62.5,554.8,62.5z"/>
		<path class="fuente" d="M552.6,87.8l-13.6,14.3 M570.7,68.8L557,83.2"/>
		<path class="fuente" d="M552.5,83.3l-14.3-13.7 M571.5,101.4l-14.3-13.6"/>
		<rect x="591.5" y="97.5" class="fuente" width="21" height="9.5"/>
		<line class="fuente" x1="602" y1="97.5" x2="602" y2="107"/>
		<path class="fuente" d="M596.6,70.4c0.9,0,1.6,0.7,1.6,1.6c0,0.9-0.7,1.6-1.6,1.6c-0.9,0-1.6-0.7-1.6-1.6
			C594.9,71.2,595.7,70.4,596.6,70.4z"/>
		<path class="fuente" d="M606.8,70.4c0.9,0,1.6,0.7,1.6,1.6c0,0.9-0.7,1.6-1.6,1.6c-0.9,0-1.6-0.7-1.6-1.6
			C605.1,71.2,605.9,70.4,606.8,70.4z"/>
		<path class="fuente" d="M601.7,74c0.9,0,1.6,0.7,1.6,1.6c0,0.9-0.7,1.6-1.6,1.6c-0.9,0-1.6-0.7-1.6-1.6C600,74.7,600.8,74,601.7,74z"
			/>
		<polygon class="fuente" points="590.1,67.5 601.7,67.5 613.4,67.5 613.4,75.8 607.6,80.9 601.7,80.9 595.9,80.9 590.1,75.8 		"/>
	</g>
	<g>
		<path class="impre" d="M431.7,75.2l-14.4-15h-9.1 M359.1,60.2h-9.3l-14.9,15"/>
		<polygon class="impre" points="359.1,33.9 393.3,33.9 408.1,48.4 408.1,67.7 359.1,67.7 		"/>
		<polygon class="impre" points="408.1,48.4 393.3,33.9 393.3,48.4 		"/>
		<path class="impre" d="M353.2,116.6h-10.7c-4.1,0-7.5-3.4-7.5-7.5V75.2h96.8v33.8c0,4.1-3.4,7.5-7.5,7.5h-10.8"/>
		<path class="impre" d="M407.8,94h9.6v8.9H410 M356.7,103h-7.1V94h9.4"/>
		<polygon class="impre" points="350.7,126.1 415.7,126.1 407.8,94 359.1,94 		"/>
		<path class="impre" d="M419.3,82.6c1.4,0,2.5,1.1,2.5,2.5c0,1.4-1.1,2.5-2.5,2.5c-1.4,0-2.5-1.1-2.5-2.5
			C416.8,83.7,417.9,82.6,419.3,82.6z"/>
		<line class="impre" x1="366.8" y1="102.9" x2="400.4" y2="102.9"/>
		<line class="impre" x1="366.8" y1="110.4" x2="400.4" y2="110.4"/>
		<line class="impre" x1="363" y1="118.4" x2="387.3" y2="118.4"/>
	</g>
	<g>
		<circle class="placa" cx="186.3" cy="90.6" r="5.2"/>
		<rect x="203.8" y="48.1" class="placa" width="4.9" height="35.9"/>
		<rect x="212.3" y="48.1" class="placa" width="4.9" height="35.9"/>
		<rect x="220.8" y="48.1" class="placa" width="4.9" height="35.9"/>
		<rect x="229.3" y="48.1" class="placa" width="4.9" height="35.9"/>
		<polygon class="placa" points="139.8,86.2 144.9,86.2 163.8,65.3 163.8,39.5 144.9,18.6 139.8,18.6 		"/>
		<line class="placa" x1="144.7" y1="29.3" x2="159.9" y2="45.7"/>
		<line class="placa" x1="144.2" y1="40.8" x2="159.4" y2="57.2"/>
		<line class="placa" x1="143.9" y1="52.1" x2="155" y2="64"/>
		<line class="placa" x1="144" y1="63.6" x2="151.1" y2="71.3"/>
		<polygon class="placa" points="168.4,26 205.2,26 211.7,33.2 198.4,42.9 168.4,42.9 		"/>
		<line class="placa" x1="168.4" y1="34" x2="195.5" y2="34"/>
		<line class="placa" x1="177.1" y1="39.7" x2="202.9" y2="39.7"/>
		<rect x="156.8" y="86.2" class="placa" width="8.3" height="10.3"/>
		<line class="placa" x1="153.1" y1="88.5" x2="156.9" y2="88.5"/>
		<line class="placa" x1="165.3" y1="88.5" x2="169.1" y2="88.5"/>
		<line class="placa" x1="153.1" y1="93.4" x2="156.9" y2="93.4"/>
		<line class="placa" x1="165.3" y1="93.4" x2="169.1" y2="93.4"/>
		<line class="placa" x1="144.7" y1="102.2" x2="154.9" y2="102.2"/>
		<line class="placa" x1="144.7" y1="107.8" x2="154.9" y2="107.8"/>
		<line class="placa" x1="144.7" y1="113.4" x2="154.9" y2="113.4"/>
		<line class="placa" x1="144.7" y1="119" x2="154.9" y2="119"/>
		<line class="placa" x1="144.7" y1="124.6" x2="154.9" y2="124.6"/>
		<rect x="163.3" y="100.7" class="placa" width="27.8" height="6.5"/>
		<rect x="163.3" y="112.6" class="placa" width="27.8" height="6.5"/>
		<rect x="160.9" y="124.9" class="placa" width="14.8" height="11.3"/>
		<polygon class="placa" points="190.3,123.8 223.4,123.8 215.4,136.2 182.3,136.2 		"/>
		<rect x="173.1" y="56.1" class="placa" width="19.5" height="19.9"/>
		<rect x="176.6" y="59.7" class="placa" width="12.6" height="12.8"/>
		<line class="placa" x1="192.8" y1="60" x2="196.7" y2="60"/>
		<line class="placa" x1="177.2" y1="55.7" x2="177.2" y2="51.8"/>
		<line class="placa" x1="192.8" y1="65.6" x2="196.7" y2="65.6"/>
		<line class="placa" x1="182.8" y1="55.7" x2="182.8" y2="51.8"/>
		<line class="placa" x1="192.8" y1="71.2" x2="196.7" y2="71.2"/>
		<line class="placa" x1="188.5" y1="55.7" x2="188.5" y2="51.8"/>
		<line class="placa" x1="169.4" y1="60" x2="173.2" y2="60"/>
		<line class="placa" x1="177.2" y1="79.1" x2="177.2" y2="75.3"/>
		<line class="placa" x1="169.4" y1="65.6" x2="173.2" y2="65.6"/>
		<line class="placa" x1="182.8" y1="79.1" x2="182.8" y2="75.3"/>
		<line class="placa" x1="169.4" y1="71.2" x2="173.2" y2="71.2"/>
		<line class="placa" x1="188.5" y1="79.1" x2="188.5" y2="75.3"/>
		<polygon class="placa" points="232,103.5 232,117.6 211.6,117.6 203.8,109.9 203.8,103.5 203.8,89.5 224.2,89.5 232,97.2 		"/>
		<line class="placa" x1="222.6" y1="117.9" x2="213.6" y2="107.8"/>
		<line class="placa" x1="213.2" y1="89.8" x2="222.2" y2="99.9"/>
		<path class="placa" d="M168.4,30.1h-13.1 M144.7,86.2v55.2h97.6V30.1h-33.4"/>
		<path class="placa" d="M235.3,35.4c1.1,0,1.9,0.9,1.9,1.9c0,1.1-0.9,1.9-1.9,1.9s-1.9-0.9-1.9-1.9
			C233.4,36.3,234.3,35.4,235.3,35.4z"/>
		<path class="placa" d="M151.8,133c1.1,0,1.9,0.9,1.9,1.9c0,1.1-0.9,1.9-1.9,1.9c-1.1,0-1.9-0.9-1.9-1.9
			C149.9,133.9,150.8,133,151.8,133z"/>
		<path class="placa" d="M235.6,133c1.1,0,1.9,0.9,1.9,1.9c0,1.1-0.9,1.9-1.9,1.9c-1.1,0-1.9-0.9-1.9-1.9
			C233.7,133.9,234.5,133,235.6,133z"/>
	</g>
	<radialGradient id="SVGID_1_" cx="81.9442" cy="79.9998" r="29.0265" gradientUnits="userSpaceOnUse">
		<stop  offset="0" style="stop-color:#FFFFFF;stop-opacity:0"/>
		<stop  offset="0.25" style="stop-color:#FFFFFF;stop-opacity:0"/>
		<stop  offset="1" style="stop-color:#FFFFFF"/>
	</radialGradient>
	<path class="corazon" d="M108.4,85.2c-4.4,6.4-11.7,13-22.2,19.8c-2.6,1.5-5.3,2-7.9,0c-10.5-5.6-18.4-12.2-23.1-19.8h11.4
		c1.6,0,2.9-1,3.5-2.3l2.2-4.3l3.4,14.5c0.5,2,2.5,3.3,4.5,2.8c1.2-0.3,2.1-1.1,2.6-2.1l4.5-8.6H108.4z M98.7,62.2
		c-0.6-0.2-0.9-0.8-0.7-1.3c0.2-0.6,0.8-0.9,1.3-0.7c1.7,0.5,3.3,1.4,4.6,2.6c1.3,1.2,2.3,2.7,3.1,4.5c0.2,0.5,0,1.2-0.6,1.4
		c-0.5,0.2-1.2,0-1.4-0.6c-0.7-1.6-1.5-2.8-2.6-3.8C101.4,63.4,100.1,62.7,98.7,62.2z M67.8,53.7c6-0.1,10.5,3,14.2,7.5
		c4.2-4.1,8-7.6,14.2-7.5c10.7,0.6,17.4,8.6,17.3,17.8c-0.1,2.1-0.5,4.1-1.2,6.2H84.8v0c-1.4,0-2.7,0.7-3.3,2l-1,1.9l-3.4-14.8l0,0
		c-0.2-1.1-0.9-2-2-2.5c-1.9-0.9-4.1-0.2-5,1.7l-5.9,11.7H51.6c-0.6-1.8-1-3.7-1.2-5.6C50.5,60,58.2,54.5,67.8,53.7z"/>
</g>
</svg>
