<?xml version="1.0" encoding="utf-8"?>
<!-- Generator: Adobe Illustrator 24.0.2, SVG Export Plug-In . SVG Version: 6.00 Build 0)  -->
<svg version="1.1" id="Capa_1" xmlns="http://www.w3.org/2000/svg" xmlns:xlink="http://www.w3.org/1999/xlink" x="0px" y="0px"
	 viewBox="0 0 150 150" style="enable-background:new 0 0 150 150;" xml:space="preserve">
<style type="text/css">
	.st0{fill:none;stroke:#fff;stroke-width:5;}
	.st1{fill:none;stroke:#fff;stroke-width:5;}
	.st2{fill:none;stroke:#fff;stroke-width:5;}
</style>
<g>
	<path class="st0" d="M117,134.7c4.8,0.2,10.6-1.5,14.8-3.8l16.4,4.3l-4.4-16c2.7-4.7,4.1-10,4.1-15.4c0,0,0,0,0,0
		c0-17.1-13.9-31-31-31c-8.1,0-15.7,3.1-21.4,8.6"/>
	<path class="st0" d="M49.4,148.2l4.4-16c-2.7-4.7-4.1-10-4.1-15.4c0,0,0,0,0,0c0-17.1,13.9-31,31-31c8.3,0,16.1,3.2,21.9,9.1
		c5.8,5.9,9.1,13.6,9.1,21.9c0,17.1-13.9,31-31,31h0c-5.2,0-10.3-1.3-14.8-3.8L49.4,148.2z"/>
	<path class="st1" d="M46.1,11c13.6,0,24.6,11,24.6,24.6c0,13.6-11,24.6-24.6,24.6c-13.6,0-24.6-11-24.6-24.6
		C21.5,22,32.5,11,46.1,11z"/>
	<path class="st2" d="M45.1,61.4c-14.8,0-26.8,20.1-27,45.1"/>
	<path class="st0" d="M13.7,29.9c0-15.5,12.6-28.1,28.1-28.1h8.7c15.5,0,28.1,12.6,28.1,28.1"/>
	<path class="st0" d="M13.8,21.3h-5c-3.8,0-6.9,3.1-6.9,6.9v7.9c0,3.8,3.1,6.9,6.9,6.9h5V21.3z"/>
	<path class="st0" d="M82.6,42.3c1.4,24.2-3.9,23.4-11.9,23.4H59.8"/>
	<path class="st0" d="M78.7,21.3h5c3.8,0,6.9,3.1,6.9,6.9v7.9c0,3.8-3.1,6.9-6.9,6.9h-5V21.3z"/>
</g>
</svg>
