<?xml version="1.0" encoding="utf-8"?>
<!-- Generator: Adobe Illustrator 24.0.2, SVG Export Plug-In . SVG Version: 6.00 Build 0)  -->
<svg version="1.1" id="Capa_1" xmlns="http://www.w3.org/2000/svg" xmlns:xlink="http://www.w3.org/1999/xlink" x="0px" y="0px"
	 viewBox="0 0 900 300" style="enable-background:new 0 0 900 300;" xml:space="preserve">
<style type="text/css">
@keyframes txt{
	0%{fill:transparent;opacity:0;}
	50%{fill:#fff;opacity:0.5;}
	100%{fill:transparent;opacity:0;}
}
@keyframes txtOK{
	0%{fill:transparent;opacity:0;}
	100%{fill:#fff;opacity:1;}
}
@keyframes txt34{
	0%{fill:transparent;opacity:0;transform: translateX(180px);}
	50%{fill:#fff;opacity:0.5;transform: translateX(180px);}
	100%{fill:transparent;opacity:0;transform: translateX(180px);}
}
@keyframes txt56{
	0%{fill:transparent;opacity:0;transform: translateX(360px);}
	50%{fill:#fff;opacity:0.5;transform: translateX(360px);}
	100%{fill:transparent;opacity:0;transform: translateX(360px);}
}
@keyframes txt78{
	0%{fill:transparent;opacity:0;transform: translateX(540px);}
	50%{fill:#fff;opacity:0.5;transform: translateX(540px);}
	100%{fill:transparent;opacity:0;transform: translateX(540px);}
}
@keyframes txt910{
	0%{fill:transparent;opacity:0;transform: translateX(720px);}
	50%{fill:#fff;opacity:0.5;transform: translateX(720px);}
	100%{fill:transparent;opacity:0;transform: translateX(720px);}
}
@keyframes tecnica{
	0%{opacity:0;transform: translateY(70px);}
	100%{opacity:1;transform: translateY(0);}
}
@keyframes num{
	0%{opacity:0;transform: scale(0);}
	75%{opacity:1;transform: scale(1.5);}
	100%{opacity:1;transform: scale(1);}
}
.tecnica{fill-rule:evenodd;clip-rule:evenodd;fill:#fff;opacity:0;
	animation: tecnica 0.5s forwards 1.6s;
}
.num{fill-rule:evenodd;clip-rule:evenodd;fill:#0ff;opacity:0;
	animation: num 0.5s forwards 2.5s;
	transform-origin: 749px 219px;
}

	.fnd{fill-rule:evenodd;clip-rule:evenodd;fill:transparent;}
	
	.ef05{fill-rule:evenodd;clip-rule:evenodd;fill:transparent;opacity:0;
		animation: 	txt 0.1s forwards 0.05s,
					txt34 0.1s forwards 0.5s,
					txt56 0.1s forwards 0.75s,
					txt78 0.1s forwards 0.95s,
					txt910 0.1s forwards 1.2s;
	}
	.ef04{fill-rule:evenodd;clip-rule:evenodd;fill:transparent;opacity:0;
		animation: txt 0.1s forwards 0.1s,
					txt34 0.1s forwards 0.55s,
					txt56 0.1s forwards 0.8s,
					txt78 0.1s forwards 1s,
					txt910 0.1s forwards 1.25s;
	}
	.ef03{fill-rule:evenodd;clip-rule:evenodd;fill:transparent;opacity:0;
		animation: txt 0.1s forwards 0.15s,
					txt34 0.1s forwards 0.6s,
					txt56 0.1s forwards 0.85s,
					txt78 0.1s forwards 1.05s,
					txt910 0.1s forwards 1.3s;
	}
	.ef02{fill-rule:evenodd;clip-rule:evenodd;fill:transparent;opacity:0;
		animation: txt 0.1s forwards 0.2s,
					txt34 0.1s forwards 0.65s,
					txt56 0.1s forwards 0.9s,
					txt78 0.1s forwards 1.1s,
					txt910 0.1s forwards 1.35s;
	}
	.ef01{fill-rule:evenodd;clip-rule:evenodd;fill:transparent;opacity:0;
		animation: txt 0.1s forwards 0.25s,
					txt34 0.1s forwards 0.7s,
					txt56 0.1s forwards 0.95s,
					txt78 0.1s forwards 1.15s,
					txt910 0.1s forwards 1.4s;
	}
	/* **************************A */
	.a101{fill-rule:evenodd;clip-rule:evenodd;fill:transparent;opacity:0;
		animation: txtOK 0.1s forwards 0.3s;
	}
	/* **************************A */

	.ef06{fill-rule:evenodd;clip-rule:evenodd;fill:transparent;opacity:0;
		animation: txt 0.1s forwards 0.2s,
					txt34 0.1s forwards 0.65s,
					txt56 0.1s forwards 0.85s,
					txt78 0.1s forwards 1.05s,
					txt910 0.1s forwards 1.3s;
	}
	.ef07{fill-rule:evenodd;clip-rule:evenodd;fill:transparent;opacity:0;
		animation: txt 0.1s forwards 0.25s,
					txt34 0.1s forwards 0.7s,
					txt56 0.1s forwards 0.9s,
					txt78 0.1s forwards 1.15s,
					txt910 0.1s forwards 1.35s;
	}
	.ef08{fill-rule:evenodd;clip-rule:evenodd;fill:transparent;opacity:0;
		animation: txt 0.1s forwards 0.3s,
					txt34 0.1s forwards 0.75s,
					txt56 0.1s forwards 0.95s,
					txt78 0.1s forwards 1.2s,
					txt910 0.1s forwards 1.4s;
	}
	.ef09{fill-rule:evenodd;clip-rule:evenodd;fill:transparent;opacity:0;
		animation: txt 0.1s forwards 0.35s,
					txt34 0.1s forwards 0.8s,
					txt56 0.1s forwards 0.85s,
					txt78 0.1s forwards 1.25s,
					txt910 0.1s forwards 1.45s;
	}
	.ef10{fill-rule:evenodd;clip-rule:evenodd;fill:transparent;opacity:0;
		animation: txt 0.1s forwards 0.4s,
					txt34 0.1s forwards 0.9s,
					txt56 0.1s forwards 1s,
					txt78 0.1s forwards 1.3s,
					txt910 0.1s forwards 1.5s;
	}
	/* **************************S */
	.s102{fill-rule:evenodd;clip-rule:evenodd;fill:transparent;opacity:0;
		animation: txtOK 0.1s forwards 0.45s;
	}
	/* **************************S */

	/* **************************I */
	.i103{fill-rule:evenodd;clip-rule:evenodd;fill:transparent;opacity:0;
		animation: txtOK 0.1s forwards 0.6s;
	}
	/* **************************I */

	/* **************************S */
	.s104{fill-rule:evenodd;clip-rule:evenodd;fill:transparent;opacity:0;
		animation: txtOK 0.1s forwards 0.75s;
	}
	/* **************************S */

	/* **************************T */
	.t105{fill-rule:evenodd;clip-rule:evenodd;fill:transparent;opacity:0;
		animation: txtOK 0.1s forwards 0.9s;
	}
	/* **************************T */

	/* **************************E */
	.e106{fill-rule:evenodd;clip-rule:evenodd;fill:transparent;opacity:0;
		animation: txtOK 0.1s forwards 1.1s;
	}
	/* **************************E */

	/* **************************N */
	.n107{fill-rule:evenodd;clip-rule:evenodd;fill:transparent;opacity:0;
		animation: txtOK 0.1s forwards 1.2s;
	}
	/* **************************N */

	/* **************************C */
	.c108{fill-rule:evenodd;clip-rule:evenodd;fill:transparent;opacity:0;
		animation: txtOK 0.1s forwards 1.35s;
	}
	/* **************************C */

	/* **************************I */
	.i109{fill-rule:evenodd;clip-rule:evenodd;fill:transparent;opacity:0;
		animation: txtOK 0.1s forwards 1.45s;
	}
	/* **************************I */

	/* **************************A */
	.a110{fill-rule:evenodd;clip-rule:evenodd;fill:transparent;opacity:0;
		animation: txtOK 0.1s forwards 1.55s;
	}
	/* **************************A */
	
</style>
<g>
	<rect y="0" class="fnd" width="900" height="300"/>
	<path class="ef05" d="M26.7,55.4v47.9c0,6.1,1.7,11,5,14.7c3.3,3.7,7.9,5.6,13.8,5.6c4.1,0,7.9-0.8,11.6-2.3c3.6-1.5,6.9-3.2,9.7-5
		l4,6.5H91V55.4H66.7v42.9c-0.9,1.1-2.4,2-4.3,2.7c-2,0.7-3.6,1.1-4.8,1.1c-1.9,0-3.5-0.4-4.8-1.3c-1.2-0.9-1.9-2.6-1.9-5.2V55.4
		H26.7z"/>
	<path class="ef04" d="M45.8,101.1V51.7H60c1.8,0,3.5,0.3,4.9,0.8c1.5,0.5,2.7,1.6,3.8,3.3c1,1.7,1.8,4.1,2.4,7.4
		c0.5,3.3,0.8,7.7,0.8,13.2c0,5.8-0.4,10.6-1.1,14.2c-0.7,3.6-1.9,6.3-3.6,7.9c-1.7,1.7-4.1,2.5-7.2,2.5H45.8z M21.5,29.9v92.9h41
		c7.6,0,13.9-1.6,18.8-4.8c5-3.2,8.7-8.2,11.1-15c2.5-6.8,3.7-15.6,3.7-26.6c0-6.5-0.5-12.6-1.5-18.2c-1-5.6-2.8-10.6-5.3-14.8
		c-2.5-4.2-5.9-7.6-10.2-9.9c-4.3-2.4-9.9-3.6-16.6-3.6H21.5z"/>
	<path class="ef03" d="M49.6,36.6l-3,18.9l-11.4,3.8v15.5h10.4l-0.8,22.8c-0.2,6.4,0.5,11.5,1.9,15.2c1.5,3.7,3.9,6.3,7.4,7.9
		c3.5,1.5,8.1,2.3,13.8,2.3h14v-18l-8.6-0.9c-0.8-0.1-1.4-0.3-2-0.6c-0.6-0.3-1.1-0.7-1.4-1.2c-0.4-0.5-0.6-1.2-0.8-2
		c-0.2-0.8-0.3-1.7-0.3-2.8V74.7h13.6V55.4H68.8V36.6H49.6z"/>
	<path class="ef02" d="M58.8,50.8c3.2,0,5.7,0.3,7.8,1c2,0.7,3.6,1.9,4.7,3.7c1.1,1.8,1.9,4.4,2.4,7.7c0.5,3.3,0.7,7.7,0.7,13.1
		c0,5.2-0.2,9.4-0.7,12.8c-0.5,3.3-1.3,5.9-2.4,7.8c-1.1,1.8-2.7,3.1-4.7,3.9c-2,0.8-4.6,1.1-7.8,1.1c-3.1,0-5.6-0.4-7.7-1.1
		c-2-0.8-3.6-2-4.8-3.9c-1.1-1.8-1.9-4.4-2.4-7.8c-0.5-3.3-0.7-7.6-0.7-12.8c0-5.4,0.2-9.8,0.7-13.1c0.5-3.3,1.2-5.9,2.4-7.7
		c1.1-1.8,2.7-3,4.8-3.7C53.2,51.1,55.8,50.8,58.8,50.8 M29.1,37.9c-3.3,3.3-5.8,8.1-7.5,14.3c-1.7,6.2-2.5,14.2-2.5,24.1
		c0,9.8,0.8,17.9,2.5,24.1s4.2,11,7.5,14.3c3.3,3.3,7.5,5.6,12.4,6.9c5,1.3,10.7,1.9,17.3,1.9c6.6,0,12.4-0.6,17.3-1.9
		c5-1.3,9.1-3.6,12.4-6.9c3.3-3.3,5.8-8.1,7.5-14.3c1.7-6.2,2.5-14.2,2.5-24.1c0-9.8-0.8-17.9-2.5-24.1c-1.7-6.2-4.2-11-7.5-14.3
		c-3.3-3.3-7.5-5.6-12.4-6.9c-5-1.3-10.7-1.9-17.3-1.9c-6.6,0-12.4,0.6-17.3,1.9C36.6,32.3,32.4,34.6,29.1,37.9z"/>
	<polygon class="ef01" points="30.6,55.4 30.6,74.7 59.1,74.7 32,105.6 32,122.8 87.1,122.8 87.1,103.6 60,103.6 87.1,72.7 
		87.1,55.4 	"/>
	<path class="tecnica" d="M165.1,193.6v38.8c0,4.1,0.7,7.4,2.1,9.8c1.4,2.4,3.2,4.1,5.3,5.3c2.1,1.1,4.3,1.9,6.5,2.2
		c2.2,0.3,4.2,0.5,5.7,0.5c3.3,0,6.9-0.1,10.7-0.2c3.8-0.1,7.5-0.3,11.2-0.6c3.7-0.3,6.9-0.6,9.8-1v-16.4h-27.6
		c-0.8,0-1.5-0.2-2.2-0.6c-0.7-0.4-1.2-0.9-1.6-1.7c-0.4-0.8-0.5-1.8-0.5-3v-5.6l26.9-1v-15.4l-26.9-1v-6.2c0-1.5,0.4-2.6,1.3-3.3
		c0.9-0.7,2.1-1.1,3.8-1.1h26.8v-16.4c-2.3-0.3-4.9-0.5-7.8-0.7c-3-0.2-6.5-0.4-10.5-0.5c-4-0.2-8.8-0.3-14.4-0.3
		c-2.1,0-4.2,0.3-6.4,0.9c-2.2,0.6-4.2,1.5-6,2.9c-1.8,1.4-3.3,3.3-4.4,5.7C165.7,187,165.1,190,165.1,193.6 M186,170.4h11.4
		l10.8-14.3h-15.4L186,170.4z M244.7,181.6c-2.4,2.7-4.3,6.5-5.7,11.4c-1.3,4.9-2,11.3-2,19c0,8,0.6,14.5,1.9,19.5
		c1.3,5,3.1,8.8,5.5,11.5c2.4,2.7,5.3,4.5,8.6,5.5c3.3,1,7.1,1.5,11.3,1.5c4.1,0,7.7-0.1,10.7-0.4c3-0.3,5.6-0.6,7.8-1.1
		c2.2-0.5,4.2-1,5.9-1.7v-15.1c-1.9,0.3-4.4,0.5-7.5,0.6c-3.2,0.2-7.3,0.3-12.3,0.3c-2.6,0-4.7-0.3-6.4-0.9
		c-1.6-0.6-2.9-1.7-3.8-3.2c-0.9-1.5-1.5-3.6-1.8-6.2c-0.3-2.7-0.5-6-0.5-10c0-4.5,0.2-8,0.7-10.7c0.4-2.7,1.1-4.8,2-6.2
		c0.9-1.4,2.2-2.3,3.8-2.8c1.6-0.5,3.5-0.7,5.7-0.7c3,0,5.8,0.1,8.4,0.3c2.6,0.2,4.8,0.4,6.9,0.6c2,0.3,3.6,0.5,4.9,0.8v-15.1
		c-1.3-0.6-3.1-1.2-5.3-1.8c-2.2-0.6-4.9-1.1-8.1-1.5c-3.2-0.4-6.8-0.7-11-0.7c-4,0-7.7,0.5-11,1.6
		C250.1,177.1,247.2,178.9,244.7,181.6z M311.3,175.2v74.3h19.4v-41.4l26.1,41.4h15.4v-74.3h-19.4v41.4l-26.1-41.4H311.3z
		 M396.7,175.2v74.3h19.4v-74.3H396.7z M446.3,181.6c-2.4,2.7-4.3,6.5-5.7,11.4c-1.3,4.9-2,11.3-2,19c0,8,0.6,14.5,1.9,19.5
		c1.3,5,3.1,8.8,5.5,11.5c2.4,2.7,5.3,4.5,8.6,5.5c3.3,1,7.1,1.5,11.3,1.5c4.1,0,7.7-0.1,10.7-0.4c3-0.3,5.6-0.6,7.8-1.1
		c2.2-0.5,4.2-1,5.8-1.7v-15.1c-1.9,0.3-4.4,0.5-7.5,0.6c-3.2,0.2-7.3,0.3-12.3,0.3c-2.6,0-4.7-0.3-6.4-0.9
		c-1.6-0.6-2.9-1.7-3.8-3.2c-0.9-1.5-1.5-3.6-1.8-6.2c-0.3-2.7-0.5-6-0.5-10c0-4.5,0.2-8,0.7-10.7c0.4-2.7,1.1-4.8,2-6.2
		c0.9-1.4,2.2-2.3,3.8-2.8c1.6-0.5,3.5-0.7,5.7-0.7c3,0,5.8,0.1,8.4,0.3c2.6,0.2,4.8,0.4,6.9,0.6c2,0.3,3.6,0.5,4.9,0.8v-15.1
		c-1.3-0.6-3.1-1.2-5.3-1.8c-2.2-0.6-4.9-1.1-8.1-1.5c-3.2-0.4-6.8-0.7-10.9-0.7c-4,0-7.7,0.5-11,1.6
		C451.6,177.1,448.7,178.9,446.3,181.6z M541.8,191.7l6.7,28.6h-13.3L541.8,191.7z M529.9,175.2l-22,74.3h19.9l2.9-11.8H553l3,11.8
		h20.1l-22-74.3H529.9z M107.5,192.6v56.9h19.4v-56.9h18.7v-17.4H88.8v17.4H107.5z"/>
	<path class="num" d="M648.2,195.5c0.5,0.9,0.8,2,0.8,3.4c0,1.3-0.3,2.5-0.8,3.7c-0.6,1.2-1.3,2.4-2.4,3.7c-1,1.3-2.2,2.6-3.7,4.1
		L619,234.1v15.4h51.4v-17.4h-25.8l12.8-13.1c2.3-2.3,4.3-4.7,6-7c1.6-2.3,2.9-4.8,3.8-7.5c0.9-2.7,1.3-5.6,1.3-8.9
		c0-4.5-0.7-8.4-2.2-11.5c-1.4-3.1-3.8-5.5-7.2-7.1c-3.4-1.6-8-2.4-13.8-2.4c-5.3,0-10,0.3-14,0.9c-4,0.6-7.7,1.3-11,2.1V193h21.3
		c1.7,0,3.1,0.2,4.3,0.6C646.9,194,647.7,194.6,648.2,195.5"/>
	<polygon class="num" points="710.3,175.2 688.8,227.1 692.2,235.8 723.1,235.8 723.1,249.5 742.5,249.5 742.5,235.8 748.5,232.8 
		748.5,219.4 742.5,219.4 742.5,198.8 726.8,198.8 723.1,208.4 723.1,219.4 711.9,219.4 730.1,175.2 	"/>
	<polygon class="num" points="792.8,172.5 764.7,256.7 784.6,256.7 812.7,172.5 	"/>
	<polygon class="num" points="831,175.2 831,194.6 858.7,194.6 839.3,249.5 860.9,249.5 883.8,183 879.1,175.2 	"/>
	<path class="a101" d="M58.6,49.3L67,85.1H50.3L58.6,49.3z M43.7,28.7l-27.5,92.9h24.9l3.6-14.7h27.9l3.8,14.7h25.1L74,28.7H43.7z"
		/>
</g>
<g>
	<path class="ef06" d="M146.7,122.8V84.7c0.9-1.2,2-2.3,3.3-3c1.3-0.8,2.8-1.3,4.4-1.7c1.7-0.4,3.5-0.6,5.5-0.6c1.2,0,2.5,0,3.9,0.1
		c1.5,0.1,2.9,0.2,4.3,0.4V55.1c-0.8-0.3-1.7-0.4-2.6-0.5c-0.9-0.1-1.7-0.1-2.4-0.1c-3.8,0-6.9,1-9.6,3.1c-2.6,2.1-4.9,4.5-6.9,7.3
		l-5.4-9.4h-18.9v67.4H146.7z"/>
	<polygon class="ef07" points="156.3,29.9 141.4,66.1 131.8,66.1 131.8,29.9 107.5,29.9 107.5,122.8 131.8,122.8 131.8,87.8 
		141.4,87.8 157.4,122.8 183.1,122.8 160.6,76.7 182,29.9 	"/>
	<path class="ef08" d="M153,74.4c0.5,1,0.8,2.3,0.8,3.9c0,1.8-0.4,3.1-1.1,3.9c-0.8,0.8-2,1.1-3.6,1.1h-9.6c0-3.1,0.3-5.5,0.8-7.2
		c0.5-1.7,1.3-2.9,2.3-3.6c1-0.7,2.4-1,3.9-1c1.8,0,3.2,0.2,4.3,0.7C151.7,72.7,152.5,73.4,153,74.4 M128.1,57.3
		c-4.5,2-7.6,5.5-9.6,10.6c-1.9,5-2.9,12.2-2.9,21.4c0,9,1.1,16,3.2,20.9c2.1,5,5.5,8.4,10.2,10.3c4.7,1.9,10.8,2.9,18.5,2.9
		c5.7,0,10.5-0.4,14.6-1.2c4-0.8,7.5-1.7,10.4-2.5v-14.1h-18.4c-3.9,0-6.9-0.3-8.9-0.8c-2-0.5-3.4-1.4-4.1-2.6
		c-0.8-1.2-1.2-2.8-1.5-4.8h12c4.8,0,8.9-0.6,12.4-1.8c3.5-1.2,6.2-3.1,8.1-5.9c1.9-2.8,2.9-6.6,2.9-11.6c0-6.3-0.9-11.2-2.7-14.7
		c-1.8-3.5-4.8-5.9-8.9-7.2c-4.2-1.3-9.8-2-17-2C138.6,54.3,132.5,55.3,128.1,57.3z"/>
	<path class="ef09" d="M132.9,37.8c-1.8,3.9-2.6,9-2.6,15.3v2.4l-9,3.8v15.5h9v48.1h24.3V74.7h14.7V55.4h-14.7v-3.8
		c0-1.4,0.2-2.5,0.6-3.3c0.4-0.8,0.9-1.3,1.7-1.6c0.8-0.3,1.7-0.5,2.9-0.5h9.6V28.9c-1.5-0.5-3.6-1-6.2-1.5
		c-2.7-0.5-5.5-0.8-8.4-0.8c-5.6,0-10.2,0.9-13.8,2.6C137.4,31.1,134.7,33.9,132.9,37.8"/>
	<polygon class="ef10" points="107.3,29.9 107.3,122.8 131.6,122.8 131.6,87.4 159.1,87.4 159.1,122.8 183.3,122.8 183.3,29.9 
		159.1,29.9 159.1,65.7 131.6,65.7 131.6,29.9 	"/>
	<path class="s102" d="M120.8,34.8c-5.5,4.5-8.2,11.4-8.2,20.6v4.1c0,10,2.5,17.1,7.5,21.4c5,4.3,12.3,6.4,22,6.4h6.6
		c1.7,0,3.3,0.5,4.6,1.4c1.3,0.9,1.9,2.3,1.9,4.1v1.5c0,1.6-0.5,2.8-1.4,3.8c-0.9,0.9-2.3,1.6-4.1,2c-1.8,0.4-4.1,0.6-6.9,0.6
		c-2.9,0-6.1,0-9.4-0.1c-3.4-0.1-6.7-0.2-10-0.4c-3.3-0.2-6.4-0.4-9.2-0.6v19.2c2.2,0.6,4.4,1.1,6.8,1.5c2.3,0.4,4.8,0.8,7.3,1.1
		c2.5,0.3,5.1,0.6,7.8,0.8c2.6,0.2,5.3,0.3,8.1,0.3c7.1,0,13.2-0.7,18.3-2.2c5.1-1.5,9-4.3,11.7-8.4c2.7-4.2,4.1-10.2,4.1-18.1v-4.1
		c0-4.8-1-9.1-2.9-12.9c-2-3.8-4.9-6.8-8.7-9c-3.9-2.2-8.7-3.3-14.6-3.3h-8.3c-2.7,0-4.8-0.5-6.1-1.6c-1.3-1.1-2-2.7-2-4.8v-1.2
		c0-1.9,0.5-3.4,1.5-4.4c1-1,2.4-1.7,4.3-2c1.8-0.3,3.9-0.5,6.2-0.5c3.9,0,8.3,0.1,13.1,0.3c4.8,0.2,9.1,0.5,12.9,0.8V31.6
		c-2.4-0.6-5.1-1.1-8.2-1.7c-3-0.5-6.3-1-9.8-1.4c-3.5-0.4-7.1-0.6-11.1-0.6C134.2,27.9,126.3,30.2,120.8,34.8"/>
</g>
<g>	
	<rect x="220.2" y="28.7" class="i103" width="24.2" height="92.9"/>
</g>
<g>
	<path class="s104" d="M294.7,34.8c-5.5,4.5-8.3,11.4-8.3,20.6v4.1c0,10,2.5,17.1,7.5,21.4c5,4.3,12.3,6.4,22,6.4h6.6
		c1.7,0,3.3,0.5,4.6,1.4c1.3,0.9,1.9,2.3,1.9,4.1v1.5c0,1.6-0.5,2.8-1.4,3.8c-0.9,0.9-2.3,1.6-4.1,2c-1.8,0.4-4.1,0.6-6.9,0.6
		c-2.9,0-6.1,0-9.4-0.1c-3.4-0.1-6.7-0.2-10-0.4c-3.3-0.2-6.4-0.4-9.2-0.6v19.2c2.2,0.6,4.4,1.1,6.7,1.5c2.3,0.4,4.8,0.8,7.3,1.1
		c2.5,0.3,5.1,0.6,7.8,0.8c2.6,0.2,5.3,0.3,8.1,0.3c7.1,0,13.2-0.7,18.3-2.2c5.1-1.5,9-4.3,11.7-8.4c2.8-4.2,4.1-10.2,4.1-18.1v-4.1
		c0-4.8-1-9.1-2.9-12.9c-2-3.8-4.9-6.8-8.7-9c-3.9-2.2-8.7-3.3-14.6-3.3h-8.3c-2.7,0-4.8-0.5-6.1-1.6c-1.3-1.1-2-2.7-2-4.8v-1.2
		c0-1.9,0.5-3.4,1.5-4.4c1-1,2.4-1.7,4.3-2c1.8-0.3,3.9-0.5,6.2-0.5c3.9,0,8.3,0.1,13.1,0.3c4.8,0.2,9.1,0.5,12.9,0.8V31.6
		c-2.4-0.6-5.1-1.1-8.2-1.7c-3-0.5-6.3-1-9.8-1.4c-3.5-0.4-7.1-0.6-11.1-0.6C308.1,27.9,300.2,30.2,294.7,34.8"/>
</g>
<g>
	<polygon class="t105" points="370.8,28.7 370.8,50.4 394.1,50.4 394.1,121.6 418.4,121.6 418.4,50.4 441.8,50.4 441.8,28.7 	"/>
</g>
<g>
	<path class="e106" d="M468.8,33.4c-2.3,1.7-4.1,4.1-5.5,7.1c-1.4,3-2.1,6.8-2.1,11.3v48.5c0,5.2,0.9,9.2,2.6,12.2
		c1.8,3,3.9,5.1,6.6,6.6c2.6,1.4,5.3,2.3,8.1,2.7c2.8,0.4,5.2,0.6,7.2,0.6c4.2,0,8.6-0.1,13.4-0.3c4.8-0.2,9.4-0.4,14-0.8
		c4.6-0.3,8.7-0.8,12.2-1.2V99.6h-34.5c-1,0-1.9-0.2-2.7-0.7c-0.8-0.5-1.5-1.2-1.9-2.1c-0.5-1-0.7-2.2-0.7-3.7v-7l33.6-1.2V65.6
		l-33.6-1.3v-7.7c0-1.8,0.5-3.2,1.6-4.1c1.1-0.9,2.7-1.4,4.8-1.4h33.5V30.6c-2.8-0.3-6.1-0.6-9.8-0.9c-3.7-0.3-8.1-0.5-13.1-0.7
		c-5-0.2-11.1-0.3-18.1-0.3c-2.6,0-5.3,0.4-8,1.1C473.6,30.5,471.1,31.7,468.8,33.4"/>
</g>
<g>
	<polygon class="n107" points="542.2,28.7 542.2,121.6 566.4,121.6 566.4,69.8 599,121.6 618.3,121.6 618.3,28.7 594,28.7 594,80.4 
		561.4,28.7 	"/>
</g>
<g>
	<path class="c108" d="M644.4,36.8c-3,3.4-5.4,8.1-7.1,14.3c-1.7,6.2-2.5,14.1-2.5,23.7c0,10,0.8,18.1,2.4,24.4
		c1.6,6.3,3.9,11,6.9,14.4c3,3.3,6.6,5.6,10.7,6.9c4.2,1.2,8.9,1.9,14.1,1.9c5.2,0,9.6-0.2,13.4-0.5c3.7-0.3,7-0.8,9.8-1.4
		c2.8-0.6,5.2-1.3,7.3-2.1V99.4c-2.3,0.3-5.5,0.6-9.4,0.8c-4,0.2-9.1,0.3-15.4,0.3c-3.3,0-5.9-0.4-7.9-1.2c-2-0.8-3.6-2.1-4.7-4
		c-1.1-1.9-1.8-4.5-2.2-7.8c-0.4-3.3-0.6-7.5-0.6-12.5c0-5.6,0.3-10.1,0.8-13.4c0.5-3.4,1.4-5.9,2.6-7.7c1.2-1.7,2.7-2.9,4.7-3.5
		c2-0.6,4.4-0.9,7.2-0.9c3.8,0,7.2,0.1,10.4,0.3c3.2,0.2,6.1,0.5,8.6,0.8c2.5,0.3,4.5,0.7,6.1,1V32.8c-1.7-0.8-3.9-1.5-6.7-2.3
		c-2.8-0.8-6.2-1.4-10.1-1.9c-4-0.5-8.5-0.8-13.7-0.8c-5,0-9.6,0.6-13.7,1.9C651.1,31,647.5,33.4,644.4,36.8"/>
</g>
<g>
	<rect x="742.1" y="28.7" class="i109" width="24.2" height="92.9"/>
</g>
<g>
	<path class="a110" d="M840.9,49.3l8.4,35.8h-16.6L840.9,49.3z M826,28.7l-27.5,92.9h24.9l3.6-14.7h27.9l3.8,14.7h25.1l-27.5-92.9
		H826z"/>
</g>



</svg>
