<?xml version="1.0" encoding="utf-8"?>
<!-- Generator: Adobe Illustrator 24.0.2, SVG Export Plug-In . SVG Version: 6.00 Build 0)  -->
<svg version="1.1" id="logo_1_" xmlns="http://www.w3.org/2000/svg" xmlns:xlink="http://www.w3.org/1999/xlink" x="0px" y="0px"
	 viewBox="0 0 1100 450" style="enable-background:new 0 0 1100 450;" xml:space="preserve">
<style type="text/css">
:root{
	--inicio : 0s;
	--inicio2 : 3s;
	--inicio3 : 4s;
}
	

	.m01L,.a01L,.t01L,.h01L,.i01L,.i02L,.c01L,.a02L,.i04L,.i05L,.n01L,.f01L,.o01L,.r01L,.mon2L,.mon1L{fill:none;stroke-width:1;stroke:transparent;}
	@keyframes mc{0%{stroke-dashoffset:450px;}100%{stroke-dashoffset:0px;}}
	.h01L{
		stroke-dasharray: 450px;
		stroke-dashoffset: 450px;
		stroke:#fff;
		animation: mc 2s forwards calc((var(--inicio3) + 2.5s));
	}
	@keyframes monL{0%{stroke-dashoffset:2500px;}100%{stroke-dashoffset:0px;}}
	@keyframes monL3{0%{stroke-dashoffset:0px;}100%{stroke-dashoffset:2500px;}}
	.mon1L,.mon2L{
		stroke-dasharray: 2500px;
		stroke-dashoffset: 2500px;
		stroke:rgb(0,217,214);
		animation: monL 2s forwards calc((var(--inicio3) + 4.5s)),
					monL3 1s forwards calc((var(--inicio3) + 6.5s));
	}
	@keyframes ver{from{opacity: 0;}to{opacity: 1;}}
	@keyframes fH{from{opacity: 0;fill: transparent;}to{opacity: 1;fill: #fff;}}
	@keyframes fH2{from{opacity: 0;fill: transparent;}to{opacity: 1;fill: rgb(0,217,214);}}
	@keyframes upI{from{transform: translate(-580px, 0px);}to{transform: translate(-580px, -130px);}}
	@keyframes upA2{from{transform: translate(710px, 0px);}to{transform: translate(710px, 130px);}}
	@keyframes upA3{from{transform: translate(710px, 130px);}to{transform: translate(0px, 130px);}}
	@keyframes upA4{from{transform: translate(0px, 130px);}to{transform: translate(0px, 0px);}}
	@keyframes upM{from{transform: translate(420px, 0px);}to{transform: translate(0px, 0px);}}
	@keyframes upT{from{transform: translate(390px, 0px);}to{transform: translate(0px, 0px);}}
	@keyframes upI2{from{transform: translate(300px, 0px);}to{transform: translate(-90px, 0px);}}
	@keyframes upI3{from{transform: translate(-90px, 0px);}to{transform: translate(0px, 0px);}}
	@keyframes upC{from{transform: translate(295px, 0px);}to{transform: translate(0px, 0px);}}
	@keyframes upAf{from{transform: translate(-5px, 0px);}to{transform: translate(0px, 0px);}}
	@keyframes upIf1{from{transform: translate(-580px, -130px);}to{transform: translate(0px, -130px);}}
	@keyframes upIf2{from{transform: translate(0px, -130px);}to{transform: translate(0px, 0px);}}
	

	.m01C,.a01C,.t01C,.h01C,.i01C,.i02C,.c01C,.a02C,.i04C,.i05C,.n01C,.f01C,.o01C,.r01C,.mon2C,.mon1C{fill: transparent; opacity: 0;}
	.m01C{
		transform: translate(420px);		fill: #fff;
		animation: ver 1s forwards calc((var(--inicio) + 0.5s)),
					upM 1s forwards calc((var(--inicio3) + 0.0s));
	}
	.a01C{
		transform: translateX(710px);		fill: #fff;
		animation: ver 1s forwards calc((var(--inicio) + 1s)),
					upA2 1s forwards calc((var(--inicio2) + 0.0s)),
					upA3 1s forwards calc((var(--inicio3) + 0.5s)),
					upA4 1s forwards calc((var(--inicio3) + 1.5s));
	}
	.t01C{
		transform: translateX(390px);		fill: #fff;
		animation: ver 1s forwards calc((var(--inicio) + 0.7s)),
					upT 1s forwards calc((var(--inicio3) + 0.1s));
	}
	.h01C{
		animation: fH 1s forwards calc((var(--inicio3) + 4s));
	}
	.i01C{
		transform: translateX(300px);		fill: #fff;
		animation: ver 1s forwards calc((var(--inicio) + 0.8s)),
					upI2 1s forwards calc((var(--inicio3) + 0.2s)),
					upI3 1s forwards calc((var(--inicio3) + 2s));
	}
	.i02C{
		transform: translateX(300px);		fill: #fff;
		animation: ver 1s forwards calc((var(--inicio) + 0.8s)),
					upI2 1s forwards calc((var(--inicio3) + 0.2s)),
					upI3 1s forwards calc((var(--inicio3) + 2s));
	}
	.c01C{
		transform: translateX(295px);		fill: #fff;
		animation: ver 1s forwards calc((var(--inicio) + 0.9s)),
					upC 1s forwards calc((var(--inicio3) + 2s));
	}
	.a02C{
		transform: translateX(-5px);		fill: #fff;
		animation: ver 1s forwards calc((var(--inicio) + 0.6s)),
					upAf 1s forwards calc((var(--inicio3) + 2s));
	}
	.i04C{
		transform: translateX(-580px);		fill: #fff;
		animation: ver 1s forwards calc((var(--inicio) + 0.0s)),
					upI 1s forwards calc((var(--inicio2) + 0.0s)),
					upIf1 1s forwards calc((var(--inicio2) + 2.5s)),
					upIf2 1s forwards calc((var(--inicio2) + 3.5s));
	}
	.i05C{
		transform: translateX(-580px);		fill: #fff;
		animation: ver 1s forwards calc((var(--inicio) + 0.0s)),
					upI 1s forwards calc((var(--inicio2) + 0.0s)),
					upIf1 1s forwards calc((var(--inicio2) + 2.5s)),
					upIf2 1s forwards calc((var(--inicio2) + 3.5s));
	}
	.n01C{
		transform: translateX(-580px);		fill: #fff;
		animation: ver 1s forwards calc((var(--inicio) + 0.1s)),
					upI 1s forwards calc((var(--inicio2) + 0.0s)),
					upIf1 1s forwards calc((var(--inicio2) + 2.5s)),
					upIf2 1s forwards calc((var(--inicio2) + 3.5s));
	}
	.f01C{
		transform: translateX(-580px);		fill: #fff;
		animation: ver 1s forwards calc((var(--inicio) + 0.2s)),
					upI 1s forwards calc((var(--inicio2) + 0.0s)),
					upIf1 1s forwards calc((var(--inicio2) + 2.5s)),
					upIf2 1s forwards calc((var(--inicio2) + 3.5s));
	}
	.o01C{
		transform: translateX(-580px);		fill: #fff;
		animation: ver 1s forwards calc((var(--inicio) + 0.3s)),
					upI 1s forwards calc((var(--inicio2) + 0.0s)),
					upIf1 1s forwards calc((var(--inicio2) + 2.5s)),
					upIf2 1s forwards calc((var(--inicio2) + 3.5s));
	}
	.r01C{
		transform: translateX(-580px);		fill: #fff;
		animation: ver 1s forwards calc((var(--inicio) + 0.4s)),
					upI 1s forwards calc((var(--inicio2) + 0.0s)),
					upIf1 1s forwards calc((var(--inicio2) + 2.5s)),
					upIf2 1s forwards calc((var(--inicio2) + 3.5s));
	}
	.mon1C{
		animation: fH2 1s forwards calc((var(--inicio3) + 2s));

	}
	.mon2C{
		animation: fH2 1s forwards calc((var(--inicio3) + 2s));
	}
</style>
<g id="linea">
	<path class="m01L" d="M50,276.1v-68c0-8.4,2.5-15.3,7.7-20.6c5.1-5.3,11.7-8,19.9-8c9.7,0,17.1,4.4,22.3,13.3
		c3.2-4.8,6.6-8.2,10.2-10.2c3.7-2.1,8.1-3.1,13.5-3.1c8.5,0,15,2.7,19.5,8c4.5,5.4,6.8,13,6.8,23.1v65.6h-28v-61.4
		c0-3-0.2-5-0.7-5.9c-0.5-1-1.5-1.5-3-1.5c-2.8,0-4.2,2.3-4.2,6.9v61.8h-28v-61.4c0-2.9-0.3-4.9-0.8-5.9c-0.5-1-1.5-1.5-3-1.5
		c-2.8,0-4.2,2.5-4.2,7.4v61.4H50z"/>
	<path class="a01L" d="M239.8,262.7l2.7,10.8c-8.7,2.9-18,4.4-28,4.4c-17.2,0-30.5-5.2-39.7-15.5c-8-8.9-12-19.8-12-32.7
		c0-14.1,4.7-26,14.2-35.5c9.5-9.5,21.2-14.3,35.3-14.3c13.2,0,24,3.9,32.7,11.8c8.6,7.8,12.9,17.8,12.9,29.7
		c0,9.1-2.7,16.6-8.2,22.6c-5.5,6-12.4,9-20.7,9c-4.4,0-7.9-0.8-10.6-2.5c-2.6-1.7-4-3.8-4-6.6c0-1.3,0.3-2.9,0.8-5l2.6-10
		c0.2-0.8,0.3-1.7,0.3-2.7c0-3.7-1.8-5.6-5.4-5.6c-2.3,0-4.2,0.9-5.9,2.6c-1.7,1.7-2.5,3.7-2.5,6c0,2.9,1.4,4.4,4.2,4.4
		c1.3,0,2.6-0.2,3.9-0.7l-6.2,17.1c-1.5,0.3-2.7,0.4-3.7,0.4c-5,0-9-1.5-12-4.5c-3-3-4.5-7-4.5-12.1c0-8.3,3-15.4,9-21.5
		c6-6.1,13.1-9.2,21.3-9.2c5.8,0,10.6,1.5,14.1,4.5c3.6,3,5.4,7,5.4,11.9c0,2-0.3,4.3-0.9,6.7l-2.1,8.4l-0.4,1.5
		c-0.4,1.3-0.6,2.5-0.6,3.5c0,2.2,1,3.3,3,3.3c3.1,0,6-2.2,8.6-6.7c2.6-4.5,3.8-9.4,3.8-14.9c0-9.2-3.2-16.6-9.6-22.3
		c-6.4-5.7-14.7-8.6-24.9-8.6c-11.1,0-20.2,3.7-27.4,11.2c-7.2,7.4-10.8,16.9-10.8,28.2c0,9.8,2.8,18.1,8.4,24.9
		c6.9,8.3,17.5,12.4,31.8,12.4C222.8,267.3,231.2,265.8,239.8,262.7"/>
	<polygon class="t01L" points="313.7,208.9 313.7,276.1 285.7,276.1 285.7,208.9 264.2,208.9 264.2,181.7 335.1,181.7 335.1,208.9 	
		"/>
	<path class="h01L" d="M414.1,181.7v94.3h-28v-94.3H414.1z M381.3,215.5v24.9h-7.8v35.6h-28v-94.3h28v33.8H381.3z"/>
	<path class="i01L" d="M447,149c7.7,0,14,5.2,14,11.5c0,6.4-6.3,11.5-14,11.5c-7.7,0-14-5.2-14-11.5C433,154.2,439.3,149,447,149"/>
	<rect x="433" y="181.7" class="i02L" width="28" height="94.3"/>
	<path class="c01L" d="M543.6,230l29.4,0.8c-1.9,15.2-7.2,27-15.8,35.3c-8.6,8.3-19.8,12.4-33.6,12.4c-14.1,0-25.8-4.7-35.3-14.1
		c-9.5-9.4-14.2-21.1-14.2-35.1c0-14.1,4.8-25.9,14.5-35.4c9.7-9.6,21.5-14.4,35.7-14.4c13.9,0,25.5,4.7,34.8,14.1
		c6.5,6.5,11,15.5,13.7,27.1l-30.1,2c-3.4-10.2-9.8-15.3-19.2-15.3c-6,0-11,2.1-14.9,6.2c-3.9,4.1-5.8,9.4-5.8,15.8
		c0,6.2,1.9,11.2,5.8,15.3c3.8,4,8.7,6,14.5,6c6,0,10.7-1.8,14.2-5.3C540.9,241.7,543,236.6,543.6,230"/>
	<path class="a02L" d="M620.4,228.7v24.9h-8.1v22.5h-28v-60c0-11.6,3.2-20.6,9.5-27c6.3-6.4,15.3-9.6,26.7-9.6
		c11.1,0,19.3,2.9,24.6,8.7c5.3,5.8,7.9,14.8,7.9,26.9v61h-28V217c0-3.6-0.4-6.1-1.3-7.5c-0.9-1.4-2.5-2.1-4.8-2.1
		c-4.4,0-6.6,3.2-6.6,9.6v11.7H620.4z"/>
	<path class="i04L" d="M684.4,149c7.7,0,14,5.2,14,11.5c0,6.4-6.3,11.5-14,11.5c-7.7,0-14-5.2-14-11.5
		C670.4,154.2,676.7,149,684.4,149"/>
	<rect x="670" y="181.7" class="i05L" width="28" height="94.3"/>
	<path class="n01L" d="M714.9,276.1v-61.2c0-10.7,3.2-19.3,9.6-25.7c6.4-6.4,15-9.7,25.7-9.7c10.7,0,18.8,3.1,24.4,9.4
		c5.6,6.2,8.5,15.3,8.5,27v60.3h-28v-60.3c0-5.7-2.1-8.5-6.2-8.5c-4,0-6,2.8-6,8.5v60.3H714.9z"/>
	<path class="f01L" d="M835.5,226.1v25.3h-9.3v24.6h-28v-58.5c0-11,3.4-20.1,10.2-27.3c6.8-7.2,15.3-10.8,25.7-10.8
		c11.4,0,20.9,4.9,28.5,14.6l-23,16.8c-1.3-3.5-3.6-5.3-6.8-5.3c-4.3,0-6.5,2.9-6.5,8.9v11.6H835.5z"/>
	<path class="o01L" d="M912.1,250.6c-5.7,0-10.6-2.1-14.7-6.3s-6.1-9.3-6.1-15.3c0-6,2-11.1,6.1-15.3c4.1-4.2,9-6.3,14.7-6.3
		c5.8,0,10.7,2.1,14.8,6.3c4,4.2,6,9.3,6,15.3c0,6-2,11.1-6,15.3C922.9,248.5,917.9,250.6,912.1,250.6 M877.1,264
		c9.7,9.7,21.3,14.5,35,14.5c13.8,0,25.5-4.8,35.1-14.5c9.6-9.6,14.4-21.3,14.4-35.1c0-13.5-4.8-25.2-14.3-34.9
		c-9.5-9.7-21-14.6-34.3-14.6c-14.1,0-26,4.8-35.7,14.4c-9.7,9.6-14.6,21.3-14.6,35.1C862.6,242.6,867.5,254.3,877.1,264z"/>
	<path class="r01L" d="M1002.9,207.1v69h-28v-94.3h35.9c10.9,0,19.4,2.7,25.5,8.2c6.7,6.1,10.1,13.8,10.1,23.2
		c0,9.5-4.1,17.6-12.4,24.2l16.1,38.9h-29.4l-13.6-30.4v-24.2h2.2c5.9,0,8.8-2.5,8.8-7.7c0-4.5-3.4-6.8-10.2-6.8H1002.9z"/>
	<path class="mon2L" d="M222.8,301.3c0-3.9-3.1-7-7-7c-3.9,0-7,3.1-7,7v37.9h0c-0.2,9.7,6.2,19.2,18.4,26.5
		c9.9,5.9,23.8,10.4,41.3,12.3l0.3,0l578.9,35.6h0.2c21.5,0.6,39.6-2.3,52.7-7.9c14.8-6.3,23.7-16.1,25-28.4l0-0.3l-0.4-72
		c0-3.8-3.1-6.9-7-6.9c-3.8,0-6.9,3.1-6.9,7l0.4,71c-0.9,6.8-6.8,12.6-16.6,16.8c-11.3,4.8-27.3,7.3-46.7,6.8v0L623.2,386l209,10.3
		h0.1c19.9,0.5,36.5-2,48.5-7c12.9-5.4,20.7-13.6,21.8-23.8l0-0.1l-0.4-66.9c0-1.9-1.6-3.5-3.5-3.5c-1.9,0-3.5,1.6-3.5,3.5l0.4,66.4
		c-0.9,7.5-7.1,13.7-17.6,18c-11.1,4.6-26.8,7-45.6,6.5v0l-565.6-27.9c-15-1.6-26.7-5.3-34.9-10c-2.1-1.2-3.9-2.5-5.5-3.8
		c-2.5-2.8-3.7-5.5-3.7-8.2l0-0.1V301.3z"/>
	<path class="mon1L" d="M222.8,148.7c0,3.9-3.1,7-7,7c-3.9,0-7-3.1-7-7v-37.9h0c-0.2-9.7,6.2-19.2,18.4-26.5
		c9.9-5.9,23.8-10.5,41.3-12.3l0.3,0l578.9-35.6h0.2c21.5-0.6,39.6,2.3,52.7,7.9c14.8,6.3,23.7,16.1,25,28.4l0,0.3l-0.4,72
		c0,3.8-3.1,6.9-7,6.9c-3.8,0-6.9-3.1-6.9-7l0.4-71C911,67,905.1,61.1,895.3,57c-11.3-4.8-27.3-7.3-46.7-6.8v0L623.2,64l209-10.3
		h0.1c19.9-0.5,36.5,2,48.5,7c12.9,5.4,20.7,13.6,21.8,23.8l0,0.1l-0.4,66.9c0,1.9-1.6,3.5-3.5,3.5c-1.9,0-3.5-1.6-3.5-3.5l0.4-66.4
		c-0.9-7.5-7.1-13.7-17.6-18c-11.1-4.6-26.8-7-45.6-6.5v0L266.8,88.6c-15,1.6-26.7,5.3-34.9,10c-2.1,1.2-3.9,2.5-5.5,3.8
		c-2.5,2.8-3.7,5.5-3.7,8.2l0,0.1V148.7z"/>
</g>
<g id="color">
	<path class="m01C" d="M50,276.1v-68c0-8.4,2.5-15.3,7.7-20.6c5.1-5.3,11.7-8,19.9-8c9.7,0,17.1,4.4,22.3,13.3
		c3.2-4.8,6.6-8.2,10.2-10.2c3.7-2.1,8.1-3.1,13.5-3.1c8.5,0,15,2.7,19.5,8c4.5,5.4,6.8,13,6.8,23.1v65.6h-28v-61.4
		c0-3-0.2-5-0.7-5.9c-0.5-1-1.5-1.5-3-1.5c-2.8,0-4.2,2.3-4.2,6.9v61.8h-28v-61.4c0-2.9-0.3-4.9-0.8-5.9c-0.5-1-1.5-1.5-3-1.5
		c-2.8,0-4.2,2.5-4.2,7.4v61.4H50z"/>
	<path class="a01C" d="M239.8,262.7l2.7,10.8c-8.7,2.9-18,4.4-28,4.4c-17.2,0-30.5-5.2-39.7-15.5c-8-8.9-12-19.8-12-32.7
		c0-14.1,4.7-26,14.2-35.5c9.5-9.5,21.2-14.3,35.3-14.3c13.2,0,24,3.9,32.7,11.8c8.6,7.8,12.9,17.8,12.9,29.7
		c0,9.1-2.7,16.6-8.2,22.6c-5.5,6-12.4,9-20.7,9c-4.4,0-7.9-0.8-10.6-2.5c-2.6-1.7-4-3.8-4-6.6c0-1.3,0.3-2.9,0.8-5l2.6-10
		c0.2-0.8,0.3-1.7,0.3-2.7c0-3.7-1.8-5.6-5.4-5.6c-2.3,0-4.2,0.9-5.9,2.6c-1.7,1.7-2.5,3.7-2.5,6c0,2.9,1.4,4.4,4.2,4.4
		c1.3,0,2.6-0.2,3.9-0.7l-6.2,17.1c-1.5,0.3-2.7,0.4-3.7,0.4c-5,0-9-1.5-12-4.5c-3-3-4.5-7-4.5-12.1c0-8.3,3-15.4,9-21.5
		c6-6.1,13.1-9.2,21.3-9.2c5.8,0,10.6,1.5,14.1,4.5c3.6,3,5.4,7,5.4,11.9c0,2-0.3,4.3-0.9,6.7l-2.1,8.4l-0.4,1.5
		c-0.4,1.3-0.6,2.5-0.6,3.5c0,2.2,1,3.3,3,3.3c3.1,0,6-2.2,8.6-6.7c2.6-4.5,3.8-9.4,3.8-14.9c0-9.2-3.2-16.6-9.6-22.3
		c-6.4-5.7-14.7-8.6-24.9-8.6c-11.1,0-20.2,3.7-27.4,11.2c-7.2,7.4-10.8,16.9-10.8,28.2c0,9.8,2.8,18.1,8.4,24.9
		c6.9,8.3,17.5,12.4,31.8,12.4C222.8,267.3,231.2,265.8,239.8,262.7"/>
	<polygon class="t01C" points="313.7,208.9 313.7,276.1 285.7,276.1 285.7,208.9 264.2,208.9 264.2,181.7 335.1,181.7 335.1,208.9 	
		"/>
	<path class="h01C" d="M414.1,181.7v94.3h-28v-94.3H414.1z M381.3,215.5v24.9h-7.8v35.6h-28v-94.3h28v33.8H381.3z"/>
	<path class="i01C" d="M447,149c7.7,0,14,5.2,14,11.5c0,6.4-6.3,11.5-14,11.5c-7.7,0-14-5.2-14-11.5C433,154.2,439.3,149,447,149"/>
	<rect x="433" y="181.7" class="i02C" width="28" height="94.3"/>
	<path class="c01C" d="M543.6,230l29.4,0.8c-1.9,15.2-7.2,27-15.8,35.3c-8.6,8.3-19.8,12.4-33.6,12.4c-14.1,0-25.8-4.7-35.3-14.1
		c-9.5-9.4-14.2-21.1-14.2-35.1c0-14.1,4.8-25.9,14.5-35.4c9.7-9.6,21.5-14.4,35.7-14.4c13.9,0,25.5,4.7,34.8,14.1
		c6.5,6.5,11,15.5,13.7,27.1l-30.1,2c-3.4-10.2-9.8-15.3-19.2-15.3c-6,0-11,2.1-14.9,6.2c-3.9,4.1-5.8,9.4-5.8,15.8
		c0,6.2,1.9,11.2,5.8,15.3c3.8,4,8.7,6,14.5,6c6,0,10.7-1.8,14.2-5.3C540.9,241.7,543,236.6,543.6,230"/>
	<path class="a02C" d="M620.4,228.7v24.9h-8.1v22.5h-28v-60c0-11.6,3.2-20.6,9.5-27c6.3-6.4,15.3-9.6,26.7-9.6
		c11.1,0,19.3,2.9,24.6,8.7c5.3,5.8,7.9,14.8,7.9,26.9v61h-28V217c0-3.6-0.4-6.1-1.3-7.5c-0.9-1.4-2.5-2.1-4.8-2.1
		c-4.4,0-6.6,3.2-6.6,9.6v11.7H620.4z"/>
	<path class="i04C" d="M684.4,149c7.7,0,14,5.2,14,11.5c0,6.4-6.3,11.5-14,11.5c-7.7,0-14-5.2-14-11.5
		C670.4,154.2,676.7,149,684.4,149"/>
	<rect x="670" y="181.7" class="i05C" width="28" height="94.3"/>
	<path class="n01C" d="M714.9,276.1v-61.2c0-10.7,3.2-19.3,9.6-25.7c6.4-6.4,15-9.7,25.7-9.7c10.7,0,18.8,3.1,24.4,9.4
		c5.6,6.2,8.5,15.3,8.5,27v60.3h-28v-60.3c0-5.7-2.1-8.5-6.2-8.5c-4,0-6,2.8-6,8.5v60.3H714.9z"/>
	<path class="f01C" d="M835.5,226.1v25.3h-9.3v24.6h-28v-58.5c0-11,3.4-20.1,10.2-27.3c6.8-7.2,15.3-10.8,25.7-10.8
		c11.4,0,20.9,4.9,28.5,14.6l-23,16.8c-1.3-3.5-3.6-5.3-6.8-5.3c-4.3,0-6.5,2.9-6.5,8.9v11.6H835.5z"/>
	<path class="o01C" d="M912.1,250.6c-5.7,0-10.6-2.1-14.7-6.3s-6.1-9.3-6.1-15.3c0-6,2-11.1,6.1-15.3c4.1-4.2,9-6.3,14.7-6.3
		c5.8,0,10.7,2.1,14.8,6.3c4,4.2,6,9.3,6,15.3c0,6-2,11.1-6,15.3C922.9,248.5,917.9,250.6,912.1,250.6 M877.1,264
		c9.7,9.7,21.3,14.5,35,14.5c13.8,0,25.5-4.8,35.1-14.5c9.6-9.6,14.4-21.3,14.4-35.1c0-13.5-4.8-25.2-14.3-34.9
		c-9.5-9.7-21-14.6-34.3-14.6c-14.1,0-26,4.8-35.7,14.4c-9.7,9.6-14.6,21.3-14.6,35.1C862.6,242.6,867.5,254.3,877.1,264z"/>
	<path class="r01C" d="M1002.9,207.1v69h-28v-94.3h35.9c10.9,0,19.4,2.7,25.5,8.2c6.7,6.1,10.1,13.8,10.1,23.2
		c0,9.5-4.1,17.6-12.4,24.2l16.1,38.9h-29.4l-13.6-30.4v-24.2h2.2c5.9,0,8.8-2.5,8.8-7.7c0-4.5-3.4-6.8-10.2-6.8H1002.9z"/>
	<path class="mon2C" d="M222.8,301.3c0-3.9-3.1-7-7-7c-3.9,0-7,3.1-7,7v37.9h0c-0.2,9.7,6.2,19.2,18.4,26.5
		c9.9,5.9,23.8,10.4,41.3,12.3l0.3,0l578.9,35.6h0.2c21.5,0.6,39.6-2.3,52.7-7.9c14.8-6.3,23.7-16.1,25-28.4l0-0.3l-0.4-72
		c0-3.8-3.1-6.9-7-6.9c-3.8,0-6.9,3.1-6.9,7l0.4,71c-0.9,6.8-6.8,12.6-16.6,16.8c-11.3,4.8-27.3,7.3-46.7,6.8v0L623.2,386l209,10.3
		h0.1c19.9,0.5,36.5-2,48.5-7c12.9-5.4,20.7-13.6,21.8-23.8l0-0.1l-0.4-66.9c0-1.9-1.6-3.5-3.5-3.5c-1.9,0-3.5,1.6-3.5,3.5l0.4,66.4
		c-0.9,7.5-7.1,13.7-17.6,18c-11.1,4.6-26.8,7-45.6,6.5v0l-565.6-27.9c-15-1.6-26.7-5.3-34.9-10c-2.1-1.2-3.9-2.5-5.5-3.8
		c-2.5-2.8-3.7-5.5-3.7-8.2l0-0.1V301.3z"/>
	<path class="mon1C" d="M222.8,148.7c0,3.9-3.1,7-7,7c-3.9,0-7-3.1-7-7v-37.9h0c-0.2-9.7,6.2-19.2,18.4-26.5
		c9.9-5.9,23.8-10.5,41.3-12.3l0.3,0l578.9-35.6h0.2c21.5-0.6,39.6,2.3,52.7,7.9c14.8,6.3,23.7,16.1,25,28.4l0,0.3l-0.4,72
		c0,3.8-3.1,6.9-7,6.9c-3.8,0-6.9-3.1-6.9-7l0.4-71C911,67,905.1,61.1,895.3,57c-11.3-4.8-27.3-7.3-46.7-6.8v0L623.2,64l209-10.3
		h0.1c19.9-0.5,36.5,2,48.5,7c12.9,5.4,20.7,13.6,21.8,23.8l0,0.1l-0.4,66.9c0,1.9-1.6,3.5-3.5,3.5c-1.9,0-3.5-1.6-3.5-3.5l0.4-66.4
		c-0.9-7.5-7.1-13.7-17.6-18c-11.1-4.6-26.8-7-45.6-6.5v0L266.8,88.6c-15,1.6-26.7,5.3-34.9,10c-2.1,1.2-3.9,2.5-5.5,3.8
		c-2.5,2.8-3.7,5.5-3.7,8.2l0,0.1V148.7z"/>
</g>

</svg>
