<?xml version="1.0" encoding="utf-8"?>
<!-- Generator: Adobe Illustrator 24.0.2, SVG Export Plug-In . SVG Version: 6.00 Build 0)  -->
<svg version="1.1" id="Capa_1" xmlns="http://www.w3.org/2000/svg" xmlns:xlink="http://www.w3.org/1999/xlink" x="0px" y="0px"
	 viewBox="0 0 396 200" style="enable-background:new 0 0 396 200;" xml:space="preserve">
<filter id='shadow' color-interpolation-filters="sRGB">
    <feDropShadow dx="0" dy="0" stdDeviation="1" flood-color="rgba(255,255,255,1)" flood-opacity="0.8" />
</filter>
<style type="text/css">
	.st0{fill:rgba(255, 255, 255, .3);filter:url(#shadow)}
</style>
<path class="st0" d="M102.5,89.2c-1.4,0.7,0,0.8,0.7,0.7c0.8-0.1,1.6,0.1,2.4,0c0.4-0.1,1.3-0.2,1.3-0.7c0-0.3-1.6-0.7-1.7-0.7
	c0.2-0.6-0.8-0.6-1.2-0.8c-0.4-0.2-0.7-0.5-1.1-0.8c-0.3-0.2-0.4-0.2-0.7-0.3c-0.7-0.4-1.3-0.6-2-1c-0.2-0.1-0.1-0.2-0.2-0.3
	c-0.2-0.1-0.4,0-0.6-0.1C99,85.1,98.9,85,98.5,85c-0.5-0.1-1.2-0.2-1.9-0.1c-1,0.2-2,0.4-2.7,1.1c-0.2,0.2-0.1,0.3-0.3,0.5l-0.5,0.1
	c-0.3,0.4,0.3,0.4,0.5,0.3c0,0.3,1.2-0.3,1.5-0.4c0.8-0.4,1.3-0.9,2.3-0.6c-1.1,0.1-0.3,0.5,0.3,0.7c0.3,0.1,0.6,0.1,1,0.2
	c0.3,0.1,0.6,0.3,1,0.5c0.5,0.3,1.2,0.1,1.5,0.4s0.1,0.8,0.7,1.1C102.2,88.8,103.4,88.8,102.5,89.2 M113.2,92.1
	c0.3,0,0.5,0.4,0.8-0.2c0.3-0.7-0.5-0.9-1-1c0.8-0.4-0.6-0.4-0.6-0.4c-0.2-0.1-0.2-0.4-0.4-0.5c-0.5-0.3-1.4-0.4-1.9-0.4
	s-0.7,0.2-1.3,0.1c-0.4-0.1-1.3-0.3-1.3,0.3c-0.1,0.4,0.6,0.2,0.8,0.5c0.1,0.1-0.1,0.3,0,0.4c0.1,0.2,0.3,0.5,0.4,0.7
	c-0.5,0-1,0.1-1.5-0.1c-0.2,0-0.7-0.2-0.9-0.1c-0.3,0.2-0.6,0.7,0,0.8c0.1,0.1,0.3,0.2,0.4,0.3c0.2,0.1,0.3,0.1,0.4-0.1
	c0.3,0,0.7,0,1.1,0c0.8,0,0.8,0,1.4,0.4c0.3,0.2,0.1,0.4,0.5,0.4c0.3,0,0.4-0.8,0.8-1c0.1,0,0.3,0.1,0.2,0.1
	C111.7,92.1,112.4,92.1,113.2,92.1z M122.9,5.7c0,0.4,0,0.8,0.6,0.7c-0.6,0.2,1.1,1.3,1.3,1.3c0.5,0.1,1,0,1.4-0.1
	c0.3,0,0.6,0.2,1,0c0.2-0.1,0.4-0.4,0.5-0.4s0.5,0,0.7-0.1c0.5-0.1,1.1-0.3,1.6-0.5c0.3-0.1,1.6-0.1,1.7-0.3
	c0.3-0.5-0.4-0.7-0.8-0.8c0.1-0.1,0-0.7,0-0.6c-0.5-0.5-1.1-0.1-1.7-0.3c-0.9-0.4-1.2-1.2-2.5-0.9c-0.2,0.1-0.5,0.2-0.7,0.3
	c-0.5,0.2-0.8,0.3-1.1,0.5c-0.4,0.2-1,0.1-1.4,0.3C123.4,4.9,122.5,5.5,122.9,5.7z M165.3,28.3c-0.4,0.2-0.6,0.4-1,0.5
	c-0.1,0-0.5,0-0.6,0.1c-0.2,0.2-0.3,0.8,0.3,0.5c0.4-0.2,1.2-0.2,1.2,0.4c0,0.7-0.6-0.1-0.7,0.6c-0.1,0.7,1.3,0.2,1.7,0.3
	c0.8,0.2,1.4,0.6,2.2,0.6c0.6,0,0.9-0.3,1.3-0.5c0.4-0.1,0.8-0.2,1.2-0.3c0.8-0.3,1.3-0.5,2-1c0.5-0.3,0.9-0.3,1-0.9
	c0-0.4-0.5-1-0.9-0.9c0.1-0.3-0.2-0.2-0.3-0.4c0-0.1,0.4-0.1,0.3-0.1c-0.2-0.2,0.2-0.2-0.3-0.3c-0.2,0-0.5,0.1-0.6,0.2
	c-0.1,0-0.1-0.1-0.1-0.2c-0.2,0-0.3-0.3-0.7-0.2c-0.2,0-0.2,0.3-0.3,0.3c-0.2,0.1-0.7,0.1-1,0.4c-0.3-0.3-2-0.4-2,0.3
	c-0.2-0.2-0.4-0.7-0.7-0.5s0,0.5-0.2,0.7c0.1-0.1-0.7,0.2-0.7,0.2c-0.2-0.6,0.2-0.4-0.2-0.9c-0.1-0.1-0.5-0.4-0.7-0.5
	c-0.2,0-1.1,0-0.8,0.4c-0.4-0.2-1.7,0.9-1.6,1.2C163.6,28.9,165,28,165.3,28.3z M146.5,12.8C146.4,12.7,146.4,12.8,146.5,12.8
	s0.2,0.1,0.3,0.2c0,0,0.7-0.1,0.6,0.2c-0.5,0-0.1,0.5,0.1,0.6c-0.7,0.5-0.1,0.4,0.3,0.7c-0.2,0.2-1.6,0.9-0.8,1
	c-0.9,0.3-1.3,1.1-0.3,1.5c0.9,0.3,1.2-0.5,1.9-0.4c-0.5,0.2,0.4,0.7,0.5,0.8c0.3,0.4,0.2,0.2,0.3,0.7c-0.7-0.3-1.4-0.7-2.2-0.6
	c-0.9,0.1-0.9,0.5-0.2,1c0.7,0.4,1.9,0.9,2.8,0.7c-0.1,0.1-1.1,1.4-1.2,1.4c-0.5,0.6-0.3,0.2-1,0.3c-0.4,0.1-1.2,0.4-1.5,0.7
	c-0.3,0.2,0,0.3-0.1,0.4s-0.4,0.1-0.6,0.3c-0.1,0.1-0.4,0.8-0.5,1c0,0.1,0.1,0.7,0.1,0.6c-0.1,0.3-0.4,0.7-0.4,1
	c-0.1,0.4,0.3,0.7,0.4,1c0.1,0.2,0.2,0.8,0.3,0.7c-0.1,0.4-0.3,0.9-0.3,1.4c0,0.3,0.3,0.2,0.4,0.5c0.1,0.2-0.3,0.1-0.2,0.4
	c0,0.4,0.6,0.8,0.6,1c0.2,0.6-0.3,1.2,0.5,1.4c-0.3,0.2,0.3,1.5,0.6,1.5c0,0.1,0.3,0.9,0.3,0.9c0.5,0.3,1.6-0.2,1.9-0.3
	c0.2,0.6,0.1,0.8,0.9,1c-0.5,0.6,0.3,0.6,0.6,0.7c-0.3-0.1,0.4-0.1,0.4-0.2c0.1,0,0.2,0.3,0.4,0.3c0.8,0,0.8-0.5,1.1-1
	c0.4-0.7,2.1-2.6,1.6-3.5c0.4,0,2.1-1.3,2-1.6c0.3,0,0.6-0.8,0.3-1c0.9,0.2,0.1-0.9,0.1-1.2c0.5-0.1,0.5,0.2,1-0.2
	c0.3-0.2,0.2-0.4,0.4-0.7c0.1,0.2,1.1,0,1.3-0.1s0.3-0.4,0.4-0.5c0.1,0,0.5,0.2,0.6,0.2c0.8,0,1.8-0.5,2.4-0.8
	c0.6-0.3,1.3-0.8,1.7-1.3c0.3-0.5,0.5-0.8,1-1.1c0.2-0.1,1.2-0.2,0.9-0.8c0.6,0.3,1.5,0.7,2-0.1c0.5,0.4,1.4-0.2,1.9-0.3
	c0.5-0.1,1-0.1,1.5-0.2c0.3-0.1,0.6-0.4,0.9-0.5c0.5-0.1,0.9-0.4,1.3-0.7c0.4-0.2,0.8-0.4,1.2-0.6c0.3-0.2,1.4-0.5,0.6-0.9
	c-0.3-0.2-1.1,0-1.5-0.1c-0.6-0.1-1.1-0.2-1.6-0.2c-0.3,0-0.3-0.3-0.5-0.3c-0.5,0-1,0.1-1.5,0.2c0.7-0.8,1.4-0.3,2.4-0.7
	c0.5-0.2,0.7-0.7,1.2-0.1c0.4,0.5,0.2,0.9,0.9,1.1c0.6,0.1,1.6,0.2,1.8-0.5c0.1-0.3,0.2-1.3-0.3-1.3c0.5-0.2,0.1-0.5-0.2-0.4
	c0.2-0.3-1.2-0.7-1.3-0.8c-0.4-0.3-0.3-0.3-0.7-0.8c-0.1-0.1,0.4-0.5-0.3-0.5c0.4-0.3,0.8-0.2,1.2-0.6c-0.1,0.9,2.9,0.7,3.3,0.4
	c1-0.7-0.4-1.5-1.1-1.2c0.2-0.6,3.4,0.5,2.7-0.7c-0.2-0.4-0.5,0-0.9-0.2c-1-0.5,0.2-0.1-0.2-0.6c0.4,0,0.6,0.6,1,0
	c0.3-0.5,0-0.7-0.1-1.1c-0.2-0.5,0.2-0.6-0.6-0.7c-0.4-0.1-0.7,0.2-0.8-0.2c0.4,0,0.6-0.3,1-0.4c0.4-0.1,0.8,0.1,1.2,0.1
	s1.4,0,1-0.8c-0.2-0.4-0.9-0.1-1.2-0.3c1.6,0.3-0.3-1.1-1.1-0.8c0.2-0.1,0.3-0.6,0.5-0.7c0.2-0.2,0.3-0.1,0.6-0.2
	c0.2-0.1,1.4-0.7,1.3-0.9c-0.1-0.2-0.2-0.2-0.4-0.1c0-0.2,1.7-0.5,1.9-0.6s0.6-0.3,0.9-0.4c0.3-0.2,0.4-0.4,0.5-0.5
	c0.4-0.2,3.6-0.8,3.5-1.3c-0.1-0.4-2.2-0.5-2.5-0.5c-0.7,0-1.5,0.1-2.1,0.3s-0.8,0.2-1.4,0.1c-0.7-0.1-1.3,0.1-2.1,0.3
	c0.3-0.2,0.4-0.7,0-0.9c2.2-0.6-0.3-0.8-1.2-1c-0.7-0.1-1.2-0.5-1.9-0.6c-0.5,0-1.1,0-1.6,0C174,0,172.6,0,171.2,0
	c-0.3,0-3.5,0.1-3.3,0.6c-1.3,0.1-2.5-0.3-3.9-0.2c-0.4,0.1-1.9-0.1-2.3,0.3c-0.5,0.5,0.7,0.7,1.1,0.8c-0.6,0.3-0.3,0.5-1,0.4
	c-0.5,0-1.2-0.4-1.7-0.5c-0.4-0.1-3.2-0.5-2.1,0.5c-0.7-0.1-1.5-0.1-2.2,0.1c0.4-1-3.4-0.5-3.8-0.4c-0.4,0-0.8,0.2-1.1,0.3
	c-0.3,0-0.7-0.2-1.1,0c-0.6,0.2-0.6,0.9-1.2,1c-0.5,0.1-1.1-0.1-1.6,0c-0.7,0.1-1.3,0.3-2,0.5c-0.2,0.1-2.1,0.2-2.1,0.8
	c0,0.5,1.3,0.4,1.6,0.4c-0.5,1-1.9,0.8-2.8,0.9c-1,0.1-1.9,0.4-2.9,0.6c-0.5,0.1-2.1,0-2.4,0.7c-0.3,0.6,1.4,1.2,1.9,1.3
	c-0.5,0-2.3,0.1-1.4,0.9c0.1,0.1,0.6,0.1,0.8,0.2c-0.9,0.3,0.3,0.9,0.7,1c0.5,0.2,1.1-0.1,1.5-0.1c0.5,0,0.7,0,1.2-0.1
	c0.3,0,0.5-0.1,0.8-0.2c0.1,0,0.2,0.1,0.4,0.1c0.3,0,0.5-0.2,0.8-0.2c0.2,0,1.1,0.2,1.4,0.2c0.5,0.1,1.3,0.5,1.9,0.7
	c-0.1,0.1-0.5,0-0.5,0.3s0.9,0.7,1,0.8c-0.2,0.2,0.1,0.4,0,0.6c-0.1,0.1-0.3,0.1-0.4,0.2C146.6,12.7,146.5,12.7,146.5,12.8z
	 M187.7,44.4c0-0.8-1.2-1.4-1.6-0.6c0,0,0,0-0.1-0.1c0.4-0.3,0.2-0.6,0.1-1c0-0.1-0.2-0.8-0.2-0.7c-0.3-0.6-0.9-0.5-1.2-0.8
	c-0.4-0.4-0.2-1-0.5-1.4c-0.1-0.2-0.9-0.5-1-0.7c-0.1-0.4,0.5-1,0.8-1.4c0.3-0.5,0.5-0.7-0.2-1c-0.2-0.1-1.5,0-1.6,0.1
	c0.1-0.4,0.5-0.3,0.7-0.8c0.2-0.3,0.3-0.4,0-0.6c-0.1-0.1-2,0.1-2.1,0.1c-0.2,0.1-0.9,1.4-1,1.6c0,0.1,0.2,0.4,0.2,0.5
	c-0.1,0.2-0.9,0.8-0.6,0.8c0.6,0.2,0.5,0.5,0.4,1c0,0.1-0.2,0.8-0.2,0.9c0.4,0.4,0.7-0.4,0.7-0.6c0.1,0.1,0.3,0.1,0.3,0.2
	c0.2,0.4-0.2,0.3-0.3,0.7c-0.1,0.3-0.3,0.4,0.1,0.7c0.2,0.1,0.4,0.1,0.3-0.2c0.3,0.1,0.8,0,1.1-0.1c-0.1,0.3,0.1,1.2,0.5,1.2
	c-0.3,0.6,0.2,0.8-0.8,0.8c-0.3,0-0.5-0.3-0.8-0.1c0.2-0.1-0.3,1.2-0.3,1.1c0.1,0.2,0.5,0,0.7-0.1c0.1,1-1.5,0.9-1.2,1.6
	c0.2,0.5,0.7,0.1,0.9,0.1s0.6,0.2,0.8,0.4c-0.8-0.1-1,0.6-1.4,1c-0.3,0.3-1.5,0.6-0.8,1c0.3,0.2,0.6-0.2,0.8-0.2
	c0.1-0.1,0.2-0.2,0.3-0.2c0.2-0.1,0.4-0.1,0.6,0.1c0.2,0.1,0.3,0.1,0.5,0c0.1-0.1,0.2-0.3,0.2-0.5c0.5-0.2,0.8,0,1.2,0
	c0.5,0,1-0.2,1.4-0.2c0.7,0,1.4,0.1,2-0.2c0.5-0.3,1.1-0.8,0.1-1c0.1-0.1,0.1-0.2,0-0.3C187.1,45.6,187.7,44.8,187.7,44.4z
	 M174.4,45c0,0.1,0.1,0.5,0.2,0.6c0.5,0.7,1.5,0.3,2.2,0c0.3-0.1,0.7-0.4,1-0.5c0.8-0.3,1.3,0,1.6-1c0.1-0.4,0.2-1.6,0.1-1.8
	c-0.2-0.4-0.4-0.2-0.7-0.6c-0.4-0.7-0.6,0.6-1.2-0.1c0.3-0.1,0.6-0.5,0.8-0.8c0.4-0.6,0.4-0.6-0.4-0.5c-0.4,0-0.8,0.2-1.1,0.5
	c-0.2,0.2-0.6,0.6-0.1,0.7c-0.5,0.3-0.7,0-1.3,0.2s-0.2,0.4-0.2,0.6c-0.2,0.6-0.6,1.1,0.4,1.2c-0.3,0.3-0.6,0.8-0.8,1.1
	C174.6,44.7,174.5,44.5,174.4,45z M244.8,137.2c-0.1-0.1-0.4-1-0.5-1c-0.4-0.2-0.5,0.1-0.7,0.5c-0.1,0.1-0.2,0.2-0.2,0.3
	s0.1,0.3,0.1,0.5c-0.1,0.6-0.5,0.6-0.7,1c-0.7-0.8-0.4,0.5-0.4,0.7s-0.2,0.1-0.3,0.3c0,0.2,0,0.5-0.1,0.6c-0.1-0.1-1.3,1.1-1.6,1.2
	c-0.4,0.2-0.8,0.4-1.2,0.6c-0.3,0.1-1,0.2-1.3,0.5c-0.1,0.2-0.1,0.8-0.2,1.1c-0.4,0.9-0.4,1.4-0.2,2.4c0.1,0.5,0.3,1.1,0.3,1.6
	c0,0.6-0.2,0.8-0.4,1.4c-0.7,1.4-1.2,2.1-0.7,3.8c0.3,1.1-0.1,2.5,1.1,3.4c0.2,0.2,0.9,0.5,1.2,0.6c0.4,0,0.9-0.5,1.3-0.6
	c0.3-0.1,0.5,0,0.8-0.2c0.5-0.4,0.7-1.6,0.9-2.2c0.3-1.1,0.6-2.2,1-3.3c0.5-1.6,1.1-3.2,1.4-4.8c0.1-0.5,0-1.1,0.1-1.6
	c0.1-0.3,0.4-0.4,0.4-0.7c0.1-0.5-0.2-0.9-0.2-1.5c0.6,1.4,1.1-0.1,0.8-0.9C245.1,139.4,245.3,138.3,244.8,137.2z M317.2,130.5
	c0.2,0.1,0.8,0.4,1.1,0.4c0.2,0,0.5-0.1,0.7-0.1c1.4,0,2.7,1.1,4.1,1c0.5,0,1.1,0.1,1.5,0.1c0.6,0,1.1,0.3,1.7,0.4
	c0.6,0.1,0.4,0.4,0.5-0.2c0-0.1,0-1.1-0.1-1.2c-0.5-0.7-1.6,0.2-2.1-0.4c-0.1-0.1,0-0.6-0.2-0.8c-0.3-0.3-0.4-0.1-0.8-0.3
	c-0.2-0.1-0.4-0.2-0.6-0.3s-0.3,0.1-0.5,0.1c-0.2-0.1-0.3-0.5-0.6-0.4c-0.4,0-0.3,0.6-0.6,0.8c-0.1,0-1.2-0.1-1.3-0.1
	c-0.9-0.1-0.9-0.5-1.5-0.9c-0.5-0.2-1.4-0.6-1.8-0.3c-0.6-0.4-1.1-0.3-1.4,0.2c0,0-0.8,1-0.9,1c0.1,0.2,1.4,0.4,1.6,0.5
	C315.4,130.5,316.9,130.4,317.2,130.5z M312.4,126.7c0.3,0.3,0.5,0.6,0.8,0.9c0.2,0.2,1.2,1,0.8,0.1c0.2,0.2,0.4,0.2,0.6,0.2
	c0.1-0.1,0.1-0.1,0.2-0.2c1.1,1.3,0.8-2.5,0.9-3c0.1-0.6,0.3-0.5,0.1-1.1c-0.2-0.6-0.6-1.1-1.4-1c0.1-0.2-0.4-0.6-0.5-0.8
	c-0.3-0.7-0.2-0.7-0.8-1.1c-0.6-0.3-0.5-0.1-0.4-0.7c0-0.2-0.2-0.2-0.1-0.4c0.1-0.2,0.4-0.1,0.4-0.3c0.1-0.7-0.7-0.7-1-0.8
	c-0.4-0.2-0.8-0.5-1.1-0.8c-0.2-0.2-2-2.4-2.2-1.6c-0.2-0.1-0.5-1-0.8-0.8c0-0.6-1.1-1.1-1.5-1.4c-0.2-0.1-0.5-0.3-0.6-0.5
	c-0.1-0.1-0.1-0.3-0.2-0.4c-0.4-0.5-0.7-1.1-1.3-1.3c-0.4-0.1-1.1,0.1-1.6-0.1c-0.4-0.1-0.7-0.8-1.2-0.5c-0.4,0.3-0.2,0.8,0,1.1
	c0.4,0.8,1.3,1.3,1.9,1.8c0.4,0.3,0.8,0.9,1.1,1.3c0.2,0.3,0.1,0.5,0.3,0.8c0.1,0.2,0.6,0.3,0.8,0.4c0.6,0.5,0.5,0.7,0.7,1.5
	c0.3,1,0.4,0.8,1.1,1.4c0.4,0.4,0.6,1.2,0.9,1.6c0.4,0.7,0.6,1.5,1,2.2C310.1,124.7,311.2,125.6,312.4,126.7z M373,173
	c0-0.1,0.3-0.5,0.3-0.6c0,0-0.6-0.5-0.4-0.4c-0.4-0.1-0.5,0.4-0.6,0.8c-0.1-0.2-0.2-0.3-0.4-0.3c0.1-0.3,0.3-0.4,0.4-0.7
	c0.1-0.2-0.1-0.4-0.1-0.5c0,0,0.2,0,0.2-0.1c0.3-1.4-0.2-0.9-0.7-1.7c-0.2-0.2,0-0.6-0.3-0.7c-0.8-0.3-0.4,0.7-0.4,1
	c0,0.2-0.2,0.3-0.2,0.8c0,0.3,0.1,0.7,0.1,1c0.1,1.5-0.3,3.1-1.7,3.9c-0.9,0.6-1.9,0.4-0.9,1.5c0.4,0.5,0.5,0.5-0.1,1.1
	c-0.3,0.3-0.8,0.5-1.2,0.8c0.2-0.8-1.3-0.2-1.5-0.1c0.1-0.2,0.3-0.7-0.1-0.6c0.1-0.1,0.7,0,0.5-0.3c-0.2-0.2-0.4-0.1-0.7-0.1
	c-0.5,0.1-0.8,0.5-1.1,0.8c-0.6,0.5-1.1,0.8-1.7,1.2c-0.4,0.3-0.7,0.8-1.1,1.1c-0.5,0.4-1,0.5-1.6,0.8c-1.2,0.5-2.5,1-3.7,1.5
	c-1.3,0.6-2.4,1.5-3.4,2.2c-0.9,0.7-0.9,1,0.4,1.1c0,0.3,0.1,0.3,0.4,0.3c-0.2,0.4,0.5,0.5,0.8,0.5c0.8,0,1.5-0.5,2.2-0.8
	c1.4-0.7,2.4-2.2,3.9-2.9c0.5-0.2,1-0.4,1.4-0.5c0.5-0.1,0.6,0.1,0.9-0.3c-0.2-0.1-0.2-0.3-0.1-0.4c0.1-0.2,0.2-0.3,0.4-0.3
	c0.6-0.5,1.6-0.9,2.3-1.4c0.7-0.5,1-1.1,1.6-1.5c-0.1,0.2,0.3,0.3,0.5,0.4c0.5,0.1,0.5,0.3,1.1-0.1c1.1-0.6,2.7-1.6,3.5-2.6
	c0.2-0.3,0.1-0.7,0.8-0.8c0.5-0.1,0.3,0.4,0.8,0c0.2-0.1,0.4-0.5,0.6-0.7s0.4-0.3,0.7-0.5c0.2-0.2,0.9-0.9,0.9-1.2
	C375.7,172.9,372.1,175.6,373,173z M346.6,178c-0.2,0.2-1.6,0.4-1.9,0.4c-0.6-0.1-0.9-0.5-1.5-0.5c-0.5,0-0.1-0.5-0.6,0.2
	c-0.4,0.5-0.2,0.9-0.3,1.4c-0.1,0.7-0.5,1.6-0.2,2.4c0.1,0.3,0.2,0.7,0.8,0.6c0.5-0.1,0.7-0.6,1.2-0.7c0.4-0.1,0.5,0.1,0.9-0.1
	c0.3-0.1,0.5-1.1,0.8-1.3c0.2,0.5,0.8-1,0.9-1c0.1-0.3,0.4-0.5,0.4-0.8C347.1,178.2,347,177.5,346.6,178z M354.4,169.6
	c0.4-0.5,0.9-1.2,1.4-1.8c0.7-0.8,1.3-1.3,2.2-2c1-0.8,1.7-2.1,2.3-3.3c0.6-1.3,1.7-2.4,1.7-3.8c0-0.8-0.1-0.8,0.1-1.5
	c0.1-0.3,0.5-1.5,0.3-1.7s0-0.5-0.1-0.8c0-0.3-0.5-0.7-0.6-1s-1.4-2-1.5-1.8c0.2-0.7,0.2-1.3-0.2-1.7c0.1,0.2-0.6-0.2-0.5-0.2
	c-0.2,0-0.5-0.6-0.5,0.3c-0.3-0.1-0.2-1.2-0.3-1.4c-0.1-0.4-0.7-1-0.6-1.3c0.6,0.3-0.1-0.8-0.3-0.9c-0.1-0.1-0.9-0.5-1-0.5
	c-0.3-0.8-0.4-0.5-0.9-0.8c-0.8-0.4-0.3-0.3-0.5-0.8c-0.3-0.8-0.2-0.8-0.1-1.7c0-0.2,0-0.7-0.1-0.8c0-0.1-0.3-0.3-0.3-0.2
	c-0.2-0.6-0.3-0.9-0.3-1.6c0-0.2,0.2-1.1,0.1-1.2c0-0.1-1-1-1-1c-0.5-0.3-0.5,0.1-0.9,0.2c-0.1,0-0.6-2.9-0.6-3.1
	c0,0.1,0-0.4,0.1-0.4c-0.1-0.1-0.3-0.5-0.3-0.3c0-0.2-0.1-0.6-0.2-0.9c-0.1-0.9-0.7-1.2-1.2-0.2c-0.2,0.3-0.2,0.9-0.3,1.2
	c0-0.1-1,1.4-0.4,1.2c-0.1,0.6-0.5,1.1-0.6,1.7c-0.1,0.5,0.1,1.1,0,1.7c-0.1,0.5-0.3,1.1-0.5,1.6c-0.3,0.7-0.8,2.3-1.7,2.3
	c-0.9,0-1-0.7-1.5-1.2c-0.3-0.3-0.9-0.3-1.2-0.5c-0.3-0.2-0.5-0.5-0.8-0.7c-0.4-0.3-0.7-0.3-1-0.6c-0.3-0.2-1.4-1.1-1.4-1.4
	c0-0.1,1.5-1.9,0.8-1.8c0.1,0,0.6-0.2,0.6-0.3c0.3-0.2,0.3-0.4,0.5-0.6c0,0,0.3-0.6,0.3-0.7c0-0.4-0.2-0.7-0.4-0.8
	c-0.1-0.1,0.1-0.3-0.3-0.2c-0.5,0.2-0.3,0.6-0.4,0.7c0,0.1-0.2-0.8-0.1-0.7c-0.4-0.4-0.3-0.1-0.8,0.1c-0.7,0.3-1.1-0.1-2-0.3
	c0,0,0-0.2-0.1-0.2c-0.2-0.1-0.4,0.1-0.5,0.1c-0.4-0.2-0.7-0.4-1.1-0.7c0.3,0.2-0.2,0.1-0.2,0.1c-0.2-0.1-0.2-0.4-0.4-0.5
	c-0.1,0-0.6,0-0.7,0.1c-0.9,0.8,1.4,0.5,0.7,1.4c-0.4,0.5-1.2-0.2-1.6-0.1c-0.2,0-1,0.4-1.1,0.5c-0.4,0.4-0.6,1.1-0.8,1.5
	c-0.1,0.1-0.7,0.7-0.8,0.9c-0.3,0.6,0.2,0.9,0,1.3c-0.3-0.3-0.4-0.2-0.6-0.2c-0.4-0.1-0.8,0.2-1,0.2c0.1-0.5-0.7-1.3-1.1-1.6
	c-0.8-0.5-0.5-0.1-1,0.2c0.1-0.2-0.7-0.3-0.7-0.3c-0.3,0.2-0.2,0.5-0.3,0.9c-0.5-0.7-0.3-0.2-0.5,0c-0.1,0.1-0.9,0.3-0.5,0.7
	c-0.5,0.1-1.5,0.9-1,1.5c-0.3,0-0.1,0.4-0.2,0.5c0,0-0.3-0.1-0.2-0.1c-0.2,0-1.3-0.4-0.9,0.2c-0.3,0.2-0.2,0.5,0.1,0.8
	c-0.2-0.1-0.3,0.3-0.3,0.4c-0.1-0.2-0.3-1.3-0.6-1.3c-0.2,0-1.2,1.3-1.3,1.4c-0.1,0.4,0.2,1,0.1,1.2s-0.4,0.3-0.6,0.4
	c-0.5,0.5-0.5,1.1-1.2,1.6c-0.9,0.6-1.6,0.4-2.5,0.6c-0.8,0.2-1.6,1-2.5,1c-0.3,0-0.6-0.2-0.8-0.1c-0.3,0.1-0.7,0.5-1,0.6
	c-0.4,0.3-0.8,0.6-1.2,0.8c-0.6,0.3-0.7,0.7-1.2,1.1c0-0.6,0.2-1.4-0.5-0.5c-0.4,0.5-0.2,1-0.3,1.5c-0.1,1-0.8,1.4-0.6,2.5
	c0.1,0.8,0.8,1.6,0.5,2.4c-0.1-0.3-0.1-0.5-0.2-0.7c-0.3-0.6-0.3-0.6-0.7-0.2c0.1-0.1-0.1,0.5-0.1,0.4c-0.1,0.4-0.3,0.4-0.1,0.9
	c0.1,0.3,0.4,0.6,0.5,0.9c0.2,0.5,0.1,1.1,0.2,1.6c0.2,1,0.6,1.6,0.4,2.6c-0.1,0.9,0.2,1.6,0.3,2.5c0.1,0.8-0.3,2.4-0.9,2.9
	c-0.3,0.3-0.6,0-0.8,0.5c-0.2,0.4,0,0.8,0.2,1c-0.1-0.1,0.6,0.3,0.6,0.3c0.2,0.2,0.4,0.4,0.7,0.6c0.5,0.3,1.5,0.4,2.1,0.2
	s0.9-0.7,1.4-0.9c0.2-0.1,0.3,0.1,0.6,0c0.2-0.1,0.2-0.3,0.3-0.3c0.6-0.4,1.8-0.7,2.6-0.5c1.1,0.2,2.3,0.6,3.2-0.4
	c0.7-0.8,1.2-0.9,2.2-1.3c1-0.5,1.6-0.3,2.7-0.5c1.3-0.2,2.3-0.9,3.6-1c0.4,0,1-0.1,1.4-0.1c0.6,0.1,0.8,0.6,1.4,0.8
	c0.3,0.1,1.3,0,1.6,0.2c0.2,0.1-0.1,0.3,0,0.5c0.1,0.1,0.4-0.1,0.5,0c-0.7,0,0.5,1.7,0.5,2.1c0,0.8-0.6,0.7-0.1,1.3
	c0.6,0.7,1.1-0.2,0.9-0.3c0.3-0.4,1.2-1,1.7-1.3c0.1-0.1,0.4-0.1,0.6-0.2c0.3-0.2,0.4-0.5,0.7-0.7c-0.2,0.2-0.1,0.5-0.3,0.7
	c-0.1,0.2-0.4,0.3-0.6,0.5c-0.3,0.4-0.2,1-0.6,1.3c-0.2,0.2-0.5,0-0.8,0.2c-0.8,0.9,0.5,0.7,1,0.4s0.6-0.8,1.1-1.3
	c0.1,0.4,0,0.8-0.2,1.2c-0.1,0.2-0.4,0.2-0.5,0.4c-0.4,0.9,0.7,0.2,1.2,0.8c0.6,0.8-0.3,1.5-0.2,2.3c0.1,0.7,0.6,1,1.2,1.3
	c0.2,0.1-0.1,0.3,0.2,0.4c0.2,0.1,0.4-0.2,0.5-0.1c0.6,0.1,1,0.5,1.5,0.7c0.8,0.3,0.9-0.4,1.6-0.5c0.5-0.1,0.7,0.3,1.2,0
	c-0.1,0.3,0.4,0.9,0.7,0.8c0.4,0.7,0.1,0.3,0.7-0.2c0.4-0.3,1.6-0.9,2.1-1.1c1.2-0.5,2.7,0,3.5-1.2c0.3-0.5,0.6-1.1,0.9-1.6
	C353.4,170.5,353.9,170.1,354.4,169.6z M363.2,132c-0.3,0.1-1.1-0.1-1.3-0.4c1.2-0.3-0.6-0.6-0.7-0.7c-0.1-0.1,0.2-0.5,0-0.7
	c-0.3-0.3-0.6,0.1-1,0c-0.4-0.2-0.4-1.3-0.5-1.5s-2-1-1.5-1.7c0.3-0.3,1.1,0.5,1.3-0.3c0.3-0.8-0.8-1-1.1-1.1
	c-0.4-0.2-0.8-0.4-1.2-0.6c-0.9-0.5-0.1-0.3-0.6-1.2c-0.2-0.4-1-0.9-1.4-1.1c-0.4-0.3-0.8-0.4-1.2-0.6c-1.2-0.5-2.4-1.1-3.7-1.6
	c-0.8-0.3-1.7-0.3-2.5-0.7c-0.6-0.3-1.2-0.8-1.9-0.9c-0.4-0.1-0.6-0.1-0.9,0.1c-0.3,0.1-0.4,0.5-0.5,0.6c-0.2,0.1-0.8,0.2-1.1,0.4
	c-0.3,0.2-0.5,0.9-0.8,1.1c-0.6,0.5-0.8,0.5-1.2-0.1c-0.1-0.1-0.3-1.3-0.6-0.6c-0.4-0.7,0.1-1.3-0.1-2c-0.1-0.5-0.1-0.4-0.7-0.7
	c-0.7-0.3-1.4-0.8-2.1-0.5c-0.2,0.1-1.2,0.4-1.3,0.6c-0.2,0.1,0,0.3-0.1,0.4c-0.9,1.1,0.4,0.6,0.9,1.2c0.3,0.4-0.1,0.5,0.5,0.8
	c0.2,0.1,0.9,0.1,1.1,0.1c-0.1,0.1-0.3,0.2-0.4,0.4c-0.2,0-0.4-0.1-0.6-0.1c-0.3,0.1-0.6,0.1-0.5,0.5c0,0.2,1,0.5,1.1,0.9
	c0,0-0.3,0.3-0.2,0.5c0.1,0.3,0.3,0.5,0.7,0.5c0.5-0.1,0.4-0.5,0.7-0.7c0.2,0.4,1.1,0.8,1.5,0.9c1,0.6,2.1,0.7,3.2,1.1
	c0.6,0.3,1.2,0.8,1.5,1.3c0.1,0.2,0.4,0.9,0.5,1.1s-0.2,0.2-0.2,0.5c0,0.1,0.2,0.4,0.2,0.5c0.1,0.1,0.4,0.4,0.4,0.5
	s-0.2,0.3-0.2,0.4c0,0.4-0.3,0.4,0.1,0.6c0.2,0.1,1-0.3,1.2-0.1c1.1,0.4,1.1,1.6,2.4,1.7c0.5,0,1.2,0.2,1.7,0.1
	c0.7-0.2,1.3-0.8,0.5-1.4c0.4-0.1,1.4-0.3,1.2-0.8c0.4,0.2,0.7-0.2,1.1-0.1c0.3,0,1.1,0.3,1.4,0.5c0.5,0.3,0.6,0.8,0.9,1.3
	s0.7,0.8,1.1,1.2s0.3,0.6,0.9,0.8c0.5,0.1,1.1,0.1,1.6,0.2c0.2,0,0.6,0.1,0.9,0.2c0.2,0.1,0.2,0.4,0.6,0.5c0.7,0.1,0.5-0.2,0.7-0.5
	C362.9,132.5,363.8,131.8,363.2,132z M333.1,112.2c0.2-0.5-0.2-0.4-0.5-0.6c-0.4-0.3-1.3-1.1-1.7-0.7c0-0.5,0.1-0.5-0.3-1
	c-0.1-0.2-0.6-0.8-0.9-0.4c-0.2-0.6-0.9,0.8-1,1c-0.2,0.3-0.4,0.7-0.5,0.9c-0.1,0.1-1.1,0.5-0.3,0.8c-0.2,0.2-0.6,0.1-0.7,0.3
	c-0.1,0.1-0.3,1-0.2,1.1c-0.4-0.1-0.4-0.8-0.9-0.8c-0.2,0-0.8,1.3-1,1.6c-0.5,0.7-0.6,0.6-1.5,0.9c-0.5,0.2-0.8,0.2-1.1,0.7
	c-0.2,0.3-0.2,1.2-0.6,1.3c-0.5,0-1.1-0.8-1.6-0.8c-0.6,0.1-0.9,1.3-0.9,1.7c-0.1,0.7,0.2,0.7,0.4,1.3c0.1,0.4-0.2,1,0.1,1.3
	c0.4,0.5,0.8,0.1,1,0.9c0.1,0.2-0.2,0.3-0.2,0.5s0.2,0.3,0.2,0.5c0.1,0.6-0.1,1.5,0.6,1.2c0,0.4,1.4,0.2,1.5,0.1
	c0.1,1,0,0.6,0.7,0.6c0.5,0,0.8,0.1,1.2-0.4c0.2,0.2,0.3,0.3,0.6,0.2c-0.2,0.6,0.7,0.2,1,0.3c0.4,0.2,0.2,1,0.5,1.1
	c0.5,0.2,1.8-0.9,2-1.2c0.2-0.3,0.2-0.4,0.3-0.7c0.2-0.4,0.4-0.6,0.4-1.2c0-0.1-0.2-0.4-0.1-0.6s0.2-0.4,0.3-0.6
	c0.2-0.2,1-0.4,1.2-0.7c0.1-0.2,0.1-0.7-0.2-0.7c0-0.3,0.1-1.2,0.4-1.5c0.4-0.3,0.5,0,1,0c1-0.1,0.5-0.6,0-1
	c-0.2-0.2-0.9-0.5-0.9-0.8c-0.1-0.2,0.2-0.5,0.2-0.7c-0.1-0.3-0.7-1.1-0.9-1.2c0.1-0.1,0.1-0.3,0-0.4c1.2-0.4-0.1-0.4,0.2-0.9
	c0.2-0.3,0.8,0.1,1.1-0.1c0.7-0.5-0.3-0.5-0.4-0.9c0.1,0,0.2,0,0.3,0C332.3,112.7,333,112.6,333.1,112.2z M338.9,107.3
	c-0.6-0.4-0.7-0.5-1.3,0c-0.1,0.1,0,0.3-0.2,0.4c-0.1,0.1-0.4,0-0.5,0.1c-0.3,0.3-0.7,0.8-0.7,1.3c0.2,1.4,0.8-0.1,1.1-0.6
	c0.2,0.6,1.3,0.8,1.3,0c0.8,0.6,0.3,0.5,0.5,1.5c0.1,0.4,1.2,1.8,1.7,1.3c0.1,1,0.9,0.3,0.9-0.4c0-0.8-0.7-0.8-0.1-1.6
	c0.1,0.2,0.4,1.5,0.7,1.5c0.3,0,0.2-1,0.3-1.2c0.4-0.4,0-2.1-0.5-2.4c0.7-0.4-1.9-3.5-1.2-0.7c-0.2,0-0.4-0.3-0.5,0.1
	c-0.5-0.3-0.4,0.3-0.5,0.6c-0.6-0.3-0.4,0.3-0.6,0.4c-0.1,0-0.1,0-0.1,0.1C339.2,107.5,339.2,107.4,338.9,107.3z M344.8,67.4
	c-0.4,0-1,0.3-1.3,0.3c-0.5,0.1-1.2-0.2-1.6,0.1c-0.4,0.3-0.7,1.1-1.2,1.5c-0.3,0.2-0.6,0-0.6,0.5s0.3,0.4,0.5,0.5
	c0.3,0.1,0.8,0.1,1.1,0c0.3,0,0.3,0.1,0.5,0c0,0-0.1-0.5-0.1-0.6c0.9,0.7,2.4-1,3.5-0.6c-0.2-0.1-0.1,0.7-0.1,0.8
	c0.1,0.3,0.7,0.9,1.1,1c0.6,0,0.3-0.5,0.6-0.9c0.3-0.4,1.2-0.5,0.2-1c0.2,0,0.2-0.1,0.3-0.1c-0.2,0.4,1.1,0.3,1.3,0.2
	c0.7-0.2,0-0.4,0.6-0.7c0,0.3,0.3,0.9,0.7,0.6c0.4-0.2,0-0.7,0-1c0.6-0.1,0.6,0.6,1,0.5c0.8-0.1,0.3-1,0.7-1.2s-0.6-0.9-0.6-1.3
	c-0.1-0.5,0.2-0.7,0-1.2c-0.2-0.6-0.6-0.9-0.5-1.4c0,0.4,0.4-0.1,0.4-0.2c0,0-0.2-0.8-0.3-0.8c0-0.3,0.2-0.4,0-0.9s-0.5-0.9-0.9-1.3
	c-0.3-0.3-0.6-0.4-0.9-0.7c-0.2-0.2-0.2-0.7-0.4-0.8c-0.2-0.2-1.2-0.3-1.1,0.3c-0.6-0.2-0.3,0-0.4,0.4c-0.1,0.2-0.2,0.5-0.1,0.8
	c0,0,0.4,0.7,0.3,0.6c-0.1-0.1,0,0.3,0,0.4c0,0,0.2,0,0.3,0c0.9,1.3,0.4,3.9-1.3,4.4c-0.6-0.3,0.3-1-0.3-1.1c-0.8-0.2-0.5,0.7-0.5,1
	c0,0.1,0.1,0.2,0.1,0.4c0,0.3-0.4,0.5-0.4,0.7c-0.1,0.6,0.5,0.9-0.4,0.9C345.3,67.7,344.9,67.4,344.8,67.4z M351.4,56.8
	c0.1,0,1-0.3,1-0.3c0.5,0.1,0.3-1.1-0.1-0.5c-0.2-0.2-0.6-0.5-0.7-0.7s0.1-0.8-0.4-0.8c-0.3,0-0.2,0.5-0.4,0.6
	c-0.4,0.1-1.1-0.3-1.5-0.4c-1-0.4-1.9-1.4-2.9-1.7c-0.2-0.1-0.6-0.2-0.7,0.1c-0.1,0.4,0.6,0.9,0.8,1.2c0.2,0.3,0.3,0.6,0.4,1
	c0,0.1-0.1,0.3-0.1,0.4c0.1,0.2,0.3,0.5,0.4,0.7c-0.6,0.1-0.9-0.5-1.2,0.1c-0.1,0.2,0.3,0.3,0.3,0.5c0,0.6-0.7,0.3-0.1,1.1
	c0.1,0.2,0.5,0.2,0.6,0.4s0,0.6,0.3,0.7c0.4,0.3,0.4,0,0.8-0.2c-0.2,0.1,0.6-0.5,0.5-0.3c0.3-0.7-1.5-0.8-1.4-1.1
	c0.2,0,0.4,0.4,0.6,0.3c0.3,0,0.4-0.3,0.6-0.4c0.6-0.1,2.2,1.3,2.7,0.7C351.2,57.7,350.3,57.2,351.4,56.8z M302.4,95
	c0.3,0.4,0.6,0.9,0.8,1.3c0.2,0.4,0.2,1,0.4,1.5c0.1,0.3,0.8,2.5,1,2.3c0.4,0.7,0.3,1.1,0.4,1.8c0,0.5,0.4,1,0.3,1.6
	c0,0.3-0.2,0.6-0.2,0.9c0,0.4,0.1,0.7,0.1,1.1c0,0.5-0.5,1.4-0.3,1.9c0.1,0.3,0.6,0.9,0.7,0.2c0.3,0.4,0.6,0.7,0.8,1.1
	c0.4,0.5,0.8,1,1.1,1.5c0.4,0.6,0.3,1.2,0.4,1.9c0.2,1.2,0.8,2.1,1.4,3c0.2,0.3,0.1,0.4,0.5,0.7c0.2,0.2,0.4,0.4,0.6,0.6
	c0.4,0.3,1.3,1.1,1.7,1.2h1.2c0.7-0.5-0.7-1.8-0.9-2.3c-0.3-0.6-0.1-1.4-0.1-2c-0.1-1.1-0.7-1.9-1.5-2.6c-0.3-0.3-0.7-0.5-1-0.8
	c-0.5-0.4-1.2-0.3-1.6-0.8c-0.2-0.2-0.2-0.9-0.3-1.2c-0.1-0.2-0.4-0.6-0.4-0.6c-0.1-0.2-0.1-0.8-0.3-1c-0.4-0.4-0.4-0.1-0.8-0.1
	c0.1-0.4-0.2-1.2-0.1-1.7c0.1-0.4,0.2-0.9,0.3-1.2c0.3-1,0.6-1.8,0.3-2.8c1.3-0.6,0.6,0.7,1.1,1.1c0.3,0.2,0.8-0.1,1,0
	c0.3,0.1,0.5,0.4,0.8,0.6c0.5,0.4,0.8,0.5,1.1,1.1c0.2,0.4-0.1,0.5,0.3,0.8c0.2,0.1,0.4-0.2,0.4-0.3c0.2,0.4-0.4,0.4,0,0.8
	c0.2,0.2,0.4-0.1,0.5,0c0.5,0.2,0.9,0.4,1.4,0.7c-0.3,0.4-0.4,2,0,2.1c0.4,0.2,1.5-1,1.9-1.3c0.5-0.4,0.3-0.2,0.5-0.8
	c0-0.1,0.2-0.3,0.2-0.4c0.2-0.3,0.7-0.2,1.2-0.5c1-0.6,1.7-1.1,1.8-2.3c0.1-0.8,0-1.7-0.2-2.6c-0.2-0.7-0.5-1.5-0.8-2
	c-0.1-0.2-0.2-0.2-0.4-0.4c-0.2-0.3-0.3-0.9-0.5-1.1c-0.8-1.2-2.2-2.2-3.1-3.3c-0.2-0.2-0.8-1.1-0.8-1.3c0-0.4,0.2-0.2,0.3-0.5
	c0-0.1,0.5-0.8,0.5-0.9c0.5-0.6,1.2-1.3,2.1-1.4c0.5,0,0.5,0.1,0.9,0.3c0.5,0.2,0.2-0.3,0.5,0.1v0.6c0.1,0.5,0.4,0.9,0.8,0.9
	c0.8,0,0.6-1,0-1.2c0.5-0.7,1.8-0.9,2.6-1c0.3-0.1,1.7-0.6,1.5-1.1c0.2,0.4,1.4-0.2,1.7-0.3c0.5-0.1,1.1,0,1.7-0.3s0.5-0.9,1.2-1.3
	c0.2-0.2,1-0.6,0.7-1.1c0.6,0.3,1.1-0.6,1.4-1.1c0.1-0.2,0.2-0.1,0.3-0.5c0-0.1-0.2-0.8-0.2-0.9c0.6-0.8,0.9-1.9,1.1-3
	c0.4,0.6,0.7-1,0.4-1.3c0.3,0.1,0.2-1.3,0.2-1.3c-0.3-0.4-1.4-0.7-1.8-0.5c0.2-0.2,0.6-0.5,0.8-0.7c0.3-0.3,0.4,0.1,0.3-0.5
	c-0.1-0.3-1-0.8-1.3-0.9c0.7,0,1.3,0.5,0.5-0.5c-0.1-0.1-0.4-0.3-0.5-0.4c-0.8-0.5-1.4-1.3-2-2.2c-0.4-0.6-0.5-0.7-1.1-1
	c-0.4-0.2-0.8-0.3-0.9-0.7c-0.1-0.5,0.9-1.6,1.1-1.9c0.4-0.5,0.8-0.7,1.3-0.8c0.4-0.1,0.7,0,0.6-0.6c-0.1-0.4-0.1-0.5-0.7-0.5
	c-0.3,0-0.6,0.1-0.9,0c-0.2,0-0.4-0.3-0.6-0.4c-0.4-0.1-0.7-0.2-1.1,0.1c-0.1,0.1-0.5,0.6-0.4,0.8c-1,0.5-0.8-1.2-1.6-1.4
	c-0.5-0.2-1.1,0.3-1.5-0.5c-0.7-1.1,0.6-0.4,1.2-0.8c0.3-0.2,0.2-0.5,0.4-0.7c0.2-0.3,0.3-0.3,0.6-0.6c0.3-0.3,0.7-1.2,1.1-1.3
	c0.2,0,1,0.2,1.1,0.4c0.2,0.5-0.3,0.6-0.4,1c-0.3,0.9,0.3,0.4,0.5,1c0-0.1-0.5,0.2-0.5,0.4c0.2,0.6,0.6,0.1,0.9-0.1
	c0.6-0.4,1.5-1.6,2.5-1.4c0.2,0.1,0.4,0.4,0.6,0.4c0.1,0,0.4-0.1,0.6,0.1c0.6,0.4,0.1,1,0.2,1.6c0.1,0.5-0.2,0.1,0.1,0.5
	c0.1,0.1,0.4,0.2,0.6,0.3c0.1,0.1,0.2,0.3,0.3,0.3c0.2,0,0.3-0.3,0.5-0.3c0.4-0.1,0.8,0.1,1.1,0.4c0.5,0.5,0,0.6,0,0.7
	c0,0.6,0,0.4,0.4,0.8c0.4,0.5,0.6,1,0.6,1.5c0,0.4,0,1,0.2,1.4c0.3,0.4,1,0.7,1.2,0.1c0.4,0.4,1.1-0.3,0.8-0.6
	c0.1,0,0.6,0.2,0.6,0.1c0.2-0.1,0.2-0.3,0.4-0.4c0.3-0.2,0.4,0.3,0.7-0.3c0.2-0.3,0.1-0.9,0-1.2c-0.7-1.7-2.3-3.4-4-4.5
	c-0.3-0.2-0.9-0.4-0.6-0.9c0.1-0.2,0.6-0.3,0.8-0.5c0.2-0.2,0.4-0.4,0.5-0.6c0.7-0.8,0-0.9,0-1.8c0-0.7,1-0.7,0.7-1.2
	c0.5,0.1,0.5-0.3,0.6-0.8c0.1,0.2,0.4,0.1,0.5,0c0.6,1.3,2.8,0.3,3.3-0.6c0.4-0.6,0.5-1.5,0.7-2.2c0.2-0.6,0.6-1.1,0.7-1.7
	c0.1-0.5-0.1-1,0-1.5c0-0.7,0.5-1.4,0.5-2s-0.6-1.6-0.8-2c-0.1-0.2-0.1-0.4-0.2-0.5s-0.2,0-0.3-0.2c-0.2-0.4-0.7-1-0.8-1.4
	c0-0.2,0.2-0.7,0.1-0.9c-0.1-0.5-0.6-0.8-0.9-1.1c-0.5-0.6-0.5-0.8-1.2-1.2c-0.6-0.3-1.4-1-2.1-1.2c-0.3-0.1-1.5-0.1-1.7,0.1
	c-0.1,0.2,0.6,1-0.4,1c0.2-0.6,0.3-0.5-0.4-0.7c0.3-0.5-0.3-0.6-0.6-0.3c-0.4,0.4,0.2,0.4,0.2,0.6c-0.5,0.1-0.4-0.6-0.7-0.8
	c-0.4-0.3-2.1-0.1-2.2-0.6c0-0.2,0.8-0.8,0.9-1.1c0.2-0.3,0.4-0.6,0.5-0.9c0-0.2,0-0.4,0-0.4c0.2-0.8,0.9-1.3,1-2
	c0-0.1-0.2-0.3-0.2-0.5c0-0.1,0.5-0.5,0.5-0.6c0.3-0.3-0.1-0.4,0.5-0.7c0.2-0.1,0.4,0,0.5,0c0.8-0.1,1.6-0.2,2.4,0
	c0,0,1.3,0.4,0.8-0.1c0.4,0.1,0.8,0.1,1.2,0.1c0.2,0,0.6,0,0.8,0c0.4,0,0.4,0,0.7-0.2c0.1-0.1,0-0.4-0.2-0.5
	c0.5-0.2,1.2,0.3,1.7,0.3c0.5,0.1,0.6-0.2,1.2,0.2c-0.6,0.1-0.4,0.4,0.1,0.6c0.5,0.2,0.8-0.1,1.1-0.1c0.3,0,0.5,0.1,0.9,0.1
	c0,0,0-0.2-0.1-0.2c0.1,0,0.2-0.1,0.3-0.1c0.4-0.1,1.9,0.3,1.6-0.4c-0.3-0.9-1.9,0.2-1.6-1.3c0-0.3,0.3-0.6,0.3-0.9
	c0-0.1,0.1-0.8,0-0.8c0.3-0.3,1.2-0.4,1.7-0.4c0.3,0,0.8,0.1,1,0.2c0.3,0.1,0.3,0,0.2-0.1c0.1,0.1,0.1,0.2,0.3,0.3
	c0.2,0.2,0.3,1.2,1,0.8c0.3,0.5,0.2,0.6,0.7,0.4c0.6-0.2,0.1-0.9,0.7-1.2c0.4-0.2,1,0.4,1-0.2c0,0.1-1.2-1.2-1.2-1.2
	c0.3-0.1,0.6-0.2,1,0c-0.3,0.3,0.3,1,0.5,1.3l0.5,0.4c0,0.1,0,0.4,0.2,0.5c-0.1,0-0.7,0.4-0.7,0.5c-0.2,0.3,0.1,0.4,0,0.5
	c-0.1,0.4-0.4,0.7-0.4,1.1c-0.1,0.5,0.1,1-0.1,1.4s-0.9,0.4-0.8,0.8c-1.1,0-0.4,0.1-0.1,0.6c0.2,0.5-0.1,0.6,0,1.2
	c0.2,1.2,2,2.6,2.9,3.4c1.3,1.1,2.6,2.2,3.8,3.5c0.8,0.8,1.4,1.8,1.9,0.4c0.3-0.8,0-0.9-0.2-1.6c-0.1-0.4-0.5-0.3-0.1-0.7
	s1.2,0.4,0.9-0.4c-0.1-0.4-0.9-0.5-1-0.9c-0.5-1.3,1.1-0.3,1.3-1c0.3-0.9-2.2-1.2-1.6-2.2c0.4,0.5,1.1,0.4,0.9-0.3
	c-0.2-0.6-0.9-0.5-1.3-0.7c-0.9-0.5-0.6-1.5-1.6-1.6c-0.8-0.1-1.3,0.1-1.4-1.1c0-0.1,0.1-0.3,0-0.6c-0.1-0.4-0.6-0.5-0.5-0.9
	c0.1,0,0.8,0.2,0.9,0.1c0.8-0.1,0.3-0.2,0.8-0.8c0.4,0.1,0.4,0.9,0.9,0.9c0.6,0,0.2-0.6,0.4-0.8c0.1-0.1,0.6-0.2,0.6-0.2
	c0.9-0.4,1.7,0,2.6,0.4c0.6,0.3,1.4,0.3,0.6-0.5c0.8-0.2,0.7-1.2,1.2-1.6c0.4-0.3,0.9-0.5,1.3-0.8c0.8-0.5,1.3-0.6,2.2-0.4
	c0.4,0.1,0.8,0.4,1,0c0.1-0.2-0.2-0.6-0.3-0.7c-0.3-0.3-1.1-0.5-1.6-0.7c-0.5-0.3-1.1-0.6-1.6-0.8c-0.3-0.2-0.6-0.4-0.9-0.5
	c-0.2,0-0.3,0-0.4,0v-0.1c0.3,0,0.6-0.1,0.9-0.5c0.2-0.3,0.4-0.8-0.2-1.1c0.5,0.2,1,0.6,1.6,0.5c0.4,0,0.6-0.2,1-0.2
	c0.8,0,1.4,0.5,2.1,0.8c0.6,0.3,1.3,0.3,2,0.4c0.4,0.1,2.7,0.7,2.5,0c-0.1-0.3-0.9-0.5-1-0.5s-0.2-0.5-0.5-0.7
	c0.4-0.1,1.5,0,0.8-0.7c0.5-0.3-2.4-1.1-2.8-1.2c-0.9-0.3-2-0.4-2.9-0.4c-0.3,0-0.8,0.2-1,0.1c-0.2,0-0.5-0.4-0.6-0.4
	c-0.6-0.3-1.4-0.5-2.1-0.7c-1.1-0.3-2.3-0.5-3.4-0.8c-2.9-0.7-5.9-1.7-9-1.6c-1.3,0-2.9-0.5-4.2-0.3c-1.5,0.2,1.3,1.3,1.7,1.6
	c-0.4,0.4-2.3-0.3-2.9-0.6c-0.6-0.2-0.7-0.5-1.3-0.4c-0.2,0-0.4,0.2-0.6,0.3c-0.2,0-0.8-0.1-0.9-0.1c-1.3-0.1-2.5-0.1-3.8,0
	c-0.6,0-1.4,0.1-2-0.2c-0.4-0.2-0.5-0.5-0.9-0.8c-1.1-0.8-2.8-0.8-4.1-0.9c-1,0-1.8,0.2-2.8,0.3c-1,0.1-1.3-0.2-2.1-0.5
	c-0.9-0.3-1.7-0.2-2.5-0.5c-0.4-0.2-0.6-0.5-1.2-0.7c-0.5-0.1-2.1-0.5-2.4,0.1c-0.7-0.8-2.6-0.6-3.7-0.6c-0.8,0-1.7-0.2-2.4-0.2
	c-0.4,0-1.1,0.1-0.1,0.4c-0.7,0.2-1.3,0-0.6,0.8c0.1,0.1,0.2,0,0.3,0c-0.4,0.2,0.7,0.6,0.8,0.6c-0.2,0-2-0.5-1.4,0.3
	c-0.9-0.3-1.6-0.5-2.5-0.4c-0.5,0.1-0.5,0.2-1.1,0.2c-0.5,0-1.3-0.6-1.7-0.6c-0.9,0.1,0,1-0.1,1.5c-0.9-0.2-2-0.5-2.7-1
	c-0.5-0.4-0.5-1.2-1.5-1.2c0.3-0.3-0.6-0.5-0.6-0.5c0.4-0.6-3.1-0.8-3.4-0.8c-0.5-0.1-1.4-0.4-2-0.3c-1,0.2-0.3,0.4,0,1
	c-1.2,0.1-3.2,0.3-4.3-0.3c0.6,0-0.5-0.5-0.7-0.6c-0.7-0.1-1.5,0-2.2,0c-0.6,0-1.5,0.2-2,0.1c0.1,0-1.7-0.8-1-0.1
	c-0.9,0.3-2-1.1-2.8-0.2c-0.2,0.3,0.1,0.4-0.2,0.6c-0.3,0.3-1.3,0.2-1.7,0.2c0.1-0.3,1-0.5,1.4-0.8c0.3-0.3,0.6-0.5,0.9-0.7
	c0.6-0.4,2.1-0.5,1.3-1.6c-0.6-0.7-2-1-2.8-1.3c-0.7-0.2-1.4-0.2-2.1-0.2c-0.9,0-1.4,0.3-2.2,0.4c0.3-0.5-0.2-0.6-0.6-0.7
	c-0.3-0.1-0.8,0-0.9-0.1c-0.2-0.1-0.5-0.4-1-0.5s-1-0.2-1.5-0.2c-0.6,0-2.6,1-1.2,1.5c-0.1,0-2.2-0.1-1.5,0.4
	c-0.5,0-0.5,0.2-0.9,0.3c-0.5,0.1-0.6,0-1-0.1c-0.3-0.1-3.3-0.1-2.9,0.4c-0.9,0.1-2,0.1-2.8,0.4c-0.2,0.1-0.4,0.4-0.6,0.4
	c-0.1,0-0.8-0.2-0.9,0c-0.2,0.2,0.2,0.4,0.2,0.7c-0.8-0.3-0.9-0.1-0.4,0.4c0.2,0.2,0.1,0.3,0.4,0.4c0.2,0.1,0.6,0,0.8,0.2
	c-1.2,0-2.3,0.2-3.5,0.2c-0.5,0-1.8-0.2-1.9,0.5c-0.1,0.3,0.5,0.8,0.8,1c0.7,0.6,1.5,0.6,2.3,1.1c-0.8,0.1-1.5-0.4-2.2-0.6
	c-0.9-0.3-1.5-0.3-2.3,0c-0.1,0-0.2,0.1-0.4,0.1c0,0-0.9,0.2-1,0.3c-0.3,0.5,0.5,0.8,0.9,0.9c-0.6,0-1,0-1.3-0.6
	c-0.2-0.4,0-0.7-0.3-1.1c-0.2-0.2-0.9-0.8-1.2-0.4c-0.3,0.4,0.6,0.5,0.6,0.9c0,0.2-1,0.3-1.1,0.8c-0.1,0.7,0.5,0.6,1.1,1
	c0.7,0.5,0.3,0.3,0.3,1.1c0,0.3,0.4,1.1,0.7,1.2c0.7,0.4,1.4-0.1,2.2,0c-0.6,0.1-1.6,0.2-1.2,1.1c0.2,0.5,0.6,0.4,0.6,0.9
	c0-0.2-0.4,1-0.3,0.8c-0.2,0.2-0.5,0.2-0.8,0.4c-0.1,0.1-0.3,0.5-0.4,0.6c-0.1,0-0.9-0.2-1.1-0.2c-0.5-0.1-1.2,0-1.6-0.3
	c1.1,0.1,1.8,0.1,2.5-0.7c0.3-0.4,0.4-0.5,0.5-0.9c0.1-0.3-0.2-1-0.3-1.1c-0.3-0.3-0.8-0.2-1.1-0.6c0,0-0.1-0.6-0.2-0.7
	c-0.1-0.3-0.3-0.5-0.4-0.7c-0.1-0.2,0.1-0.2,0-0.4c-0.3-0.8-0.7-0.7-1.4-1.3c0.8-0.4,0-1.7-0.5-1.9s-2.6-0.4-3,0s0,1.2-0.3,1.7
	c-0.2,0.3-1.2,0.4-0.9,1c0.2,0.3,0.5,0.1,0.7,0.3c0.2,0.2,0,0.5,0.2,0.7c-0.4,0-0.2,0.6-0.1,0.7c0.2,0.2,0.7,0.1,0.9,0.2
	c0.4,0.2,0.5,0.3,0.9,0.6c0.4,0.3,0.5,0.3,0.5,0.3s-0.1,0.2,0,0.5c-2-1.1-5-2.3-7.4-2.1c-0.4,0-0.5,0-0.8,0.2
	c-0.4,0.4-0.2,0.2,0.1,0.6c0.1,0.1,0.6,0.4,0.6,0.5c-0.1,0.3-1.3,0-0.7,0.6c-0.1,0-0.5,0-0.5-0.2c0.6-1.2-1.5-0.3-1.9-0.2
	c-0.5,0.1-1.1-0.1-1.7,0.1c-0.5,0.2-0.3,0.4-0.8,0.4c-0.1,0-0.2,0-0.4,0.1c0.2-0.2-0.1-0.2-0.1-0.4c0-0.2,0.5-0.4,0.4-0.5
	c-0.2-0.3-1-0.1-1.3,0c-0.6,0.2-1.1,0.5-1.7,0.7c-0.6,0.2-1.3,0.4-1.9,0.7c-0.2,0.1-0.9,0.3-1,0.5c-0.1,0.1,0.2,0.7,0,0.9
	c-0.4,0.6-2.1-0.3-2.4-0.6c0.5-0.6,2.5-0.2,0.7-1.3c-0.3-0.2-2.9-0.8-3-0.3c0,0.1,0.9,0.5,1,0.6c0.1,0.2-0.1,0.6-0.1,0.8
	c0,0.6,0.1,0.3,0.3,0.8c0.4,0.6,0.2,0.2,0.2,1.1c-0.5-0.1-0.7-0.5-1.3-0.4c-0.6,0-0.6,0.2-1.1,0.5c-0.3,0.2-0.8,0.3-1.1,0.6
	c-0.7,0.8,0,0.7,0.5,1.5c-0.6-0.2-1.3-0.1-1.9-0.4c-0.6-0.2-1-0.6-1.6-0.3c-1.2,0.8,1.2,1.2,1.3,1.6c-0.6,0-0.9,0-1.4-0.3
	c-0.3-0.1-0.9-0.2-1.1-0.4c-0.4-0.3-0.4-0.9-0.9-1.3c1-0.9-0.9-1.5-1.3-1.8c0.4-0.1,0.6,0.2,0.9,0.3c0.9,0.3,1.9,0.3,2.8,0.5
	c1,0.2,2.2,0.3,3.1-0.4c0.7-0.5,0.9-1.2,0.2-1.8c-0.9-0.9-2.3-1-3.5-1.6c-1-0.5-1.9-0.7-3-0.8c-0.4,0-1.2-0.1-1.5-0.3
	C217,19,215.1,19,215,19c0,0.1-0.1,0.1-0.2,0.2c-0.1,0.1-0.3,0.1-0.5-0.1c-0.2,0.1-0.3,0.1-0.2,0.3c-0.1,0-0.4-0.2-0.4-0.1
	c0,0-0.4,0.3-0.2,0.2c0,0-0.5,0.2-0.6,0.2c0.4-1-2.6-1-3.1-0.6c-0.7,0.6-0.1,1.3-1.1,1.4c-0.2,0-0.4-0.2-0.5-0.2
	c-0.3,0-0.5,0.2-0.7,0.2c-0.8,0-0.9-0.7-1.5-0.8c-0.4-0.1-1.3,0.2-1.5,0.5c0.1-0.1,0,0.9-0.1,0.7c-0.5,0-1.2-0.5-1.7-0.1
	c-0.2,0.2,0.1,0.4-0.1,0.6c0,0-0.6,0-0.7,0c-0.2,0.1-0.6,0.5-0.6,0.6c-0.3,0.5-0.2,0.2,0,0.7c-0.5,0.4-0.8,0.9-1.2,1.2
	c-0.2,0.1-0.4-0.1-0.6,0.2c-0.1,0.1,0.1,0.3,0,0.4c-0.2,0.5-0.1,0.7-0.4,1.2c-0.3,0.4-0.2,0.5-0.3,0.7c-0.1,0.3,0.5,0.1,0.2,0.4
	c-0.1,0.1-1,0-1.2,0.2c-0.3,0.2-0.4,0.4-0.5,0.7c-0.1,0.5,0,0.9,0,1.4c0,0.4,0,1,0.2,1.3c0.1,0.3,0.5,0.1,0.5,0.5
	c0,0.1-0.4,0.4-0.5,0.7c0,0.3,0.3,0.4,0.2,0.8c-0.1,0.3-0.4,0.3-0.6,0.6c-0.2,0.4,0,0.7-0.1,1.1c-0.7-1-0.8,1.6,0.1,1.3
	c-0.2,0.8,0.4,1.8,1.1,2.3c-0.5,0.1-0.1,0.8,0,1c0.1,0.5,0.1,0.7,0.6,0.9c0.2,0,0.7,0,0.8,0c0.5-0.1,0.2-0.1,0.5-0.4
	c0,0,0-0.3,0.1-0.4c0,0,0.5-0.3,0.4-0.2c0.5-0.2,0.9,0.1,1.3-0.3c0.5-0.5,0.4-1.4,0.5-1.9c0.1-0.9,0-1.2,0.8-1.7
	c0.4-0.2,0.7-0.5,1-0.8c0.5-0.5,0.4-0.9-0.3-1.5c-0.5-0.4-1.2-0.3-1.3-1.1c0-0.3,0.5-1.6,0.3-1.7c0.2,0,0.6-0.5,0.8-0.6
	c0.3-0.3,0.4-0.5,0.8-0.8c0.4-0.2,0.9-0.3,1.3-0.6c0.1-0.1,0.9-0.7,0.9-0.9c0-0.2-0.4-0.3-0.4-0.6c0-0.5,1.1-0.8,1-1.2
	c0.5,0.2,1.2-0.1,1.7,0c0.1,0,0.8,0.3,0.9,0.4c0.1,0.2-0.2,0.3,0.1,0.5c-0.1,0.1-0.4,0-0.6,0.1c-0.2,0.1-0.4,0.4-0.5,0.6
	c-0.3,0.3-0.6,0.5-0.9,0.8c-0.2,0.1-0.4,0.3-0.5,0.4c0,0-0.4,0.5-0.2,0.4c-0.7,0.3-0.4-0.4-0.8,0.5c-0.4,0.8,0.1,1.4,0.2,2.4
	c0,0.4-0.2,0.5,0,0.9c0.2,0.4,0.2,0.2,0.5,0.4c0.1,0.1,0.9,0.3,1,0.4c0,0,0.3,0.5,0.1,0.4c0.1,0.1-0.1,0.2,0.3,0.2
	c0.2,0,0.6-0.1,0.8-0.2c0.3-0.1,0.5-0.1,0.8-0.2c0.8-0.2,1.3-0.4,2-0.5c0.3,0,0.5,0,0.8,0s0.5-0.1,0.7-0.1c0.3,0.1,0.4,0.4,0.7,0.5
	c-0.3,0.2-1.3,0.2-1.1,0.7c-1.3-0.1-2.5-0.3-3.7,0.1c-0.5,0.1-0.8,0.3-0.9,0.8c-0.1,0.4,0.5,1.4,1,1.2c-0.1,0.5,0.3,1.4-0.3,1.5
	c-0.7,0.2-0.9-1.2-1.8-1c-1,0.2-1.2,1.8-1.1,2.6c0.2,1.1,0.3,1.1,1.2,1.4c0.4,0.1,0.6-0.1,0.7,0.3c0.1,0.8-1.4,0.4-1.9,0.4
	c-0.3,0-2,0-2.1-0.1c0.5,0-0.3-0.5-0.5-0.6c-0.6-0.1-1.4,0.3-1.9,0.5c-0.3,0.1-2.5,0.9-2.4,1c-0.2-0.1-0.1-0.4-0.2-0.4
	c-0.2-0.1-0.3-0.1-0.5-0.1c-0.3-0.2-0.5-0.5-0.9-0.4c-0.5,0.1-1,0.7-1.5,0.7c0.6-0.7-0.6-0.6-1-0.8c-0.1,0-0.1-0.3-0.3-0.4
	c-0.2-0.1-0.7-0.2-1-0.2c-0.5-0.1-1.1-0.2-0.7,0.5c-0.2-0.3,0.5,0.2,0.5,0.2c-0.8,0.2,0,0.4,0,0.6c-0.2,0.8-0.8,0.3-1.4,0.4
	c-0.1,0-0.2,0.1-0.4,0.1c-0.1,0-0.4,0.1-0.5,0.2c-0.5,0.1-0.9,0.2-1.3,0.4c-0.8,0.4-1,1.2-1.5,1.9c-0.1,0.2,0.2,0.3,0,0.4
	c0,0-0.5,0-0.6,0.1c-0.7,0.4-1.8,0.6-2.2,1.4c-0.2,0.4,0.1,0.5-0.3,0.8c-0.3,0.2-0.8,0.2-1.1,0.4c-0.5,0.4,0,0.4-0.7,0.5
	c-0.2,0-0.4-0.1-0.7-0.1c-0.1-0.1-0.6-0.9-1-0.5c-0.1,0.1,0.2,1.4,0.3,1.6c-0.2,0-0.3,0-0.5,0c-0.3,0.1-0.6-0.1-0.8-0.1
	s-0.2-0.2-0.5-0.2c-0.1,0-0.7,0.2-0.9,0.2c-0.5,0.2-1.2,0.3-0.6,0.9c-0.7,0.3,0.6,0.6,0.7,0.6c0.5,0.2,0.6,0.4,1,0.6
	c0.2,0.1,0.5,0,0.8,0.3c0.1,0.2,0,0.3,0.1,0.5c0.2,0.3,0.8,0.8,0.9,0.9c0.1,0.2,0,0.5,0,0.5c0.1,0.7,0.1,3.3-0.9,3.5
	c-0.6,0.1-1.1-0.2-1.6-0.2c-1,0-1.9-0.1-2.8-0.1c-0.3,0-0.8,0.1-1,0c-0.2,0-0.5-0.3-0.7-0.3c-0.5,0-0.7,0.4-1,0.6
	c-0.6,0.4-1,0.1-0.9,0.9c0,0.4,0.2,0.7,0.3,1c0.1,1,0.2,2.3-0.3,3.3c-0.2,0.4-0.7,0.8-0.6,1.3c0,0.4,0.2,1,0.7,0.8
	c0.1,0.5-0.4,1.3-0.2,1.7c0.2,0.8,1.4,0.1,2,0.1c1.1,0.1,0.9,1.2,1.8,1.7c-0.9,0.2-1,2.2-1.7,2.8c-0.6,0.5-1.4,0.6-2.1,1.2
	c-0.5,0.5-0.7,1.1-1,1.8c-0.3,0.6-0.4,1.1-0.4,1.8c0,0.4,0.4,0.3,0,1c-0.3,0.7-1,1.2-1.5,1.7c-0.7,0.6-1.4,0.5-2.2,1
	c-0.3,0.2-0.5,0.6-0.6,0.9c-0.3,0.6-0.5,0.8-1,1.2c-0.5,0.5-0.7,0.9-0.9,1.6c-0.3,0.9-0.8,1.2-1.3,2c-0.3,0.5-0.3,1.3-0.7,1.9
	s-0.9,1.1-0.9,1.9c0,0.2,0.2,1.3,0.4,0.5c0.1,0.4,0.4,0.4,0.5,0.7c0.2,0.6-0.2,0.7-0.2,1.2s0.3,1,0.4,1.7c0.1,0.9-0.3,1.6-0.5,2.5
	c-0.1,0.5-0.1,1-0.4,1.5c-0.2,0.3-0.9,0.8-0.9,1.1c0-0.1,0.7,0.6,0.7,0.7s0.3,0.6,0.3,0.7c0,0.2-0.2,0.1-0.2,0.3
	c0,0.5-0.2,1.2,0.1,1.7c0.2,0.4,0.8,0.6,1.1,0.8c0.1,0,0.2-0.1,0.3-0.1c0.1,0.1,0.1,0.3,0.1,0.4c0,0,0,0.3,0.1,0.3
	c0.2,0.3,0.4,0.5,0.7,0.4c-0.1,0.8,1,1.3,1.4,1.9c0.5,0.7,0.3,1.4,0.8,2.1c0.5,0.8,1,1.1,1.8,1.7c1.4,1,2.5,2.9,4.2,3.4
	c0.8,0.2,1.1-0.1,1.9-0.4c1-0.4,1.9-0.6,3-0.7c0.6,0,1,0.1,1.5,0.3c0.8,0.3,1,0.2,1.8-0.2c0.8-0.4,1.6-0.6,2.4-0.9
	c0.6-0.3,1.1-0.6,1.9-0.8c1.4-0.2,2.7-0.4,3.4,1c0.4,0.8,0.8,2.1,2,1.8c0.2-0.1,0.4-0.3,0.7-0.4s0.7,0,0.9,0.1c0.1,0,0.9-0.1,0.9,0
	c0.2,0.8,1,0.9,1.1,1.6c0.1,0.4,0,0.9-0.1,1.2c-0.1,0.4-0.1,0.6-0.2,1.1c-0.1,0.1-0.2,0.3-0.3,0.4c-0.1,0.3,0,0.4,0.2,0.5
	c-0.1,0.4-0.2,0.3-0.3,0.7c0,0.2,0.1,0.8,0,1.1c-0.1,0.1-0.6,0.5-0.5,0.3c-0.2,0.4-0.1,0.7,0.1,1.2c0.7,1.9,2.6,3.2,3.5,5
	c0.3,0.7,0.3,1.4,0.6,2c0.4,1.2,1.2,2.2,1.1,3.4c0,0-0.3,0.5-0.3,0.3c0,0.3,0.1,0.4,0.2,0.6c0,0.3,0.1,0.7,0.3,1
	c0.5,1.3,0.8,2.3,0,3.5c-0.6,0.8-1,1.5-1.3,2.6c-0.2,0.9-0.5,1.8-0.6,2.6c-0.3,1.3-0.2,2.8,0.5,4c0.9,1.4,1.3,3.2,2.1,4.7
	c0.6,1.1,0.4,1.8,0.5,3c0.1,1.1,0.4,2.3,0.5,3.5c0.2,1,0.5,2.2,1.1,3.1c0.5,0.6,0.8,0.9,1.1,1.6c0.4,1,0.6,2,1,2.9
	c0.3,0.7,0.8,1.5,0.5,2.2c0,0-0.3-0.2-0.4,0.1c-0.1,0.4,0,0.4,0,0.6c0.1,0.4,0.4,0.9,0.5,1.3c0.1,0.4,0.2,1.3,0.4,0.4
	c0,0.1,0.7,0.7,0.8,0.8c0.9,0.5,0.7,0.1,1.5-0.2c0.4-0.2,0.8,0,1.2,0c0.6-0.1,0.8-0.5,1.4-0.6c0.8-0.1,1.6,0.2,2.4,0.2
	c0.2,0,0.3-0.2,0.5-0.3c0.1,0,0.4,0.2,0.4,0.1c0.4-0.2,0.1-0.3,0.4-0.5c0.3-0.1,0.7,0,1.1-0.1c0.2-0.1,0.5-0.3,0.7-0.4
	c0.6-0.5,1.3-1,1.8-1.6c1.6-1.7,2.7-3.8,4.2-5.5c0.7-0.8,0.8-1.9,1.1-3c0.1-0.4,0.2-0.7,0.2-1.2c-0.1-0.6-0.7,0.3-0.2-0.6
	c0.5-0.9,2-0.9,2.7-1.5c0.5-0.5,0.5-0.8,0.6-1.5c0-0.3,0.1-1.1,0.1-1.6c0-0.8,0-0.7-0.3-1.3c-0.1-0.4-0.1-0.8-0.2-1.2
	c-0.1-0.4-0.5-0.8-0.4-1.2c0.1-0.6,1.1-1.4,1.5-1.8c0.1-0.1,0.4-0.2,0.5-0.3c0.4-0.3,0.6-1,1-1.3c0.7-0.7,1.6-0.9,2.3-1.4
	c0.9-0.6,1.6-1.6,1.9-2.6c0.2-0.7,0.1-1.1,0-1.7c0-0.2-0.1-2.5-0.1-2.5c0.1-0.5,0-1.1,0-1.5c0-0.6,0.1-1-0.2-1.4
	c-0.4-0.5-0.7-0.5-0.9-1.2c-0.2-0.6-0.2-1.2-0.2-1.8s0.2-1.5,0-1.9c-0.4-0.9-0.8-0.7-0.5-1.8c0.4-1.2,1.1-3.2,1.8-4.1
	c0.4-0.5,0.8-0.7,1.2-1.1c0.5-0.5,0.9-1.5,1.3-2.1c1.7-2.3,4.1-3.7,5.8-5.9c1.3-1.8,2-3.8,2.9-5.8c0.2-0.4,0.5-0.9,0.6-1.3
	c0.2-0.5,0.2-1.2,0.5-1.6c0.1-0.2,0.5-0.3,0.5-0.4s-0.2-0.6-0.3-0.8c-0.1-0.5,0.4-1.3-0.3-1.5c-0.5-0.2-1,0.4-1.4,0.6
	c-1,0.5-2.2,0.2-3.2,0.5c-0.6,0.2-0.7,0.4-1.3,0.5c-0.5,0.1-0.7,0.2-1.2,0.4c-1.7,0.5-1.4-1.5-2.6-1.5c1.6-0.8-1-2.7-1.6-3.4
	c-0.5-0.6-0.9-0.9-1.5-1.4c-0.1,0-0.2,0.1-0.3,0s-0.2-0.5-0.3-0.6c-0.2-0.3-0.3,0.1-0.5-0.1c-0.1-0.1-0.1-0.3-0.2-0.4
	c-0.5-1-0.4-2.3-1.1-3.2c-0.7-0.9-1.4-0.8-1.6-2.1c-0.1-1.2,0-2.2-0.6-3.3c-0.6-1-1.7-1.1-1.7-2.4c0.9,0.2-0.3-0.9-0.4-1.2
	c-0.5-0.8-1-1.8-1.4-2.6c-0.3-0.6-0.4-1.4-0.7-2l0,0c0.5,0.5,0.7,0.5,1-0.1c0.1,0.2,0.4-0.1,0.7,0c0.4,0.2,0.7,1.1,0.9,1.4
	c0.5,0.8,1.3,1.6,1.6,2.5c0.2,0.5,0,0.9,0.4,1.4c0.6,0.7,1.1,0.7,1.6,1.7c0.4,0.9,0.2,1.8,0.5,2.6c0.4,1.1,1.4,1.3,2,2.1
	c0.2,0.3,0.4,0.8,0.5,1.2c0.4,0.9,1,1.7,1.5,2.4c0.2,0.4,0.5,0.5,0.6,1c0.1,0.4,0,0.9,0,1.3c0,0.2,0,0.3,0,0.5
	c0.2,0.7,0.4,1.7,0.6,2.4c0.2,0.8,0.3,1.2,1.2,1.2c0.7,0,1-0.2,1.5-0.6c0.8-0.6,1.7-0.5,2.7-1c0.7-0.4,1.2-0.5,1.8-0.9
	c0.9-0.7,2-0.8,3-1.4c0.1,0,0.3-0.1,0.3-0.2c0.4-0.3,0.2-0.4,0.4-0.7c0.3-0.4,0-0.4,0.6-0.7c0.4-0.2,0.8-0.4,1.2-0.5s0.9,0,1.3-0.1
	c0.6-0.2,0.3-0.5,0.6-0.9c0.3-0.5,0.5-0.2,1-0.5s0.3-0.8,0.7-1.1c0.6-0.6,1.1,0,1.2-1c0.1-0.5-0.3-1.2,0.1-1.6
	c0.4,0.8,0.8-0.4,0.9-0.7c0.4-0.7,1.4-1.4,1-2.3c-0.1-0.1-0.5-0.2-0.6-0.4c-0.3-0.3-0.4-0.7-0.7-1c-0.6-0.5-1.5-0.4-2.2-0.8
	c-0.8-0.6-0.7-1.2-0.9-1.9c0-0.2-0.5-1-0.6-1c-0.2,0-1.2,1.5-1.3,1.6c-0.2,0.3-1,1.2-1,1.2c-0.4,0.1-1-0.1-1.4-0.1
	c-0.3,0-0.6,0.3-0.8,0.3c-0.4-0.1-0.2-0.5-0.7-0.4c0.2-0.6-0.2-0.2-0.5-0.5c-0.3-0.2-0.3-0.4-0.5-0.7c-0.4-0.6-0.5-0.8-0.5-1.4
	c-0.1-0.4-0.1-0.6-0.3-0.9c-0.4-0.5-0.9-0.7-1.2-1.2c-0.3-0.4-1.1-2.4-1.6-2.6c0.2-0.2,0.5,0.1,0.2-0.6c0.3,0.1,1,0,1-0.5
	c0.5,0.2,0.6,0.5,1.1,0.1c0.3,0.8,0.9,1.4,1.3,2c0.4,0.5,0.3,1,1,1.4c0.3,0.1,0.7,0.1,1,0.3c0.2,0.1,0.6,0.5,1,0.8
	c0.5,0.3,0.6,0.3,1.2,0.5c0.8,0.3,0.7,0.3,1.4-0.1c0.3-0.1,0.7-0.5,1.1-0.5c0.9-0.2,0.8,0.5,1,1.1s0.5,0.9,1.1,1.1
	c0.9,0.2,1.8,0.3,2.7,0.4c0.7,0.1,1.4,0.3,2.1,0.3c0.3,0,2.2-0.3,2.2-0.4c0.4-0.1,0.7,0.2,1.1,0.2c0.3,0,0.3-0.1,0.5-0.1
	c0.7-0.1,1.5-0.4,2,0.1c0.1,0.1,0,0.4,0.1,0.5c0.1,0.2,0.5,0.1,0.5,0.2c0.2,0.3,0.2,0.7,0.4,1c0.2,0.3,0.5,0.6,0.9,0.4
	c-0.1,0.1,0.6,0.8,0.8,0.9c0.7,0.6,1.1,0.3,1.9,0.3c-0.1,0.4-0.8,0.5-1.1,0.6c-0.1,0-0.4-0.4-0.5,0c-0.2,0.5,0.8,1.1,1.1,1.4
	c0.9,0.9,1.4,1.6,2.6,0.8c0.4-0.3,0.6-0.4,0.8-0.9c0.1-0.4-0.3-0.4-0.1-0.7c0.1,0.2,0.2,0.5,0.3,0.6c0,0.2-0.1,0.3,0,0.5
	c0.1,0.3,0.2,0.2,0.3,0.5c0.1,0.6-0.1,1.2,0,1.8c0.1,0.3,0.2,0.7,0.3,1c0.3,1.2,0.5,2.7,1,3.9c0.4,0.9,1,1.7,1.4,2.6
	c0.2,0.5,0.3,1,0.5,1.5c0.3,1.1,0.9,1.9,1.4,2.9c0.6,1.1,0.7,2.5,1.4,3.5c0.3,0.5,0.8,1.1,1.5,0.9s0.5-0.8,0.8-1.2
	c0.4-0.4,1-0.1,1.2-0.3c0.6-0.4,0-0.1-0.2-0.5c-0.1-0.2-0.1,0.1-0.1-0.3c0-0.1,0.3-0.7,0.3-0.7c0.6-0.4,0.6,0.5,0.7-0.7
	c0-0.5-0.2-1-0.2-1.5s0.3-0.9,0.5-1.4c0.2-0.8-1.1-4.3,0.1-4.3c-0.1,0.7,0.7-0.3,0.7-0.3c0.1-0.1,0.1-0.3,0.1-0.4
	c0.2-0.1,0.6,0,0.8-0.1c0.6-0.3,0.3-0.5,0.4-0.9c0.1-0.1,0.3-0.3,0.4-0.5c0.5-0.6,1.3-1.1,1.8-1.7c0.4-0.5,0.6-1.2,1.1-1.6
	c0.6-0.4,1.1-0.4,1.5-0.9c0.1-0.2,0.4-0.6,0.4-0.8c0-0.4-0.3-0.5,0-0.9c0.2-0.3,0.8-0.3,1.1-0.6c0.1,0.8,1.3,0.3,1.8,0.2
	c0.1,0,0.2-0.1,0.3-0.2c0.1,0,0.5,0.1,0.6,0.1c0.3-0.2,0.5-0.8,0.5-1.1c0-0.2-0.3-0.3-0.3-0.6c0.3,0.6,0.6,0.6,1,0.3
	c0.5,1.1,0.9,2.3,1.7,3.1c0.2,0.2,1.5,1.4,1.2,0.8c0.3,0.2,0.4,0.5,0.7,0.7c-1.4-0.3,0.2,0.7,0.4,1c0.7,0.7,0.7,1.8,0.6,2.7
	c-0.2,0.9-0.1,1.3,0.7,1.6c0.7,0.2,1.3,0,1.7-0.7C301.9,96.2,302.5,95.6,302.4,95z M153.6,125.1c-0.8-0.2-1.2,0-2-0.6
	c-0.7-0.5-1.1-1.2-1.8-1.7c-1-0.8-1.4-0.9-2.7-0.9c-0.5,0-0.8,0-1.3-0.1c-0.2-0.1-0.8-0.3-1.1-0.4c-0.5-0.1-1.3,0.3-1.7,0
	c-0.3-0.3-0.3-0.7-0.5-1c-0.3-0.4-0.2-0.2-0.6-0.4c-0.5-0.3-1-0.4-1.4-0.6c-0.2-0.1-0.9-0.6-1.4-0.6c-0.1,0-0.7,0.2-0.8,0.3
	c-0.1,0.1-0.2,0.2-0.3,0.3c0-0.1-0.1-0.1-0.2-0.2c0.1-0.3,0.1-0.5,0-0.7c-0.3-0.4-1.6-0.2-2-0.2c-0.3,0-0.6-0.2-0.9,0
	c0-0.1,0-0.2-0.1-0.2c0.5-0.6,0.9-1.1,1-1.7c0.2-1-0.2-0.5-0.7-1c-0.3-0.3-0.3-0.8-0.4-1.2c-0.3-1.2-0.2-1.8-1-2.5
	c-1.2-1-2.3-2.1-4-2.3c-0.9-0.1-1.5,0.3-2.4,0.1c-0.4-0.1-0.6-0.1-0.9-0.5c-0.3-0.3-0.6-0.8-1.1-0.8c0.5-1.2-2.3-3.1-3.4-2.3
	c0,0,0.3-0.7,0.3-0.8c0.1-0.5,0.4-0.3-0.1-0.8c-0.3-0.3-0.7-0.3-0.9-0.3c-0.5-0.2-0.7-0.4-1.1-0.7c0.2,0,1.5-0.1,1.2-0.6
	c-0.2-0.2-2.3,0-2.6,0c-0.1,0-0.6,0.1-0.6,0.1c-0.3,0.2,0,0.3-0.2,0.4c-0.8,0.6-1.2,0.3-1.9-0.1c-0.5-0.2-0.6-0.3-1.2-0.3
	c-0.3,0-1.3,0.4-1.6,0.2c-0.3-0.3,0-0.7-0.4-1.1s-0.9-0.1-1.2-0.4c-0.5-0.3,0-0.1-0.3-0.5c-0.2-0.2-0.2-0.7-0.7-0.4
	c-0.4,0.2-0.1,0.9-0.3,1.2c-0.1,0.1-1.5,0.7-1.6,0.8c0-0.2-0.3-0.7-0.2-0.9c0.2-0.2,1.1-0.2,1.1-0.8c0-1.8-2.5,0.6-2.9,0.8
	c-0.3,0.1-0.7,0-1,0.1c-0.1,0-0.6,0.4-0.7,0.4c-0.6,0.2-0.5-0.2-1.1,0.2c-0.3,0.2-0.5,0.7-0.6,0.9c-0.2,0.3-0.1,0.9-0.2,1.2
	c-0.5,0.3-1.8,1-1.7,1.7c-0.8-0.9-1.9-2.2-3.2-2c-0.6,0.1-1.2,0.7-1.8,1c-0.6,0.2-0.5,0.1-1,0c0.1,0-0.8-0.6-0.6,0
	c-0.1,0-0.6-0.8-0.7-0.9c-0.5-0.6-0.9-1.1-1.1-1.8c-0.1-0.5-0.1-0.5,0.1-1.1c0.1-0.2,0-0.5,0.1-0.8c0.2-1,0.5-2.3,0.9-3.3
	c-0.1,0.2,0.1-0.9,0.1-0.5c0-0.1,0.2-0.1,0.1-0.2c-0.1-0.3-0.6-0.5-0.8-0.7c-0.8-0.7-1.7-1.1-2.8-0.9c-0.7,0.1-1.3,0.3-2.2,0.3
	c-0.6,0-1.2,0.1-1.7-0.1c0.4-0.6,0.8-0.7,1-1.4c0.1-0.5,0.4-1.4,0.4-1.9c0.4,0.6,1.2-2.1,1.3-2.4c0.2-0.6,1.2-1.3,1.1-2
	c-0.1-0.8-0.8-0.6-1.5-0.5c-1.4,0-3.4,0-3.9,1.6c-0.2,0.6-0.3,1.2-0.7,1.7c-0.2,0.2-1.5,0.8-0.8,1c-0.2,0.1-0.2,0.2-0.4,0.2
	c0.1,0-0.2-0.3-0.3-0.4c-0.5-0.1-0.6,0.2-1.1,0.3c-0.4,0.1-1.4,0.4-1.9,0.4c-0.6,0-0.9-0.5-1.5-0.8s-0.6-0.1-0.9-0.7
	c-0.3-0.7-0.8-1.5-1-2.2c-0.1-0.3,0-0.6,0-0.9c-0.1-0.3-0.3-0.7-0.4-1.1c-0.2-1.3,0.8-3.4,1.4-4.5c0.5-0.9,0.4-0.9,0.3-1.5
	c-0.1-0.5,0.1-1,0.3-1.4c0.4-0.9,1-1.3,1.9-1.6c1.2-0.5,2.3-1.5,3.6-1.7c0.8-0.1,1.3,0.3,2,0.2c0.2,0,0.4-0.3,0.4-0.3
	c0.4,0.1,0.5,0.5,0.7,0.7c0.4,0.3,1.7,0.4,1.7-0.2c0.4,0.3,0.4,0.7,0.7,0.7c1-0.1,0.1-0.6-0.1-0.9c0.2,0,0.7-0.6,0.3-0.8
	c1.1-0.4,1.9-0.1,2.9-0.2c0.5-0.1,1.4,0,1.7,0.3c0.5,0.5-0.1,0.7,0.8,0.7c0.4,0,1-0.6,1.3-0.5s1.1,1.4,1.2,1.7c0,0.5-0.4,1-0.5,1.5
	c0,0.3,0.1,0.5,0.1,0.7c0.1,0.3,0.4,0.6,0.5,0.8c0.1,0.2,0,0.7,0.2,1c0.1,0.2,0.4,0.3,0.5,0.5c0,0.1,0.1,0.6,0.2,0.6
	c0.2,0.3,0.6,0.6,1.1,0.3c1.4-0.8,0.8-3,0.8-4.2c0-1.5-0.8-3.1-0.1-4.4c0.4-0.9,1.2-1.5,2-2c0.5-0.3,1-0.6,1.4-0.9
	c0.3-0.2,0.4-0.6,0.7-0.7c0.4-0.2,0.9-0.2,1.2-0.4c0.6-0.3,0.8-0.8,1.5-1.1c0.3-0.1,1.5-0.5,0.6-0.7c0.1-0.3,1.1-0.5,1.3-0.9
	c0.2-0.3,0.3-1,0.1-1.5c-0.1-0.4-0.6-0.5-0.2-0.8c-0.2,1,1.3-0.8,1.5-1.1c0.5-0.7,0.4-0.7,0.3-1.6c0.1,0,0.1,0.1,0.2,0.1
	c-0.5,0.9,0.7-0.1,1-0.4c0.2-0.3,1.6-1.4,0.8-1.7c0.5-0.4,1.1-0.7,1.7-0.8s1.6,0.1,1.9-0.5c0,0.1,1.4,0,1.5-0.1
	c1.1-0.6-0.5-1.2,0-0.5c-0.3,0.3-0.4-0.6-0.6-0.7c0.6-0.5,0.8-1.5,1.5-1.9c0,0,0.5-0.2,0.6-0.2c0.5-0.2,0.7-0.4,1.1-0.8
	c0.2,0.5,0.5,0.1,0.7,0c0,0.4,0.8-0.1,1-0.2c0.5-0.2,0.6-0.2,0.8-0.7c0.2,0.2,0.7-0.1,1-0.1c0.3-0.1,0.6-0.1,0.8-0.1
	c0.6-0.1,0.2-0.4,0.7,0c-0.5,0.2-1.7,0.6-2,1.1c-0.3,0.4-0.3,1.4,0.3,1.5c0.8,0.2,1.5-1.1,2.2-1.3c0.6-0.2,1.2-0.2,1.9-0.4
	c0.4-0.1,1.2-0.3,1.6-0.6c0.5-0.3,0.5-0.1,0.3-0.6s-0.6-0.6-1-0.6c-0.3,0-0.6,0.1-1,0c-0.3,0-0.5-0.1-0.7-0.2
	c0.6-0.4-0.6-0.5-0.7-0.5c-0.2-0.2,0.2-1.2-0.2-1.2c0.3-0.2,1.2-1.2,0.2-1.1c0.9-0.4,2.6-1.6,0.6-2c-1.5-0.4-3.9,0.7-5.2,1.5
	c0.5-0.4,0.8-0.7,1.4-1c0.4-0.2,0.8-0.2,1.2-0.4c0.6-0.3,0.8-0.9,1.5-1.1c0.3-0.1,0.8-0.2,1.2-0.2c1.2-0.1,2.7,0.1,3.8,0.2
	c1.3,0.2,2.3-0.1,3.3-0.8c0.7-0.5,1.1-0.8,2.1-1c0.9-0.1,2.1-0.4,2.5-1.3c0.2-0.4,0.3-1.4,0.2-1.8c-0.1-0.4-0.4-0.3-0.6-0.5
	c-0.1-0.1-0.2,0-0.3-0.1c-0.2-0.2,0-0.5-0.4-0.6c1.5-0.3-0.8-1-1-1.1c-0.1,0-0.3-0.3-0.5-0.4c-0.2-0.1-0.5,0-0.7-0.1
	c0.4-0.5-0.4-0.8-0.6-1c-0.1-0.1-0.3-0.4-0.3-0.5c-0.1-0.3,0.1-0.4,0.3-0.7s0.3,0,0.3-0.5c0-0.1-0.2-0.1-0.3-0.3
	c-0.1-0.3,0.1-0.5,0.1-0.8c-0.1-0.5-0.3-0.7-0.4-1.2c-0.1-0.6-0.4-0.8-0.6-1.4c-0.1-0.4,0-1.3-0.8-1c-0.6,0.2-1.2,1.1-1.6,1.5
	c-0.6,0.7-1.4,0.8-2.3,1.3c0-0.2-0.5-0.6-0.5-0.7c-0.3-0.2-0.4-0.3-0.8-0.3c0.1-0.1,0.7-0.6,0-0.6c0.3-0.1,0.5-1.2,0.7-1.5
	c0.1-0.2,0.5-0.3,0.5-0.4c0-0.7-0.3-0.4-0.6-0.2c0-0.3-1.1-0.3-1.3-0.5c-0.1-0.1,0.2-0.3,0.2-0.3c-0.1-0.1-0.3-0.3-0.4-0.5
	c-0.5-0.6-1-1-2-0.8c-1.2,0.2-3.5-1.1-4.2,0.5c-0.2,0.4,0.2,0.5-0.1,1c-0.2,0.3-0.6,0.4-0.8,0.7c0.1-0.1,0.1,0.5,0.1,0.5
	c0,0.2,0.1,0.7,0,0.8c0,0-0.3,0.1-0.4,0.1c0,0-0.3,0.3-0.4,0.4c-0.4,0.3-1.5,0.8-1.3,1.4c0.2,0.6,0.9,0.6,1,1.3
	c0.2,2.2-2.7,3.2-4.3,3.7c-1.3,0.4-0.7,0.6-0.8,1.6c0,0.3-0.4,0.7-0.4,1.1c-0.1,0.3,0,0.5,0,0.8c-0.1,0.4-0.2,0.4-0.5,0.8
	c-0.1,0.1-0.3,0.6-0.3,0.7c-0.3-0.6-0.9-0.2-1.2,0.3c-0.3-0.3-0.8-1-1-1.5c0,0-0.2-0.7-0.2-0.8c0-0.4,0.4-0.7,0.6-1.2
	c0.1-0.5,0.1-0.7,0.4-1.2c0.2-0.3,0.6-0.6,0.4-1c-0.2-0.2-1.1-0.3-1.4-0.3c-0.5,0-1.1,0.1-1.5-0.1c-0.3-0.1-0.5-0.5-0.8-0.6
	c-0.3-0.2-0.8-0.2-1.1-0.4c-0.6-0.4-0.7-1-1.5-1.3c-0.5-0.2-1.2-0.5-1.7-0.5s-0.9,0.2-1.3,0.2c0.2-0.3,0.7-2,0.5-2.3s-1.2,0-1.3-0.2
	c-0.1-0.2,0.5-0.9,0.6-1.1c0.5-0.7,1-1.1,1.7-1.7c0.8-0.6,1.4-1.2,2.3-1.6c0.2-0.1,1.8-0.7,1.5-0.9c0.5,0,0.8,0.1,1.2-0.1
	c0.5-0.2,0.4-0.4,0.7-0.7c0.2-0.2,1.4-0.4,1.5-0.8c0,0.2,1.1,0.1,1.3,0c0.6-0.2,1.3-0.7,1.9-1c0.7-0.4,0.6-0.8,1.3-1.2
	c0.4-0.2,2.1-0.8,1-1.2c0.3,0,0.6,0,0.9-0.1c-0.2,1.1,3.1,0,3.4-0.2c0.7-0.3,1.7-0.5,1.7-1.3c0-0.2-0.2-0.5-0.2-0.6
	c0-0.2,0-0.2-0.1-0.5c0.7-0.2,1,0,1.4-0.7c0.4-0.6,0.2-0.5-0.4-0.9c0.3,0,0.1-0.3,0-0.3c-0.2-0.1-0.7-0.1-1-0.2
	c0.5,0,3.1,0.5,2.5-0.1c0.5,0.2,2.7,0.8,2.4-0.4c0.1,0.2,0.4,0.3,0.6,0.2c-0.3,1,0.6,0.6,1.2,1.3c-0.5,0.3-0.9-0.2-1.2,0.4
	c-0.4,0.9,0.8,0.1,1.2,0.1c0.5,0,1.1,0.7,1.6,0.9c-0.1,0.3,0.1,0.4,0,0.7c-0.1,0.5-0.4,0.7-0.9,1c-0.4,0.2-1.2,0.3-1.6,0.6
	c-0.7,0.6-0.1,0.4,0,1.1c-0.9,0-1.7,0.4-2.6,0.2c-0.9-0.1-1.8-0.1-2.5,0.6c-0.9,1,0.9,1.2,1.5,1.1c0.2,0,0.7-0.3,0.8-0.3
	c0.2,0,0.4,0.2,0.6,0.2s0.5-0.3,0.7-0.3c-0.3,0.6,0.5,0.1,0.6,0.1c0,0.2,0.6,1.5,0.7,1.6c0.4,0.6,1,0.7,1.6,1
	c0.5,0.3,1.1,0.6,1.8,0.8c0.9,0.2,2.5,0.9,1.9-0.5c-0.3-0.6-1.4-1-1.6-1.7c0.7,0.1,1.1,0.7,1.7,1c0.1,0.1,0.4,0,0.5,0.1
	s1.1,1.1,1,0.1c0.6,0.3,0.3-0.5,0.4-0.7c0.3,0.4,0.6-0.3,0.7-0.5c0.2-0.6,0.1-0.4-0.4-0.9c0.6-0.3,0-0.8-0.3-1.1
	c0,0-0.4-0.2-0.5-0.3c-0.2-0.2,0-0.6-0.4-0.8c0.2,0,0.9-0.2,0.5-0.5c0.5,0.1,0.2-0.3,0.6-0.2c0.1,0,0.4,0.7,0.7,0.6
	c-0.3,0.5,0.6,1.2,0.9,1.3c0.4,0.2,0.6,0.3,1-0.1c0,0,0.4-0.7,0.4-0.8c0.4,0.4,1.7-0.6,1.4-0.9c0.2-0.2,1.3,0,1.2-0.7
	s-1-0.4-1.4-0.5C140,21,139,21,139,21c0.1,0.1-0.3-0.1-0.3-0.2c0,0-0.2-0.4-0.4-0.6c-0.3-0.2-0.7-0.3-0.9-0.3c-0.1,0-0.6,0-0.8-0.2
	c0.6-0.1-0.5-0.5-0.8-0.5c-0.1,0,0.4-0.3,0.3-0.3c0.3-0.3,0.1,0,0.6-0.2c0.3-0.1,0.9,0.2,0.6-0.4c-0.1-0.2-0.4-0.3-0.6-0.3
	c0.3,0,0.7,0,0.7-0.3S137,17,136.8,17c0.4-0.4-0.9-0.6-0.9-0.6c-0.4-0.1-0.5-0.2-0.8-0.4c-0.1,0-0.2,0-0.3,0c0.1-0.1,0.1-0.2,0-0.3
	c-0.2-0.2-0.3-0.3-0.6-0.4c-0.5-0.1-0.9,0.5-1.3,0.4c0.3-0.3-0.1-0.8-0.3-1c-0.4-0.4-1.1-0.8-1.8-0.8c-0.5,0-0.9,0-1.4,0.1
	c-0.1,0-0.5,0.4-0.5,0.4c-0.6,0.1-1-0.6-1.5,0c0,0,0-0.1,0-0.2c0.5-0.2,0.5-0.3,0.5-0.6c0-0.2-0.2-0.9-0.4-1.1
	c-1-0.6-2.4,0.6-3.3,0.4c0.9-0.3-0.1-0.6-0.6-0.6c-1.5,0-2.8,0.4-4,1.1c-0.3,0.2-3,2.1-2,2.4c-0.5,0-0.3,0.8-0.1,1.1
	c0.4,0.5,1.1,0.1,1.6,0.3c1.3,0.3-0.2,1.2,0.4,1.5c-0.1,0-0.6,0.3-0.6,0.3c-0.5,0.3-1,0.7-1.5,1.1c-0.6,0.4-0.9,0.7-1.5,1
	c0-0.5-0.5-0.5-0.1-1c0.2-0.2,0.4,0,0.6-0.2c0.5-0.5,0.5-1.5-0.4-1.6c-0.7,0-1.3,1-1.8,1.3c0-0.1,0.3-0.4,0.3-0.5
	c0.1-0.3,0-0.3,0.1-0.6c0.1-0.1,0.3-0.1,0.4-0.1c0.1-0.2,0.4,0.1,0.2-0.3c-0.1-0.1-0.6-0.2-0.6-0.2c-0.4-0.1-0.7,0.1-1-0.1
	c0.5-0.2,1.2-0.3,1.3-0.7c0.1-0.3-0.2-0.2-0.3-0.4c-0.1-0.5,0.1-0.2,0.1-0.7c0-0.7-0.4-1.5-1.3-1.3c-0.2,0-1.3,0.7-1.3,0.8
	c-0.5-0.3-1.1,0.5-1.4,0.8c-0.1,0.1-0.2,0.3-0.2,0.4c-0.2,0.3-0.6,0.3-0.5,0.7c0.1,0.7,1.1,0.4,1.4,0.8c-0.3,0.1-1.6,1.3-0.4,1.1
	c-0.7,0.3-2,0.4-2.5,1.1l0,0l0,0c0.3-0.3,0.5-0.5,0.2-0.7c-0.1,0-0.5,0-0.6,0c-0.2,0-0.3-0.3-0.4-0.3c-0.4-0.1-0.5,0.1-0.8,0.1
	c-0.1,0-0.5,0-0.6,0c-0.3,0.2-0.3,0.5-0.6,0.7c-0.4,0.3-1.5,0-2.1,0s-1.2,0.1-1.8-0.1c-0.2-0.1-0.1-0.3-0.2-0.4
	c-0.2-0.1-0.5,0.1-0.7,0s-0.5-0.4-0.8-0.3c0.2-0.2,0.2-0.7-0.1-0.8c0.6,0.1,0.5,0.2,1.1,0.4c0.3,0.1,0.9,0.1,1.3,0.1s1.1,0,1.5-0.2
	c0.3-0.1,0.9-0.8,0.3-1c0.5-0.3,0.8,0.2,1.3,0.1c0.8-0.2,0.6-0.7,0.2-1c-0.6-0.5-1.3-0.4-1.7-1c0.7-0.4,0.8-0.9,1.1-1.7
	c0.2-0.7,0.3-1-0.5-1.3c-0.5-0.2-1.1-0.1-1.5,0.2c-0.7,0.4-0.7,1.8-1.6,1.9c0.4-0.4,0.6-0.9,0.2-1.4c-0.1-0.2-0.1-0.2-0.3-0.3
	c-0.2,0-0.4-0.1-0.6-0.1c-0.3,0-0.4,0.1-0.4,0.4c-0.3,0.1,0.2,0.2-0.5,0.1c-0.7-0.1-1.1-0.7-2-0.4c0.4-0.5-0.4-0.6-0.7-0.6
	c0.5-0.5-1.4-1.2-1.7-1.2c-0.8,0-0.9,0.1-1.8-0.2c-0.8-0.2-3-0.5-3.8,0.1c-0.2,0.2-0.2,0.5-0.3,0.7c-0.2,0.2-0.3,0.2-0.7,0.3
	c-0.5,0.2-0.9,0.5-1.3,0.7c-0.6,0.4-1.5,0.5-2.1,1C84.6,15,86,14.4,86.4,15c0.2,0.3-0.3,0.5,0.3,0.8c0.5,0.2,1.3-0.3,1.8-0.4
	c0.9-0.2,1.1-0.2,1.9-0.6c0.6-0.4,1.4-0.7,2.1-0.9c0,0.1,0,0.2,0.1,0.2c-1,0.3-2.2,0.7-1,1.3c-0.4,0-1,0.1-0.9,0.6
	c0.1,0.3,0.5,0.4,1,0.4c0,0,0,0.1,0.1,0.1c-0.6,0-1.2,0.1-1.4,0.4c-1,1.2,1.8,1.3,2.3,1.3c-1.2,1.4,1.4,0.9,2.1,0.9
	c1-0.1,1.8-0.2,2.7-0.4c-0.3,0.1-0.5,0.2-0.7,0.3c-0.4,0.3-0.6,0.8,0.1,0.7c0,0-0.4,0.6-0.4,0.7c-0.1,0.2,0,0.4-0.1,0.5
	c-0.3-0.2-0.5-0.7-0.8-1l-0.4-0.1c-0.3-0.1-0.3-0.2-0.8-0.1c-1.3,0.2-2.8,0.5-4.1,0.1c0.5-0.4,2.3-0.1,1.4-1.2
	c-0.6-0.7-1.6-0.2-2.3-0.3c-0.9-0.1-1.8-0.6-2.6-0.9c-0.5-0.2-1.1-0.4-1.7-0.3s-1,0.6-1.7,0.6c0.1,0,0.8-0.2,0.3-0.4
	c0.6-0.7-0.4-0.5-0.8-0.3c-0.6,0.3-1,1-1.3,0.3c-0.1-0.3,0.4-0.7-0.1-1.1c-0.5-0.3-0.5,0.2-0.7,0.3c-0.1,0.1-0.8,0.4-0.9,0.4
	s-0.3-0.1-0.4-0.1c0.4-0.6-2.1-0.1-2.2,0C76.6,17,76,17,75.4,17.2c-0.6,0.2-2.6,0.4-2.7,1c-0.1-0.2-0.6-0.1-0.7-0.1
	c-0.2,0-0.3,0.1-0.4,0.2c-0.1-0.1-0.3-0.2-0.4-0.2c-0.8,0-1.2-0.3-1.7-0.6c-0.6-0.4-1-0.3-1.7-0.4c-0.5-0.1-0.8-0.4-1.3-0.6
	c-0.7-0.2-1.5,0.1-2.3,0c-0.6-0.1-1.2-0.2-1.8-0.3c-0.7-0.2-1.4-0.4-2.2-0.3c-0.2,0-0.6,0.1-0.7,0.1c0.4,0.1-0.8-0.2-0.4-0.2
	c0.8-0.5-1.4-0.4-1.7-0.3c0.2-0.3-0.8-0.5-1-0.5c0,0-0.1-0.2-0.2-0.2c-0.2,0-0.9,0.3-1.2,0.4c-0.2,0.6-1,0.8-1.7,0.8
	c-0.5,0-1.3,0.1-1.9,0.2c-0.9,0.2-1.8,0.2-2.5,0.5c-1,0.3-1.9,0.9-3,1.2c-1.2,0.4-2.5,0.3-3.7,0.7c-1.1,0.4-1.2,0.3-0.5,1
	c0.2,0.2,0.3-0.3,0.4,0.4c0,0.1-0.2,0.4-0.1,0.4c0.1,0.3-0.3,0.5,0.4,0.6c-0.2,0.2,0,0.2,0.1,0.4c0,0-0.4,0.5-0.5,0.5
	c-0.4,0.2-1.2-0.1-1.6-0.1c1.1-0.5,0.7-0.7-0.5-0.6c-0.7,0.1-1.3,0.4-1.8,0.5C37,22,36.2,22,35.3,22.2c-0.3,0.1-1.4,0.5-0.4,0.8
	c-0.1,0.1-0.5,0.9-0.4,1c0.3,0.5,1.8,0.1,2.2,0.1c0.5,0,0.8,0.3,1.3,0.3c0.6,0,1.1-0.5,1.7-0.4c0.3-0.1-1.4,0.5-0.6,0.5
	c-0.5,0.9-1.5,0.8-2.3,0.9c-0.5,0-1,0.4-1.6,0.5c-0.5,0.1-0.6-0.2-1-0.2c-0.8,0-1.3,0.6-2,0.9c-0.6,0.3-1.5,0.5-2.2,0.9
	c-0.7,0.3-1.1,0.3-1.3,1c-0.1,0.2,0.1,0.4,0.1,0.5c-0.1,0.2-0.4,0.1-0.5,0.2c-0.4,0.5-0.4,0.4-0.2,1c0.1,0.2-0.3,0.2-0.1,0.4
	c0.1,0.1,0.4,0,0.5,0c0.5,0.1,1.2-0.1,1.6-0.2c-0.2,0.5-0.8,0.8-1.2,1.1c-0.3,0.2-1.2,0.6-0.7,0.9c0.6,0.3,1.3-0.5,1.9-0.5
	c0.4,0,0.2,0.1,0.4,0.2c0.2,0.1,0.3-0.1,0.5,0c-0.4,1.3,0.9-0.1,1.1,0c-0.4,0.2,0.3,0.4,0.4,0.4c-0.6,0.5-1.2,0.9-1.9,1.2
	c-0.8,0.3-1.7,0.7-2.4,0.9c-1,0.3-2,0.8-3,1.1c-0.6,0.2-1.5,0.1-2.4,0.3c-0.4,0.2-2.8,0.7-2.9,1.2c-0.1,0.4,1.5,0.1,1.8,0
	c0.6-0.2,1-0.4,1.5-0.4c0.7-0.1,1.4-0.1,2-0.5c-0.1,0.2,1.6-0.2,1.9-0.3c0.5-0.1,0.9-0.5,1.2-0.6c1-0.5,2.3-0.4,3.4-1
	c1-0.5,2.2-1,3.4-1.2c0.6-0.1,1-0.3,1.6-0.6c0.2-0.1,2.4-0.8,1.2-1.1c1.8-0.5,3.2-1.3,4.9-1.9c-0.3,0.5-1.3,0.7-1.8,1
	c-0.1,0-0.1,0.2-0.1,0.2L40.5,31c-0.1,0.1-0.8,0.1-0.4,0.5c0.4,0.5,2.5-0.5,3-0.6c0.2-0.1,0.7-0.2,0.9-0.3c0.5-0.1,1,0,1.5-0.2
	c0.4-0.1,0.9-0.4,1.2-0.7c0.3-0.3-0.1-0.4,0.4-0.6c-0.2,0.1,0.5,0.1,0.5,0.1c0.3,0,0.6-0.1,0.8-0.1c0,0.2-0.4,0.1-0.1,0.4
	c0,0,0.4,0.3,0.3,0.3c0.4,0.2,0.8,0.3,1.2,0.5c0.1,0.1,0.3,0.3,0.6,0.3c0.5,0.1,1-0.2,1.6-0.1c0.7,0.1,1.2,0.6,1.9,0.4
	c-0.5,0.3,0.5,0.7,0.6,0.9c0.3,0.3,0.3,0.9,0.7,1.2c0.2,0.1,0.5,0.1,0.8,0c0.5-0.1,1.3,0.3,1.5-0.2c0,0.2,0.4,0.3,0.4,0.6
	c0,0.1-0.1,0.4-0.2,0.5c-0.1,0.2-0.4,0.3-0.5,0.6c0,0.1,0.4,0.3,0.4,0.6c0,0.2-0.2,0.6-0.4,0.8c0,0.1-0.1,0.2-0.2,0.4
	c-0.1,0.2-0.5,0.2-0.4,0.5c0,0.5,1.3-0.2,1.6-0.3c0,0.6-1.7,1.3-0.9,1.7c-0.5,0.4-0.5,2.6,0.3,1.7c-0.2,0.3,0,0.7-0.2,0.9
	c0,0.1-0.7,0.6-0.6,0.8c0.1,0.4,0.6-0.2,0.5,0.3c0-0.1-0.6,0.5-0.7,0.6c-0.5,0.6-0.4,1,0.2,1.3c0.2,0.1,0.5,0.1,0.6,0.1
	c0,0-0.1,0.3,0.1,0.5c0.1,0,1.2,0.3,1.3,0.3c-0.5,0.6-0.2,0.4,0.2,0.8c0.2,0.2,0.2,0.9,0.8,0.4c0,0.2-0.3,0.4-0.3,0.7
	s0.3-0.4,0.3,0.3c0,0,0,0.2,0,0.1c0-0.1-0.3,0.2-0.4,0.3c-0.1,0.2,0.3,0.4-0.1,0.7c-0.1-0.2,0-0.4-0.2-0.5c-0.1,0-0.5,0-0.7,0
	c-0.3,0-0.9-0.4-1.2-0.4c-0.7,0.2-1,2.1-1.3,2.7c-0.9,1.8-2.3,3.4-3.6,4.9c-0.7,0.8-0.6,1.6-1,2.5c-0.2,0.5-0.7,0.8-1,1.2
	c-0.4,0.7-0.1,0.7-0.1,1.3c0,0.3-0.3,0.6-0.4,0.9c-0.1,0.4,0.1,0.6,0.1,0.9c0,0.1,0,0.8,0,0.8c0.1,0.4,0.3,0.2,0.4,0.6
	c0.1,0.7-0.3,0.8,0.4,1.3c-0.7,1,0,1.3,0.2,2.3c0.1,0.5-0.3,1,0.2,1.4c0.2,0.1,0.5,0,0.7,0.1c0.3,0.1,0.5,0.3,0.8,0.5
	c0.5,0.3,0.6,0.2,0.9,0.6c0.6,0.6,0.5,0.7,0.5,1.6c0,0.8,0.1,1.5,0.2,2.2c0.1,0.9,0,1.8,0.7,2.5c0.3,0.4,1.1,0.9,0.9,1.5
	c-0.2,1-1.2,0.3-1.6,0.6c-0.3,0.3,0.9,1.4,1.3,1.6c0.3,0.2,0.6,0.3,1,0.5c1.4,0.8,0.4,1.3,0.5,2.3c0,0.6,0.9,1,1.4,1.5
	c0.3,0.3,0.6,0.7,0.8,1.1c0.3,0.4,0,0.6,0.7,0.5c0.8-0.2,0.7-0.9,0.4-1.4c-0.1-0.2-0.7-1.4-0.9-0.7c-0.2,0-0.4-2.7-0.5-3
	c-0.1-0.5-0.3-0.9-0.6-1.3c-0.4-0.6-0.4-0.9-0.5-1.5c-0.2-0.7-0.6-1.5-1-2.2s-0.3-0.5-0.2-1.4c0.1-0.5,0.3-1,0.4-1.5
	c0.2,0.2,0.4,0.3,0.6,0.4c0.1,0.1,0.3-0.1,0.4-0.1c0,0.5,0.3,0.3,0.6,0.5c-0.5,1.5,0.1,4.4,1.7,5c-0.2,0.6,0.1,0.7,0.3,1.1
	c-0.2-0.4,0.7,0.7,0.3,0.4c0.5,0.4,0.5,0.2,0.5,0.8c0,0.8-0.4,0.6,0.1,1.1c0.2,0.2,0.4,0.3,0.6,0.5c0.7,0.4,0.2,0.2,0.6,1
	c0.3,0.7,1.2,1.3,1.6,2c0.5,0.8,0.9,1.5,0.9,2.4c0.3,0.2,0.3,0.3,0.1,0.5c-0.1,0.2-0.2,0.3-0.4,0.5c-0.1,0.2-0.1,0.3,0.1,0.4
	c-1.4,0.4,0.2,2,0.8,2.4c1,0.6,1.4,1.4,2.6,1.7c0.4,0.1,0.4,0,0.8,0.2c0.3,0.2,0.6,0.6,0.9,0.8c0.7,0.4,1.5,0.7,2.3,1
	c1.1,0.4,2.2,1.4,3.5,1.4c1.4,0,2.3-1.3,3.7-0.3c0.9,0.7,1.4,1.8,2.3,2.5c0.7,0.5,1.4,0.4,2.2,0.7c0.4,0.2,0.9,0.5,1.3,0.6
	s0.8,0.4,1.2,0.3c0.4-0.1,0.7-0.4,0.8-0.2h-0.2c0,0,0,0.5,0,0.6c0.1,0.2,0.4,0.4,0.5,0.5c0.4,0.4,0.7,0.8,1,1.3
	c0.5,0.6,0.5,0.7,0.5,1.3c0,0.6-0.3,0.7,0.4,1.2c0.3,0.2,0.8,0.6,0.9-0.1c0.2,0.5,0.3,0.5,0.8,0.8c0.2,0.1,0.4,0.2,0.5,0.4
	c0.1,0.2-0.2,0.3-0.1,0.4s0.8,1,1,1.1c0.4,0,0.3-0.4,0.9-0.3c0.5,0.1,1.2,1.3,1.5,0.8c0.1,0.7,0.5,1,1.1,0.4
	c0.7-0.6,0.1-0.5-0.1-1.3c0.9,0.1,0.8-1.1,1.6-1c0.5,0,0.7,1,1,1c-0.1,0.4-0.4,0.4,0,1c0.3,0.6,0.9,0.8,1,1.5c0,0.2,0,0.9,0,1.1
	l-0.1,0.6c0,0.3,0.1,0.6,0.1,0.9c0,0.4,0,0.8-0.1,1.2c0,0,0.2,0.2,0.2,0.3c0,0.1-0.4,0.6-0.4,0.7c-0.2,0.3-0.4,0.6-0.6,0.8
	c-0.4,0.4-1.2,0.1-0.9,1c-1-0.1-0.3,0.7-0.4,0.7c-0.3,0.5-1.2,0.3-1.5,0.8c-0.2,0.3-0.2,0.9-0.3,1.3c-0.1,0.4-0.4,0.8-0.5,1.1
	c0,0.1-0.4,0-0.4,0.2c-0.1,0.2,0.1,0.4,0.1,0.6c0,0.3,0,0.7,0,1c0,0.4-0.4,0,0,0.6c0.3,0.4,0.8,0.7,1,0.3c0.1,0.1,0.2,0.1,0.3,0.1
	c-0.3,1-1.4,1.2-1.8,2.2s0.4,1.3,0.5,2.2c-1.4,0.1,0.8,1.2,0.9,1.3c1,0.8,1.7,2.4,2.2,3.5c0.9,1.9,1.6,3.5,2.6,5.2
	c0.5,0.8,0.4,1.4,0.6,2c0.3,1,1.4,2,2.3,2.5c1.1,0.7,2.4,1.3,3.5,2c0.6,0.4,0.7,0.7,1.1,1.2c0.3,0.3,0.9,0.4,1,0.8
	c0.2,0.3,0.1,0.9,0.2,1.2c0.1,0.8,0.1,1.5,0.2,2.3s0.2,1.5,0.1,2.3c0,0.3,0,0.6-0.1,0.9c0,0-0.3,0.1-0.3,0.3c0,0.6,0.2,0.6,0.2,1
	c0,0.6,0.1,1.3,0.1,1.8c0,1.3-0.2,2.7-0.3,4.1c0,0.6-0.3,1.2-0.4,1.7c-0.1,0.6,0.3,0.8,0.4,1.3c0.1,0.6-0.3,0.6-0.3,1.1
	c-0.1,0.8,0.3,1.7,0.5,2.5c0.5,1.8,0.1,3.8-0.3,5.7c-0.1,0.4-0.2,0.8-0.2,1.3l-0.1,0.6c0.6-1.1-0.5,1.3-0.2,0.3
	c0-0.1-0.2,0.2-0.3,0.4l0.1,0.3c0.1,0.5,0.3,1.1,0.5,1.6c0.3,0.7,0.6,1,0.5,1.8c0,0.4-0.3,0.8-0.2,1.4c0.1,0.6,0.1,1.3,0.6,1.7
	c0.4,0.3,0.9,0.5,1-0.2c0.6,0.3-0.3,0,0.1,0.5c0,0.1,0.3,0.3,0.5,0.3c-0.4,0-0.1,1.4-0.1,1.7c0.1,0.6-0.1,2.1,1,2
	c0,0.6-0.6,0.4-0.6,0.7c0,0.2,0.1,0.3,0.1,0.4c-0.1,0.4,0.1,0.9,0.1,1.4c-0.1-0.1-0.3-0.5-0.5-0.5c-0.4-0.1-1.1-0.1-1.3,0.2
	c-0.1,0.2,0.3,0.3,0.2,0.4c-0.1,0.3-0.5,0.3-0.5,0.7c0,0.2,0.1,0.6,0.3,0.7c0.5,0.2,0.2-0.5,0.4-0.6c0.1,0.7,1,0.3,1.2,0.6
	c0.2,0.5-0.8,1.1,0.1,1.3c-0.6,0.2,0.4,0.7,0.5,0.8c0.1,0.2,0,0.8,0.1,1.1c0.2,0.4,0.5,0.7,0.5,1.1c0,0.1-0.3,0.5-0.3,0.4
	c0.1,0.3,0.3,0.2,0.5,0.5c0.5,0.6,0.9,1.4,1.4,2.1c0.4,0.7,0.7,1.4,1.2,1.9c0.5,0.6,0.8,0.7,1.5,1c0.3,0.1,0.6,0.4,1,0.4
	c0.1,0,0.3,0,0.4,0l0,0l0,0l0,0c0.4,0,0.3-0.2,0.3-0.7c0-0.2-0.4-0.9-0.3-1.1c0.1-0.1,0.6-0.2,0.8-0.3c0.1-0.1,0.5-0.5,0.5-0.5
	c0.2-0.1,0.6,0.2,0.8,0.2c0.7-0.1-0.1-0.7-0.5-1.1c-0.3-0.4-1.2-1.4-0.9-2c0.4-0.8,1-0.4,1-1.5c0-0.8-0.1-0.8,0.5-1.5
	c0.4-0.5,0.7-0.6,0.8-1.1c0.1-0.4-0.2-1.2-0.6-1.4c-0.6-0.3-1-0.1-1.6-0.6c-0.9-0.8-0.8-1.5,0.2-2.1c0.1-0.1,0.3-0.2,0.5-0.3
	c0.3-0.2,0.4,0,0.6-0.2c0.1-0.1-0.2-0.4-0.2-0.4c0-0.2,0.3-0.3,0.3-0.6s-0.3-0.7-0.3-0.9c0-0.3,0.3-0.5,0.5-0.7s0.6-0.3,0.8-0.5
	c0.3-0.3,0.5-0.5,0.2-1c-0.5-0.8-0.6-0.1-1.2-0.2c-0.5,0-1.3-1.6-1.1-2c0.5,0.4,1.6,0.6,2.2,0.5c0.9-0.1,1.1-0.5,1-1.2
	c0-0.1-0.2-0.2-0.2-0.3c0-0.2,0.1-0.5,0.2-0.6c0.1-0.6-0.4-0.9-0.4-1.4c1.1,0.6,3.2-0.1,4.3-0.6c0.9-0.4,1.8-1.8,1.8-2.8
	c0-0.2,0-0.6-0.1-0.7c-0.1-0.2-0.4-0.1-0.5-0.2c-0.2-0.3-0.2,0.1-0.4-0.5c-0.1-0.3,0.1-0.6,0.1-0.9c-0.3-0.9-1.8-0.9-1.7-1.8
	c0.7,0.6,2.3,1,3.1,1.1c1.5,0.1,2-0.1,2.8-1.5c0.4-0.7,0.8-1.3,1.1-2c0.3-0.8,0.6-1,1.1-1.6c0.8-0.9,1-1.8,1.4-2.9
	c0.3-0.9,1-1.3,1.4-2c0.5-0.9,0-2.1-0.1-3s0.3-1.6,0.8-2.3c0.6-0.8,1.6-1.5,2.4-1.8c0.2-0.1,0.4,0,0.6-0.1c0,0,0.2-0.3,0.3-0.4
	c0.3-0.2,1.1-0.2,0.5-0.7c0.2-0.2,1.2,0,1.5,0s1.5,0,1.7-0.1s0-0.5,0.1-0.6c0.3-0.4,0.5-0.4,0.8-0.7c0.5-0.5,0.3-1.4,0.7-2
	c0.4-0.7,1-1.4,1.2-2.3c0.1-0.5-0.1-0.9,0-1.4s0.5-0.8,0.6-1.2c0.5-2.2-0.2-4.6,0.4-6.6c0.3,0.8,1.5-1.7,1.6-1.9
	c0.4-0.8,0.8-1.2,1.4-1.8c1.1-1.1,2.1-3.1,1.9-4.7C154.9,127.3,154.7,125.3,153.6,125.1z"/>
</svg>
