<?xml version="1.0" encoding="utf-8"?>
<!-- Generator: Adobe Illustrator 24.0.2, SVG Export Plug-In . SVG Version: 6.00 Build 0)  -->
<svg version="1.1" id="Capa_1" xmlns="http://www.w3.org/2000/svg" xmlns:xlink="http://www.w3.org/1999/xlink" x="0px" y="0px"
	 viewBox="0 0 1267.2 2029.4" style="enable-background:new 0 0 1267.2 2029.4;" xml:space="preserve">
<style type="text/css">
	.st0{clip-path:url(#SVGID_2_);fill:url(#SVGID_3_);}
	.st1{clip-path:url(#SVGID_5_);fill:url(#SVGID_6_);}
	.st2{clip-path:url(#SVGID_8_);fill:url(#SVGID_9_);}
	.st3{clip-path:url(#SVGID_11_);fill:url(#SVGID_12_);}
	.st4{clip-path:url(#SVGID_14_);fill:url(#SVGID_15_);}
	.st5{clip-path:url(#SVGID_17_);fill:url(#SVGID_18_);}
	.st6{clip-path:url(#SVGID_20_);fill:url(#SVGID_21_);}
	.st7{clip-path:url(#SVGID_23_);fill:url(#SVGID_24_);}
	.st8{clip-path:url(#SVGID_26_);fill:url(#SVGID_27_);}
	.st9{clip-path:url(#SVGID_29_);}
	.st10{fill:none;stroke:#FFFFFF;stroke-width:4;stroke-linecap:round;stroke-linejoin:round;stroke-miterlimit:22.9256;}
	.st11{fill:none;stroke:#808080;stroke-width:3;stroke-miterlimit:22.9256;}
	.st12{fill-rule:evenodd;clip-rule:evenodd;fill:#808080;}
	.st13{fill-rule:evenodd;clip-rule:evenodd;fill:#FFFFFF;}
	.st14{fill-rule:evenodd;clip-rule:evenodd;}
</style>
<g>
	<defs>
		<path id="SVGID_1_" d="M833,1806.6c1-6.6,1.5-12.3,1.6-17.1c0-9.9-0.1-20.5-0.5-31.8c-0.3-11.3-0.9-22.4-1.6-33.3
			c-0.7-10.9-1.7-20.6-2.8-29.1l-48.8-0.2l-0.4,82c0,2.4-0.6,4.6-1.7,6.5c-1.1,2-2.8,3.5-5.1,4.6c-2.3,1.1-5.2,1.6-8.8,1.6
			l-16.6-0.1l-2.6-80l-45.8-0.2l-3.3,80l-18.4-0.1c-4.4,0-7.6-1.3-9.8-3.9c-2.2-2.6-3.2-6.4-3.2-11.3l0.4-79.7l-48.8-0.2
			c-0.8,6.7-1.6,14.5-2.2,23.3c-0.6,8.8-1.2,19.2-1.8,31.2c-0.5,12-0.9,26.3-0.9,43c0,6.1,0.8,12.5,2.4,19
			c1.7,6.5,4.5,12.5,8.5,17.9c4,5.4,9.6,9.8,16.7,13.2c7.1,3.4,16,5.1,26.7,5.2l115.3,0.5c12.3,0.1,22-2,29-6.1
			c7.1-4.1,12.3-9.3,15.7-15.5C829.7,1819.6,831.9,1813.2,833,1806.6"/>
	</defs>
	<clipPath id="SVGID_2_">
		<use xlink:href="#SVGID_1_"  style="overflow:visible;"/>
	</clipPath>
	<linearGradient id="SVGID_3_" gradientUnits="userSpaceOnUse" x1="655.0469" y1="1856.0308" x2="801.7068" y2="1672.9108">
		<stop  offset="0" style="stop-color:#640000"/>
		<stop  offset="0.5" style="stop-color:#960000"/>
		<stop  offset="1" style="stop-color:#640000"/>
	</linearGradient>
	<rect x="611.8" y="1694.3" class="st0" width="222.7" height="153.3"/>
</g>
<g>
	<defs>
		<polygon id="SVGID_4_" points="722.6,1614.4 833.2,1682.2 833.5,1618.6 771.5,1584.3 833.8,1546 834.1,1482.4 725.6,1549.1 
			613.2,1479.9 613,1543.6 677.2,1578.8 612.6,1618.5 612.3,1682.1 		"/>
	</defs>
	<clipPath id="SVGID_5_">
		<use xlink:href="#SVGID_4_"  style="overflow:visible;"/>
	</clipPath>
	<linearGradient id="SVGID_6_" gradientUnits="userSpaceOnUse" x1="630.5537" y1="1696.7634" x2="814.6337" y2="1466.9135">
		<stop  offset="0" style="stop-color:#640000"/>
		<stop  offset="0.5" style="stop-color:#960000"/>
		<stop  offset="1" style="stop-color:#640000"/>
	</linearGradient>
	<rect x="612.3" y="1479.9" class="st1" width="221.8" height="202.2"/>
</g>
<g>
	<defs>
		<polygon id="SVGID_7_" points="613.3,1462.1 834.2,1463.1 834.4,1405.4 750.3,1405 750.6,1339.6 834.7,1340 835,1282.3 
			614.1,1281.4 613.9,1339 698.9,1339.4 698.6,1404.8 613.6,1404.4 		"/>
	</defs>
	<clipPath id="SVGID_8_">
		<use xlink:href="#SVGID_7_"  style="overflow:visible;"/>
	</clipPath>
	<linearGradient id="SVGID_9_" gradientUnits="userSpaceOnUse" x1="636.9793" y1="1481.0652" x2="811.3093" y2="1263.3953">
		<stop  offset="0" style="stop-color:#640000"/>
		<stop  offset="0.5" style="stop-color:#960000"/>
		<stop  offset="1" style="stop-color:#640000"/>
	</linearGradient>
	<rect x="613.3" y="1281.4" class="st2" width="221.7" height="181.7"/>
</g>
<g>
	<defs>
		
			<rect id="SVGID_10_" x="696" y="1109.9" transform="matrix(4.420276e-03 -1 1 4.420276e-03 -498.7001 1939.7397)" width="57.7" height="220.9"/>
	</defs>
	<clipPath id="SVGID_11_">
		<use xlink:href="#SVGID_10_"  style="overflow:visible;"/>
	</clipPath>
	<linearGradient id="SVGID_12_" gradientUnits="userSpaceOnUse" x1="667.7827" y1="1291.538" x2="781.8527" y2="1149.1079">
		<stop  offset="0" style="stop-color:#640000"/>
		<stop  offset="0.5" style="stop-color:#960000"/>
		<stop  offset="1" style="stop-color:#640000"/>
	</linearGradient>
	<rect x="614.3" y="1191" class="st3" width="221.1" height="58.6"/>
</g>
<g>
	<defs>
		<path id="SVGID_13_" d="M696.8,1058c3.4,2.1,5,5.3,5,9.7l-0.1,33.3l-35.1-0.2l0.1-33.3c0-3.2,1.3-6.1,3.8-8.8
			c2.5-2.7,7.1-4,13.8-4C689.3,1054.9,693.5,1055.9,696.8,1058 M784.2,1064.8l-0.2,36.6l-38.6-0.2l0.2-36.6c0-3.6,0.8-6.5,2.4-8.9
			c1.6-2.4,3.8-4.2,6.7-5.5c2.9-1.3,6.3-1.9,10.3-1.9c4,0,7.4,0.7,10.2,2c2.9,1.3,5.1,3.1,6.7,5.5
			C783.5,1058.3,784.2,1061.2,784.2,1064.8z M614.7,1158.3l220.9,1l0.4-96c0.1-15.3-1.9-28.1-5.9-38.4c-4-10.3-10.5-18.1-19.4-23.3
			c-8.9-5.2-20.6-7.8-35-7.9c-7.7,0-14.7,0.9-20.8,2.7c-6.2,1.9-11.5,4.5-16.1,7.8c-4.6,3.3-8.3,7.3-11.1,11.8
			c-2.8,4.5-4.9,9.4-6.3,14.5c-1.6-6.7-4.5-12.4-8.7-16.8c-4.2-4.5-9.6-7.9-16-10.2c-6.4-2.3-13.9-3.5-22.4-3.5
			c-18.2-0.1-32.6,5.1-43.2,15.4c-10.5,10.4-15.9,27.4-16,51.2L614.7,1158.3z"/>
	</defs>
	<clipPath id="SVGID_14_">
		<use xlink:href="#SVGID_13_"  style="overflow:visible;"/>
	</clipPath>
	<linearGradient id="SVGID_15_" gradientUnits="userSpaceOnUse" x1="642.1613" y1="1180.3401" x2="795.5114" y2="988.8601">
		<stop  offset="0" style="stop-color:#640000"/>
		<stop  offset="0.5" style="stop-color:#960000"/>
		<stop  offset="1" style="stop-color:#640000"/>
	</linearGradient>
	<rect x="614.7" y="993.7" class="st4" width="221.4" height="165.6"/>
</g>
<g>
	<defs>
		
			<rect id="SVGID_16_" x="697.2" y="828.4" transform="matrix(4.419714e-03 -1 1 4.419714e-03 -215.9496 1660.7153)" width="57.7" height="220.9"/>
	</defs>
	<clipPath id="SVGID_17_">
		<use xlink:href="#SVGID_16_"  style="overflow:visible;"/>
	</clipPath>
	<linearGradient id="SVGID_18_" gradientUnits="userSpaceOnUse" x1="669.0275" y1="1010.0237" x2="783.0974" y2="867.5937">
		<stop  offset="0" style="stop-color:#640000"/>
		<stop  offset="0.5" style="stop-color:#960000"/>
		<stop  offset="1" style="stop-color:#640000"/>
	</linearGradient>
	<rect x="615.5" y="909.5" class="st5" width="221.1" height="58.6"/>
</g>
<g>
	<defs>
		<path id="SVGID_19_" d="M785.4,786l-0.2,33.9l-117.4-0.5l0.1-33.9c0-4.4,0.7-8.3,2-11.7c1.3-3.5,3.9-6.4,7.9-8.9
			c4-2.5,9.9-4.3,17.7-5.6c7.8-1.3,18.3-1.9,31.4-1.8c13.9,0.1,25.1,1,33.7,2.7c8.6,1.7,14.9,4.6,18.8,8.7S785.5,778.6,785.4,786
			 M615.9,876.8l220.9,1l0.4-97.5c0.1-18-3.7-33-11.2-44.8c-7.6-11.8-19.4-20.7-35.6-26.6c-16.1-5.9-37.2-8.9-63.1-9
			c-15.5-0.1-29.9,1.1-43.3,3.4c-13.4,2.3-25.1,6.4-35.3,12.3c-10.1,5.9-18,14-23.7,24.3c-5.7,10.3-8.6,23.4-8.6,39.5L615.9,876.8z"
			/>
	</defs>
	<clipPath id="SVGID_20_">
		<use xlink:href="#SVGID_19_"  style="overflow:visible;"/>
	</clipPath>
	<linearGradient id="SVGID_21_" gradientUnits="userSpaceOnUse" x1="640.3802" y1="896.3977" x2="793.3102" y2="705.4377">
		<stop  offset="0" style="stop-color:#640000"/>
		<stop  offset="0.5" style="stop-color:#960000"/>
		<stop  offset="1" style="stop-color:#640000"/>
	</linearGradient>
	<rect x="615.9" y="699.7" class="st6" width="221.4" height="178"/>
</g>
<g>
	<defs>
		<path id="SVGID_22_" d="M785.5,565.7c1.8,4.8,2.6,10.9,2.6,18.4c0,7.3-1,13.4-2.8,18.3c-1.8,4.8-4.9,8.6-9.3,11.3
			c-4.4,2.7-10.5,4.5-18.5,5.6c-7.9,1.1-18,1.6-30.3,1.5c-12.9-0.1-23.3-0.6-31.2-1.8c-7.9-1.1-14-3-18.3-5.7
			c-4.2-2.7-7.2-6.5-8.7-11.3c-1.6-4.9-2.3-11-2.3-18.3c0-7.5,0.9-13.7,2.5-18.4c1.6-4.7,4.5-8.5,8.8-11.1
			c4.3-2.7,10.4-4.5,18.3-5.6c7.9-1.1,18.3-1.6,31.2-1.5c12.3,0.1,22.4,0.6,30.3,1.8c7.9,1.1,14.1,3,18.4,5.7
			C780.7,557.2,783.8,560.9,785.5,565.7 M784.3,672.7c14.8-3.9,26.2-9.8,34.1-17.7c8-7.9,13.5-17.7,16.6-29.5
			c3.1-11.8,4.7-25.5,4.8-41.2c0.1-15.7-1.4-29.4-4.4-41.2c-3-11.8-8.5-21.7-16.4-29.7c-7.9-8-19.2-14-34-18
			c-14.7-4-33.8-6.1-57.2-6.2c-23.4-0.1-42.5,1.8-57.3,5.7c-14.8,3.9-26.2,9.8-34.1,17.7c-8,7.9-13.5,17.7-16.6,29.5
			c-3.1,11.8-4.7,25.5-4.8,41.2c-0.1,15.7,1.4,29.4,4.4,41.2c3,11.8,8.5,21.7,16.4,29.7c7.9,8,19.2,14,34,18
			c14.7,4,33.8,6.1,57.2,6.2C750.4,678.5,769.5,676.6,784.3,672.7z"/>
	</defs>
	<clipPath id="SVGID_23_">
		<use xlink:href="#SVGID_22_"  style="overflow:visible;"/>
	</clipPath>
	<linearGradient id="SVGID_24_" gradientUnits="userSpaceOnUse" x1="657.1587" y1="671.6747" x2="797.7987" y2="496.0748">
		<stop  offset="0" style="stop-color:#640000"/>
		<stop  offset="0.5" style="stop-color:#960000"/>
		<stop  offset="1" style="stop-color:#640000"/>
	</linearGradient>
	<rect x="615" y="489.2" class="st7" width="224.9" height="189.3"/>
</g>
<g>
	<defs>
		<path id="SVGID_25_" d="M715.8,370.1c0.9,2.4,1.3,5.2,1.3,8.3l-0.1,26.2l-47.3-0.2l0.1-26.2c0-3.2,0.4-5.9,1.2-8.3
			c0.8-2.4,2.1-4.4,3.7-6.1c1.7-1.7,4-2.9,7-3.7c3-0.8,6.6-1.2,11-1.1c4.4,0,8.1,0.4,11.1,1.2c3.1,0.8,5.6,2.1,7.6,3.7
			C713.5,365.7,714.9,367.7,715.8,370.1 M617.7,461.8l220.9,1l0.3-57.7l-76.1-0.3c0-1.8,0-3.6,0-5.5c0-1.9,0-3.7,0-5.5
			c0-1.8,0-3.6,0-5.5c0-1.9,0-3.7,0-5.5l76.2-30.6l0.3-58.6l-85.8,38c-2.4-4.2-5.1-8.1-8.3-11.8c-3.2-3.7-7.1-6.9-11.7-9.6
			c-4.6-2.7-10.3-4.9-17.1-6.5c-6.7-1.6-14.7-2.4-23.8-2.5c-14.5-0.1-26.5,1.5-36,4.7c-9.5,3.2-17.1,7.8-22.8,13.7
			c-5.7,5.9-9.7,12.9-12.1,21.1c-2.4,8.1-3.6,17-3.7,26.7L617.7,461.8z"/>
	</defs>
	<clipPath id="SVGID_26_">
		<use xlink:href="#SVGID_25_"  style="overflow:visible;"/>
	</clipPath>
	<linearGradient id="SVGID_27_" gradientUnits="userSpaceOnUse" x1="644.4533" y1="483.2031" x2="813.1033" y2="272.6131">
		<stop  offset="0" style="stop-color:#640000"/>
		<stop  offset="0.5" style="stop-color:#960000"/>
		<stop  offset="1" style="stop-color:#640000"/>
	</linearGradient>
	<rect x="617.7" y="293.6" class="st8" width="221.6" height="169.1"/>
</g>
<g>
	<defs>
		<rect id="SVGID_28_" y="2" width="1265.2" height="2027.4"/>
	</defs>
	<clipPath id="SVGID_29_">
		<use xlink:href="#SVGID_28_"  style="overflow:visible;"/>
	</clipPath>
	<g class="st9">
		<defs>
			<rect id="SVGID_30_" x="0" y="2" width="1265.2" height="2027.4"/>
		</defs>
		<clipPath id="SVGID_31_">
			<use xlink:href="#SVGID_30_"  style="overflow:visible;"/>
		</clipPath>
		<g transform="matrix(1 0 0 1 7.275958e-12 1.192093e-07)" style="clip-path:url(#SVGID_31_);">
			
				<image style="overflow:visible;" width="488" height="782" xlink:href="C6D01257.png"  transform="matrix(2.5926 0 0 2.5926 1.000000e-04 1.9993)">
			</image>
		</g>
	</g>
</g>
<path class="st10" d="M833,1806.6c1-6.6,1.5-12.3,1.6-17.1c0-9.9-0.1-20.5-0.5-31.8c-0.3-11.3-0.9-22.4-1.6-33.3
	c-0.7-10.9-1.7-20.6-2.8-29.1l-48.8-0.2l-0.4,82c0,2.4-0.6,4.6-1.7,6.5c-1.1,2-2.8,3.5-5.1,4.6c-2.3,1.1-5.2,1.6-8.8,1.6l-16.6-0.1
	l-2.6-80l-45.8-0.2l-3.3,80l-18.4-0.1c-4.4,0-7.6-1.3-9.8-3.9c-2.2-2.6-3.2-6.4-3.2-11.3l0.4-79.7l-48.8-0.2
	c-0.8,6.7-1.6,14.5-2.2,23.3c-0.6,8.8-1.2,19.2-1.8,31.2c-0.5,12-0.9,26.3-0.9,43c0,6.1,0.8,12.5,2.4,19c1.7,6.5,4.5,12.5,8.5,17.9
	c4,5.4,9.6,9.8,16.7,13.2c7.1,3.4,16,5.1,26.7,5.2l115.3,0.5c12.3,0.1,22-2,29-6.1c7.1-4.1,12.3-9.3,15.7-15.5
	C829.7,1819.6,831.9,1813.2,833,1806.6z"/>
<polygon class="st10" points="722.6,1614.4 833.2,1682.2 833.5,1618.6 771.5,1584.3 833.8,1546 834.1,1482.4 725.6,1549.1 
	613.2,1479.9 612.9,1543.6 677.2,1578.8 612.6,1618.5 612.3,1682.1 "/>
<polygon class="st10" points="613.3,1462.1 834.2,1463.1 834.4,1405.4 750.3,1405 750.6,1339.6 834.7,1340 835,1282.3 614.1,1281.4 
	613.9,1339 698.9,1339.4 698.6,1404.8 613.6,1404.4 "/>
<rect x="696" y="1109.9" transform="matrix(4.413086e-03 -1 1 4.413086e-03 -498.6949 1939.7396)" class="st10" width="57.7" height="220.9"/>
<path class="st10" d="M696.8,1058c3.4,2.1,5,5.3,5,9.7l-0.1,33.3l-35.1-0.2l0.1-33.3c0-3.2,1.3-6.1,3.8-8.8c2.5-2.7,7.1-4,13.8-4
	C689.3,1054.9,693.5,1055.9,696.8,1058z M784.2,1064.8l-0.2,36.6l-38.6-0.2l0.2-36.6c0-3.6,0.8-6.5,2.4-8.9c1.6-2.4,3.8-4.2,6.7-5.5
	c2.9-1.3,6.3-1.9,10.3-1.9c4,0,7.4,0.7,10.2,2c2.9,1.3,5.1,3.1,6.7,5.5C783.4,1058.3,784.2,1061.2,784.2,1064.8z M614.6,1158.3
	l220.9,1l0.4-96c0.1-15.3-1.9-28.1-5.9-38.4c-4-10.3-10.5-18.1-19.4-23.3c-8.9-5.2-20.6-7.8-35-7.9c-7.7,0-14.7,0.9-20.8,2.7
	c-6.2,1.9-11.5,4.5-16.1,7.8c-4.6,3.3-8.3,7.3-11.1,11.8c-2.8,4.5-4.9,9.4-6.3,14.5c-1.6-6.7-4.5-12.4-8.7-16.8
	c-4.2-4.5-9.6-7.9-16-10.2c-6.4-2.3-13.9-3.5-22.4-3.5c-18.2-0.1-32.6,5.1-43.2,15.4c-10.5,10.4-15.9,27.4-16,51.2L614.6,1158.3z"/>
<rect x="697.2" y="828.4" transform="matrix(4.413626e-03 -1 1 4.413626e-03 -215.9468 1660.7106)" class="st10" width="57.7" height="220.9"/>
<path class="st10" d="M785.4,786l-0.1,33.9l-117.4-0.5l0.1-33.9c0-4.4,0.7-8.3,2-11.7c1.3-3.5,3.9-6.4,7.9-8.9
	c4-2.5,9.9-4.3,17.7-5.6c7.8-1.3,18.3-1.9,31.4-1.8c13.9,0.1,25.1,1,33.7,2.7c8.6,1.7,14.9,4.6,18.8,8.7
	C783.5,772.9,785.5,778.6,785.4,786z M615.9,876.8l220.9,1l0.4-97.5c0.1-18-3.7-33-11.2-44.8c-7.6-11.8-19.4-20.7-35.6-26.6
	c-16.1-5.9-37.2-8.9-63.1-9c-15.5-0.1-29.9,1.1-43.3,3.4c-13.4,2.3-25.1,6.4-35.3,12.3c-10.1,5.9-18,14-23.7,24.3
	c-5.7,10.3-8.6,23.4-8.6,39.5L615.9,876.8z"/>
<path class="st10" d="M785.5,565.7c1.8,4.8,2.6,10.9,2.6,18.4c0,7.3-1,13.4-2.8,18.3c-1.8,4.8-4.9,8.6-9.3,11.3
	c-4.4,2.7-10.5,4.5-18.5,5.6c-7.9,1.1-18,1.6-30.3,1.5c-12.9-0.1-23.3-0.6-31.2-1.8c-7.9-1.1-14-3-18.3-5.7
	c-4.2-2.7-7.2-6.5-8.7-11.3c-1.6-4.9-2.3-11-2.3-18.3c0-7.5,0.9-13.7,2.5-18.4c1.6-4.7,4.5-8.5,8.8-11.1c4.3-2.7,10.4-4.5,18.3-5.6
	c7.9-1.1,18.3-1.6,31.2-1.5c12.3,0.1,22.4,0.6,30.3,1.8c7.9,1.1,14.1,3,18.4,5.7C780.7,557.2,783.8,560.9,785.5,565.7z M784.3,672.7
	c14.8-3.9,26.2-9.8,34.1-17.7c8-7.9,13.5-17.7,16.6-29.5c3.1-11.8,4.7-25.5,4.8-41.2c0.1-15.7-1.4-29.4-4.4-41.2
	c-3-11.8-8.5-21.7-16.4-29.7c-7.9-8-19.2-14-34-18c-14.7-4-33.8-6.1-57.2-6.2c-23.4-0.1-42.5,1.8-57.3,5.7
	c-14.8,3.9-26.2,9.8-34.1,17.7c-8,7.9-13.5,17.7-16.6,29.5c-3.1,11.8-4.7,25.5-4.8,41.2c-0.1,15.7,1.4,29.4,4.4,41.2
	c3,11.8,8.5,21.7,16.4,29.7c7.9,8,19.2,14,34,18c14.7,4,33.8,6.1,57.2,6.2C750.4,678.5,769.5,676.6,784.3,672.7z"/>
<path class="st10" d="M715.8,370.1c0.9,2.4,1.3,5.2,1.3,8.3l-0.1,26.2l-47.3-0.2l0.1-26.2c0-3.2,0.4-5.9,1.2-8.3
	c0.8-2.4,2.1-4.4,3.7-6.1c1.7-1.7,4-2.9,7-3.7c3-0.8,6.6-1.2,11-1.1c4.4,0,8.1,0.4,11.1,1.2c3.1,0.8,5.6,2.1,7.6,3.7
	C713.5,365.7,714.9,367.7,715.8,370.1z M617.7,461.8l220.9,1l0.3-57.7l-76.1-0.3c0-1.8,0-3.6,0-5.5c0-1.9,0-3.7,0-5.5
	c0-1.8,0-3.6,0-5.5c0-1.9,0-3.7,0-5.5l76.2-30.6l0.3-58.6l-85.8,38c-2.4-4.2-5.1-8.1-8.3-11.8c-3.2-3.7-7.1-6.9-11.7-9.6
	c-4.6-2.7-10.3-4.9-17.1-6.5c-6.7-1.6-14.7-2.4-23.8-2.5c-14.5-0.1-26.5,1.5-36,4.7c-9.5,3.2-17.1,7.8-22.8,13.7
	c-5.7,5.9-9.7,12.9-12.1,21.1c-2.4,8.1-3.6,17-3.7,26.7L617.7,461.8z"/>
<g>
	<path d="M737.2,173.3l4.3-37h7.1l8.5,28.3l8.5-28.3h7l4.3,37h-7.1l-3.2-27.2l1.2,0.1l-7.3,27.1h-7l-7.3-27.1l1.3,0l-3.1,27.2H737.2
		z"/>
</g>
<g>
	<path d="M787.2,173.6c-2,0-3.7-0.6-5-1.8c-1.3-1.2-1.9-2.9-1.9-5v-2.4c0-2,0.7-3.7,2.1-5c1.4-1.3,3.7-2,6.7-2h6.8v-1.9
		c0-0.8-0.2-1.5-0.5-2.1s-0.9-1-1.7-1.2c-0.8-0.3-2.1-0.4-3.7-0.4h-8v-4.3c1.3-0.4,2.8-0.8,4.5-1.1c1.7-0.3,3.8-0.4,6.2-0.4
		c2.2,0,4.1,0.3,5.7,0.8c1.6,0.5,2.8,1.4,3.6,2.8c0.8,1.3,1.2,3.1,1.2,5.4v18.2h-5.8l-1.2-2.9c-0.2,0.3-0.6,0.6-1.2,0.9
		c-0.6,0.3-1.3,0.7-2.1,1c-0.8,0.3-1.7,0.6-2.8,0.9C789.4,173.5,788.3,173.6,787.2,173.6z M790.9,168.4c0.3,0,0.7,0,1.1-0.1
		c0.4-0.1,0.8-0.2,1.3-0.3c0.5-0.1,0.9-0.2,1.3-0.4c0.4-0.1,0.7-0.2,1-0.3c0.2-0.1,0.4-0.2,0.5-0.2v-6.2l-4.5,0.3
		c-1.3,0.1-2.3,0.4-2.9,1c-0.6,0.6-0.9,1.3-0.9,2.3v1.1c0,0.7,0.1,1.2,0.4,1.6c0.3,0.4,0.7,0.7,1.2,0.9
		C789.8,168.3,790.3,168.4,790.9,168.4z"/>
	<path d="M819.2,173.3c-2.1,0-3.7-0.3-5-0.9s-2.2-1.6-2.8-3c-0.6-1.4-0.8-3.3-0.8-5.6l0.3-11.3h-4.2v-4.8l4.5-1.2l1-7.5h5.8v7.5h6.3
		v6H818v11.3c0,0.7,0.1,1.3,0.2,1.8c0.1,0.5,0.3,0.8,0.6,1.1c0.3,0.3,0.5,0.5,0.9,0.6c0.3,0.1,0.7,0.2,1,0.3l3.4,0.3v5.5H819.2z"/>
	<path d="M839.7,173.5c-3,0-5.3-0.4-7.1-1.2c-1.8-0.8-3-2.2-3.8-4.2c-0.8-2-1.2-4.8-1.2-8.3c0-3.6,0.4-6.4,1.1-8.4s2-3.4,3.7-4.2
		c1.7-0.8,4.1-1.2,7-1.2c2.7,0,4.8,0.3,6.4,0.8c1.6,0.5,2.8,1.5,3.5,2.8c0.7,1.3,1.1,3.2,1.1,5.6c0,1.8-0.4,3.2-1.1,4.3
		c-0.7,1.1-1.7,1.8-3,2.3c-1.3,0.5-2.8,0.7-4.6,0.7H835c0.1,1.4,0.3,2.5,0.6,3.3c0.4,0.8,1,1.4,2,1.8c1,0.4,2.3,0.5,4.1,0.5h7.8v4.4
		c-1.3,0.3-2.7,0.5-4.3,0.8C843.7,173.4,841.9,173.5,839.7,173.5z M834.9,158.1h6.1c1,0,1.7-0.2,2.2-0.6c0.5-0.4,0.7-1.1,0.7-2.1
		c0-1-0.1-1.7-0.4-2.3c-0.3-0.6-0.8-1-1.4-1.2c-0.6-0.3-1.5-0.4-2.5-0.4c-1.1,0-2,0.2-2.7,0.6c-0.7,0.4-1.1,1.1-1.4,2
		C835,154.9,834.9,156.3,834.9,158.1z"/>
	<path d="M855.3,173.3v-26.8h5.7l1.7,4.1c1-1.2,2.1-2.3,3.3-3.1c1.2-0.9,2.7-1.3,4.3-1.3c0.4,0,0.7,0,1.1,0c0.4,0,0.7,0.1,1.1,0.2
		v7.6c-0.5-0.1-1-0.1-1.6-0.2c-0.6,0-1.1-0.1-1.6-0.1c-1,0-1.8,0.1-2.6,0.3c-0.8,0.2-1.5,0.5-2.1,1c-0.7,0.4-1.3,1-1.9,1.6v16.7
		H855.3z"/>
	<path d="M877.3,142.5c-0.7,0-1-0.3-1-1v-4.9c0-0.7,0.3-1,1-1h5.7c0.3,0,0.5,0.1,0.7,0.3c0.2,0.2,0.3,0.5,0.3,0.8v4.9
		c0,0.7-0.3,1-1,1H877.3z M876.4,173.3v-26.8h7.4v26.8H876.4z"/>
	<path d="M895.2,173.6c-2,0-3.7-0.6-5-1.8c-1.3-1.2-1.9-2.9-1.9-5v-2.4c0-2,0.7-3.7,2.1-5c1.4-1.3,3.7-2,6.7-2h6.8v-1.9
		c0-0.8-0.2-1.5-0.5-2.1s-0.9-1-1.7-1.2c-0.8-0.3-2.1-0.4-3.7-0.4h-8v-4.3c1.3-0.4,2.8-0.8,4.5-1.1c1.7-0.3,3.8-0.4,6.2-0.4
		c2.2,0,4.1,0.3,5.7,0.8c1.6,0.5,2.8,1.4,3.6,2.8c0.8,1.3,1.2,3.1,1.2,5.4v18.2h-5.8l-1.2-2.9c-0.2,0.3-0.6,0.6-1.2,0.9
		c-0.6,0.3-1.3,0.7-2.1,1c-0.8,0.3-1.7,0.6-2.8,0.9C897.4,173.5,896.3,173.6,895.2,173.6z M899,168.4c0.3,0,0.7,0,1.1-0.1
		c0.4-0.1,0.8-0.2,1.3-0.3c0.5-0.1,0.9-0.2,1.3-0.4c0.4-0.1,0.7-0.2,1-0.3c0.2-0.1,0.4-0.2,0.5-0.2v-6.2l-4.5,0.3
		c-1.3,0.1-2.3,0.4-2.9,1c-0.6,0.6-0.9,1.3-0.9,2.3v1.1c0,0.7,0.1,1.2,0.4,1.6c0.3,0.4,0.7,0.7,1.2,0.9
		C897.8,168.3,898.4,168.4,899,168.4z"/>
	<path d="M925.4,173.4c-1.9,0-3.5-0.3-4.7-0.9c-1.3-0.6-2.2-1.6-2.8-2.8c-0.6-1.3-0.9-2.9-0.9-5v-29.5h7.4v28.4c0,1,0.1,1.8,0.3,2.4
		c0.2,0.6,0.5,1,0.9,1.3c0.4,0.3,0.9,0.4,1.6,0.5l2,0.3v5.4H925.4z"/>
	<path d="M933.5,153.5c-0.7,0-1-0.3-1-1v-5.1c0-0.7,0.3-1,1-1h4.3c0.7,0,1.1,0.4,1.1,1v5.1c0,0.4-0.1,0.7-0.3,0.8
		c-0.2,0.1-0.5,0.2-0.8,0.2H933.5z M933.5,173.3c-0.7,0-1-0.3-1-1v-5.1c0-0.7,0.3-1,1-1h4.3c0.7,0,1.1,0.4,1.1,1v5.1
		c0,0.4-0.1,0.7-0.3,0.8c-0.2,0.1-0.5,0.2-0.8,0.2H933.5z"/>
	<path d="M956.6,173.3l4.3-37h7.1l8.5,28.3l8.5-28.3h7l4.3,37h-7.1L986,146l1.2,0.1l-7.3,27.1h-7l-7.3-27.1l1.3,0l-3.1,27.2H956.6z"
		/>
	<path d="M1001.8,173.3v-37h15.6c2.5,0,4.6,0.4,6.2,1.3c1.7,0.9,3,2.1,4,3.8c1,1.6,1.7,3.6,2.1,5.9c0.4,2.3,0.6,4.8,0.6,7.5
		c0,4.2-0.5,7.6-1.4,10.3c-1,2.7-2.4,4.8-4.3,6.1c-1.9,1.4-4.3,2-7.2,2H1001.8z M1009.2,166.6h7.5c1.5,0,2.8-0.4,3.6-1.3
		c0.9-0.9,1.6-2.2,2-4c0.4-1.8,0.6-3.9,0.6-6.5c0-2.4-0.1-4.4-0.4-5.9c-0.3-1.6-0.7-2.8-1.2-3.6c-0.5-0.9-1.2-1.5-2-1.8
		c-0.8-0.3-1.7-0.5-2.7-0.5h-7.5V166.6z"/>
	<path d="M1035.8,173.3v-28.5c0-1.6,0.3-3,0.8-4.1c0.5-1.1,1.2-2,2-2.6c0.8-0.6,1.7-1.1,2.7-1.4c1-0.3,2-0.4,3-0.4
		c1.2,0,2.7,0,4.5,0c1.8,0,3.7,0.1,5.7,0.2c2,0.1,4,0.3,5.8,0.4v6.2h-13.9c-1,0-1.8,0.3-2.3,0.8c-0.5,0.5-0.8,1.3-0.8,2.2v6.3
		l14.6,0.4v5.8l-14.6,0.4v14.2H1035.8z"/>
</g>
<polyline class="st11" points="473,187.3 1082.7,187.3 1082.7,495.4 "/>
<path class="st12" d="M473,163.3c13.3,0,24,10.7,24,24c0,13.3-10.7,24-24,24c-13.3,0-24-10.7-24-24C449,174,459.7,163.3,473,163.3"
	/>
<path class="st13" d="M473,175.3c6.6,0,12,5.4,12,12c0,6.6-5.4,12-12,12c-6.6,0-12-5.4-12-12C461,180.7,466.3,175.3,473,175.3"/>
<path class="st14" d="M1035.7,617.6c5.6-0.1,11.2,1.5,18.5,4.8c1.4,0.6,2.2,2,2.2,3.5c0,2.1-1.7,3.8-3.8,3.8c-0.5,0-1.1-0.1-1.6-0.3
	c-12.4-5.6-15.5-5.8-26.9-1.6c-0.4,0.2-0.9,0.2-1.3,0.2c-2.1,0-3.8-1.7-3.8-3.8c0-1.6,1-3.1,2.5-3.6
	C1026.9,618.6,1031.3,617.7,1035.7,617.6L1035.7,617.6z M1059.4,519.8c-0.8,0.1-1.6,0.5-2.1,1.1c-7.9,8.1-12.4,17.3-12.6,26.9
	c-0.2,9.6,4.2,19.1,12.7,27.4c0.7,0.7,1.7,1.1,2.7,1.1c0.1,0,0.3,0,0.4,0l21.3-2.4c0.6-0.1,1.1-0.3,1.6-0.6l10-6.5
	c6.1,18.7,12.6,40.6,21,58.1c-6-3.2-11.3-5.4-16.6-6.2c-7.3-1.1-14.4,0.8-22.3,5.8c-8-14.5-19.4-22.1-31.8-24.1
	c-13.4-2.2-27.6,1.8-40.2,8.7c-1.2,0.7-2,1.9-2,3.3v0l-0.2,57c0,0,0,0,0,0c0,1.1,0.5,2.1,1.2,2.8c17,15,37.9,14.6,58.9,7.1
	c37.3,14.3,72.8,9.9,104.8-13.8c0.7-0.6,1.2-1.4,1.4-2.3c5.6-25.4-3.2-60-22.1-89.2c-18.9-29.2-48.5-52.9-85.4-54.5
	c-0.1,0-0.3,0-0.4,0C1059.7,519.8,1059.5,519.8,1059.4,519.8L1059.4,519.8z"/>
<polygon points="1107.2,963.9 1066.7,963.9 1087,1040.6 "/>
<polygon points="1111.3,963.9 1091.3,1039.6 1151.4,963.9 "/>
<polygon points="1132.7,926.3 1123,943.1 1113.3,959.9 1152.1,959.9 "/>
<polygon points="1022.6,963.9 1082.7,1039.6 1062.6,963.9 "/>
<polygon points="1077.3,943.1 1067.6,959.9 1106.4,959.9 1096.7,943.1 1087,926.3 "/>
<polygon points="1100.1,941.1 1109.8,957.9 1129.2,924.3 1090.4,924.3 "/>
<polygon points="1064.1,957.9 1073.9,941.1 1083.6,924.3 1044.7,924.3 "/>
<polygon points="1021.9,959.9 1060.7,959.9 1051,943.1 1041.3,926.3 "/>
<path d="M996.7,931.6l-9.6-1.4l-4.3-8.7c-0.3-0.7-1-1.1-1.8-1.1c-0.8,0-1.5,0.4-1.8,1.1l-4.3,8.7l-9.6,1.4c-0.8,0.1-1.4,0.6-1.6,1.3
	c-0.2,0.7,0,1.5,0.5,2l7,6.8l-1.7,9.6c-0.1,0.8,0.2,1.5,0.8,1.9c0.6,0.4,1.4,0.5,2.1,0.1l8.6-4.5l8.6,4.5c0.3,0.1,0.6,0.2,0.9,0.2
	c0.4,0,0.8-0.1,1.2-0.4c0.6-0.4,0.9-1.2,0.8-1.9l-1.7-9.6l7-6.8c0.6-0.5,0.7-1.3,0.5-2C998.1,932.2,997.5,931.7,996.7,931.6"/>
<path d="M990.8,1004.2l1.7-9.6c0.1-0.8-0.2-1.5-0.8-1.9c-0.6-0.4-1.4-0.5-2.1-0.1l-8.6,4.5l-8.6-4.5c-0.7-0.3-1.5-0.3-2.1,0.1
	c-0.6,0.4-0.9,1.2-0.8,1.9l1.7,9.6l-7,6.8c-0.6,0.5-0.7,1.3-0.5,2c0.2,0.7,0.8,1.2,1.6,1.3l9.6,1.4l4.3,8.7c0.3,0.7,1,1.1,1.8,1.1
	c0.8,0,1.5-0.4,1.8-1.1l4.3-8.7l9.6-1.4c0.8-0.1,1.4-0.6,1.6-1.3c0.2-0.7,0-1.5-0.5-2L990.8,1004.2z"/>
<path d="M1037.2,1056.2l-9.6-1.4l-4.3-8.7c-0.3-0.7-1-1.1-1.8-1.1c-0.8,0-1.5,0.4-1.8,1.1l-4.3,8.7l-9.6,1.4
	c-0.8,0.1-1.4,0.6-1.6,1.3c-0.2,0.7,0,1.5,0.5,2l7,6.8l-1.7,9.6c-0.1,0.8,0.2,1.5,0.8,1.9c0.6,0.4,1.4,0.5,2.1,0.1l8.6-4.5l8.6,4.5
	c0.3,0.1,0.6,0.2,0.9,0.2c0.4,0,0.8-0.1,1.2-0.4c0.6-0.4,0.9-1.2,0.8-1.9l-1.7-9.6l7-6.8c0.6-0.5,0.7-1.3,0.5-2
	C1038.5,1056.8,1037.9,1056.3,1037.2,1056.2"/>
<path d="M1096.8,1081.2l1.7-9.6c0.1-0.8-0.2-1.5-0.8-1.9c-0.6-0.4-1.4-0.5-2.1-0.1l-8.6,4.5l-8.6-4.5c-0.7-0.3-1.5-0.3-2.1,0.1
	c-0.6,0.4-0.9,1.2-0.8,1.9l1.7,9.6l-7,6.8c-0.6,0.5-0.7,1.3-0.5,2c0.2,0.7,0.8,1.2,1.6,1.3l9.6,1.4l4.3,8.7c0.3,0.7,1,1.1,1.8,1.1
	c0.8,0,1.5-0.4,1.8-1.1l4.3-8.7l9.6-1.4c0.8-0.1,1.4-0.6,1.6-1.3c0.2-0.7,0-1.5-0.5-2L1096.8,1081.2z"/>
<path d="M1168.2,1056.2l-9.6-1.4l-4.3-8.7c-0.3-0.7-1-1.1-1.8-1.1c-0.8,0-1.5,0.4-1.8,1.1l-4.3,8.7l-9.6,1.4
	c-0.8,0.1-1.4,0.6-1.6,1.3c-0.2,0.7,0,1.5,0.5,2l7,6.8l-1.7,9.6c-0.1,0.8,0.2,1.5,0.8,1.9c0.6,0.4,1.4,0.5,2.1,0.1l8.6-4.5l8.6,4.5
	c0.3,0.1,0.6,0.2,0.9,0.2c0.4,0,0.8-0.1,1.2-0.4c0.6-0.4,0.9-1.2,0.8-1.9l-1.7-9.6l7-6.8c0.6-0.5,0.7-1.3,0.5-2
	C1169.5,1056.8,1168.9,1056.3,1168.2,1056.2"/>
<path d="M1202.8,1004.2l1.7-9.6c0.1-0.8-0.2-1.5-0.8-1.9c-0.6-0.4-1.4-0.5-2.1-0.1l-8.6,4.5l-8.6-4.5c-0.7-0.3-1.5-0.3-2.1,0.1
	c-0.6,0.4-0.9,1.2-0.8,1.9l1.7,9.6l-7,6.8c-0.6,0.5-0.7,1.3-0.5,2c0.2,0.7,0.8,1.2,1.6,1.3l9.6,1.4l4.3,8.7c0.3,0.7,1,1.1,1.8,1.1
	c0.8,0,1.5-0.4,1.8-1.1l4.3-8.7l9.7-1.4c0.8-0.1,1.4-0.6,1.6-1.3c0.2-0.7,0-1.5-0.5-2L1202.8,1004.2z"/>
<path d="M1208.7,931.6l-9.6-1.4l-4.3-8.7c-0.3-0.7-1-1.1-1.8-1.1c-0.8,0-1.5,0.4-1.8,1.1l-4.3,8.7l-9.6,1.4
	c-0.8,0.1-1.4,0.6-1.6,1.3c-0.2,0.7,0,1.5,0.5,2l7,6.8l-1.7,9.6c-0.1,0.8,0.2,1.5,0.8,1.9c0.3,0.3,0.8,0.4,1.2,0.4
	c0.3,0,0.6-0.1,0.9-0.2l8.6-4.5l8.6,4.5c0.7,0.3,1.5,0.3,2.1-0.1s0.9-1.2,0.8-1.9l-1.7-9.6l7-6.8c0.6-0.5,0.7-1.3,0.5-2
	C1210,932.2,1209.4,931.7,1208.7,931.6"/>
<g>
	<path d="M986.8,1162.9v-37h15.6c1.2,0,2.4,0.1,3.7,0.4c1.3,0.3,2.4,0.8,3.5,1.7c1,0.9,1.9,2.1,2.5,3.8c0.7,1.7,1,4,1,6.8
		s-0.3,5.1-1,6.8c-0.6,1.7-1.5,3-2.5,3.9c-1,0.9-2.2,1.5-3.4,1.8c-1.2,0.3-2.4,0.5-3.5,0.5c-0.6,0-1.3,0-2.1-0.1
		c-0.8,0-1.6-0.1-2.4-0.2c-0.8-0.1-1.6-0.2-2.3-0.3c-0.7-0.1-1.3-0.2-1.7-0.2v12.1H986.8z M994.2,1145h7.3c0.9,0,1.6-0.2,2.2-0.6
		c0.6-0.4,1.1-1.1,1.4-2c0.3-0.9,0.5-2.1,0.5-3.7c0-1.5-0.2-2.7-0.5-3.6c-0.3-0.9-0.8-1.5-1.4-1.9c-0.6-0.4-1.3-0.6-2.1-0.6h-7.5
		V1145z"/>
	<path d="M1017.9,1162.9v-37h15.3c1.5,0,2.8,0.2,4.1,0.5s2.4,1,3.4,1.8c1,0.9,1.7,2.1,2.3,3.6c0.5,1.5,0.8,3.5,0.8,5.9
		c0,1.7-0.2,3.2-0.5,4.4c-0.3,1.2-0.8,2.2-1.3,2.9c-0.5,0.8-1.2,1.4-1.9,1.9c-0.7,0.5-1.4,0.8-2.1,1.1l6.9,14.8h-7.5l-5.9-13.7
		c-0.4,0-0.9,0-1.4,0c-0.5,0-1,0-1.6,0s-1.1,0-1.6,0c-0.5,0-1,0-1.5-0.1v13.8H1017.9z M1025.3,1143.3h6.6c0.7,0,1.3-0.1,1.8-0.3
		c0.5-0.2,1-0.5,1.4-0.9c0.4-0.4,0.7-1,0.9-1.7s0.3-1.6,0.3-2.7c0-1-0.1-1.9-0.3-2.6c-0.2-0.7-0.5-1.2-0.9-1.6
		c-0.4-0.4-0.9-0.6-1.4-0.8c-0.5-0.1-1.1-0.2-1.8-0.2h-6.6V1143.3z"/>
	<path d="M1058.2,1163.1c-0.8,0-1.7-0.1-2.8-0.2c-1-0.2-2-0.5-3-1s-1.7-1.3-2.3-2.4c-0.6-1.1-0.9-2.6-0.9-4.5v-20.6
		c0-1.6,0.3-3,0.8-4.1c0.5-1.1,1.2-2,2-2.6c0.8-0.6,1.7-1.1,2.7-1.3c1-0.3,2-0.4,3-0.4c2.5,0,4.7,0,6.6,0.1c1.9,0.1,3.6,0.1,5.2,0.2
		c1.5,0.1,2.9,0.2,4.2,0.3v6.2h-13.8c-1,0-1.8,0.3-2.4,0.8s-0.8,1.3-0.8,2.3v5.3l14.6,0.4v5.9l-14.6,0.4v5.1c0,0.9,0.1,1.5,0.4,2
		c0.3,0.5,0.7,0.8,1.2,1c0.5,0.2,1,0.3,1.5,0.3h13.9v6.2c-1.5,0.2-3.1,0.3-4.9,0.4c-1.8,0.1-3.6,0.2-5.4,0.3
		C1061.6,1163.1,1059.8,1163.1,1058.2,1163.1z"/>
	<path d="M1078.1,1162.9l4.3-37h7.1l8.5,28.3l8.5-28.3h7l4.3,37h-7.1l-3.2-27.2l1.2,0.1l-7.3,27.1h-7l-7.3-27.1l1.3-0.1l-3.1,27.2
		H1078.1z"/>
	<path d="M1123.2,1162.9v-37h7.4v37H1123.2z"/>
	<path d="M1151,1163.1c-2,0-3.9-0.2-5.7-0.5c-1.8-0.3-3.3-1-4.6-1.8c-1.3-0.9-2.3-2.1-3.1-3.7c-0.7-1.6-1.1-3.6-1.1-6.1v-25.1h7.4
		v25c0,1.4,0.3,2.4,0.8,3.3c0.5,0.8,1.3,1.4,2.4,1.7c1,0.4,2.3,0.6,3.8,0.6c1.5,0,2.7-0.2,3.8-0.6c1.1-0.4,1.9-0.9,2.4-1.7
		c0.5-0.8,0.8-1.9,0.8-3.3v-25h7.4v25.1c0,2.5-0.4,4.5-1.1,6.1c-0.7,1.6-1.8,2.8-3,3.7c-1.3,0.9-2.8,1.5-4.6,1.8
		C1154.9,1163,1153,1163.1,1151,1163.1z"/>
</g>
<g>
	<path d="M1168.8,1162.9l4.3-37h7.1l8.5,28.3l8.5-28.3h7l4.3,37h-7.1l-3.2-27.2l1.2,0.1l-7.3,27.1h-7l-7.3-27.1l1.3-0.1l-3.1,27.2
		H1168.8z"/>
</g>
<line class="st11" x1="1082.7" y1="801.9" x2="1082.7" y2="897.4"/>
<g>
	<path d="M934.7,756.9v-37H950c1.5,0,2.8,0.2,4.1,0.5s2.4,1,3.4,1.8c1,0.9,1.7,2.1,2.3,3.6c0.5,1.5,0.8,3.5,0.8,5.9
		c0,1.7-0.2,3.1-0.5,4.3c-0.3,1.2-0.8,2.2-1.3,3c-0.5,0.8-1.2,1.4-1.9,1.8c-0.7,0.5-1.4,0.9-2.1,1.1l6.9,14.8h-7.5l-5.9-13.7
		c-0.4,0-0.9,0-1.4,0c-0.5,0-1,0-1.6,0s-1.1,0-1.6,0c-0.5,0-1,0-1.5,0v13.8H934.7z M942.1,737.2h6.6c0.7,0,1.3-0.1,1.8-0.3
		c0.5-0.2,1-0.5,1.4-0.9c0.4-0.4,0.7-1,0.9-1.7c0.2-0.7,0.3-1.6,0.3-2.7c0-1-0.1-1.9-0.3-2.6c-0.2-0.7-0.5-1.2-0.9-1.6
		c-0.4-0.4-0.9-0.6-1.4-0.8c-0.5-0.1-1.1-0.2-1.8-0.2h-6.6V737.2z"/>
	<path d="M975.1,757.1c-0.8,0-1.7-0.1-2.8-0.2s-2-0.5-3-1c-1-0.5-1.7-1.3-2.3-2.4c-0.6-1.1-0.9-2.6-0.9-4.5v-20.6
		c0-1.6,0.3-3,0.8-4.1c0.5-1.1,1.2-2,2-2.6c0.8-0.6,1.7-1.1,2.7-1.4c1-0.3,2-0.4,3-0.4c2.5,0,4.7,0,6.6,0.1c1.9,0.1,3.6,0.1,5.2,0.2
		c1.5,0.1,2.9,0.2,4.2,0.3v6.2h-13.8c-1,0-1.8,0.3-2.4,0.8s-0.8,1.3-0.8,2.3v5.4l14.6,0.4v5.8l-14.6,0.4v5.1c0,0.9,0.1,1.5,0.4,2
		c0.3,0.5,0.7,0.8,1.2,1c0.5,0.2,1,0.3,1.5,0.3h13.9v6.2c-1.5,0.2-3.1,0.3-4.9,0.4c-1.8,0.1-3.6,0.2-5.4,0.3
		C978.4,757.1,976.7,757.1,975.1,757.1z"/>
	<path d="M1007.1,757.2c-1,0-2,0-3-0.1c-1-0.1-2.1-0.1-3.1-0.3c-1-0.1-2-0.3-3-0.4c-0.9-0.2-1.8-0.3-2.5-0.5v-5.8
		c1,0.1,2.1,0.2,3.4,0.3c1.3,0.1,2.6,0.1,4,0.1c1.4,0,2.7,0.1,3.9,0.1c1.3,0,2.4-0.1,3.3-0.3c0.9-0.2,1.6-0.6,2.1-1.1
		s0.8-1.3,0.8-2.3v-1.4c0-1.1-0.3-1.9-1-2.5c-0.6-0.6-1.6-0.9-2.8-0.9h-3.2c-3.5,0-6.2-0.8-8.1-2.3c-1.9-1.5-2.8-4.2-2.8-7.9V730
		c0-3.6,1-6.2,3.1-7.9c2.1-1.7,5-2.5,8.8-2.5c1.4,0,2.7,0.1,4.1,0.2c1.3,0.1,2.7,0.3,3.9,0.5c1.3,0.2,2.3,0.4,3.2,0.6v5.8
		c-1.5-0.1-3.2-0.2-5.1-0.3c-1.9-0.1-3.6-0.1-5.2-0.1c-1.1,0-2.1,0.1-3,0.3c-0.9,0.2-1.6,0.6-2,1.2c-0.5,0.6-0.7,1.4-0.7,2.5v1
		c0,1.3,0.4,2.2,1.1,2.8c0.7,0.6,1.8,0.9,3.3,0.9h3.7c2.2,0,4.1,0.4,5.5,1.2c1.5,0.8,2.5,1.9,3.3,3.4c0.7,1.4,1.1,3.1,1.1,4.9v2.1
		c0,2.9-0.5,5.1-1.6,6.6c-1.1,1.5-2.6,2.6-4.5,3.1C1011.9,756.9,1009.7,757.2,1007.1,757.2z"/>
	<path d="M1025.4,756.9v-37h7.4v37H1025.4z"/>
	<path d="M1050.3,757.2c-1,0-2,0-3-0.1c-1-0.1-2.1-0.1-3.1-0.3c-1-0.1-2-0.3-3-0.4c-0.9-0.2-1.8-0.3-2.5-0.5v-5.8
		c1,0.1,2.1,0.2,3.4,0.3c1.3,0.1,2.6,0.1,4,0.1c1.4,0,2.7,0.1,3.9,0.1c1.3,0,2.4-0.1,3.3-0.3c0.9-0.2,1.6-0.6,2.1-1.1
		s0.8-1.3,0.8-2.3v-1.4c0-1.1-0.3-1.9-1-2.5c-0.6-0.6-1.6-0.9-2.8-0.9h-3.2c-3.5,0-6.2-0.8-8.1-2.3c-1.9-1.5-2.8-4.2-2.8-7.9V730
		c0-3.6,1-6.2,3.1-7.9c2.1-1.7,5-2.5,8.8-2.5c1.4,0,2.7,0.1,4.1,0.2c1.3,0.1,2.7,0.3,3.9,0.5c1.3,0.2,2.3,0.4,3.2,0.6v5.8
		c-1.5-0.1-3.2-0.2-5.1-0.3c-1.9-0.1-3.6-0.1-5.2-0.1c-1.1,0-2.1,0.1-3,0.3c-0.9,0.2-1.6,0.6-2,1.2c-0.5,0.6-0.7,1.4-0.7,2.5v1
		c0,1.3,0.4,2.2,1.1,2.8c0.7,0.6,1.8,0.9,3.3,0.9h3.7c2.2,0,4.1,0.4,5.5,1.2c1.5,0.8,2.5,1.9,3.3,3.4c0.7,1.4,1.1,3.1,1.1,4.9v2.1
		c0,2.9-0.5,5.1-1.6,6.6c-1.1,1.5-2.6,2.6-4.5,3.1C1055.1,756.9,1052.9,757.2,1050.3,757.2z"/>
	<path d="M1076.4,756.9v-30.3h-10.1v-6.6h27.7v6.6h-10.2v30.3H1076.4z"/>
</g>
<g>
	<path d="M1106.5,757.1c-0.8,0-1.7-0.1-2.8-0.2s-2-0.5-3-1c-1-0.5-1.7-1.3-2.3-2.4c-0.6-1.1-0.9-2.6-0.9-4.5v-20.6
		c0-1.6,0.3-3,0.8-4.1c0.5-1.1,1.2-2,2-2.6c0.8-0.6,1.7-1.1,2.7-1.4c1-0.3,2-0.4,3-0.4c2.5,0,4.7,0,6.6,0.1c1.9,0.1,3.6,0.1,5.2,0.2
		c1.5,0.1,2.9,0.2,4.2,0.3v6.2h-13.8c-1,0-1.8,0.3-2.4,0.8s-0.8,1.3-0.8,2.3v5.4l14.6,0.4v5.8l-14.6,0.4v5.1c0,0.9,0.1,1.5,0.4,2
		c0.3,0.5,0.7,0.8,1.2,1c0.5,0.2,1,0.3,1.5,0.3h13.9v6.2c-1.5,0.2-3.1,0.3-4.9,0.4c-1.8,0.1-3.6,0.2-5.4,0.3
		C1109.8,757.1,1108.1,757.1,1106.5,757.1z"/>
	<path d="M1127.6,756.9v-37h5.9l15.5,24.4v-24.4h7.4v37h-6l-15.4-24.4v24.4H1127.6z"/>
	<path d="M1175,757.2c-2.2,0-4.1-0.3-5.7-0.8c-1.7-0.5-3-1.4-4.2-2.7c-1.1-1.3-2-3.2-2.6-5.7c-0.6-2.5-0.9-5.7-0.9-9.7
		c0-3.8,0.3-7,0.9-9.4c0.6-2.4,1.5-4.3,2.7-5.7s2.6-2.3,4.3-2.8c1.7-0.5,3.5-0.8,5.6-0.8c1.7,0,3.2,0.1,4.7,0.3
		c1.5,0.2,2.8,0.4,3.9,0.7s2.2,0.5,3,0.8v5.8c-0.6-0.1-1.4-0.3-2.4-0.4c-1-0.1-2.2-0.2-3.5-0.3c-1.3-0.1-2.7-0.1-4.1-0.1
		c-1.4,0-2.6,0.2-3.6,0.5c-1,0.3-1.8,0.9-2.3,1.8c-0.6,0.8-1,2.1-1.3,3.7c-0.3,1.6-0.4,3.7-0.4,6.2c0,2.5,0.1,4.5,0.4,6.1
		c0.3,1.6,0.7,2.8,1.2,3.7c0.6,0.9,1.3,1.5,2.3,1.9c1,0.3,2.2,0.5,3.7,0.5c2.5,0,4.6-0.1,6.2-0.1c1.6-0.1,2.9-0.2,3.8-0.4v5.7
		c-0.9,0.3-1.9,0.6-3.1,0.8c-1.2,0.2-2.5,0.4-3.8,0.5C1178.3,757.1,1176.7,757.2,1175,757.2z"/>
	<path d="M1191.8,756.9v-37h7.4v37H1191.8z"/>
	<path d="M1203.3,756.9l11.6-37h9.3l11.6,37h-7.7l-2.4-7.7h-12.6l-2.3,7.7H1203.3z M1214.9,742.5h9.1l-4.5-16.2L1214.9,742.5z"/>
</g>
</svg>
