<?xml version="1.0" encoding="utf-8"?>
<!-- Generator: Adobe Illustrator 24.0.2, SVG Export Plug-In . SVG Version: 6.00 Build 0)  -->
<svg version="1.1" id="Capa_1" xmlns="http://www.w3.org/2000/svg" xmlns:xlink="http://www.w3.org/1999/xlink" x="0px" y="0px"
	 viewBox="0 0 320 500" style="enable-background:new 0 0 320 500;" xml:space="preserve">
<style type="text/css">
	.st0{clip-path:url(#SVGID_2_);fill:url(#SVGID_3_);}
	.st1{fill:none;stroke:#fff;stroke-width:3;}
	.materiales{fill:#000;}
	.line1{fill:none;stroke:#000;stroke-width:2;}
	.circuloLine{fill-rule:evenodd;clip-rule:evenodd;fill:#000;}
	.circulo{fill-rule:evenodd;clip-rule:evenodd;fill:#fff;}
	.line2{fill:none;stroke:#000;stroke-width:1;}
	.duradero{fill:#00;}
	.lijero{fill:#000;}
	.line3{fill:none;stroke:#000;stroke-width:1;}
	.precio{fill:#000000;}
</style>
<g>
	<g>
		<defs>
			<path id="SVGID_1_" d="M132.6,147.1l-49-14.5v-16l49-14.5v13.2l-7.8,2v14.7l7.8,1.9V147.1z M132.6,186h-49v-20.9
				c0-2.2,0.3-4.2,0.8-5.9s1.4-3.4,2.6-4.7s3-2.4,5.1-3.1c2.1-0.7,4.7-1.1,8-1.1c2,0,3.8,0.2,5.3,0.5c1.5,0.3,2.8,0.8,3.8,1.4
				c1.1,0.6,1.9,1.3,2.6,2.1c0.7,0.9,1.3,1.7,1.8,2.6l19-8.5v13l-16.9,6.9c0,0.4,0,0.8,0,1.2c0,0.5,0,0.9,0,1.3c0,0.4,0,0.8,0,1.2
				c0,0.5,0,0.9,0,1.3h16.9V186z M133,212.9c0,1.1-0.1,2.3-0.3,3.8c-0.2,1.5-0.7,2.9-1.5,4.3c-0.7,1.4-1.9,2.6-3.5,3.5
				c-1.5,0.9-3.7,1.4-6.4,1.4H95.8c-2.4,0-4.4-0.4-5.9-1.1c-1.6-0.7-2.8-1.7-3.8-2.9c-0.9-1.2-1.5-2.5-1.9-4
				c-0.3-1.5-0.5-2.8-0.5-4.2c0-3.7,0.1-6.9,0.1-9.6c0.1-2.6,0.3-4.9,0.4-6.9c0.1-1.9,0.3-3.6,0.5-5.1h10.8v17.7
				c0,1.1,0.3,1.9,0.7,2.5s1.2,0.9,2.2,0.9h4.1l0.7-17.7h10.2l0.7,17.7h3.7c0.8,0,1.5-0.1,1.9-0.4c0.5-0.2,0.9-0.5,1.1-1
				c0.3-0.5,0.4-0.9,0.4-1.4V192h10.8c0.3,1.9,0.5,4,0.7,6.5c0.2,2.4,0.3,4.9,0.4,7.4C133,208.4,133,210.7,133,212.9z M132.6,255
				H95.1v12.3H83.7v-37.4h11.5v12.3h37.5V255z M132.6,312.2h-49V302l27.3-17.2H83.7V272h49v10.2l-27.3,17.2h27.3V312.2z M133,338.6
				c0,2.7-0.2,5.2-0.7,7.6c-0.5,2.4-1.3,4.5-2.4,6.4c-1.2,1.8-2.8,3.3-5,4.3c-2.2,1.1-4.9,1.6-8.4,1.6H83.7v-12.8h32.8
				c1.1,0,2.1-0.3,2.8-0.9c0.7-0.5,1.3-1.3,1.6-2.4c0.4-1.1,0.6-2.3,0.6-3.8s-0.2-2.8-0.6-3.8c-0.3-1.1-0.9-1.8-1.6-2.4
				c-0.7-0.5-1.7-0.8-2.8-0.8H83.7v-12.8h32.8c3.4,0,6.2,0.5,8.4,1.5c2.2,1.1,3.8,2.5,5,4.4s2,4,2.4,6.3
				C132.8,333.3,133,335.9,133,338.6z M132.6,399.5h-49V378c0-1.6,0.2-3.4,0.5-5.1c0.4-1.8,1.2-3.4,2.3-4.9c1.2-1.5,3-2.6,5.3-3.6
				c2.4-0.9,5.5-1.3,9.4-1.3c4,0,7.1,0.5,9.5,1.3c2.4,0.9,4.2,2,5.4,3.4c1.3,1.4,2,2.9,2.4,4.5c0.5,1.6,0.7,3.3,0.7,4.9
				c0,0.9-0.1,1.7-0.1,2.6c-0.1,0.9-0.2,1.8-0.4,2.6c-0.1,0.9-0.3,1.6-0.5,2.4c-0.1,0.7-0.3,1.4-0.3,1.8h14.8V399.5z M113.4,129.1
				v-8.8l-18.9,4.4L113.4,129.1z M105.6,173.2v-5.8c0-0.7-0.1-1.3-0.3-1.8c-0.2-0.5-0.5-1-0.9-1.4c-0.5-0.3-1-0.6-1.7-0.8
				c-0.7-0.2-1.5-0.3-2.4-0.3s-1.8,0.1-2.4,0.3c-0.7,0.2-1.2,0.5-1.6,0.8c-0.3,0.4-0.6,0.9-0.8,1.4c-0.2,0.5-0.3,1.1-0.3,1.8v5.8
				H105.6z M107.7,386.7v-7.4c0-0.9-0.3-1.6-0.7-2.1c-0.5-0.5-1.2-0.9-2.2-1.1c-0.9-0.2-2.1-0.3-3.5-0.3c-1.4,0-2.5,0.1-3.4,0.3
				c-0.9,0.3-1.6,0.7-2.1,1.1s-0.7,1.1-0.7,2v7.4H107.7z"/>
		</defs>
		<clipPath id="SVGID_2_">
			<use xlink:href="#SVGID_1_"  style="overflow:visible;"/>
		</clipPath>
		<linearGradient id="SVGID_3_" gradientUnits="userSpaceOnUse" x1="83.6275" y1="250" x2="133.0402" y2="250">
			<stop  offset="0" style="stop-color:#640000"/>
			<stop  offset="0.5" style="stop-color:#960000"/>
			<stop  offset="1" style="stop-color:#640000"/>
		</linearGradient>
		<rect x="-4.4" y="-4.6" class="st0" width="328.9" height="509.2"/>
	</g>
	<path class="st1" d="M113.4,129.1v-8.8l-18.9,4.4L113.4,129.1z M132.6,147.1l-49-14.5v-16l49-14.5v13.3l-7.8,2V132l7.8,1.9V147.1z
		 M105.6,173.2v-5.8c0-0.7-0.1-1.3-0.3-1.8c-0.2-0.5-0.5-1-1-1.4c-0.4-0.4-1-0.6-1.7-0.8c-0.7-0.2-1.5-0.3-2.5-0.3
		c-1,0-1.8,0.1-2.4,0.3c-0.7,0.2-1.2,0.5-1.5,0.8c-0.4,0.4-0.6,0.8-0.8,1.4c-0.2,0.5-0.3,1.1-0.3,1.8v5.8H105.6z M132.6,186h-49
		v-20.9c0-2.2,0.3-4.1,0.8-5.9c0.5-1.8,1.4-3.4,2.7-4.7c1.3-1.3,2.9-2.3,5-3.1c2.1-0.7,4.8-1.1,8-1.1c2,0,3.8,0.2,5.3,0.5
		c1.5,0.4,2.8,0.8,3.8,1.4c1,0.6,1.9,1.3,2.6,2.1c0.7,0.8,1.3,1.7,1.8,2.6l19-8.5v13l-16.9,6.9c0,0.4,0,0.8,0,1.2s0,0.8,0,1.2
		c0,0.4,0,0.8,0,1.2c0,0.4,0,0.8,0,1.2h16.9V186z M133,212.9c0,1.1-0.1,2.3-0.3,3.8c-0.2,1.5-0.7,2.9-1.5,4.3
		c-0.7,1.4-1.9,2.5-3.5,3.5c-1.6,0.9-3.7,1.4-6.4,1.4H95.8c-2.4,0-4.4-0.4-5.9-1.1c-1.6-0.7-2.8-1.7-3.7-2.9c-0.9-1.2-1.5-2.5-1.9-4
		c-0.4-1.5-0.6-2.9-0.6-4.2c0-3.7,0.1-6.9,0.2-9.5c0.1-2.7,0.2-5,0.4-6.9c0.1-2,0.3-3.7,0.5-5.2h10.8v17.7c0,1.1,0.2,1.9,0.7,2.5
		c0.5,0.6,1.2,0.9,2.2,0.9h4.1l0.7-17.7h10.2l0.7,17.7h3.7c0.8,0,1.4-0.1,1.9-0.4c0.5-0.2,0.9-0.6,1.1-1c0.2-0.4,0.4-0.9,0.4-1.5
		V192h10.8c0.3,1.9,0.5,4,0.7,6.5c0.2,2.4,0.3,4.9,0.4,7.4C133,208.3,133,210.7,133,212.9z M132.6,255H95.1v12.3H83.6v-37.5h11.5
		v12.3h37.5V255z M132.6,312.1h-49V302l27.3-17.2H83.6V272h49v10.2l-27.3,17.2h27.3V312.1z M133,338.6c0,2.7-0.2,5.2-0.7,7.6
		c-0.4,2.4-1.3,4.5-2.4,6.4c-1.2,1.8-2.9,3.3-5,4.3c-2.2,1-4.9,1.5-8.4,1.5H83.6v-12.8h32.8c1.1,0,2.1-0.3,2.8-0.8
		c0.7-0.5,1.3-1.4,1.7-2.4c0.4-1.1,0.6-2.3,0.6-3.8c0-1.5-0.2-2.8-0.6-3.8c-0.4-1.1-0.9-1.9-1.7-2.4c-0.7-0.5-1.7-0.8-2.8-0.8H83.6
		v-12.8h32.8c3.4,0,6.2,0.5,8.4,1.5c2.2,1,3.8,2.5,5,4.3c1.2,1.8,2,4,2.4,6.3C132.8,333.3,133,335.9,133,338.6z M107.7,386.7v-7.4
		c0-0.9-0.2-1.6-0.7-2.1c-0.5-0.5-1.2-0.9-2.1-1.1c-0.9-0.2-2.1-0.3-3.5-0.3c-1.4,0-2.5,0.1-3.4,0.4c-0.9,0.2-1.6,0.6-2.1,1.1
		c-0.5,0.5-0.7,1.1-0.7,2v7.4H107.7z M132.6,399.5h-49V378c0-1.7,0.2-3.4,0.6-5.1c0.4-1.8,1.1-3.4,2.3-4.8c1.2-1.5,2.9-2.7,5.3-3.6
		c2.4-0.9,5.5-1.4,9.4-1.4c4,0,7.1,0.4,9.5,1.3c2.4,0.9,4.2,2,5.4,3.4c1.2,1.4,2,2.9,2.4,4.6c0.4,1.6,0.6,3.3,0.6,4.8
		c0,0.8,0,1.7-0.1,2.6c-0.1,0.9-0.2,1.8-0.4,2.6s-0.3,1.6-0.5,2.4c-0.2,0.7-0.3,1.3-0.4,1.8h14.8V399.5z"/>
	<g>
		<path class="materiales" d="M30.7,79.6l0.9-8h1.5l1.8,6.1l1.8-6.1h1.5l0.9,8h-1.5l-0.7-5.9l0.2,0l-1.6,5.9h-1.5l-1.6-5.9l0.3,0l-0.7,5.9
			H30.7z"/>
		<path class="materiales" d="M41.7,79.6c-0.4,0-0.8-0.1-1.1-0.4c-0.3-0.3-0.4-0.6-0.4-1.1v-0.5c0-0.4,0.2-0.8,0.5-1.1
			c0.3-0.3,0.8-0.4,1.5-0.4h1.5v-0.4c0-0.2,0-0.3-0.1-0.4c-0.1-0.1-0.2-0.2-0.4-0.3c-0.2-0.1-0.4-0.1-0.8-0.1h-1.7V74
			c0.3-0.1,0.6-0.2,1-0.2c0.4-0.1,0.8-0.1,1.3-0.1c0.5,0,0.9,0.1,1.2,0.2c0.3,0.1,0.6,0.3,0.8,0.6s0.3,0.7,0.3,1.2v4h-1.3l-0.3-0.6
			c-0.1,0.1-0.1,0.1-0.3,0.2c-0.1,0.1-0.3,0.1-0.4,0.2c-0.2,0.1-0.4,0.1-0.6,0.2C42.1,79.6,41.9,79.6,41.7,79.6z M42.5,78.5
			c0.1,0,0.2,0,0.2,0c0.1,0,0.2,0,0.3-0.1c0.1,0,0.2,0,0.3-0.1c0.1,0,0.2,0,0.2-0.1c0.1,0,0.1,0,0.1,0v-1.4l-1,0.1
			c-0.3,0-0.5,0.1-0.6,0.2c-0.1,0.1-0.2,0.3-0.2,0.5v0.2c0,0.1,0,0.3,0.1,0.4c0.1,0.1,0.1,0.2,0.3,0.2
			C42.2,78.5,42.4,78.5,42.5,78.5z"/>
		<path class="materiales" d="M48.6,79.6c-0.4,0-0.8-0.1-1.1-0.2c-0.3-0.1-0.5-0.3-0.6-0.7c-0.1-0.3-0.2-0.7-0.2-1.2l0.1-2.5h-0.9v-1l1-0.3
			l0.2-1.6h1.3v1.6h1.4V75h-1.4v2.4c0,0.2,0,0.3,0,0.4c0,0.1,0.1,0.2,0.1,0.2c0.1,0.1,0.1,0.1,0.2,0.1c0.1,0,0.1,0,0.2,0.1l0.7,0.1
			v1.2H48.6z"/>
		<path class="materiales" d="M53,79.6c-0.6,0-1.2-0.1-1.5-0.3c-0.4-0.2-0.7-0.5-0.8-0.9c-0.2-0.4-0.3-1-0.3-1.8c0-0.8,0.1-1.4,0.2-1.8
			c0.2-0.4,0.4-0.7,0.8-0.9c0.4-0.2,0.9-0.3,1.5-0.3c0.6,0,1,0.1,1.4,0.2c0.3,0.1,0.6,0.3,0.8,0.6c0.2,0.3,0.2,0.7,0.2,1.2
			c0,0.4-0.1,0.7-0.2,0.9c-0.2,0.2-0.4,0.4-0.7,0.5c-0.3,0.1-0.6,0.1-1,0.1H52c0,0.3,0.1,0.5,0.1,0.7c0.1,0.2,0.2,0.3,0.4,0.4
			c0.2,0.1,0.5,0.1,0.9,0.1h1.7v0.9c-0.3,0.1-0.6,0.1-0.9,0.2C53.9,79.6,53.5,79.6,53,79.6z M52,76.3h1.3c0.2,0,0.4,0,0.5-0.1
			c0.1-0.1,0.2-0.2,0.2-0.5c0-0.2,0-0.4-0.1-0.5c-0.1-0.1-0.2-0.2-0.3-0.3c-0.1-0.1-0.3-0.1-0.6-0.1c-0.2,0-0.4,0-0.6,0.1
			c-0.1,0.1-0.2,0.2-0.3,0.4C52,75.6,52,75.9,52,76.3z"/>
		<path class="materiales" d="M56.4,79.6v-5.8h1.2l0.4,0.9c0.2-0.3,0.4-0.5,0.7-0.7c0.3-0.2,0.6-0.3,0.9-0.3c0.1,0,0.2,0,0.2,0
			c0.1,0,0.2,0,0.2,0v1.6c-0.1,0-0.2,0-0.3,0c-0.1,0-0.2,0-0.3,0c-0.2,0-0.4,0-0.6,0.1c-0.2,0-0.3,0.1-0.5,0.2
			c-0.1,0.1-0.3,0.2-0.4,0.4v3.6H56.4z"/>
		<path class="materiales" d="M61.2,72.9c-0.2,0-0.2-0.1-0.2-0.2v-1.1c0-0.2,0.1-0.2,0.2-0.2h1.2c0.1,0,0.1,0,0.2,0.1c0,0,0.1,0.1,0.1,0.2
			v1.1c0,0.1-0.1,0.2-0.2,0.2H61.2z M61,79.6v-5.8h1.6v5.8H61z"/>
		<path class="materiales" d="M65.1,79.6c-0.4,0-0.8-0.1-1.1-0.4c-0.3-0.3-0.4-0.6-0.4-1.1v-0.5c0-0.4,0.2-0.8,0.5-1.1
			c0.3-0.3,0.8-0.4,1.5-0.4H67v-0.4c0-0.2,0-0.3-0.1-0.4c-0.1-0.1-0.2-0.2-0.4-0.3c-0.2-0.1-0.4-0.1-0.8-0.1H64V74
			c0.3-0.1,0.6-0.2,1-0.2c0.4-0.1,0.8-0.1,1.3-0.1c0.5,0,0.9,0.1,1.2,0.2c0.3,0.1,0.6,0.3,0.8,0.6s0.3,0.7,0.3,1.2v4h-1.3l-0.3-0.6
			c-0.1,0.1-0.1,0.1-0.3,0.2c-0.1,0.1-0.3,0.1-0.4,0.2c-0.2,0.1-0.4,0.1-0.6,0.2C65.5,79.6,65.3,79.6,65.1,79.6z M65.9,78.5
			c0.1,0,0.2,0,0.2,0c0.1,0,0.2,0,0.3-0.1c0.1,0,0.2,0,0.3-0.1c0.1,0,0.2,0,0.2-0.1c0.1,0,0.1,0,0.1,0v-1.4l-1,0.1
			c-0.3,0-0.5,0.1-0.6,0.2c-0.1,0.1-0.2,0.3-0.2,0.5v0.2c0,0.1,0,0.3,0.1,0.4c0.1,0.1,0.1,0.2,0.3,0.2
			C65.6,78.5,65.8,78.5,65.9,78.5z"/>
		<path class="materiales" d="M71.6,79.6c-0.4,0-0.8-0.1-1-0.2c-0.3-0.1-0.5-0.3-0.6-0.6c-0.1-0.3-0.2-0.6-0.2-1.1v-6.4h1.6v6.2
			c0,0.2,0,0.4,0.1,0.5c0,0.1,0.1,0.2,0.2,0.3c0.1,0.1,0.2,0.1,0.3,0.1l0.4,0.1v1.2H71.6z"/>
		<path class="materiales" d="M73.4,75.3c-0.1,0-0.2-0.1-0.2-0.2V74c0-0.2,0.1-0.2,0.2-0.2h0.9c0.2,0,0.2,0.1,0.2,0.2v1.1
			c0,0.1,0,0.1-0.1,0.2c0,0-0.1,0-0.2,0H73.4z M73.4,79.6c-0.1,0-0.2-0.1-0.2-0.2v-1.1c0-0.2,0.1-0.2,0.2-0.2h0.9
			c0.2,0,0.2,0.1,0.2,0.2v1.1c0,0.1,0,0.1-0.1,0.2c0,0-0.1,0-0.2,0H73.4z"/>
		<path class="materiales" d="M81.3,79.6c-0.5,0-0.9-0.1-1.2-0.2c-0.4-0.1-0.7-0.3-0.9-0.6c-0.3-0.3-0.4-0.7-0.6-1.2s-0.2-1.2-0.2-2.1
			c0-0.8,0.1-1.5,0.2-2c0.1-0.5,0.3-0.9,0.6-1.2c0.3-0.3,0.6-0.5,0.9-0.6c0.4-0.1,0.8-0.2,1.2-0.2c0.4,0,0.7,0,1,0.1
			c0.3,0,0.6,0.1,0.8,0.1c0.3,0.1,0.5,0.1,0.6,0.2v1.2c-0.1,0-0.3-0.1-0.5-0.1c-0.2,0-0.5-0.1-0.8-0.1c-0.3,0-0.6,0-0.9,0
			c-0.3,0-0.6,0-0.8,0.1c-0.2,0.1-0.4,0.2-0.5,0.4c-0.1,0.2-0.2,0.5-0.3,0.8C80,74.5,80,75,80,75.5c0,0.5,0,1,0.1,1.3
			c0.1,0.3,0.1,0.6,0.3,0.8c0.1,0.2,0.3,0.3,0.5,0.4c0.2,0.1,0.5,0.1,0.8,0.1c0.5,0,1,0,1.3,0s0.6,0,0.8-0.1v1.2
			c-0.2,0.1-0.4,0.1-0.7,0.2s-0.5,0.1-0.8,0.1C82,79.6,81.7,79.6,81.3,79.6z"/>
		<path class="materiales" d="M87.3,79.6c-0.5,0-0.9,0-1.2-0.1c-0.3-0.1-0.6-0.3-0.8-0.5c-0.2-0.2-0.4-0.5-0.5-0.9
			c-0.1-0.4-0.1-0.9-0.1-1.4c0-0.6,0-1.1,0.1-1.5c0.1-0.4,0.3-0.7,0.5-0.9c0.2-0.2,0.5-0.4,0.8-0.5c0.3-0.1,0.7-0.1,1.2-0.1
			c0.5,0,0.9,0,1.2,0.1c0.3,0.1,0.6,0.3,0.8,0.5c0.2,0.2,0.4,0.5,0.5,0.9c0.1,0.4,0.1,0.9,0.1,1.5c0,0.6,0,1.1-0.1,1.4
			c-0.1,0.4-0.2,0.7-0.5,0.9c-0.2,0.2-0.5,0.4-0.8,0.5S87.8,79.6,87.3,79.6z M87.3,78.3c0.2,0,0.4,0,0.5-0.1c0.1,0,0.2-0.1,0.3-0.2
			c0.1-0.1,0.1-0.3,0.2-0.5c0-0.2,0.1-0.5,0.1-0.9c0-0.4,0-0.7-0.1-0.9c0-0.2-0.1-0.4-0.2-0.5C88.1,75.1,88,75,87.8,75
			c-0.1,0-0.3-0.1-0.5-0.1c-0.2,0-0.3,0-0.5,0.1c-0.1,0-0.2,0.1-0.3,0.2c-0.1,0.1-0.2,0.3-0.2,0.5c0,0.2-0.1,0.5-0.1,0.9
			c0,0.4,0,0.7,0.1,0.9c0,0.2,0.1,0.4,0.2,0.5c0.1,0.1,0.2,0.2,0.3,0.2C87,78.3,87.2,78.3,87.3,78.3z"/>
		<path class="materiales" d="M91.1,79.6v-5.8h1.2l0.4,0.9c0.2-0.3,0.4-0.5,0.7-0.7c0.3-0.2,0.6-0.3,0.9-0.3c0.1,0,0.2,0,0.2,0
			c0.1,0,0.2,0,0.2,0v1.6c-0.1,0-0.2,0-0.3,0c-0.1,0-0.2,0-0.3,0c-0.2,0-0.4,0-0.6,0.1c-0.2,0-0.3,0.1-0.5,0.2
			c-0.1,0.1-0.3,0.2-0.4,0.4v3.6H91.1z"/>
		<path class="materiales" d="M98.2,79.6c-0.5,0-0.9,0-1.2-0.1c-0.3-0.1-0.6-0.3-0.8-0.5c-0.2-0.2-0.4-0.5-0.5-0.9
			c-0.1-0.4-0.1-0.9-0.1-1.4c0-0.6,0-1.1,0.1-1.5c0.1-0.4,0.3-0.7,0.5-0.9c0.2-0.2,0.5-0.4,0.8-0.5c0.3-0.1,0.7-0.1,1.2-0.1
			c0.5,0,0.9,0,1.2,0.1c0.3,0.1,0.6,0.3,0.8,0.5c0.2,0.2,0.4,0.5,0.5,0.9c0.1,0.4,0.1,0.9,0.1,1.5c0,0.6,0,1.1-0.1,1.4
			c-0.1,0.4-0.2,0.7-0.5,0.9c-0.2,0.2-0.5,0.4-0.8,0.5C99.1,79.6,98.6,79.6,98.2,79.6z M98.2,78.3c0.2,0,0.4,0,0.5-0.1
			s0.2-0.1,0.3-0.2c0.1-0.1,0.1-0.3,0.2-0.5c0-0.2,0.1-0.5,0.1-0.9c0-0.4,0-0.7-0.1-0.9c0-0.2-0.1-0.4-0.2-0.5
			c-0.1-0.1-0.2-0.2-0.3-0.2c-0.1,0-0.3-0.1-0.5-0.1c-0.2,0-0.3,0-0.5,0.1c-0.1,0-0.2,0.1-0.3,0.2c-0.1,0.1-0.2,0.3-0.2,0.5
			c0,0.2-0.1,0.5-0.1,0.9c0,0.4,0,0.7,0.1,0.9c0,0.2,0.1,0.4,0.2,0.5c0.1,0.1,0.2,0.2,0.3,0.2C97.8,78.3,98,78.3,98.2,78.3z"/>
		<path class="materiales" d="M101.9,82.1v-8.4h1.3l0.3,0.6c0.1-0.1,0.3-0.2,0.5-0.3c0.2-0.1,0.3-0.2,0.5-0.2c0.2-0.1,0.4-0.1,0.6-0.1
			c0.4,0,0.7,0.1,0.9,0.2c0.3,0.1,0.5,0.3,0.6,0.6c0.2,0.3,0.3,0.6,0.4,0.9c0.1,0.4,0.1,0.8,0.1,1.3c0,0.6-0.1,1.2-0.2,1.6
			c-0.1,0.4-0.3,0.8-0.6,1c-0.3,0.2-0.7,0.4-1.2,0.4c-0.3,0-0.6,0-0.8-0.1c-0.3-0.1-0.5-0.2-0.8-0.3v2.9H101.9z M104.6,78.3
			c0.2,0,0.3,0,0.5-0.1c0.2-0.1,0.3-0.3,0.4-0.5c0.1-0.2,0.1-0.6,0.1-1c0-0.4,0-0.8-0.1-1c-0.1-0.2-0.2-0.4-0.3-0.5
			c-0.1-0.1-0.3-0.2-0.5-0.2c-0.2,0-0.4,0-0.6,0.1c-0.2,0.1-0.3,0.1-0.5,0.2V78c0.1,0.1,0.3,0.2,0.5,0.2
			C104.2,78.3,104.4,78.3,104.6,78.3z"/>
		<path class="materiales" d="M110,79.6c-0.4,0-0.8-0.1-1-0.2c-0.3-0.1-0.5-0.3-0.6-0.6c-0.1-0.3-0.2-0.6-0.2-1.1v-6.4h1.6v6.2
			c0,0.2,0,0.4,0.1,0.5c0,0.1,0.1,0.2,0.2,0.3c0.1,0.1,0.2,0.1,0.3,0.1l0.4,0.1v1.2H110z"/>
		<path class="materiales" d="M112.9,79.6c-0.4,0-0.8-0.1-1.1-0.4c-0.3-0.3-0.4-0.6-0.4-1.1v-0.5c0-0.4,0.2-0.8,0.5-1.1
			c0.3-0.3,0.8-0.4,1.5-0.4h1.5v-0.4c0-0.2,0-0.3-0.1-0.4c-0.1-0.1-0.2-0.2-0.4-0.3c-0.2-0.1-0.4-0.1-0.8-0.1h-1.7V74
			c0.3-0.1,0.6-0.2,1-0.2c0.4-0.1,0.8-0.1,1.3-0.1c0.5,0,0.9,0.1,1.2,0.2c0.3,0.1,0.6,0.3,0.8,0.6s0.3,0.7,0.3,1.2v4h-1.3l-0.3-0.6
			c-0.1,0.1-0.1,0.1-0.3,0.2c-0.1,0.1-0.3,0.1-0.4,0.2c-0.2,0.1-0.4,0.1-0.6,0.2C113.3,79.6,113.1,79.6,112.9,79.6z M113.7,78.5
			c0.1,0,0.2,0,0.2,0c0.1,0,0.2,0,0.3-0.1c0.1,0,0.2,0,0.3-0.1c0.1,0,0.2,0,0.2-0.1c0.1,0,0.1,0,0.1,0v-1.4l-1,0.1
			c-0.3,0-0.5,0.1-0.6,0.2c-0.1,0.1-0.2,0.3-0.2,0.5v0.2c0,0.1,0,0.3,0.1,0.4c0.1,0.1,0.1,0.2,0.3,0.2
			C113.4,78.5,113.5,78.5,113.7,78.5z"/>
		<path class="materiales" d="M119.7,79.6c-0.2,0-0.4,0-0.6,0c-0.2,0-0.4,0-0.6,0s-0.4,0-0.6-0.1c-0.2,0-0.3-0.1-0.5-0.1v-0.9h2.6
			c0.2,0,0.3,0,0.4,0c0.1,0,0.2-0.1,0.2-0.1c0-0.1,0.1-0.2,0.1-0.3v-0.2c0-0.1,0-0.3-0.1-0.3c-0.1-0.1-0.3-0.1-0.5-0.1h-0.9
			c-0.3,0-0.6-0.1-0.9-0.2c-0.3-0.1-0.5-0.3-0.6-0.5c-0.2-0.2-0.2-0.5-0.2-0.9v-0.3c0-0.4,0.1-0.7,0.2-0.9s0.4-0.4,0.7-0.6
			c0.3-0.1,0.8-0.2,1.4-0.2c0.2,0,0.5,0,0.8,0c0.3,0,0.5,0.1,0.8,0.1c0.2,0,0.4,0.1,0.6,0.1v0.9h-2.4c-0.2,0-0.4,0-0.5,0.1
			c-0.1,0.1-0.2,0.2-0.2,0.4v0.2c0,0.1,0,0.2,0.1,0.3c0.1,0.1,0.1,0.1,0.2,0.1c0.1,0,0.2,0,0.4,0h0.9c0.6,0,1,0.1,1.3,0.4
			c0.3,0.3,0.4,0.6,0.4,1.1v0.5c0,0.4-0.1,0.7-0.3,0.9c-0.2,0.2-0.5,0.4-0.8,0.5C120.6,79.6,120.2,79.6,119.7,79.6z"/>
		<path class="materiales" d="M125.2,79.6c-0.4,0-0.8-0.1-1.1-0.2c-0.3-0.1-0.5-0.3-0.6-0.7c-0.1-0.3-0.2-0.7-0.2-1.2l0.1-2.5h-0.9v-1
			l1-0.3l0.2-1.6h1.3v1.6h1.4V75H125v2.4c0,0.2,0,0.3,0,0.4c0,0.1,0.1,0.2,0.1,0.2c0.1,0.1,0.1,0.1,0.2,0.1c0.1,0,0.1,0,0.2,0.1
			l0.7,0.1v1.2H125.2z"/>
	</g>
	<polyline class="line1" points="159,82.6 26.9,82.6 26.9,149.3 	"/>
	<path class="circuloLine" d="M159,77.4c-2.9,0-5.2,2.3-5.2,5.2c0,2.9,2.3,5.2,5.2,5.2c2.9,0,5.2-2.3,5.2-5.2
		C164.2,79.7,161.9,77.4,159,77.4"/>
	<path class="circulo" d="M159,80c-1.4,0-2.6,1.2-2.6,2.6c0,1.4,1.2,2.6,2.6,2.6c1.4,0,2.6-1.2,2.6-2.6C161.6,81.2,160.4,80,159,80"/>
	<path d="M42.4,149.4v-2.9c0-0.2-0.2-0.4-0.4-0.4c-0.2,0-0.4,0.2-0.4,0.4v2.9c0,0.2,0.2,0.4,0.4,0.4
		C42.2,149.8,42.4,149.6,42.4,149.4"/>
	<path d="M53,157H50c-0.2,0-0.4,0.2-0.4,0.4c0,0.2,0.2,0.4,0.4,0.4H53c0.2,0,0.4-0.2,0.4-0.4C53.4,157.2,53.2,157,53,157"/>
	<path d="M49.4,149.4l-2.1,2.1c-0.2,0.2-0.2,0.4,0,0.6c0.1,0.1,0.2,0.1,0.3,0.1c0.1,0,0.2,0,0.3-0.1L50,150c0.2-0.2,0.2-0.4,0-0.6
		C49.9,149.2,49.6,149.2,49.4,149.4"/>
	<path d="M36.3,152.1c0.1,0,0.2,0,0.3-0.1c0.2-0.2,0.2-0.4,0-0.6l-2.1-2.1c-0.2-0.2-0.4-0.2-0.6,0c-0.2,0.2-0.2,0.4,0,0.6L36,152
		C36.1,152.1,36.2,152.1,36.3,152.1"/>
	<path d="M45,150.4c0.2,0,0.3-0.1,0.4-0.3l1.1-2.7c0.1-0.2,0-0.4-0.2-0.5c-0.2-0.1-0.4,0-0.5,0.2l-1.1,2.7c-0.1,0.2,0,0.4,0.2,0.5
		C44.9,150.4,44.9,150.4,45,150.4"/>
	<path d="M38.1,147.2c-0.1-0.2-0.3-0.3-0.5-0.2c-0.2,0.1-0.3,0.3-0.2,0.5l1.1,2.7c0.1,0.2,0.2,0.2,0.4,0.2c0.1,0,0.1,0,0.2,0
		c0.2-0.1,0.3-0.3,0.2-0.5L38.1,147.2z"/>
	<path d="M49,154.5c0.1,0.2,0.2,0.2,0.4,0.2c0.1,0,0.1,0,0.2,0l2.7-1.1c0.2-0.1,0.3-0.3,0.2-0.5c-0.1-0.2-0.3-0.3-0.5-0.2l-2.7,1.1
		C49,154,48.9,154.2,49,154.5"/>
	<line class="line2" x1="26.9" y1="211.5" x2="26.9" y2="232.2"/>
	<g>
		<path class="duradero" d="M52.3,161.2l-2.7-1.1c-0.2-0.1-0.4,0-0.5,0.2c-0.1,0.2,0,0.4,0.2,0.5l2.7,1.1c0,0,0.1,0,0.2,0
			c0.2,0,0.3-0.1,0.4-0.3C52.6,161.5,52.5,161.2,52.3,161.2"/>
		<path class="duradero" d="M48,162.8c-0.2-0.2-0.4-0.2-0.6,0c-0.1,0.1-0.1,0.2-0.1,0.4c0.7,0.6,1.3,1.2,1.8,1.9l0.3,0.3
			c0.1,0.1,0.2,0.1,0.3,0.1c0.1,0,0.2,0,0.3-0.1c0.2-0.2,0.2-0.4,0-0.6L48,162.8z"/>
		<path class="duradero" d="M45.3,161.8c0.2,0.1,0.5,0.3,0.7,0.4c0.4-0.3,0.8-0.7,1.1-1.1c2-2.8,1.5-6.7-1.3-8.7
			c-1.1-0.8-2.4-1.2-3.7-1.2c-1.5,0-3,0.6-4.2,1.6C41.9,153.9,44.9,157.5,45.3,161.8"/>
		<path class="duradero" d="M16.8,177.9c0,1,0.7,1.8,1.6,1.8c0.9,0,1.6-0.8,1.6-1.8c0-0.4-0.4-1.8-1.6-4.2
			C17.2,176.2,16.8,177.5,16.8,177.9"/>
		<path class="duradero" d="M23.3,173.5c0,1,0.7,1.8,1.6,1.8c0.9,0,1.6-0.8,1.6-1.8c0-0.4-0.4-1.8-1.6-4.2
			C23.7,171.7,23.3,173,23.3,173.5"/>
		<path class="duradero" d="M29.8,177.9c0,1,0.7,1.8,1.6,1.8c0.9,0,1.6-0.8,1.6-1.8c0-0.4-0.4-1.8-1.6-4.2
			C30.2,176.2,29.8,177.5,29.8,177.9"/>
		<path class="duradero" d="M18.4,186.8c1.2,2.4,1.6,3.7,1.6,4.2c0,1-0.7,1.8-1.6,1.8c-0.9,0-1.6-0.8-1.6-1.8
			C16.8,190.5,17.2,189.2,18.4,186.8"/>
		<path class="duradero" d="M44.6,174.3c-0.3,1.2-1,2.3-1.9,3c-0.1,0.1-0.2,0.1-0.2,0.1c-0.1,0-0.2-0.1-0.3-0.2c-0.1-0.2-0.1-0.4,0.1-0.6
			c0.8-0.6,1.4-1.5,1.6-2.5c0.4-1.6,0-3.4-1-4.3c-0.3-0.3-0.6-0.5-1-0.6c-0.2-0.1-0.3-0.3-0.3-0.5c0.1-0.2,0.3-0.3,0.5-0.3
			c0.5,0.1,0.9,0.4,1.3,0.7C44.6,170.3,45.1,172.3,44.6,174.3 M31.4,180.6c-1.3,0-2.4-1.2-2.4-2.7c0-1.1,1.4-3.8,2-5.2
			c0.1-0.2,0.3-0.3,0.4-0.3c0.1,0,0.3,0.1,0.4,0.3c0.7,1.3,2,4.1,2,5.2C33.8,179.4,32.8,180.6,31.4,180.6z M24.9,176.1
			c-1.3,0-2.4-1.2-2.4-2.7c0-1.1,1.4-3.8,2-5.2c0.1-0.2,0.3-0.3,0.4-0.3c0.1,0,0.3,0.1,0.4,0.3c0.7,1.3,2,4.1,2,5.2
			C27.3,174.9,26.2,176.1,24.9,176.1z M22,158.3c-1.7,0.2-3.1,1.4-3.5,3c-0.1,0.5-0.1,0.9-0.1,1.4c0,0.2-0.1,0.4-0.3,0.5
			c0,0,0,0-0.1,0c-0.2,0-0.4-0.1-0.4-0.4c-0.1-0.6,0-1.1,0.1-1.7c0.5-1.9,2.2-3.4,4.2-3.6c1.3-0.2,2.6,0.2,3.6,0.9
			c0.2,0.1,0.2,0.4,0.1,0.6c-0.1,0.2-0.4,0.2-0.6,0.1C24.2,158.4,23.1,158.1,22,158.3z M18.4,180.6c-1.3,0-2.4-1.2-2.4-2.7
			c0-1.1,1.4-3.8,2-5.2c0.1-0.2,0.2-0.3,0.4-0.3c0.1,0,0.3,0.1,0.4,0.3c0.7,1.3,2,4.1,2,5.2C20.8,179.4,19.7,180.6,18.4,180.6z
			 M43.7,162.8c0,0,0-0.1,0-0.1c0-4.8-3.9-8.7-8.7-8.7c-1.6,0-3.1,0.4-4.4,1.2c-2-2.4-5-3.8-8.3-3.8c-5.9,0-10.7,4.7-10.9,10.6
			c-5.3,0.7-9.4,5.3-9.4,10.9c0,6.1,4.9,11,10.9,11h9.8c0.4-1.3,1.2-2.8,1.7-3.8c0.1-0.2,0.3-0.3,0.4-0.3c0.1,0,0.3,0.1,0.4,0.3
			c0.5,0.9,1.3,2.5,1.7,3.8h12.2c6,0,10.9-4.9,10.9-11C50.1,168.4,47.5,164.5,43.7,162.8z"/>
		<path class="duradero" d="M31.4,186.8c1.2,2.4,1.6,3.7,1.6,4.2c0,1-0.7,1.8-1.6,1.8c-0.9,0-1.6-0.8-1.6-1.8
			C29.8,190.5,30.2,189.2,31.4,186.8"/>
		<path class="duradero" d="M24.9,181.1c1.2,2.4,1.6,3.7,1.6,4.2c0,1-0.7,1.8-1.6,1.8c-0.9,0-1.6-0.8-1.6-1.8
			C23.3,184.8,23.7,183.5,24.9,181.1"/>
		<g>
			<path class="duradero" d="M-0.3,207.9v-8h3.4c0.5,0,1,0.1,1.4,0.3c0.4,0.2,0.6,0.5,0.9,0.8c0.2,0.4,0.4,0.8,0.5,1.3
				c0.1,0.5,0.1,1,0.1,1.6c0,0.9-0.1,1.6-0.3,2.2c-0.2,0.6-0.5,1-0.9,1.3c-0.4,0.3-0.9,0.4-1.6,0.4H-0.3z M1.3,206.5H3
				c0.3,0,0.6-0.1,0.8-0.3c0.2-0.2,0.3-0.5,0.4-0.9c0.1-0.4,0.1-0.9,0.1-1.4c0-0.5,0-0.9-0.1-1.3c-0.1-0.3-0.1-0.6-0.3-0.8
				c-0.1-0.2-0.3-0.3-0.4-0.4c-0.2-0.1-0.4-0.1-0.6-0.1H1.3V206.5z"/>
			<path class="duradero" d="M10.1,208c-0.4,0-0.9,0-1.2-0.1c-0.4-0.1-0.7-0.2-1-0.4c-0.3-0.2-0.5-0.5-0.7-0.8c-0.2-0.3-0.2-0.8-0.2-1.3
				v-5.4h1.6v5.4c0,0.3,0.1,0.5,0.2,0.7c0.1,0.2,0.3,0.3,0.5,0.4c0.2,0.1,0.5,0.1,0.8,0.1c0.3,0,0.6,0,0.8-0.1
				c0.2-0.1,0.4-0.2,0.5-0.4c0.1-0.2,0.2-0.4,0.2-0.7v-5.4h1.6v5.4c0,0.5-0.1,1-0.2,1.3s-0.4,0.6-0.7,0.8c-0.3,0.2-0.6,0.3-1,0.4
				C11,208,10.6,208,10.1,208z"/>
			<path class="duradero" d="M14.5,207.9v-8h3.3c0.3,0,0.6,0,0.9,0.1c0.3,0.1,0.5,0.2,0.7,0.4c0.2,0.2,0.4,0.4,0.5,0.8
				c0.1,0.3,0.2,0.8,0.2,1.3c0,0.4,0,0.7-0.1,0.9c-0.1,0.3-0.2,0.5-0.3,0.6c-0.1,0.2-0.3,0.3-0.4,0.4c-0.2,0.1-0.3,0.2-0.5,0.3
				l1.5,3.2h-1.6l-1.3-3c-0.1,0-0.2,0-0.3,0c-0.1,0-0.2,0-0.3,0c-0.1,0-0.2,0-0.3,0c-0.1,0-0.2,0-0.3,0v3H14.5z M16.1,203.7h1.4
				c0.1,0,0.3,0,0.4-0.1c0.1,0,0.2-0.1,0.3-0.2c0.1-0.1,0.2-0.2,0.2-0.4c0-0.2,0.1-0.3,0.1-0.6c0-0.2,0-0.4-0.1-0.6
				s-0.1-0.3-0.2-0.3c-0.1-0.1-0.2-0.1-0.3-0.2c-0.1,0-0.2,0-0.4,0h-1.4V203.7z"/>
			<path class="duradero" d="M20.8,207.9l2.5-8h2l2.5,8h-1.7l-0.5-1.7H23l-0.5,1.7H20.8z M23.3,204.8h2l-1-3.5L23.3,204.8z"/>
			<path class="duradero" d="M28.7,207.9v-8h3.4c0.5,0,1,0.1,1.4,0.3c0.4,0.2,0.6,0.5,0.9,0.8c0.2,0.4,0.4,0.8,0.5,1.3
				c0.1,0.5,0.1,1,0.1,1.6c0,0.9-0.1,1.6-0.3,2.2c-0.2,0.6-0.5,1-0.9,1.3c-0.4,0.3-0.9,0.4-1.6,0.4H28.7z M30.3,206.5H32
				c0.3,0,0.6-0.1,0.8-0.3c0.2-0.2,0.3-0.5,0.4-0.9c0.1-0.4,0.1-0.9,0.1-1.4c0-0.5,0-0.9-0.1-1.3c-0.1-0.3-0.1-0.6-0.3-0.8
				c-0.1-0.2-0.3-0.3-0.4-0.4c-0.2-0.1-0.4-0.1-0.6-0.1h-1.6V206.5z"/>
			<path class="duradero" d="M38.1,208c-0.2,0-0.4,0-0.6,0c-0.2,0-0.4-0.1-0.6-0.2c-0.2-0.1-0.4-0.3-0.5-0.5c-0.1-0.2-0.2-0.6-0.2-1v-4.5
				c0-0.4,0.1-0.6,0.2-0.9c0.1-0.2,0.3-0.4,0.4-0.6c0.2-0.1,0.4-0.2,0.6-0.3c0.2-0.1,0.4-0.1,0.6-0.1c0.5,0,1,0,1.4,0
				c0.4,0,0.8,0,1.1,0c0.3,0,0.6,0,0.9,0.1v1.3h-3c-0.2,0-0.4,0.1-0.5,0.2c-0.1,0.1-0.2,0.3-0.2,0.5v1.2l3.2,0.1v1.3l-3.2,0.1v1.1
				c0,0.2,0,0.3,0.1,0.4c0.1,0.1,0.1,0.2,0.2,0.2c0.1,0,0.2,0.1,0.3,0.1h3v1.3c-0.3,0-0.7,0.1-1.1,0.1c-0.4,0-0.8,0-1.2,0.1
				C38.8,208,38.4,208,38.1,208z"/>
			<path class="duradero" d="M42.6,207.9v-8h3.3c0.3,0,0.6,0,0.9,0.1c0.3,0.1,0.5,0.2,0.7,0.4c0.2,0.2,0.4,0.4,0.5,0.8
				c0.1,0.3,0.2,0.8,0.2,1.3c0,0.4,0,0.7-0.1,0.9c-0.1,0.3-0.2,0.5-0.3,0.6c-0.1,0.2-0.3,0.3-0.4,0.4c-0.2,0.1-0.3,0.2-0.5,0.3
				l1.5,3.2h-1.6l-1.3-3c-0.1,0-0.2,0-0.3,0c-0.1,0-0.2,0-0.3,0s-0.2,0-0.3,0c-0.1,0-0.2,0-0.3,0v3H42.6z M44.2,203.7h1.4
				c0.1,0,0.3,0,0.4-0.1c0.1,0,0.2-0.1,0.3-0.2c0.1-0.1,0.2-0.2,0.2-0.4c0-0.2,0.1-0.3,0.1-0.6c0-0.2,0-0.4-0.1-0.6
				c0-0.1-0.1-0.3-0.2-0.3c-0.1-0.1-0.2-0.1-0.3-0.2c-0.1,0-0.2,0-0.4,0h-1.4V203.7z"/>
			<path class="duradero" d="M52.5,208c-0.5,0-1-0.1-1.4-0.2c-0.4-0.1-0.8-0.3-1-0.6c-0.3-0.3-0.5-0.7-0.6-1.2c-0.1-0.5-0.2-1.2-0.2-2.1
				s0.1-1.6,0.2-2.1c0.1-0.5,0.3-1,0.6-1.2c0.3-0.3,0.6-0.5,1-0.6c0.4-0.1,0.9-0.2,1.4-0.2c0.5,0,1,0.1,1.4,0.2
				c0.4,0.1,0.8,0.3,1,0.6c0.3,0.3,0.5,0.7,0.6,1.2c0.1,0.5,0.2,1.2,0.2,2.1s-0.1,1.6-0.2,2.1c-0.1,0.5-0.3,0.9-0.6,1.2
				c-0.3,0.3-0.6,0.5-1,0.6C53.5,208,53,208,52.5,208z M52.5,206.6c0.3,0,0.6,0,0.8-0.1c0.2-0.1,0.4-0.2,0.5-0.4
				c0.1-0.2,0.2-0.4,0.3-0.8c0.1-0.3,0.1-0.8,0.1-1.3c0-0.6,0-1-0.1-1.4c-0.1-0.3-0.2-0.6-0.3-0.8c-0.1-0.2-0.3-0.3-0.5-0.4
				c-0.2-0.1-0.5-0.1-0.8-0.1c-0.3,0-0.6,0-0.8,0.1c-0.2,0.1-0.4,0.2-0.5,0.4c-0.1,0.2-0.2,0.5-0.3,0.8s-0.1,0.8-0.1,1.4
				c0,0.5,0,1,0.1,1.3c0.1,0.3,0.1,0.6,0.3,0.8c0.1,0.2,0.3,0.3,0.5,0.4C51.9,206.5,52.1,206.6,52.5,206.6z"/>
		</g>
	</g>
	<g>
		<path class="lijero" d="M18.2,261.7c-0.4-1.8,0.5-3.6,2.2-4.5l1.7-0.9l-0.7,3.9C20.4,260.7,19.3,261.2,18.2,261.7"/>
		<path class="lijero" d="M27.8,262.7l-2.7-1c-0.1-0.1-0.3-0.1-0.4,0c-0.4,0.1-0.6,0.5-0.5,0.9c0,0,0,0,0,0.1l0.5,1.4
			c-0.4,0.1-0.7,0.3-1.1,0.4l-0.1,0c-1.8,0.6-3.7,0-4.7-1.5c1.3-0.5,2.6-1.1,3.9-1.8l0,0l0,0c0.8-0.4,1.6-0.9,2.4-1.3l4.2,2
			C28.9,262.2,28.4,262.5,27.8,262.7"/>
		<path class="lijero" d="M28.5,257.9l4.2,2c-0.6,0.4-1.1,0.7-1.7,1.1l-4.3-2C27.3,258.7,27.9,258.3,28.5,257.9"/>
		<path class="lijero" d="M40.3,247.5v0.3c0,3-1,5.8-2.9,8.1l-2.7-0.2c-0.1,0-0.2,0-0.2,0c-0.4,0.1-0.6,0.5-0.5,0.9l0.4,2.1
			c-0.1,0.1-0.2,0.1-0.3,0.2l-4.2-2C33.8,254.2,37.3,251,40.3,247.5L40.3,247.5z"/>
		<path class="lijero" d="M33.8,250.2l4-2.2c-1.4,1.5-2.9,2.9-4.4,4.3L33.8,250.2z"/>
		<path class="lijero" d="M23.1,259.4l0.7-3.9l2.2-1.1l0.4,1.2c0.1,0.4,0.5,0.6,0.9,0.5c0.2-0.1,0.4-0.2,0.5-0.4l1.6-3l2.7-1.5
			l-0.5,2.7C28.9,255.9,26.1,257.8,23.1,259.4L23.1,259.4z"/>
		<path class="lijero" d="M40.7,244.7l-12.3,6.7c-0.1,0.1-0.2,0.2-0.3,0.3l-1,1.8l-0.2-0.4c-0.1-0.4-0.5-0.6-0.9-0.5
			c-0.1,0-0.1,0-0.1,0.1l-6.3,3.2c-2.3,1.2-3.5,3.8-2.9,6.4c-0.3,0.1-0.5,0.2-0.8,0.3l-5.6,2c-0.4,0.1-0.6,0.5-0.5,0.9
			c0,0,0,0,0,0.1c0.1,0.4,0.5,0.6,0.9,0.5c0,0,0,0,0.1,0l5.6-2c0.3-0.1,0.6-0.2,0.9-0.3c0.6,1,1.5,1.8,2.6,2.2
			c1.2,0.5,2.5,0.6,3.7,0.3c0.2,0,0.3-0.1,0.5-0.1l0.1,0c0.6-0.2,1.2-0.5,1.8-0.7c0.3-0.1,0.5-0.5,0.4-0.9c0,0,0,0,0-0.1l-0.2-0.6
			l1.5,0.5c0.1,0.1,0.3,0.1,0.5,0c0,0,0.1,0,0.1,0c2.6-1.3,5.1-2.8,7.5-4.6c0.2-0.2,0.3-0.5,0.3-0.7l-0.3-1.6l2.1,0.1
			c0.1,0,0.2,0,0.2,0c0.1,0,0.3-0.1,0.4-0.2c2.3-2.6,3.5-5.9,3.5-9.4v-2.4c0-0.1,0-0.1,0-0.2c-0.1-0.4-0.5-0.6-0.9-0.5
			C40.8,244.7,40.8,244.7,40.7,244.7L40.7,244.7z M37.5,238.7c4.8,2.8,8.4,7.4,9.8,12.8c3,11.2-3.7,22.8-14.9,25.8
			c-5.4,1.4-11.2,0.7-16-2.1c-4.8-2.8-8.4-7.4-9.8-12.8c-3-11.2,3.7-22.8,14.9-25.8C26.9,235.2,32.6,235.9,37.5,238.7z"/>
		<g>
			<path class="lijero" d="M12.4,290.5c-0.4,0-0.8-0.1-1-0.2c-0.3-0.1-0.5-0.3-0.6-0.6c-0.1-0.3-0.2-0.6-0.2-1.1v-6.1h1.6v5.9
				c0,0.2,0,0.3,0.1,0.4c0.1,0.1,0.1,0.2,0.3,0.2c0.1,0,0.2,0.1,0.4,0.1h2.5v1.5H12.4z"/>
			<path class="lijero" d="M16.3,290.5v-8h1.6v8H16.3z"/>
			<path class="lijero" d="M20.2,290.5c-0.2,0-0.5,0-0.7-0.1c-0.2,0-0.4-0.1-0.6-0.2V289c0.2,0,0.3,0,0.5,0c0.2,0,0.3,0,0.5,0
				c0.2,0,0.3,0,0.5-0.1c0.1-0.1,0.2-0.1,0.3-0.3c0.1-0.1,0.1-0.3,0.1-0.5v-5.8h1.6v6c0,0.5-0.1,0.8-0.2,1.1
				c-0.1,0.3-0.4,0.5-0.7,0.7C21.1,290.5,20.7,290.5,20.2,290.5z"/>
			<path class="lijero" d="M25.6,290.5c-0.2,0-0.4,0-0.6,0c-0.2,0-0.4-0.1-0.6-0.2c-0.2-0.1-0.4-0.3-0.5-0.5c-0.1-0.2-0.2-0.6-0.2-1
				v-4.5c0-0.4,0.1-0.7,0.2-0.9c0.1-0.2,0.3-0.4,0.4-0.6c0.2-0.1,0.4-0.2,0.6-0.3c0.2-0.1,0.4-0.1,0.6-0.1c0.5,0,1,0,1.4,0
				c0.4,0,0.8,0,1.1,0c0.3,0,0.6,0,0.9,0.1v1.3h-3c-0.2,0-0.4,0.1-0.5,0.2c-0.1,0.1-0.2,0.3-0.2,0.5v1.2l3.2,0.1v1.3l-3.2,0.1v1.1
				c0,0.2,0,0.3,0.1,0.4c0.1,0.1,0.1,0.2,0.2,0.2c0.1,0,0.2,0.1,0.3,0.1h3v1.3c-0.3,0-0.7,0.1-1.1,0.1c-0.4,0-0.8,0-1.2,0.1
				S26,290.5,25.6,290.5z"/>
			<path class="lijero" d="M30.1,290.5v-8h3.3c0.3,0,0.6,0,0.9,0.1c0.3,0.1,0.5,0.2,0.7,0.4c0.2,0.2,0.4,0.4,0.5,0.8
				c0.1,0.3,0.2,0.8,0.2,1.3c0,0.4,0,0.7-0.1,0.9c-0.1,0.3-0.2,0.5-0.3,0.6c-0.1,0.2-0.3,0.3-0.4,0.4c-0.2,0.1-0.3,0.2-0.5,0.2
				l1.5,3.2h-1.6l-1.3-3c-0.1,0-0.2,0-0.3,0c-0.1,0-0.2,0-0.3,0c-0.1,0-0.2,0-0.3,0c-0.1,0-0.2,0-0.3,0v3H30.1z M31.8,286.2h1.4
				c0.1,0,0.3,0,0.4-0.1c0.1,0,0.2-0.1,0.3-0.2c0.1-0.1,0.2-0.2,0.2-0.4c0-0.2,0.1-0.3,0.1-0.6c0-0.2,0-0.4-0.1-0.6
				c0-0.2-0.1-0.3-0.2-0.3c-0.1-0.1-0.2-0.1-0.3-0.2c-0.1,0-0.2,0-0.4,0h-1.4V286.2z"/>
			<path class="lijero" d="M40,290.5c-0.5,0-1-0.1-1.4-0.2c-0.4-0.1-0.8-0.3-1-0.6c-0.3-0.3-0.5-0.7-0.6-1.2s-0.2-1.2-0.2-2.1
				c0-0.9,0.1-1.6,0.2-2.1c0.1-0.5,0.3-0.9,0.6-1.2c0.3-0.3,0.6-0.5,1-0.6c0.4-0.1,0.9-0.2,1.4-0.2c0.5,0,1,0.1,1.4,0.2
				c0.4,0.1,0.8,0.3,1,0.6c0.3,0.3,0.5,0.7,0.6,1.2c0.1,0.5,0.2,1.2,0.2,2.1c0,0.9-0.1,1.6-0.2,2.1c-0.1,0.5-0.3,0.9-0.6,1.2
				c-0.3,0.3-0.6,0.5-1,0.6C41.1,290.5,40.6,290.5,40,290.5z M40,289.1c0.3,0,0.6,0,0.8-0.1c0.2-0.1,0.4-0.2,0.5-0.4
				c0.1-0.2,0.2-0.4,0.3-0.8c0.1-0.3,0.1-0.8,0.1-1.3c0-0.6,0-1-0.1-1.4c-0.1-0.3-0.2-0.6-0.3-0.8s-0.3-0.3-0.5-0.4
				c-0.2-0.1-0.5-0.1-0.8-0.1c-0.3,0-0.6,0-0.8,0.1c-0.2,0.1-0.4,0.2-0.5,0.4c-0.1,0.2-0.2,0.4-0.3,0.8c-0.1,0.3-0.1,0.8-0.1,1.4
				c0,0.6,0,1,0.1,1.3c0.1,0.3,0.1,0.6,0.3,0.8c0.1,0.2,0.3,0.3,0.5,0.4C39.4,289.1,39.7,289.1,40,289.1z"/>
		</g>
	</g>
	<line class="line3" x1="26.9" y1="296.7" x2="26.9" y2="317.3"/>
	<g>
		<path class="precio" d="M31.7,359.9c0.7,0,1.2-0.5,1.2-1.2c0-0.2-0.1-0.5-0.2-0.7l-1.1-1.7c-0.3-0.5-0.5-1.1-0.5-1.7v-13.1
			c0-5.1-4.1-9.2-9.2-9.2c-0.5,0-0.9-0.4-0.9-0.9c0-0.2,0-0.3,0.1-0.5l2.9-5h-9.6l2.9,5c0.3,0.4,0.1,1-0.3,1.3
			c-0.1,0.1-0.3,0.1-0.5,0.1c-5.1,0-9.2,4.1-9.2,9.2v13.7c0,0.2-0.1,0.4-0.2,0.5l-1.5,2.2c-0.4,0.5-0.2,1.3,0.3,1.7
			c0.2,0.1,0.4,0.2,0.7,0.2H31.7z M18.3,339.8v-1.8h1.8v1.8c2,0,3.7,1.6,3.7,3.7h-1.8c0-1-0.8-1.8-1.8-1.8v3.7c2,0,3.7,1.6,3.7,3.7
			c0,2-1.6,3.7-3.7,3.7v1.8h-1.8v-1.8c-2,0-3.7-1.6-3.7-3.7h1.8c0,1,0.8,1.8,1.8,1.8v-3.7c-2,0-3.7-1.6-3.7-3.7
			C14.6,341.4,16.2,339.8,18.3,339.8z M15.3,335.2l0.4,1.8c-0.6,0.1-1.1,0.3-1.6,0.6l-0.9-1.6C13.9,335.6,14.6,335.4,15.3,335.2z
			 M9.5,342.4c0-2,0.8-3.9,2.2-5.2l1.3,1.3c-1.1,1-1.7,2.4-1.7,3.9v3.7H9.5V342.4z M20.1,350.8v-3.7c1,0,1.8,0.8,1.8,1.8
			C21.9,350,21.1,350.8,20.1,350.8z M16.4,343.4c0-1,0.8-1.8,1.8-1.8v3.7C17.2,345.3,16.4,344.5,16.4,343.4z M40.3,342.8l-2.4-9
			l2.3-8.5c2.4,0.8,3.8,3.4,3.1,5.9L40.3,342.8z M48.3,355.1l-0.9-4c-0.4-1.8-2-3-3.8-3h-5l2.1,8.8c0.5,2.1,2.6,3.4,4.7,2.8
			C47.5,359.2,48.8,357.2,48.3,355.1z M46.1,357c-0.7,0.9-2.1,1.1-3.1,0.4c-0.4-0.3-0.7-0.7-0.8-1.2l-1.3-5.3
			c-0.1-0.3,0.1-0.5,0.4-0.6c0,0,0.1,0,0.1,0h2.1c1,0,1.9,0.7,2.1,1.7l0.8,3.2C46.7,355.8,46.5,356.5,46.1,357L46.1,357z
			 M33.5,350.9c0.1-0.3-0.1-0.5-0.4-0.6c0,0-0.1,0-0.1,0h-0.7v-2.1h3.6l-2.1,8.8c-0.1,0.4-0.3,0.8-0.5,1.2c0-0.1-0.1-0.1-0.1-0.2
			l-0.8-1.1c-0.1-0.1-0.1-0.3-0.1-0.4V356L33.5,350.9z M36.2,346.9h-1.8c0.1-0.5,0.2-0.9,0.3-1.2h1.8L36.2,346.9z M31.8,327.4
			c-0.7,1.1-0.9,2.5-0.6,3.8l3.4,13.2h2.6c0.3,0,0.5,0.2,0.6,0.5l0.5,2h1.8c-0.2-0.7-5.8-21.6-5.8-21.6
			C33.3,325.7,32.4,326.4,31.8,327.4z M36.6,340.7c0.7,0,1.2,0.6,1.2,1.2c0,0.7-0.6,1.2-1.2,1.2s-1.2-0.6-1.2-1.2
			C35.4,341.3,35.9,340.7,36.6,340.7z"/>
		<g>
			<path class="precio" d="M9.1,373.7v-8h3.4c0.3,0,0.5,0,0.8,0.1c0.3,0.1,0.5,0.2,0.7,0.4c0.2,0.2,0.4,0.5,0.6,0.8
				c0.1,0.4,0.2,0.9,0.2,1.5c0,0.6-0.1,1.1-0.2,1.5c-0.1,0.4-0.3,0.7-0.5,0.9c-0.2,0.2-0.5,0.3-0.7,0.4c-0.3,0.1-0.5,0.1-0.8,0.1
				c-0.1,0-0.3,0-0.5,0c-0.2,0-0.3,0-0.5,0c-0.2,0-0.3,0-0.5-0.1c-0.2,0-0.3,0-0.4,0v2.6H9.1z M10.7,369.8h1.6c0.2,0,0.3,0,0.5-0.1
				c0.1-0.1,0.2-0.2,0.3-0.4c0.1-0.2,0.1-0.5,0.1-0.8c0-0.3,0-0.6-0.1-0.8c-0.1-0.2-0.2-0.3-0.3-0.4c-0.1-0.1-0.3-0.1-0.4-0.1h-1.6
				V369.8z"/>
			<path class="precio" d="M15.8,373.7v-8h3.3c0.3,0,0.6,0,0.9,0.1c0.3,0.1,0.5,0.2,0.7,0.4c0.2,0.2,0.4,0.4,0.5,0.8
				c0.1,0.3,0.2,0.8,0.2,1.3c0,0.4,0,0.7-0.1,0.9c-0.1,0.3-0.2,0.5-0.3,0.6c-0.1,0.2-0.3,0.3-0.4,0.4c-0.2,0.1-0.3,0.2-0.5,0.2
				l1.5,3.2H20l-1.3-3c-0.1,0-0.2,0-0.3,0c-0.1,0-0.2,0-0.3,0s-0.2,0-0.3,0c-0.1,0-0.2,0-0.3,0v3H15.8z M17.4,369.5h1.4
				c0.1,0,0.3,0,0.4-0.1c0.1,0,0.2-0.1,0.3-0.2c0.1-0.1,0.2-0.2,0.2-0.4c0-0.2,0.1-0.3,0.1-0.6c0-0.2,0-0.4-0.1-0.6
				c0-0.2-0.1-0.3-0.2-0.3c-0.1-0.1-0.2-0.1-0.3-0.2c-0.1,0-0.2,0-0.4,0h-1.4V369.5z"/>
			<path class="precio" d="M24.5,373.8c-0.2,0-0.4,0-0.6,0c-0.2,0-0.4-0.1-0.6-0.2c-0.2-0.1-0.4-0.3-0.5-0.5c-0.1-0.2-0.2-0.6-0.2-1
				v-4.5c0-0.4,0.1-0.7,0.2-0.9c0.1-0.2,0.3-0.4,0.4-0.6c0.2-0.1,0.4-0.2,0.6-0.3c0.2-0.1,0.4-0.1,0.6-0.1c0.5,0,1,0,1.4,0
				c0.4,0,0.8,0,1.1,0c0.3,0,0.6,0,0.9,0.1v1.3h-3c-0.2,0-0.4,0.1-0.5,0.2c-0.1,0.1-0.2,0.3-0.2,0.5v1.2l3.2,0.1v1.3l-3.2,0.1v1.1
				c0,0.2,0,0.3,0.1,0.4c0.1,0.1,0.1,0.2,0.2,0.2c0.1,0,0.2,0.1,0.3,0.1h3v1.3c-0.3,0-0.7,0.1-1.1,0.1c-0.4,0-0.8,0-1.2,0.1
				S24.9,373.8,24.5,373.8z"/>
			<path class="precio" d="M31.8,373.8c-0.5,0-0.9-0.1-1.2-0.2c-0.4-0.1-0.7-0.3-0.9-0.6c-0.3-0.3-0.4-0.7-0.6-1.2s-0.2-1.2-0.2-2.1
				c0-0.8,0.1-1.5,0.2-2c0.1-0.5,0.3-0.9,0.6-1.2c0.3-0.3,0.6-0.5,0.9-0.6c0.4-0.1,0.8-0.2,1.2-0.2c0.4,0,0.7,0,1,0.1
				c0.3,0,0.6,0.1,0.8,0.1c0.3,0.1,0.5,0.1,0.6,0.2v1.2c-0.1,0-0.3-0.1-0.5-0.1c-0.2,0-0.5,0-0.8-0.1c-0.3,0-0.6,0-0.9,0
				c-0.3,0-0.6,0-0.8,0.1c-0.2,0.1-0.4,0.2-0.5,0.4c-0.1,0.2-0.2,0.4-0.3,0.8c-0.1,0.3-0.1,0.8-0.1,1.4c0,0.5,0,1,0.1,1.3
				c0.1,0.3,0.1,0.6,0.3,0.8c0.1,0.2,0.3,0.3,0.5,0.4c0.2,0.1,0.5,0.1,0.8,0.1c0.5,0,1,0,1.3,0c0.3,0,0.6,0,0.8-0.1v1.2
				c-0.2,0.1-0.4,0.1-0.7,0.2c-0.3,0-0.5,0.1-0.8,0.1C32.5,373.8,32.1,373.8,31.8,373.8z"/>
			<path class="precio" d="M35.4,373.7v-8H37v8H35.4z"/>
			<path class="precio" d="M41.5,373.8c-0.5,0-1-0.1-1.4-0.2c-0.4-0.1-0.8-0.3-1-0.6c-0.3-0.3-0.5-0.7-0.6-1.2
				c-0.1-0.5-0.2-1.2-0.2-2.1c0-0.9,0.1-1.6,0.2-2.1c0.1-0.5,0.3-0.9,0.6-1.2c0.3-0.3,0.6-0.5,1-0.6c0.4-0.1,0.9-0.2,1.4-0.2
				c0.5,0,1,0.1,1.4,0.2c0.4,0.1,0.8,0.3,1,0.6c0.3,0.3,0.5,0.7,0.6,1.2c0.1,0.5,0.2,1.2,0.2,2.1c0,0.9-0.1,1.6-0.2,2.1
				c-0.1,0.5-0.3,0.9-0.6,1.2c-0.3,0.3-0.6,0.5-1,0.6C42.5,373.7,42,373.8,41.5,373.8z M41.5,372.4c0.3,0,0.6,0,0.8-0.1
				c0.2-0.1,0.4-0.2,0.5-0.4c0.1-0.2,0.2-0.4,0.3-0.8c0.1-0.3,0.1-0.8,0.1-1.3c0-0.6,0-1-0.1-1.4c-0.1-0.3-0.2-0.6-0.3-0.8
				c-0.1-0.2-0.3-0.3-0.5-0.4c-0.2-0.1-0.5-0.1-0.8-0.1c-0.3,0-0.6,0-0.8,0.1c-0.2,0.1-0.4,0.2-0.5,0.4c-0.1,0.2-0.2,0.4-0.3,0.8
				c-0.1,0.3-0.1,0.8-0.1,1.4c0,0.6,0,1,0.1,1.3c0.1,0.3,0.1,0.6,0.3,0.8c0.1,0.2,0.3,0.3,0.5,0.4C40.9,372.3,41.2,372.4,41.5,372.4
				z"/>
		</g>
	</g>
</g>
</svg>
