<?xml version="1.0" encoding="utf-8"?>
<!-- Generator: Adobe Illustrator 24.0.2, SVG Export Plug-In . SVG Version: 6.00 Build 0)  -->
<svg version="1.1" id="Capa_1" xmlns="http://www.w3.org/2000/svg" xmlns:xlink="http://www.w3.org/1999/xlink" x="0px" y="0px"
	 viewBox="0 0 500 800" style="enable-background:new 0 0 500 800;" xml:space="preserve">
<style type="text/css">
	.punto{fill-rule:evenodd;clip-rule:evenodd;fill:#fff;
		opacity: 0;
	}
	.st5{fill:none;stroke:#000;stroke-width:15;
	stroke-dasharray: 30;stroke-dashoffset: 30;
	animation: st5 1s forwards 2.5s;
	}
	.material{fill:#000;
		opacity: 0;
		animation: ver 1s forwards 2.5s;
	}
	.resistencia{fill-rule:evenodd;clip-rule:evenodd;fill:#000;
		animation: ver 1s forwards 3s;
		opacity: 0;
	}
	.premium{fill:#000;
		opacity: 0;
		animation: ver 1s forwards 4s;
	}
	.linea1{fill:none;stroke:#808080;stroke-width:4;
	 stroke-dasharray: 400;stroke-dashoffset: 400;
	 animation: linea1 1s forwards 3s;
	}
	.linea2{fill:none;stroke:#808080;stroke-width:4;
		stroke-dasharray: 50;stroke-dashoffset: 50;
	 	animation: linea2 1s forwards 4s;
	}
	.exhibidor{fill:none;stroke:#fff;stroke-width:2;stroke-linecap:round;stroke-linejoin:round;
		opacity: 0;
		animation: ver 1s forwards 2s;
	}
	@keyframes ver{0%{opacity:0;}100%{opacity:1;}}
	@keyframes st5{0%{stroke-dashoffset:30px;}100%{stroke-dashoffset:0px;}}
	@keyframes linea1{0%{stroke-dashoffset:400px;}100%{stroke-dashoffset:0px;}}
	@keyframes linea2{0%{stroke-dashoffset:50px;}100%{stroke-dashoffset:0px;}}
</style>
<g>
	<path class="material" d="M409.3,67.6V56.3c0-0.6,0.1-1.2,0.3-1.6c0.2-0.4,0.5-0.8,0.8-1c0.3-0.3,0.7-0.4,1.1-0.5
		c0.4-0.1,0.8-0.2,1.2-0.2c0.5,0,1.1,0,1.8,0c0.7,0,1.5,0,2.3,0.1c0.8,0,1.6,0.1,2.3,0.2v2.4h-5.5c-0.4,0-0.7,0.1-0.9,0.3
		c-0.2,0.2-0.3,0.5-0.3,0.9v2.5l5.8,0.2v2.3l-5.8,0.2v5.6H409.3z M398.8,65h3c0.6,0,1.1-0.2,1.4-0.5c0.4-0.3,0.6-0.9,0.8-1.6
		c0.2-0.7,0.2-1.6,0.2-2.6c0-0.9-0.1-1.7-0.2-2.3c-0.1-0.6-0.3-1.1-0.5-1.4c-0.2-0.3-0.5-0.6-0.8-0.7c-0.3-0.1-0.7-0.2-1.1-0.2h-3
		V65z M395.9,67.6V53h6.2c1,0,1.8,0.2,2.5,0.5c0.7,0.3,1.2,0.8,1.6,1.5c0.4,0.7,0.7,1.4,0.8,2.3c0.2,0.9,0.2,1.9,0.2,3
		c0,1.6-0.2,3-0.6,4.1c-0.4,1.1-0.9,1.9-1.7,2.4c-0.8,0.5-1.7,0.8-2.8,0.8H395.9z M378.1,67.6l1.7-14.6h2.8l3.4,11.2l3.3-11.2h2.8
		l1.7,14.6h-2.8l-1.3-10.8l0.5,0l-2.9,10.7h-2.7l-2.9-10.7l0.5,0l-1.2,10.7H378.1z M368.9,59.8c-0.3,0-0.4-0.1-0.4-0.4v-2
		c0-0.3,0.1-0.4,0.4-0.4h1.7c0.3,0,0.4,0.1,0.4,0.4v2c0,0.2,0,0.3-0.1,0.3c-0.1,0.1-0.2,0.1-0.3,0.1H368.9z M368.9,67.6
		c-0.3,0-0.4-0.1-0.4-0.4v-2c0-0.3,0.1-0.4,0.4-0.4h1.7c0.3,0,0.4,0.1,0.4,0.4v2c0,0.2,0,0.3-0.1,0.3c-0.1,0.1-0.2,0.1-0.3,0.1
		H368.9z M365.7,67.6c-0.8,0-1.4-0.1-1.9-0.4c-0.5-0.2-0.9-0.6-1.1-1.1c-0.2-0.5-0.4-1.2-0.4-2V52.5h2.9v11.2c0,0.4,0,0.7,0.1,0.9
		c0.1,0.2,0.2,0.4,0.4,0.5c0.2,0.1,0.4,0.2,0.6,0.2l0.8,0.1v2.1H365.7z M355.3,65.7c0.1,0,0.3,0,0.4,0c0.2,0,0.3-0.1,0.5-0.1
		c0.2,0,0.3-0.1,0.5-0.1c0.2,0,0.3-0.1,0.4-0.1c0.1,0,0.2-0.1,0.2-0.1v-2.5l-1.8,0.1c-0.5,0-0.9,0.2-1.1,0.4
		c-0.2,0.2-0.4,0.5-0.4,0.9v0.4c0,0.3,0.1,0.5,0.2,0.7c0.1,0.2,0.3,0.3,0.5,0.4C354.8,65.6,355,65.7,355.3,65.7z M353.8,67.7
		c-0.8,0-1.5-0.2-2-0.7c-0.5-0.5-0.8-1.1-0.8-2v-0.9c0-0.8,0.3-1.5,0.8-2c0.6-0.5,1.4-0.8,2.6-0.8h2.7v-0.7c0-0.3-0.1-0.6-0.2-0.8
		c-0.1-0.2-0.3-0.4-0.7-0.5c-0.3-0.1-0.8-0.1-1.5-0.1h-3.2v-1.7c0.5-0.2,1.1-0.3,1.8-0.4c0.7-0.1,1.5-0.2,2.5-0.2
		c0.9,0,1.6,0.1,2.3,0.3c0.6,0.2,1.1,0.6,1.4,1.1c0.3,0.5,0.5,1.2,0.5,2.1v7.2h-2.3l-0.5-1.1c-0.1,0.1-0.2,0.2-0.5,0.4
		c-0.2,0.1-0.5,0.3-0.8,0.4c-0.3,0.1-0.7,0.3-1.1,0.3C354.7,67.7,354.2,67.7,353.8,67.7z M346.4,67.6V57h2.9v10.6H346.4z
		 M346.7,55.4c-0.3,0-0.4-0.1-0.4-0.4v-1.9c0-0.3,0.1-0.4,0.4-0.4h2.3c0.1,0,0.2,0,0.3,0.1c0.1,0.1,0.1,0.2,0.1,0.3V55
		c0,0.3-0.1,0.4-0.4,0.4H346.7z M338,67.6V57h2.3l0.7,1.6c0.4-0.5,0.8-0.9,1.3-1.2c0.5-0.3,1-0.5,1.7-0.5c0.1,0,0.3,0,0.4,0
		c0.2,0,0.3,0,0.4,0.1v3c-0.2,0-0.4,0-0.6-0.1c-0.2,0-0.4,0-0.6,0c-0.4,0-0.7,0-1,0.1c-0.3,0.1-0.6,0.2-0.8,0.4
		c-0.3,0.2-0.5,0.4-0.7,0.6v6.6H338z M329.9,61.6h2.4c0.4,0,0.7-0.1,0.9-0.2c0.2-0.2,0.3-0.4,0.3-0.8c0-0.4-0.1-0.7-0.2-0.9
		c-0.1-0.2-0.3-0.4-0.6-0.5c-0.3-0.1-0.6-0.1-1-0.1c-0.4,0-0.8,0.1-1.1,0.2c-0.3,0.2-0.5,0.4-0.6,0.8
		C330,60.4,329.9,60.9,329.9,61.6z M331.9,67.7c-1.2,0-2.1-0.2-2.8-0.5c-0.7-0.3-1.2-0.9-1.5-1.6c-0.3-0.8-0.5-1.9-0.5-3.3
		c0-1.4,0.1-2.5,0.4-3.3c0.3-0.8,0.8-1.3,1.5-1.7c0.7-0.3,1.6-0.5,2.8-0.5c1.1,0,1.9,0.1,2.5,0.3c0.6,0.2,1.1,0.6,1.4,1.1
		c0.3,0.5,0.4,1.3,0.4,2.2c0,0.7-0.1,1.3-0.4,1.7c-0.3,0.4-0.7,0.7-1.2,0.9c-0.5,0.2-1.1,0.3-1.8,0.3H330c0,0.5,0.1,1,0.2,1.3
		c0.1,0.3,0.4,0.6,0.8,0.7c0.4,0.1,0.9,0.2,1.6,0.2h3.1v1.7c-0.5,0.1-1.1,0.2-1.7,0.3C333.4,67.6,332.7,67.7,331.9,67.7z
		 M323.7,67.6c-0.8,0-1.5-0.1-2-0.4c-0.5-0.2-0.9-0.6-1.1-1.2c-0.2-0.6-0.3-1.3-0.3-2.2l0.1-4.5h-1.7v-1.9l1.8-0.5l0.4-3h2.3v3h2.5
		v2.3h-2.5v4.5c0,0.3,0,0.5,0.1,0.7c0.1,0.2,0.1,0.3,0.2,0.4c0.1,0.1,0.2,0.2,0.3,0.2c0.1,0.1,0.3,0.1,0.4,0.1l1.3,0.1v2.2H323.7z
		 M312.6,65.7c0.1,0,0.3,0,0.4,0c0.2,0,0.3-0.1,0.5-0.1c0.2,0,0.3-0.1,0.5-0.1c0.2,0,0.3-0.1,0.4-0.1c0.1,0,0.2-0.1,0.2-0.1v-2.5
		l-1.8,0.1c-0.5,0-0.9,0.2-1.1,0.4c-0.2,0.2-0.4,0.5-0.4,0.9v0.4c0,0.3,0.1,0.5,0.2,0.7c0.1,0.2,0.3,0.3,0.5,0.4
		C312.1,65.6,312.3,65.7,312.6,65.7z M311.1,67.7c-0.8,0-1.5-0.2-2-0.7c-0.5-0.5-0.8-1.1-0.8-2v-0.9c0-0.8,0.3-1.5,0.8-2
		c0.6-0.5,1.4-0.8,2.6-0.8h2.7v-0.7c0-0.3-0.1-0.6-0.2-0.8c-0.1-0.2-0.3-0.4-0.7-0.5c-0.3-0.1-0.8-0.1-1.5-0.1h-3.2v-1.7
		c0.5-0.2,1.1-0.3,1.8-0.4c0.7-0.1,1.5-0.2,2.5-0.2c0.9,0,1.6,0.1,2.3,0.3c0.6,0.2,1.1,0.6,1.4,1.1c0.3,0.5,0.5,1.2,0.5,2.1v7.2
		h-2.3l-0.5-1.1c-0.1,0.1-0.2,0.2-0.5,0.4c-0.2,0.1-0.5,0.3-0.8,0.4c-0.3,0.1-0.7,0.3-1.1,0.3C312,67.7,311.5,67.7,311.1,67.7z
		 M291.3,67.6L293,53h2.8l3.4,11.2l3.3-11.2h2.8l1.7,14.6h-2.8L303,56.8l0.5,0l-2.9,10.7h-2.7l-2.9-10.7l0.5,0l-1.2,10.7H291.3z"/>
	<g>
		<path class="premium" d="M461.9,458.1l1.7-14.6h2.8l3.4,11.2l3.3-11.2h2.8l1.7,14.6h-2.8l-1.3-10.8l0.5,0l-2.9,10.7h-2.7l-2.9-10.7
			l0.5,0l-1.2,10.7H461.9z M454.9,458.2c-0.8,0-1.6-0.1-2.3-0.2c-0.7-0.1-1.3-0.4-1.8-0.7c-0.5-0.3-0.9-0.8-1.2-1.5
			c-0.3-0.6-0.4-1.4-0.4-2.4v-9.9h2.9v9.9c0,0.5,0.1,1,0.3,1.3c0.2,0.3,0.5,0.5,0.9,0.7c0.4,0.1,0.9,0.2,1.5,0.2
			c0.6,0,1.1-0.1,1.5-0.2c0.4-0.1,0.7-0.4,0.9-0.7c0.2-0.3,0.3-0.7,0.3-1.3v-9.9h2.9v9.9c0,1-0.1,1.8-0.4,2.4
			c-0.3,0.6-0.7,1.1-1.2,1.5c-0.5,0.3-1.1,0.6-1.8,0.7C456.4,458.1,455.7,458.2,454.9,458.2z M443.9,458.1v-14.6h2.9v14.6H443.9z
			 M426,458.1l1.7-14.6h2.8l3.4,11.2l3.3-11.2h2.8l1.7,14.6h-2.8l-1.3-10.8l0.5,0l-2.9,10.7h-2.7l-2.9-10.7l0.5,0l-1.2,10.7H426z
			 M418.2,458.2c-0.3,0-0.7,0-1.1-0.1c-0.4-0.1-0.8-0.2-1.2-0.4c-0.4-0.2-0.7-0.5-0.9-1c-0.2-0.4-0.4-1-0.4-1.8v-8.1
			c0-0.6,0.1-1.2,0.3-1.6c0.2-0.4,0.5-0.8,0.8-1c0.3-0.3,0.7-0.4,1.1-0.5c0.4-0.1,0.8-0.2,1.2-0.2c1,0,1.9,0,2.6,0
			c0.8,0,1.4,0.1,2,0.1c0.6,0,1.2,0.1,1.7,0.1v2.4h-5.5c-0.4,0-0.7,0.1-0.9,0.3c-0.2,0.2-0.3,0.5-0.3,0.9v2.1l5.8,0.2v2.3l-5.8,0.2
			v2c0,0.3,0.1,0.6,0.2,0.8c0.1,0.2,0.3,0.3,0.5,0.4c0.2,0.1,0.4,0.1,0.6,0.1h5.5v2.4c-0.6,0.1-1.2,0.1-1.9,0.2
			c-0.7,0-1.4,0.1-2.1,0.1C419.5,458.2,418.9,458.2,418.2,458.2z M405.2,450.3h2.6c0.3,0,0.5,0,0.7-0.1c0.2-0.1,0.4-0.2,0.6-0.3
			c0.2-0.2,0.3-0.4,0.4-0.7c0.1-0.3,0.1-0.6,0.1-1.1c0-0.4,0-0.7-0.1-1c-0.1-0.3-0.2-0.5-0.4-0.6c-0.2-0.2-0.3-0.3-0.6-0.3
			c-0.2-0.1-0.4-0.1-0.7-0.1h-2.6V450.3z M402.3,458.1v-14.6h6c0.6,0,1.1,0.1,1.6,0.2c0.5,0.1,0.9,0.4,1.3,0.7
			c0.4,0.3,0.7,0.8,0.9,1.4c0.2,0.6,0.3,1.4,0.3,2.3c0,0.7-0.1,1.2-0.2,1.7c-0.1,0.5-0.3,0.9-0.5,1.2c-0.2,0.3-0.5,0.5-0.7,0.7
			c-0.3,0.2-0.6,0.3-0.9,0.5l2.7,5.9h-3l-2.4-5.4c-0.2,0-0.3,0-0.5,0c-0.2,0-0.4,0-0.6,0c-0.2,0-0.4,0-0.6,0c-0.2,0-0.4,0-0.6,0v5.4
			H402.3z M392.9,451h2.9c0.3,0,0.6-0.1,0.9-0.2c0.2-0.2,0.4-0.4,0.5-0.8c0.1-0.4,0.2-0.8,0.2-1.4c0-0.6-0.1-1.1-0.2-1.4
			c-0.1-0.3-0.3-0.6-0.5-0.8c-0.2-0.2-0.5-0.2-0.8-0.2h-3V451z M390,458.1v-14.6h6.2c0.5,0,1,0.1,1.5,0.2c0.5,0.1,0.9,0.3,1.4,0.7
			c0.4,0.3,0.8,0.8,1,1.5c0.3,0.7,0.4,1.6,0.4,2.7c0,1.1-0.1,2-0.4,2.7c-0.3,0.7-0.6,1.2-1,1.6c-0.4,0.4-0.9,0.6-1.3,0.7
			c-0.5,0.1-0.9,0.2-1.4,0.2c-0.2,0-0.5,0-0.8,0c-0.3,0-0.6,0-1-0.1c-0.3,0-0.6-0.1-0.9-0.1c-0.3,0-0.5-0.1-0.7-0.1v4.8H390z"/>
		<polygon class="premium" points="437.6,379.6 421.6,379.6 429.6,409.8 		"/>
		<polygon class="premium" points="439.2,379.6 431.3,409.4 455,379.6 		"/>
		<polygon class="premium" points="447.6,364.7 443.8,371.4 440,378 455.3,378 		"/>
		<polygon class="premium" points="404.1,379.6 427.9,409.4 420,379.6 		"/>
		<polygon class="premium" points="425.7,371.4 421.9,378 437.3,378 433.4,371.4 429.6,364.7 		"/>
		<polygon class="premium" points="434.8,370.6 438.6,377.2 446.3,363.9 430.9,363.9 		"/>
		<polygon class="premium" points="420.5,377.2 424.4,370.6 428.2,363.9 412.9,363.9 		"/>
		<polygon class="premium" points="403.9,378 419.2,378 415.4,371.4 411.5,364.7 		"/>
		<path class="premium" d="M393.9,366.8l-3.8-0.5l-1.7-3.4c-0.1-0.3-0.4-0.4-0.7-0.4c-0.3,0-0.6,0.2-0.7,0.4l-1.7,3.4l-3.8,0.5
			c-0.3,0-0.5,0.3-0.6,0.5c-0.1,0.3,0,0.6,0.2,0.8l2.8,2.7l-0.7,3.8c0,0.3,0.1,0.6,0.3,0.8c0.2,0.2,0.6,0.2,0.8,0.1l3.4-1.8l3.4,1.8
			c0.1,0.1,0.2,0.1,0.4,0.1c0.2,0,0.3,0,0.5-0.1c0.2-0.2,0.4-0.5,0.3-0.8l-0.7-3.8l2.8-2.7c0.2-0.2,0.3-0.5,0.2-0.8
			C394.4,367.1,394.2,366.8,393.9,366.8"/>
		<path class="premium" d="M391.6,395.5l0.7-3.8c0-0.3-0.1-0.6-0.3-0.8c-0.2-0.2-0.6-0.2-0.8-0.1l-3.4,1.8l-3.4-1.8
			c-0.3-0.1-0.6-0.1-0.8,0.1c-0.2,0.2-0.4,0.5-0.3,0.8l0.7,3.8l-2.8,2.7c-0.2,0.2-0.3,0.5-0.2,0.8c0.1,0.3,0.3,0.5,0.6,0.5l3.8,0.5
			l1.7,3.4c0.1,0.3,0.4,0.4,0.7,0.4c0.3,0,0.6-0.2,0.7-0.4l1.7-3.4l3.8-0.5c0.3,0,0.5-0.3,0.6-0.5c0.1-0.3,0-0.6-0.2-0.8
			L391.6,395.5z"/>
		<path class="premium" d="M409.9,416l-3.8-0.5l-1.7-3.4c-0.1-0.3-0.4-0.4-0.7-0.4c-0.3,0-0.6,0.2-0.7,0.4l-1.7,3.4l-3.8,0.5
			c-0.3,0-0.5,0.3-0.6,0.5c-0.1,0.3,0,0.6,0.2,0.8l2.8,2.7l-0.7,3.8c0,0.3,0.1,0.6,0.3,0.8c0.2,0.2,0.6,0.2,0.8,0.1l3.4-1.8l3.4,1.8
			c0.1,0.1,0.2,0.1,0.4,0.1c0.2,0,0.3,0,0.5-0.1c0.2-0.2,0.4-0.5,0.3-0.8l-0.7-3.8l2.8-2.7c0.2-0.2,0.3-0.5,0.2-0.8
			C410.4,416.2,410.2,416,409.9,416"/>
		<path class="premium" d="M433.5,425.9l0.7-3.8c0-0.3-0.1-0.6-0.3-0.8c-0.2-0.2-0.6-0.2-0.8-0.1l-3.4,1.8l-3.4-1.8
			c-0.3-0.1-0.6-0.1-0.8,0.1c-0.2,0.2-0.4,0.5-0.3,0.8l0.7,3.8l-2.8,2.7c-0.2,0.2-0.3,0.5-0.2,0.8c0.1,0.3,0.3,0.5,0.6,0.5l3.8,0.6
			l1.7,3.4c0.1,0.3,0.4,0.4,0.7,0.4s0.6-0.2,0.7-0.4l1.7-3.4l3.8-0.6c0.3,0,0.5-0.3,0.6-0.5c0.1-0.3,0-0.6-0.2-0.8L433.5,425.9z"/>
		<path class="premium" d="M461.7,416l-3.8-0.5l-1.7-3.4c-0.1-0.3-0.4-0.4-0.7-0.4c-0.3,0-0.6,0.2-0.7,0.4l-1.7,3.4l-3.8,0.5
			c-0.3,0-0.5,0.3-0.6,0.5c-0.1,0.3,0,0.6,0.2,0.8l2.8,2.7l-0.7,3.8c0,0.3,0.1,0.6,0.3,0.8c0.2,0.2,0.6,0.2,0.8,0.1l3.4-1.8l3.4,1.8
			c0.1,0.1,0.2,0.1,0.4,0.1c0.2,0,0.3,0,0.5-0.1c0.2-0.2,0.4-0.5,0.3-0.8l-0.7-3.8l2.8-2.7c0.2-0.2,0.3-0.5,0.2-0.8
			C462.2,416.2,462,416,461.7,416"/>
		<path class="premium" d="M475.4,395.5l0.7-3.8c0-0.3-0.1-0.6-0.3-0.8c-0.2-0.2-0.6-0.2-0.8-0.1l-3.4,1.8l-3.4-1.8
			c-0.3-0.1-0.6-0.1-0.8,0.1c-0.2,0.2-0.4,0.5-0.3,0.8l0.7,3.8l-2.8,2.7c-0.2,0.2-0.3,0.5-0.2,0.8c0.1,0.3,0.3,0.5,0.6,0.5l3.8,0.5
			l1.7,3.4c0.1,0.3,0.4,0.4,0.7,0.4c0.3,0,0.6-0.2,0.7-0.4l1.7-3.4l3.8-0.5c0.3,0,0.5-0.3,0.6-0.5c0.1-0.3,0-0.6-0.2-0.8
			L475.4,395.5z"/>
		<path class="premium" d="M477.7,366.8l-3.8-0.5l-1.7-3.4c-0.1-0.3-0.4-0.4-0.7-0.4c-0.3,0-0.6,0.2-0.7,0.4l-1.7,3.4l-3.8,0.5
			c-0.3,0-0.5,0.3-0.6,0.5c-0.1,0.3,0,0.6,0.2,0.8l2.8,2.7l-0.7,3.8c0,0.3,0.1,0.6,0.3,0.8c0.1,0.1,0.3,0.1,0.5,0.1
			c0.1,0,0.3,0,0.4-0.1l3.4-1.8l3.4,1.8c0.3,0.1,0.6,0.1,0.8-0.1c0.2-0.2,0.4-0.5,0.3-0.8l-0.7-3.8l2.8-2.7c0.2-0.2,0.3-0.5,0.2-0.8
			C478.2,367.1,478,366.8,477.7,366.8"/>
	</g>
	<line class="linea2" x1="427.9" y1="315.7" x2="427.9" y2="353.3"/>
	<polyline class="linea1" points="186.9,73.1 427.9,73.1 427.9,194.7 	"/>
	<g>
		<path class="exhibidor" d="M329.2,712.1c0.4-2.6,0.6-4.9,0.6-6.7c0-3.9,0-8.1-0.2-12.6c-0.1-4.5-0.4-8.8-0.6-13.1
			c-0.3-4.3-0.7-8.1-1.1-11.5l-19.3-0.1l-0.1,32.4c0,0.9-0.2,1.8-0.7,2.6c-0.4,0.8-1.1,1.4-2,1.8c-0.9,0.4-2.1,0.6-3.5,0.6l-6.6,0
			l-1-31.6l-18.1-0.1l-1.3,31.5l-7.3,0c-1.7,0-3-0.5-3.9-1.5c-0.9-1-1.3-2.5-1.3-4.5l0.1-31.4l-19.3-0.1c-0.3,2.7-0.6,5.7-0.9,9.2
			c-0.3,3.5-0.5,7.6-0.7,12.3c-0.2,4.7-0.3,10.4-0.4,16.9c0,2.4,0.3,4.9,1,7.5c0.7,2.6,1.8,4.9,3.4,7.1c1.6,2.1,3.8,3.8,6.6,5.2
			c2.8,1.3,6.3,2,10.6,2l45.6,0.2c4.9,0,8.7-0.8,11.5-2.4c2.8-1.6,4.9-3.7,6.2-6.1C327.9,717.2,328.8,714.7,329.2,712.1z"/>
		<polygon class="exhibidor" points="285.6,636.2 329.3,663 329.4,637.9 304.9,624.4 329.5,609.3 329.6,584.2 286.8,610.5 242.4,583.2 
			242.2,608.3 267.6,622.2 242.1,637.9 242,663 		"/>
		<polygon class="exhibidor" points="242.4,576.2 329.7,576.5 329.8,553.8 296.5,553.6 296.6,527.8 329.9,528 330,505.2 242.7,504.8 
			242.6,527.6 276.2,527.7 276.1,553.6 242.5,553.4 		"/>
		
			<rect x="275.1" y="437.1" transform="matrix(4.461816e-03 -1 1 4.461816e-03 -195.5696 765.0638)" class="exhibidor" width="22.8" height="87.3"/>
		<path class="exhibidor" d="M275.4,416.7c1.3,0.8,2,2.1,2,3.8l-0.1,13.1l-13.9-0.1l0.1-13.1c0-1.3,0.5-2.4,1.5-3.5c1-1.1,2.8-1.6,5.5-1.6
			C272.4,415.5,274.1,415.9,275.4,416.7z M309.9,419.4l-0.1,14.4l-15.3-0.1l0.1-14.4c0-1.4,0.3-2.6,1-3.5c0.6-0.9,1.5-1.7,2.7-2.2
			c1.1-0.5,2.5-0.8,4.1-0.7c1.6,0,2.9,0.3,4.1,0.8c1.1,0.5,2,1.2,2.6,2.2C309.6,416.8,309.9,418,309.9,419.4z M242.9,456.3l87.3,0.4
			l0.2-37.9c0-6-0.8-11.1-2.3-15.1c-1.6-4.1-4.1-7.1-7.7-9.2c-3.5-2-8.1-3.1-13.8-3.1c-3.1,0-5.8,0.3-8.2,1.1
			c-2.4,0.7-4.6,1.8-6.4,3.1c-1.8,1.3-3.3,2.9-4.4,4.7c-1.1,1.8-1.9,3.7-2.5,5.7c-0.6-2.7-1.8-4.9-3.4-6.6c-1.7-1.8-3.8-3.1-6.3-4
			c-2.5-0.9-5.5-1.4-8.9-1.4c-7.2,0-12.9,2-17.1,6.1c-4.2,4.1-6.3,10.8-6.3,20.2L242.9,456.3z"/>
		
			<rect x="275.6" y="326" transform="matrix(4.461816e-03 -1 1 4.461816e-03 -83.9976 654.9673)" class="exhibidor" width="22.8" height="87.3"/>
		<path class="exhibidor" d="M310.4,309.4l-0.1,13.4l-46.4-0.2l0.1-13.4c0-1.7,0.3-3.3,0.8-4.6c0.5-1.4,1.6-2.5,3.1-3.5
			c1.6-1,3.9-1.7,7-2.2c3.1-0.5,7.2-0.7,12.4-0.7c5.5,0,9.9,0.4,13.3,1.1c3.4,0.7,5.9,1.8,7.4,3.4
			C309.7,304.2,310.4,306.5,310.4,309.4z M243.4,345.2l87.3,0.4l0.2-38.5c0-7.1-1.5-13-4.4-17.7c-3-4.7-7.7-8.2-14.1-10.5
			c-6.4-2.3-14.7-3.5-25-3.6c-6.1,0-11.8,0.4-17.1,1.3c-5.3,0.9-9.9,2.5-13.9,4.9c-4,2.3-7.1,5.5-9.4,9.6c-2.3,4.1-3.4,9.3-3.4,15.6
			L243.4,345.2z"/>
		<path class="exhibidor" d="M310.5,222.4c0.7,1.9,1,4.3,1,7.3c0,2.9-0.4,5.3-1.1,7.2c-0.7,1.9-1.9,3.4-3.7,4.4c-1.7,1-4.2,1.8-7.3,2.2
			c-3.1,0.4-7.1,0.6-12,0.6c-5.1,0-9.2-0.3-12.3-0.7c-3.1-0.4-5.5-1.2-7.2-2.3c-1.7-1.1-2.8-2.6-3.4-4.5c-0.6-1.9-0.9-4.3-0.9-7.2
			c0-3,0.3-5.4,1-7.3c0.6-1.9,1.8-3.3,3.5-4.4c1.7-1,4.1-1.8,7.2-2.2c3.1-0.4,7.2-0.6,12.3-0.6c4.9,0,8.8,0.3,12,0.7
			c3.1,0.4,5.6,1.2,7.3,2.3C308.5,219.1,309.8,220.6,310.5,222.4z M310,264.7c5.8-1.5,10.3-3.9,13.5-7c3.1-3.1,5.3-7,6.6-11.6
			c1.2-4.6,1.9-10.1,1.9-16.2c0-6.2-0.6-11.6-1.7-16.3c-1.2-4.7-3.3-8.6-6.5-11.7c-3.1-3.1-7.6-5.5-13.4-7.1
			c-5.8-1.6-13.4-2.4-22.6-2.4c-9.2,0-16.8,0.7-22.6,2.2c-5.8,1.5-10.3,3.9-13.5,7c-3.1,3.1-5.3,7-6.6,11.6
			c-1.2,4.6-1.9,10.1-1.9,16.2c0,6.2,0.6,11.6,1.7,16.3c1.2,4.7,3.3,8.6,6.5,11.7c3.1,3.1,7.6,5.5,13.4,7.1
			c5.8,1.6,13.4,2.4,22.6,2.4C296.6,267,304.1,266.2,310,264.7z"/>
		<path class="exhibidor" d="M282.9,145.3c0.3,0.9,0.5,2,0.5,3.3l0,10.3l-18.7-0.1l0-10.3c0-1.3,0.2-2.3,0.5-3.3c0.3-0.9,0.8-1.7,1.5-2.4
			c0.7-0.7,1.6-1.1,2.8-1.5c1.2-0.3,2.6-0.5,4.3-0.4c1.7,0,3.2,0.2,4.4,0.5c1.2,0.3,2.2,0.8,3,1.5
			C282,143.5,282.5,144.3,282.9,145.3z M244.1,181.4l87.3,0.4l0.1-22.8l-30.1-0.1c0-0.7,0-1.4,0-2.2c0-0.7,0-1.5,0-2.2
			c0-0.7,0-1.4,0-2.2c0-0.7,0-1.5,0-2.2l30.1-12.1l0.1-23.1l-33.9,15c-0.9-1.6-2-3.2-3.3-4.6c-1.2-1.5-2.8-2.7-4.6-3.8
			c-1.8-1.1-4.1-1.9-6.7-2.6c-2.7-0.6-5.8-1-9.4-1c-5.7,0-10.5,0.6-14.2,1.9c-3.8,1.3-6.8,3.1-9,5.4c-2.2,2.3-3.8,5.1-4.8,8.3
			c-1,3.2-1.4,6.7-1.5,10.6L244.1,181.4z"/>
	</g>
	<path class="st5" d="M186.9,68.3c2.7,0,4.9,2.2,4.9,4.9c0,2.7-2.2,4.9-4.9,4.9c-2.7,0-4.9-2.2-4.9-4.9
		C182,70.4,184.2,68.3,186.9,68.3z"/>
	<path class="punto" d="M186.9,68.2c2.7,0,4.9,2.2,4.9,4.9c0,2.7-2.2,4.9-4.9,4.9c-2.7,0-4.9-2.2-4.9-4.9
		C182,70.4,184.2,68.2,186.9,68.2"/>
	<g>
		<path class="resistencia" d="M409.3,242.9c2.2,0,4.4,0.6,7.3,1.9c0.5,0.2,0.9,0.8,0.9,1.4c0,0.8-0.7,1.5-1.5,1.5c-0.2,0-0.4,0-0.6-0.1
			c-4.9-2.2-6.1-2.3-10.6-0.6c-0.2,0.1-0.3,0.1-0.5,0.1c-0.8,0-1.5-0.7-1.5-1.5c0-0.6,0.4-1.2,1-1.4
			C405.8,243.3,407.6,242.9,409.3,242.9z M418.7,204.3c-0.3,0.1-0.6,0.2-0.8,0.4c-3.1,3.2-4.9,6.8-5,10.6c-0.1,3.8,1.6,7.5,5,10.8
			c0.3,0.3,0.7,0.4,1.1,0.4c0.1,0,0.1,0,0.2,0l8.4-0.9c0.2,0,0.4-0.1,0.6-0.2l3.9-2.6c2.4,7.4,5,16,8.3,22.9
			c-2.4-1.2-4.4-2.1-6.5-2.4c-2.9-0.4-5.7,0.3-8.8,2.3c-3.1-5.7-7.7-8.7-12.6-9.5c-5.3-0.9-10.9,0.7-15.9,3.4
			c-0.5,0.3-0.8,0.8-0.8,1.3l-0.1,22.5c0,0,0,0,0,0c0,0.4,0.2,0.8,0.5,1.1c6.7,5.9,15,5.7,23.3,2.8c14.7,5.7,28.8,3.9,41.4-5.4
			c0.3-0.2,0.5-0.5,0.6-0.9c2.2-10-1.2-23.7-8.7-35.2c-7.5-11.5-19.2-20.9-33.7-21.5c-0.1,0-0.1,0-0.2,0
			C418.8,204.3,418.7,204.3,418.7,204.3z"/>
		<path class="resistencia" d="M480.1,292.2h3.6l-1.8-6.4L480.1,292.2z M475.5,297.9l4.6-14.6h3.7l4.6,14.6h-3l-0.9-3.1h-5l-0.9,3.1H475.5z
			 M471,297.9v-14.6h2.9v14.6H471z M464.4,298c-0.9,0-1.6-0.1-2.3-0.3c-0.7-0.2-1.2-0.6-1.7-1.1c-0.5-0.5-0.8-1.3-1-2.3
			c-0.2-1-0.3-2.3-0.3-3.8c0-1.5,0.1-2.8,0.4-3.7c0.2-1,0.6-1.7,1.1-2.2c0.5-0.5,1-0.9,1.7-1.1c0.7-0.2,1.4-0.3,2.2-0.3
			c0.7,0,1.3,0,1.8,0.1c0.6,0.1,1.1,0.2,1.6,0.3c0.5,0.1,0.9,0.2,1.2,0.3v2.3c-0.2-0.1-0.6-0.1-1-0.2c-0.4-0.1-0.9-0.1-1.4-0.1
			c-0.5,0-1.1,0-1.6,0c-0.6,0-1,0.1-1.4,0.2c-0.4,0.1-0.7,0.4-0.9,0.7c-0.2,0.3-0.4,0.8-0.5,1.5c-0.1,0.6-0.2,1.5-0.2,2.5
			c0,1,0,1.8,0.1,2.4c0.1,0.6,0.3,1.1,0.5,1.5c0.2,0.3,0.5,0.6,0.9,0.7c0.4,0.1,0.9,0.2,1.5,0.2c1,0,1.8,0,2.4-0.1
			c0.6,0,1.1-0.1,1.5-0.1v2.3c-0.4,0.1-0.8,0.2-1.2,0.3c-0.5,0.1-1,0.2-1.5,0.2C465.7,298,465,298,464.4,298z M445.6,297.9v-14.6
			h2.4l6.1,9.6v-9.6h2.9v14.6h-2.4l-6.1-9.6v9.6H445.6z M437.3,298c-0.3,0-0.7,0-1.1-0.1c-0.4-0.1-0.8-0.2-1.2-0.4
			c-0.4-0.2-0.7-0.5-0.9-1c-0.2-0.4-0.4-1-0.4-1.8v-8.1c0-0.6,0.1-1.2,0.3-1.6c0.2-0.4,0.5-0.8,0.8-1c0.3-0.3,0.7-0.4,1.1-0.5
			c0.4-0.1,0.8-0.2,1.2-0.2c1,0,1.9,0,2.6,0c0.8,0,1.4,0.1,2,0.1c0.6,0,1.2,0.1,1.7,0.1v2.4h-5.5c-0.4,0-0.7,0.1-0.9,0.3
			c-0.2,0.2-0.3,0.5-0.3,0.9v2.1l5.8,0.2v2.3l-5.8,0.2v2c0,0.3,0.1,0.6,0.2,0.8c0.1,0.2,0.3,0.3,0.5,0.4c0.2,0.1,0.4,0.1,0.6,0.1
			h5.5v2.4c-0.6,0.1-1.2,0.1-1.9,0.2c-0.7,0-1.4,0.1-2.1,0.1C438.6,298,437.9,298,437.3,298z M425.4,297.9v-12h-4v-2.6h11v2.6h-4v12
			H425.4z M415.1,298c-0.4,0-0.8,0-1.2,0c-0.4,0-0.8-0.1-1.2-0.1c-0.4,0-0.8-0.1-1.2-0.2c-0.4-0.1-0.7-0.1-1-0.2v-2.3
			c0.4,0,0.8,0.1,1.3,0.1c0.5,0,1,0,1.6,0.1c0.5,0,1.1,0,1.5,0c0.5,0,0.9,0,1.3-0.1c0.4-0.1,0.6-0.2,0.8-0.5
			c0.2-0.2,0.3-0.5,0.3-0.9v-0.5c0-0.4-0.1-0.8-0.4-1c-0.3-0.2-0.6-0.3-1.1-0.3h-1.2c-1.4,0-2.5-0.3-3.2-0.9
			c-0.7-0.6-1.1-1.7-1.1-3.1v-0.7c0-1.4,0.4-2.5,1.2-3.1c0.8-0.7,2-1,3.5-1c0.5,0,1.1,0,1.6,0.1c0.5,0.1,1,0.1,1.5,0.2
			c0.5,0.1,0.9,0.1,1.3,0.2v2.3c-0.6,0-1.3-0.1-2-0.1c-0.7,0-1.4-0.1-2.1-0.1c-0.4,0-0.8,0-1.2,0.1c-0.3,0.1-0.6,0.2-0.8,0.5
			c-0.2,0.2-0.3,0.6-0.3,1v0.4c0,0.5,0.1,0.9,0.4,1.1c0.3,0.2,0.7,0.3,1.3,0.3h1.4c0.9,0,1.6,0.2,2.2,0.5c0.6,0.3,1,0.8,1.3,1.3
			c0.3,0.6,0.4,1.2,0.4,1.9v0.8c0,1.1-0.2,2-0.6,2.6c-0.4,0.6-1,1-1.8,1.2C417,297.9,416.1,298,415.1,298z M405.2,297.9v-14.6h2.9
			v14.6H405.2z M398,298c-0.4,0-0.8,0-1.2,0c-0.4,0-0.8-0.1-1.2-0.1c-0.4,0-0.8-0.1-1.2-0.2c-0.4-0.1-0.7-0.1-1-0.2v-2.3
			c0.4,0,0.8,0.1,1.3,0.1c0.5,0,1,0,1.6,0.1c0.5,0,1.1,0,1.5,0c0.5,0,0.9,0,1.3-0.1c0.4-0.1,0.6-0.2,0.8-0.5
			c0.2-0.2,0.3-0.5,0.3-0.9v-0.5c0-0.4-0.1-0.8-0.4-1c-0.3-0.2-0.6-0.3-1.1-0.3h-1.2c-1.4,0-2.5-0.3-3.2-0.9
			c-0.7-0.6-1.1-1.7-1.1-3.1v-0.7c0-1.4,0.4-2.5,1.2-3.1c0.8-0.7,2-1,3.5-1c0.5,0,1.1,0,1.6,0.1c0.5,0.1,1,0.1,1.5,0.2
			c0.5,0.1,0.9,0.1,1.3,0.2v2.3c-0.6,0-1.3-0.1-2-0.1c-0.7,0-1.4-0.1-2.1-0.1c-0.4,0-0.8,0-1.2,0.1c-0.3,0.1-0.6,0.2-0.8,0.5
			c-0.2,0.2-0.3,0.6-0.3,1v0.4c0,0.5,0.1,0.9,0.4,1.1c0.3,0.2,0.7,0.3,1.3,0.3h1.4c0.9,0,1.6,0.2,2.2,0.5c0.6,0.3,1,0.8,1.3,1.3
			c0.3,0.6,0.4,1.2,0.4,1.9v0.8c0,1.1-0.2,2-0.6,2.6c-0.4,0.6-1,1-1.8,1.2C399.9,297.9,399,298,398,298z M385.4,298
			c-0.3,0-0.7,0-1.1-0.1c-0.4-0.1-0.8-0.2-1.2-0.4c-0.4-0.2-0.7-0.5-0.9-1c-0.2-0.4-0.4-1-0.4-1.8v-8.1c0-0.6,0.1-1.2,0.3-1.6
			c0.2-0.4,0.5-0.8,0.8-1c0.3-0.3,0.7-0.4,1.1-0.5c0.4-0.1,0.8-0.2,1.2-0.2c1,0,1.9,0,2.6,0c0.8,0,1.4,0.1,2,0.1
			c0.6,0,1.2,0.1,1.7,0.1v2.4H386c-0.4,0-0.7,0.1-0.9,0.3c-0.2,0.2-0.3,0.5-0.3,0.9v2.1l5.8,0.2v2.3l-5.8,0.2v2
			c0,0.3,0.1,0.6,0.2,0.8c0.1,0.2,0.3,0.3,0.5,0.4c0.2,0.1,0.4,0.1,0.6,0.1h5.5v2.4c-0.6,0.1-1.2,0.1-1.9,0.2
			c-0.7,0-1.4,0.1-2.1,0.1C386.7,298,386,298,385.4,298z M372.3,290.1h2.6c0.3,0,0.5,0,0.7-0.1c0.2-0.1,0.4-0.2,0.6-0.3
			c0.2-0.2,0.3-0.4,0.4-0.7c0.1-0.3,0.1-0.6,0.1-1.1c0-0.4,0-0.7-0.1-1c-0.1-0.3-0.2-0.5-0.4-0.6c-0.2-0.2-0.3-0.3-0.6-0.3
			c-0.2-0.1-0.4-0.1-0.7-0.1h-2.6V290.1z M369.4,297.9v-14.6h6c0.6,0,1.1,0.1,1.6,0.2c0.5,0.1,0.9,0.4,1.3,0.7
			c0.4,0.3,0.7,0.8,0.9,1.4c0.2,0.6,0.3,1.4,0.3,2.3c0,0.7-0.1,1.2-0.2,1.7c-0.1,0.5-0.3,0.9-0.5,1.2c-0.2,0.3-0.5,0.5-0.7,0.7
			c-0.3,0.2-0.6,0.3-0.9,0.5l2.7,5.9h-3l-2.4-5.4c-0.2,0-0.3,0-0.5,0c-0.2,0-0.4,0-0.6,0c-0.2,0-0.4,0-0.6,0c-0.2,0-0.4,0-0.6,0v5.4
			H369.4z"/>
	</g>
</g>
</svg>
