<?xml version="1.0" encoding="utf-8"?>
<!-- Generator: Adobe Illustrator 24.0.2, SVG Export Plug-In . SVG Version: 6.00 Build 0)  -->
<svg version="1.1" id="Capa_1" xmlns="http://www.w3.org/2000/svg" xmlns:xlink="http://www.w3.org/1999/xlink" x="0px" y="0px"
	 viewBox="0 0 500 800" style="enable-background:new 0 0 500 800;" xml:space="preserve">
<style type="text/css">
	.st0{clip-path:url(#SVGID_2_);fill:url(#SVGID_3_);}
	.st1{clip-path:url(#SVGID_5_);fill:url(#SVGID_6_);}
	.st2{clip-path:url(#SVGID_8_);fill:url(#SVGID_9_);}
	.st3{clip-path:url(#SVGID_11_);fill:url(#SVGID_12_);}
	.st4{clip-path:url(#SVGID_14_);fill:url(#SVGID_15_);}
	.st5{clip-path:url(#SVGID_17_);fill:url(#SVGID_18_);}
	.st6{clip-path:url(#SVGID_20_);fill:url(#SVGID_21_);}
	.st7{clip-path:url(#SVGID_23_);fill:url(#SVGID_24_);}
	.st8{clip-path:url(#SVGID_26_);fill:url(#SVGID_27_);}
	.st0,.st1,.st2,.st3,.st4,.st5,.st6,.st7,.st8{
		transform: translateX(100px);
		opacity: 0;
		animation: mundoLine 1s forwards 2s;
	}
	@keyframes mundoLine{
		0%{transform: translateX(100px);opacity: 0;}
		100%{transform: translateX(0px);opacity: 1;}
	}
</style>
<g>
	<g>
		<defs>
			<path id="SVGID_1_" d="M328.2,713.1c0.4-2.6,0.6-4.9,0.6-6.7c0-3.9,0-8.1-0.2-12.6c-0.1-4.5-0.4-8.8-0.6-13.1
				c-0.3-4.3-0.7-8.1-1.1-11.5l-19.3-0.1l-0.1,32.4c0,0.9-0.2,1.8-0.7,2.6c-0.4,0.8-1.1,1.4-2,1.8c-0.9,0.4-2.1,0.6-3.5,0.6l-6.6,0
				l-1-31.6l-18.1-0.1l-1.3,31.5l-7.3,0c-1.7,0-3-0.5-3.9-1.5c-0.9-1-1.3-2.5-1.3-4.5l0.1-31.4l-19.3-0.1c-0.3,2.7-0.6,5.7-0.9,9.2
				c-0.3,3.5-0.5,7.6-0.7,12.3c-0.2,4.7-0.3,10.4-0.4,16.9c0,2.4,0.3,4.9,1,7.5c0.7,2.6,1.8,4.9,3.4,7.1c1.6,2.1,3.8,3.8,6.6,5.2
				c2.8,1.3,6.3,2,10.6,2l45.6,0.2c4.9,0,8.7-0.8,11.5-2.4c2.8-1.6,4.9-3.7,6.2-6.1C326.9,718.2,327.8,715.7,328.2,713.1"/>
		</defs>
		<clipPath id="SVGID_2_">
			<use xlink:href="#SVGID_1_"  style="overflow:visible;"/>
		</clipPath>
		<linearGradient id="SVGID_3_" gradientUnits="userSpaceOnUse" x1="257.9346" y1="732.6208" x2="315.7679" y2="660.2875">
			<stop  offset="0" style="stop-color:#640000"/>
			<stop  offset="0.5" style="stop-color:#960000"/>
			<stop  offset="1" style="stop-color:#640000"/>
		</linearGradient>
		<rect x="240.8" y="668.8" class="st0" width="88" height="60.5"/>
	</g>
	<g>
		<defs>
			<polygon id="SVGID_4_" points="284.6,637.2 328.3,664 328.4,638.9 303.9,625.4 328.5,610.3 328.6,585.2 285.7,611.5 241.3,584.2 
				241.2,609.3 266.6,623.2 241.1,638.8 241,664 			"/>
		</defs>
		<clipPath id="SVGID_5_">
			<use xlink:href="#SVGID_4_"  style="overflow:visible;"/>
		</clipPath>
		<linearGradient id="SVGID_6_" gradientUnits="userSpaceOnUse" x1="248.2815" y1="669.8058" x2="320.8649" y2="578.9724">
			<stop  offset="0" style="stop-color:#640000"/>
			<stop  offset="0.5" style="stop-color:#960000"/>
			<stop  offset="1" style="stop-color:#640000"/>
		</linearGradient>
		<rect x="241" y="584.2" class="st1" width="87.6" height="79.8"/>
	</g>
	<g>
		<defs>
			<polygon id="SVGID_7_" points="241.4,577.1 328.7,577.5 328.8,554.8 295.5,554.6 295.6,528.8 328.9,529 329,506.2 241.7,505.8 
				241.6,528.6 275.2,528.7 275.1,554.5 241.5,554.4 			"/>
		</defs>
		<clipPath id="SVGID_8_">
			<use xlink:href="#SVGID_7_"  style="overflow:visible;"/>
		</clipPath>
		<linearGradient id="SVGID_9_" gradientUnits="userSpaceOnUse" x1="250.7966" y1="584.6698" x2="319.5884" y2="498.6697">
			<stop  offset="0" style="stop-color:#640000"/>
			<stop  offset="0.5" style="stop-color:#960000"/>
			<stop  offset="1" style="stop-color:#640000"/>
		</linearGradient>
		<rect x="241.4" y="505.8" class="st2" width="87.6" height="71.7"/>
	</g>
	<g>
		<defs>
			
				<rect id="SVGID_10_" x="274.1" y="438.1" transform="matrix(4.410628e-03 -1 1 4.410628e-03 -197.5485 765.0621)" width="22.8" height="87.3"/>
		</defs>
		<clipPath id="SVGID_11_">
			<use xlink:href="#SVGID_10_"  style="overflow:visible;"/>
		</clipPath>
		<linearGradient id="SVGID_12_" gradientUnits="userSpaceOnUse" x1="262.9484" y1="509.8661" x2="307.9484" y2="453.6161">
			<stop  offset="0" style="stop-color:#640000"/>
			<stop  offset="0.5" style="stop-color:#960000"/>
			<stop  offset="1" style="stop-color:#640000"/>
		</linearGradient>
		<rect x="241.8" y="470.2" class="st3" width="87.4" height="23.1"/>
	</g>
	<g>
		<defs>
			<path id="SVGID_13_" d="M274.4,417.7c1.3,0.8,2,2.1,2,3.8l-0.1,13.1l-13.9-0.1l0.1-13.1c0-1.3,0.5-2.4,1.5-3.5
				c1-1.1,2.8-1.6,5.5-1.6C271.4,416.5,273.1,416.9,274.4,417.7 M308.9,420.4l-0.1,14.4l-15.3-0.1l0.1-14.4c0-1.4,0.3-2.6,1-3.5
				c0.6-0.9,1.5-1.7,2.7-2.2c1.1-0.5,2.5-0.8,4.1-0.7c1.6,0,2.9,0.3,4,0.8c1.1,0.5,2,1.2,2.6,2.2C308.6,417.8,308.9,419,308.9,420.4
				z M241.9,457.3l87.3,0.4l0.2-37.9c0-6-0.8-11.1-2.3-15.1c-1.6-4.1-4.1-7.1-7.7-9.2c-3.5-2-8.1-3.1-13.8-3.1
				c-3.1,0-5.8,0.3-8.2,1.1c-2.4,0.7-4.6,1.8-6.4,3.1c-1.8,1.3-3.3,2.9-4.4,4.7c-1.1,1.8-1.9,3.7-2.5,5.7c-0.6-2.7-1.8-4.9-3.4-6.6
				c-1.7-1.8-3.8-3.1-6.3-4c-2.5-0.9-5.5-1.4-8.9-1.4c-7.2,0-12.9,2-17.1,6.1c-4.2,4.1-6.3,10.8-6.3,20.2L241.9,457.3z"/>
		</defs>
		<clipPath id="SVGID_14_">
			<use xlink:href="#SVGID_13_"  style="overflow:visible;"/>
		</clipPath>
		<linearGradient id="SVGID_15_" gradientUnits="userSpaceOnUse" x1="252.8566" y1="466.0299" x2="313.3149" y2="390.3632">
			<stop  offset="0" style="stop-color:#640000"/>
			<stop  offset="0.5" style="stop-color:#960000"/>
			<stop  offset="1" style="stop-color:#640000"/>
		</linearGradient>
		<rect x="241.9" y="392.3" class="st4" width="87.5" height="65.3"/>
	</g>
	<g>
		<defs>
			
				<rect id="SVGID_16_" x="274.6" y="327" transform="matrix(4.410629e-03 -1 1 4.410629e-03 -85.9778 654.9606)" width="22.8" height="87.3"/>
		</defs>
		<clipPath id="SVGID_17_">
			<use xlink:href="#SVGID_16_"  style="overflow:visible;"/>
		</clipPath>
		<linearGradient id="SVGID_18_" gradientUnits="userSpaceOnUse" x1="263.4561" y1="398.7888" x2="308.4144" y2="342.5388">
			<stop  offset="0" style="stop-color:#640000"/>
			<stop  offset="0.5" style="stop-color:#960000"/>
			<stop  offset="1" style="stop-color:#640000"/>
		</linearGradient>
		<rect x="242.2" y="359.1" class="st5" width="87.4" height="23.1"/>
	</g>
	<g>
		<defs>
			<path id="SVGID_19_" d="M309.4,310.4l-0.1,13.4l-46.4-0.2l0.1-13.4c0-1.7,0.3-3.3,0.8-4.6c0.5-1.4,1.6-2.5,3.1-3.5
				c1.6-1,3.9-1.7,7-2.2c3.1-0.5,7.2-0.7,12.4-0.7c5.5,0,9.9,0.4,13.3,1.1c3.4,0.7,5.9,1.8,7.4,3.4
				C308.6,305.2,309.4,307.5,309.4,310.4 M242.4,346.2l87.3,0.4l0.2-38.5c0-7.1-1.5-13-4.4-17.7c-3-4.7-7.7-8.2-14.1-10.5
				c-6.4-2.3-14.7-3.5-24.9-3.6c-6.1,0-11.8,0.4-17.1,1.3c-5.3,0.9-9.9,2.5-13.9,4.9c-4,2.3-7.1,5.5-9.4,9.6
				c-2.3,4.1-3.4,9.3-3.4,15.6L242.4,346.2z"/>
		</defs>
		<clipPath id="SVGID_20_">
			<use xlink:href="#SVGID_19_"  style="overflow:visible;"/>
		</clipPath>
		<linearGradient id="SVGID_21_" gradientUnits="userSpaceOnUse" x1="252.1378" y1="353.9593" x2="312.4713" y2="278.5425">
			<stop  offset="0" style="stop-color:#640000"/>
			<stop  offset="0.5" style="stop-color:#960000"/>
			<stop  offset="1" style="stop-color:#640000"/>
		</linearGradient>
		<rect x="242.4" y="276.3" class="st6" width="87.5" height="70.2"/>
	</g>
	<g>
		<defs>
			<path id="SVGID_22_" d="M309.4,223.4c0.7,1.9,1,4.3,1,7.3c0,2.9-0.4,5.3-1.1,7.2c-0.7,1.9-1.9,3.4-3.7,4.4
				c-1.7,1-4.2,1.8-7.3,2.2c-3.1,0.4-7.1,0.6-12,0.6c-5.1,0-9.2-0.3-12.3-0.7c-3.1-0.4-5.5-1.2-7.2-2.3c-1.7-1.1-2.8-2.6-3.4-4.5
				c-0.6-1.9-0.9-4.3-0.9-7.2c0-3,0.3-5.4,1-7.3c0.6-1.9,1.8-3.3,3.5-4.4c1.7-1,4.1-1.8,7.2-2.2c3.1-0.4,7.2-0.6,12.3-0.6
				c4.9,0,8.8,0.3,12,0.7c3.1,0.4,5.6,1.2,7.3,2.3C307.5,220.1,308.7,221.6,309.4,223.4 M309,265.7c5.8-1.5,10.3-3.9,13.5-7
				c3.1-3.1,5.3-7,6.6-11.6c1.2-4.6,1.9-10.1,1.9-16.2c0-6.2-0.6-11.6-1.7-16.3c-1.2-4.7-3.3-8.6-6.5-11.7
				c-3.1-3.1-7.6-5.5-13.4-7.1c-5.8-1.6-13.4-2.4-22.6-2.4c-9.2,0-16.8,0.7-22.6,2.2c-5.8,1.5-10.3,3.9-13.5,7
				c-3.1,3.1-5.3,7-6.6,11.6c-1.2,4.6-1.9,10.1-1.9,16.2c0,6.2,0.6,11.6,1.7,16.3c1.2,4.7,3.3,8.6,6.5,11.7
				c3.1,3.1,7.6,5.5,13.4,7.1c5.8,1.6,13.4,2.4,22.6,2.4C295.6,267.9,303.1,267.2,309,265.7z"/>
		</defs>
		<clipPath id="SVGID_23_">
			<use xlink:href="#SVGID_22_"  style="overflow:visible;"/>
		</clipPath>
		<linearGradient id="SVGID_24_" gradientUnits="userSpaceOnUse" x1="258.7503" y1="265.2907" x2="314.2503" y2="195.9157">
			<stop  offset="0" style="stop-color:#640000"/>
			<stop  offset="0.5" style="stop-color:#960000"/>
			<stop  offset="1" style="stop-color:#640000"/>
		</linearGradient>
		<rect x="242.1" y="193.3" class="st7" width="88.9" height="74.7"/>
	</g>
	<g>
		<defs>
			<path id="SVGID_25_" d="M281.9,146.2c0.3,0.9,0.5,2,0.5,3.3l0,10.3l-18.7-0.1l0-10.3c0-1.3,0.2-2.3,0.5-3.3
				c0.3-0.9,0.8-1.7,1.5-2.4c0.7-0.7,1.6-1.1,2.8-1.5c1.2-0.3,2.6-0.5,4.3-0.5c1.7,0,3.2,0.2,4.4,0.5c1.2,0.3,2.2,0.8,3,1.5
				C281,144.5,281.5,145.3,281.9,146.2 M243.1,182.4l87.3,0.4l0.1-22.8l-30.1-0.1c0-0.7,0-1.4,0-2.2c0-0.7,0-1.5,0-2.2
				c0-0.7,0-1.4,0-2.2c0-0.7,0-1.5,0-2.2l30.1-12.1l0.1-23.1l-33.9,15c-0.9-1.6-2-3.2-3.3-4.6c-1.2-1.5-2.8-2.7-4.6-3.8
				c-1.8-1.1-4.1-1.9-6.7-2.6c-2.7-0.6-5.8-1-9.4-1c-5.7,0-10.5,0.6-14.2,1.9c-3.8,1.3-6.8,3.1-9,5.4c-2.2,2.3-3.8,5.1-4.8,8.3
				c-1,3.2-1.4,6.7-1.5,10.6L243.1,182.4z"/>
		</defs>
		<clipPath id="SVGID_26_">
			<use xlink:href="#SVGID_25_"  style="overflow:visible;"/>
		</clipPath>
		<linearGradient id="SVGID_27_" gradientUnits="userSpaceOnUse" x1="253.7378" y1="190.9404" x2="320.2795" y2="107.732">
			<stop  offset="0" style="stop-color:#640000"/>
			<stop  offset="0.5" style="stop-color:#960000"/>
			<stop  offset="1" style="stop-color:#640000"/>
		</linearGradient>
		<rect x="243.1" y="116.1" class="st8" width="87.6" height="66.7"/>
	</g>
</g>
</svg>
