<?xml version="1.0" encoding="utf-8"?>
<!-- Generator: Adobe Illustrator 24.0.2, SVG Export Plug-In . SVG Version: 6.00 Build 0)  -->
<svg version="1.1" id="Capa_1" xmlns="http://www.w3.org/2000/svg" xmlns:xlink="http://www.w3.org/1999/xlink" x="0px" y="0px"
	 viewBox="0 0 100 800" style="enable-background:new 0 0 100 800;" xml:space="preserve">
<style type="text/css">
	.st0{fill:none;stroke:#000000;stroke-width:2;
		transform: translateX(100px);
		animation: entrada1 0.5s forwards 2s,
					salida1 0.5s forwards 4.5s,
					entrada1 0.5s forwards 5s;
	}
	@keyframes entrada1{
		0%{transform: translateX(100px);}
		100%{transform: translateX(0px);}
	}
	@keyframes salida1{
		0%{transform: translateX(0px);}
		100%{transform: translateX(100px);}
	}
</style>
<g>
	<path class="st0" d="M74.1,561.2c0,3.1-0.7,5.6-2,7.5c-1.3,1.9-3.1,3.4-5.4,4.5c-2.3,1.1-4.9,1.8-8,2.2c-3,0.4-6.2,0.6-9.7,0.6
		c-3.8,0-7.3-0.3-10.4-0.8c-3.1-0.5-5.8-1.4-8-2.8c-2.2-1.4-3.9-3.3-5.1-5.8c-1.2-2.5-1.8-5.8-1.8-9.9c0-2.6,0.1-4.9,0.3-6.8
		c0.2-1.9,0.5-3.7,0.9-5.3c0.4-1.6,0.8-3.4,1.3-5.1h10.1c-0.2,1-0.3,2.2-0.5,3.7c-0.1,1.5-0.2,3.2-0.3,5.1c-0.1,1.9-0.1,3.8-0.1,5.9
		c0,2.6,0.4,4.5,1.2,5.7c0.8,1.2,2.2,2.1,4.2,2.5c2,0.4,4.8,0.6,8.4,0.6c2.8,0,5-0.1,6.7-0.3c1.7-0.2,3-0.6,4-1.1
		c0.9-0.5,1.6-1.2,1.9-2c0.4-0.8,0.5-1.8,0.5-2.9c0-1.6-0.1-3.1-0.2-4.4c-0.2-1.3-0.3-2.3-0.4-2.9h-6.4v6.9H44.9
		c-0.1-1-0.2-2.1-0.3-3.5c-0.1-1.4-0.2-2.8-0.2-4.2c-0.1-1.4-0.1-2.8-0.1-4c0-1.6,0-3,0-4.2c0-1.2,0.1-2.3,0.1-3.4h29.4v9.7
		l-3.3,1.7c0.7,1.1,1.5,2.7,2.3,5C73.7,555.9,74.1,558.4,74.1,561.2z"/>
	<path class="st0" d="M74.2,509.9c0,3.5-0.3,6.6-1,9.2c-0.7,2.6-1.9,4.9-3.7,6.6c-1.8,1.8-4.3,3.1-7.6,4c-3.3,0.9-7.6,1.3-12.8,1.3
		s-9.5-0.4-12.8-1.3c-3.3-0.9-5.9-2.2-7.6-4c-1.8-1.8-3-4-3.7-6.6c-0.7-2.6-1-5.7-1-9.2c0-3.5,0.3-6.6,1-9.2s1.9-4.9,3.7-6.6
		c1.8-1.8,4.3-3.1,7.6-4c3.3-0.9,7.6-1.3,12.8-1.3s9.5,0.4,12.8,1.3c3.3,0.9,5.9,2.2,7.6,4c1.8,1.8,3,4,3.7,6.6
		C73.9,503.3,74.2,506.4,74.2,509.9z M62.6,509.9c0-1.7-0.2-3.1-0.6-4.1c-0.4-1.1-1.1-1.9-2.1-2.5c-1-0.6-2.4-1-4.1-1.3
		c-1.8-0.2-4-0.4-6.8-0.4c-2.9,0-5.2,0.1-7,0.4c-1.8,0.2-3.1,0.7-4.1,1.3c-1,0.6-1.6,1.4-2,2.5c-0.4,1.1-0.5,2.4-0.5,4.1
		c0,1.6,0.2,3,0.5,4.1c0.4,1.1,1,1.9,2,2.5c1,0.6,2.3,1,4.1,1.3c1.8,0.2,4.1,0.4,7,0.4c2.8,0,5-0.1,6.8-0.4c1.8-0.2,3.2-0.7,4.1-1.3
		c1-0.6,1.7-1.4,2.1-2.5C62.4,512.9,62.6,511.5,62.6,509.9z"/>
	<path class="st0" d="M73.8,482.6H24.3v-10.3l27.6-17.4H24.3V442h49.5v10.3l-27.6,17.4h27.6V482.6z"/>
	<path class="st0" d="M73.8,434.7H24.3v-21.9c0-3.6,0.6-6.6,1.9-8.9c1.3-2.3,3-4.1,5.3-5.5c2.3-1.3,4.9-2.3,7.9-2.8
		c3-0.5,6.2-0.8,9.7-0.8c5.8,0,10.5,0.7,14.2,2c3.6,1.3,6.3,3.3,8,5.9c1.7,2.6,2.6,6,2.6,10V434.7z M62.2,421.7v-7.6
		c0-1.6-0.4-2.9-1.3-3.8c-0.9-0.9-2.3-1.6-4.2-1.9c-1.9-0.4-4.5-0.6-7.6-0.6c-2.9,0-5.3,0.1-7,0.4c-1.8,0.3-3.1,0.7-4,1.3
		c-0.9,0.6-1.5,1.2-1.8,2c-0.3,0.8-0.4,1.7-0.4,2.6v7.6H62.2z"/>
	<path class="st0" d="M74.2,368.9c0,3.5-0.3,6.6-1,9.2c-0.7,2.6-1.9,4.9-3.7,6.6c-1.8,1.8-4.3,3.1-7.6,4c-3.3,0.9-7.6,1.3-12.8,1.3
		s-9.5-0.4-12.8-1.3c-3.3-0.9-5.9-2.2-7.6-4c-1.8-1.8-3-4-3.7-6.6c-0.7-2.6-1-5.7-1-9.2c0-3.5,0.3-6.6,1-9.2
		c0.7-2.6,1.9-4.9,3.7-6.6c1.8-1.8,4.3-3.1,7.6-4c3.3-0.9,7.6-1.3,12.8-1.3s9.5,0.4,12.8,1.3c3.3,0.9,5.9,2.2,7.6,4
		c1.8,1.8,3,4,3.7,6.6C73.9,362.3,74.2,365.4,74.2,368.9z M62.6,368.9c0-1.7-0.2-3.1-0.6-4.1c-0.4-1.1-1.1-1.9-2.1-2.5
		c-1-0.6-2.4-1-4.1-1.3c-1.8-0.2-4-0.4-6.8-0.4c-2.9,0-5.2,0.1-7,0.4c-1.8,0.2-3.1,0.7-4.1,1.3c-1,0.6-1.6,1.4-2,2.5
		c-0.4,1.1-0.5,2.4-0.5,4.1c0,1.6,0.2,3,0.5,4.1c0.4,1.1,1,1.9,2,2.5c1,0.6,2.3,1,4.1,1.3c1.8,0.2,4.1,0.4,7,0.4
		c2.8,0,5-0.1,6.8-0.4c1.8-0.2,3.2-0.7,4.1-1.3c1-0.6,1.7-1.4,2.1-2.5C62.4,371.9,62.6,370.5,62.6,368.9z"/>
	<path class="st0" d="M73.8,328.7c0,3-0.4,5.4-1.3,7.3c-0.9,1.9-2.3,3.3-4.2,4.2c-1.9,0.9-4.4,1.3-7.3,1.3H24.3v-12.9h34.5
		c0.8,0,1.4-0.1,1.9-0.4c0.5-0.2,0.9-0.6,1.2-1.2c0.2-0.5,0.4-1.2,0.4-1.9v-14.4h11.6V328.7z"/>
	<path class="st0" d="M73.8,309.1l-49.5-14.7v-16.1l49.5-14.7v13.4l-7.9,2v14.9l7.9,1.9V309.1z M54.3,290.9v-8.9l-19.1,4.5
		L54.3,290.9z"/>
	<path class="st0" d="M74.2,244.1c0,1.5,0,2.9-0.1,4.3c-0.1,1.4-0.2,2.8-0.4,4.1c-0.2,1.4-0.4,2.7-0.6,3.9c-0.2,1.2-0.5,2.4-0.8,3.6
		H62c0.1-1.5,0.2-3.1,0.3-4.9c0.1-1.8,0.2-3.5,0.2-5.3c0-1.8,0.1-3.5,0.1-5c0-1.5-0.1-2.7-0.3-3.7c-0.2-1-0.6-1.7-1.1-2.2
		c-0.5-0.5-1.2-0.7-2-0.7h-0.8c-1,0-1.7,0.3-2.2,1c-0.5,0.7-0.7,1.5-0.7,2.4v3.5c0,5.2-1.1,9.1-3.4,11.7c-2.3,2.7-6.1,4-11.4,4h-2.2
		c-4.9,0-8.5-1.5-11-4.4c-2.4-2.9-3.6-7.2-3.6-12.7c0-2.1,0.1-4.1,0.3-5.9c0.2-1.8,0.4-3.6,0.7-5.2c0.3-1.6,0.6-3.1,0.9-4.4h10.3
		c-0.2,2-0.3,4.3-0.4,6.9c-0.1,2.6-0.2,4.9-0.2,7c0,1.2,0.1,2.4,0.3,3.3c0.2,1,0.5,1.7,1.1,2.3c0.5,0.5,1.3,0.8,2.3,0.8h0.7
		c1.1,0,2-0.4,2.5-1.1c0.6-0.7,0.9-1.8,0.9-3.3v-4.4c0-3.1,0.6-5.7,1.8-7.8c1.2-2.1,2.8-3.6,4.8-4.7c2-1,4.3-1.6,6.9-1.6h2.2
		c4.2,0,7.4,0.7,9.7,2.2c2.2,1.5,3.7,3.6,4.5,6.3C73.8,237.1,74.2,240.4,74.2,244.1z"/>
</g>
</svg>
