<?xml version="1.0" encoding="utf-8"?>
<!-- Generator: Adobe Illustrator 24.0.2, SVG Export Plug-In . SVG Version: 6.00 Build 0)  -->
<svg version="1.1" id="Capa_1" xmlns="http://www.w3.org/2000/svg" xmlns:xlink="http://www.w3.org/1999/xlink" x="0px" y="0px"
	 viewBox="0 0 100 746.1" style="enable-background:new 0 0 100 746.1;" xml:space="preserve">
<style type="text/css">
	.st0{clip-path:url(#SVGID_2_);}
	.punteras,.islas,.exhibidores,.expositores,.estanterias,.graneleros,.gondolas{
		fill: #ffffff;stroke:#000;stroke-width:1;
	}
	.punteras{transform: translateX(100px);
		animation: entrada 0.5s forwards 0s,
					salida 0.5s forwards 3.5s,
					entrada 0.5s forwards 21.5s,
					salida 0.5s forwards 24.5s,
					entrada 0.5s forwards 43.5s,
					salida 0.5s forwards 47.5s;
	}
	.islas{transform: translateX(100px);
		animation: entrada 0.5s forwards 3.5s,
					salida 0.5s forwards 6.5s,
					entrada 0.5s forwards 24.5s,
					salida 0.5s forwards 27.5s,
					entrada 0.5s forwards 47.5s,
					salida 0.5s forwards 50.5s;
	}
	.exhibidores{transform: translateX(100px);
		animation: entrada 0.5s forwards 6.5s,
					salida 0.5s forwards 9.5s,
					entrada 0.5s forwards 27.5s,
					salida 0.5s forwards 30.5s,
					entrada 0.5s forwards 50.5s,
					salida 0.5s forwards 53.5s;
	}
	.expositores{transform: translateX(100px);
		animation: entrada 0.5s forwards 9.5s,
					salida 0.5s forwards 12.5s,
					entrada 0.5s forwards 30.5s,
					salida 0.5s forwards 33.5s,
					entrada 0.5s forwards 53.5s,
					salida 0.5s forwards 56.5s;
	}
	.estanterias{transform: translateX(100px);
		animation: entrada 0.5s forwards 12.5s,
					salida 0.5s forwards 15.5s,
					entrada 0.5s forwards 33.5s,
					salida 0.5s forwards 37.5s,
					entrada 0.5s forwards 56.5s,
					salida 0.5s forwards 59.5s;
	}
	.graneleros{transform: translateX(100px);
		animation: entrada 0.5s forwards 15.5s,
					salida 0.5s forwards 18.5s,
					entrada 0.5s forwards 37.5s,
					salida 0.5s forwards 40.5s,
					entrada 0.5s forwards 59.5s,
					salida 0.5s forwards 62.5s;
	}
	.gondolas{transform: translateX(100px);
		animation: entrada 0.5s forwards 18.5s,
					salida 0.5s forwards 21.5s,
					entrada 0.5s forwards 40.5s,
					salida 0.5s forwards 43.5s,
					entrada 0.5s forwards 62.5s;
					/* salida 0.5s forwards 65.5s; */
	}
	@keyframes entrada{
		0%{transform: translateX(100px);}
		100%{transform: translateX(0px);}
	}
	@keyframes salida{
		0%{transform: translateX(0px);}
		100%{transform: translateX(100px);}
	}
</style>
<g>
	<defs>
		<rect id="SVGID_1_" x="-4" width="112" height="751.1"/>
	</defs>
	<clipPath id="SVGID_2_">
		<use xlink:href="#SVGID_1_"  style="overflow:visible;"/>
	</clipPath>
	<g class="st0">
		<path class="punteras" d="M82.5,178.3c0,1.9-0.1,3.7-0.2,5.5c-0.1,1.8-0.3,3.6-0.5,5.3c-0.2,1.7-0.5,3.4-0.8,5c-0.3,1.6-0.6,3.2-1,4.6
			H66.7c0.2-1.9,0.3-4.1,0.4-6.3c0.1-2.3,0.2-4.6,0.3-6.9c0.1-2.3,0.1-4.5,0.1-6.5c0-1.9-0.1-3.5-0.4-4.7c-0.3-1.3-0.7-2.2-1.4-2.8
			c-0.6-0.6-1.5-0.9-2.6-0.9h-1c-1.3,0-2.2,0.4-2.8,1.3c-0.6,0.9-0.9,1.9-0.9,3.1v4.6c0,6.6-1.5,11.7-4.4,15.1
			c-2.9,3.4-7.8,5.2-14.7,5.2h-2.8c-6.3,0-11-1.9-14.1-5.7c-3.1-3.8-4.7-9.2-4.7-16.3c0-2.7,0.1-5.2,0.4-7.6c0.3-2.4,0.6-4.6,0.9-6.7
			c0.4-2.1,0.8-4,1.2-5.6h13.2c-0.2,2.6-0.4,5.6-0.6,8.9c-0.1,3.3-0.2,6.3-0.2,9c0,1.6,0.1,3,0.3,4.3c0.2,1.3,0.7,2.2,1.4,2.9
			c0.7,0.7,1.7,1,3,1h0.9c1.4,0,2.5-0.5,3.3-1.4c0.7-0.9,1.1-2.3,1.1-4.2v-5.7c0-4,0.8-7.4,2.3-10c1.5-2.7,3.6-4.7,6.2-6
			c2.6-1.3,5.6-2,8.9-2h2.8c5.4,0,9.6,0.9,12.5,2.8c2.9,1.9,4.8,4.6,5.8,8.1C82,169.3,82.5,173.5,82.5,178.3z M56.8,238.7v-11.4
			L32.2,233L56.8,238.7z M81.9,262.2l-63.9-18.9v-20.8l63.9-18.9v17.3l-10.1,2.6v19.2l10.1,2.5V262.2z M46.7,296.2v-7.6
			c0-0.9-0.1-1.7-0.4-2.4c-0.3-0.7-0.7-1.3-1.2-1.8c-0.6-0.5-1.3-0.8-2.2-1.1c-0.9-0.2-2-0.3-3.2-0.3c-1.3,0-2.3,0.1-3.2,0.3
			c-0.9,0.2-1.5,0.6-2,1.1c-0.5,0.5-0.8,1.1-1.1,1.8c-0.2,0.7-0.3,1.5-0.3,2.4v7.6H46.7z M81.9,312.9H18.1v-27.3c0-2.8,0.3-5.4,1-7.7
			c0.7-2.4,1.8-4.4,3.5-6.1c1.6-1.7,3.8-3.1,6.6-4c2.8-0.9,6.2-1.4,10.4-1.4c2.6,0,4.9,0.2,6.9,0.7c1.9,0.5,3.6,1.1,4.9,1.8
			c1.3,0.8,2.5,1.7,3.4,2.8c0.9,1.1,1.7,2.2,2.4,3.4L81.9,264v16.9l-22,8.9c0,0.5,0,1,0,1.6c0,0.5,0,1.1,0,1.6c0,0.5,0,1,0,1.6
			c0,0.5,0,1.1,0,1.6h22V312.9z M82.5,348c0,1.4-0.1,3-0.4,4.9c-0.3,1.9-0.9,3.8-1.9,5.6c-1,1.8-2.5,3.3-4.5,4.5
			c-2,1.2-4.8,1.8-8.4,1.8H33.9c-3.1,0-5.7-0.5-7.7-1.5c-2.1-1-3.7-2.2-4.9-3.8c-1.2-1.5-2-3.3-2.5-5.2c-0.5-1.9-0.7-3.7-0.7-5.5
			c0-4.8,0.1-9,0.2-12.4c0.1-3.5,0.3-6.5,0.5-9c0.2-2.5,0.4-4.8,0.6-6.7h14.1v23c0,1.4,0.3,2.5,0.9,3.3c0.6,0.7,1.6,1.1,2.8,1.1h5.3
			l0.9-23.1h13.2l0.9,23.1h4.8c1,0,1.9-0.2,2.5-0.5c0.7-0.3,1.1-0.8,1.5-1.3c0.3-0.6,0.5-1.2,0.5-1.9v-23.7h14.1
			c0.3,2.5,0.6,5.3,0.9,8.4c0.2,3.2,0.4,6.4,0.5,9.6C82.4,342,82.5,345.1,82.5,348z M81.9,402.8H33v16.1h-15v-48.8h15v16.1h48.9V402.8
			z M81.9,477.4H18.1v-13.2l35.6-22.4H18.1V425h63.9v13.2l-35.6,22.4h35.6V477.4z M82.4,511.8c0,3.5-0.3,6.8-0.9,9.9
			c-0.6,3.1-1.6,5.9-3.2,8.3c-1.5,2.4-3.7,4.3-6.5,5.6c-2.8,1.3-6.4,2-10.9,2H18.1V521h42.7c1.5,0,2.7-0.4,3.7-1.1
			c1-0.7,1.7-1.8,2.2-3.1c0.5-1.4,0.7-3,0.7-5s-0.2-3.6-0.7-5c-0.5-1.4-1.2-2.4-2.2-3.1c-1-0.7-2.2-1.1-3.7-1.1H18.1V486h42.8
			c4.5,0,8.1,0.7,10.9,2c2.8,1.3,5,3.2,6.5,5.6c1.5,2.4,2.6,5.2,3.2,8.3C82.1,505,82.4,508.3,82.4,511.8z M49.4,574.6V565
			c0-1.1-0.3-2-0.9-2.7c-0.6-0.7-1.6-1.1-2.8-1.4c-1.2-0.3-2.8-0.4-4.6-0.4c-1.8,0-3.3,0.2-4.5,0.5c-1.2,0.3-2.1,0.8-2.7,1.4
			c-0.6,0.6-0.9,1.5-0.9,2.6v9.6H49.4z M81.9,591.3H18.1v-28c0-2.2,0.2-4.4,0.7-6.7c0.5-2.3,1.5-4.4,3-6.3c1.5-1.9,3.8-3.5,6.9-4.6
			c3.1-1.2,7.2-1.8,12.3-1.8c5.2,0,9.3,0.6,12.4,1.7c3.1,1.1,5.5,2.6,7,4.5c1.6,1.8,2.6,3.8,3.2,6c0.5,2.1,0.8,4.3,0.8,6.3
			c0,1.1-0.1,2.2-0.2,3.4c-0.1,1.2-0.3,2.3-0.5,3.4c-0.2,1.1-0.4,2.1-0.6,3.1c-0.2,0.9-0.4,1.7-0.5,2.4h19.3V591.3z"/>
		<path class="islas" d="M82.5,283.2c0,1.9-0.1,3.7-0.2,5.5c-0.1,1.8-0.3,3.6-0.5,5.3c-0.2,1.7-0.5,3.4-0.8,5c-0.3,1.6-0.6,3.2-1,4.6
			H66.7c0.2-1.9,0.3-4.1,0.4-6.3c0.1-2.3,0.2-4.6,0.3-6.9c0.1-2.3,0.1-4.5,0.1-6.5c0-1.9-0.1-3.5-0.4-4.7c-0.3-1.3-0.7-2.2-1.4-2.8
			c-0.6-0.6-1.5-0.9-2.6-0.9h-1c-1.3,0-2.2,0.4-2.8,1.3c-0.6,0.9-0.9,1.9-0.9,3.1v4.6c0,6.6-1.5,11.7-4.4,15.1
			c-2.9,3.4-7.8,5.2-14.7,5.2h-2.8c-6.3,0-11-1.9-14.1-5.7c-3.1-3.8-4.7-9.2-4.7-16.3c0-2.7,0.1-5.2,0.4-7.6c0.3-2.4,0.6-4.6,0.9-6.7
			c0.4-2.1,0.8-4,1.2-5.6h13.2c-0.2,2.6-0.4,5.6-0.6,8.9c-0.1,3.3-0.2,6.3-0.2,9c0,1.6,0.1,3,0.3,4.3c0.2,1.3,0.7,2.2,1.4,2.9
			c0.7,0.7,1.7,1,3,1h0.9c1.4,0,2.5-0.5,3.3-1.4c0.7-0.9,1.1-2.3,1.1-4.2v-5.7c0-4,0.8-7.4,2.3-10c1.5-2.7,3.6-4.7,6.2-6
			c2.6-1.3,5.6-2,8.9-2h2.8c5.4,0,9.6,0.9,12.5,2.8c2.9,1.9,4.8,4.6,5.8,8.1C82,274.2,82.5,278.4,82.5,283.2z M56.8,343.6v-11.4
			l-24.6,5.8L56.8,343.6z M81.9,367.1l-63.9-18.9v-20.8l63.9-18.9v17.3l-10.1,2.6v19.2l10.1,2.5V367.1z M81.9,392.3
			c0,3.8-0.6,7-1.7,9.5c-1.1,2.5-3,4.3-5.4,5.4c-2.5,1.1-5.6,1.7-9.5,1.7H18.1v-16.7h44.5c1,0,1.8-0.2,2.5-0.5
			c0.7-0.3,1.2-0.8,1.5-1.5c0.3-0.7,0.5-1.5,0.5-2.5v-18.6h15V392.3z M82.5,440.2c0,1.9-0.1,3.7-0.2,5.5c-0.1,1.8-0.3,3.6-0.5,5.3
			c-0.2,1.7-0.5,3.4-0.8,5c-0.3,1.6-0.6,3.2-1,4.6H66.7c0.2-1.9,0.3-4.1,0.4-6.3c0.1-2.3,0.2-4.6,0.3-6.9c0.1-2.3,0.1-4.5,0.1-6.5
			c0-1.9-0.1-3.5-0.4-4.7c-0.3-1.3-0.7-2.2-1.4-2.8c-0.6-0.6-1.5-0.9-2.6-0.9h-1c-1.3,0-2.2,0.4-2.8,1.3c-0.6,0.9-0.9,1.9-0.9,3.1v4.6
			c0,6.6-1.5,11.7-4.4,15.1c-2.9,3.4-7.8,5.2-14.7,5.2h-2.8c-6.3,0-11-1.9-14.1-5.7c-3.1-3.8-4.7-9.2-4.7-16.3c0-2.7,0.1-5.2,0.4-7.6
			c0.3-2.4,0.6-4.6,0.9-6.7c0.4-2.1,0.8-4,1.2-5.6h13.2c-0.2,2.6-0.4,5.6-0.6,8.9c-0.1,3.3-0.2,6.3-0.2,9c0,1.6,0.1,3,0.3,4.3
			c0.2,1.3,0.7,2.2,1.4,2.9c0.7,0.7,1.7,1,3,1h0.9c1.4,0,2.5-0.5,3.3-1.4c0.7-0.9,1.1-2.3,1.1-4.2v-5.7c0-4,0.8-7.4,2.3-10
			c1.5-2.7,3.6-4.7,6.2-6c2.6-1.3,5.6-2,8.9-2h2.8c5.4,0,9.6,0.9,12.5,2.8c2.9,1.9,4.8,4.6,5.8,8.1C82,431.2,82.5,435.4,82.5,440.2z
			M81.9,486.4H18.1v-16.7h63.9V486.4z"/>
		<path class="exhibidores" d="M82,600.7L50,581.2L18.2,601v-18.4L36.8,571l-18.6-10.1v-18.4l32.6,19.9L82,542.9v18.4l-18,11.1l18,9.8V600.7z
			M82.5,121c0,1.9-0.1,3.7-0.2,5.5c-0.1,1.8-0.3,3.6-0.5,5.3c-0.2,1.7-0.5,3.4-0.8,5c-0.3,1.6-0.6,3.2-1,4.6H66.8
			c0.2-1.9,0.3-4.1,0.4-6.3c0.1-2.3,0.2-4.6,0.3-6.9c0.1-2.3,0.1-4.5,0.1-6.5c0-1.9-0.1-3.5-0.4-4.7c-0.3-1.3-0.7-2.2-1.4-2.8
			c-0.6-0.6-1.5-0.9-2.6-0.9h-1c-1.3,0-2.2,0.4-2.8,1.3c-0.6,0.9-0.9,1.9-0.9,3.1v4.6c0,6.6-1.5,11.7-4.4,15.1
			c-2.9,3.4-7.8,5.2-14.7,5.2h-2.8c-6.3,0-11-1.9-14.1-5.7c-3.1-3.8-4.7-9.2-4.7-16.3c0-2.7,0.1-5.2,0.4-7.6c0.3-2.4,0.6-4.6,0.9-6.7
			c0.4-2.1,0.8-4,1.2-5.6h13.2c-0.2,2.6-0.4,5.6-0.6,8.9c-0.1,3.3-0.2,6.3-0.2,9c0,1.6,0.1,3,0.3,4.3c0.2,1.3,0.7,2.2,1.4,2.9
			c0.7,0.7,1.7,1,3,1h0.9c1.4,0,2.5-0.5,3.3-1.4c0.7-0.9,1.1-2.3,1.1-4.2v-5.7c0-4,0.8-7.4,2.3-10c1.5-2.7,3.6-4.7,6.2-6
			c2.6-1.3,5.6-2,8.9-2h2.8c5.4,0,9.6,0.9,12.5,2.8c2.9,1.9,4.8,4.6,5.8,8.1C82,112,82.5,116.2,82.5,121z M82.5,176.1
			c0,1.4-0.1,3-0.4,4.9c-0.3,1.9-0.9,3.8-1.9,5.6c-1,1.8-2.5,3.3-4.5,4.5c-2,1.2-4.8,1.8-8.4,1.8H33.9c-3.1,0-5.7-0.5-7.7-1.5
			c-2.1-1-3.7-2.2-4.9-3.8c-1.2-1.5-2-3.3-2.5-5.2c-0.5-1.9-0.7-3.7-0.7-5.5c0-4.8,0.1-9,0.2-12.4c0.1-3.5,0.3-6.5,0.5-9
			c0.2-2.6,0.4-4.8,0.6-6.7h14.1v23c0,1.4,0.3,2.5,0.9,3.3c0.6,0.7,1.6,1.1,2.8,1.1h5.3l0.9-23.1h13.2l0.9,23.1h4.8
			c1,0,1.9-0.2,2.5-0.5c0.7-0.3,1.1-0.8,1.5-1.3c0.3-0.6,0.5-1.2,0.5-1.9v-23.7H81c0.3,2.5,0.6,5.3,0.9,8.4c0.2,3.2,0.4,6.4,0.5,9.6
			C82.4,170.2,82.5,173.3,82.5,176.1z M46.7,231.3v-7.6c0-0.9-0.1-1.7-0.4-2.4c-0.3-0.7-0.7-1.3-1.2-1.8c-0.6-0.5-1.3-0.8-2.2-1.1
			c-0.9-0.2-2-0.3-3.2-0.3c-1.3,0-2.3,0.1-3.2,0.3c-0.9,0.2-1.5,0.6-2,1.1c-0.5,0.5-0.8,1.1-1.1,1.8c-0.2,0.7-0.3,1.5-0.3,2.4v7.6
			H46.7z M82,248H18.1v-27.3c0-2.8,0.3-5.4,1-7.7c0.7-2.4,1.8-4.4,3.5-6.1c1.6-1.7,3.8-3.1,6.6-4c2.8-0.9,6.2-1.4,10.4-1.4
			c2.6,0,4.9,0.2,6.9,0.7c1.9,0.5,3.6,1.1,4.9,1.8c1.3,0.8,2.5,1.7,3.4,2.8c0.9,1.1,1.7,2.2,2.4,3.4L82,199.1V216L60,225
			c0,0.5,0,1,0,1.6c0,0.5,0,1.1,0,1.6s0,1,0,1.6c0,0.5,0,1.1,0,1.6h22V248z M67.5,283.2c0-2.2-0.3-4-0.8-5.3c-0.5-1.4-1.4-2.4-2.7-3.2
			c-1.3-0.8-3-1.3-5.3-1.6c-2.3-0.3-5.2-0.5-8.8-0.5c-3.7,0-6.7,0.2-9,0.5c-2.3,0.3-4.1,0.9-5.3,1.6c-1.2,0.8-2.1,1.8-2.5,3.2
			c-0.5,1.4-0.7,3.2-0.7,5.3c0,2.1,0.2,3.9,0.7,5.3c0.5,1.4,1.3,2.5,2.5,3.3c1.2,0.8,3,1.3,5.3,1.6c2.3,0.3,5.3,0.5,9,0.5
			c3.6,0,6.5-0.2,8.8-0.5s4.1-0.9,5.3-1.6c1.3-0.8,2.1-1.9,2.7-3.3C67.3,287.1,67.5,285.3,67.5,283.2z M82.5,283.2
			c0,4.5-0.4,8.5-1.3,11.9c-0.9,3.4-2.5,6.3-4.8,8.6c-2.3,2.3-5.6,4-9.8,5.2c-4.3,1.1-9.8,1.7-16.5,1.7s-12.3-0.6-16.6-1.7
			c-4.3-1.1-7.6-2.9-9.8-5.2c-2.3-2.3-3.9-5.1-4.8-8.6c-0.9-3.4-1.3-7.4-1.3-11.9c0-4.5,0.4-8.5,1.3-11.9c0.9-3.4,2.5-6.3,4.8-8.6
			c2.3-2.3,5.6-4,9.8-5.2c4.3-1.1,9.8-1.7,16.6-1.7s12.3,0.6,16.5,1.7c4.3,1.1,7.6,2.9,9.8,5.2c2.3,2.3,3.9,5.1,4.8,8.6
			C82.1,274.7,82.5,278.7,82.5,283.2z M67,351.4v-9.8c0-2.1-0.6-3.8-1.7-4.9c-1.1-1.2-3-2-5.5-2.5c-2.5-0.5-5.7-0.7-9.8-0.7
			c-3.8,0-6.8,0.2-9.1,0.6c-2.3,0.4-4,0.9-5.1,1.6c-1.1,0.7-1.9,1.6-2.3,2.6c-0.4,1-0.6,2.1-0.6,3.4v9.8H67z M82,368H18.1v-28.2
			c0-4.6,0.8-8.5,2.5-11.4c1.6-3,3.9-5.3,6.8-7.1c2.9-1.7,6.3-2.9,10.2-3.6c3.9-0.7,8-1,12.5-1c7.5,0,13.6,0.8,18.3,2.5
			c4.7,1.7,8.1,4.2,10.3,7.7c2.2,3.4,3.3,7.7,3.3,12.9V368z M82,394.2H18.1v-16.7H82V394.2z M43.2,432.8v-9.6c0-1.3-0.5-2.2-1.5-2.8
			c-1-0.6-2.2-0.9-3.6-0.9c-1.9,0-3.3,0.4-4,1.2c-0.7,0.8-1.1,1.6-1.1,2.5v9.6H43.2z M67,432.8v-10.6c0-1-0.2-1.9-0.7-2.6
			c-0.5-0.7-1.1-1.2-1.9-1.6c-0.8-0.4-1.8-0.6-3-0.6c-1.1,0-2.1,0.2-3,0.6c-0.8,0.4-1.5,0.9-1.9,1.6c-0.5,0.7-0.7,1.5-0.7,2.6v10.6H67
			z M82,449.5H18.1V423c0-6.9,1.5-11.8,4.6-14.8c3-3,7.2-4.5,12.5-4.5c2.5,0,4.6,0.3,6.5,1c1.9,0.7,3.4,1.6,4.6,2.9
			c1.2,1.3,2.1,2.9,2.5,4.9c0.4-1.5,1-2.9,1.8-4.2c0.8-1.3,1.9-2.5,3.2-3.4c1.3-1,2.9-1.7,4.6-2.3c1.8-0.5,3.8-0.8,6-0.8
			c4.2,0,7.6,0.7,10.1,2.2c2.6,1.5,4.5,3.7,5.6,6.7c1.2,3,1.8,6.7,1.8,11.1V449.5z M82,475.6H18.1v-16.7H82V475.6z M82,537.3H18.1
			v-16.7h24.6v-18.9H18.1v-16.7H82v16.7H57.7v18.9H82V537.3z M82.5,631.7c0,1.4-0.1,3-0.4,4.9c-0.3,1.9-0.9,3.8-1.9,5.6
			c-1,1.8-2.5,3.3-4.5,4.5c-2,1.2-4.8,1.8-8.4,1.8H33.9c-3.1,0-5.7-0.5-7.7-1.5c-2.1-1-3.7-2.2-4.9-3.8c-1.2-1.5-2-3.3-2.5-5.2
			c-0.5-1.9-0.7-3.7-0.7-5.5c0-4.8,0.1-9,0.2-12.4c0.1-3.5,0.3-6.5,0.5-9c0.2-2.6,0.4-4.8,0.6-6.7h14.1v23c0,1.4,0.3,2.5,0.9,3.3
			c0.6,0.7,1.6,1.1,2.8,1.1h5.3l0.9-23.1h13.2l0.9,23.1h4.8c1,0,1.9-0.2,2.5-0.5c0.7-0.3,1.1-0.8,1.5-1.3s0.5-1.2,0.5-1.9v-23.7H81
			c0.3,2.5,0.6,5.3,0.9,8.4c0.2,3.2,0.4,6.4,0.5,9.6C82.4,625.8,82.5,628.9,82.5,631.7z"/>
		<path class="expositores" d="M81.9,589.9L64,580l18-11.1v-18.4l-31.3,19.4L18,550v18.4l18.6,10.1L18,590.1v18.4l31.8-19.7l32.1,19.5V589.9z
			M82.5,113.3c0,1.9-0.1,3.7-0.2,5.5c-0.1,1.8-0.3,3.6-0.5,5.3c-0.2,1.7-0.5,3.4-0.8,5c-0.3,1.6-0.6,3.2-1,4.6H66.8
			c0.2-1.9,0.3-4.1,0.4-6.3c0.1-2.3,0.2-4.6,0.3-6.9c0.1-2.3,0.1-4.5,0.1-6.5c0-1.9-0.1-3.5-0.4-4.7c-0.3-1.3-0.7-2.2-1.4-2.8
			c-0.6-0.6-1.5-0.9-2.6-0.9h-1c-1.3,0-2.2,0.4-2.8,1.3c-0.6,0.9-0.9,1.9-0.9,3.1v4.6c0,6.6-1.5,11.7-4.4,15.1
			c-2.9,3.4-7.8,5.2-14.7,5.2h-2.8c-6.3,0-11-1.9-14.1-5.7c-3.1-3.8-4.7-9.2-4.7-16.3c0-2.7,0.1-5.2,0.4-7.6c0.3-2.4,0.6-4.6,0.9-6.7
			c0.4-2.1,0.8-4,1.2-5.6h13.2c-0.2,2.6-0.4,5.6-0.6,8.9c-0.1,3.3-0.2,6.3-0.2,9c0,1.6,0.1,3,0.3,4.3c0.2,1.3,0.7,2.2,1.4,2.9
			c0.7,0.7,1.7,1,3,1h0.9c1.4,0,2.5-0.5,3.3-1.4c0.7-0.9,1.1-2.3,1.1-4.2v-5.7c0-4,0.8-7.4,2.3-10c1.5-2.7,3.6-4.7,6.2-6
			c2.6-1.3,5.6-2,8.9-2h2.8c5.4,0,9.6,0.9,12.5,2.8c2.9,1.9,4.8,4.6,5.8,8.1C82,104.2,82.5,108.4,82.5,113.3z M82.5,168.4
			c0,1.4-0.1,3-0.4,4.9c-0.3,1.9-0.9,3.8-1.9,5.6c-1,1.8-2.5,3.3-4.5,4.5c-2,1.2-4.8,1.8-8.4,1.8H33.9c-3.1,0-5.7-0.5-7.7-1.5
			c-2.1-1-3.7-2.2-4.9-3.8c-1.2-1.5-2-3.3-2.5-5.2c-0.5-1.9-0.7-3.7-0.7-5.5c0-4.8,0.1-9,0.2-12.4c0.1-3.5,0.3-6.5,0.5-9
			c0.2-2.6,0.4-4.8,0.6-6.7h14.1v23c0,1.4,0.3,2.5,0.9,3.3c0.6,0.7,1.6,1.1,2.8,1.1h5.3l0.9-23.1h13.2l0.9,23.1h4.8
			c1,0,1.9-0.2,2.5-0.5c0.7-0.3,1.1-0.8,1.5-1.3c0.3-0.6,0.5-1.2,0.5-1.9v-23.7H81c0.3,2.5,0.6,5.3,0.9,8.4c0.2,3.2,0.4,6.4,0.5,9.6
			C82.4,162.5,82.5,165.5,82.5,168.4z M46.7,223.6V216c0-0.9-0.1-1.7-0.4-2.4c-0.3-0.7-0.7-1.3-1.2-1.8c-0.6-0.5-1.3-0.8-2.2-1.1
			c-0.9-0.2-2-0.3-3.2-0.3c-1.3,0-2.3,0.1-3.2,0.3c-0.9,0.2-1.5,0.6-2,1.1c-0.5,0.5-0.8,1.1-1.1,1.8c-0.2,0.7-0.3,1.5-0.3,2.4v7.6
			H46.7z M82,240.3H18.1V213c0-2.8,0.3-5.4,1-7.7c0.7-2.4,1.8-4.4,3.5-6.1c1.6-1.7,3.8-3.1,6.6-4c2.8-0.9,6.2-1.4,10.4-1.4
			c2.6,0,4.9,0.2,6.9,0.7c1.9,0.5,3.6,1.1,4.9,1.8c1.3,0.8,2.5,1.7,3.4,2.8c0.9,1.1,1.7,2.2,2.4,3.4L82,191.4v16.9l-22,8.9
			c0,0.5,0,1,0,1.6c0,0.5,0,1.1,0,1.6c0,0.5,0,1,0,1.6c0,0.5,0,1.1,0,1.6h22V240.3z M67.5,275.4c0-2.2-0.3-4-0.8-5.3
			c-0.5-1.4-1.4-2.4-2.7-3.2c-1.3-0.8-3-1.3-5.3-1.6c-2.3-0.3-5.2-0.5-8.8-0.5c-3.7,0-6.7,0.2-9,0.5c-2.3,0.3-4.1,0.9-5.3,1.6
			c-1.2,0.8-2.1,1.8-2.5,3.2c-0.5,1.4-0.7,3.2-0.7,5.3c0,2.1,0.2,3.9,0.7,5.3c0.5,1.4,1.3,2.5,2.5,3.3c1.2,0.8,3,1.3,5.3,1.6
			c2.3,0.3,5.3,0.5,9,0.5c3.6,0,6.5-0.2,8.8-0.5c2.3-0.3,4.1-0.9,5.3-1.6c1.3-0.8,2.1-1.9,2.7-3.3C67.3,279.3,67.5,277.6,67.5,275.4z
			M82.5,275.4c0,4.5-0.4,8.5-1.3,11.9c-0.9,3.4-2.5,6.3-4.8,8.6c-2.3,2.3-5.6,4-9.8,5.2c-4.3,1.1-9.8,1.7-16.5,1.7
			s-12.3-0.6-16.6-1.7c-4.3-1.1-7.6-2.9-9.8-5.2c-2.3-2.3-3.9-5.1-4.8-8.6c-0.9-3.4-1.3-7.4-1.3-11.9c0-4.5,0.4-8.5,1.3-11.9
			c0.9-3.4,2.5-6.3,4.8-8.6c2.3-2.3,5.6-4,9.8-5.2c4.3-1.1,9.8-1.7,16.6-1.7s12.3,0.6,16.5,1.7c4.3,1.1,7.6,2.9,9.8,5.2
			c2.3,2.3,3.9,5.1,4.8,8.6C82.1,266.9,82.5,270.9,82.5,275.4z M82,339.6H33.1v16.1h-15v-48.8h15v16.1H82V339.6z M82,378.4H18.1v-16.7
			H82V378.4z M82.5,409.7c0,1.9-0.1,3.7-0.2,5.5c-0.1,1.8-0.3,3.6-0.5,5.3c-0.2,1.7-0.5,3.4-0.8,5c-0.3,1.6-0.6,3.2-1,4.6H66.8
			c0.2-1.9,0.3-4.1,0.4-6.3c0.1-2.3,0.2-4.6,0.3-6.9c0.1-2.3,0.1-4.5,0.1-6.5c0-1.9-0.1-3.5-0.4-4.7c-0.3-1.3-0.7-2.2-1.4-2.8
			c-0.6-0.6-1.5-0.9-2.6-0.9h-1c-1.3,0-2.2,0.4-2.8,1.3c-0.6,0.9-0.9,1.9-0.9,3.1v4.6c0,6.6-1.5,11.7-4.4,15.1
			c-2.9,3.4-7.8,5.2-14.7,5.2h-2.8c-6.3,0-11-1.9-14.1-5.7c-3.1-3.8-4.7-9.2-4.7-16.3c0-2.7,0.1-5.2,0.4-7.6c0.3-2.4,0.6-4.6,0.9-6.7
			c0.4-2.1,0.8-4,1.2-5.6h13.2c-0.2,2.6-0.4,5.6-0.6,8.9c-0.1,3.3-0.2,6.3-0.2,9c0,1.6,0.1,3,0.3,4.3c0.2,1.3,0.7,2.2,1.4,2.9
			c0.7,0.7,1.7,1,3,1h0.9c1.4,0,2.5-0.5,3.3-1.4c0.7-0.9,1.1-2.3,1.1-4.2v-5.7c0-4,0.8-7.4,2.3-10c1.5-2.7,3.6-4.7,6.2-6
			c2.6-1.3,5.6-2,8.9-2h2.8c5.4,0,9.6,0.9,12.5,2.8c2.9,1.9,4.8,4.6,5.8,8.1C82,400.7,82.5,404.9,82.5,409.7z M67.5,464.9
			c0-2.2-0.3-4-0.8-5.3c-0.5-1.4-1.4-2.4-2.7-3.2c-1.3-0.8-3-1.3-5.3-1.6c-2.3-0.3-5.2-0.5-8.8-0.5c-3.7,0-6.7,0.2-9,0.5
			c-2.3,0.3-4.1,0.9-5.3,1.6c-1.2,0.8-2.1,1.8-2.5,3.2c-0.5,1.4-0.7,3.2-0.7,5.3c0,2.1,0.2,3.9,0.7,5.3c0.5,1.4,1.3,2.5,2.5,3.3
			c1.2,0.8,3,1.3,5.3,1.6c2.3,0.3,5.3,0.5,9,0.5c3.6,0,6.5-0.2,8.8-0.5c2.3-0.3,4.1-0.9,5.3-1.6c1.3-0.8,2.1-1.9,2.7-3.3
			C67.3,468.8,67.5,467.1,67.5,464.9z M82.5,464.9c0,4.5-0.4,8.5-1.3,11.9c-0.9,3.4-2.5,6.3-4.8,8.6c-2.3,2.3-5.6,4-9.8,5.2
			c-4.3,1.1-9.8,1.7-16.5,1.7s-12.3-0.6-16.6-1.7c-4.3-1.1-7.6-2.9-9.8-5.2c-2.3-2.3-3.9-5.1-4.8-8.6c-0.9-3.4-1.3-7.4-1.3-11.9
			c0-4.5,0.4-8.5,1.3-11.9c0.9-3.4,2.5-6.3,4.8-8.6c2.3-2.3,5.6-4,9.8-5.2c4.3-1.1,9.8-1.7,16.6-1.7s12.3,0.6,16.5,1.7
			c4.3,1.1,7.6,2.9,9.8,5.2c2.3,2.3,3.9,5.1,4.8,8.6C82.1,456.4,82.5,460.4,82.5,464.9z M49.5,528.4v-9.6c0-1.1-0.3-2.1-0.9-2.7
			c-0.6-0.7-1.6-1.1-2.8-1.4c-1.2-0.3-2.8-0.4-4.6-0.4c-1.8,0-3.3,0.2-4.5,0.5c-1.2,0.3-2.1,0.8-2.7,1.4c-0.6,0.6-0.9,1.5-0.9,2.6v9.6
			H49.5z M82,545.1H18.1v-28c0-2.2,0.2-4.4,0.7-6.7c0.5-2.3,1.5-4.4,3-6.3c1.5-1.9,3.8-3.5,6.9-4.6c3.1-1.2,7.2-1.8,12.3-1.8
			c5.2,0,9.3,0.6,12.4,1.7c3.1,1.1,5.5,2.6,7.1,4.5c1.6,1.8,2.6,3.8,3.2,6c0.5,2.1,0.8,4.3,0.8,6.3c0,1.1-0.1,2.2-0.2,3.4
			c-0.1,1.2-0.3,2.3-0.5,3.4c-0.2,1.1-0.4,2.1-0.6,3.1c-0.2,0.9-0.4,1.7-0.5,2.4H82V545.1z M82.5,639.5c0,1.4-0.1,3-0.4,4.9
			c-0.3,1.9-0.9,3.8-1.9,5.6c-1,1.8-2.5,3.3-4.5,4.5c-2,1.2-4.8,1.8-8.4,1.8H33.9c-3.1,0-5.7-0.5-7.7-1.5c-2.1-1-3.7-2.2-4.9-3.8
			c-1.2-1.5-2-3.3-2.5-5.2c-0.5-1.9-0.7-3.7-0.7-5.5c0-4.8,0.1-9,0.2-12.4c0.1-3.5,0.3-6.5,0.5-9c0.2-2.6,0.4-4.8,0.6-6.8h14.1v23
			c0,1.4,0.3,2.5,0.9,3.3c0.6,0.7,1.6,1.1,2.8,1.1h5.3l0.9-23.1h13.2l0.9,23.1h4.8c1,0,1.9-0.2,2.5-0.5c0.7-0.3,1.1-0.8,1.5-1.3
			c0.3-0.6,0.5-1.2,0.5-1.9v-23.7H81c0.3,2.5,0.6,5.3,0.9,8.4c0.2,3.2,0.4,6.4,0.5,9.6C82.4,633.5,82.5,636.6,82.5,639.5z"/>
		<path class="estanterias" d="M90,119.8c0,1.9-0.1,3.7-0.2,5.5c-0.1,1.8-0.3,3.5-0.5,5.3c-0.2,1.7-0.5,3.4-0.8,5c-0.3,1.6-0.6,3.1-1,4.6H74.4
			c0.2-1.9,0.3-4,0.4-6.3c0.1-2.2,0.2-4.5,0.3-6.8c0.1-2.3,0.1-4.4,0.1-6.4c0-1.9-0.1-3.4-0.4-4.7c-0.3-1.2-0.7-2.2-1.4-2.8
			c-0.6-0.6-1.5-0.9-2.6-0.9h-1c-1.2,0-2.2,0.4-2.8,1.3c-0.6,0.9-0.9,1.9-0.9,3.1v4.5c0,6.6-1.4,11.6-4.3,15
			c-2.9,3.4-7.7,5.1-14.6,5.1h-2.8c-6.2,0-10.9-1.9-14-5.6c-3.1-3.7-4.6-9.1-4.6-16.2c0-2.7,0.1-5.2,0.4-7.5c0.3-2.4,0.6-4.6,0.9-6.6
			c0.4-2.1,0.8-3.9,1.1-5.6h13.1c-0.2,2.6-0.4,5.5-0.6,8.8c-0.1,3.3-0.2,6.2-0.2,8.9c0,1.6,0.1,3,0.3,4.3c0.2,1.2,0.7,2.2,1.4,2.9
			c0.7,0.7,1.7,1,3,1h0.9c1.4,0,2.5-0.5,3.2-1.4c0.7-0.9,1.1-2.3,1.1-4.2v-5.6c0-4,0.8-7.3,2.3-9.9c1.5-2.6,3.5-4.6,6.1-6
			c2.6-1.3,5.5-2,8.8-2h2.8c5.4,0,9.5,0.9,12.3,2.8c2.8,1.9,4.8,4.5,5.7,8C89.5,110.8,90,115,90,119.8z M64.6,179.5v-11.3l-24.3,5.7
			L64.6,179.5z M89.5,202.8l-63.2-18.7v-20.6l63.2-18.7v17.1l-10,2.6v19l10,2.5V202.8z M22.2,220.4L10,214.6v-13.1l12.2,9.2V220.4z
			M89.5,224.4H26.3v-16.5h63.2V224.4z M54.6,262.4v-7.5c0-0.9-0.1-1.7-0.4-2.4c-0.3-0.7-0.7-1.3-1.2-1.7c-0.6-0.5-1.3-0.8-2.2-1.1
			c-0.9-0.2-1.9-0.3-3.2-0.3c-1.2,0-2.3,0.1-3.1,0.3c-0.9,0.2-1.5,0.6-2,1.1c-0.5,0.5-0.8,1.1-1.1,1.7c-0.2,0.7-0.3,1.5-0.3,2.4v7.5
			H54.6z M89.5,278.9H26.3v-27c0-2.8,0.3-5.3,1-7.7c0.7-2.3,1.8-4.3,3.4-6c1.6-1.7,3.8-3,6.5-4c2.7-0.9,6.2-1.4,10.3-1.4
			c2.6,0,4.9,0.2,6.8,0.7c1.9,0.5,3.6,1.1,4.9,1.8c1.3,0.8,2.5,1.7,3.4,2.7c0.9,1,1.7,2.2,2.4,3.4l24.5-11v16.8l-21.8,8.9
			c0,0.5,0,1,0,1.6c0,0.5,0,1.1,0,1.6c0,0.5,0,1,0,1.6c0,0.5,0,1.1,0,1.6h21.8V278.9z M90,313.6c0,1.4-0.1,3-0.4,4.9
			c-0.3,1.9-0.9,3.7-1.9,5.5c-1,1.8-2.5,3.3-4.5,4.5c-2,1.2-4.8,1.8-8.3,1.8h-33c-3.1,0-5.6-0.5-7.7-1.4c-2-1-3.6-2.2-4.8-3.7
			c-1.2-1.5-2-3.2-2.5-5.1c-0.5-1.9-0.7-3.7-0.7-5.4c0-4.8,0.1-8.9,0.2-12.3c0.1-3.4,0.3-6.4,0.5-8.9c0.2-2.5,0.4-4.8,0.6-6.7h14v22.8
			c0,1.4,0.3,2.5,0.9,3.2c0.6,0.7,1.6,1.1,2.8,1.1h5.3l0.9-22.9h13.1l0.9,22.9h4.8c1,0,1.9-0.2,2.5-0.5c0.7-0.3,1.1-0.8,1.4-1.3
			c0.3-0.6,0.5-1.2,0.5-1.9v-23.5h14c0.3,2.4,0.6,5.2,0.9,8.3c0.2,3.1,0.4,6.3,0.5,9.5C89.9,307.7,90,310.7,90,313.6z M89.5,367.9
			H41.1v15.9H26.3v-48.3h14.8v15.9h48.4V367.9z M89.5,441.7H26.3v-13.1l35.2-22.2H26.3v-16.5h63.2v13.1l-35.2,22.2h35.2V441.7z
			M64.6,481.6v-11.3L40.3,476L64.6,481.6z M89.5,504.8l-63.2-18.7v-20.6l63.2-18.7v17.1l-10,2.6v19l10,2.5V504.8z M89.5,534.8H41.1
			v15.9H26.3v-48.3h14.8v15.9h48.4V534.8z M90,578.3c0,1.9-0.1,3.7-0.2,5.5c-0.1,1.8-0.3,3.5-0.5,5.3c-0.2,1.7-0.5,3.4-0.8,5
			c-0.3,1.6-0.6,3.1-1,4.6H74.4c0.2-1.9,0.3-4,0.4-6.3c0.1-2.2,0.2-4.5,0.3-6.8c0.1-2.3,0.1-4.4,0.1-6.4c0-1.9-0.1-3.4-0.4-4.7
			c-0.3-1.2-0.7-2.2-1.4-2.8c-0.6-0.6-1.5-0.9-2.6-0.9h-1c-1.2,0-2.2,0.4-2.8,1.3c-0.6,0.9-0.9,1.9-0.9,3.1v4.5c0,6.6-1.4,11.6-4.3,15
			c-2.9,3.4-7.7,5.1-14.6,5.1h-2.8c-6.2,0-10.9-1.9-14-5.6c-3.1-3.7-4.6-9.1-4.6-16.2c0-2.7,0.1-5.2,0.4-7.5c0.3-2.4,0.6-4.6,0.9-6.6
			c0.4-2.1,0.8-3.9,1.1-5.6h13.1c-0.2,2.6-0.4,5.5-0.6,8.8c-0.1,3.3-0.2,6.2-0.2,8.9c0,1.6,0.1,3,0.3,4.3c0.2,1.2,0.7,2.2,1.4,2.9
			c0.7,0.7,1.7,1,3,1h0.9c1.4,0,2.5-0.5,3.2-1.4c0.7-0.9,1.1-2.3,1.1-4.2V573c0-4,0.8-7.3,2.3-9.9c1.5-2.6,3.5-4.6,6.1-6
			c2.6-1.3,5.5-2,8.8-2h2.8c5.4,0,9.5,0.9,12.3,2.8c2.8,1.9,4.8,4.5,5.7,8C89.5,569.4,90,573.5,90,578.3z M90,632.9
			c0,1.4-0.1,3-0.4,4.9c-0.3,1.9-0.9,3.7-1.9,5.5c-1,1.8-2.5,3.3-4.5,4.5c-2,1.2-4.8,1.8-8.3,1.8h-33c-3.1,0-5.6-0.5-7.7-1.4
			c-2-1-3.6-2.2-4.8-3.7c-1.2-1.5-2-3.2-2.5-5.1c-0.5-1.9-0.7-3.7-0.7-5.4c0-4.8,0.1-8.9,0.2-12.3c0.1-3.4,0.3-6.4,0.5-8.9
			c0.2-2.5,0.4-4.8,0.6-6.7h14v22.8c0,1.4,0.3,2.5,0.9,3.2c0.6,0.7,1.6,1.1,2.8,1.1h5.3l0.9-22.9h13.1l0.9,22.9h4.8
			c1,0,1.9-0.2,2.5-0.5c0.7-0.3,1.1-0.8,1.4-1.3c0.3-0.6,0.5-1.2,0.5-1.9v-23.5h14c0.3,2.4,0.6,5.2,0.9,8.3c0.2,3.1,0.4,6.3,0.5,9.5
			C89.9,627,90,630.1,90,632.9z"/>
		<path class="graneleros" d="M82.5,123.8c0,1.9-0.1,3.7-0.2,5.5c-0.1,1.8-0.3,3.6-0.5,5.3c-0.2,1.7-0.5,3.4-0.8,5c-0.3,1.6-0.6,3.2-1,4.6
			H66.8c0.2-1.9,0.3-4.1,0.4-6.3c0.1-2.3,0.2-4.6,0.3-6.9c0.1-2.3,0.1-4.5,0.1-6.5c0-1.9-0.1-3.5-0.4-4.7c-0.3-1.3-0.7-2.2-1.4-2.8
			c-0.6-0.6-1.5-0.9-2.6-0.9h-1c-1.3,0-2.2,0.4-2.8,1.3c-0.6,0.9-0.9,1.9-0.9,3.1v4.6c0,6.6-1.5,11.7-4.4,15.1
			c-2.9,3.4-7.8,5.2-14.7,5.2h-2.8c-6.3,0-11-1.9-14.1-5.7c-3.1-3.8-4.7-9.2-4.7-16.3c0-2.7,0.1-5.2,0.4-7.6c0.3-2.4,0.6-4.6,0.9-6.7
			c0.4-2.1,0.8-4,1.2-5.6h13.2c-0.2,2.6-0.4,5.6-0.6,8.9c-0.1,3.3-0.2,6.3-0.2,9c0,1.6,0.1,3,0.3,4.3c0.2,1.3,0.7,2.2,1.4,2.9
			c0.7,0.7,1.7,1,3,1h0.9c1.4,0,2.5-0.5,3.3-1.4c0.7-0.9,1.1-2.3,1.1-4.2v-5.7c0-4,0.8-7.4,2.3-10c1.5-2.7,3.6-4.7,6.2-6
			c2.6-1.3,5.6-2,8.9-2h2.8c5.4,0,9.6,0.9,12.5,2.8c2.9,1.9,4.8,4.6,5.8,8.1C82,114.8,82.5,119,82.5,123.8z M67.5,179
			c0-2.2-0.3-4-0.8-5.3c-0.5-1.4-1.4-2.4-2.7-3.2c-1.3-0.8-3-1.3-5.3-1.6c-2.3-0.3-5.2-0.5-8.8-0.5c-3.7,0-6.7,0.2-9,0.5
			c-2.3,0.3-4.1,0.9-5.3,1.6c-1.2,0.8-2.1,1.8-2.5,3.2c-0.5,1.4-0.7,3.2-0.7,5.3c0,2.1,0.2,3.9,0.7,5.3c0.5,1.4,1.3,2.5,2.5,3.3
			c1.2,0.8,3,1.3,5.3,1.6c2.3,0.3,5.3,0.5,9,0.5c3.6,0,6.5-0.2,8.8-0.5c2.3-0.3,4.1-0.9,5.3-1.6c1.3-0.8,2.1-1.9,2.7-3.3
			C67.3,182.9,67.5,181.1,67.5,179z M82.5,179c0,4.5-0.4,8.5-1.3,11.9c-0.9,3.4-2.5,6.3-4.8,8.6c-2.3,2.3-5.6,4-9.8,5.2
			c-4.3,1.1-9.8,1.7-16.5,1.7s-12.3-0.6-16.6-1.7c-4.3-1.1-7.6-2.9-9.8-5.2c-2.3-2.3-3.9-5.1-4.8-8.6c-0.9-3.4-1.3-7.4-1.3-11.9
			c0-4.5,0.4-8.5,1.3-11.9c0.9-3.4,2.5-6.3,4.8-8.6c2.3-2.3,5.6-4,9.8-5.2c4.3-1.1,9.8-1.7,16.6-1.7s12.3,0.6,16.5,1.7
			c4.3,1.1,7.6,2.9,9.8,5.2c2.3,2.3,3.9,5.1,4.8,8.6C82.1,170.5,82.5,174.5,82.5,179z M46.7,243.1v-7.6c0-0.9-0.1-1.7-0.4-2.4
			c-0.3-0.7-0.7-1.3-1.2-1.8c-0.6-0.5-1.3-0.8-2.2-1.1c-0.9-0.2-2-0.3-3.2-0.3c-1.3,0-2.3,0.1-3.2,0.3c-0.9,0.2-1.5,0.6-2,1.1
			c-0.5,0.5-0.8,1.1-1.1,1.8c-0.2,0.7-0.3,1.5-0.3,2.4v7.6H46.7z M82,259.8H18.1v-27.3c0-2.8,0.3-5.4,1-7.7c0.7-2.4,1.8-4.4,3.5-6.1
			c1.6-1.7,3.8-3.1,6.6-4c2.8-0.9,6.2-1.4,10.4-1.4c2.6,0,4.9,0.2,6.9,0.7c1.9,0.5,3.6,1.1,4.9,1.8c1.3,0.8,2.5,1.7,3.4,2.8
			c0.9,1.1,1.7,2.2,2.4,3.4L82,210.8v16.9l-22,8.9c0,0.5,0,1,0,1.6c0,0.5,0,1.1,0,1.6c0,0.5,0,1,0,1.6c0,0.5,0,1.1,0,1.6h22V259.8z
			M82.5,294.8c0,1.4-0.1,3-0.4,4.9c-0.3,1.9-0.9,3.8-1.9,5.6c-1,1.8-2.5,3.3-4.5,4.5c-2,1.2-4.8,1.8-8.4,1.8H33.9
			c-3.1,0-5.7-0.5-7.7-1.5c-2.1-1-3.7-2.2-4.9-3.8c-1.2-1.5-2-3.3-2.5-5.2c-0.5-1.9-0.7-3.7-0.7-5.5c0-4.8,0.1-9,0.2-12.4
			c0.1-3.5,0.3-6.5,0.5-9c0.2-2.6,0.4-4.8,0.6-6.7h14.1v23c0,1.4,0.3,2.5,0.9,3.3c0.6,0.7,1.6,1.1,2.8,1.1h5.3l0.9-23.1h13.2l0.9,23.1
			h4.8c1,0,1.9-0.2,2.5-0.5c0.7-0.3,1.1-0.8,1.5-1.3c0.3-0.6,0.5-1.2,0.5-1.9v-23.7H81c0.3,2.5,0.6,5.3,0.9,8.4
			c0.2,3.2,0.4,6.4,0.5,9.6C82.4,288.9,82.5,292,82.5,294.8z M82,341.3c0,3.8-0.6,7-1.7,9.5c-1.1,2.5-3,4.3-5.4,5.4
			c-2.5,1.1-5.6,1.7-9.5,1.7H18.1v-16.7h44.5c1,0,1.8-0.2,2.5-0.5c0.7-0.3,1.2-0.8,1.5-1.5c0.3-0.7,0.5-1.5,0.5-2.5v-18.6h15V341.3z
			M82.5,392.9c0,1.4-0.1,3-0.4,4.9c-0.3,1.9-0.9,3.8-1.9,5.6c-1,1.8-2.5,3.3-4.5,4.5c-2,1.2-4.8,1.8-8.4,1.8H33.9
			c-3.1,0-5.7-0.5-7.7-1.5c-2.1-1-3.7-2.2-4.9-3.8c-1.2-1.5-2-3.3-2.5-5.2c-0.5-1.9-0.7-3.7-0.7-5.5c0-4.8,0.1-9,0.2-12.4
			c0.1-3.5,0.3-6.5,0.5-9c0.2-2.6,0.4-4.8,0.6-6.7h14.1v23c0,1.4,0.3,2.5,0.9,3.3c0.6,0.7,1.6,1.1,2.8,1.1h5.3l0.9-23.1h13.2l0.9,23.1
			h4.8c1,0,1.9-0.2,2.5-0.5c0.7-0.3,1.1-0.8,1.5-1.3c0.3-0.6,0.5-1.2,0.5-1.9v-23.7H81c0.3,2.5,0.6,5.3,0.9,8.4
			c0.2,3.2,0.4,6.4,0.5,9.6C82.4,387,82.5,390.1,82.5,392.9z M82,471.6H18.1v-13.2l35.6-22.4H18.1v-16.7H82v13.2l-35.6,22.4H82V471.6z
			M56.9,511.9v-11.4l-24.6,5.8L56.9,511.9z M82,535.4l-63.9-18.9v-20.8L82,476.8V494l-10.1,2.6v19.2l10.1,2.5V535.4z M46.7,569.4
			v-7.6c0-0.9-0.1-1.7-0.4-2.4c-0.3-0.7-0.7-1.3-1.2-1.8c-0.6-0.5-1.3-0.8-2.2-1.1c-0.9-0.2-2-0.3-3.2-0.3c-1.3,0-2.3,0.1-3.2,0.3
			c-0.9,0.2-1.5,0.6-2,1.1c-0.5,0.5-0.8,1.1-1.1,1.8c-0.2,0.7-0.3,1.5-0.3,2.4v7.6H46.7z M82,586.1H18.1v-27.3c0-2.8,0.3-5.4,1-7.7
			c0.7-2.4,1.8-4.4,3.5-6.1c1.6-1.7,3.8-3.1,6.6-4c2.8-0.9,6.2-1.4,10.4-1.4c2.6,0,4.9,0.2,6.9,0.7c1.9,0.5,3.6,1.1,4.9,1.8
			c1.3,0.8,2.5,1.7,3.4,2.8c0.9,1.1,1.7,2.2,2.4,3.4L82,537.2v16.9l-22,8.9c0,0.5,0,1,0,1.6c0,0.5,0,1.1,0,1.6s0,1,0,1.6
			c0,0.5,0,1.1,0,1.6h22V586.1z M82.4,626.6c0,4-0.8,7.2-2.5,9.7c-1.7,2.5-4,4.4-7,5.8c-3,1.4-6.4,2.3-10.3,2.9
			c-3.9,0.5-8.1,0.8-12.5,0.8c-4.9,0-9.4-0.3-13.4-1c-4-0.7-7.5-1.9-10.3-3.6c-2.9-1.7-5.1-4.3-6.6-7.5c-1.5-3.3-2.3-7.5-2.3-12.7
			c0-3.4,0.1-6.3,0.4-8.7c0.3-2.4,0.6-4.7,1.1-6.8c0.5-2.1,1-4.3,1.7-6.6h13c-0.2,1.3-0.4,2.9-0.6,4.8c-0.2,1.9-0.3,4.1-0.4,6.5
			c-0.1,2.4-0.2,5-0.2,7.7c0,3.3,0.5,5.8,1.5,7.4c1,1.6,2.8,2.7,5.4,3.2c2.6,0.5,6.2,0.8,10.8,0.8c3.6,0,6.4-0.1,8.6-0.4
			c2.2-0.3,3.9-0.8,5.1-1.4c1.2-0.7,2-1.5,2.5-2.5c0.5-1,0.7-2.3,0.7-3.7c0-2.1-0.1-4-0.3-5.7c-0.2-1.7-0.4-2.9-0.6-3.8H58v8.9H44.8
			c-0.2-1.3-0.3-2.8-0.4-4.5c-0.1-1.7-0.2-3.6-0.3-5.4c-0.1-1.9-0.1-3.6-0.1-5.1c0-2.1,0-3.9,0-5.5c0-1.6,0.1-3,0.1-4.3H82v12.6
			l-4.2,2.2c0.9,1.4,1.9,3.5,3,6.4C81.9,619.7,82.4,623,82.4,626.6z"/>
		<path class="gondolas" d="M82.5,170.8c0,1.9-0.1,3.7-0.2,5.5c-0.1,1.8-0.3,3.6-0.5,5.3c-0.2,1.7-0.5,3.4-0.8,5c-0.3,1.6-0.6,3.2-1,4.6
			H66.8c0.2-1.9,0.3-4.1,0.4-6.3c0.1-2.3,0.2-4.6,0.3-6.9c0.1-2.3,0.1-4.5,0.1-6.5c0-1.9-0.1-3.5-0.4-4.7c-0.3-1.3-0.7-2.2-1.4-2.8
			c-0.6-0.6-1.5-0.9-2.6-0.9h-1c-1.3,0-2.2,0.4-2.8,1.3c-0.6,0.9-0.9,1.9-0.9,3.1v4.6c0,6.6-1.5,11.7-4.4,15.1
			c-2.9,3.4-7.8,5.2-14.7,5.2h-2.8c-6.3,0-11-1.9-14.1-5.7c-3.1-3.8-4.7-9.2-4.7-16.3c0-2.7,0.1-5.2,0.4-7.6c0.3-2.4,0.6-4.6,0.9-6.7
			c0.4-2.1,0.8-4,1.2-5.6h13.2c-0.2,2.6-0.4,5.6-0.6,8.9c-0.1,3.3-0.2,6.3-0.2,9c0,1.6,0.1,3,0.3,4.3c0.2,1.3,0.7,2.2,1.4,2.9
			c0.7,0.7,1.7,1,3,1h0.9c1.4,0,2.5-0.5,3.3-1.4c0.7-0.9,1.1-2.3,1.1-4.2v-5.7c0-4,0.8-7.4,2.3-10c1.5-2.7,3.6-4.7,6.2-6
			c2.6-1.3,5.6-2,8.9-2h2.8c5.4,0,9.6,0.9,12.5,2.8c2.9,1.9,4.8,4.6,5.8,8.1C82,161.7,82.5,165.9,82.5,170.8z M56.9,231.1v-11.4
			l-24.6,5.8L56.9,231.1z M82,254.6l-63.9-18.9v-20.8L82,196v17.3l-10.1,2.6V235l10.1,2.5V254.6z M82,279.9c0,3.8-0.6,7-1.7,9.5
			c-1.1,2.5-3,4.3-5.4,5.4c-2.5,1.1-5.6,1.7-9.5,1.7H18.1v-16.7h44.4c1,0,1.8-0.2,2.5-0.5c0.7-0.3,1.2-0.8,1.5-1.5
			c0.3-0.7,0.5-1.5,0.5-2.5v-18.6h15V279.9z M67.5,331.6c0-2.2-0.3-4-0.8-5.3c-0.5-1.4-1.4-2.5-2.7-3.2c-1.3-0.8-3-1.3-5.3-1.6
			c-2.3-0.3-5.2-0.5-8.8-0.5c-3.7,0-6.7,0.2-9,0.5c-2.3,0.3-4.1,0.9-5.3,1.6c-1.2,0.8-2.1,1.8-2.5,3.2c-0.5,1.4-0.7,3.2-0.7,5.3
			c0,2.1,0.2,3.9,0.7,5.3c0.5,1.4,1.3,2.5,2.5,3.3c1.2,0.8,3,1.3,5.3,1.6c2.3,0.3,5.3,0.5,9,0.5c3.6,0,6.5-0.2,8.8-0.5
			c2.3-0.3,4.1-0.9,5.3-1.6c1.3-0.8,2.1-1.9,2.7-3.3C67.3,335.5,67.5,333.8,67.5,331.6z M82.5,331.6c0,4.5-0.4,8.5-1.3,11.9
			c-0.9,3.4-2.5,6.3-4.8,8.6c-2.3,2.3-5.6,4-9.8,5.2c-4.3,1.1-9.8,1.7-16.5,1.7c-6.8,0-12.3-0.6-16.5-1.7c-4.3-1.1-7.6-2.9-9.8-5.2
			s-3.9-5.1-4.8-8.6c-0.9-3.4-1.3-7.4-1.3-11.9s0.4-8.5,1.3-11.9c0.9-3.4,2.5-6.3,4.8-8.6c2.3-2.3,5.6-4,9.8-5.2
			c4.3-1.1,9.8-1.7,16.5-1.7c6.8,0,12.3,0.6,16.5,1.7c4.3,1.1,7.6,2.9,9.8,5.2c2.3,2.3,3.9,5.1,4.8,8.6
			C82.1,323.1,82.5,327.1,82.5,331.6z M67,399.8V390c0-2.1-0.6-3.8-1.7-4.9c-1.1-1.2-3-2-5.5-2.5c-2.5-0.5-5.7-0.7-9.8-0.7
			c-3.8,0-6.8,0.2-9.1,0.6c-2.3,0.4-4,0.9-5.1,1.6c-1.1,0.7-1.9,1.6-2.3,2.6c-0.4,1-0.6,2.1-0.6,3.4v9.8H67z M82,416.5H18.1v-28.2
			c0-4.6,0.8-8.5,2.5-11.4c1.6-3,3.9-5.3,6.8-7c2.9-1.7,6.3-2.9,10.2-3.6c3.9-0.7,8-1,12.5-1c7.5,0,13.6,0.8,18.3,2.5
			c4.7,1.7,8.1,4.2,10.3,7.7c2.2,3.4,3.3,7.7,3.3,12.9V416.5z M82,478.3H18.1v-13.2l35.6-22.4H18.1V426H82v13.2l-35.6,22.4H82V478.3z
			M67.5,513.5c0-2.2-0.3-4-0.8-5.3c-0.5-1.4-1.4-2.5-2.7-3.2c-1.3-0.8-3-1.3-5.3-1.6c-2.3-0.3-5.2-0.5-8.8-0.5c-3.7,0-6.7,0.2-9,0.5
			c-2.3,0.3-4.1,0.9-5.3,1.6c-1.2,0.8-2.1,1.8-2.5,3.2c-0.5,1.4-0.7,3.2-0.7,5.3c0,2.1,0.2,3.9,0.7,5.3c0.5,1.4,1.3,2.5,2.5,3.3
			c1.2,0.8,3,1.3,5.3,1.6c2.3,0.3,5.3,0.5,9,0.5c3.6,0,6.5-0.2,8.8-0.5c2.3-0.3,4.1-0.9,5.3-1.6c1.3-0.8,2.1-1.9,2.7-3.3
			C67.3,517.4,67.5,515.6,67.5,513.5z M82.5,513.5c0,4.5-0.4,8.5-1.3,11.9c-0.9,3.4-2.5,6.3-4.8,8.6c-2.3,2.3-5.6,4-9.8,5.2
			c-4.3,1.1-9.8,1.7-16.5,1.7c-6.8,0-12.3-0.6-16.5-1.7c-4.3-1.1-7.6-2.9-9.8-5.2c-2.3-2.3-3.9-5.1-4.8-8.6c-0.9-3.4-1.3-7.4-1.3-11.9
			c0-4.5,0.4-8.5,1.3-11.9c0.9-3.4,2.5-6.3,4.8-8.6c2.3-2.3,5.6-4,9.8-5.2c4.3-1.1,9.8-1.7,16.5-1.7c6.8,0,12.3,0.6,16.5,1.7
			c4.3,1.1,7.6,2.9,9.8,5.2c2.3,2.3,3.9,5.1,4.8,8.6C82.1,505,82.5,508.9,82.5,513.5z M82.4,579.7c0,4-0.8,7.2-2.5,9.7
			c-1.7,2.5-4,4.4-7,5.8c-3,1.4-6.4,2.3-10.3,2.9c-3.9,0.5-8.1,0.8-12.5,0.8c-4.9,0-9.4-0.3-13.4-1c-4-0.7-7.5-1.9-10.3-3.6
			c-2.9-1.7-5.1-4.3-6.6-7.5c-1.5-3.3-2.3-7.5-2.3-12.7c0-3.4,0.1-6.3,0.4-8.7c0.3-2.4,0.6-4.7,1.1-6.8c0.5-2.1,1-4.3,1.7-6.6h13
			c-0.2,1.3-0.4,2.9-0.6,4.8c-0.2,1.9-0.3,4.1-0.4,6.5c-0.1,2.4-0.2,5-0.2,7.7c0,3.3,0.5,5.8,1.5,7.4c1,1.6,2.8,2.7,5.4,3.2
			c2.6,0.5,6.2,0.8,10.8,0.8c3.6,0,6.4-0.1,8.6-0.4c2.2-0.3,3.9-0.8,5.1-1.4c1.2-0.7,2-1.5,2.5-2.5c0.5-1,0.7-2.3,0.7-3.7
			c0-2.1-0.1-4-0.3-5.7c-0.2-1.7-0.4-2.9-0.6-3.8H58v8.9H44.8c-0.2-1.3-0.3-2.8-0.4-4.5c-0.1-1.7-0.2-3.6-0.3-5.4
			c-0.1-1.9-0.1-3.6-0.1-5.1c0-2.1,0-3.9,0-5.5c0-1.6,0.1-3,0.1-4.3H82v12.6l-4.2,2.2c0.9,1.4,1.9,3.5,3,6.4
			C81.9,572.8,82.4,576.1,82.4,579.7z"/>
	</g>
</g>
</svg>
