<?xml version="1.0" encoding="utf-8"?>
<!-- Generator: Adobe Illustrator 24.0.2, SVG Export Plug-In . SVG Version: 6.00 Build 0)  -->
<svg version="1.1" id="Capa_1" xmlns="http://www.w3.org/2000/svg" xmlns:xlink="http://www.w3.org/1999/xlink" x="0px" y="0px"
	 viewBox="0 0 2828.9 139" style="enable-background:new 0 0 2828.9 139;" xml:space="preserve">
<filter id='shadow' color-interpolation-filters="sRGB">
    <feDropShadow dx="0" dy="0" stdDeviation="1" flood-color="rgb(0,217,217)" flood-opacity="0.5" />
</filter>
<radialGradient id="SVGID_1_"  gradientUnits="userSpaceOnUse">
	<stop  offset="0" style="stop-color:#07AAA2"/>
	<stop  offset="100" style="stop-color:#07AAA2;stop-opacity:0"/>
</radialGradient>
<style type="text/css">
	.st0{fill:none;stroke:rgba(255, 255, 255, 1);stroke-width: 0.3;
		filter:url(#shadow);}
	.st1{fill-rule:evenodd;clip-rule:evenodd;fill:url(#SVGID_1_);
		filter: url(#shadow);}
	.st2{fill:rgba(255, 255, 255, 0.5)}
	.st3{fill-rule:evenodd;clip-rule:evenodd;fill:rgba(255, 255, 255, .5);}
</style>
<path class="st0" d="M0.3,2v55.1l31.1,30.2l56.3,0l22.5,21.7h891.2c27.1,0,34.4-31.1,54.9-31.1h714.6c20.4,0,27.7,31.1,54.9,31.1
	h891l22.5-21.7h56.3l31.1-30.2V2"/>
<path class="st1" d="M438.7,109h377l-13.7,22.3c-2.7,4.7-7.5,8-14.9,7.7H467.3c-7.4,0.2-12.2-3.1-14.9-7.7L438.7,109z"/>
<path class="st1" d="M2011.2,109h377l-13.7,22.3c-2.7,4.7-7.5,8-14.9,7.7h-319.8c-7.4,0.2-12.2-3.1-14.9-7.7L2011.2,109z"/>
<path class="st2" d="M1309.4,126.7l0.9,3.6c-2.9,1-6,1.5-9.4,1.5c-5.8,0-10.2-1.7-13.3-5.2c-2.7-3-4-6.6-4-10.9
	c0-4.7,1.6-8.7,4.8-11.9c3.2-3.2,7.1-4.8,11.8-4.8c4.4,0,8.1,1.3,10.9,3.9c2.9,2.6,4.3,6,4.3,10c0,3-0.9,5.6-2.7,7.6
	c-1.8,2-4.1,3-6.9,3c-1.5,0-2.7-0.3-3.6-0.8c-0.9-0.6-1.3-1.3-1.3-2.2c0-0.4,0.1-1,0.3-1.7l0.9-3.4c0.1-0.3,0.1-0.6,0.1-0.9
	c0-1.3-0.6-1.9-1.8-1.9c-0.8,0-1.4,0.3-2,0.9c-0.6,0.6-0.8,1.2-0.8,2c0,1,0.5,1.5,1.4,1.5c0.5,0,0.9-0.1,1.3-0.2l-2.1,5.7
	c-0.5,0.1-0.9,0.1-1.2,0.1c-1.7,0-3-0.5-4-1.5c-1-1-1.5-2.3-1.5-4c0-2.8,1-5.2,3-7.2c2-2,4.4-3.1,7.1-3.1c2,0,3.5,0.5,4.7,1.5
	c1.2,1,1.8,2.3,1.8,4c0,0.7-0.1,1.4-0.3,2.3l-0.7,2.8l-0.1,0.5c-0.1,0.5-0.2,0.8-0.2,1.2c0,0.7,0.3,1.1,1,1.1c1.1,0,2-0.8,2.9-2.2
	c0.9-1.5,1.3-3.2,1.3-5c0-3.1-1.1-5.6-3.2-7.5c-2.1-1.9-4.9-2.9-8.4-2.9c-3.7,0-6.8,1.2-9.2,3.7c-2.4,2.5-3.6,5.7-3.6,9.5
	c0,3.3,0.9,6.1,2.8,8.3c2.3,2.8,5.9,4.2,10.7,4.2C1303.8,128.2,1306.6,127.7,1309.4,126.7"/>
<path class="st2" d="M1565.2,108.1v23.1h-9.4V99.6h12c3.7,0,6.5,0.9,8.5,2.7c2.3,2,3.4,4.6,3.4,7.8c0,3.2-1.4,5.9-4.2,8.1l5.4,13
	h-9.9l-4.6-10.2v-8.1h0.7c2,0,3-0.9,3-2.6c0-1.5-1.1-2.3-3.4-2.3H1565.2z"/>
<path class="st2" d="M1509.1,114.5v8.5h-3.1v8.3h-9.4v-19.6c0-3.7,1.1-6.7,3.4-9.1c2.3-2.4,5.1-3.6,8.6-3.6c3.8,0,7,1.6,9.6,4.9
	l-7.7,5.6c-0.4-1.2-1.2-1.8-2.3-1.8c-1.5,0-2.2,1-2.2,3v3.9H1509.1z"/>
<path class="st2" d="M1468.7,131.2v-20.5c0-3.6,1.1-6.5,3.2-8.6c2.1-2.2,5-3.2,8.6-3.2c3.6,0,6.3,1.1,8.2,3.1c1.9,2.1,2.8,5.1,2.8,9
	v20.2h-9.4V111c0-1.9-0.7-2.8-2.1-2.8c-1.3,0-2,0.9-2,2.8v20.2H1468.7z"/>
<path class="st2" d="M1437,115.3v8.3h-2.7v7.5h-9.4v-20.1c0-3.9,1.1-6.9,3.2-9c2.1-2.1,5.1-3.2,9-3.2c3.7,0,6.5,1,8.2,2.9
	c1.8,2,2.7,5,2.7,9v20.4h-9.4v-19.8c0-1.2-0.2-2.1-0.4-2.5c-0.3-0.5-0.8-0.7-1.6-0.7c-1.5,0-2.2,1.1-2.2,3.2v3.9H1437z"/>
<path class="st2" d="M1411.3,115.7l9.8,0.3c-0.6,5.1-2.4,9-5.3,11.8c-2.9,2.8-6.6,4.2-11.3,4.2c-4.7,0-8.7-1.6-11.8-4.7
	c-3.2-3.2-4.8-7.1-4.8-11.8c0-4.7,1.6-8.7,4.9-11.9c3.2-3.2,7.2-4.8,12-4.8c4.7,0,8.6,1.6,11.7,4.7c2.2,2.2,3.7,5.2,4.6,9.1
	l-10.1,0.7c-1.1-3.4-3.3-5.1-6.4-5.1c-2,0-3.7,0.7-5,2.1c-1.3,1.4-2,3.2-2,5.3c0,2.1,0.6,3.8,1.9,5.1c1.3,1.4,2.9,2,4.9,2
	c2,0,3.6-0.6,4.8-1.8C1410.4,119.7,1411.1,118,1411.3,115.7"/>
<path class="st2" d="M1378.9,88.6c2.6,0,4.7,1.7,4.7,3.9c0,2.1-2.1,3.9-4.7,3.9c-2.6,0-4.7-1.7-4.7-3.9
	C1374.2,90.3,1376.3,88.6,1378.9,88.6 M1383.6,99.6v31.6h-9.4V99.6H1383.6z"/>
<path class="st2" d="M1367.9,99.6v31.6h-9.4V99.6H1367.9z M1356.9,110.9v8.3h-2.6v11.9h-9.4V99.6h9.4v11.3H1356.9z"/>
<polygon class="st2" points="1334.2,108.7 1334.2,131.2 1324.8,131.2 1324.8,108.7 1317.6,108.7 1317.6,99.6 1341.4,99.6 
	1341.4,108.7 "/>
<path class="st2" d="M1245.8,131.2v-22.8c0-2.8,0.9-5.1,2.6-6.9c1.7-1.8,3.9-2.7,6.7-2.7c3.2,0,5.7,1.5,7.5,4.4
	c1.1-1.6,2.2-2.7,3.4-3.4c1.2-0.7,2.7-1,4.5-1c2.8,0,5,0.9,6.5,2.7c1.5,1.8,2.3,4.4,2.3,7.7v22h-9.4v-20.6c0-1-0.1-1.7-0.2-2
	c-0.2-0.3-0.5-0.5-1-0.5c-0.9,0-1.4,0.8-1.4,2.3v20.7h-9.4v-20.6c0-1-0.1-1.6-0.3-2c-0.2-0.3-0.5-0.5-1-0.5c-0.9,0-1.4,0.8-1.4,2.5
	v20.6H1245.8z"/>
<path class="st3" d="M1463,99.6v31.6h-9.4V99.6H1463z M1458.5,88.6c2.6,0,4.7,1.7,4.7,3.9c0,2.1-2.1,3.9-4.7,3.9
	c-2.6,0-4.7-1.7-4.7-3.9C1453.8,90.3,1455.9,88.6,1458.5,88.6z"/>
<path class="st3" d="M1534.8,122.7c-1.9,0-3.6-0.7-4.9-2.1c-1.4-1.4-2-3.1-2-5.1s0.7-3.7,2-5.1c1.4-1.4,3-2.1,4.9-2.1
	c1.9,0,3.6,0.7,4.9,2.1c1.4,1.4,2,3.1,2,5.1c0,2-0.7,3.7-2,5.1C1538.4,122,1536.8,122.7,1534.8,122.7 M1523.1,127.1
	c3.2,3.2,7.2,4.9,11.7,4.9c4.6,0,8.5-1.6,11.8-4.8c3.2-3.2,4.8-7.1,4.8-11.8c0-4.5-1.6-8.4-4.8-11.7c-3.2-3.3-7-4.9-11.5-4.9
	c-4.7,0-8.7,1.6-12,4.8c-3.3,3.2-4.9,7.1-4.9,11.8C1518.2,120,1519.8,123.9,1523.1,127.1z"/>
</svg>
