<?xml version="1.0" encoding="utf-8"?>
<!-- Generator: Adobe Illustrator 24.0.2, SVG Export Plug-In . SVG Version: 6.00 Build 0)  -->
<svg version="1.1" id="Capa_1" xmlns="http://www.w3.org/2000/svg" xmlns:xlink="http://www.w3.org/1999/xlink" x="0px" y="0px"
	 viewBox="0 0 1359.1 71.1" style="enable-background:new 0 0 1359.1 71.1;" xml:space="preserve">
<filter id='shadow' color-interpolation-filters="sRGB">
    <feDropShadow dx="0" dy="0" stdDeviation="1" flood-color="rgb(0,217,217)" flood-opacity="0.5" />
</filter>
<style type="text/css">
	.st0{fill-rule:evenodd;clip-rule:evenodd;fill:url(#SVGID_1_);}
	.st1{fill-rule:evenodd;clip-rule:evenodd;fill:url(#SVGID_2_);}
	.st2{fill-rule:evenodd;clip-rule:evenodd;fill:url(#SVGID_3_);}
	.st3{fill-rule:evenodd;clip-rule:evenodd;fill:url(#SVGID_4_);}
	.st4{fill-rule:evenodd;clip-rule:evenodd;fill:url(#SVGID_5_);}
	.st5{fill-rule:evenodd;clip-rule:evenodd;fill:url(#SVGID_6_);}
	.st6{fill-rule:evenodd;clip-rule:evenodd;fill:url(#SVGID_7_);}
	.st7{fill-rule:evenodd;clip-rule:evenodd;fill:url(#SVGID_8_);}
	.st8{fill-rule:evenodd;clip-rule:evenodd;fill:url(#SVGID_9_);}
	.st9{fill-rule:evenodd;clip-rule:evenodd;fill:url(#SVGID_10_);}
	.st10{fill-rule:evenodd;clip-rule:evenodd;fill:url(#SVGID_11_);}
	.st11{fill-rule:evenodd;clip-rule:evenodd;fill:url(#SVGID_12_);}
	.st12{fill-rule:evenodd;clip-rule:evenodd;fill:url(#SVGID_13_);}
	.st13{fill-rule:evenodd;clip-rule:evenodd;fill:url(#SVGID_14_);}
	.st14{fill:none;stroke:rgba(255, 255, 255, 1);stroke-width: 0.3;
		filter:url(#shadow);
	}
	.st15{fill-rule:evenodd;clip-rule:evenodd;fill:url(#SVGID_15_);}
	.st16{fill-rule:evenodd;clip-rule:evenodd;fill:url(#SVGID_16_);}
	.st17{fill-rule:evenodd;clip-rule:evenodd;fill:url(#SVGID_17_);}
	.st18{fill-rule:evenodd;clip-rule:evenodd;fill:url(#SVGID_18_);}
	.st19{fill-rule:evenodd;clip-rule:evenodd;fill:url(#SVGID_19_);}
	.st20{fill-rule:evenodd;clip-rule:evenodd;fill:url(#SVGID_20_);}
	.st21{fill-rule:evenodd;clip-rule:evenodd;fill:url(#SVGID_21_);}
	.st22{fill-rule:evenodd;clip-rule:evenodd;fill:url(#SVGID_22_);}
	.st23{fill-rule:evenodd;clip-rule:evenodd;fill:url(#SVGID_23_);}
	.st24{fill-rule:evenodd;clip-rule:evenodd;fill:url(#SVGID_24_);}
	.st25{fill-rule:evenodd;clip-rule:evenodd;fill:url(#SVGID_25_);}
	.st26{fill-rule:evenodd;clip-rule:evenodd;fill:url(#SVGID_26_);}
	.st27{fill-rule:evenodd;clip-rule:evenodd;fill:url(#SVGID_27_);}
	.st28{fill-rule:evenodd;clip-rule:evenodd;fill:url(#SVGID_28_);}
	.st29{fill-rule:evenodd;clip-rule:evenodd;fill:url(#SVGID_29_);}
	.st30{fill-rule:evenodd;clip-rule:evenodd;fill:url(#SVGID_30_);}
	.st31{fill-rule:evenodd;clip-rule:evenodd;fill:url(#SVGID_31_);}
	.st32{fill-rule:evenodd;clip-rule:evenodd;fill:url(#SVGID_32_);}
	.st33{fill-rule:evenodd;clip-rule:evenodd;fill:url(#SVGID_33_);}
	.st34{fill-rule:evenodd;clip-rule:evenodd;fill:url(#SVGID_34_);}
	.st35{fill-rule:evenodd;clip-rule:evenodd;fill:url(#SVGID_35_);}
	.st36{fill-rule:evenodd;clip-rule:evenodd;fill:url(#SVGID_36_);}
	.st37{fill-rule:evenodd;clip-rule:evenodd;fill:url(#SVGID_37_);}
	.st38{fill-rule:evenodd;clip-rule:evenodd;fill:url(#SVGID_38_);}
	.st39{fill-rule:evenodd;clip-rule:evenodd;fill:url(#SVGID_39_);}
	.st40{fill-rule:evenodd;clip-rule:evenodd;fill:url(#SVGID_40_);}
	.st41{fill-rule:evenodd;clip-rule:evenodd;fill:url(#SVGID_41_);}
	.st42{fill-rule:evenodd;clip-rule:evenodd;fill:url(#SVGID_42_);}
	.st43{fill-rule:evenodd;clip-rule:evenodd;fill:url(#SVGID_43_);}
	.st44{fill-rule:evenodd;clip-rule:evenodd;fill:url(#SVGID_44_);}
	.st45{fill-rule:evenodd;clip-rule:evenodd;fill:url(#SVGID_45_);}
	.st46{fill-rule:evenodd;clip-rule:evenodd;fill:url(#SVGID_46_);}
	.st47{fill-rule:evenodd;clip-rule:evenodd;fill:url(#SVGID_47_);}
	.st48{fill-rule:evenodd;clip-rule:evenodd;fill:url(#SVGID_48_);}
	.st49{fill-rule:evenodd;clip-rule:evenodd;fill:url(#SVGID_49_);}
	.st50{fill-rule:evenodd;clip-rule:evenodd;fill:url(#SVGID_50_);}
	.st51{fill-rule:evenodd;clip-rule:evenodd;fill:url(#SVGID_51_);}
	.st52{fill-rule:evenodd;clip-rule:evenodd;fill:url(#SVGID_52_);}
	.st53{fill-rule:evenodd;clip-rule:evenodd;fill:url(#SVGID_53_);}
	.st54{fill-rule:evenodd;clip-rule:evenodd;fill:url(#SVGID_54_);}
</style>
<radialGradient id="SVGID_1_" cx="523.4783" cy="18.7088" r="5.4" gradientUnits="userSpaceOnUse">
	<stop  offset="0" style="stop-color:#07AAA2"/>
	<stop  offset="0.995" style="stop-color:#07AAA2;stop-opacity:0"/>
</radialGradient>
<path class="st0" d="M523.5,13.3c3,0,5.4,2.4,5.4,5.4c0,3-2.4,5.4-5.4,5.4c-3,0-5.4-2.4-5.4-5.4C518.1,15.7,520.5,13.3,523.5,13.3"
	/>
<radialGradient id="SVGID_2_" cx="547.4174" cy="18.7088" r="5.4" gradientUnits="userSpaceOnUse">
	<stop  offset="0" style="stop-color:#07AAA2"/>
	<stop  offset="0.995" style="stop-color:#07AAA2;stop-opacity:0"/>
</radialGradient>
<path class="st1" d="M547.4,13.3c3,0,5.4,2.4,5.4,5.4c0,3-2.4,5.4-5.4,5.4s-5.4-2.4-5.4-5.4C542,15.7,544.4,13.3,547.4,13.3"/>
<radialGradient id="SVGID_3_" cx="571.3566" cy="18.7088" r="5.4" gradientUnits="userSpaceOnUse">
	<stop  offset="0" style="stop-color:#07AAA2"/>
	<stop  offset="0.995" style="stop-color:#07AAA2;stop-opacity:0"/>
</radialGradient>
<path class="st2" d="M571.4,13.3c3,0,5.4,2.4,5.4,5.4c0,3-2.4,5.4-5.4,5.4c-3,0-5.4-2.4-5.4-5.4C566,15.7,568.4,13.3,571.4,13.3"/>
<radialGradient id="SVGID_4_" cx="595.2957" cy="18.7088" r="5.4" gradientUnits="userSpaceOnUse">
	<stop  offset="0" style="stop-color:#07AAA2"/>
	<stop  offset="0.995" style="stop-color:#07AAA2;stop-opacity:0"/>
</radialGradient>
<path class="st3" d="M595.3,13.3c3,0,5.4,2.4,5.4,5.4c0,3-2.4,5.4-5.4,5.4s-5.4-2.4-5.4-5.4C589.9,15.7,592.3,13.3,595.3,13.3"/>
<radialGradient id="SVGID_5_" cx="619.2349" cy="18.7088" r="5.4" gradientUnits="userSpaceOnUse">
	<stop  offset="0" style="stop-color:#07AAA2"/>
	<stop  offset="0.995" style="stop-color:#07AAA2;stop-opacity:0"/>
</radialGradient>
<path class="st4" d="M619.2,13.3c3,0,5.4,2.4,5.4,5.4c0,3-2.4,5.4-5.4,5.4c-3,0-5.4-2.4-5.4-5.4C613.8,15.7,616.3,13.3,619.2,13.3"
	/>
<radialGradient id="SVGID_6_" cx="643.174" cy="18.7088" r="5.4" gradientUnits="userSpaceOnUse">
	<stop  offset="0" style="stop-color:#07AAA2"/>
	<stop  offset="0.995" style="stop-color:#07AAA2;stop-opacity:0"/>
</radialGradient>
<path class="st5" d="M643.2,13.3c3,0,5.4,2.4,5.4,5.4c0,3-2.4,5.4-5.4,5.4s-5.4-2.4-5.4-5.4C637.8,15.7,640.2,13.3,643.2,13.3"/>
<radialGradient id="SVGID_7_" cx="667.1132" cy="18.7088" r="5.4" gradientUnits="userSpaceOnUse">
	<stop  offset="0" style="stop-color:#07AAA2"/>
	<stop  offset="0.995" style="stop-color:#07AAA2;stop-opacity:0"/>
</radialGradient>
<path class="st6" d="M667.1,13.3c3,0,5.4,2.4,5.4,5.4c0,3-2.4,5.4-5.4,5.4c-3,0-5.4-2.4-5.4-5.4C661.7,15.7,664.1,13.3,667.1,13.3"
	/>
<radialGradient id="SVGID_8_" cx="691.0522" cy="18.7088" r="5.4" gradientUnits="userSpaceOnUse">
	<stop  offset="0" style="stop-color:#07AAA2"/>
	<stop  offset="0.995" style="stop-color:#07AAA2;stop-opacity:0"/>
</radialGradient>
<path class="st7" d="M691.1,13.3c3,0,5.4,2.4,5.4,5.4c0,3-2.4,5.4-5.4,5.4s-5.4-2.4-5.4-5.4C685.7,15.7,688.1,13.3,691.1,13.3"/>
<radialGradient id="SVGID_9_" cx="714.9915" cy="18.7088" r="5.4" gradientUnits="userSpaceOnUse">
	<stop  offset="0" style="stop-color:#07AAA2"/>
	<stop  offset="0.995" style="stop-color:#07AAA2;stop-opacity:0"/>
</radialGradient>
<path class="st8" d="M715,13.3c3,0,5.4,2.4,5.4,5.4c0,3-2.4,5.4-5.4,5.4c-3,0-5.4-2.4-5.4-5.4C709.6,15.7,712,13.3,715,13.3"/>
<radialGradient id="SVGID_10_" cx="738.9306" cy="18.7088" r="5.4" gradientUnits="userSpaceOnUse">
	<stop  offset="0" style="stop-color:#07AAA2"/>
	<stop  offset="0.995" style="stop-color:#07AAA2;stop-opacity:0"/>
</radialGradient>
<path class="st9" d="M738.9,13.3c3,0,5.4,2.4,5.4,5.4c0,3-2.4,5.4-5.4,5.4s-5.4-2.4-5.4-5.4C733.5,15.7,735.9,13.3,738.9,13.3"/>
<radialGradient id="SVGID_11_" cx="762.8698" cy="18.7088" r="5.4" gradientUnits="userSpaceOnUse">
	<stop  offset="0" style="stop-color:#07AAA2"/>
	<stop  offset="0.995" style="stop-color:#07AAA2;stop-opacity:0"/>
</radialGradient>
<path class="st10" d="M762.9,13.3c3,0,5.4,2.4,5.4,5.4c0,3-2.4,5.4-5.4,5.4c-3,0-5.4-2.4-5.4-5.4C757.5,15.7,759.9,13.3,762.9,13.3"
	/>
<radialGradient id="SVGID_12_" cx="786.8089" cy="18.7088" r="5.4" gradientUnits="userSpaceOnUse">
	<stop  offset="0" style="stop-color:#07AAA2"/>
	<stop  offset="0.995" style="stop-color:#07AAA2;stop-opacity:0"/>
</radialGradient>
<path class="st11" d="M786.8,13.3c3,0,5.4,2.4,5.4,5.4c0,3-2.4,5.4-5.4,5.4s-5.4-2.4-5.4-5.4C781.4,15.7,783.8,13.3,786.8,13.3"/>
<radialGradient id="SVGID_13_" cx="810.748" cy="18.7088" r="5.4" gradientUnits="userSpaceOnUse">
	<stop  offset="0" style="stop-color:#07AAA2"/>
	<stop  offset="0.995" style="stop-color:#07AAA2;stop-opacity:0"/>
</radialGradient>
<path class="st12" d="M810.7,13.3c3,0,5.4,2.4,5.4,5.4c0,3-2.4,5.4-5.4,5.4c-3,0-5.4-2.4-5.4-5.4C805.3,15.7,807.8,13.3,810.7,13.3"
	/>
<radialGradient id="SVGID_14_" cx="834.6872" cy="18.7088" r="5.4" gradientUnits="userSpaceOnUse">
	<stop  offset="0" style="stop-color:#07AAA2"/>
	<stop  offset="0.995" style="stop-color:#07AAA2;stop-opacity:0"/>
</radialGradient>
<path class="st13" d="M834.7,13.3c3,0,5.4,2.4,5.4,5.4c0,3-2.4,5.4-5.4,5.4s-5.4-2.4-5.4-5.4C829.3,15.7,831.7,13.3,834.7,13.3"/>
<path class="st14" d="M1,73.1V46.7l14.9-14.5h27l10.8-10.4H481c13,0,16.5,14.9,26.3,14.9h342.6c9.8,0,13.3-14.9,26.3-14.9h427.2
	l10.8,10.4h27l14.9,14.5v26.4"/>
<g>
	<linearGradient id="SVGID_15_" gradientUnits="userSpaceOnUse" x1="1339.0101" y1="28.052" x2="1339.0101" y2="2">
		<stop  offset="0" style="stop-color:#006482;stop-opacity:0.9"/>
		<stop  offset="0.5" style="stop-color:#006482"/>
		<stop  offset="1" style="stop-color:#006482;stop-opacity:0.9"/>
	</linearGradient>
	<path class="st15" d="M1343.6,2h-9.2c-0.7,0-1.2,0.6-1.2,1.2v23.6c0,0.7,0.6,1.2,1.2,1.2h9.2c0.7,0,1.2-0.6,1.2-1.2V3.2
		C1344.8,2.6,1344.3,2,1343.6,2"/>
	<linearGradient id="SVGID_16_" gradientUnits="userSpaceOnUse" x1="1325.9694" y1="28.052" x2="1325.9694" y2="2">
		<stop  offset="0" style="stop-color:#006482;stop-opacity:0.8"/>
		<stop  offset="0.5" style="stop-color:#006482"/>
		<stop  offset="1" style="stop-color:#006482;stop-opacity:0.9"/>
	</linearGradient>
	<path class="st16" d="M1330.6,2h-9.2c-0.7,0-1.2,0.6-1.2,1.2v23.6c0,0.7,0.6,1.2,1.2,1.2h9.2c0.7,0,1.2-0.6,1.2-1.2V3.2
		C1331.8,2.6,1331.2,2,1330.6,2"/>
	<linearGradient id="SVGID_17_" gradientUnits="userSpaceOnUse" x1="1312.9285" y1="28.052" x2="1312.9285" y2="2">
		<stop  offset="0" style="stop-color:#006482;stop-opacity:0.8"/>
		<stop  offset="0.5" style="stop-color:#006482"/>
		<stop  offset="1" style="stop-color:#006482;stop-opacity:0.8"/>
	</linearGradient>
	<path class="st17" d="M1317.5,2h-9.2c-0.7,0-1.2,0.6-1.2,1.2v18.5l6.6,6.3h3.9c0.7,0,1.2-0.6,1.2-1.2V3.2
		C1318.8,2.6,1318.2,2,1317.5,2"/>
	<linearGradient id="SVGID_18_" gradientUnits="userSpaceOnUse" x1="1299.8877" y1="20.3883" x2="1299.8877" y2="2">
		<stop  offset="0" style="stop-color:#006482;stop-opacity:0.8"/>
		<stop  offset="0.5" style="stop-color:#006482"/>
		<stop  offset="1" style="stop-color:#006482;stop-opacity:0.8"/>
	</linearGradient>
	<path class="st18" d="M1304.5,2h-9.2c-0.7,0-1.2,0.6-1.2,1.2v14.9h9.3l2.3,2.2V3.2C1305.7,2.6,1305.2,2,1304.5,2"/>
	<linearGradient id="SVGID_19_" gradientUnits="userSpaceOnUse" x1="1286.8469" y1="18.1384" x2="1286.8469" y2="2">
		<stop  offset="0" style="stop-color:#006482;stop-opacity:0.7"/>
		<stop  offset="0.5" style="stop-color:#006482"/>
		<stop  offset="1" style="stop-color:#006482;stop-opacity:0.7"/>
	</linearGradient>
	<path class="st19" d="M1291.4,2h-9.2c-0.7,0-1.2,0.6-1.2,1.2v14.9h11.7V3.2C1292.7,2.6,1292.1,2,1291.4,2"/>
	<linearGradient id="SVGID_20_" gradientUnits="userSpaceOnUse" x1="1273.8062" y1="18.1384" x2="1273.8062" y2="2">
		<stop  offset="0" style="stop-color:#006482;stop-opacity:0.7"/>
		<stop  offset="0.5" style="stop-color:#006482"/>
		<stop  offset="1" style="stop-color:#006482;stop-opacity:0.7"/>
	</linearGradient>
	<path class="st20" d="M1278.4,2h-9.2c-0.7,0-1.2,0.6-1.2,1.2v14.9h11.7V3.2C1279.6,2.6,1279.1,2,1278.4,2"/>
	<linearGradient id="SVGID_21_" gradientUnits="userSpaceOnUse" x1="1260.7654" y1="18.1384" x2="1260.7654" y2="2">
		<stop  offset="0" style="stop-color:#006482;stop-opacity:0.6"/>
		<stop  offset="0.5" style="stop-color:#006482"/>
		<stop  offset="1" style="stop-color:#006482;stop-opacity:0.6"/>
	</linearGradient>
	<path class="st21" d="M1265.4,2h-9.2c-0.7,0-1.2,0.6-1.2,1.2v14.9h11.7V3.2C1266.6,2.6,1266,2,1265.4,2"/>
	<linearGradient id="SVGID_22_" gradientUnits="userSpaceOnUse" x1="1247.7246" y1="18.1384" x2="1247.7246" y2="2">
		<stop  offset="0" style="stop-color:#006482;stop-opacity:0.6"/>
		<stop  offset="0.5" style="stop-color:#006482"/>
		<stop  offset="1" style="stop-color:#006482;stop-opacity:0.6"/>
	</linearGradient>
	<path class="st22" d="M1252.3,2h-9.2c-0.7,0-1.2,0.6-1.2,1.2v14.9h11.7V3.2C1253.6,2.6,1253,2,1252.3,2"/>
	<linearGradient id="SVGID_23_" gradientUnits="userSpaceOnUse" x1="1234.6838" y1="18.1384" x2="1234.6838" y2="2">
		<stop  offset="0" style="stop-color:#006482;stop-opacity:0.5"/>
		<stop  offset="0.5" style="stop-color:#006482"/>
		<stop  offset="1" style="stop-color:#006482;stop-opacity:0.5"/>
	</linearGradient>
	<path class="st23" d="M1239.3,2h-9.2c-0.7,0-1.2,0.6-1.2,1.2v14.9h11.7V3.2C1240.5,2.6,1240,2,1239.3,2"/>
	<linearGradient id="SVGID_24_" gradientUnits="userSpaceOnUse" x1="1221.6431" y1="18.1384" x2="1221.6431" y2="2">
		<stop  offset="0" style="stop-color:#006482;stop-opacity:0.5"/>
		<stop  offset="0.5" style="stop-color:#006482"/>
		<stop  offset="1" style="stop-color:#006482;stop-opacity:0.5"/>
	</linearGradient>
	<path class="st24" d="M1226.2,2h-9.2c-0.7,0-1.2,0.6-1.2,1.2v14.9h11.7V3.2C1227.5,2.6,1226.9,2,1226.2,2"/>
	<linearGradient id="SVGID_25_" gradientUnits="userSpaceOnUse" x1="1208.6023" y1="18.1384" x2="1208.6023" y2="2">
		<stop  offset="0" style="stop-color:#006482;stop-opacity:0.4"/>
		<stop  offset="0.5" style="stop-color:#006482"/>
		<stop  offset="1" style="stop-color:#006482;stop-opacity:0.4"/>
	</linearGradient>
	<path class="st25" d="M1213.2,2h-9.2c-0.7,0-1.2,0.6-1.2,1.2v14.9h11.7V3.2C1214.4,2.6,1213.9,2,1213.2,2"/>
	<linearGradient id="SVGID_26_" gradientUnits="userSpaceOnUse" x1="1195.5614" y1="18.1384" x2="1195.5614" y2="2">
		<stop  offset="0" style="stop-color:#006482;stop-opacity:0.4"/>
		<stop  offset="0.5" style="stop-color:#006482"/>
		<stop  offset="1" style="stop-color:#006482;stop-opacity:0.4"/>
	</linearGradient>
	<path class="st26" d="M1200.2,2h-9.2c-0.7,0-1.2,0.6-1.2,1.2v14.9h11.7V3.2C1201.4,2.6,1200.8,2,1200.2,2"/>
	<linearGradient id="SVGID_27_" gradientUnits="userSpaceOnUse" x1="1182.5205" y1="18.1384" x2="1182.5205" y2="2">
		<stop  offset="0" style="stop-color:#006482;stop-opacity:0.3"/>
		<stop  offset="0.5" style="stop-color:#006482"/>
		<stop  offset="1" style="stop-color:#006482;stop-opacity:0.3"/>
	</linearGradient>
	<path class="st27" d="M1187.1,2h-9.2c-0.7,0-1.2,0.6-1.2,1.2v14.9h11.7V3.2C1188.4,2.6,1187.8,2,1187.1,2"/>
	<linearGradient id="SVGID_28_" gradientUnits="userSpaceOnUse" x1="1169.4797" y1="18.1384" x2="1169.4797" y2="2">
		<stop  offset="0" style="stop-color:#006482;stop-opacity:0.3"/>
		<stop  offset="0.5" style="stop-color:#006482"/>
		<stop  offset="1" style="stop-color:#006482;stop-opacity:0.3"/>
	</linearGradient>
	<path class="st28" d="M1174.1,2h-9.2c-0.7,0-1.2,0.6-1.2,1.2v14.9h11.7V3.2C1175.3,2.6,1174.8,2,1174.1,2"/>
	<linearGradient id="SVGID_29_" gradientUnits="userSpaceOnUse" x1="1156.4392" y1="18.1384" x2="1156.4392" y2="2">
		<stop  offset="0" style="stop-color:#006482;stop-opacity:0.2"/>
		<stop  offset="0.5" style="stop-color:#006482"/>
		<stop  offset="1" style="stop-color:#006482;stop-opacity:0.2"/>
	</linearGradient>
	<path class="st29" d="M1161,2h-9.2c-0.7,0-1.2,0.6-1.2,1.2v14.9h11.7V3.2C1162.3,2.6,1161.7,2,1161,2"/>
	<linearGradient id="SVGID_30_" gradientUnits="userSpaceOnUse" x1="1143.3982" y1="18.1384" x2="1143.3982" y2="2">
		<stop  offset="0" style="stop-color:#006482;stop-opacity:0.2"/>
		<stop  offset="0.5" style="stop-color:#006482"/>
		<stop  offset="1" style="stop-color:#006482;stop-opacity:0.2"/>
	</linearGradient>
	<path class="st30" d="M1148,2h-9.2c-0.7,0-1.2,0.6-1.2,1.2v14.9h11.7V3.2C1149.2,2.6,1148.7,2,1148,2"/>
	<linearGradient id="SVGID_31_" gradientUnits="userSpaceOnUse" x1="1130.3574" y1="18.1384" x2="1130.3574" y2="2">
		<stop  offset="0" style="stop-color:#006482;stop-opacity:0.1"/>
		<stop  offset="0.5" style="stop-color:#006482"/>
		<stop  offset="1" style="stop-color:#006482;stop-opacity:0.1"/>
	</linearGradient>
	<path class="st31" d="M1135,2h-9.2c-0.7,0-1.2,0.6-1.2,1.2v14.9h11.7V3.2C1136.2,2.6,1135.6,2,1135,2"/>
	<linearGradient id="SVGID_32_" gradientUnits="userSpaceOnUse" x1="1117.3167" y1="18.1384" x2="1117.3167" y2="2">
		<stop  offset="0" style="stop-color:#006482;stop-opacity:0.1"/>
		<stop  offset="0.5" style="stop-color:#006482"/>
		<stop  offset="1" style="stop-color:#006482;stop-opacity:0.1"/>
	</linearGradient>
	<path class="st32" d="M1121.9,2h-9.2c-0.7,0-1.2,0.6-1.2,1.2v14.9h11.7V3.2C1123.2,2.6,1122.6,2,1121.9,2"/>
	<linearGradient id="SVGID_33_" gradientUnits="userSpaceOnUse" x1="1104.2759" y1="18.1384" x2="1104.2759" y2="2">
		<stop  offset="0" style="stop-color:#006482;stop-opacity:0"/>
		<stop  offset="0.5" style="stop-color:#006482"/>
		<stop  offset="1" style="stop-color:#006482;stop-opacity:0"/>
	</linearGradient>
	<path class="st33" d="M1108.9,2h-9.2c-0.7,0-1.2,0.6-1.2,1.2v14.9h11.7V3.2C1110.1,2.6,1109.6,2,1108.9,2"/>
	<linearGradient id="SVGID_34_" gradientUnits="userSpaceOnUse" x1="1091.2351" y1="18.1384" x2="1091.2351" y2="2">
		<stop  offset="0" style="stop-color:#006482;stop-opacity:0"/>
		<stop  offset="0.5" style="stop-color:#006482"/>
		<stop  offset="1" style="stop-color:#006482;stop-opacity:0"/>
	</linearGradient>
	<path class="st34" d="M1095.8,2h-9.2c-0.7,0-1.2,0.6-1.2,1.2v14.9h11.7V3.2C1097.1,2.6,1096.5,2,1095.8,2"/>
</g>
<g>
	
		<linearGradient id="SVGID_35_" gradientUnits="userSpaceOnUse" x1="1034.3344" y1="28.052" x2="1034.3344" y2="2" gradientTransform="matrix(-1 0 0 1 1053.1338 0)">
		<stop  offset="0" style="stop-color:#006482;stop-opacity:0.9"/>
		<stop  offset="0.5" style="stop-color:#006482"/>
		<stop  offset="1" style="stop-color:#006482;stop-opacity:0.9"/>
	</linearGradient>
	<path class="st35" d="M14.2,2h9.2c0.7,0,1.2,0.6,1.2,1.2l0,23.6c0,0.7-0.6,1.2-1.2,1.2h-9.2c-0.7,0-1.2-0.6-1.2-1.2V3.2
		C13,2.6,13.5,2,14.2,2"/>
	
		<linearGradient id="SVGID_36_" gradientUnits="userSpaceOnUse" x1="1021.2936" y1="28.052" x2="1021.2936" y2="2" gradientTransform="matrix(-1 0 0 1 1053.1338 0)">
		<stop  offset="0" style="stop-color:#006482;stop-opacity:0.8"/>
		<stop  offset="0.5" style="stop-color:#006482"/>
		<stop  offset="1" style="stop-color:#006482;stop-opacity:0.9"/>
	</linearGradient>
	<path class="st36" d="M27.2,2h9.2c0.7,0,1.2,0.6,1.2,1.2v23.6c0,0.7-0.6,1.2-1.2,1.2h-9.2c-0.7,0-1.2-0.6-1.2-1.2l0-23.6
		C26,2.6,26.6,2,27.2,2"/>
	
		<linearGradient id="SVGID_37_" gradientUnits="userSpaceOnUse" x1="1008.2527" y1="28.052" x2="1008.2527" y2="2" gradientTransform="matrix(-1 0 0 1 1053.1338 0)">
		<stop  offset="0" style="stop-color:#006482;stop-opacity:0.8"/>
		<stop  offset="0.5" style="stop-color:#006482"/>
		<stop  offset="1" style="stop-color:#006482;stop-opacity:0.8"/>
	</linearGradient>
	<path class="st37" d="M40.3,2h9.2c0.7,0,1.2,0.6,1.2,1.2v18.5l-6.6,6.3h-3.9c-0.7,0-1.2-0.6-1.2-1.2V3.2C39,2.6,39.6,2,40.3,2"/>
	
		<linearGradient id="SVGID_38_" gradientUnits="userSpaceOnUse" x1="995.2119" y1="20.3883" x2="995.2119" y2="2" gradientTransform="matrix(-1 0 0 1 1053.1338 0)">
		<stop  offset="0" style="stop-color:#006482;stop-opacity:0.8"/>
		<stop  offset="0.5" style="stop-color:#006482"/>
		<stop  offset="1" style="stop-color:#006482;stop-opacity:0.8"/>
	</linearGradient>
	<path class="st38" d="M53.3,2h9.2c0.7,0,1.2,0.6,1.2,1.2v14.9h-9.3l-2.3,2.2V3.2C52.1,2.6,52.6,2,53.3,2"/>
	
		<linearGradient id="SVGID_39_" gradientUnits="userSpaceOnUse" x1="982.1711" y1="18.1384" x2="982.1711" y2="2" gradientTransform="matrix(-1 0 0 1 1053.1338 0)">
		<stop  offset="0" style="stop-color:#006482;stop-opacity:0.7"/>
		<stop  offset="0.5" style="stop-color:#006482"/>
		<stop  offset="1" style="stop-color:#006482;stop-opacity:0.7"/>
	</linearGradient>
	<path class="st39" d="M66.4,2h9.2c0.7,0,1.2,0.6,1.2,1.2v14.9H65.1V3.2C65.1,2.6,65.7,2,66.4,2"/>
	
		<linearGradient id="SVGID_40_" gradientUnits="userSpaceOnUse" x1="969.1303" y1="18.1384" x2="969.1303" y2="2" gradientTransform="matrix(-1 0 0 1 1053.1338 0)">
		<stop  offset="0" style="stop-color:#006482;stop-opacity:0.7"/>
		<stop  offset="0.5" style="stop-color:#006482"/>
		<stop  offset="1" style="stop-color:#006482;stop-opacity:0.7"/>
	</linearGradient>
	<path class="st40" d="M79.4,2h9.2c0.7,0,1.2,0.6,1.2,1.2v14.9H78.2V3.2C78.2,2.6,78.7,2,79.4,2"/>
	
		<linearGradient id="SVGID_41_" gradientUnits="userSpaceOnUse" x1="956.0897" y1="18.1384" x2="956.0897" y2="2" gradientTransform="matrix(-1 0 0 1 1053.1338 0)">
		<stop  offset="0" style="stop-color:#006482;stop-opacity:0.6"/>
		<stop  offset="0.5" style="stop-color:#006482"/>
		<stop  offset="1" style="stop-color:#006482;stop-opacity:0.6"/>
	</linearGradient>
	<path class="st41" d="M92.5,2h9.2c0.7,0,1.2,0.6,1.2,1.2v14.9H91.2V3.2C91.2,2.6,91.8,2,92.5,2"/>
	
		<linearGradient id="SVGID_42_" gradientUnits="userSpaceOnUse" x1="943.0488" y1="18.1384" x2="943.0488" y2="2" gradientTransform="matrix(-1 0 0 1 1053.1338 0)">
		<stop  offset="0" style="stop-color:#006482;stop-opacity:0.6"/>
		<stop  offset="0.5" style="stop-color:#006482"/>
		<stop  offset="1" style="stop-color:#006482;stop-opacity:0.6"/>
	</linearGradient>
	<path class="st42" d="M105.5,2h9.2c0.7,0,1.2,0.6,1.2,1.2v14.9h-11.7V3.2C104.2,2.6,104.8,2,105.5,2"/>
	
		<linearGradient id="SVGID_43_" gradientUnits="userSpaceOnUse" x1="930.008" y1="18.1384" x2="930.008" y2="2" gradientTransform="matrix(-1 0 0 1 1053.1338 0)">
		<stop  offset="0" style="stop-color:#006482;stop-opacity:0.5"/>
		<stop  offset="0.5" style="stop-color:#006482"/>
		<stop  offset="1" style="stop-color:#006482;stop-opacity:0.5"/>
	</linearGradient>
	<path class="st43" d="M118.5,2h9.2c0.7,0,1.2,0.6,1.2,1.2v14.9h-11.7V3.2C117.3,2.6,117.8,2,118.5,2"/>
	
		<linearGradient id="SVGID_44_" gradientUnits="userSpaceOnUse" x1="916.9672" y1="18.1384" x2="916.9672" y2="2" gradientTransform="matrix(-1 0 0 1 1053.1338 0)">
		<stop  offset="0" style="stop-color:#006482;stop-opacity:0.5"/>
		<stop  offset="0.5" style="stop-color:#006482"/>
		<stop  offset="1" style="stop-color:#006482;stop-opacity:0.5"/>
	</linearGradient>
	<path class="st44" d="M131.6,2h9.2c0.7,0,1.2,0.6,1.2,1.2v14.9h-11.7V3.2C130.3,2.6,130.9,2,131.6,2"/>
	
		<linearGradient id="SVGID_45_" gradientUnits="userSpaceOnUse" x1="903.9265" y1="18.1384" x2="903.9265" y2="2" gradientTransform="matrix(-1 0 0 1 1053.1338 0)">
		<stop  offset="0" style="stop-color:#006482;stop-opacity:0.4"/>
		<stop  offset="0.5" style="stop-color:#006482"/>
		<stop  offset="1" style="stop-color:#006482;stop-opacity:0.4"/>
	</linearGradient>
	<path class="st45" d="M144.6,2h9.2c0.7,0,1.2,0.6,1.2,1.2v14.9h-11.7V3.2C143.4,2.6,143.9,2,144.6,2"/>
	
		<linearGradient id="SVGID_46_" gradientUnits="userSpaceOnUse" x1="890.8856" y1="18.1384" x2="890.8856" y2="2" gradientTransform="matrix(-1 0 0 1 1053.1338 0)">
		<stop  offset="0" style="stop-color:#006482;stop-opacity:0.4"/>
		<stop  offset="0.5" style="stop-color:#006482"/>
		<stop  offset="1" style="stop-color:#006482;stop-opacity:0.4"/>
	</linearGradient>
	<path class="st46" d="M157.7,2h9.2c0.7,0,1.2,0.6,1.2,1.2v14.9h-11.7V3.2C156.4,2.6,157,2,157.7,2"/>
	
		<linearGradient id="SVGID_47_" gradientUnits="userSpaceOnUse" x1="877.8448" y1="18.1384" x2="877.8448" y2="2" gradientTransform="matrix(-1 0 0 1 1053.1338 0)">
		<stop  offset="0" style="stop-color:#006482;stop-opacity:0.3"/>
		<stop  offset="0.5" style="stop-color:#006482"/>
		<stop  offset="1" style="stop-color:#006482;stop-opacity:0.3"/>
	</linearGradient>
	<path class="st47" d="M170.7,2h9.2c0.7,0,1.2,0.6,1.2,1.2v14.9h-11.7V3.2C169.5,2.6,170,2,170.7,2"/>
	
		<linearGradient id="SVGID_48_" gradientUnits="userSpaceOnUse" x1="864.804" y1="18.1384" x2="864.804" y2="2" gradientTransform="matrix(-1 0 0 1 1053.1338 0)">
		<stop  offset="0" style="stop-color:#006482;stop-opacity:0.3"/>
		<stop  offset="0.5" style="stop-color:#006482"/>
		<stop  offset="1" style="stop-color:#006482;stop-opacity:0.3"/>
	</linearGradient>
	<path class="st48" d="M183.7,2h9.2c0.7,0,1.2,0.6,1.2,1.2v14.9h-11.7V3.2C182.5,2.6,183.1,2,183.7,2"/>
	
		<linearGradient id="SVGID_49_" gradientUnits="userSpaceOnUse" x1="851.7634" y1="18.1384" x2="851.7634" y2="2" gradientTransform="matrix(-1 0 0 1 1053.1338 0)">
		<stop  offset="0" style="stop-color:#006482;stop-opacity:0.2"/>
		<stop  offset="0.5" style="stop-color:#006482"/>
		<stop  offset="1" style="stop-color:#006482;stop-opacity:0.2"/>
	</linearGradient>
	<path class="st49" d="M196.8,2h9.2c0.7,0,1.2,0.6,1.2,1.2v14.9h-11.7V3.2C195.5,2.6,196.1,2,196.8,2"/>
	
		<linearGradient id="SVGID_50_" gradientUnits="userSpaceOnUse" x1="838.7225" y1="18.1384" x2="838.7225" y2="2" gradientTransform="matrix(-1 0 0 1 1053.1338 0)">
		<stop  offset="0" style="stop-color:#006482;stop-opacity:0.2"/>
		<stop  offset="0.5" style="stop-color:#006482"/>
		<stop  offset="1" style="stop-color:#006482;stop-opacity:0.2"/>
	</linearGradient>
	<path class="st50" d="M209.8,2h9.2c0.7,0,1.2,0.6,1.2,1.2v14.9h-11.7V3.2C208.6,2.6,209.1,2,209.8,2"/>
	
		<linearGradient id="SVGID_51_" gradientUnits="userSpaceOnUse" x1="825.6817" y1="18.1384" x2="825.6817" y2="2" gradientTransform="matrix(-1 0 0 1 1053.1338 0)">
		<stop  offset="0" style="stop-color:#006482;stop-opacity:0.1"/>
		<stop  offset="0.5" style="stop-color:#006482"/>
		<stop  offset="1" style="stop-color:#006482;stop-opacity:0.1"/>
	</linearGradient>
	<path class="st51" d="M222.9,2h9.2c0.7,0,1.2,0.6,1.2,1.2v14.9h-11.7V3.2C221.6,2.6,222.2,2,222.9,2"/>
	
		<linearGradient id="SVGID_52_" gradientUnits="userSpaceOnUse" x1="812.6409" y1="18.1384" x2="812.6409" y2="2" gradientTransform="matrix(-1 0 0 1 1053.1338 0)">
		<stop  offset="0" style="stop-color:#006482;stop-opacity:0.1"/>
		<stop  offset="0.5" style="stop-color:#006482"/>
		<stop  offset="1" style="stop-color:#006482;stop-opacity:0.1"/>
	</linearGradient>
	<path class="st52" d="M235.9,2h9.2c0.7,0,1.2,0.6,1.2,1.2v14.9h-11.7V3.2C234.7,2.6,235.2,2,235.9,2"/>
	
		<linearGradient id="SVGID_53_" gradientUnits="userSpaceOnUse" x1="799.6002" y1="18.1384" x2="799.6002" y2="2" gradientTransform="matrix(-1 0 0 1 1053.1338 0)">
		<stop  offset="0" style="stop-color:#006482;stop-opacity:0"/>
		<stop  offset="0.5" style="stop-color:#006482"/>
		<stop  offset="1" style="stop-color:#006482;stop-opacity:0"/>
	</linearGradient>
	<path class="st53" d="M248.9,2h9.2c0.7,0,1.2,0.6,1.2,1.2v14.9h-11.7V3.2C247.7,2.6,248.3,2,248.9,2"/>
	
		<linearGradient id="SVGID_54_" gradientUnits="userSpaceOnUse" x1="786.5593" y1="18.1384" x2="786.5593" y2="2" gradientTransform="matrix(-1 0 0 1 1053.1338 0)">
		<stop  offset="0" style="stop-color:#006482;stop-opacity:0"/>
		<stop  offset="0.5" style="stop-color:#006482"/>
		<stop  offset="1" style="stop-color:#006482;stop-opacity:0"/>
	</linearGradient>
	<path class="st54" d="M262,2h9.2c0.7,0,1.2,0.6,1.2,1.2v14.9h-11.7V3.2C260.7,2.6,261.3,2,262,2"/>
</g>
</svg>
