<?xml version="1.0" encoding="utf-8"?>
<!-- Generator: Adobe Illustrator 24.0.2, SVG Export Plug-In . SVG Version: 6.00 Build 0)  -->
<svg version="1.1" id="Capa_1" xmlns="http://www.w3.org/2000/svg" xmlns:xlink="http://www.w3.org/1999/xlink" x="0px" y="0px"
	 viewBox="0 0 146.8 86.6" style="enable-background:new 0 0 146.8 86.6;" xml:space="preserve">
<filter id='shadow' color-interpolation-filters="sRGB">
    <feDropShadow dx="0" dy="0" stdDeviation="1" flood-color="rgb(0,217,217)" flood-opacity="0.5" />
</filter>	 
<style type="text/css">
	.st0{fill-rule:evenodd;clip-rule:evenodd;fill:#000;filter:url(#shadow);opacity: 0.5;}
</style>
<path class="st0" d="M144.8,86.6L70.1,11.4C68.2,9.9,66,9,63.6,8.9H0v77.7H144.8z"/>
<path class="st0" d="M97,86.6L36.7,26c-1.6-1.3-3.5-2.2-5.6-2.2H0v62.9L97,86.6L97,86.6z"/>
<path class="st0" d="M108.6,86.6L52.5,30.2c-1.4-1.2-3.1-1.9-4.9-1.9H0v58.3H108.6z"/>
<path class="st0" d="M80.3,86.6L40,46.1c-1.1-0.9-2.4-1.4-3.8-1.5H0v42H80.3z"/>
<path class="st0" d="M72.4,86.6L35,49c-0.9-0.8-2-1.2-3.2-1.3H0v38.9C0,86.6,72.4,86.6,72.4,86.6z"/>
<path class="st0" d="M36.2,86.6L17.5,67.8c-0.5-0.4-1-0.6-1.6-0.6H0v19.4C0,86.6,36.2,86.6,36.2,86.6z"/>
</svg>
