<?xml version="1.0" encoding="utf-8"?>
<!-- Generator: Adobe Illustrator 24.0.2, SVG Export Plug-In . SVG Version: 6.00 Build 0)  -->
<svg version="1.1" id="Capa_1" xmlns="http://www.w3.org/2000/svg" xmlns:xlink="http://www.w3.org/1999/xlink" x="0px" y="0px"
	 viewBox="0 0 150 150" style="enable-background:new 0 0 150 150;" xml:space="preserve">
<style type="text/css">
	.st0{fill:none;stroke:#fff;stroke-width:5;}
	.st1{fill:none;stroke:#fff;stroke-width:5;}
	.st2{fill:none;stroke:#fff;stroke-width:5;}
	.st3{fill:none;stroke:#fff;stroke-width:5;}
	.st4{fill:none;stroke:#fff;stroke-width:5;}
	.st5{fill:none;stroke:#fff;stroke-width:5;}
	.st6{fill:none;stroke:#fff;stroke-width:5;}
	.st7{fill:none;stroke:#fff;stroke-width:5;}
	.st8{fill:none;stroke:#fff;stroke-width:5;}
	.st9{fill-rule:evenodd;clip-rule:evenodd;fill:#FF0000;}
	.st10{fill-rule:evenodd;clip-rule:evenodd;fill:#FFFFFF;}
</style>
<path class="st0" d="M96.7,69.9H140c1.7,0,3.1,1.4,3.1,3.1v26.3c0,1.7-1.4,3.1-3.1,3.1H96.7c-1.7,0-3.1-1.4-3.1-3.1V73
	C93.5,71.3,94.9,69.9,96.7,69.9z"/>
<path class="st1" d="M92.8,120.5h51.2c1.7,0,3.7-1.5,3.1-3.1l-3.9-11.7c-0.5-1.6-1.4-3.1-3.1-3.1H96.7c-1.7,0-2.6,1.5-3.1,3.1
	l-3.9,11.7C89.1,119,91,120.5,92.8,120.5z"/>
<line class="st2" x1="95.3" y1="112.5" x2="97.7" y2="112.5"/>
<line class="st2" x1="98.9" y1="112.5" x2="101.4" y2="112.5"/>
<line class="st2" x1="102.5" y1="112.5" x2="105" y2="112.5"/>
<line class="st2" x1="106.2" y1="112.5" x2="108.7" y2="112.5"/>
<line class="st2" x1="109.8" y1="112.5" x2="112.3" y2="112.5"/>
<line class="st2" x1="113.5" y1="112.5" x2="116" y2="112.5"/>
<line class="st2" x1="117.1" y1="112.5" x2="119.6" y2="112.5"/>
<line class="st2" x1="120.8" y1="112.5" x2="123.3" y2="112.5"/>
<line class="st2" x1="124.4" y1="112.5" x2="126.9" y2="112.5"/>
<line class="st2" x1="128.1" y1="112.5" x2="130.6" y2="112.5"/>
<line class="st2" x1="131.7" y1="112.5" x2="134.2" y2="112.5"/>
<line class="st2" x1="135.4" y1="112.5" x2="137.8" y2="112.5"/>
<line class="st2" x1="139" y1="112.5" x2="141.5" y2="112.5"/>
<line class="st2" x1="103.3" y1="116.4" x2="133.5" y2="116.4"/>
<line class="st2" x1="99.4" y1="116.4" x2="101.9" y2="116.4"/>
<line class="st2" x1="95.6" y1="116.4" x2="98.1" y2="116.4"/>
<line class="st2" x1="138.7" y1="116.4" x2="141.2" y2="116.4"/>
<line class="st2" x1="134.8" y1="116.4" x2="137.3" y2="116.4"/>
<line class="st2" x1="97.1" y1="108.4" x2="99.6" y2="108.4"/>
<line class="st2" x1="100.7" y1="108.4" x2="103.2" y2="108.4"/>
<line class="st2" x1="104.4" y1="108.4" x2="106.9" y2="108.4"/>
<line class="st2" x1="108" y1="108.4" x2="110.5" y2="108.4"/>
<line class="st2" x1="111.7" y1="108.4" x2="114.2" y2="108.4"/>
<line class="st2" x1="115.3" y1="108.4" x2="117.8" y2="108.4"/>
<line class="st2" x1="119" y1="108.4" x2="121.4" y2="108.4"/>
<line class="st2" x1="122.6" y1="108.4" x2="125.1" y2="108.4"/>
<line class="st2" x1="126.2" y1="108.4" x2="128.7" y2="108.4"/>
<line class="st2" x1="129.9" y1="108.4" x2="132.4" y2="108.4"/>
<line class="st2" x1="133.5" y1="108.4" x2="136" y2="108.4"/>
<line class="st2" x1="137.2" y1="108.4" x2="139.7" y2="108.4"/>
<path class="st1" d="M37.6,95.7H18.3l-7.8,5.7v10.8h30.2V98.8C40.8,97.1,39.3,95.7,37.6,95.7z"/>
<path class="st0" d="M10.6,135H4c-1.7,0-3.1-1.4-3.1-3.1v-16.6c0-1.7,1.4-3.1,3.1-3.1h43.4c1.7,0,3.1,1.4,3.1,3.1v16.6
	c0,1.7-1.4,3.1-3.1,3.1h-6.6"/>
<path class="st3" d="M41.9,116.1c1.3,0,2.4,1.1,2.4,2.4c0,1.3-1.1,2.4-2.4,2.4c-1.3,0-2.4-1.1-2.4-2.4
	C39.5,117.2,40.6,116.1,41.9,116.1z"/>
<path class="st0" d="M13.7,126.3h23.9c1.7,0,3.1,1.4,3.1,3.1V146c0,1.7-1.4,3.1-3.1,3.1H13.7c-1.7,0-3.1-1.4-3.1-3.1v-16.6
	C10.6,127.7,12,126.3,13.7,126.3z"/>
<path class="st4" d="M10.6,103h8.9c0.6,0,1.2-0.5,1.2-1.2v-6.2"/>
<line class="st5" x1="7.4" y1="116.9" x2="12.3" y2="116.9"/>
<line class="st5" x1="14.9" y1="116.9" x2="19.8" y2="116.9"/>
<path class="st6" d="M4,2.9h43.4c1.7,0,3.1,1.4,3.1,3.1v26.3c0,1.7-1.4,3.1-3.1,3.1H4c-1.7,0-3.1-1.4-3.1-3.1V6
	C0.8,4.3,2.3,2.9,4,2.9z"/>
<line class="st7" x1="8.9" y1="45.1" x2="42.5" y2="45.1"/>
<line class="st8" x1="35.2" y1="45.1" x2="35.2" y2="35.4"/>
<line class="st8" x1="16.1" y1="45.1" x2="16.1" y2="35.4"/>
<path class="st0" d="M58.4,2.8h6c1.7,0,3.1,1.4,3.1,3.1v35.9c0,1.7-1.4,3.1-3.1,3.1h-6c-1.7,0-3.1-1.4-3.1-3.1V6
	C55.2,4.3,56.6,2.8,58.4,2.8z"/>
<line class="st5" x1="59" y1="20.2" x2="63.9" y2="20.2"/>
<line class="st5" x1="59" y1="26.5" x2="63.9" y2="26.5"/>
<path class="st3" d="M61.3,9c1.3,0,2.4,1.1,2.4,2.4c0,1.3-1.1,2.4-2.4,2.4c-1.3,0-2.4-1.1-2.4-2.4C58.9,10.1,60,9,61.3,9z"/>
<path class="st9" d="M74,43.1c18.2,0,32.9,14.7,32.9,32.9S92.2,108.9,74,108.9S41.1,94.2,41.1,76S55.8,43.1,74,43.1"/>
<path class="st10" d="M76.8,79.4l0.8-18.9c0,0,0,0,0-0.1c0-0.7-0.6-1.3-1.3-1.3c0,0,0,0,0,0h-4.5c-0.7,0-1.3,0.6-1.3,1.3
	c0,0,0,0,0,0.1l0.8,18.9c0,0.7,0.6,1.3,1.3,1.3h0h2.8h0C76.1,80.7,76.7,80.2,76.8,79.4"/>
<path class="st10" d="M78,88.8c0-2.3-1.8-4-4.1-4c-2.2,0-4,1.7-4,4c0,2.3,1.8,4.1,4,4.1C76.3,92.9,78,91.1,78,88.8"/>
</svg>
