<?xml version="1.0" encoding="utf-8"?>
<!-- Generator: Adobe Illustrator 24.0.2, SVG Export Plug-In . SVG Version: 6.00 Build 0)  -->
<svg version="1.1" id="Capa_1" xmlns="http://www.w3.org/2000/svg" xmlns:xlink="http://www.w3.org/1999/xlink" x="0px" y="0px"
	 viewBox="0 0 510 210" style="enable-background:new 0 0 510 210;" xml:space="preserve">
<style type="text/css">
	.st0{fill-rule:evenodd;clip-rule:evenodd;fill:transparent;}
	.st1{fill:#00D9D9;}
	/* .st2{fill:#0000FF;} */
	.st3,.st2{fill-rule:evenodd;clip-rule:evenodd;fill:#fff;}
</style>
<g>
	<rect y="0" class="st0" width="510" height="210"/>
	<path class="st1" d="M91.4,66.8c0,1.9-1.6,3.5-3.5,3.5c-1.9,0-3.5-1.6-3.5-3.5v-19h0c-0.1-4.8,3.1-9.6,9.2-13.3
		c4.9-2.9,11.9-5.2,20.6-6.2l0.2,0l289.5-17.8h0.1c10.7-0.3,19.8,1.1,26.4,3.9c7.4,3.1,11.9,8,12.5,14.2l0,0.1l-0.2,36
		c0,1.9-1.6,3.5-3.5,3.5c-1.9,0-3.5-1.6-3.5-3.5l0.2-35.5c-0.4-3.4-3.4-6.3-8.3-8.4c-5.7-2.4-13.7-3.7-23.3-3.4v0l-112.7,6.9
		l104.5-5.2h0c9.9-0.3,18.3,1,24.3,3.5c6.5,2.7,10.4,6.8,10.9,11.9l0,0.1l-0.2,33.4c0,1-0.8,1.7-1.7,1.7c-1,0-1.7-0.8-1.7-1.7
		l0.2-33.2c-0.4-3.7-3.6-6.8-8.8-9c-5.6-2.3-13.4-3.5-22.8-3.3v0l-282.8,14c-7.5,0.8-13.4,2.6-17.4,5c-1,0.6-2,1.3-2.8,1.9
		c-1.2,1.4-1.9,2.8-1.8,4.1l0,0.1V66.8z M91.4,143.2c0-1.9-1.6-3.5-3.5-3.5c-1.9,0-3.5,1.6-3.5,3.5v19h0c-0.1,4.8,3.1,9.6,9.2,13.3
		c4.9,2.9,11.9,5.2,20.6,6.2l0.2,0l289.5,17.8h0.1c10.7,0.3,19.8-1.1,26.4-3.9c7.4-3.1,11.9-8,12.5-14.2l0-0.1l-0.2-36
		c0-1.9-1.6-3.5-3.5-3.5c-1.9,0-3.5,1.6-3.5,3.5l0.2,35.5c-0.4,3.4-3.4,6.3-8.3,8.4c-5.7,2.4-13.7,3.7-23.3,3.4v0l-112.7-6.9
		l104.5,5.2h0c9.9,0.3,18.3-1,24.3-3.5c6.5-2.7,10.4-6.8,10.9-11.9l0-0.1l-0.2-33.4c0-1-0.8-1.7-1.7-1.7c-1,0-1.7,0.8-1.7,1.7
		l0.2,33.2c-0.4,3.7-3.6,6.8-8.8,9c-5.6,2.3-13.4,3.5-22.8,3.3v0l-282.8-14c-7.5-0.8-13.4-2.6-17.4-5c-1-0.6-2-1.2-2.8-1.9
		c-1.2-1.4-1.9-2.8-1.8-4.1l0-0.1V143.2z"/>
	<path class="st2" d="M99.9,123.9l1.3,5.4c-4.3,1.5-9,2.2-14,2.2c-8.6,0-15.2-2.6-19.9-7.7c-4-4.5-6-9.9-6-16.3
		c0-7.1,2.4-13,7.1-17.7c4.7-4.8,10.6-7.1,17.6-7.1c6.6,0,12,2,16.3,5.9c4.3,3.9,6.5,8.9,6.5,14.9c0,4.5-1.4,8.3-4.1,11.3
		c-2.7,3-6.2,4.5-10.3,4.5c-2.2,0-4-0.4-5.3-1.2c-1.3-0.8-2-1.9-2-3.3c0-0.6,0.1-1.5,0.4-2.5l1.3-5c0.1-0.4,0.1-0.8,0.1-1.3
		c0-1.9-0.9-2.8-2.7-2.8c-1.1,0-2.1,0.4-2.9,1.3c-0.8,0.9-1.3,1.9-1.3,3c0,1.5,0.7,2.2,2.1,2.2c0.7,0,1.3-0.1,1.9-0.3l-3.1,8.6
		c-0.7,0.1-1.3,0.2-1.8,0.2c-2.5,0-4.5-0.7-6-2.2c-1.5-1.5-2.2-3.5-2.2-6c0-4.1,1.5-7.7,4.5-10.8c3-3.1,6.6-4.6,10.6-4.6
		c2.9,0,5.3,0.8,7.1,2.3c1.8,1.5,2.7,3.5,2.7,5.9c0,1-0.2,2.1-0.4,3.4l-1,4.2l-0.2,0.7c-0.2,0.7-0.3,1.2-0.3,1.7
		c0,1.1,0.5,1.7,1.5,1.7c1.6,0,3-1.1,4.3-3.3c1.3-2.2,1.9-4.7,1.9-7.4c0-4.6-1.6-8.3-4.8-11.2c-3.2-2.9-7.3-4.3-12.5-4.3
		c-5.5,0-10.1,1.9-13.7,5.6c-3.6,3.7-5.4,8.4-5.4,14.1c0,4.9,1.4,9.1,4.2,12.4c3.4,4.1,8.7,6.2,15.9,6.2
		C91.4,126.2,95.6,125.4,99.9,123.9"/>
	<path class="st2" d="M481.4,96v34.5h-14V83.4h18c5.5,0,9.7,1.4,12.7,4.1c3.4,3.1,5,6.9,5,11.6c0,4.8-2.1,8.8-6.2,12.1l8.1,19.4
		h-14.7l-6.8-15.2v-12.1h1.1c2.9,0,4.4-1.3,4.4-3.8c0-2.3-1.7-3.4-5.1-3.4H481.4z"/>
	<path class="st2" d="M397.8,105.6v12.7h-4.7v12.3h-14v-29.3c0-5.5,1.7-10,5.1-13.6c3.4-3.6,7.7-5.4,12.8-5.4
		c5.7,0,10.4,2.4,14.3,7.3L399.8,98c-0.6-1.8-1.8-2.6-3.4-2.6c-2.2,0-3.3,1.5-3.3,4.4v5.8H397.8z"/>
	<path class="st2" d="M337.5,130.5V99.9c0-5.4,1.6-9.6,4.8-12.9c3.2-3.2,7.5-4.8,12.8-4.8c5.3,0,9.4,1.6,12.2,4.7
		c2.8,3.1,4.2,7.6,4.2,13.5v30.1h-14v-30.1c0-2.8-1-4.2-3.1-4.2c-2,0-3,1.4-3,4.2v30.1H337.5z"/>
	<path class="st2" d="M290.2,106.8v12.4h-4v11.2h-14v-30c0-5.8,1.6-10.3,4.8-13.5c3.2-3.2,7.6-4.8,13.4-4.8c5.5,0,9.6,1.4,12.3,4.4
		c2.7,2.9,4,7.4,4,13.5v30.5h-14V101c0-1.8-0.2-3.1-0.7-3.8c-0.4-0.7-1.2-1-2.4-1c-2.2,0-3.3,1.6-3.3,4.8v5.9H290.2z"/>
	<path class="st2" d="M251.8,107.5l14.7,0.4c-1,7.6-3.6,13.5-7.9,17.6c-4.3,4.1-9.9,6.2-16.8,6.2c-7,0-12.9-2.4-17.6-7.1
		c-4.7-4.7-7.1-10.6-7.1-17.5c0-7,2.4-12.9,7.2-17.7c4.8-4.8,10.8-7.2,17.8-7.2c7,0,12.8,2.3,17.4,7c3.2,3.2,5.5,7.8,6.8,13.6l-15,1
		c-1.7-5.1-4.9-7.7-9.6-7.7c-3,0-5.5,1-7.4,3.1c-1.9,2.1-2.9,4.7-2.9,7.9c0,3.1,1,5.6,2.9,7.6c1.9,2,4.3,3,7.3,3
		c3,0,5.4-0.9,7.1-2.7C250.4,113.4,251.5,110.8,251.8,107.5"/>
	<path class="st2" d="M203.5,67c3.9,0,7,2.6,7,5.8c0,3.2-3.1,5.8-7,5.8c-3.9,0-7-2.6-7-5.8C196.5,69.6,199.6,67,203.5,67
		 M210.5,83.4v47.2h-14V83.4H210.5z"/>
	<path class="st2" d="M187.1,83.4v47.2h-14V83.4H187.1z M170.6,100.3v12.4h-3.9v17.8h-14V83.4h14v16.9H170.6z"/>
	<polygon class="st2" points="136.9,96.9 136.9,130.5 122.9,130.5 122.9,96.9 112.1,96.9 112.1,83.4 147.5,83.4 147.5,96.9 	"/>
	<path class="st2" d="M5,130.5v-34c0-4.2,1.3-7.6,3.8-10.3c2.6-2.7,5.9-4,9.9-4c4.8,0,8.5,2.2,11.2,6.6c1.6-2.4,3.3-4.1,5.1-5.1
		c1.8-1,4.1-1.5,6.7-1.5c4.2,0,7.5,1.3,9.8,4c2.3,2.7,3.4,6.5,3.4,11.5v32.8h-14V99.9c0-1.5-0.1-2.5-0.4-3c-0.2-0.5-0.7-0.7-1.5-0.7
		c-1.4,0-2.1,1.2-2.1,3.5v30.9H23V99.9c0-1.5-0.1-2.5-0.4-2.9c-0.3-0.5-0.8-0.7-1.5-0.7c-1.4,0-2.1,1.2-2.1,3.7v30.7H5z"/>
	<path class="st3" d="M329,83.4v47.2h-14V83.4H329z M322.2,67c3.9,0,7,2.6,7,5.8c0,3.2-3.1,5.8-7,5.8c-3.9,0-7-2.6-7-5.8
		C315.2,69.6,318.3,67,322.2,67z"/>
	<path class="st3" d="M436.1,117.8c-2.9,0-5.3-1.1-7.3-3.2c-2-2.1-3.1-4.7-3.1-7.7c0-3,1-5.5,3-7.7c2-2.1,4.5-3.2,7.4-3.2
		c2.9,0,5.4,1,7.4,3.2c2,2.1,3,4.7,3,7.7c0,3-1,5.6-3,7.7C441.4,116.8,439,117.8,436.1,117.8 M418.6,124.5
		c4.8,4.8,10.7,7.2,17.5,7.2c6.9,0,12.7-2.4,17.5-7.2c4.8-4.8,7.2-10.7,7.2-17.6c0-6.8-2.4-12.6-7.2-17.4
		c-4.8-4.9-10.5-7.3-17.2-7.3c-7,0-13,2.4-17.9,7.2c-4.9,4.8-7.3,10.6-7.3,17.5C411.3,113.8,413.7,119.6,418.6,124.5z"/>
</g>
</svg>
