<?xml version="1.0" encoding="utf-8"?>
<!-- Generator: Adobe Illustrator 24.0.2, SVG Export Plug-In . SVG Version: 6.00 Build 0)  -->
<svg version="1.1" id="Capa_1" xmlns="http://www.w3.org/2000/svg" xmlns:xlink="http://www.w3.org/1999/xlink" x="0px" y="0px"
	 viewBox="0 0 900 350" style="enable-background:new 0 0 900 350;" xml:space="preserve">
<style type="text/css">
	.st0{fill:#E6E6E6;}
	.st1{fill:#00D6D6;}
	.st2{fill:#FFFFFF;}
	.st3{fill-rule:evenodd;clip-rule:evenodd;fill:#FFFFFF;}
</style>
<g>
	<path class="st0" d="M669.7,279.2c0.2,0,0.5,0,0.8-0.1c0.3-0.1,0.6-0.2,0.8-0.4c0.3-0.1,0.5-0.3,0.8-0.4c0.3-0.1,0.5-0.3,0.6-0.4
		c0.2-0.2,0.3-0.2,0.4-0.3c-0.2-3.3-0.3-6.5-0.4-9.8c-1,0.1-2,0.3-3,0.4c-1,0.2-1.7,0.7-2.2,1.5c-0.5,0.8-0.7,1.9-0.6,3.4
		c0,0.6,0.1,1.2,0.1,1.9c0,1,0.2,1.8,0.5,2.5c0.2,0.6,0.5,1.1,0.9,1.3C668.8,279.1,669.3,279.2,669.7,279.2 M666.1,289.6
		c-1.9-0.1-3.5-1.2-4.8-3.4c-1.3-2.2-2-5.2-2.2-8.9c-0.1-1.5-0.1-3.1-0.2-4.6c-0.2-3.6,0.4-6.5,1.6-8.9c1.2-2.3,3.3-3.4,6.1-3.4
		c1.8,0,3.7,0.1,5.6,0.1c-0.1-0.8-0.1-1.5-0.1-2.3c-0.1-1.3-0.2-2.4-0.5-3.2c-0.3-0.8-0.8-1.4-1.5-1.8c-0.7-0.4-1.8-0.6-3.3-0.6
		c-2.4-0.1-4.9-0.1-7.3-0.2c-0.2-2.9-0.3-5.8-0.5-8.8c1.2-0.9,2.6-1.6,4.2-2.1c1.6-0.5,3.6-0.9,5.9-0.9c2,0,3.8,0.5,5.4,1.5
		c1.6,1,2.8,2.6,3.7,5c0.9,2.4,1.4,5.7,1.7,10.1c0.3,5.4,0.5,10.8,0.8,16.2c0.3,5.4,0.6,10.8,0.8,16.2c-2.1-0.1-4.2-0.2-6.3-0.3
		c-0.5-1.7-1-3.3-1.5-5c-0.2,0.5-0.6,1-1,1.6c-0.4,0.6-1,1.2-1.7,1.7c-0.7,0.6-1.4,1-2.3,1.3C668.1,289.6,667.1,289.7,666.1,289.6z
		 M648,288.8c-1.5-0.1-3-0.5-4.3-1.4c-1.3-0.8-2.5-2.2-3.5-4c-1-1.8-1.8-4.3-2.5-7.3c-0.7-3.1-1-6.9-1.2-11.5
		c-0.2-4.8-0.2-8.7,0.1-11.9c0.3-3.2,0.9-5.7,1.7-7.5c0.8-1.8,1.9-3.1,3.2-3.9c1.3-0.8,2.8-1.1,4.6-1.1c1.6,0,3,0.2,4.4,0.6
		c1.3,0.4,2.9,1.1,4.5,2c0.1,2.9,0.2,5.8,0.4,8.7c-2.1-0.1-4.1-0.1-6.2-0.1c-1.3,0-2.4,0.3-3.2,1c-0.8,0.7-1.3,2-1.5,3.9
		c-0.2,1.9-0.3,4.7-0.1,8.2c0.2,3.6,0.5,6.3,0.9,8.1c0.4,1.8,1,3.1,1.8,3.7c0.8,0.6,2,1,3.4,1c2.2,0.1,4.4,0.2,6.5,0.3
		c0.1,2.9,0.3,5.8,0.4,8.6c-0.8,0.5-1.7,0.9-2.7,1.3c-1,0.4-2.1,0.7-3.3,0.9C650.2,288.8,649.1,288.8,648,288.8z M625.5,287.2
		c-0.4-7.7-0.7-15.5-1-23.2c-0.3-7.7-0.7-15.5-1-23.2c2.6,0,5.2,0.1,7.9,0.1c0.4,7.8,0.8,15.6,1.1,23.3c0.3,7.8,0.7,15.6,1,23.3
		C630.8,287.5,628.2,287.3,625.5,287.2z M624.1,234.5c-0.7,0-1.1-0.6-1.1-1.9c-0.1-3-0.3-6-0.4-9.1c-0.1-1.3,0.3-2,1-2
		c2,0,4,0,6.1,0c0.3,0,0.6,0.2,0.7,0.6c0.2,0.4,0.3,0.9,0.3,1.4c0.1,3,0.3,6.1,0.4,9.1c0,1.3-0.3,1.9-0.9,1.9
		C628.2,234.5,626.1,234.5,624.1,234.5z M617.1,286.8c-2-0.1-3.7-0.7-5-1.8c-1.3-1.1-2.2-2.9-2.8-5.4c-0.7-2.5-1-5.8-1.1-10
		c-0.1-2.9-0.2-5.8-0.3-8.7c-0.1-2.9-0.2-5.8-0.2-8.7c-1.3,0-2.6-0.1-3.8-0.1c-0.1-3.1-0.3-6.2-0.4-9.4c1.3-0.7,2.7-1.5,4-2.2
		c0.2-4.3,0.3-8.6,0.5-12.9c2,0,4.1,0,6.3,0c0.2,4.3,0.4,8.6,0.6,12.9c1.7,0,3.5,0,5.3,0.1c0.2,3.9,0.4,7.9,0.5,11.8
		c-1.8,0-3.6-0.1-5.3-0.1c0.1,2.9,0.2,5.8,0.4,8.7c0.1,2.9,0.2,5.8,0.4,8.7c0,1,0.1,1.8,0.2,2.4c0.1,0.7,0.3,1.2,0.5,1.6
		c0.2,0.4,0.5,0.8,0.7,1c0.3,0.2,0.5,0.3,0.8,0.4c1,0.2,2.1,0.5,3.1,0.7c0.2,3.7,0.3,7.3,0.5,11C620.4,287,618.7,286.9,617.1,286.8z
		 M587.6,232.5c1-4,1.9-8,2.9-11.9c2.1,0,4.2,0,6.3,0c-1.5,4-3,8-4.6,12C590.6,232.5,589.1,232.5,587.6,232.5z M590.9,276.1
		c0.2,0,0.5,0,0.8-0.1c0.3-0.1,0.6-0.2,0.8-0.3c0.3-0.1,0.5-0.3,0.8-0.4c0.3-0.1,0.5-0.2,0.7-0.4c0.2-0.1,0.3-0.2,0.3-0.3
		c-0.1-3.1-0.3-6.2-0.4-9.3c-1,0.1-2,0.2-3,0.4c-0.9,0.2-1.7,0.7-2.2,1.4c-0.5,0.7-0.7,1.8-0.7,3.2c0,0.6,0.1,1.2,0.1,1.8
		c0,0.9,0.2,1.7,0.5,2.3c0.2,0.6,0.6,1,0.9,1.2C590,276,590.5,276,590.9,276.1z M587.3,285.9c-1.9-0.1-3.5-1.2-4.8-3.3
		c-1.2-2.1-2-4.9-2.1-8.4c0-1.4-0.1-2.9-0.2-4.4c-0.1-3.4,0.4-6.2,1.7-8.4c1.3-2.2,3.3-3.3,6.2-3.2c1.9,0,3.7,0.1,5.6,0.2
		c-0.1-0.7-0.1-1.5-0.1-2.2c-0.1-1.3-0.2-2.3-0.5-3.1c-0.3-0.8-0.8-1.4-1.5-1.7c-0.7-0.4-1.8-0.5-3.3-0.6c-2.4-0.1-4.9-0.1-7.3-0.2
		c-0.1-2.8-0.2-5.5-0.4-8.3c1.2-0.8,2.6-1.5,4.2-2c1.7-0.5,3.6-0.8,5.9-0.8c2.1,0,3.8,0.5,5.4,1.4c1.6,0.9,2.8,2.5,3.7,4.8
		c0.9,2.2,1.4,5.4,1.6,9.6c0.2,5.1,0.5,10.2,0.7,15.3c0.2,5.1,0.4,10.2,0.7,15.3c-2.1-0.1-4.2-0.2-6.3-0.3c-0.5-1.6-1-3.1-1.4-4.7
		c-0.3,0.4-0.7,0.9-1.1,1.5c-0.4,0.6-1,1.1-1.7,1.6c-0.7,0.5-1.4,1-2.2,1.2C589.2,285.9,588.2,286,587.3,285.9z M539.2,283.2
		c-0.3-7.3-0.5-14.5-0.8-21.8c-0.3-7.3-0.6-14.5-0.8-21.8c2.1,0,4.3,0.1,6.5,0.1c0.5,1.4,1,2.9,1.6,4.3c0.9-1.3,2-2.5,3.2-3.5
		c1.1-1,2.7-1.5,4.5-1.5c1.6,0,2.9,0.6,3.9,1.8c1,1.1,1.9,2.6,2.4,4.4c0.6-0.9,1.4-1.8,2.2-2.7c0.8-0.9,1.7-1.7,2.7-2.4
		c1-0.6,2-0.9,3.1-0.9c2,0,3.7,0.8,4.8,2.1c1.2,1.4,2,3.4,2.6,5.9c0.6,2.6,1,5.6,1.1,9.1c0.2,4.8,0.4,9.6,0.6,14.3
		c0.2,4.8,0.4,9.6,0.6,14.3c-2.7-0.1-5.3-0.3-8-0.4c-0.2-4.5-0.4-9.1-0.6-13.6c-0.2-4.5-0.4-9.1-0.6-13.6c-0.1-1.3-0.2-2.3-0.5-3.1
		c-0.3-0.8-0.7-1.4-1.1-1.7c-0.4-0.4-0.9-0.6-1.6-0.6c-0.8,0-1.5,0.3-2.3,0.8c-0.8,0.6-1.4,1.2-1.9,2.1c0.1,0.4,0.1,0.9,0.1,1.3
		c0.1,0.4,0.1,0.9,0.1,1.2c0.1,4.5,0.3,8.9,0.5,13.4c0.2,4.5,0.4,8.9,0.6,13.4c-2.7-0.1-5.3-0.2-8-0.4c-0.2-4.5-0.4-9-0.5-13.4
		c-0.2-4.5-0.4-9-0.6-13.4c-0.1-1.3-0.2-2.3-0.5-3c-0.3-0.8-0.7-1.3-1.1-1.7c-0.4-0.4-0.9-0.6-1.5-0.6c-0.5,0-1,0.1-1.6,0.3
		c-0.5,0.2-0.9,0.6-1.3,1c-0.4,0.4-0.8,0.9-1.1,1.4c0.2,4.8,0.3,9.7,0.5,14.6c0.2,4.9,0.4,9.7,0.6,14.6
		C544.5,283.4,541.8,283.3,539.2,283.2z M519.5,282.3c-0.3-7.2-0.5-14.3-0.8-21.5c-0.2-7.2-0.5-14.3-0.8-21.5c2,0,4.1,0.1,6.2,0.1
		c0.6,2.1,1.3,4.2,2,6.3c0.7-1.9,1.6-3.5,2.6-4.8c1-1.3,2.2-2,3.6-2c0.3,0,0.6,0,0.9,0.1c0.4,0.1,0.8,0.2,1.1,0.3
		c0.2,4.8,0.4,9.5,0.5,14.3c-0.5-0.1-1-0.2-1.6-0.3c-0.5-0.1-1-0.1-1.5-0.1c-0.8,0-1.6,0.1-2.2,0.4c-0.6,0.3-1.2,0.7-1.7,1.3
		c-0.5,0.6-1,1.3-1.4,2.2c0.2,4.3,0.3,8.6,0.5,12.8c0.2,4.3,0.3,8.5,0.5,12.8C524.8,282.5,522.1,282.4,519.5,282.3z M503.5,271.1
		c0.7,0,1.3-0.1,1.8-0.3c0.5-0.2,0.8-0.7,1-1.4c0.2-0.7,0.4-1.8,0.5-3.3c0.1-1.5,0.1-3.4,0-5.9c-0.1-2.5-0.2-4.5-0.4-5.9
		c-0.2-1.5-0.4-2.6-0.7-3.3c-0.3-0.7-0.7-1.2-1.1-1.4c-0.5-0.2-1.1-0.3-1.8-0.4c-0.7,0-1.2,0.1-1.7,0.3c-0.5,0.2-0.8,0.7-1.1,1.4
		c-0.3,0.7-0.5,1.8-0.5,3.3c-0.1,1.5,0,3.4,0.1,5.9c0.1,2.5,0.2,4.4,0.4,5.9c0.2,1.5,0.4,2.6,0.7,3.3c0.3,0.7,0.7,1.2,1.2,1.5
		C502.3,270.9,502.8,271.1,503.5,271.1z M503.9,281.9c-2.1-0.1-3.9-0.6-5.5-1.4c-1.6-0.8-2.7-2.1-3.7-3.8c-1-1.7-1.7-4-2.2-6.7
		c-0.5-2.7-0.8-6.1-0.9-10.1c-0.1-4.3,0-7.8,0.3-10.6c0.3-2.8,0.8-5,1.7-6.6c0.9-1.6,2-2.7,3.5-3.4c1.5-0.7,3.2-1,5.3-1
		c2.1,0,3.9,0.4,5.4,1.2c1.5,0.7,2.8,1.9,3.7,3.6c1,1.7,1.7,3.9,2.2,6.8c0.5,2.8,0.9,6.4,1,10.6c0.1,4.2,0.1,7.7-0.2,10.5
		c-0.3,2.8-0.9,5-1.7,6.6c-0.8,1.6-2,2.8-3.5,3.4C507.9,281.8,506.1,282,503.9,281.9z M476.4,280.2c-0.2-5.2-0.4-10.3-0.6-15.5
		c-0.2-5.2-0.3-10.3-0.5-15.5c-1.1,0-2.3-0.1-3.4-0.1c-0.1-2.8-0.2-5.6-0.3-8.5c1.1-0.7,2.2-1.4,3.3-2c0-0.7,0-1.4-0.1-2.1
		c-0.1-3.7,0.1-6.7,0.6-9c0.5-2.3,1.5-4,2.7-5.1c1.2-1.1,2.8-1.6,4.8-1.6c1.1,0,2.1,0.1,3,0.4c0.9,0.3,1.7,0.6,2.2,0.8
		c0.1,3.2,0.2,6.5,0.3,9.7c-1.2,0-2.4,0-3.6,0c-0.6,0-1,0.1-1.3,0.4c-0.3,0.3-0.5,0.7-0.7,1.3c-0.1,0.6-0.1,1.4-0.1,2.4
		c0,1,0.1,1.9,0.1,2.9c1.9,0,3.8,0.1,5.8,0.1c0.1,3.6,0.3,7.1,0.4,10.7c-2-0.1-3.9-0.1-5.9-0.1c0.2,5.2,0.3,10.4,0.5,15.6
		c0.2,5.2,0.4,10.4,0.6,15.6C481.6,280.5,479,280.4,476.4,280.2z M446.9,278.9c-0.3-6.8-0.4-13.5-0.6-20.3
		c-0.2-6.8-0.4-13.5-0.6-20.3c2.2,0,4.4,0.1,6.5,0.1c0.5,1.3,1,2.7,1.6,4c0.8-1.2,1.8-2.3,3.1-3.2c1.3-1,2.7-1.4,4.1-1.4
		c2.1,0,3.7,0.7,4.9,2.1c1.2,1.3,2,3.2,2.4,5.5c0.5,2.3,0.8,4.9,0.9,7.6c0.1,4.5,0.3,9,0.4,13.5c0.1,4.5,0.3,9,0.5,13.5
		c-2.7-0.1-5.3-0.2-8-0.4c-0.2-4.2-0.3-8.4-0.4-12.5c-0.1-4.2-0.3-8.4-0.4-12.5c0-1.2-0.2-2.1-0.4-2.8c-0.3-0.7-0.7-1.3-1.1-1.6
		c-0.4-0.3-0.9-0.5-1.5-0.5c-0.5,0-1,0.1-1.6,0.3c-0.5,0.2-1,0.5-1.4,0.9c-0.4,0.4-0.8,0.8-1.1,1.3c0.1,4.5,0.2,9.1,0.4,13.6
		c0.1,4.5,0.3,9,0.5,13.6C452.2,279.1,449.6,279,446.9,278.9z M346.1,274.2c-0.2-6.2-0.3-12.5-0.4-18.7c-0.1-6.2-0.2-12.4-0.4-18.7
		c2.2,0,4.4,0.1,6.6,0.1c0.5,1.2,0.9,2.5,1.4,3.7c0.8-1.1,1.9-2.1,3.2-2.9c1.3-0.9,2.7-1.3,4-1.3c2.1,0,3.7,0.7,4.9,1.9
		c1.1,1.2,1.9,2.9,2.4,5.1c0.5,2.1,0.7,4.5,0.8,7c0.1,4.1,0.2,8.3,0.3,12.4c0.1,4.1,0.2,8.3,0.3,12.4c-2.7-0.1-5.3-0.2-8-0.4
		c-0.1-3.8-0.2-7.7-0.3-11.5c-0.1-3.8-0.2-7.7-0.3-11.5c0-1.1-0.1-1.9-0.4-2.6c-0.3-0.7-0.6-1.1-1.1-1.5c-0.4-0.3-0.9-0.5-1.5-0.5
		c-0.5,0-1,0.1-1.6,0.3c-0.5,0.2-1,0.5-1.4,0.8c-0.4,0.4-0.8,0.8-1.1,1.2c0.1,4.2,0.1,8.3,0.2,12.5c0.1,4.2,0.2,8.3,0.3,12.5
		C351.4,274.4,348.8,274.3,346.1,274.2z M307,272.3c-0.1-6-0.2-12-0.3-18c-0.1-6-0.2-12-0.3-18c2.6,0,5.2,0.1,7.9,0.1
		c0.1,6.1,0.2,12.1,0.3,18.2c0.1,6.1,0.2,12.1,0.3,18.2C312.3,272.6,309.7,272.4,307,272.3z M307.3,231.4c-0.7,0-1-0.5-1-1.5
		c0-2.3-0.1-4.7-0.1-7c0-1,0.3-1.5,1-1.5c2,0,4.1,0,6.1,0c0.4,0,0.6,0.1,0.8,0.4c0.2,0.3,0.3,0.7,0.3,1.1c0,2.4,0.1,4.7,0.1,7.1
		c0,1-0.3,1.5-0.9,1.5C311.4,231.4,309.3,231.4,307.3,231.4z M294.3,272.1c-1.6-0.1-3-0.4-4.3-1.1c-1.3-0.6-2.4-1.7-3.4-3
		c-1-1.4-1.7-3.2-2.3-5.6c-0.5-2.3-0.8-5.2-0.9-8.7c-0.1-3.6,0.2-6.6,0.6-8.9c0.4-2.4,1.1-4.2,2-5.6c0.9-1.4,2-2.4,3.3-2.9
		c1.3-0.6,2.9-0.8,4.7-0.8c1.5,0,3,0.2,4.3,0.5c1.4,0.3,2.8,0.8,4.4,1.5c0.1,2.2,0.1,4.4,0.1,6.6c-2.1,0-4.1-0.1-6.2-0.1
		c-1.4,0-2.5,0.2-3.3,0.8c-0.8,0.5-1.3,1.5-1.6,3c-0.3,1.4-0.4,3.5-0.4,6.2c0,2.7,0.2,4.7,0.5,6.1c0.3,1.4,0.9,2.3,1.7,2.8
		c0.8,0.5,1.9,0.7,3.4,0.8c2.1,0.1,4.3,0.2,6.5,0.3c0.1,2.2,0.1,4.4,0.1,6.5c-0.8,0.4-1.7,0.7-2.7,1c-1,0.3-2.1,0.5-3.3,0.6
		C296.5,272.1,295.4,272.2,294.3,272.1z M263.8,270.7c-2.2-0.1-3.9-1.1-5.2-3c-1.2-1.9-1.9-4.5-1.9-7.7c0-4.1-0.1-8.2-0.1-12.2
		c0-4.1-0.1-8.1-0.2-12.2c2.6,0,5.3,0.1,8,0.1c0,3.5,0.1,7.1,0.1,10.6c0,3.5,0.1,7,0.1,10.6c0,1.6,0.2,2.7,0.8,3.3
		c0.6,0.6,1.3,0.9,2.2,0.9c0.6,0,1.3-0.2,2.1-0.6c0.8-0.4,1.5-0.9,2-1.5c-0.1-3.9-0.1-7.7-0.2-11.6c-0.1-3.9-0.1-7.7-0.1-11.6
		c2.6,0,5.2,0.1,7.9,0.1c0.1,5.9,0.1,11.7,0.2,17.6c0.1,5.9,0.2,11.7,0.3,17.6c-2.2-0.1-4.4-0.2-6.6-0.3c-0.5-1.2-1-2.3-1.4-3.5
		c-1.1,0.9-2.3,1.7-3.7,2.5C266.8,270.4,265.3,270.7,263.8,270.7z M250.3,269.9c-1.8-0.1-3.4-0.5-4.7-1.5c-1.2-0.9-2.1-2.2-2.7-3.8
		c-0.6-1.7-0.9-3.8-0.9-6.3c0-6.2-0.1-12.4-0.2-18.6c-0.1-6.2-0.1-12.4-0.2-18.6c2.6,0,5.3,0,7.9,0c0.1,6,0.1,11.9,0.2,17.9
		c0.1,5.9,0.1,11.9,0.2,17.9c0,1.1,0.1,1.9,0.3,2.6c0.2,0.6,0.4,1.1,0.8,1.5c0.3,0.3,0.8,0.6,1.3,0.7c0.5,0.1,1.1,0.2,1.7,0.4
		c0.1,2.7,0.1,5.4,0.1,8.1C252.8,270,251.5,269.9,250.3,269.9z M226.5,260.4c0.7,0,1.3,0,1.8-0.2c0.5-0.2,0.8-0.5,1-1.1
		c0.3-0.6,0.5-1.4,0.6-2.6c0.1-1.2,0.2-2.7,0.2-4.7c0-2-0.1-3.5-0.3-4.7c-0.1-1.2-0.3-2-0.6-2.6c-0.3-0.6-0.6-0.9-1.1-1.1
		c-0.5-0.2-1-0.3-1.8-0.3c-0.7,0-1.2,0-1.7,0.2c-0.5,0.2-0.9,0.5-1.1,1.1c-0.3,0.5-0.5,1.4-0.6,2.6c-0.1,1.2-0.1,2.7-0.1,4.6
		c0,1.9,0,3.5,0.2,4.7c0.1,1.2,0.4,2,0.7,2.6c0.3,0.6,0.7,0.9,1.1,1.1C225.2,260.2,225.8,260.3,226.5,260.4z M226.5,268.9
		c-2.1-0.1-3.9-0.5-5.4-1.2c-1.5-0.7-2.7-1.7-3.6-3.1c-0.9-1.4-1.6-3.1-2-5.3c-0.4-2.2-0.6-4.8-0.6-7.9c0-3.4,0.2-6.1,0.6-8.3
		c0.4-2.2,1.1-3.9,2-5.2c0.9-1.2,2.1-2.2,3.5-2.7c1.5-0.5,3.3-0.8,5.4-0.7c2.2,0,4,0.4,5.4,0.9c1.5,0.6,2.7,1.6,3.6,2.9
		c0.9,1.3,1.6,3.1,2,5.4c0.4,2.3,0.6,5.1,0.7,8.4c0,3.3-0.2,6.1-0.5,8.3c-0.4,2.2-1,4-1.9,5.2c-0.9,1.3-2.1,2.2-3.6,2.6
		C230.6,268.8,228.7,269,226.5,268.9z M695.3,291c-0.8,0-1.7-0.1-2.5-0.3c-0.9-0.2-1.8-0.4-2.6-0.6c-0.9-0.2-1.7-0.5-2.5-0.9
		c-0.7-0.4-1.5-0.8-2-1.2c-0.2-3-0.3-6.1-0.5-9.1c3.7,0.1,7.5,0.3,11.2,0.4c0.6,0,1,0,1.3-0.2c0.3-0.2,0.5-0.5,0.6-0.8
		c0.1-0.4,0.2-0.9,0.2-1.7c0-0.5-0.1-0.9-0.1-1.4c-0.1-0.9-0.2-1.5-0.6-2.1c-0.3-0.5-0.9-0.8-1.8-0.8c-1.4,0-2.7-0.1-4.1-0.1
		c-1.3,0-2.7-0.5-3.9-1.4c-1.2-0.9-2.2-2.3-3-4.4c-0.8-2-1.2-4.7-1.3-8c0-1-0.1-1.9-0.1-2.9c-0.2-3.1-0.1-5.7,0.5-7.9
		c0.5-2.1,1.5-3.8,3-4.9c1.5-1.1,3.6-1.7,6.2-1.6c1,0,2.2,0.1,3.4,0.4c1.1,0.3,2.2,0.6,3.3,1c1,0.4,1.9,0.8,2.4,1.3
		c0.2,3.1,0.3,6.1,0.5,9.2c-3.6-0.1-7.1-0.2-10.6-0.2c-0.7,0-1.2,0.2-1.5,0.6c-0.3,0.4-0.4,1.2-0.4,2.2c0,0.4,0,0.8,0.1,1.3
		c0.1,0.7,0.2,1.3,0.4,1.7c0.2,0.4,0.4,0.7,0.8,0.9c0.4,0.2,0.9,0.3,1.5,0.3c1.3,0,2.7,0.1,4.1,0.1c2.6,0.1,4.5,1.3,5.8,3.7
		c1.2,2.4,1.9,5.6,2.2,9.7c0.1,1.6,0.2,3.1,0.3,4.6c0.2,3.3-0.2,5.9-0.8,7.8c-0.7,1.9-1.8,3.3-3.3,4.1
		C699.6,290.8,697.6,291.1,695.3,291z M433.9,278.3c-0.3-9.2-0.6-18.5-0.8-27.7c-0.3-9.2-0.5-18.5-0.8-27.7c2.6,0,5.2,0,7.9,0
		c0.3,9.3,0.5,18.6,0.8,27.9c0.3,9.3,0.5,18.6,0.8,27.9C439.2,278.5,436.6,278.4,433.9,278.3z M407.6,277.4c-0.8,0-1.7-0.1-2.5-0.3
		c-0.9-0.1-1.8-0.3-2.6-0.5c-0.9-0.2-1.7-0.4-2.5-0.7c-0.7-0.3-1.4-0.6-2-1c-0.1-2.4-0.2-4.9-0.2-7.3c3.7,0.1,7.5,0.3,11.3,0.4
		c0.5,0,0.9,0,1.2-0.2c0.3-0.1,0.5-0.4,0.6-0.7c0.1-0.3,0.2-0.8,0.2-1.3c0-0.4-0.1-0.7-0.1-1.1c0-0.7-0.2-1.2-0.5-1.7
		c-0.3-0.4-0.9-0.7-1.8-0.7c-1.3,0-2.7-0.1-4-0.1c-1.4,0-2.7-0.4-3.8-1.1c-1.2-0.7-2.1-1.9-2.8-3.5c-0.7-1.6-1.1-3.8-1.1-6.4
		c0-0.8,0-1.5-0.1-2.3c-0.1-2.5,0.2-4.6,0.7-6.3c0.6-1.7,1.6-3,3.1-3.9c1.5-0.9,3.6-1.3,6.3-1.3c1,0,2.1,0.1,3.3,0.3
		c1.1,0.2,2.2,0.5,3.3,0.8c1,0.3,1.9,0.7,2.4,1c0.1,2.5,0.1,5,0.2,7.4c-3.6-0.1-7.1-0.2-10.6-0.2c-0.7,0-1.2,0.1-1.5,0.5
		c-0.3,0.3-0.5,0.9-0.4,1.8c0,0.3,0,0.7,0,1c0,0.6,0.2,1.1,0.3,1.4c0.2,0.3,0.4,0.6,0.8,0.7c0.4,0.1,0.8,0.2,1.4,0.2
		c1.3,0,2.7,0.1,4.1,0.1c2.6,0.1,4.5,1,5.7,3c1.2,1.9,1.8,4.6,1.9,7.9c0,1.3,0.1,2.5,0.1,3.8c0.1,2.6-0.3,4.8-1,6.3
		c-0.7,1.6-1.9,2.6-3.4,3.3C411.8,277.3,409.9,277.6,407.6,277.4z M380.2,253.5c1.5,0,3,0.1,4.6,0.1c0.7,0,1.3-0.2,1.7-0.7
		c0.3-0.5,0.4-1.3,0.4-2.6c0-1.2-0.2-2.1-0.4-2.8c-0.2-0.7-0.6-1.2-1-1.5c-0.6-0.4-1.2-0.5-2-0.5c-0.7,0-1.4,0.2-1.9,0.6
		c-0.5,0.5-0.9,1.2-1,2.4C380.3,249.8,380.2,251.4,380.2,253.5z M384.5,276.3c-2.8-0.1-5-0.8-6.7-2c-1.8-1.2-3-3.2-3.8-6.1
		c-0.8-2.9-1.3-6.8-1.4-11.9c-0.1-5.2,0.2-9.2,0.8-12.1c0.6-2.9,1.8-4.9,3.3-6c1.6-1.1,3.8-1.7,6.5-1.6c2.6,0,4.6,0.4,6.2,1.2
		c1.5,0.8,2.6,2.2,3.3,4.2c0.7,2,1.1,4.8,1.2,8.4c0.1,2.7-0.2,4.8-0.9,6.4c-0.6,1.6-1.5,2.7-2.7,3.3c-1.3,0.6-2.7,0.9-4.4,0.8
		c-1.8-0.1-3.6-0.1-5.3-0.2c0.2,1.5,0.3,2.8,0.6,3.7c0.3,0.9,0.9,1.6,1.7,2c0.8,0.4,2,0.6,3.5,0.7c2.3,0.1,4.7,0.2,7,0.3
		c0.1,2.4,0.2,4.9,0.2,7.3c-1.1,0.4-2.4,0.8-3.8,1.1C388.2,276.3,386.5,276.4,384.5,276.3z M330.3,264.4c0.7,0,1.3-0.1,1.8-0.2
		c0.5-0.2,0.8-0.6,1.1-1.2c0.3-0.6,0.5-1.6,0.6-2.8c0.1-1.3,0.2-3,0.1-5.1c-0.1-2.2-0.2-3.9-0.3-5.2c-0.2-1.3-0.4-2.2-0.7-2.9
		c-0.3-0.6-0.6-1-1.1-1.2c-0.5-0.2-1-0.3-1.8-0.3c-0.7,0-1.2,0.1-1.7,0.2c-0.5,0.2-0.9,0.5-1.1,1.2c-0.3,0.6-0.5,1.5-0.6,2.8
		c-0.1,1.3-0.1,3-0.1,5.1c0,2.1,0.1,3.8,0.3,5.1c0.2,1.3,0.4,2.2,0.7,2.9c0.3,0.6,0.7,1,1.1,1.3
		C329.1,264.2,329.7,264.4,330.3,264.4z M330.5,273.8c-2.1-0.1-3.9-0.5-5.4-1.2c-1.5-0.7-2.7-1.8-3.7-3.4c-0.9-1.5-1.7-3.4-2.1-5.9
		c-0.4-2.4-0.7-5.3-0.7-8.7c-0.1-3.7,0.1-6.8,0.5-9.2c0.4-2.4,1-4.3,1.9-5.7c0.9-1.4,2.1-2.4,3.5-2.9c1.5-0.6,3.3-0.8,5.3-0.8
		c2.2,0,4,0.4,5.4,1c1.5,0.6,2.7,1.7,3.6,3.2c0.9,1.5,1.7,3.4,2.1,5.9c0.5,2.5,0.7,5.6,0.8,9.2c0.1,3.6,0,6.7-0.4,9.1
		c-0.4,2.4-1,4.4-1.9,5.8c-0.9,1.4-2.1,2.4-3.5,2.9C334.6,273.6,332.7,273.9,330.5,273.8z M199.2,267.6c-0.9,0-1.9-0.1-2.8-0.2
		c-1-0.1-1.9-0.3-2.8-0.5c-1-0.2-1.9-0.4-2.8-0.6c-0.9-0.2-1.7-0.5-2.4-0.8c0-2.7,0-5.5,0-8.2c1,0.1,2.1,0.3,3.3,0.4
		c1.2,0.1,2.4,0.2,3.7,0.3c1.2,0.1,2.4,0.1,3.5,0.2c1.1,0,2-0.1,2.7-0.2c0.8-0.2,1.4-0.5,1.8-1.1c0.4-0.5,0.6-1.3,0.6-2.3
		c0-0.4,0-0.8,0-1.2c0-1.1-0.2-1.9-0.8-2.5c-0.6-0.6-1.2-0.9-2.1-0.9c-0.9,0-1.8-0.1-2.7-0.1c-3.4-0.1-6-1.2-7.8-3.2
		c-1.8-2-2.6-5.3-2.6-9.9c0-0.7,0-1.4,0-2.1c0-4.3,0.9-7.6,2.8-9.6c2-2.1,4.8-3.1,8.4-3.1c1.3,0,2.7,0.1,3.9,0.3
		c1.2,0.2,2.4,0.4,3.5,0.6c1.1,0.2,2.2,0.5,3,0.8c0,2.8,0,5.5,0,8.3c-1.4-0.1-3-0.3-4.7-0.4c-1.7-0.1-3.3-0.2-4.8-0.2
		c-0.9,0-1.8,0.1-2.5,0.3c-0.7,0.2-1.3,0.6-1.7,1.2c-0.4,0.6-0.6,1.4-0.6,2.5c0,0.3,0,0.6,0,0.8c0,1.3,0.3,2.2,0.9,2.9
		c0.6,0.6,1.5,0.9,2.6,1c1,0,2.1,0,3.2,0.1c2.1,0,3.8,0.6,5.2,1.7c1.4,1.1,2.4,2.5,3.1,4.4c0.7,1.8,1,3.9,1,6.2
		c0,0.8,0.1,1.5,0.1,2.3c0,3.7-0.5,6.6-1.5,8.5c-1,1.9-2.4,3.2-4.2,3.8C203.8,267.5,201.7,267.7,199.2,267.6z"/>
	<path class="st1" d="M161.4,103.5c0,3.2-2.6,5.8-5.8,5.8c-3.2,0-5.8-2.6-5.8-5.8V72.2h0c-0.1-8,5.2-15.9,15.4-21.9
		c8.2-4.9,19.9-8.6,34.5-10.2l0.3,0l483.3-29.4h0.2c17.9-0.5,33.1,1.9,44,6.5c12.3,5.2,19.8,13.3,20.9,23.4l0,0.2l-0.3,59.4
		c0,3.2-2.6,5.7-5.8,5.7c-3.2,0-5.8-2.6-5.8-5.8l0.3-58.6c-0.7-5.6-5.7-10.4-13.9-13.9c-9.5-4-22.8-6-39-5.6v0L495.6,33.7l174.5-8.5
		h0.1c16.6-0.4,30.5,1.7,40.5,5.8c10.8,4.4,17.3,11.2,18.2,19.7l0,0.1l-0.3,55.2c0,1.6-1.3,2.9-2.9,2.9c-1.6,0-2.9-1.3-2.9-2.9
		l0.3-54.8c-0.7-6.2-6-11.3-14.7-14.9c-9.3-3.8-22.4-5.8-38.1-5.4v0L198.1,54c-12.5,1.3-22.3,4.4-29.1,8.3c-1.8,1-3.3,2.1-4.6,3.1
		c-2.1,2.3-3.1,4.6-3.1,6.7l0,0.1V103.5z"/>
	<path class="st1" d="M161.6,217.9c0-3.2-2.6-5.8-5.8-5.8c-3.2,0-5.8,2.6-5.8,5.8v61.9h0c-0.1,8,5.2,15.9,15.4,21.9
		c8.2,4.9,19.9,8.6,34.4,10.2l0.3,0l483.3,29.4h0.2c17.9,0.5,33.1-1.9,44-6.5c12.3-5.2,19.8-13.3,20.9-23.4l0-0.2l-0.3-91.5
		c0-3.2-2.6-5.7-5.8-5.7c-3.2,0-5.8,2.6-5.8,5.8l0.3,90.7c-0.7,5.6-5.7,10.4-13.9,13.9c-9.5,4-22.8,6-39,5.6v0l-188.2-11.4
		l174.5,8.5h0.1c16.6,0.4,30.5-1.7,40.5-5.8c10.8-4.4,17.3-11.2,18.2-19.7l0-0.1l-0.3-87.3c0-1.6-1.3-2.9-2.9-2.9
		c-1.6,0-2.9,1.3-2.9,2.9l0.3,86.9c-0.7,6.2-6,11.3-14.7,14.9c-9.3,3.8-22.4,5.8-38.1,5.4v0l-472.2-23c-12.5-1.3-22.3-4.4-29.1-8.3
		c-1.8-1-3.3-2.1-4.6-3.1c-2.1-2.3-3.1-4.6-3.1-6.7l0-0.1V217.9z"/>
	<path class="st2" d="M185.3,190.2l2.3,9.1c-7.4,2.5-15.3,3.7-23.8,3.7c-14.6,0-25.9-4.3-33.8-13c-6.8-7.5-10.2-16.6-10.2-27.4
		c0-11.9,4-21.8,12.1-29.8c8.1-8,18.1-12,30-12c11.2,0,20.4,3.3,27.8,9.9c7.3,6.6,11,14.9,11,25c0,7.6-2.3,14-7,19
		c-4.7,5-10.5,7.6-17.6,7.6c-3.8,0-6.8-0.7-9-2.1c-2.2-1.4-3.4-3.2-3.4-5.6c0-1.1,0.2-2.5,0.6-4.2l2.2-8.4c0.2-0.7,0.2-1.4,0.2-2.3
		c0-3.1-1.5-4.7-4.6-4.7c-1.9,0-3.6,0.7-5,2.2c-1.4,1.5-2.1,3.1-2.1,5c0,2.5,1.2,3.7,3.6,3.7c1.1,0,2.2-0.2,3.3-0.6l-5.3,14.4
		c-1.2,0.2-2.3,0.3-3.1,0.3c-4.3,0-7.7-1.2-10.2-3.7c-2.5-2.5-3.8-5.9-3.8-10.1c0-6.9,2.6-13,7.7-18.1c5.1-5.1,11.1-7.7,18.1-7.7
		c5,0,9,1.3,12,3.8c3,2.6,4.5,5.9,4.5,10c0,1.7-0.3,3.6-0.8,5.6l-1.8,7L179,168c-0.3,1.1-0.5,2.1-0.5,2.9c0,1.9,0.9,2.8,2.6,2.8
		c2.7,0,5.1-1.9,7.3-5.6c2.2-3.8,3.3-7.9,3.3-12.5c0-7.7-2.7-14-8.1-18.8c-5.4-4.8-12.5-7.2-21.2-7.2c-9.4,0-17.2,3.1-23.3,9.4
		c-6.1,6.3-9.2,14.2-9.2,23.7c0,8.2,2.4,15.2,7.2,20.9c5.9,7,14.8,10.4,27,10.4C170.9,194,178,192.7,185.3,190.2"/>
	<path class="st2" d="M833.9,143.4v58h-23.8v-79.3h30.5c9.3,0,16.5,2.3,21.6,6.9c5.7,5.1,8.6,11.6,8.6,19.5c0,8-3.5,14.8-10.6,20.3
		l13.7,32.6h-25l-11.6-25.5v-20.4h1.9c5,0,7.5-2.1,7.5-6.4c0-3.8-2.9-5.7-8.7-5.7H833.9z"/>
	<path class="st2" d="M691.7,159.4v21.3h-7.9v20.7H660v-49.2c0-9.2,2.9-16.9,8.7-22.9c5.8-6,13-9.1,21.8-9.1
		c9.7,0,17.7,4.1,24.2,12.3l-19.6,14.1c-1.1-3-3-4.4-5.8-4.4c-3.7,0-5.5,2.5-5.5,7.4v9.8H691.7z"/>
	<path class="st2" d="M589.2,201.4v-51.4c0-9,2.7-16.2,8.2-21.6c5.5-5.4,12.7-8.1,21.8-8.1c9.1,0,16,2.6,20.8,7.9
		c4.8,5.2,7.2,12.8,7.2,22.7v50.6h-23.8v-50.6c0-4.8-1.7-7.1-5.3-7.1c-3.4,0-5.1,2.4-5.1,7.1v50.6H589.2z"/>
	<path class="st2" d="M508.8,161.6v20.9H502v18.9h-23.8V151c0-9.7,2.7-17.3,8.1-22.7c5.4-5.4,13-8.1,22.7-8.1
		c9.4,0,16.4,2.4,20.9,7.3c4.5,4.9,6.8,12.4,6.8,22.6v51.2h-23.8v-49.6c0-3-0.4-5.1-1.1-6.3c-0.8-1.2-2.1-1.8-4-1.8
		c-3.8,0-5.7,2.7-5.7,8.1v9.8H508.8z"/>
	<path class="st2" d="M443.6,162.7l25,0.6c-1.6,12.8-6.1,22.7-13.4,29.6c-7.3,7-16.8,10.5-28.6,10.5c-11.9,0-21.9-4-30-11.9
		c-8-7.9-12.1-17.7-12.1-29.5c0-11.8,4.1-21.7,12.3-29.8c8.2-8.1,18.3-12.1,30.3-12.1c11.8,0,21.7,3.9,29.6,11.8
		c5.5,5.4,9.4,13,11.6,22.8l-25.5,1.7c-2.9-8.6-8.3-12.9-16.3-12.9c-5.1,0-9.3,1.7-12.6,5.2c-3.3,3.5-5,7.9-5,13.3
		c0,5.2,1.6,9.4,4.9,12.8c3.3,3.4,7.4,5.1,12.4,5.1c5.1,0,9.1-1.5,12.1-4.5C441.3,172.5,443,168.2,443.6,162.7"/>
	<path class="st2" d="M361.5,94.7c6.6,0,11.9,4.3,11.9,9.7c0,5.3-5.3,9.7-11.9,9.7c-6.6,0-11.9-4.3-11.9-9.7
		C349.6,99,354.9,94.7,361.5,94.7 M373.4,122.1v79.3h-23.8v-79.3H373.4z"/>
	<path class="st2" d="M333.5,122.1v79.3h-23.8v-79.3H333.5z M305.6,150.5v20.9H299v29.9h-23.8v-79.3H299v28.4H305.6z"/>
	<polygon class="st2" points="248.2,144.9 248.2,201.4 224.4,201.4 224.4,144.9 206.1,144.9 206.1,122.1 266.3,122.1 266.3,144.9 	
		"/>
	<path class="st2" d="M24,201.4v-57.1c0-7.1,2.2-12.8,6.5-17.3c4.3-4.5,10-6.7,16.9-6.7c8.2,0,14.5,3.7,19,11.1
		c2.7-4,5.6-6.9,8.7-8.6c3.1-1.7,6.9-2.6,11.5-2.6c7.2,0,12.7,2.2,16.6,6.7c3.8,4.5,5.8,10.9,5.8,19.4v55.1H85.1v-51.6
		c0-2.5-0.2-4.2-0.6-5c-0.4-0.8-1.3-1.2-2.5-1.2c-2.4,0-3.6,1.9-3.6,5.8v51.9H54.5v-51.6c0-2.5-0.2-4.1-0.6-5
		c-0.4-0.8-1.3-1.2-2.5-1.2c-2.4,0-3.5,2.1-3.5,6.2v51.6H24z"/>
	<path class="st3" d="M574.8,122.1v79.3H551v-79.3H574.8z M563.3,94.7c6.6,0,11.9,4.3,11.9,9.7c0,5.3-5.3,9.7-11.9,9.7
		c-6.6,0-11.9-4.3-11.9-9.7C551.4,99,556.7,94.7,563.3,94.7z"/>
	<path class="st3" d="M756.8,180c-4.8,0-9-1.8-12.5-5.3c-3.5-3.5-5.2-7.8-5.2-12.9c0-5,1.7-9.3,5.2-12.9c3.4-3.5,7.6-5.3,12.5-5.3
		c4.9,0,9.1,1.8,12.5,5.3c3.4,3.5,5.1,7.8,5.1,12.9c0,5.1-1.7,9.3-5.1,12.9C765.9,178.2,761.7,180,756.8,180 M727.1,191.2
		c8.2,8.1,18.1,12.2,29.8,12.2c11.7,0,21.6-4,29.8-12.1c8.2-8.1,12.3-17.9,12.3-29.5c0-11.4-4.1-21.1-12.2-29.3
		c-8.1-8.2-17.9-12.2-29.2-12.2c-12,0-22.1,4-30.4,12.1c-8.3,8-12.4,17.9-12.4,29.5C714.7,173.3,718.8,183.1,727.1,191.2z"/>
</g>
</svg>
