<?xml version="1.0" encoding="utf-8"?>
<!-- Generator: Adobe Illustrator 24.0.2, SVG Export Plug-In . SVG Version: 6.00 Build 0)  -->
<svg version="1.1" id="Capa_1" xmlns="http://www.w3.org/2000/svg" xmlns:xlink="http://www.w3.org/1999/xlink" x="0px" y="0px"
	 viewBox="0 0 48.8 20" style="enable-background:new 0 0 48.8 20;" xml:space="preserve">
<style type="text/css">
	.st0{fill:#00D9D9;}
	.st1{fill:#FFFDFD;}
	.st2{fill-rule:evenodd;clip-rule:evenodd;fill:#FFFDFD;}
</style>
<g>
	<path class="st0" d="M9.9,6.7c0,0.1-0.1,0.3-0.3,0.3S9.4,6.8,9.4,6.7V5l0,0c0-0.4,0.3-0.9,0.8-1.2c0.4-0.3,1-0.5,1.8-0.5l0,0
		l25.6-1.5l0,0c0.9,0,1.8,0.1,2.3,0.4c0.6,0.3,1,0.8,1.2,1.3l0,0v3.2c0,0.1-0.1,0.3-0.3,0.3c-0.1,0-0.3-0.1-0.3-0.3V3.6
		c0-0.3-0.3-0.5-0.8-0.8c-0.5-0.3-1.2-0.4-2.1-0.3l0,0l-9.9,0.6l9-0.8l0,0c0.9,0,1.7,0.1,2.2,0.3c0.5,0.3,0.9,0.6,0.9,1l0,0v3
		c0,0.1-0.1,0.1-0.1,0.1c-0.1,0-0.1-0.1-0.1-0.1v-3c0-0.4-0.3-0.6-0.8-0.8c-0.5-0.3-1.2-0.3-2.1-0.3L11.9,4
		c-0.6,0.1-1.2,0.3-1.5,0.4c-0.1,0-0.1,0.1-0.3,0.1C9.9,4.6,9.9,4.7,9.9,4.9l0,0C9.9,4.9,9.9,6.7,9.9,6.7z M9.9,13.3
		c0-0.1-0.1-0.3-0.3-0.3s-0.3,0.1-0.3,0.3V15l0,0c0,0.4,0.3,0.9,0.8,1.2c0.4,0.3,1,0.5,1.8,0.5l0,0l25.6,1.5l0,0
		c0.9,0,1.8-0.1,2.3-0.4c0.6-0.3,1-0.8,1.2-1.3l0,0v-3.2c0-0.1-0.1-0.3-0.3-0.3c-0.1,0-0.3,0.1-0.3,0.3v3.1c0,0.3-0.3,0.5-0.8,0.8
		c-0.5,0.3-1.2,0.4-2.1,0.3l0,0l-9.9-0.6l9.3,0.5l0,0c0.9,0,1.7-0.1,2.2-0.3c0.5-0.3,0.9-0.6,0.9-1l0,0v-3C40.2,13,40,13,40,13
		c-0.1,0-0.1,0.1-0.1,0.1v3c0,0.4-0.3,0.6-0.8,0.8c-0.8,0.4-1.4,0.5-2.3,0.5L11.9,16c-0.6-0.1-1.2-0.3-1.5-0.4
		c-0.1,0-0.1-0.1-0.3-0.1c-0.1-0.1-0.1-0.3-0.1-0.4l0,0C9.9,15.1,9.9,13.3,9.9,13.3z"/>
	<path class="st1" d="M10.7,11.7l0.1,0.5c-0.4,0.1-0.8,0.3-1.3,0.3c-0.8,0-1.3-0.3-1.8-0.6c-0.4-0.4-0.5-0.9-0.5-1.4
		c0-0.6,0.3-1.2,0.6-1.5c0.4-0.4,0.9-0.6,1.5-0.6s1,0.1,1.4,0.5c0.4,0.4,0.5,0.8,0.5,1.3c0,0.4-0.1,0.8-0.4,1
		c-0.3,0.3-0.5,0.4-0.9,0.4c-0.3,0-0.4,0-0.5-0.1c-0.1-0.1-0.1-0.1-0.1-0.3c0,0,0-0.1,0-0.3l0.1-0.4v-0.1c0-0.1-0.1-0.3-0.3-0.3
		c-0.1,0-0.1,0-0.3,0.1c-0.1,0.1-0.1,0.1-0.1,0.3c0,0.1,0,0.3,0.1,0.3h0.1l-0.3,0.8c-0.1,0-0.1,0-0.1,0c-0.3,0-0.4-0.1-0.5-0.3
		C8.1,11,8,10.9,8,10.6c0-0.4,0.1-0.6,0.4-0.9c0.3-0.3,0.5-0.4,0.9-0.4c0.3,0,0.5,0.1,0.6,0.3c0.1,0.1,0.3,0.3,0.3,0.5
		c0,0.1,0,0.1,0,0.3l-0.1,0.4v0.1V11c0,0.1,0,0.1,0.1,0.1c0.1,0,0.3-0.1,0.4-0.3c0.1-0.3,0.1-0.4,0.1-0.6c0-0.4-0.1-0.8-0.4-1
		C10.1,9,9.7,8.8,9.2,8.8C8.6,8.8,8.3,9,8,9.4c-0.3,0.4-0.5,0.8-0.5,1.3c0,0.4,0.1,0.8,0.4,1.2c0.3,0.4,0.8,0.5,1.4,0.5
		C9.9,11.9,10.3,11.8,10.7,11.7"/>
	<path class="st1" d="M44.4,9.2v3.1h-1.3V8.2h1.5c0.5,0,0.9,0.1,1.2,0.4c0.3,0.3,0.4,0.6,0.4,1s-0.1,0.8-0.5,1l0.8,1.7h-1.3
		l-0.6-1.4v-1h0.1c0.3,0,0.4-0.1,0.4-0.4s-0.1-0.3-0.4-0.3H44.4z"/>
	<path class="st1" d="M37.1,10.1v1.2h-0.4v1h-1.3V9.7c0-0.5,0.1-0.9,0.4-1.2c0.3-0.3,0.6-0.5,1.2-0.5s0.9,0.3,1.3,0.6l-1,0.8
		c0-0.1-0.1-0.3-0.3-0.3c-0.1,0-0.3,0.1-0.3,0.4v0.5C36.7,10.1,37.1,10.1,37.1,10.1z"/>
	<path class="st1" d="M31.7,12.3V9.6c0-0.5,0.1-0.9,0.4-1.2c0.3-0.3,0.6-0.4,1.2-0.4s0.8,0.1,1,0.4c0.3,0.3,0.4,0.6,0.4,1.2v2.7
		h-1.3V9.6c0-0.3-0.1-0.4-0.3-0.4C33,9.2,33,9.4,33,9.6v2.7H31.7z"/>
	<path class="st1" d="M27.6,10.1v1.2h-0.4v1h-1.3V9.6c0-0.5,0.1-0.9,0.4-1.2c0.3-0.3,0.6-0.4,1.2-0.4c0.5,0,0.9,0.1,1,0.4
		c0.3,0.3,0.4,0.6,0.4,1.2v2.7h-1.3V9.7c0-0.1,0-0.3,0-0.4c0,0-0.1-0.1-0.3-0.1C27,9.2,27,9.4,27,9.6v0.5H27.6z"/>
	<path class="st1" d="M24.1,10.3h1.3c-0.1,0.6-0.3,1.2-0.6,1.5c-0.4,0.4-0.9,0.5-1.5,0.5s-1.2-0.3-1.5-0.6S21,10.8,21,10.1
		c0-0.6,0.3-1.2,0.6-1.5c0.4-0.4,0.9-0.6,1.5-0.6s1.2,0.3,1.5,0.6c0.3,0.3,0.5,0.6,0.6,1.2l-1.3,0.1c-0.1-0.5-0.4-0.6-0.9-0.6
		c-0.3,0-0.5,0.1-0.6,0.3c-0.1,0.1-0.3,0.4-0.3,0.6c0,0.3,0.1,0.5,0.3,0.6c0.1,0.1,0.4,0.3,0.6,0.3s0.5-0.1,0.6-0.3
		C23.9,10.8,24.1,10.5,24.1,10.3"/>
	<path class="st1" d="M19.8,6.7c0.4,0,0.6,0.3,0.6,0.5s-0.3,0.5-0.6,0.5s-0.6-0.3-0.6-0.5S19.6,6.7,19.8,6.7 M20.5,8.1v4.1h-1.3V8.1
		H20.5z"/>
	<path class="st1" d="M18.4,8.1v4.1h-1.3V8.1H18.4z M17,9.6v1.2h-0.4v1.5h-1.3V8.2h1.3v1.4H17z"/>
	<polygon class="st1" points="14,9.4 14,12.3 12.8,12.3 12.8,9.4 11.9,9.4 11.9,8.1 14.9,8.1 14.9,9.4 	"/>
	<path class="st1" d="M2.3,12.3v-3c0-0.4,0.1-0.6,0.4-0.9s0.5-0.4,0.9-0.4s0.8,0.3,1,0.6c0.1-0.3,0.3-0.4,0.5-0.5
		c0.1-0.1,0.4-0.1,0.6-0.1c0.4,0,0.6,0.1,0.9,0.4C7,8.7,7,9,7,9.5v2.8H5.7V9.6c0-0.1,0-0.3,0-0.3L5.6,9.2c-0.1,0-0.1,0.1-0.1,0.3
		v2.7H4.1V9.6c0-0.1,0-0.3,0-0.3L4,9.2c-0.1,0-0.1,0.1-0.1,0.4v2.7H2.3z"/>
	<path class="st2" d="M30.9,8.1v4.1h-1.3V8.1H30.9z M30.4,6.7c0.4,0,0.6,0.3,0.6,0.5s-0.3,0.5-0.6,0.5c-0.4,0-0.6-0.3-0.6-0.5
		S30,6.7,30.4,6.7z"/>
	<path class="st2" d="M40.4,11.2c-0.3,0-0.5-0.1-0.6-0.3c-0.1-0.1-0.3-0.4-0.3-0.6s0.1-0.5,0.3-0.6c0.1-0.1,0.4-0.3,0.6-0.3
		s0.5,0.1,0.6,0.3c0.1,0.1,0.3,0.4,0.3,0.6s-0.1,0.5-0.3,0.6C40.8,11,40.7,11.2,40.4,11.2 M38.9,11.8c0.4,0.4,0.9,0.6,1.5,0.6
		s1.2-0.3,1.5-0.6s0.6-0.9,0.6-1.5S42.3,9.1,42,8.7c-0.4-0.4-0.9-0.6-1.5-0.6s-1.2,0.3-1.5,0.6c-0.4,0.4-0.6,0.9-0.6,1.5
		C38.2,10.8,38.4,11.3,38.9,11.8z"/>
</g>
</svg>
