<?xml version="1.0" encoding="utf-8"?>
<!-- Generator: Adobe Illustrator 24.0.2, SVG Export Plug-In . SVG Version: 6.00 Build 0)  -->
<svg version="1.1" id="Capa_1" xmlns="http://www.w3.org/2000/svg" xmlns:xlink="http://www.w3.org/1999/xlink" x="0px" y="0px"
	 viewBox="0 0 482.6 617" style="enable-background:new 0 0 482.6 617;" xml:space="preserve">
<style type="text/css">
	.st0{clip-path:url(#SVGID_2_);fill:none;stroke:#FFFFFF;stroke-width:0.5669;stroke-miterlimit:22.9256;}
	.st1{clip-path:url(#SVGID_2_);fill:none;stroke:#00FFFF;stroke-width:1.0213;stroke-miterlimit:22.9256;}
	.st2{clip-path:url(#SVGID_2_);fill:none;stroke:#00FFFF;stroke-width:1.0212;stroke-miterlimit:22.9256;}
	.st3{clip-path:url(#SVGID_2_);fill:none;stroke:#00FFFF;stroke-width:1.0214;stroke-miterlimit:22.9256;}
	.st4{clip-path:url(#SVGID_2_);fill:none;stroke:#00FFFF;stroke-width:1.0215;stroke-miterlimit:22.9256;}
	.st5{opacity:0.5;clip-path:url(#SVGID_2_);fill-rule:evenodd;clip-rule:evenodd;fill:#00FFFF;}
	.st6{clip-path:url(#SVGID_2_);fill:#FFFFFF;}
	.st7{clip-path:url(#SVGID_2_);fill-rule:evenodd;clip-rule:evenodd;fill:#FFFFFF;}
	.st8{clip-path:url(#SVGID_2_);fill:none;stroke:#FFFFFF;stroke-width:2.0426;stroke-miterlimit:22.9256;}
	.st9{clip-path:url(#SVGID_2_);fill:none;stroke:#FFFFFF;stroke-width:0.4513;stroke-miterlimit:22.9256;}
	.st10{clip-path:url(#SVGID_2_);fill-rule:evenodd;clip-rule:evenodd;fill:#808080;}
	.st11{clip-path:url(#SVGID_2_);fill:none;stroke:#00FF00;stroke-width:1.0997;stroke-miterlimit:22.9256;}
	.st12{clip-path:url(#SVGID_2_);fill:none;stroke:#000000;stroke-width:1.1025;stroke-miterlimit:22.9256;}
	.st13{clip-path:url(#SVGID_2_);fill:none;stroke:#000000;stroke-width:1.0992;stroke-miterlimit:22.9256;}
	.st14{clip-path:url(#SVGID_2_);fill:none;stroke:#000000;stroke-width:1.0998;stroke-miterlimit:22.9256;}
	.st15{clip-path:url(#SVGID_2_);fill:none;stroke:#000000;stroke-width:1.1038;stroke-miterlimit:22.9256;}
	.st16{clip-path:url(#SVGID_2_);fill:none;stroke:#000000;stroke-width:1.0931;stroke-miterlimit:22.9256;}
	.st17{clip-path:url(#SVGID_2_);fill:none;stroke:#000000;stroke-width:0.5978;stroke-miterlimit:22.9256;}
	.st18{clip-path:url(#SVGID_2_);fill:none;stroke:#000000;stroke-width:0.7113;stroke-miterlimit:22.9256;}
	.st19{clip-path:url(#SVGID_2_);fill:none;stroke:#000000;stroke-width:1.1018;stroke-miterlimit:22.9256;}
	.st20{clip-path:url(#SVGID_2_);fill:none;stroke:#000000;stroke-width:1.1068;stroke-miterlimit:22.9256;}
	.st21{clip-path:url(#SVGID_2_);fill:none;stroke:#000000;stroke-width:1.0677;stroke-miterlimit:22.9256;}
	.st22{clip-path:url(#SVGID_2_);fill-rule:evenodd;clip-rule:evenodd;fill:#FF0000;}
	.st23{clip-path:url(#SVGID_2_);fill:none;stroke:#000000;stroke-width:1.1007;stroke-miterlimit:22.9256;}
	.st24{clip-path:url(#SVGID_2_);fill:none;stroke:#000000;stroke-width:1.0854;stroke-miterlimit:22.9256;}
	.st25{clip-path:url(#SVGID_2_);fill:none;stroke:#000000;stroke-width:1.1028;stroke-miterlimit:22.9256;}
	.st26{clip-path:url(#SVGID_2_);fill:none;stroke:#000000;stroke-width:1.1008;stroke-miterlimit:22.9256;}
	.st27{clip-path:url(#SVGID_2_);fill:none;stroke:#00FFFF;stroke-width:1.1008;stroke-miterlimit:22.9256;}
	.st28{clip-path:url(#SVGID_2_);fill-rule:evenodd;clip-rule:evenodd;fill:#00B6B6;}
	.st29{clip-path:url(#SVGID_2_);fill-rule:evenodd;clip-rule:evenodd;fill:#E5E5E5;}
</style>
<g>
	<defs>
		<rect id="SVGID_1_" x="-1" y="1" width="482.6" height="617"/>
	</defs>
	<clipPath id="SVGID_2_">
		<use xlink:href="#SVGID_1_"  style="overflow:visible;"/>
	</clipPath>
	<path class="st0" d="M457,616.7h12l6.6-6.8v-12.2l4.7-4.9l0-193.8c0-5.9-6.8-7.5-6.8-11.9V231.8c0-4.4,6.8-6,6.8-11.9V26.2
		l-4.7-4.9l0-12.2L469,2.3h-12"/>
	<path class="st0" d="M23.5,616.7h-12L5,610v-12.2l-4.7-4.9l0-193.8c0-5.9,6.8-7.5,6.8-11.9V231.8c0-4.4-6.8-6-6.8-11.9V26.2L5,21.3
		L5,9l6.6-6.8h12"/>
	<path class="st1" d="M135,236.3h28.3l5.9,6.3h56.3v36h-33.7l-4.8,4.9h-10.5 M171.9,283.4h-10.6l-4.4-4.9H52.2v-36h30.8l7.2-6.3
		h23.7"/>
	<polyline class="st1" points="159.5,281.5 144.1,281.5 141.5,278.6 	"/>
	<polyline class="st1" points="189,281.5 217.3,281.5 219.9,278.6 	"/>
	<polyline class="st2" points="86,239.9 105.9,239.9 109.1,236.3 	"/>
	<polyline class="st2" points="225.6,246.2 205.7,246.2 202.5,242.6 	"/>
	<polyline class="st1" points="170.9,296.1 170.9,303 52.5,303 52.5,289.3 164.2,289.3 	"/>
	<polyline class="st1" points="195.5,303.1 212.4,303.1 231.6,283.5 231.6,246.5 	"/>
	<polyline class="st1" points="212.4,303.1 216.4,303.1 235.6,283.5 235.6,272 231.6,268.7 	"/>
	<polyline class="st1" points="228.2,277.9 228.2,281.2 224.9,281.2 	"/>
	<polyline class="st1" points="49.2,244.2 49.2,239.6 53.8,239.6 	"/>
	<line class="st1" x1="49.4" y1="219.3" x2="49.4" y2="221.7"/>
	<line class="st1" x1="49.4" y1="259.7" x2="49.4" y2="262.1"/>
	<line class="st3" x1="43.9" y1="220" x2="44.5" y2="222.3"/>
	<line class="st3" x1="54.3" y1="259" x2="55" y2="261.4"/>
	<line class="st3" x1="38.7" y1="222.1" x2="39.9" y2="224.2"/>
	<line class="st3" x1="58.9" y1="257.1" x2="60.2" y2="259.2"/>
	<line class="st4" x1="34.3" y1="225.5" x2="36" y2="227.2"/>
	<line class="st4" x1="62.8" y1="254.1" x2="64.6" y2="255.8"/>
	<line class="st3" x1="30.8" y1="229.9" x2="32.9" y2="231.2"/>
	<line class="st3" x1="65.8" y1="250.2" x2="67.9" y2="251.4"/>
	<line class="st3" x1="28.7" y1="235.1" x2="31.1" y2="235.7"/>
	<line class="st3" x1="67.7" y1="245.6" x2="70.1" y2="246.2"/>
	<line class="st1" x1="28" y1="240.7" x2="30.4" y2="240.7"/>
	<line class="st1" x1="68.4" y1="240.7" x2="70.8" y2="240.7"/>
	<line class="st3" x1="28.7" y1="246.2" x2="31.1" y2="245.6"/>
	<line class="st3" x1="67.8" y1="235.7" x2="70.1" y2="235.1"/>
	<line class="st3" x1="30.9" y1="251.4" x2="33" y2="250.2"/>
	<line class="st3" x1="65.9" y1="231.2" x2="68" y2="230"/>
	<line class="st4" x1="34.3" y1="255.8" x2="36" y2="254.1"/>
	<line class="st4" x1="62.8" y1="227.2" x2="64.6" y2="225.5"/>
	<line class="st3" x1="38.7" y1="259.2" x2="39.9" y2="257.1"/>
	<line class="st3" x1="58.9" y1="224.2" x2="60.1" y2="222.1"/>
	<line class="st3" x1="43.9" y1="261.4" x2="44.5" y2="259"/>
	<line class="st3" x1="54.3" y1="222.3" x2="54.9" y2="220"/>
	<line class="st2" x1="46.6" y1="219.5" x2="46.9" y2="221.9"/>
	<line class="st2" x1="51.9" y1="259.6" x2="52.2" y2="262"/>
	<line class="st3" x1="41.2" y1="220.9" x2="42.2" y2="223.1"/>
	<line class="st3" x1="56.7" y1="258.2" x2="57.6" y2="260.5"/>
	<line class="st1" x1="36.4" y1="223.7" x2="37.9" y2="225.6"/>
	<line class="st1" x1="61" y1="255.8" x2="62.5" y2="257.7"/>
	<line class="st1" x1="32.4" y1="227.6" x2="34.3" y2="229.1"/>
	<line class="st1" x1="64.4" y1="252.2" x2="66.4" y2="253.7"/>
	<line class="st3" x1="29.6" y1="232.5" x2="31.8" y2="233.4"/>
	<line class="st3" x1="66.9" y1="247.9" x2="69.2" y2="248.9"/>
	<line class="st2" x1="28.2" y1="237.9" x2="30.6" y2="238.2"/>
	<line class="st2" x1="68.3" y1="243.2" x2="70.7" y2="243.5"/>
	<line class="st2" x1="28.1" y1="243.5" x2="30.6" y2="243.2"/>
	<line class="st2" x1="68.2" y1="238.2" x2="70.6" y2="237.9"/>
	<line class="st3" x1="29.6" y1="248.9" x2="31.9" y2="247.9"/>
	<line class="st3" x1="67" y1="233.4" x2="69.2" y2="232.5"/>
	<line class="st1" x1="32.4" y1="253.7" x2="34.4" y2="252.3"/>
	<line class="st1" x1="64.5" y1="229.1" x2="66.4" y2="227.7"/>
	<line class="st1" x1="36.3" y1="257.7" x2="37.8" y2="255.8"/>
	<line class="st1" x1="60.9" y1="225.6" x2="62.4" y2="223.7"/>
	<line class="st3" x1="41.2" y1="260.5" x2="42.1" y2="258.2"/>
	<line class="st3" x1="56.7" y1="223.1" x2="57.6" y2="220.9"/>
	<line class="st2" x1="46.6" y1="262" x2="46.9" y2="259.6"/>
	<line class="st2" x1="51.9" y1="221.9" x2="52.2" y2="219.5"/>
	<path class="st5" d="M76.6,250.1h139.2c2.8,0,5,2.3,5,5v13.7c0,2.8-2.3,5-5,5H76.6c-2.8,0-5-2.3-5-5v-13.7
		C71.6,252.4,73.9,250.1,76.6,250.1"/>
	<path class="st6" d="M185.4,268.7v-12.1h1.9l5.1,8v-8h2.4v12.1h-1.9l-5.1-8v8H185.4z M177.9,255.7l1.4-2.3h1.9l-1.9,2.3H177.9z
		 M178.5,266.6c0.5,0,0.9-0.1,1.2-0.2c0.3-0.1,0.6-0.3,0.8-0.6c0.2-0.3,0.3-0.7,0.4-1.2c0.1-0.5,0.1-1.2,0.1-2c0-0.9,0-1.6-0.1-2.1
		c-0.1-0.5-0.2-0.9-0.4-1.2c-0.2-0.3-0.5-0.5-0.8-0.6c-0.3-0.1-0.7-0.1-1.2-0.1c-0.5,0-0.9,0-1.2,0.1c-0.3,0.1-0.6,0.3-0.8,0.6
		c-0.2,0.3-0.3,0.7-0.4,1.2c-0.1,0.5-0.1,1.2-0.1,2.1c0,0.8,0,1.5,0.1,2c0.1,0.5,0.2,0.9,0.4,1.2c0.2,0.3,0.5,0.5,0.8,0.6
		C177.6,266.6,178,266.6,178.5,266.6z M178.5,268.8c-0.8,0-1.6-0.1-2.2-0.2c-0.6-0.2-1.1-0.5-1.6-0.9c-0.4-0.4-0.7-1.1-0.9-1.9
		c-0.2-0.8-0.3-1.9-0.3-3.2s0.1-2.4,0.3-3.2c0.2-0.8,0.5-1.4,0.9-1.9c0.4-0.4,0.9-0.7,1.6-0.9c0.6-0.2,1.3-0.2,2.2-0.2
		s1.6,0.1,2.2,0.2c0.6,0.2,1.1,0.5,1.6,0.9c0.4,0.4,0.7,1.1,0.9,1.9c0.2,0.8,0.3,1.9,0.3,3.2s-0.1,2.4-0.3,3.2
		c-0.2,0.8-0.5,1.4-0.9,1.9c-0.4,0.4-0.9,0.7-1.6,0.9C180.1,268.7,179.4,268.8,178.5,268.8z M169.3,268.7v-12.1h2.4v12.1H169.3z
		 M163.8,268.8c-0.7,0-1.3-0.1-1.9-0.2c-0.5-0.2-1-0.5-1.4-0.9c-0.4-0.4-0.7-1.1-0.9-1.9c-0.2-0.8-0.3-1.9-0.3-3.2
		c0-1.3,0.1-2.3,0.3-3.1c0.2-0.8,0.5-1.4,0.9-1.9c0.4-0.4,0.8-0.8,1.4-0.9c0.5-0.2,1.2-0.3,1.9-0.3c0.5,0,1.1,0,1.5,0.1
		c0.5,0.1,0.9,0.1,1.3,0.2c0.4,0.1,0.7,0.2,1,0.3v1.9c-0.2,0-0.5-0.1-0.8-0.1c-0.3,0-0.7-0.1-1.1-0.1c-0.4,0-0.9,0-1.3,0
		c-0.5,0-0.8,0.1-1.2,0.2c-0.3,0.1-0.6,0.3-0.8,0.6c-0.2,0.3-0.3,0.7-0.4,1.2c-0.1,0.5-0.1,1.2-0.1,2c0,0.8,0,1.5,0.1,2
		c0.1,0.5,0.2,0.9,0.4,1.2c0.2,0.3,0.4,0.5,0.8,0.6c0.3,0.1,0.7,0.2,1.2,0.2c0.8,0,1.5,0,2,0c0.5,0,0.9-0.1,1.3-0.1v1.9
		c-0.3,0.1-0.6,0.2-1,0.3c-0.4,0.1-0.8,0.1-1.3,0.2C164.9,268.8,164.4,268.8,163.8,268.8z M151.7,264h3l-1.5-5.3L151.7,264z
		 M147.9,268.7l3.8-12.1h3.1l3.8,12.1H156l-0.8-2.5h-4.1l-0.8,2.5H147.9z M140.8,262.3h2.2c0.2,0,0.4,0,0.6-0.1
		c0.2-0.1,0.3-0.2,0.5-0.3c0.1-0.1,0.2-0.3,0.3-0.5c0.1-0.2,0.1-0.5,0.1-0.9c0-0.3,0-0.6-0.1-0.8c-0.1-0.2-0.2-0.4-0.3-0.5
		c-0.1-0.1-0.3-0.2-0.5-0.3c-0.2,0-0.4-0.1-0.6-0.1h-2.2V262.3z M138.4,268.7v-12.1h5c0.5,0,0.9,0.1,1.3,0.2
		c0.4,0.1,0.8,0.3,1.1,0.6c0.3,0.3,0.6,0.7,0.7,1.2c0.2,0.5,0.3,1.1,0.3,1.9c0,0.6-0.1,1-0.2,1.4c-0.1,0.4-0.3,0.7-0.4,1
		c-0.2,0.3-0.4,0.5-0.6,0.6c-0.2,0.2-0.5,0.3-0.7,0.4l2.3,4.9h-2.5l-1.9-4.5c-0.1,0-0.3,0-0.5,0c-0.2,0-0.3,0-0.5,0
		c-0.2,0-0.3,0-0.5,0c-0.2,0-0.3,0-0.5,0v4.5H138.4z M130.2,264h3l-1.5-5.3L130.2,264z M126.4,268.7l3.8-12.1h3.1l3.8,12.1h-2.5
		l-0.8-2.5h-4.1l-0.8,2.5H126.4z M120.3,262.8h2.4c0.3,0,0.5-0.1,0.7-0.2c0.2-0.1,0.4-0.4,0.5-0.7c0.1-0.3,0.1-0.7,0.1-1.2
		c0-0.5-0.1-0.9-0.2-1.2c-0.1-0.3-0.3-0.5-0.4-0.6c-0.2-0.1-0.4-0.2-0.7-0.2h-2.5V262.8z M117.9,268.7v-12.1h5.1
		c0.4,0,0.8,0,1.2,0.1c0.4,0.1,0.8,0.3,1.1,0.6c0.3,0.3,0.6,0.7,0.8,1.3c0.2,0.6,0.3,1.3,0.3,2.2s-0.1,1.7-0.3,2.2
		c-0.2,0.6-0.5,1-0.8,1.3c-0.3,0.3-0.7,0.5-1.1,0.6c-0.4,0.1-0.8,0.1-1.1,0.1c-0.2,0-0.4,0-0.7,0c-0.3,0-0.5,0-0.8-0.1
		c-0.3,0-0.5-0.1-0.7-0.1c-0.2,0-0.4-0.1-0.6-0.1v4H117.9z M111.1,268.8c-0.3,0-0.6,0-0.9-0.1c-0.3,0-0.7-0.2-1-0.3
		c-0.3-0.2-0.6-0.4-0.8-0.8c-0.2-0.4-0.3-0.8-0.3-1.5v-6.8c0-0.5,0.1-1,0.2-1.3c0.2-0.4,0.4-0.6,0.7-0.9c0.3-0.2,0.6-0.4,0.9-0.4
		c0.3-0.1,0.6-0.1,1-0.1c0.8,0,1.5,0,2.2,0c0.6,0,1.2,0,1.7,0.1c0.5,0,1,0.1,1.4,0.1v2h-4.5c-0.3,0-0.6,0.1-0.8,0.2
		c-0.2,0.2-0.3,0.4-0.3,0.8v1.8l4.8,0.1v1.9l-4.8,0.1v1.7c0,0.3,0,0.5,0.1,0.7c0.1,0.2,0.2,0.3,0.4,0.3c0.2,0.1,0.3,0.1,0.5,0.1h4.6
		v2c-0.5,0.1-1,0.1-1.6,0.1c-0.6,0-1.2,0.1-1.8,0.1C112.2,268.8,111.6,268.8,111.1,268.8z M100.3,262.3h2.2c0.2,0,0.4,0,0.6-0.1
		c0.2-0.1,0.3-0.2,0.5-0.3c0.1-0.1,0.2-0.3,0.3-0.5c0.1-0.2,0.1-0.5,0.1-0.9c0-0.3,0-0.6-0.1-0.8c-0.1-0.2-0.2-0.4-0.3-0.5
		c-0.1-0.1-0.3-0.2-0.5-0.3c-0.2,0-0.4-0.1-0.6-0.1h-2.2V262.3z M97.9,268.7v-12.1h5c0.5,0,0.9,0.1,1.3,0.2c0.4,0.1,0.8,0.3,1.1,0.6
		c0.3,0.3,0.6,0.7,0.7,1.2c0.2,0.5,0.3,1.1,0.3,1.9c0,0.6-0.1,1-0.2,1.4c-0.1,0.4-0.3,0.7-0.4,1c-0.2,0.3-0.4,0.5-0.6,0.6
		c-0.2,0.2-0.5,0.3-0.7,0.4l2.3,4.9h-2.5l-1.9-4.5c-0.1,0-0.3,0-0.5,0c-0.2,0-0.3,0-0.5,0s-0.3,0-0.5,0c-0.2,0-0.3,0-0.5,0v4.5H97.9
		z"/>
	<path class="st7" d="M191.4,303.1c0-0.7,0.5-1.2,1.2-1.2c0.7,0,1.2,0.5,1.2,1.2c0,0.7-0.5,1.2-1.2,1.2
		C191.9,304.3,191.4,303.8,191.4,303.1"/>
	<path class="st7" d="M227.7,245.3h2c0.1,0,0.2,0.1,0.2,0.2v2c0,0.1-0.1,0.2-0.2,0.2h-2c-0.1,0-0.2-0.1-0.2-0.2v-2
		C227.5,245.4,227.6,245.3,227.7,245.3"/>
	<path class="st7" d="M227.7,248.8h2c0.1,0,0.2,0.1,0.2,0.2v2c0,0.1-0.1,0.2-0.2,0.2h-2c-0.1,0-0.2-0.1-0.2-0.2v-2
		C227.5,248.9,227.6,248.8,227.7,248.8"/>
	<path class="st7" d="M227.7,252.3h2c0.1,0,0.2,0.1,0.2,0.2v2c0,0.1-0.1,0.2-0.2,0.2h-2c-0.1,0-0.2-0.1-0.2-0.2v-2
		C227.5,252.4,227.6,252.3,227.7,252.3"/>
	<path class="st7" d="M227.7,255.8h2c0.1,0,0.2,0.1,0.2,0.2v2c0,0.1-0.1,0.2-0.2,0.2h-2c-0.1,0-0.2-0.1-0.2-0.2v-2
		C227.5,255.9,227.6,255.8,227.7,255.8"/>
	<path class="st7" d="M227.7,259.3h2c0.1,0,0.2,0.1,0.2,0.2v2c0,0.1-0.1,0.2-0.2,0.2h-2c-0.1,0-0.2-0.1-0.2-0.2v-2
		C227.5,259.4,227.6,259.3,227.7,259.3"/>
	<path class="st7" d="M175.4,283.4c0-0.7,0.5-1.2,1.2-1.2c0.7,0,1.2,0.5,1.2,1.2c0,0.7-0.5,1.2-1.2,1.2
		C176,284.6,175.4,284.1,175.4,283.4"/>
	<path class="st7" d="M170.6,283.4c0-0.7,0.5-1.2,1.2-1.2c0.7,0,1.2,0.5,1.2,1.2c0,0.7-0.5,1.2-1.2,1.2
		C171.2,284.6,170.6,284.1,170.6,283.4"/>
	<polyline class="st3" points="67.2,275.6 70.1,278.5 67.2,281.5 	"/>
	<polyline class="st3" points="64.2,275.6 67.2,278.5 64.2,281.5 	"/>
	<polyline class="st3" points="61.3,275.6 64.2,278.5 61.3,281.5 	"/>
	<polyline class="st3" points="58.4,275.6 61.3,278.5 58.4,281.5 	"/>
	<path class="st7" d="M50.1,276.1h4.1c0.2,0,0.4,0.2,0.4,0.4v4.1c0,0.2-0.2,0.4-0.4,0.4h-4.1c-0.2,0-0.4-0.2-0.4-0.4v-4.1
		C49.7,276.3,49.9,276.1,50.1,276.1"/>
	<path class="st7" d="M192.3,242.6c0-0.7,0.5-1.2,1.2-1.2c0.7,0,1.2,0.5,1.2,1.2s-0.5,1.2-1.2,1.2
		C192.8,243.8,192.3,243.2,192.3,242.6"/>
	<line class="st8" x1="193.2" y1="281.5" x2="215.9" y2="281.5"/>
	<polyline class="st8" points="140.9,236.3 163.3,236.3 169.2,242.6 	"/>
	<path class="st7" d="M133.8,236.3c0-0.7,0.5-1.2,1.2-1.2c0.7,0,1.2,0.5,1.2,1.2c0,0.7-0.5,1.2-1.2,1.2
		C134.3,237.5,133.8,237,133.8,236.3"/>
	<path class="st7" d="M112.6,236.3c0-0.7,0.5-1.2,1.2-1.2c0.7,0,1.2,0.5,1.2,1.2c0,0.7-0.5,1.2-1.2,1.2
		C113.1,237.5,112.6,237,112.6,236.3"/>
	<path class="st7" d="M85.3,275.2h1.4c0.1,0,0.1,0.1,0.1,0.1v1.4c0,0.1-0.1,0.1-0.1,0.1h-1.4c-0.1,0-0.1-0.1-0.1-0.1v-1.4
		C85.2,275.3,85.2,275.2,85.3,275.2"/>
	<path class="st7" d="M85.3,291h1.4c0.1,0,0.1,0.1,0.1,0.1v1.4c0,0.1-0.1,0.1-0.1,0.1h-1.4c-0.1,0-0.1-0.1-0.1-0.1v-1.4
		C85.2,291,85.2,291,85.3,291"/>
	<rect x="85.4" y="276.1" class="st9" width="1.2" height="15.7"/>
	<path class="st7" d="M93,275.2h1.4c0.1,0,0.1,0.1,0.1,0.1v1.4c0,0.1-0.1,0.1-0.1,0.1H93c-0.1,0-0.1-0.1-0.1-0.1v-1.4
		C92.9,275.3,93,275.2,93,275.2"/>
	<path class="st7" d="M93,291h1.4c0.1,0,0.1,0.1,0.1,0.1v1.4c0,0.1-0.1,0.1-0.1,0.1H93c-0.1,0-0.1-0.1-0.1-0.1v-1.4
		C92.9,291,93,291,93,291"/>
	<rect x="93.2" y="276.1" class="st9" width="1.2" height="15.7"/>
	<path class="st7" d="M100.8,275.2h1.4c0.1,0,0.1,0.1,0.1,0.1v1.4c0,0.1-0.1,0.1-0.1,0.1h-1.4c-0.1,0-0.1-0.1-0.1-0.1v-1.4
		C100.7,275.3,100.7,275.2,100.8,275.2"/>
	<path class="st7" d="M100.8,291h1.4c0.1,0,0.1,0.1,0.1,0.1v1.4c0,0.1-0.1,0.1-0.1,0.1h-1.4c-0.1,0-0.1-0.1-0.1-0.1v-1.4
		C100.7,291,100.7,291,100.8,291"/>
	<rect x="100.9" y="276.1" class="st9" width="1.2" height="15.7"/>
	<path class="st7" d="M108.5,275.2h1.4c0.1,0,0.1,0.1,0.1,0.1v1.4c0,0.1-0.1,0.1-0.1,0.1h-1.4c-0.1,0-0.1-0.1-0.1-0.1v-1.4
		C108.4,275.3,108.5,275.2,108.5,275.2"/>
	<path class="st7" d="M108.5,291h1.4c0.1,0,0.1,0.1,0.1,0.1v1.4c0,0.1-0.1,0.1-0.1,0.1h-1.4c-0.1,0-0.1-0.1-0.1-0.1v-1.4
		C108.4,291,108.5,291,108.5,291"/>
	<rect x="108.7" y="276.1" class="st9" width="1.2" height="15.7"/>
	<path class="st1" d="M135,424.2h28.3l5.9,6.3h56.3v36h-33.7l-4.8,4.9h-10.5 M171.9,471.3h-10.6l-4.4-4.9H52.2v-36h30.8l7.2-6.3
		h23.7"/>
	<polyline class="st1" points="159.5,469.4 144.1,469.4 141.5,466.5 	"/>
	<polyline class="st1" points="189,469.4 217.3,469.4 219.9,466.5 	"/>
	<polyline class="st2" points="86,427.8 105.9,427.8 109.1,424.2 	"/>
	<polyline class="st2" points="225.6,434.1 205.7,434.1 202.5,430.5 	"/>
	<polyline class="st1" points="170.9,484 170.9,490.9 52.5,490.9 52.5,477.2 164.2,477.2 	"/>
	<polyline class="st1" points="195.5,491 212.4,491 231.6,471.4 231.6,434.4 	"/>
	<polyline class="st1" points="212.4,491 216.4,491 235.6,471.4 235.6,459.8 231.6,456.6 	"/>
	<polyline class="st1" points="228.2,465.8 228.2,469.1 224.9,469.1 	"/>
	<polyline class="st1" points="49.2,432.1 49.2,427.5 53.8,427.5 	"/>
	<line class="st1" x1="49.4" y1="407.2" x2="49.4" y2="409.6"/>
	<line class="st1" x1="49.4" y1="447.6" x2="49.4" y2="450"/>
	<line class="st3" x1="43.9" y1="407.9" x2="44.5" y2="410.2"/>
	<line class="st3" x1="54.3" y1="446.9" x2="55" y2="449.3"/>
	<line class="st3" x1="38.7" y1="410" x2="39.9" y2="412.1"/>
	<line class="st3" x1="58.9" y1="445" x2="60.1" y2="447.1"/>
	<line class="st4" x1="34.3" y1="413.4" x2="36" y2="415.1"/>
	<line class="st4" x1="62.8" y1="442" x2="64.6" y2="443.7"/>
	<line class="st3" x1="30.8" y1="417.9" x2="33" y2="419.1"/>
	<line class="st3" x1="65.8" y1="438.1" x2="68" y2="439.3"/>
	<line class="st3" x1="28.7" y1="423" x2="31.1" y2="423.6"/>
	<line class="st3" x1="67.8" y1="433.5" x2="70.1" y2="434.1"/>
	<line class="st1" x1="28" y1="428.6" x2="30.4" y2="428.6"/>
	<line class="st1" x1="68.4" y1="428.6" x2="70.8" y2="428.6"/>
	<line class="st3" x1="28.7" y1="434.1" x2="31.1" y2="433.5"/>
	<line class="st3" x1="67.8" y1="423.7" x2="70.1" y2="423"/>
	<line class="st3" x1="30.9" y1="439.3" x2="33" y2="438.1"/>
	<line class="st3" x1="65.9" y1="419.1" x2="68" y2="417.9"/>
	<line class="st4" x1="34.3" y1="443.7" x2="36" y2="442"/>
	<line class="st4" x1="62.8" y1="415.1" x2="64.6" y2="413.4"/>
	<line class="st3" x1="38.7" y1="447.1" x2="39.9" y2="445"/>
	<line class="st3" x1="58.9" y1="412.1" x2="60.1" y2="410"/>
	<line class="st3" x1="43.9" y1="449.3" x2="44.5" y2="446.9"/>
	<line class="st3" x1="54.3" y1="410.2" x2="55" y2="407.9"/>
	<line class="st2" x1="46.6" y1="407.4" x2="46.9" y2="409.8"/>
	<line class="st2" x1="51.9" y1="447.4" x2="52.2" y2="449.8"/>
	<line class="st3" x1="41.2" y1="408.8" x2="42.2" y2="411"/>
	<line class="st3" x1="56.7" y1="446.1" x2="57.6" y2="448.4"/>
	<line class="st1" x1="36.4" y1="411.6" x2="37.9" y2="413.5"/>
	<line class="st1" x1="61" y1="443.7" x2="62.5" y2="445.6"/>
	<line class="st1" x1="32.4" y1="415.5" x2="34.3" y2="417"/>
	<line class="st1" x1="64.5" y1="440.1" x2="66.4" y2="441.6"/>
	<line class="st3" x1="29.6" y1="420.4" x2="31.9" y2="421.3"/>
	<line class="st3" x1="66.9" y1="435.8" x2="69.2" y2="436.8"/>
	<line class="st2" x1="28.2" y1="425.8" x2="30.6" y2="426.1"/>
	<line class="st2" x1="68.2" y1="431.1" x2="70.7" y2="431.4"/>
	<line class="st2" x1="28.1" y1="431.4" x2="30.6" y2="431.1"/>
	<line class="st2" x1="68.2" y1="426.1" x2="70.6" y2="425.8"/>
	<line class="st3" x1="29.6" y1="436.8" x2="31.9" y2="435.8"/>
	<line class="st3" x1="67" y1="421.3" x2="69.2" y2="420.4"/>
	<line class="st1" x1="32.4" y1="441.6" x2="34.4" y2="440.1"/>
	<line class="st1" x1="64.5" y1="417" x2="66.4" y2="415.5"/>
	<line class="st1" x1="36.3" y1="445.6" x2="37.8" y2="443.6"/>
	<line class="st1" x1="61" y1="413.5" x2="62.4" y2="411.6"/>
	<line class="st3" x1="41.2" y1="448.4" x2="42.1" y2="446.1"/>
	<line class="st3" x1="56.7" y1="411" x2="57.6" y2="408.8"/>
	<line class="st2" x1="46.6" y1="449.8" x2="46.9" y2="447.4"/>
	<line class="st2" x1="51.9" y1="409.8" x2="52.2" y2="407.4"/>
	<path class="st5" d="M76.6,438h139.2c2.8,0,5,2.3,5,5v13.7c0,2.8-2.3,5-5,5H76.6c-2.8,0-5-2.3-5-5V443
		C71.6,440.3,73.9,438,76.6,438"/>
	<path class="st6" d="M142.5,456.7c-0.3,0-0.6,0-1,0c-0.3,0-0.7,0-1-0.1c-0.3,0-0.7-0.1-1-0.1c-0.3,0-0.6-0.1-0.8-0.2v-1.9
		c0.3,0,0.7,0.1,1.1,0.1c0.4,0,0.8,0,1.3,0c0.4,0,0.9,0,1.3,0c0.4,0,0.8,0,1.1-0.1c0.3-0.1,0.5-0.2,0.7-0.4c0.2-0.2,0.2-0.4,0.2-0.7
		v-0.4c0-0.4-0.1-0.6-0.3-0.8c-0.2-0.2-0.5-0.3-0.9-0.3h-1c-1.2,0-2-0.3-2.7-0.8c-0.6-0.5-0.9-1.4-0.9-2.6v-0.6c0-1.2,0.3-2,1-2.6
		c0.7-0.5,1.6-0.8,2.9-0.8c0.4,0,0.9,0,1.3,0.1c0.4,0,0.9,0.1,1.3,0.2c0.4,0.1,0.8,0.1,1.1,0.2v1.9c-0.5,0-1.1-0.1-1.7-0.1
		c-0.6,0-1.2,0-1.7,0c-0.4,0-0.7,0-1,0.1c-0.3,0.1-0.5,0.2-0.7,0.4c-0.2,0.2-0.2,0.5-0.2,0.8v0.3c0,0.4,0.1,0.7,0.4,0.9
		c0.2,0.2,0.6,0.3,1.1,0.3h1.2c0.7,0,1.3,0.1,1.8,0.4c0.5,0.3,0.8,0.6,1.1,1.1c0.2,0.5,0.4,1,0.4,1.6v0.7c0,0.9-0.2,1.7-0.5,2.2
		c-0.4,0.5-0.8,0.8-1.5,1C144.1,456.6,143.3,456.7,142.5,456.7 M132,456.7c-0.3,0-0.6,0-0.9-0.1c-0.3,0-0.7-0.2-1-0.3
		c-0.3-0.2-0.6-0.4-0.8-0.8c-0.2-0.4-0.3-0.8-0.3-1.5v-6.8c0-0.5,0.1-1,0.2-1.3c0.2-0.4,0.4-0.6,0.7-0.9c0.3-0.2,0.6-0.4,0.9-0.4
		c0.3-0.1,0.6-0.1,1-0.1c0.8,0,1.5,0,2.2,0c0.6,0,1.2,0,1.7,0.1c0.5,0,1,0.1,1.4,0.1v2h-4.5c-0.3,0-0.6,0.1-0.8,0.2
		c-0.2,0.2-0.3,0.4-0.3,0.8v1.8l4.8,0.1v1.9l-4.8,0.1v1.7c0,0.3,0,0.5,0.1,0.7c0.1,0.2,0.2,0.3,0.4,0.3c0.2,0.1,0.3,0.1,0.5,0.1h4.6
		v2c-0.5,0.1-1,0.1-1.6,0.1c-0.6,0-1.2,0.1-1.8,0.1S132.5,456.7,132,456.7z M120.3,454.4h2.5c0.5,0,0.9-0.1,1.2-0.4
		c0.3-0.3,0.5-0.7,0.6-1.3c0.1-0.6,0.2-1.3,0.2-2.1c0-0.8,0-1.4-0.1-1.9c-0.1-0.5-0.2-0.9-0.4-1.2c-0.2-0.3-0.4-0.5-0.6-0.6
		c-0.3-0.1-0.6-0.2-0.9-0.2h-2.5V454.4z M117.9,456.6v-12.1h5.1c0.8,0,1.5,0.1,2,0.4c0.5,0.3,1,0.7,1.3,1.2c0.3,0.5,0.5,1.2,0.7,1.9
		c0.1,0.7,0.2,1.6,0.2,2.5c0,1.4-0.2,2.5-0.5,3.4c-0.3,0.9-0.8,1.6-1.4,2c-0.6,0.4-1.4,0.7-2.4,0.7H117.9z M111.1,456.7
		c-0.3,0-0.6,0-0.9-0.1c-0.3,0-0.7-0.2-1-0.3c-0.3-0.2-0.6-0.4-0.8-0.8c-0.2-0.4-0.3-0.8-0.3-1.5v-6.8c0-0.5,0.1-1,0.2-1.3
		c0.2-0.4,0.4-0.6,0.7-0.9c0.3-0.2,0.6-0.4,0.9-0.4c0.3-0.1,0.6-0.1,1-0.1c0.8,0,1.5,0,2.2,0c0.6,0,1.2,0,1.7,0.1
		c0.5,0,1,0.1,1.4,0.1v2h-4.5c-0.3,0-0.6,0.1-0.8,0.2c-0.2,0.2-0.3,0.4-0.3,0.8v1.8l4.8,0.1v1.9l-4.8,0.1v1.7c0,0.3,0,0.5,0.1,0.7
		c0.1,0.2,0.2,0.3,0.4,0.3c0.2,0.1,0.3,0.1,0.5,0.1h4.6v2c-0.5,0.1-1,0.1-1.6,0.1c-0.6,0-1.2,0.1-1.8,0.1
		C112.2,456.7,111.6,456.7,111.1,456.7z M100.3,450.2h2.2c0.2,0,0.4,0,0.6-0.1c0.2-0.1,0.3-0.2,0.5-0.3c0.1-0.1,0.2-0.3,0.3-0.5
		c0.1-0.2,0.1-0.5,0.1-0.9c0-0.3,0-0.6-0.1-0.8c-0.1-0.2-0.2-0.4-0.3-0.5c-0.1-0.1-0.3-0.2-0.5-0.3c-0.2,0-0.4-0.1-0.6-0.1h-2.2
		V450.2z M97.9,456.6v-12.1h5c0.5,0,0.9,0.1,1.3,0.2c0.4,0.1,0.8,0.3,1.1,0.6c0.3,0.3,0.6,0.7,0.7,1.2c0.2,0.5,0.3,1.1,0.3,1.9
		c0,0.6-0.1,1-0.2,1.4c-0.1,0.4-0.3,0.7-0.4,1c-0.2,0.3-0.4,0.5-0.6,0.6c-0.2,0.2-0.5,0.3-0.7,0.4l2.3,4.9h-2.5l-1.9-4.5
		c-0.1,0-0.3,0-0.5,0c-0.2,0-0.3,0-0.5,0s-0.3,0-0.5,0c-0.2,0-0.3,0-0.5,0v4.5H97.9z"/>
	<path class="st7" d="M191.4,491c0-0.7,0.5-1.2,1.2-1.2c0.7,0,1.2,0.5,1.2,1.2s-0.5,1.2-1.2,1.2C191.9,492.2,191.4,491.7,191.4,491"
		/>
	<path class="st7" d="M227.7,433.2h2c0.1,0,0.2,0.1,0.2,0.2v2c0,0.1-0.1,0.2-0.2,0.2h-2c-0.1,0-0.2-0.1-0.2-0.2v-2
		C227.5,433.3,227.6,433.2,227.7,433.2"/>
	<path class="st7" d="M227.7,436.7h2c0.1,0,0.2,0.1,0.2,0.2v2c0,0.1-0.1,0.2-0.2,0.2h-2c-0.1,0-0.2-0.1-0.2-0.2v-2
		C227.5,436.8,227.6,436.7,227.7,436.7"/>
	<path class="st7" d="M227.7,440.2h2c0.1,0,0.2,0.1,0.2,0.2v2c0,0.1-0.1,0.2-0.2,0.2h-2c-0.1,0-0.2-0.1-0.2-0.2v-2
		C227.5,440.3,227.6,440.2,227.7,440.2"/>
	<path class="st7" d="M227.7,443.7h2c0.1,0,0.2,0.1,0.2,0.2v2c0,0.1-0.1,0.2-0.2,0.2h-2c-0.1,0-0.2-0.1-0.2-0.2v-2
		C227.5,443.8,227.6,443.7,227.7,443.7"/>
	<path class="st7" d="M227.7,447.2h2c0.1,0,0.2,0.1,0.2,0.2v2c0,0.1-0.1,0.2-0.2,0.2h-2c-0.1,0-0.2-0.1-0.2-0.2v-2
		C227.5,447.3,227.6,447.2,227.7,447.2"/>
	<path class="st7" d="M175.4,471.3c0-0.7,0.5-1.2,1.2-1.2c0.7,0,1.2,0.5,1.2,1.2c0,0.7-0.5,1.2-1.2,1.2
		C176,472.5,175.4,472,175.4,471.3"/>
	<path class="st7" d="M170.6,471.3c0-0.7,0.5-1.2,1.2-1.2c0.7,0,1.2,0.5,1.2,1.2c0,0.7-0.5,1.2-1.2,1.2
		C171.2,472.5,170.6,472,170.6,471.3"/>
	<polyline class="st3" points="67.2,463.5 70.1,466.4 67.2,469.4 	"/>
	<polyline class="st3" points="64.2,463.5 67.2,466.4 64.2,469.4 	"/>
	<polyline class="st3" points="61.3,463.5 64.2,466.4 61.3,469.4 	"/>
	<polyline class="st3" points="58.4,463.5 61.3,466.4 58.4,469.4 	"/>
	<path class="st7" d="M50.1,464h4.1c0.2,0,0.4,0.2,0.4,0.4v4.1c0,0.2-0.2,0.4-0.4,0.4h-4.1c-0.2,0-0.4-0.2-0.4-0.4v-4.1
		C49.7,464.2,49.9,464,50.1,464"/>
	<path class="st7" d="M192.3,430.5c0-0.7,0.5-1.2,1.2-1.2c0.7,0,1.2,0.5,1.2,1.2c0,0.7-0.5,1.2-1.2,1.2
		C192.8,431.7,192.3,431.1,192.3,430.5"/>
	<line class="st8" x1="193.2" y1="469.4" x2="215.9" y2="469.4"/>
	<polyline class="st8" points="140.9,424.2 163.3,424.2 169.2,430.5 	"/>
	<path class="st7" d="M133.8,424.2c0-0.7,0.5-1.2,1.2-1.2c0.7,0,1.2,0.5,1.2,1.2c0,0.7-0.5,1.2-1.2,1.2
		C134.3,425.4,133.8,424.9,133.8,424.2"/>
	<path class="st7" d="M112.6,424.2c0-0.7,0.5-1.2,1.2-1.2c0.7,0,1.2,0.5,1.2,1.2c0,0.7-0.5,1.2-1.2,1.2
		C113.1,425.4,112.6,424.9,112.6,424.2"/>
	<path class="st7" d="M85.3,463.1h1.4c0.1,0,0.1,0.1,0.1,0.1v1.4c0,0.1-0.1,0.1-0.1,0.1h-1.4c-0.1,0-0.1-0.1-0.1-0.1v-1.4
		C85.2,463.2,85.2,463.1,85.3,463.1"/>
	<path class="st7" d="M85.3,478.9h1.4c0.1,0,0.1,0.1,0.1,0.1v1.4c0,0.1-0.1,0.1-0.1,0.1h-1.4c-0.1,0-0.1-0.1-0.1-0.1V479
		C85.2,478.9,85.2,478.9,85.3,478.9"/>
	<rect x="85.4" y="464" class="st9" width="1.2" height="15.7"/>
	<path class="st7" d="M93,463.1h1.4c0.1,0,0.1,0.1,0.1,0.1v1.4c0,0.1-0.1,0.1-0.1,0.1H93c-0.1,0-0.1-0.1-0.1-0.1v-1.4
		C92.9,463.2,93,463.1,93,463.1"/>
	<path class="st7" d="M93,478.9h1.4c0.1,0,0.1,0.1,0.1,0.1v1.4c0,0.1-0.1,0.1-0.1,0.1H93c-0.1,0-0.1-0.1-0.1-0.1V479
		C92.9,478.9,93,478.9,93,478.9"/>
	<rect x="93.2" y="464" class="st9" width="1.2" height="15.7"/>
	<path class="st7" d="M100.8,463.1h1.4c0.1,0,0.1,0.1,0.1,0.1v1.4c0,0.1-0.1,0.1-0.1,0.1h-1.4c-0.1,0-0.1-0.1-0.1-0.1v-1.4
		C100.7,463.2,100.7,463.1,100.8,463.1"/>
	<path class="st7" d="M100.8,478.9h1.4c0.1,0,0.1,0.1,0.1,0.1v1.4c0,0.1-0.1,0.1-0.1,0.1h-1.4c-0.1,0-0.1-0.1-0.1-0.1V479
		C100.7,478.9,100.7,478.9,100.8,478.9"/>
	<rect x="100.9" y="464" class="st9" width="1.2" height="15.7"/>
	<path class="st7" d="M108.5,463.1h1.4c0.1,0,0.1,0.1,0.1,0.1v1.4c0,0.1-0.1,0.1-0.1,0.1h-1.4c-0.1,0-0.1-0.1-0.1-0.1v-1.4
		C108.4,463.2,108.5,463.1,108.5,463.1"/>
	<path class="st7" d="M108.5,478.9h1.4c0.1,0,0.1,0.1,0.1,0.1v1.4c0,0.1-0.1,0.1-0.1,0.1h-1.4c-0.1,0-0.1-0.1-0.1-0.1V479
		C108.4,478.9,108.5,478.9,108.5,478.9"/>
	<rect x="108.7" y="464" class="st9" width="1.2" height="15.7"/>
	<path class="st10" d="M348.3,33c23.7,0,42.9,19.2,42.9,42.9s-19.2,42.9-42.9,42.9c-23.7,0-42.9-19.2-42.9-42.9S324.7,33,348.3,33"
		/>
	<path class="st7" d="M348.3,36.3c21.9,0,39.6,17.7,39.6,39.6c0,21.9-17.7,39.6-39.6,39.6c-21.9,0-39.6-17.7-39.6-39.6
		C308.7,54,326.5,36.3,348.3,36.3"/>
	<path class="st11" d="M362.5,96.1c1.6,0.1,3.6-0.5,5-1.3l5.5,1.5l-1.5-5.4c0.9-1.6,1.4-3.4,1.4-5.2c0,0,0,0,0,0
		c0-5.8-4.7-10.5-10.5-10.5c-2.7,0-5.3,1-7.2,2.9"/>
	<path class="st11" d="M339.7,100.7l1.5-5.4c-0.9-1.6-1.4-3.4-1.4-5.2c0,0,0,0,0,0c0-5.8,4.7-10.5,10.5-10.5c2.8,0,5.4,1.1,7.4,3.1
		s3.1,4.6,3.1,7.4c0,5.8-4.7,10.5-10.5,10.5h0c-1.8,0-3.5-0.4-5-1.3L339.7,100.7z"/>
	<path class="st12" d="M338.6,54.2c4.6,0,8.3,3.7,8.3,8.3c0,4.6-3.7,8.3-8.3,8.3c-4.6,0-8.3-3.7-8.3-8.3
		C330.3,57.9,334,54.2,338.6,54.2z"/>
	<path class="st13" d="M338.2,71.3c-5,0-9.1,6.8-9.1,15.2"/>
	<path class="st14" d="M327.6,60.6c0-5.2,4.3-9.5,9.5-9.5h2.9c5.2,0,9.5,4.3,9.5,9.5"/>
	<path class="st14" d="M327.6,57.7h-1.7c-1.3,0-2.3,1.1-2.3,2.3v2.7c0,1.3,1.1,2.3,2.3,2.3h1.7V57.7z"/>
	<path class="st14" d="M350.9,64.8c0.5,8.2-1.3,7.9-4,7.9h-3.7"/>
	<path class="st14" d="M349.6,57.7h1.7c1.3,0,2.3,1.1,2.3,2.3v2.7c0,1.3-1.1,2.3-2.3,2.3h-1.7V57.7z"/>
	<path class="st10" d="M348.3,218.9c23.7,0,42.9,19.2,42.9,42.9c0,23.7-19.2,42.9-42.9,42.9c-23.7,0-42.9-19.2-42.9-42.9
		C305.4,238.1,324.7,218.9,348.3,218.9"/>
	<path class="st7" d="M348.3,222.2c21.9,0,39.6,17.7,39.6,39.6c0,21.9-17.7,39.6-39.6,39.6c-21.9,0-39.6-17.7-39.6-39.6
		C308.7,239.9,326.5,222.2,348.3,222.2"/>
	<path class="st14" d="M356,259.7h14.7c0.6,0,1.1,0.5,1.1,1.1v8.9c0,0.6-0.5,1.1-1.1,1.1H356c-0.6,0-1.1-0.5-1.1-1.1v-8.9
		C355,260.2,355.4,259.7,356,259.7z"/>
	<path class="st15" d="M354.7,276.8H372c0.6,0,1.2-0.5,1.1-1.1l-1.3-4c-0.2-0.6-0.5-1.1-1.1-1.1H356c-0.6,0-0.9,0.5-1.1,1.1l-1.3,4
		C353.5,276.3,354.1,276.8,354.7,276.8z"/>
	<line class="st16" x1="355.5" y1="274.2" x2="356.3" y2="274.2"/>
	<line class="st16" x1="356.7" y1="274.2" x2="357.5" y2="274.2"/>
	<line class="st16" x1="357.9" y1="274.2" x2="358.8" y2="274.2"/>
	<line class="st16" x1="359.2" y1="274.2" x2="360" y2="274.2"/>
	<line class="st16" x1="360.4" y1="274.2" x2="361.2" y2="274.2"/>
	<line class="st16" x1="361.6" y1="274.2" x2="362.5" y2="274.2"/>
	<line class="st16" x1="362.9" y1="274.2" x2="363.7" y2="274.2"/>
	<line class="st16" x1="364.1" y1="274.2" x2="364.9" y2="274.2"/>
	<line class="st16" x1="365.3" y1="274.2" x2="366.2" y2="274.2"/>
	<line class="st16" x1="366.6" y1="274.2" x2="367.4" y2="274.2"/>
	<line class="st16" x1="367.8" y1="274.2" x2="368.6" y2="274.2"/>
	<line class="st16" x1="369" y1="274.2" x2="369.9" y2="274.2"/>
	<line class="st16" x1="370.3" y1="274.2" x2="371.1" y2="274.2"/>
	<line class="st16" x1="358.2" y1="275.5" x2="368.4" y2="275.5"/>
	<line class="st16" x1="356.9" y1="275.5" x2="357.7" y2="275.5"/>
	<line class="st16" x1="355.6" y1="275.5" x2="356.4" y2="275.5"/>
	<line class="st16" x1="370.1" y1="275.5" x2="371" y2="275.5"/>
	<line class="st16" x1="368.8" y1="275.5" x2="369.7" y2="275.5"/>
	<line class="st16" x1="356.1" y1="272.8" x2="356.9" y2="272.8"/>
	<line class="st16" x1="357.3" y1="272.8" x2="358.2" y2="272.8"/>
	<line class="st16" x1="358.5" y1="272.8" x2="359.4" y2="272.8"/>
	<line class="st16" x1="359.8" y1="272.8" x2="360.6" y2="272.8"/>
	<line class="st16" x1="361" y1="272.8" x2="361.9" y2="272.8"/>
	<line class="st16" x1="362.2" y1="272.8" x2="363.1" y2="272.8"/>
	<line class="st16" x1="363.5" y1="272.8" x2="364.3" y2="272.8"/>
	<line class="st16" x1="364.7" y1="272.8" x2="365.5" y2="272.8"/>
	<line class="st16" x1="365.9" y1="272.8" x2="366.8" y2="272.8"/>
	<line class="st16" x1="367.2" y1="272.8" x2="368" y2="272.8"/>
	<line class="st16" x1="368.4" y1="272.8" x2="369.2" y2="272.8"/>
	<line class="st16" x1="369.6" y1="272.8" x2="370.5" y2="272.8"/>
	<path class="st15" d="M336,268.5h-6.5l-2.6,1.9v3.7h10.2v-4.5C337.1,268.9,336.6,268.5,336,268.5z"/>
	<path class="st14" d="M326.9,281.8h-2.2c-0.6,0-1.1-0.5-1.1-1.1v-5.6c0-0.6,0.5-1.1,1.1-1.1h14.7c0.6,0,1.1,0.5,1.1,1.1v5.6
		c0,0.6-0.5,1.1-1.1,1.1h-2.2"/>
	<path class="st17" d="M337.5,275.4c0.5,0,0.8,0.4,0.8,0.8c0,0.5-0.4,0.8-0.8,0.8c-0.5,0-0.8-0.4-0.8-0.8
		C336.6,275.7,337,275.4,337.5,275.4z"/>
	<path class="st14" d="M327.9,278.8h8.1c0.6,0,1.1,0.5,1.1,1.1v5.6c0,0.6-0.5,1.1-1.1,1.1h-8.1c-0.6,0-1.1-0.5-1.1-1.1v-5.6
		C326.9,279.3,327.4,278.8,327.9,278.8z"/>
	<path class="st14" d="M326.9,271h3c0.2,0,0.4-0.2,0.4-0.4v-2.1"/>
	<line class="st18" x1="325.7" y1="275.7" x2="327.3" y2="275.7"/>
	<line class="st18" x1="328.2" y1="275.7" x2="329.9" y2="275.7"/>
	<path class="st19" d="M324.7,237.1h14.7c0.6,0,1.1,0.5,1.1,1.1v8.9c0,0.6-0.5,1.1-1.1,1.1h-14.7c-0.6,0-1.1-0.5-1.1-1.1v-8.9
		C323.6,237.5,324.1,237.1,324.7,237.1z"/>
	<line class="st20" x1="326.3" y1="251.4" x2="337.7" y2="251.4"/>
	<line class="st21" x1="335.2" y1="251.4" x2="335.2" y2="248.2"/>
	<line class="st21" x1="328.7" y1="251.4" x2="328.7" y2="248.2"/>
	<path class="st14" d="M343.1,237.1h2c0.6,0,1.1,0.5,1.1,1.1v12.2c0,0.6-0.5,1.1-1.1,1.1h-2c-0.6,0-1.1-0.5-1.1-1.1v-12.2
		C342,237.5,342.5,237.1,343.1,237.1z"/>
	<line class="st18" x1="343.1" y1="242.9" x2="344.8" y2="242.9"/>
	<line class="st18" x1="343.1" y1="245.1" x2="344.8" y2="245.1"/>
	<path class="st17" d="M344,239.1c0.5,0,0.8,0.4,0.8,0.8c0,0.5-0.4,0.8-0.8,0.8c-0.5,0-0.8-0.4-0.8-0.8
		C343.2,239.5,343.6,239.1,344,239.1z"/>
	<path class="st22" d="M348.3,250.7c6.1,0,11.1,5,11.1,11.1c0,6.1-5,11.1-11.1,11.1c-6.1,0-11.1-5-11.1-11.1
		C337.2,255.7,342.2,250.7,348.3,250.7"/>
	<path class="st7" d="M349.3,263l0.3-6.4c0,0,0,0,0,0c0-0.3-0.2-0.5-0.5-0.5c0,0,0,0,0,0h-1.5c-0.3,0-0.5,0.2-0.5,0.5c0,0,0,0,0,0
		l0.3,6.4c0,0.2,0.2,0.4,0.5,0.4c0,0,0,0,0,0h1h0C349.1,263.4,349.3,263.2,349.3,263"/>
	<path class="st7" d="M349.7,266.1c0-0.8-0.6-1.4-1.4-1.4c-0.8,0-1.4,0.6-1.4,1.4c0,0.8,0.6,1.4,1.4,1.4
		C349.1,267.5,349.7,266.9,349.7,266.1"/>
	<path class="st10" d="M348.3,406.8c23.7,0,42.9,19.2,42.9,42.9c0,23.7-19.2,42.9-42.9,42.9c-23.7,0-42.9-19.2-42.9-42.9
		C305.4,426,324.7,406.8,348.3,406.8"/>
	<path class="st7" d="M348.3,410.1c21.9,0,39.6,17.7,39.6,39.6c0,21.9-17.7,39.6-39.6,39.6c-21.9,0-39.6-17.7-39.6-39.6
		C308.7,427.8,326.5,410.1,348.3,410.1"/>
	<path class="st23" d="M327.7,433.4h10.9c0.2,0,0.3,0.1,0.3,0.3v2.7c0,0.2-0.1,0.3-0.3,0.3h-10.9c-0.2,0-0.3-0.1-0.3-0.3v-2.7
		C327.4,433.6,327.6,433.4,327.7,433.4z"/>
	<line class="st16" x1="328.8" y1="435.2" x2="332.6" y2="435.2"/>
	<line class="st24" x1="335.5" y1="435.2" x2="336.6" y2="435.2"/>
	<line class="st24" x1="337" y1="435.2" x2="338.1" y2="435.2"/>
	<path class="st19" d="M357.2,425.8h14.7c0.6,0,1.1,0.5,1.1,1.1v8.9c0,0.6-0.5,1.1-1.1,1.1h-14.7c-0.6,0-1.1-0.5-1.1-1.1v-8.9
		C356.1,426.3,356.6,425.8,357.2,425.8z"/>
	<line class="st25" x1="356.1" y1="433.7" x2="372.9" y2="433.7"/>
	<line class="st20" x1="358.8" y1="440.1" x2="370.2" y2="440.1"/>
	<line class="st21" x1="367.7" y1="440.1" x2="367.7" y2="436.9"/>
	<line class="st21" x1="361.2" y1="440.1" x2="361.2" y2="436.9"/>
	<path class="st19" d="M357.4,460.2H372c0.6,0,1.1,0.5,1.1,1.1v8.9c0,0.6-0.5,1.1-1.1,1.1h-14.7c-0.6,0-1.1-0.5-1.1-1.1v-8.9
		C356.3,460.6,356.8,460.2,357.4,460.2z"/>
	<line class="st25" x1="356.3" y1="468" x2="373.1" y2="468"/>
	<line class="st20" x1="359" y1="474.5" x2="370.4" y2="474.5"/>
	<line class="st21" x1="367.9" y1="474.5" x2="367.9" y2="471.2"/>
	<line class="st21" x1="361.4" y1="474.5" x2="361.4" y2="471.2"/>
	<path class="st19" d="M324.7,460.2h14.7c0.6,0,1.1,0.5,1.1,1.1v8.9c0,0.6-0.5,1.1-1.1,1.1h-14.7c-0.6,0-1.1-0.5-1.1-1.1v-8.9
		C323.6,460.6,324.1,460.2,324.7,460.2z"/>
	<line class="st25" x1="323.6" y1="468" x2="340.4" y2="468"/>
	<line class="st20" x1="326.3" y1="474.5" x2="337.7" y2="474.5"/>
	<line class="st21" x1="335.2" y1="474.5" x2="335.2" y2="471.2"/>
	<line class="st21" x1="328.7" y1="474.5" x2="328.7" y2="471.2"/>
	<path class="st26" d="M329.8,460.5c-1.8-3.1-2.7-6.7-2.7-10.5v-7.3 M356.4,469.4c-2.5,1.1-5.3,1.6-8.2,1.7c-2.7,0-5.2-0.5-7.6-1.4
		 M366.7,440.1c1.6,3,2.5,6.3,2.5,9.9c0,3.7-1,7.2-2.6,10.2 M340.4,429h7.7c2.8,0,5.5,0.6,8,1.6"/>
	<ellipse class="st26" cx="333.2" cy="435.1" rx="9.5" ry="10.2"/>
	<line class="st24" x1="334.1" y1="435.2" x2="335.2" y2="435.2"/>
	<path class="st27" d="M348,453.5c0.8,0,1.5,0.7,1.5,1.6c0,0.9-0.7,1.6-1.5,1.6c-0.8,0-1.5-0.7-1.5-1.6
		C346.6,454.2,347.2,453.5,348,453.5z"/>
	<path class="st27" d="M344.5,451.6c0.9-1,2.1-1.6,3.5-1.6c1.4,0,2.6,0.6,3.5,1.6"/>
	<path class="st27" d="M342.1,449.2c1.5-1.7,3.6-2.7,5.9-2.7c2.3,0,4.4,1.1,5.9,2.7"/>
	<path class="st27" d="M339.8,446.9c2-2.3,5-3.8,8.2-3.8c3.2,0,6.1,1.5,8.2,3.8"/>
	<path class="st1" d="M135,50.4h28.3l5.9,6.3h56.3v36h-33.7l-4.8,4.9h-10.5 M171.9,97.5h-10.6l-4.4-4.9H52.2v-36h30.8l7.2-6.3h23.7"
		/>
	<polyline class="st1" points="159.5,95.5 144.1,95.5 141.5,92.6 	"/>
	<polyline class="st1" points="189,95.5 217.3,95.5 219.9,92.6 	"/>
	<polyline class="st2" points="86,54 105.9,54 109.1,50.4 	"/>
	<polyline class="st2" points="225.6,60.2 205.7,60.2 202.5,56.6 	"/>
	<polyline class="st1" points="170.9,110.2 170.9,117.1 52.5,117.1 52.5,103.4 164.2,103.4 	"/>
	<polyline class="st1" points="195.5,117.2 212.4,117.2 231.6,97.6 231.6,60.6 	"/>
	<polyline class="st1" points="212.4,117.2 216.4,117.2 235.6,97.6 235.6,86 231.6,82.7 	"/>
	<polyline class="st1" points="228.2,92 228.2,95.3 224.9,95.3 	"/>
	<polyline class="st1" points="49.2,58.3 49.2,53.7 53.8,53.7 	"/>
	<line class="st1" x1="49.4" y1="33.4" x2="49.4" y2="35.8"/>
	<line class="st1" x1="49.4" y1="73.8" x2="49.4" y2="76.2"/>
	<line class="st3" x1="43.9" y1="34" x2="44.5" y2="36.4"/>
	<line class="st3" x1="54.3" y1="73" x2="55" y2="75.4"/>
	<line class="st3" x1="38.7" y1="36.2" x2="40" y2="38.3"/>
	<line class="st3" x1="58.9" y1="71.2" x2="60.2" y2="73.3"/>
	<line class="st4" x1="34.3" y1="39.5" x2="36" y2="41.2"/>
	<line class="st4" x1="62.8" y1="68.1" x2="64.6" y2="69.8"/>
	<line class="st3" x1="30.8" y1="44" x2="32.9" y2="45.2"/>
	<line class="st3" x1="65.8" y1="64.2" x2="67.9" y2="65.4"/>
	<line class="st3" x1="28.7" y1="49.1" x2="31.1" y2="49.8"/>
	<line class="st3" x1="67.7" y1="59.6" x2="70.1" y2="60.2"/>
	<line class="st1" x1="28" y1="54.8" x2="30.4" y2="54.8"/>
	<line class="st1" x1="68.4" y1="54.8" x2="70.8" y2="54.8"/>
	<line class="st3" x1="28.7" y1="60.2" x2="31.1" y2="59.6"/>
	<line class="st3" x1="67.8" y1="49.8" x2="70.1" y2="49.2"/>
	<line class="st3" x1="30.9" y1="65.4" x2="33" y2="64.2"/>
	<line class="st3" x1="65.9" y1="45.2" x2="68" y2="44"/>
	<line class="st4" x1="34.3" y1="69.8" x2="36" y2="68.1"/>
	<line class="st4" x1="62.8" y1="41.2" x2="64.6" y2="39.5"/>
	<line class="st3" x1="38.7" y1="73.3" x2="39.9" y2="71.2"/>
	<line class="st3" x1="58.9" y1="38.3" x2="60.1" y2="36.1"/>
	<line class="st3" x1="43.9" y1="75.4" x2="44.5" y2="73"/>
	<line class="st3" x1="54.3" y1="36.4" x2="54.9" y2="34"/>
	<line class="st2" x1="46.6" y1="33.6" x2="46.9" y2="36"/>
	<line class="st2" x1="51.9" y1="73.6" x2="52.2" y2="76"/>
	<line class="st3" x1="41.3" y1="34.9" x2="42.2" y2="37.2"/>
	<line class="st3" x1="56.7" y1="72.3" x2="57.7" y2="74.5"/>
	<line class="st1" x1="36.4" y1="37.7" x2="37.9" y2="39.7"/>
	<line class="st1" x1="61" y1="69.8" x2="62.5" y2="71.8"/>
	<line class="st1" x1="32.4" y1="41.7" x2="34.3" y2="43.2"/>
	<line class="st1" x1="64.4" y1="66.3" x2="66.4" y2="67.8"/>
	<line class="st3" x1="29.6" y1="46.5" x2="31.8" y2="47.4"/>
	<line class="st3" x1="66.9" y1="62" x2="69.2" y2="62.9"/>
	<line class="st2" x1="28.2" y1="52" x2="30.6" y2="52.3"/>
	<line class="st2" x1="68.3" y1="57.3" x2="70.7" y2="57.6"/>
	<line class="st2" x1="28.1" y1="57.6" x2="30.5" y2="57.3"/>
	<line class="st2" x1="68.2" y1="52.3" x2="70.6" y2="52"/>
	<line class="st3" x1="29.7" y1="62.9" x2="31.9" y2="62"/>
	<line class="st3" x1="67" y1="47.4" x2="69.3" y2="46.5"/>
	<line class="st1" x1="32.4" y1="67.8" x2="34.4" y2="66.3"/>
	<line class="st1" x1="64.5" y1="43.2" x2="66.5" y2="41.7"/>
	<line class="st1" x1="36.3" y1="71.7" x2="37.8" y2="69.8"/>
	<line class="st1" x1="60.9" y1="39.7" x2="62.4" y2="37.7"/>
	<line class="st3" x1="41.2" y1="74.5" x2="42.1" y2="72.3"/>
	<line class="st3" x1="56.6" y1="37.2" x2="57.6" y2="34.9"/>
	<line class="st2" x1="46.6" y1="76" x2="47" y2="73.6"/>
	<line class="st2" x1="51.9" y1="36" x2="52.2" y2="33.6"/>
	<path class="st5" d="M76.6,64.2h139.2c2.8,0,5,2.3,5,5V83c0,2.8-2.3,5-5,5H76.6c-2.8,0-5-2.3-5-5V69.2
		C71.6,66.4,73.9,64.2,76.6,64.2"/>
	<path class="st6" d="M180.8,78h3l-1.5-5.3L180.8,78z M177,82.8l3.8-12.1h3.1l3.8,12.1h-2.5l-0.8-2.5h-4.1l-0.8,2.5H177z
		 M173.3,82.8V70.6h2.4v12.1H173.3z M167.7,82.9c-0.7,0-1.3-0.1-1.9-0.2c-0.5-0.2-1-0.5-1.4-0.9c-0.4-0.4-0.7-1.1-0.9-1.9
		c-0.2-0.8-0.3-1.9-0.3-3.2c0-1.3,0.1-2.3,0.3-3.1c0.2-0.8,0.5-1.4,0.9-1.9s0.8-0.8,1.4-0.9c0.5-0.2,1.2-0.3,1.9-0.3
		c0.5,0,1.1,0,1.5,0.1c0.5,0.1,0.9,0.1,1.3,0.2c0.4,0.1,0.7,0.2,1,0.3V73c-0.2,0-0.5-0.1-0.8-0.1c-0.3,0-0.7-0.1-1.1-0.1
		c-0.4,0-0.9,0-1.3,0c-0.5,0-0.8,0.1-1.2,0.2c-0.3,0.1-0.6,0.3-0.8,0.6c-0.2,0.3-0.3,0.7-0.4,1.2c-0.1,0.5-0.1,1.2-0.1,2
		c0,0.8,0,1.5,0.1,2c0.1,0.5,0.2,0.9,0.4,1.2c0.2,0.3,0.4,0.5,0.8,0.6c0.3,0.1,0.7,0.2,1.2,0.2c0.8,0,1.5,0,2,0
		c0.5,0,0.9-0.1,1.3-0.1v1.9c-0.3,0.1-0.6,0.2-1,0.3c-0.4,0.1-0.8,0.1-1.3,0.2C168.8,82.8,168.3,82.9,167.7,82.9z M152.2,82.8V70.6
		h1.9l5.1,8v-8h2.4v12.1h-1.9l-5.1-8v8H152.2z M145.3,82.8c-0.3,0-0.6,0-0.9-0.1c-0.3,0-0.7-0.2-1-0.3c-0.3-0.2-0.6-0.4-0.8-0.8
		c-0.2-0.4-0.3-0.8-0.3-1.5v-6.8c0-0.5,0.1-1,0.2-1.3c0.2-0.4,0.4-0.6,0.7-0.9c0.3-0.2,0.6-0.4,0.9-0.4c0.3-0.1,0.6-0.1,1-0.1
		c0.8,0,1.5,0,2.2,0c0.6,0,1.2,0,1.7,0.1c0.5,0,1,0.1,1.4,0.1v2h-4.5c-0.3,0-0.6,0.1-0.8,0.2c-0.2,0.2-0.3,0.4-0.3,0.8v1.8l4.8,0.1
		v1.9l-4.8,0.1v1.7c0,0.3,0,0.5,0.1,0.7c0.1,0.2,0.2,0.3,0.4,0.3c0.2,0.1,0.3,0.1,0.5,0.1h4.6v2c-0.5,0.1-1,0.1-1.6,0.1
		c-0.6,0-1.2,0.1-1.8,0.1C146.4,82.8,145.8,82.8,145.3,82.8z M135.4,82.8v-9.9h-3.3v-2.2h9.1v2.2h-3.3v9.9H135.4z M126.9,82.9
		c-0.3,0-0.6,0-1,0c-0.3,0-0.7,0-1-0.1c-0.3,0-0.7-0.1-1-0.1c-0.3,0-0.6-0.1-0.8-0.2v-1.9c0.3,0,0.7,0.1,1.1,0.1c0.4,0,0.8,0,1.3,0
		c0.4,0,0.9,0,1.3,0c0.4,0,0.8,0,1.1-0.1c0.3-0.1,0.5-0.2,0.7-0.4c0.2-0.2,0.2-0.4,0.2-0.7V79c0-0.4-0.1-0.6-0.3-0.8
		c-0.2-0.2-0.5-0.3-0.9-0.3h-1c-1.2,0-2-0.3-2.7-0.8c-0.6-0.5-0.9-1.4-0.9-2.6V74c0-1.2,0.3-2,1-2.6c0.7-0.5,1.6-0.8,2.9-0.8
		c0.4,0,0.9,0,1.3,0.1c0.4,0,0.9,0.1,1.3,0.2c0.4,0.1,0.8,0.1,1.1,0.2v1.9c-0.5,0-1.1-0.1-1.7-0.1c-0.6,0-1.2,0-1.7,0
		c-0.4,0-0.7,0-1,0.1c-0.3,0.1-0.5,0.2-0.7,0.4c-0.2,0.2-0.2,0.5-0.2,0.8v0.3c0,0.4,0.1,0.7,0.4,0.9c0.2,0.2,0.6,0.3,1.1,0.3h1.2
		c0.7,0,1.3,0.1,1.8,0.4c0.5,0.3,0.8,0.6,1.1,1.1c0.2,0.5,0.4,1,0.4,1.6v0.7c0,0.9-0.2,1.7-0.5,2.2c-0.4,0.5-0.8,0.8-1.5,1
		C128.5,82.8,127.8,82.9,126.9,82.9z M118.7,82.8V70.6h2.4v12.1H118.7z M112.7,82.9c-0.3,0-0.6,0-1,0c-0.3,0-0.7,0-1-0.1
		c-0.3,0-0.7-0.1-1-0.1c-0.3,0-0.6-0.1-0.8-0.2v-1.9c0.3,0,0.7,0.1,1.1,0.1c0.4,0,0.8,0,1.3,0c0.4,0,0.9,0,1.3,0
		c0.4,0,0.8,0,1.1-0.1c0.3-0.1,0.5-0.2,0.7-0.4c0.2-0.2,0.2-0.4,0.2-0.7V79c0-0.4-0.1-0.6-0.3-0.8c-0.2-0.2-0.5-0.3-0.9-0.3h-1
		c-1.2,0-2-0.3-2.7-0.8c-0.6-0.5-0.9-1.4-0.9-2.6V74c0-1.2,0.3-2,1-2.6c0.7-0.5,1.6-0.8,2.9-0.8c0.4,0,0.9,0,1.3,0.1
		c0.4,0,0.9,0.1,1.3,0.2c0.4,0.1,0.8,0.1,1.1,0.2v1.9c-0.5,0-1.1-0.1-1.7-0.1c-0.6,0-1.2,0-1.7,0c-0.4,0-0.7,0-1,0.1
		c-0.3,0.1-0.5,0.2-0.7,0.4c-0.2,0.2-0.2,0.5-0.2,0.8v0.3c0,0.4,0.1,0.7,0.4,0.9c0.2,0.2,0.6,0.3,1.1,0.3h1.2c0.7,0,1.3,0.1,1.8,0.4
		c0.5,0.3,0.8,0.6,1.1,1.1c0.2,0.5,0.4,1,0.4,1.6v0.7c0,0.9-0.2,1.7-0.5,2.2c-0.4,0.5-0.8,0.8-1.5,1
		C114.3,82.8,113.6,82.9,112.7,82.9z M100.9,78h3l-1.5-5.3L100.9,78z M97.1,82.8l3.8-12.1h3.1l3.8,12.1h-2.5l-0.8-2.5h-4.1l-0.8,2.5
		H97.1z"/>
	<path class="st7" d="M191.4,117.2c0-0.7,0.5-1.2,1.2-1.2c0.7,0,1.2,0.5,1.2,1.2c0,0.7-0.5,1.2-1.2,1.2
		C191.9,118.4,191.4,117.9,191.4,117.2"/>
	<path class="st7" d="M227.7,59.3h2c0.1,0,0.2,0.1,0.2,0.2v2c0,0.1-0.1,0.2-0.2,0.2h-2c-0.1,0-0.2-0.1-0.2-0.2v-2
		C227.5,59.4,227.6,59.3,227.7,59.3"/>
	<path class="st7" d="M227.7,62.9h2c0.1,0,0.2,0.1,0.2,0.2v2c0,0.1-0.1,0.2-0.2,0.2h-2c-0.1,0-0.2-0.1-0.2-0.2v-2
		C227.5,62.9,227.6,62.9,227.7,62.9"/>
	<path class="st7" d="M227.7,66.4h2c0.1,0,0.2,0.1,0.2,0.2v2c0,0.1-0.1,0.2-0.2,0.2h-2c-0.1,0-0.2-0.1-0.2-0.2v-2
		C227.5,66.5,227.6,66.4,227.7,66.4"/>
	<path class="st7" d="M227.7,69.9h2c0.1,0,0.2,0.1,0.2,0.2v2c0,0.1-0.1,0.2-0.2,0.2h-2c-0.1,0-0.2-0.1-0.2-0.2v-2
		C227.5,70,227.6,69.9,227.7,69.9"/>
	<path class="st7" d="M227.7,73.4h2c0.1,0,0.2,0.1,0.2,0.2v2c0,0.1-0.1,0.2-0.2,0.2h-2c-0.1,0-0.2-0.1-0.2-0.2v-2
		C227.5,73.5,227.6,73.4,227.7,73.4"/>
	<path class="st7" d="M175.4,97.5c0-0.7,0.5-1.2,1.2-1.2c0.7,0,1.2,0.5,1.2,1.2c0,0.7-0.5,1.2-1.2,1.2
		C176,98.7,175.4,98.2,175.4,97.5"/>
	<path class="st7" d="M170.6,97.5c0-0.7,0.5-1.2,1.2-1.2c0.7,0,1.2,0.5,1.2,1.2c0,0.7-0.5,1.2-1.2,1.2
		C171.2,98.7,170.6,98.2,170.6,97.5"/>
	<polyline class="st3" points="67.2,89.7 70.1,92.6 67.2,95.5 	"/>
	<polyline class="st3" points="64.2,89.7 67.2,92.6 64.2,95.5 	"/>
	<polyline class="st3" points="61.3,89.7 64.2,92.6 61.3,95.5 	"/>
	<polyline class="st3" points="58.4,89.7 61.3,92.6 58.4,95.5 	"/>
	<path class="st7" d="M50.1,90.2h4.1c0.2,0,0.4,0.2,0.4,0.4v4.1c0,0.2-0.2,0.4-0.4,0.4h-4.1c-0.2,0-0.4-0.2-0.4-0.4v-4.1
		C49.7,90.4,49.9,90.2,50.1,90.2"/>
	<path class="st7" d="M192.3,56.6c0-0.7,0.5-1.2,1.2-1.2c0.7,0,1.2,0.5,1.2,1.2c0,0.7-0.5,1.2-1.2,1.2
		C192.8,57.9,192.3,57.3,192.3,56.6"/>
	<line class="st8" x1="193.2" y1="95.5" x2="215.9" y2="95.5"/>
	<polyline class="st8" points="140.9,50.4 163.3,50.4 169.2,56.6 	"/>
	<path class="st7" d="M133.8,50.4c0-0.7,0.5-1.2,1.2-1.2c0.7,0,1.2,0.5,1.2,1.2c0,0.7-0.5,1.2-1.2,1.2
		C134.3,51.6,133.8,51,133.8,50.4"/>
	<path class="st7" d="M112.6,50.4c0-0.7,0.5-1.2,1.2-1.2c0.7,0,1.2,0.5,1.2,1.2c0,0.7-0.5,1.2-1.2,1.2
		C113.1,51.6,112.6,51,112.6,50.4"/>
	<path class="st7" d="M85.3,89.3h1.4c0.1,0,0.1,0.1,0.1,0.1v1.4c0,0.1-0.1,0.1-0.1,0.1h-1.4c-0.1,0-0.1-0.1-0.1-0.1v-1.4
		C85.2,89.4,85.2,89.3,85.3,89.3"/>
	<path class="st7" d="M85.3,105h1.4c0.1,0,0.1,0.1,0.1,0.1v1.4c0,0.1-0.1,0.1-0.1,0.1h-1.4c-0.1,0-0.1-0.1-0.1-0.1v-1.4
		C85.2,105.1,85.2,105,85.3,105"/>
	<rect x="85.4" y="90.1" class="st9" width="1.2" height="15.7"/>
	<path class="st7" d="M93,89.3h1.4c0.1,0,0.1,0.1,0.1,0.1v1.4c0,0.1-0.1,0.1-0.1,0.1H93c-0.1,0-0.1-0.1-0.1-0.1v-1.4
		C92.9,89.4,93,89.3,93,89.3"/>
	<path class="st7" d="M93,105h1.4c0.1,0,0.1,0.1,0.1,0.1v1.4c0,0.1-0.1,0.1-0.1,0.1H93c-0.1,0-0.1-0.1-0.1-0.1v-1.4
		C92.9,105.1,93,105,93,105"/>
	<rect x="93.2" y="90.1" class="st9" width="1.2" height="15.7"/>
	<path class="st7" d="M100.8,89.3h1.4c0.1,0,0.1,0.1,0.1,0.1v1.4c0,0.1-0.1,0.1-0.1,0.1h-1.4c-0.1,0-0.1-0.1-0.1-0.1v-1.4
		C100.7,89.4,100.7,89.3,100.8,89.3"/>
	<path class="st7" d="M100.8,105h1.4c0.1,0,0.1,0.1,0.1,0.1v1.4c0,0.1-0.1,0.1-0.1,0.1h-1.4c-0.1,0-0.1-0.1-0.1-0.1v-1.4
		C100.7,105.1,100.7,105,100.8,105"/>
	<rect x="100.9" y="90.1" class="st9" width="1.2" height="15.7"/>
	<path class="st7" d="M108.5,89.3h1.4c0.1,0,0.1,0.1,0.1,0.1v1.4c0,0.1-0.1,0.1-0.1,0.1h-1.4c-0.1,0-0.1-0.1-0.1-0.1v-1.4
		C108.4,89.4,108.5,89.3,108.5,89.3"/>
	<path class="st7" d="M108.5,105h1.4c0.1,0,0.1,0.1,0.1,0.1v1.4c0,0.1-0.1,0.1-0.1,0.1h-1.4c-0.1,0-0.1-0.1-0.1-0.1v-1.4
		C108.4,105.1,108.5,105,108.5,105"/>
	<rect x="108.7" y="90.1" class="st9" width="1.2" height="15.7"/>
	<path class="st28" d="M48.8,144.8h382.5c8.5,0,15.5,7,15.5,15.5v18.1c0,8.5-7,15.5-15.5,15.5H48.8c-8.5,0-15.5-7-15.5-15.5v-18.1
		C33.3,151.8,40.3,144.8,48.8,144.8"/>
	<path class="st6" d="M386,171.8c0.3,0,0.5,0,0.7-0.1c0.2-0.1,0.4-0.2,0.5-0.3c0.1-0.2,0.2-0.4,0.3-0.8c0.1-0.3,0.1-0.8,0.1-1.4
		c0-0.6,0-1-0.1-1.4c-0.1-0.3-0.2-0.6-0.3-0.8c-0.1-0.2-0.3-0.3-0.5-0.3c-0.2-0.1-0.5-0.1-0.7-0.1c-0.3,0-0.5,0-0.7,0.1
		c-0.2,0.1-0.4,0.2-0.5,0.3c-0.1,0.2-0.2,0.4-0.3,0.8c-0.1,0.3-0.1,0.8-0.1,1.4c0,0.6,0,1,0.1,1.4c0.1,0.3,0.2,0.6,0.3,0.8
		c0.1,0.2,0.3,0.3,0.5,0.3C385.4,171.8,385.7,171.8,386,171.8 M386,173.8c-0.7,0-1.3-0.1-1.9-0.2c-0.5-0.1-0.9-0.4-1.3-0.7
		c-0.3-0.3-0.6-0.8-0.7-1.4c-0.1-0.6-0.2-1.3-0.2-2.1c0-0.9,0.1-1.6,0.2-2.2c0.1-0.6,0.4-1,0.7-1.4c0.3-0.3,0.7-0.6,1.3-0.7
		c0.5-0.1,1.1-0.2,1.8-0.2c0.7,0,1.4,0.1,1.9,0.2c0.5,0.1,0.9,0.4,1.3,0.7c0.3,0.3,0.6,0.8,0.7,1.4c0.1,0.6,0.2,1.3,0.2,2.2
		c0,0.9-0.1,1.6-0.2,2.2c-0.1,0.6-0.4,1-0.7,1.4c-0.3,0.3-0.7,0.6-1.3,0.7C387.3,173.7,386.7,173.8,386,173.8z M379.2,173.7
		c-0.7,0-1.2-0.1-1.6-0.3c-0.4-0.2-0.7-0.5-0.9-1c-0.2-0.5-0.3-1.1-0.2-1.9l0.1-3.7h-1.4v-1.6l1.5-0.4l0.3-2.5h1.9v2.5h2.1v1.9h-2.1
		v3.7c0,0.2,0,0.4,0.1,0.6c0,0.2,0.1,0.3,0.2,0.4c0.1,0.1,0.2,0.2,0.3,0.2c0.1,0,0.2,0.1,0.3,0.1l1.1,0.1v1.8H379.2z M370.3,171.8
		c0.3,0,0.5-0.1,0.7-0.2c0.2-0.1,0.4-0.4,0.5-0.7c0.1-0.4,0.2-0.9,0.2-1.6c0-0.7-0.1-1.2-0.2-1.5c-0.1-0.4-0.3-0.6-0.5-0.8
		c-0.2-0.2-0.5-0.2-0.8-0.2c-0.3,0-0.6,0.1-0.9,0.2c-0.3,0.1-0.5,0.2-0.7,0.3v4.2c0.2,0.1,0.5,0.2,0.8,0.3
		C369.7,171.8,370,171.8,370.3,171.8z M366.3,177.6v-12.7h2l0.4,0.8c0.2-0.2,0.4-0.3,0.7-0.5c0.3-0.1,0.5-0.3,0.8-0.4
		c0.3-0.1,0.6-0.1,0.9-0.1c0.5,0,1,0.1,1.4,0.3c0.4,0.2,0.7,0.5,1,0.9c0.3,0.4,0.4,0.9,0.6,1.4c0.1,0.6,0.2,1.2,0.2,1.9
		c0,0.9-0.1,1.7-0.3,2.4c-0.2,0.7-0.5,1.2-1,1.5c-0.5,0.4-1.1,0.5-1.9,0.5c-0.4,0-0.8,0-1.3-0.1c-0.4-0.1-0.8-0.2-1.2-0.4v4.3H366.3
		z M362,173.7v-8.8h2.4v8.8H362z M362.3,163.6c-0.2,0-0.3-0.1-0.3-0.3v-1.6c0-0.2,0.1-0.3,0.3-0.3h1.9c0.1,0,0.2,0,0.2,0.1
		c0.1,0.1,0.1,0.1,0.1,0.2v1.6c0,0.2-0.1,0.3-0.3,0.3H362.3z M355,173.7v-8.8h1.9l0.6,1.3c0.3-0.4,0.7-0.7,1.1-1
		c0.4-0.3,0.9-0.4,1.4-0.4c0.1,0,0.2,0,0.4,0c0.1,0,0.2,0,0.4,0.1v2.5c-0.2,0-0.3,0-0.5-0.1c-0.2,0-0.4,0-0.5,0
		c-0.3,0-0.6,0-0.9,0.1c-0.3,0.1-0.5,0.2-0.7,0.3c-0.2,0.1-0.4,0.3-0.6,0.5v5.5H355z M350.4,173.8c-0.5,0-1-0.1-1.5-0.2
		c-0.5-0.1-0.8-0.4-1.2-0.7c-0.3-0.3-0.6-0.8-0.8-1.4c-0.2-0.6-0.3-1.3-0.3-2.2c0-0.9,0.1-1.6,0.2-2.2c0.2-0.6,0.4-1.1,0.7-1.4
		c0.3-0.3,0.7-0.6,1.2-0.7c0.5-0.1,1-0.2,1.6-0.2c0.5,0,1,0,1.5,0.1c0.5,0.1,1,0.2,1.5,0.3v1.4h-2.3c-0.5,0-0.9,0.1-1.2,0.2
		c-0.3,0.1-0.5,0.4-0.7,0.8c-0.1,0.4-0.2,1-0.2,1.7c0,0.7,0.1,1.3,0.2,1.7c0.1,0.4,0.4,0.6,0.7,0.8c0.3,0.1,0.7,0.2,1.2,0.2h2.4v1.4
		c-0.3,0.1-0.6,0.2-0.9,0.2c-0.4,0.1-0.7,0.1-1.1,0.2C351.2,173.8,350.8,173.8,350.4,173.8z M341.9,173.8c-0.3,0-0.6,0-0.9,0
		c-0.3,0-0.6,0-0.9-0.1c-0.3,0-0.6-0.1-0.9-0.1c-0.3,0-0.5-0.1-0.7-0.2V172h3.9c0.2,0,0.4,0,0.6-0.1s0.3-0.1,0.3-0.2
		c0.1-0.1,0.1-0.3,0.1-0.5V171c0-0.2-0.1-0.4-0.2-0.5c-0.1-0.1-0.4-0.2-0.8-0.2h-1.4c-0.5,0-1-0.1-1.4-0.2c-0.4-0.2-0.7-0.4-1-0.8
		c-0.2-0.3-0.4-0.8-0.4-1.4v-0.5c0-0.6,0.1-1,0.3-1.4c0.2-0.4,0.6-0.7,1.1-0.9c0.5-0.2,1.2-0.3,2.1-0.3c0.4,0,0.7,0,1.2,0.1
		c0.4,0,0.8,0.1,1.2,0.1c0.4,0.1,0.7,0.1,0.9,0.2v1.4h-3.7c-0.3,0-0.6,0.1-0.7,0.2c-0.2,0.1-0.2,0.3-0.2,0.6v0.3
		c0,0.2,0,0.3,0.1,0.4c0.1,0.1,0.2,0.2,0.4,0.2c0.2,0,0.4,0.1,0.6,0.1h1.4c0.9,0,1.5,0.2,2,0.6c0.4,0.4,0.6,1,0.6,1.7v0.8
		c0,0.6-0.1,1.1-0.4,1.4c-0.3,0.3-0.7,0.6-1.2,0.7C343.3,173.7,342.7,173.8,341.9,173.8z M331.5,173.8c-0.8,0-1.4-0.2-1.9-0.7
		c-0.4-0.5-0.7-1.1-0.7-2v-6.2h2.4v5.5c0,0.5,0.1,0.8,0.4,1c0.2,0.2,0.5,0.3,0.9,0.3c0.3,0,0.6-0.1,0.9-0.2c0.3-0.1,0.6-0.3,0.9-0.5
		v-6.1h2.4v8.8h-2l-0.4-0.9c-0.4,0.3-0.8,0.5-1.4,0.7C332.6,173.7,332.1,173.8,331.5,173.8z M323.9,173.8c-0.3,0-0.6,0-0.9,0
		c-0.3,0-0.6,0-0.9-0.1c-0.3,0-0.6-0.1-0.9-0.1c-0.3,0-0.5-0.1-0.7-0.2V172h3.9c0.2,0,0.4,0,0.6-0.1s0.3-0.1,0.3-0.2
		c0.1-0.1,0.1-0.3,0.1-0.5V171c0-0.2-0.1-0.4-0.2-0.5c-0.1-0.1-0.4-0.2-0.8-0.2H323c-0.5,0-1-0.1-1.4-0.2c-0.4-0.2-0.7-0.4-1-0.8
		c-0.2-0.3-0.4-0.8-0.4-1.4v-0.5c0-0.6,0.1-1,0.3-1.4c0.2-0.4,0.6-0.7,1.1-0.9c0.5-0.2,1.2-0.3,2.1-0.3c0.4,0,0.7,0,1.2,0.1
		c0.4,0,0.8,0.1,1.2,0.1c0.4,0.1,0.7,0.1,0.9,0.2v1.4h-3.7c-0.3,0-0.6,0.1-0.7,0.2c-0.2,0.1-0.2,0.3-0.2,0.6v0.3
		c0,0.2,0,0.3,0.1,0.4c0.1,0.1,0.2,0.2,0.4,0.2c0.2,0,0.4,0.1,0.6,0.1h1.4c0.9,0,1.5,0.2,2,0.6c0.4,0.4,0.6,1,0.6,1.7v0.8
		c0,0.6-0.1,1.1-0.4,1.4c-0.3,0.3-0.7,0.6-1.2,0.7C325.3,173.7,324.7,173.8,323.9,173.8z M311.4,173.8c-0.3,0-0.6,0-0.9,0
		c-0.3,0-0.6,0-0.9-0.1c-0.3,0-0.6-0.1-0.9-0.1c-0.3,0-0.5-0.1-0.7-0.2V172h3.9c0.2,0,0.4,0,0.6-0.1s0.3-0.1,0.3-0.2
		c0.1-0.1,0.1-0.3,0.1-0.5V171c0-0.2-0.1-0.4-0.2-0.5c-0.1-0.1-0.4-0.2-0.8-0.2h-1.4c-0.5,0-1-0.1-1.4-0.2c-0.4-0.2-0.7-0.4-1-0.8
		c-0.2-0.3-0.4-0.8-0.4-1.4v-0.5c0-0.6,0.1-1,0.3-1.4c0.2-0.4,0.6-0.7,1.1-0.9c0.5-0.2,1.2-0.3,2.1-0.3c0.4,0,0.7,0,1.2,0.1
		c0.4,0,0.8,0.1,1.2,0.1c0.4,0.1,0.7,0.1,0.9,0.2v1.4h-3.7c-0.3,0-0.6,0.1-0.7,0.2c-0.2,0.1-0.2,0.3-0.2,0.6v0.3
		c0,0.2,0,0.3,0.1,0.4c0.1,0.1,0.2,0.2,0.4,0.2c0.2,0,0.4,0.1,0.6,0.1h1.4c0.9,0,1.5,0.2,2,0.6c0.4,0.4,0.6,1,0.6,1.7v0.8
		c0,0.6-0.1,1.1-0.4,1.4c-0.3,0.3-0.7,0.6-1.2,0.7C312.8,173.7,312.2,173.8,311.4,173.8z M301.6,168.7h2c0.3,0,0.6-0.1,0.7-0.2
		c0.2-0.1,0.2-0.4,0.2-0.7c0-0.3,0-0.6-0.1-0.8c-0.1-0.2-0.3-0.3-0.5-0.4c-0.2-0.1-0.5-0.1-0.8-0.1c-0.4,0-0.7,0.1-0.9,0.2
		c-0.2,0.1-0.4,0.3-0.5,0.7C301.6,167.7,301.6,168.1,301.6,168.7z M303.1,173.8c-1,0-1.7-0.1-2.3-0.4c-0.6-0.3-1-0.7-1.3-1.4
		c-0.3-0.7-0.4-1.6-0.4-2.7c0-1.2,0.1-2.1,0.4-2.8c0.2-0.7,0.6-1.1,1.2-1.4c0.6-0.3,1.3-0.4,2.3-0.4c0.9,0,1.6,0.1,2.1,0.3
		c0.5,0.2,0.9,0.5,1.1,0.9c0.2,0.4,0.4,1.1,0.4,1.9c0,0.6-0.1,1.1-0.4,1.4c-0.2,0.3-0.6,0.6-1,0.7c-0.4,0.1-0.9,0.2-1.5,0.2h-2.2
		c0,0.4,0.1,0.8,0.2,1.1c0.1,0.3,0.3,0.5,0.6,0.6c0.3,0.1,0.8,0.2,1.4,0.2h2.6v1.4c-0.4,0.1-0.9,0.2-1.4,0.3
		C304.4,173.7,303.8,173.8,303.1,173.8z M296.4,173.7c-0.7,0-1.2-0.1-1.6-0.3c-0.4-0.2-0.7-0.5-0.9-1c-0.2-0.5-0.3-1.1-0.2-1.9
		l0.1-3.7h-1.4v-1.6l1.5-0.4l0.3-2.5h1.9v2.5h2.1v1.9H296v3.7c0,0.2,0,0.4,0.1,0.6c0,0.2,0.1,0.3,0.2,0.4c0.1,0.1,0.2,0.2,0.3,0.2
		c0.1,0,0.2,0.1,0.3,0.1l1.1,0.1v1.8H296.4z M283.3,173.7v-8.8h2l0.4,0.9c0.3-0.3,0.7-0.5,1.2-0.7c0.5-0.2,1-0.3,1.5-0.3
		c0.7,0,1.3,0.1,1.7,0.4c0.4,0.3,0.7,0.7,0.8,1.1c0.2,0.5,0.2,1,0.2,1.6v5.8h-2.4v-5.5c0-0.3-0.1-0.5-0.2-0.7
		c-0.1-0.2-0.2-0.3-0.4-0.4c-0.2-0.1-0.4-0.1-0.7-0.1c-0.2,0-0.5,0-0.7,0.1c-0.2,0.1-0.4,0.1-0.6,0.2c-0.2,0.1-0.4,0.2-0.5,0.3v6.1
		H283.3z M276.6,168.7h2c0.3,0,0.6-0.1,0.7-0.2c0.2-0.1,0.2-0.4,0.2-0.7c0-0.3,0-0.6-0.1-0.8c-0.1-0.2-0.3-0.3-0.5-0.4
		c-0.2-0.1-0.5-0.1-0.8-0.1c-0.4,0-0.7,0.1-0.9,0.2c-0.2,0.1-0.4,0.3-0.5,0.7C276.7,167.7,276.6,168.1,276.6,168.7z M278.2,173.8
		c-1,0-1.7-0.1-2.3-0.4c-0.6-0.3-1-0.7-1.3-1.4c-0.3-0.7-0.4-1.6-0.4-2.7c0-1.2,0.1-2.1,0.4-2.8c0.2-0.7,0.6-1.1,1.2-1.4
		c0.6-0.3,1.3-0.4,2.3-0.4c0.9,0,1.6,0.1,2.1,0.3c0.5,0.2,0.9,0.5,1.1,0.9c0.2,0.4,0.4,1.1,0.4,1.9c0,0.6-0.1,1.1-0.4,1.4
		c-0.2,0.3-0.6,0.6-1,0.7c-0.4,0.1-0.9,0.2-1.5,0.2h-2.2c0,0.4,0.1,0.8,0.2,1.1c0.1,0.3,0.3,0.5,0.6,0.6c0.3,0.1,0.8,0.2,1.4,0.2
		h2.6v1.4c-0.4,0.1-0.9,0.2-1.4,0.3C279.5,173.7,278.9,173.8,278.2,173.8z M270.2,173.7v-8.8h2.4v8.8H270.2z M270.5,163.6
		c-0.2,0-0.3-0.1-0.3-0.3v-1.6c0-0.2,0.1-0.3,0.3-0.3h1.9c0.1,0,0.2,0,0.2,0.1c0.1,0.1,0.1,0.1,0.1,0.2v1.6c0,0.2-0.1,0.3-0.3,0.3
		H270.5z M267.9,173.7c-0.6,0-1.1-0.1-1.5-0.3c-0.4-0.2-0.7-0.5-0.9-0.9c-0.2-0.4-0.3-1-0.3-1.6v-9.7h2.4v9.3c0,0.3,0,0.6,0.1,0.8
		c0.1,0.2,0.2,0.3,0.3,0.4c0.1,0.1,0.3,0.1,0.5,0.2l0.7,0.1v1.8H267.9z M260.5,173.8c-0.5,0-1-0.1-1.5-0.2c-0.5-0.1-0.8-0.4-1.2-0.7
		c-0.3-0.3-0.6-0.8-0.8-1.4c-0.2-0.6-0.3-1.3-0.3-2.2c0-0.9,0.1-1.6,0.2-2.2c0.2-0.6,0.4-1.1,0.7-1.4c0.3-0.3,0.7-0.6,1.2-0.7
		c0.5-0.1,1-0.2,1.6-0.2c0.5,0,1,0,1.5,0.1c0.5,0.1,1,0.2,1.5,0.3v1.4h-2.3c-0.5,0-0.9,0.1-1.2,0.2c-0.3,0.1-0.5,0.4-0.7,0.8
		c-0.1,0.4-0.2,1-0.2,1.7c0,0.7,0.1,1.3,0.2,1.7c0.1,0.4,0.4,0.6,0.7,0.8c0.3,0.1,0.7,0.2,1.2,0.2h2.4v1.4c-0.3,0.1-0.6,0.2-0.9,0.2
		c-0.4,0.1-0.7,0.1-1.1,0.2C261.3,173.8,260.9,173.8,260.5,173.8z M247,172.1c0.1,0,0.2,0,0.4,0c0.1,0,0.3-0.1,0.4-0.1
		c0.1,0,0.3-0.1,0.4-0.1c0.1,0,0.2-0.1,0.3-0.1c0.1,0,0.1-0.1,0.2-0.1v-2l-1.5,0.1c-0.4,0-0.7,0.1-0.9,0.3c-0.2,0.2-0.3,0.4-0.3,0.8
		v0.4c0,0.2,0,0.4,0.1,0.5c0.1,0.1,0.2,0.2,0.4,0.3C246.6,172.1,246.8,172.1,247,172.1z M245.7,173.8c-0.7,0-1.2-0.2-1.6-0.6
		c-0.4-0.4-0.6-0.9-0.6-1.6v-0.8c0-0.7,0.2-1.2,0.7-1.6c0.5-0.4,1.2-0.6,2.2-0.6h2.2v-0.6c0-0.3,0-0.5-0.1-0.7
		c-0.1-0.2-0.3-0.3-0.5-0.4c-0.3-0.1-0.7-0.1-1.2-0.1h-2.6v-1.4c0.4-0.1,0.9-0.2,1.5-0.3c0.6-0.1,1.2-0.1,2-0.1
		c0.7,0,1.4,0.1,1.9,0.3c0.5,0.2,0.9,0.5,1.2,0.9c0.3,0.4,0.4,1,0.4,1.8v6h-1.9l-0.4-0.9c-0.1,0.1-0.2,0.2-0.4,0.3
		c-0.2,0.1-0.4,0.2-0.7,0.3c-0.3,0.1-0.6,0.2-0.9,0.3C246.4,173.7,246.1,173.8,245.7,173.8z M237.3,173.7v-8.8h1.9l0.6,1.3
		c0.3-0.4,0.7-0.7,1.1-1c0.4-0.3,0.9-0.4,1.4-0.4c0.1,0,0.2,0,0.4,0c0.1,0,0.2,0,0.4,0.1v2.5c-0.2,0-0.3,0-0.5-0.1
		c-0.2,0-0.4,0-0.5,0c-0.3,0-0.6,0-0.9,0.1c-0.3,0.1-0.5,0.2-0.7,0.3c-0.2,0.1-0.4,0.3-0.6,0.5v5.5H237.3z M231.4,172.1
		c0.1,0,0.2,0,0.4,0c0.1,0,0.3-0.1,0.4-0.1c0.1,0,0.3-0.1,0.4-0.1s0.2-0.1,0.3-0.1c0.1,0,0.1-0.1,0.2-0.1v-2l-1.5,0.1
		c-0.4,0-0.7,0.1-0.9,0.3c-0.2,0.2-0.3,0.4-0.3,0.8v0.4c0,0.2,0,0.4,0.1,0.5c0.1,0.1,0.2,0.2,0.4,0.3
		C231,172.1,231.2,172.1,231.4,172.1z M230.1,173.8c-0.7,0-1.2-0.2-1.6-0.6c-0.4-0.4-0.6-0.9-0.6-1.6v-0.8c0-0.7,0.2-1.2,0.7-1.6
		c0.5-0.4,1.2-0.6,2.2-0.6h2.2v-0.6c0-0.3,0-0.5-0.1-0.7c-0.1-0.2-0.3-0.3-0.5-0.4c-0.3-0.1-0.7-0.1-1.2-0.1h-2.6v-1.4
		c0.4-0.1,0.9-0.2,1.5-0.3c0.6-0.1,1.2-0.1,2-0.1c0.7,0,1.4,0.1,1.9,0.3c0.5,0.2,0.9,0.5,1.2,0.9c0.3,0.4,0.4,1,0.4,1.8v6h-1.9
		l-0.4-0.9c-0.1,0.1-0.2,0.2-0.4,0.3c-0.2,0.1-0.4,0.2-0.7,0.3c-0.3,0.1-0.6,0.2-0.9,0.3C230.8,173.7,230.5,173.8,230.1,173.8z
		 M222.8,171.8c0.3,0,0.5-0.1,0.7-0.2c0.2-0.1,0.4-0.4,0.5-0.7c0.1-0.4,0.2-0.9,0.2-1.6c0-0.7-0.1-1.2-0.2-1.5
		c-0.1-0.4-0.3-0.6-0.5-0.8c-0.2-0.2-0.5-0.2-0.8-0.2c-0.3,0-0.6,0.1-0.9,0.2c-0.3,0.1-0.5,0.2-0.7,0.3v4.2c0.2,0.1,0.5,0.2,0.8,0.3
		C222.2,171.8,222.5,171.8,222.8,171.8z M218.7,177.6v-12.7h2l0.4,0.8c0.2-0.2,0.4-0.3,0.7-0.5c0.3-0.1,0.5-0.3,0.8-0.4
		c0.3-0.1,0.6-0.1,0.9-0.1c0.5,0,1,0.1,1.4,0.3c0.4,0.2,0.7,0.5,1,0.9c0.3,0.4,0.4,0.9,0.6,1.4c0.1,0.6,0.2,1.2,0.2,1.9
		c0,0.9-0.1,1.7-0.3,2.4c-0.2,0.7-0.5,1.2-1,1.5c-0.5,0.4-1.1,0.5-1.9,0.5c-0.4,0-0.8,0-1.3-0.1c-0.4-0.1-0.8-0.2-1.2-0.4v4.3H218.7
		z M206.4,173.7l3.6-9.7h-5.2v-2.4h7.6l0.6,1l-4,11.1H206.4z M196.8,174.9l4.6-13.8h2.5l-4.6,13.8H196.8z M192.6,173.7v-2.6h-5.3
		l-0.5-1.1l3.9-8.4h2.5l-3.5,7.5h2.9v-2.4l0.5-1.4h1.9v3.8h1.2v1.7l-1.2,0.4v2.6H192.6z M177.6,173.7v-1.9l4-4
		c0.3-0.3,0.6-0.6,0.8-0.9c0.2-0.3,0.4-0.5,0.5-0.8c0.1-0.3,0.2-0.6,0.2-0.9c0-0.3-0.1-0.5-0.2-0.8c-0.1-0.2-0.3-0.4-0.6-0.5
		c-0.3-0.1-0.6-0.2-1.1-0.2h-3.4v-1.9c0.5-0.1,1.1-0.2,1.7-0.3c0.6-0.1,1.4-0.1,2.1-0.1c0.9,0,1.7,0.1,2.2,0.4
		c0.5,0.3,0.9,0.6,1.2,1.1c0.2,0.5,0.3,1.1,0.3,1.8c0,0.5-0.1,1-0.2,1.5s-0.4,0.9-0.6,1.3c-0.3,0.4-0.6,0.8-1.1,1.2l-2.7,2.7h5v2.2
		H177.6z M165.5,169h3l-1.5-5.3L165.5,169z M161.7,173.7l3.8-12.1h3.1l3.8,12.1h-2.5l-0.8-2.5h-4.1l-0.8,2.5H161.7z M157.9,173.7
		v-12.1h2.4v12.1H157.9z M152.4,173.8c-0.7,0-1.3-0.1-1.9-0.2c-0.5-0.2-1-0.5-1.4-0.9c-0.4-0.4-0.7-1.1-0.9-1.9
		c-0.2-0.8-0.3-1.9-0.3-3.2c0-1.3,0.1-2.3,0.3-3.1c0.2-0.8,0.5-1.4,0.9-1.9s0.8-0.8,1.4-0.9c0.5-0.2,1.2-0.3,1.9-0.3
		c0.5,0,1.1,0,1.5,0.1c0.5,0.1,0.9,0.1,1.3,0.2c0.4,0.1,0.7,0.2,1,0.3v1.9c-0.2,0-0.5-0.1-0.8-0.1c-0.3,0-0.7-0.1-1.1-0.1
		c-0.4,0-0.9,0-1.3,0c-0.5,0-0.8,0.1-1.2,0.2c-0.3,0.1-0.6,0.3-0.8,0.6c-0.2,0.3-0.3,0.7-0.4,1.2c-0.1,0.5-0.1,1.2-0.1,2
		c0,0.8,0,1.5,0.1,2c0.1,0.5,0.2,0.9,0.4,1.2c0.2,0.3,0.4,0.5,0.8,0.6c0.3,0.1,0.7,0.2,1.2,0.2c0.8,0,1.5,0,2,0
		c0.5,0,0.9-0.1,1.3-0.1v1.9c-0.3,0.1-0.6,0.2-1,0.3c-0.4,0.1-0.8,0.1-1.3,0.2C153.5,173.8,153,173.8,152.4,173.8z M136.9,173.7
		v-12.1h1.9l5.1,8v-8h2.4v12.1h-1.9l-5.1-8v8H136.9z M130,173.8c-0.3,0-0.6,0-0.9-0.1c-0.3,0-0.7-0.2-1-0.3
		c-0.3-0.2-0.6-0.4-0.8-0.8c-0.2-0.4-0.3-0.8-0.3-1.5v-6.8c0-0.5,0.1-1,0.2-1.3c0.2-0.4,0.4-0.6,0.7-0.9c0.3-0.2,0.6-0.4,0.9-0.4
		c0.3-0.1,0.6-0.1,1-0.1c0.8,0,1.5,0,2.2,0c0.6,0,1.2,0,1.7,0.1c0.5,0,1,0.1,1.4,0.1v2h-4.5c-0.3,0-0.6,0.1-0.8,0.2
		c-0.2,0.2-0.3,0.4-0.3,0.8v1.8l4.8,0.1v1.9l-4.8,0.1v1.7c0,0.3,0,0.5,0.1,0.7c0.1,0.2,0.2,0.3,0.4,0.3c0.2,0.1,0.3,0.1,0.5,0.1h4.6
		v2c-0.5,0.1-1,0.1-1.6,0.1c-0.6,0-1.2,0.1-1.8,0.1C131.1,173.8,130.5,173.8,130,173.8z M120.1,173.7v-9.9h-3.3v-2.2h9.1v2.2h-3.3
		v9.9H120.1z M111.6,173.8c-0.3,0-0.6,0-1,0c-0.3,0-0.7,0-1-0.1c-0.3,0-0.7-0.1-1-0.1c-0.3,0-0.6-0.1-0.8-0.2v-1.9
		c0.3,0,0.7,0.1,1.1,0.1c0.4,0,0.8,0,1.3,0c0.4,0,0.9,0,1.3,0c0.4,0,0.8,0,1.1-0.1c0.3-0.1,0.5-0.2,0.7-0.4c0.2-0.2,0.2-0.4,0.2-0.7
		v-0.4c0-0.4-0.1-0.6-0.3-0.8c-0.2-0.2-0.5-0.3-0.9-0.3h-1c-1.2,0-2-0.3-2.7-0.8c-0.6-0.5-0.9-1.4-0.9-2.6v-0.6c0-1.2,0.3-2,1-2.6
		c0.7-0.5,1.6-0.8,2.9-0.8c0.4,0,0.9,0,1.3,0.1c0.4,0,0.9,0.1,1.3,0.2c0.4,0.1,0.8,0.1,1.1,0.2v1.9c-0.5,0-1.1-0.1-1.7-0.1
		c-0.6,0-1.2,0-1.7,0c-0.4,0-0.7,0-1,0.1c-0.3,0.1-0.5,0.2-0.7,0.4c-0.2,0.2-0.2,0.5-0.2,0.8v0.3c0,0.4,0.1,0.7,0.4,0.9
		c0.2,0.2,0.6,0.3,1.1,0.3h1.2c0.7,0,1.3,0.1,1.8,0.4c0.5,0.3,0.8,0.6,1.1,1.1c0.2,0.5,0.4,1,0.4,1.6v0.7c0,0.9-0.2,1.7-0.5,2.2
		c-0.4,0.5-0.8,0.8-1.5,1C113.1,173.7,112.4,173.8,111.6,173.8z M103.4,173.7v-12.1h2.4v12.1H103.4z M97.4,173.8c-0.3,0-0.6,0-1,0
		c-0.3,0-0.7,0-1-0.1c-0.3,0-0.7-0.1-1-0.1c-0.3,0-0.6-0.1-0.8-0.2v-1.9c0.3,0,0.7,0.1,1.1,0.1c0.4,0,0.8,0,1.3,0c0.4,0,0.9,0,1.3,0
		c0.4,0,0.8,0,1.1-0.1c0.3-0.1,0.5-0.2,0.7-0.4c0.2-0.2,0.2-0.4,0.2-0.7v-0.4c0-0.4-0.1-0.6-0.3-0.8c-0.2-0.2-0.5-0.3-0.9-0.3h-1
		c-1.2,0-2-0.3-2.7-0.8c-0.6-0.5-0.9-1.4-0.9-2.6v-0.6c0-1.2,0.3-2,1-2.6c0.7-0.5,1.6-0.8,2.9-0.8c0.4,0,0.9,0,1.3,0.1
		c0.4,0,0.9,0.1,1.3,0.2c0.4,0.1,0.8,0.1,1.1,0.2v1.9c-0.5,0-1.1-0.1-1.7-0.1c-0.6,0-1.2,0-1.7,0c-0.4,0-0.7,0-1,0.1
		c-0.3,0.1-0.5,0.2-0.7,0.4c-0.2,0.2-0.2,0.5-0.2,0.8v0.3c0,0.4,0.1,0.7,0.4,0.9c0.2,0.2,0.6,0.3,1.1,0.3h1.2c0.7,0,1.3,0.1,1.8,0.4
		c0.5,0.3,0.8,0.6,1.1,1.1c0.2,0.5,0.4,1,0.4,1.6v0.7c0,0.9-0.2,1.7-0.5,2.2c-0.4,0.5-0.8,0.8-1.5,1C99,173.7,98.2,173.8,97.4,173.8
		z M85.6,169h3l-1.5-5.3L85.6,169z M81.8,173.7l3.8-12.1h3.1l3.8,12.1h-2.5l-0.8-2.5H85l-0.8,2.5H81.8z"/>
	<path class="st6" d="M394.8,173.8c-0.3,0-0.6,0-0.9,0c-0.3,0-0.6,0-0.9-0.1c-0.3,0-0.6-0.1-0.9-0.1c-0.3,0-0.5-0.1-0.7-0.2V172h3.9
		c0.2,0,0.4,0,0.6-0.1s0.3-0.1,0.3-0.2c0.1-0.1,0.1-0.3,0.1-0.5V171c0-0.2-0.1-0.4-0.2-0.5c-0.1-0.1-0.4-0.2-0.8-0.2h-1.4
		c-0.5,0-1-0.1-1.4-0.2c-0.4-0.2-0.7-0.4-1-0.8c-0.2-0.3-0.4-0.8-0.4-1.4v-0.5c0-0.6,0.1-1,0.3-1.4c0.2-0.4,0.6-0.7,1.1-0.9
		c0.5-0.2,1.2-0.3,2.1-0.3c0.4,0,0.7,0,1.2,0.1c0.4,0,0.8,0.1,1.2,0.1c0.4,0.1,0.7,0.1,0.9,0.2v1.4h-3.7c-0.3,0-0.6,0.1-0.7,0.2
		c-0.2,0.1-0.2,0.3-0.2,0.6v0.3c0,0.2,0,0.3,0.1,0.4c0.1,0.1,0.2,0.2,0.4,0.2c0.2,0,0.4,0.1,0.6,0.1h1.4c0.9,0,1.5,0.2,2,0.6
		c0.4,0.4,0.6,1,0.6,1.7v0.8c0,0.6-0.1,1.1-0.4,1.4c-0.3,0.3-0.7,0.6-1.2,0.7C396.2,173.7,395.6,173.8,394.8,173.8"/>
	<path class="st28" d="M48.8,328.8h382.5c8.5,0,15.5,7,15.5,15.5v18.1c0,8.5-7,15.5-15.5,15.5H48.8c-8.5,0-15.5-7-15.5-15.5v-18.1
		C33.3,335.8,40.3,328.8,48.8,328.8"/>
	<path class="st6" d="M355.3,357.7v-8.8h2.4v8.8H355.3z M355.6,347.6c-0.2,0-0.3-0.1-0.3-0.3v-1.6c0-0.2,0.1-0.3,0.3-0.3h1.9
		c0.1,0,0.2,0,0.2,0.1c0.1,0.1,0.1,0.1,0.1,0.2v1.6c0,0.2-0.1,0.3-0.3,0.3H355.6z M340,357.7v-8.8h2l0.4,0.9
		c0.4-0.3,0.8-0.5,1.3-0.7c0.5-0.2,1-0.3,1.7-0.3c0.6,0,1,0.1,1.4,0.3c0.4,0.2,0.6,0.5,0.8,0.9c0.3-0.2,0.5-0.4,0.9-0.6
		c0.3-0.2,0.7-0.3,1.1-0.5c0.4-0.1,0.8-0.2,1.1-0.2c0.7,0,1.3,0.1,1.7,0.4c0.4,0.3,0.7,0.6,0.9,1.1c0.2,0.5,0.2,1.1,0.2,1.7v5.7H351
		v-5.5c0-0.3-0.1-0.5-0.2-0.7c-0.1-0.2-0.2-0.3-0.4-0.4c-0.2-0.1-0.4-0.1-0.7-0.1c-0.3,0-0.7,0.1-1,0.2c-0.3,0.1-0.6,0.3-0.9,0.5
		c0,0.1,0,0.2,0,0.3c0,0.1,0,0.2,0,0.3v5.4h-2.4v-5.5c0-0.3-0.1-0.5-0.2-0.7c-0.1-0.2-0.2-0.3-0.4-0.4c-0.2-0.1-0.4-0.1-0.7-0.1
		c-0.2,0-0.5,0-0.7,0.1c-0.2,0.1-0.4,0.1-0.6,0.2c-0.2,0.1-0.4,0.2-0.5,0.3v6.1H340z M335.7,357.7v-8.8h2.4v8.8H335.7z M336,347.6
		c-0.2,0-0.3-0.1-0.3-0.3v-1.6c0-0.2,0.1-0.3,0.3-0.3h1.9c0.1,0,0.2,0,0.2,0.1c0.1,0.1,0.1,0.1,0.1,0.2v1.6c0,0.2-0.1,0.3-0.3,0.3
		H336z M326,357.7v-8.8h2l0.4,0.9c0.3-0.3,0.7-0.5,1.2-0.7c0.5-0.2,1-0.3,1.5-0.3c0.7,0,1.3,0.1,1.7,0.4c0.4,0.3,0.7,0.7,0.8,1.1
		c0.2,0.5,0.2,1,0.2,1.6v5.8h-2.4v-5.5c0-0.3-0.1-0.5-0.2-0.7c-0.1-0.2-0.2-0.3-0.4-0.4c-0.2-0.1-0.4-0.1-0.7-0.1
		c-0.2,0-0.5,0-0.7,0.1c-0.2,0.1-0.4,0.1-0.6,0.2c-0.2,0.1-0.4,0.2-0.5,0.3v6.1H326z M319.3,352.7h2c0.3,0,0.6-0.1,0.7-0.2
		c0.2-0.1,0.2-0.4,0.2-0.7c0-0.3,0-0.6-0.1-0.8c-0.1-0.2-0.3-0.3-0.5-0.4c-0.2-0.1-0.5-0.1-0.8-0.1c-0.4,0-0.7,0.1-0.9,0.2
		c-0.2,0.1-0.4,0.3-0.5,0.7C319.4,351.7,319.3,352.1,319.3,352.7z M320.9,357.8c-1,0-1.7-0.1-2.3-0.4c-0.6-0.3-1-0.7-1.3-1.4
		c-0.3-0.7-0.4-1.6-0.4-2.7c0-1.2,0.1-2.1,0.4-2.8c0.2-0.7,0.6-1.1,1.2-1.4c0.6-0.3,1.3-0.4,2.3-0.4c0.9,0,1.6,0.1,2.1,0.3
		c0.5,0.2,0.9,0.5,1.1,0.9c0.2,0.4,0.4,1.1,0.4,1.9c0,0.6-0.1,1.1-0.4,1.4c-0.2,0.3-0.6,0.6-1,0.7c-0.4,0.1-0.9,0.2-1.5,0.2h-2.2
		c0,0.4,0.1,0.8,0.2,1.1c0.1,0.3,0.3,0.5,0.6,0.6c0.3,0.1,0.8,0.2,1.4,0.2h2.6v1.4c-0.4,0.1-0.9,0.2-1.4,0.3
		C322.2,357.7,321.6,357.8,320.9,357.8z M314.2,357.7c-0.7,0-1.2-0.1-1.6-0.3c-0.4-0.2-0.7-0.5-0.9-1c-0.2-0.5-0.3-1.1-0.2-1.9
		l0.1-3.7h-1.4v-1.6l1.5-0.4l0.3-2.5h1.9v2.5h2.1v1.9h-2.1v3.7c0,0.2,0,0.4,0.1,0.6c0,0.2,0.1,0.3,0.2,0.4c0.1,0.1,0.2,0.2,0.3,0.2
		c0.1,0,0.2,0.1,0.3,0.1l1.1,0.1v1.8H314.2z M301.1,357.7v-8.8h2l0.4,0.9c0.3-0.3,0.7-0.5,1.2-0.7c0.5-0.2,1-0.3,1.5-0.3
		c0.7,0,1.3,0.1,1.7,0.4c0.4,0.3,0.7,0.7,0.8,1.1c0.2,0.5,0.2,1,0.2,1.6v5.8h-2.4v-5.5c0-0.3-0.1-0.5-0.2-0.7
		c-0.1-0.2-0.2-0.3-0.4-0.4c-0.2-0.1-0.4-0.1-0.7-0.1c-0.2,0-0.5,0-0.7,0.1c-0.2,0.1-0.4,0.1-0.6,0.2c-0.2,0.1-0.4,0.2-0.5,0.3v6.1
		H301.1z M295.2,356.1c0.1,0,0.2,0,0.4,0c0.1,0,0.3-0.1,0.4-0.1c0.1,0,0.3-0.1,0.4-0.1c0.1,0,0.2-0.1,0.3-0.1c0.1,0,0.1-0.1,0.2-0.1
		v-2l-1.5,0.1c-0.4,0-0.7,0.1-0.9,0.3c-0.2,0.2-0.3,0.4-0.3,0.8v0.4c0,0.2,0,0.4,0.1,0.5c0.1,0.1,0.2,0.2,0.4,0.3
		C294.8,356.1,295,356.1,295.2,356.1z M293.9,357.8c-0.7,0-1.2-0.2-1.6-0.6c-0.4-0.4-0.6-0.9-0.6-1.6v-0.8c0-0.7,0.2-1.2,0.7-1.6
		c0.5-0.4,1.2-0.6,2.2-0.6h2.2v-0.6c0-0.3,0-0.5-0.1-0.7c-0.1-0.2-0.3-0.3-0.5-0.4c-0.3-0.1-0.7-0.1-1.2-0.1h-2.6v-1.4
		c0.4-0.1,0.9-0.2,1.5-0.3c0.6-0.1,1.2-0.1,2-0.1c0.7,0,1.4,0.1,1.9,0.3c0.5,0.2,0.9,0.5,1.2,0.9c0.3,0.4,0.4,1,0.4,1.8v6h-1.9
		l-0.4-0.9c-0.1,0.1-0.2,0.2-0.4,0.3c-0.2,0.1-0.4,0.2-0.7,0.3c-0.3,0.1-0.6,0.2-0.9,0.3C294.7,357.7,294.3,357.8,293.9,357.8z
		 M277.6,357.7l1.4-12.1h2.3l2.8,9.3l2.8-9.3h2.3l1.4,12.1h-2.3l-1-8.9l0.4,0l-2.4,8.9h-2.3l-2.4-8.9l0.4,0l-1,8.9H277.6z
		 M267,361.6l0.9-3.9c-0.5,0-0.9-0.1-1.3-0.3c-0.4-0.2-0.7-0.5-0.9-0.8c-0.2-0.3-0.4-0.8-0.6-1.3l-1.7-6.4h2.5l1.4,5.9
		c0.1,0.2,0.1,0.4,0.2,0.5c0.1,0.1,0.2,0.2,0.3,0.3c0.1,0,0.2,0.1,0.3,0.1c0.1,0,0.1,0,0.2,0l1.6-6.8h2.5l-2.6,11.1l-0.8,1.6H267z
		 M250.3,357.7v-8.8h2l0.4,0.9c0.3-0.3,0.7-0.5,1.2-0.7c0.5-0.2,1-0.3,1.5-0.3c0.7,0,1.3,0.1,1.7,0.4c0.4,0.3,0.7,0.7,0.8,1.1
		c0.2,0.5,0.2,1,0.2,1.6v5.8h-2.4v-5.5c0-0.3-0.1-0.5-0.2-0.7c-0.1-0.2-0.2-0.3-0.4-0.4c-0.2-0.1-0.4-0.1-0.7-0.1
		c-0.2,0-0.5,0-0.7,0.1c-0.2,0.1-0.4,0.1-0.6,0.2c-0.2,0.1-0.4,0.2-0.5,0.3v6.1H250.3z M243.9,347.4l1.4-2.3h1.9l-1.9,2.3H243.9z
		 M244.6,355.8c0.3,0,0.5,0,0.7-0.1c0.2-0.1,0.4-0.2,0.5-0.3c0.1-0.2,0.2-0.4,0.3-0.8c0.1-0.3,0.1-0.8,0.1-1.4c0-0.6,0-1-0.1-1.4
		c-0.1-0.3-0.2-0.6-0.3-0.8c-0.1-0.2-0.3-0.3-0.5-0.3c-0.2-0.1-0.5-0.1-0.7-0.1c-0.3,0-0.5,0-0.7,0.1c-0.2,0.1-0.4,0.2-0.5,0.3
		c-0.1,0.2-0.2,0.4-0.3,0.8c-0.1,0.3-0.1,0.8-0.1,1.4c0,0.6,0,1,0.1,1.4c0.1,0.3,0.2,0.6,0.3,0.8c0.1,0.2,0.3,0.3,0.5,0.3
		C244.1,355.8,244.3,355.8,244.6,355.8z M244.6,357.8c-0.7,0-1.3-0.1-1.9-0.2c-0.5-0.1-0.9-0.4-1.3-0.7c-0.3-0.3-0.6-0.8-0.7-1.4
		c-0.1-0.6-0.2-1.3-0.2-2.1c0-0.9,0.1-1.6,0.2-2.2c0.1-0.6,0.4-1,0.7-1.4c0.3-0.3,0.7-0.6,1.3-0.7c0.5-0.1,1.1-0.2,1.8-0.2
		c0.7,0,1.4,0.1,1.9,0.2c0.5,0.1,0.9,0.4,1.3,0.7c0.3,0.3,0.6,0.8,0.7,1.4c0.1,0.6,0.2,1.3,0.2,2.2c0,0.9-0.1,1.6-0.2,2.2
		c-0.1,0.6-0.4,1-0.7,1.4c-0.3,0.3-0.7,0.6-1.3,0.7C246,357.7,245.4,357.8,244.6,357.8z M236.6,357.7v-8.8h2.4v8.8H236.6z
		 M236.9,347.6c-0.2,0-0.3-0.1-0.3-0.3v-1.6c0-0.2,0.1-0.3,0.3-0.3h1.9c0.1,0,0.2,0,0.2,0.1c0.1,0.1,0.1,0.1,0.1,0.2v1.6
		c0,0.2-0.1,0.3-0.3,0.3H236.9z M232,357.8c-0.5,0-1-0.1-1.5-0.2c-0.5-0.1-0.8-0.4-1.2-0.7c-0.3-0.3-0.6-0.8-0.8-1.4
		c-0.2-0.6-0.3-1.3-0.3-2.2c0-0.9,0.1-1.6,0.2-2.2c0.2-0.6,0.4-1.1,0.7-1.4c0.3-0.3,0.7-0.6,1.2-0.7c0.5-0.1,1-0.2,1.6-0.2
		c0.5,0,1,0,1.5,0.1c0.5,0.1,1,0.2,1.5,0.3v1.4h-2.3c-0.5,0-0.9,0.1-1.2,0.2c-0.3,0.1-0.5,0.4-0.7,0.8c-0.1,0.4-0.2,1-0.2,1.7
		c0,0.7,0.1,1.3,0.2,1.7c0.1,0.4,0.4,0.6,0.7,0.8c0.3,0.1,0.7,0.2,1.2,0.2h2.4v1.4c-0.3,0.1-0.6,0.2-0.9,0.2
		c-0.4,0.1-0.7,0.1-1.1,0.2C232.7,357.8,232.3,357.8,232,357.8z M222.6,356.1c0.1,0,0.2,0,0.4,0c0.1,0,0.3-0.1,0.4-0.1
		c0.1,0,0.3-0.1,0.4-0.1c0.1,0,0.2-0.1,0.3-0.1c0.1,0,0.1-0.1,0.2-0.1v-2l-1.5,0.1c-0.4,0-0.7,0.1-0.9,0.3c-0.2,0.2-0.3,0.4-0.3,0.8
		v0.4c0,0.2,0,0.4,0.1,0.5c0.1,0.1,0.2,0.2,0.4,0.3C222.3,356.1,222.4,356.1,222.6,356.1z M221.4,357.8c-0.7,0-1.2-0.2-1.6-0.6
		c-0.4-0.4-0.6-0.9-0.6-1.6v-0.8c0-0.7,0.2-1.2,0.7-1.6c0.5-0.4,1.2-0.6,2.2-0.6h2.2v-0.6c0-0.3,0-0.5-0.1-0.7
		c-0.1-0.2-0.3-0.3-0.5-0.4c-0.3-0.1-0.7-0.1-1.2-0.1h-2.6v-1.4c0.4-0.1,0.9-0.2,1.5-0.3c0.6-0.1,1.2-0.1,2-0.1
		c0.7,0,1.4,0.1,1.9,0.3c0.5,0.2,0.9,0.5,1.2,0.9c0.3,0.4,0.4,1,0.4,1.8v6h-1.9l-0.4-0.9c-0.1,0.1-0.2,0.2-0.4,0.3
		c-0.2,0.1-0.4,0.2-0.7,0.3c-0.3,0.1-0.6,0.2-0.9,0.3C222.1,357.7,221.8,357.8,221.4,357.8z M212.9,357.7v-8.8h1.9l0.6,1.3
		c0.3-0.4,0.7-0.7,1.1-1c0.4-0.3,0.9-0.4,1.4-0.4c0.1,0,0.2,0,0.4,0c0.1,0,0.2,0,0.4,0.1v2.5c-0.2,0-0.3,0-0.5-0.1
		c-0.2,0-0.4,0-0.5,0c-0.3,0-0.6,0-0.9,0.1c-0.3,0.1-0.5,0.2-0.7,0.3c-0.2,0.1-0.4,0.3-0.6,0.5v5.5H212.9z M207,356.1
		c0.1,0,0.2,0,0.4,0c0.1,0,0.3-0.1,0.4-0.1c0.1,0,0.3-0.1,0.4-0.1c0.1,0,0.2-0.1,0.3-0.1c0.1,0,0.1-0.1,0.2-0.1v-2l-1.5,0.1
		c-0.4,0-0.7,0.1-0.9,0.3c-0.2,0.2-0.3,0.4-0.3,0.8v0.4c0,0.2,0,0.4,0.1,0.5s0.2,0.2,0.4,0.3C206.7,356.1,206.8,356.1,207,356.1z
		 M205.8,357.8c-0.7,0-1.2-0.2-1.6-0.6c-0.4-0.4-0.6-0.9-0.6-1.6v-0.8c0-0.7,0.2-1.2,0.7-1.6c0.5-0.4,1.2-0.6,2.2-0.6h2.2v-0.6
		c0-0.3,0-0.5-0.1-0.7c-0.1-0.2-0.3-0.3-0.5-0.4c-0.3-0.1-0.7-0.1-1.2-0.1h-2.6v-1.4c0.4-0.1,0.9-0.2,1.5-0.3c0.6-0.1,1.2-0.1,2-0.1
		c0.7,0,1.4,0.1,1.9,0.3c0.5,0.2,0.9,0.5,1.2,0.9c0.3,0.4,0.4,1,0.4,1.8v6h-1.9l-0.4-0.9c-0.1,0.1-0.2,0.2-0.4,0.3
		c-0.2,0.1-0.4,0.2-0.7,0.3c-0.3,0.1-0.6,0.2-0.9,0.3C206.5,357.7,206.2,357.8,205.8,357.8z M198.4,355.8c0.3,0,0.5-0.1,0.7-0.2
		c0.2-0.1,0.4-0.4,0.5-0.7c0.1-0.4,0.2-0.9,0.2-1.6c0-0.7-0.1-1.2-0.2-1.5c-0.1-0.4-0.3-0.6-0.5-0.8c-0.2-0.2-0.5-0.2-0.8-0.2
		c-0.3,0-0.6,0.1-0.9,0.2c-0.3,0.1-0.5,0.2-0.7,0.3v4.2c0.2,0.1,0.5,0.2,0.8,0.3C197.8,355.8,198.1,355.8,198.4,355.8z M194.4,361.6
		v-12.7h2l0.4,0.8c0.2-0.2,0.4-0.3,0.7-0.5c0.3-0.1,0.5-0.3,0.8-0.4c0.3-0.1,0.6-0.1,0.9-0.1c0.5,0,1,0.1,1.4,0.3
		c0.4,0.2,0.7,0.5,1,0.9c0.3,0.4,0.4,0.9,0.6,1.4c0.1,0.6,0.2,1.2,0.2,1.9c0,0.9-0.1,1.7-0.3,2.4c-0.2,0.7-0.5,1.2-1,1.5
		c-0.5,0.4-1.1,0.5-1.9,0.5c-0.4,0-0.8,0-1.3-0.1c-0.4-0.1-0.8-0.2-1.2-0.4v4.3H194.4z M187.7,352.7h2c0.3,0,0.6-0.1,0.7-0.2
		c0.2-0.1,0.2-0.4,0.2-0.7c0-0.3,0-0.6-0.1-0.8c-0.1-0.2-0.3-0.3-0.5-0.4c-0.2-0.1-0.5-0.1-0.8-0.1c-0.4,0-0.7,0.1-0.9,0.2
		c-0.2,0.1-0.4,0.3-0.5,0.7C187.7,351.7,187.7,352.1,187.7,352.7z M189.3,357.8c-1,0-1.7-0.1-2.3-0.4c-0.6-0.3-1-0.7-1.3-1.4
		c-0.3-0.7-0.4-1.6-0.4-2.7c0-1.2,0.1-2.1,0.4-2.8c0.2-0.7,0.6-1.1,1.2-1.4c0.6-0.3,1.3-0.4,2.3-0.4c0.9,0,1.6,0.1,2.1,0.3
		c0.5,0.2,0.9,0.5,1.1,0.9c0.2,0.4,0.4,1.1,0.4,1.9c0,0.6-0.1,1.1-0.4,1.4c-0.2,0.3-0.6,0.6-1,0.7c-0.4,0.1-0.9,0.2-1.5,0.2h-2.2
		c0,0.4,0.1,0.8,0.2,1.1c0.1,0.3,0.3,0.5,0.6,0.6c0.3,0.1,0.8,0.2,1.4,0.2h2.6v1.4c-0.4,0.1-0.9,0.2-1.4,0.3
		C190.6,357.7,190,357.8,189.3,357.8z M178,351.3h2.2c0.2,0,0.4,0,0.6-0.1c0.2-0.1,0.3-0.2,0.5-0.3c0.1-0.1,0.2-0.3,0.3-0.5
		c0.1-0.2,0.1-0.5,0.1-0.9c0-0.3,0-0.6-0.1-0.8c-0.1-0.2-0.2-0.4-0.3-0.5c-0.1-0.1-0.3-0.2-0.5-0.3c-0.2,0-0.4-0.1-0.6-0.1H178
		V351.3z M175.6,357.7v-12.1h5c0.5,0,0.9,0.1,1.3,0.2c0.4,0.1,0.8,0.3,1.1,0.6c0.3,0.3,0.6,0.7,0.7,1.2c0.2,0.5,0.3,1.1,0.3,1.9
		c0,0.6-0.1,1-0.2,1.4c-0.1,0.4-0.3,0.7-0.4,1c-0.2,0.3-0.4,0.5-0.6,0.6c-0.2,0.2-0.5,0.3-0.7,0.4l2.3,4.9h-2.5l-1.9-4.5
		c-0.1,0-0.3,0-0.5,0c-0.2,0-0.3,0-0.5,0c-0.2,0-0.3,0-0.5,0c-0.2,0-0.3,0-0.5,0v4.5H175.6z M164.5,352.7h2c0.3,0,0.6-0.1,0.7-0.2
		c0.2-0.1,0.2-0.4,0.2-0.7c0-0.3,0-0.6-0.1-0.8c-0.1-0.2-0.3-0.3-0.5-0.4c-0.2-0.1-0.5-0.1-0.8-0.1c-0.4,0-0.7,0.1-0.9,0.2
		c-0.2,0.1-0.4,0.3-0.5,0.7C164.6,351.7,164.5,352.1,164.5,352.7z M166.1,357.8c-1,0-1.7-0.1-2.3-0.4c-0.6-0.3-1-0.7-1.3-1.4
		c-0.3-0.7-0.4-1.6-0.4-2.7c0-1.2,0.1-2.1,0.4-2.8c0.2-0.7,0.6-1.1,1.2-1.4c0.6-0.3,1.3-0.4,2.3-0.4c0.9,0,1.6,0.1,2.1,0.3
		c0.5,0.2,0.9,0.5,1.1,0.9c0.2,0.4,0.4,1.1,0.4,1.9c0,0.6-0.1,1.1-0.4,1.4c-0.2,0.3-0.6,0.6-1,0.7c-0.4,0.1-0.9,0.2-1.5,0.2h-2.2
		c0,0.4,0.1,0.8,0.2,1.1c0.1,0.3,0.3,0.5,0.6,0.6c0.3,0.1,0.8,0.2,1.4,0.2h2.6v1.4c-0.4,0.1-0.9,0.2-1.4,0.3
		C167.4,357.7,166.8,357.8,166.1,357.8z M156.6,355.8c0.3,0,0.6-0.1,0.9-0.2c0.3-0.1,0.5-0.2,0.7-0.3v-4.4c-0.2-0.1-0.4-0.2-0.7-0.2
		c-0.2-0.1-0.5-0.1-0.8-0.1c-0.4,0-0.7,0.1-1,0.2c-0.2,0.1-0.4,0.4-0.5,0.8c-0.1,0.4-0.2,0.9-0.2,1.7c0,0.7,0.1,1.2,0.2,1.6
		c0.1,0.4,0.3,0.6,0.5,0.8C155.9,355.8,156.2,355.8,156.6,355.8z M155.8,357.8c-0.7,0-1.3-0.1-1.7-0.4c-0.5-0.3-0.8-0.8-1.1-1.4
		c-0.2-0.6-0.4-1.5-0.4-2.6c0-1.1,0.1-2,0.3-2.7c0.2-0.7,0.5-1.2,1-1.5c0.5-0.3,1.1-0.5,2-0.5c0.4,0,0.8,0,1.2,0.1
		c0.4,0.1,0.7,0.2,1,0.3v-4h2.4v12.5h-2l-0.4-0.8c-0.2,0.2-0.4,0.3-0.7,0.5c-0.3,0.1-0.5,0.3-0.8,0.3
		C156.4,357.7,156.1,357.8,155.8,357.8z M143,355.8c0.3,0,0.5,0,0.7-0.1c0.2-0.1,0.4-0.2,0.5-0.3c0.1-0.2,0.2-0.4,0.3-0.8
		c0.1-0.3,0.1-0.8,0.1-1.4c0-0.6,0-1-0.1-1.4c-0.1-0.3-0.2-0.6-0.3-0.8c-0.1-0.2-0.3-0.3-0.5-0.3c-0.2-0.1-0.5-0.1-0.7-0.1
		c-0.3,0-0.5,0-0.7,0.1c-0.2,0.1-0.4,0.2-0.5,0.3c-0.1,0.2-0.2,0.4-0.3,0.8c-0.1,0.3-0.1,0.8-0.1,1.4c0,0.6,0,1,0.1,1.4
		c0.1,0.3,0.2,0.6,0.3,0.8c0.1,0.2,0.3,0.3,0.5,0.3C142.5,355.8,142.7,355.8,143,355.8z M143,357.8c-0.7,0-1.3-0.1-1.9-0.2
		c-0.5-0.1-0.9-0.4-1.3-0.7c-0.3-0.3-0.6-0.8-0.7-1.4c-0.1-0.6-0.2-1.3-0.2-2.1c0-0.9,0.1-1.6,0.2-2.2c0.1-0.6,0.4-1,0.7-1.4
		c0.3-0.3,0.7-0.6,1.3-0.7c0.5-0.1,1.1-0.2,1.8-0.2c0.7,0,1.4,0.1,1.9,0.2c0.5,0.1,0.9,0.4,1.3,0.7c0.3,0.3,0.6,0.8,0.7,1.4
		c0.1,0.6,0.2,1.3,0.2,2.2c0,0.9-0.1,1.6-0.2,2.2c-0.1,0.6-0.4,1-0.7,1.4c-0.3,0.3-0.7,0.6-1.3,0.7
		C144.4,357.7,143.8,357.8,143,357.8z M135,357.7v-8.8h2.4v8.8H135z M135.3,347.6c-0.2,0-0.3-0.1-0.3-0.3v-1.6
		c0-0.2,0.1-0.3,0.3-0.3h1.9c0.1,0,0.2,0,0.2,0.1c0.1,0.1,0.1,0.1,0.1,0.2v1.6c0,0.2-0.1,0.3-0.3,0.3H135.3z M130.4,357.8
		c-0.5,0-1-0.1-1.5-0.2c-0.5-0.1-0.8-0.4-1.2-0.7c-0.3-0.3-0.6-0.8-0.8-1.4c-0.2-0.6-0.3-1.3-0.3-2.2c0-0.9,0.1-1.6,0.2-2.2
		c0.2-0.6,0.4-1.1,0.7-1.4c0.3-0.3,0.7-0.6,1.2-0.7c0.5-0.1,1-0.2,1.6-0.2c0.5,0,1,0,1.5,0.1c0.5,0.1,1,0.2,1.5,0.3v1.4h-2.3
		c-0.5,0-0.9,0.1-1.2,0.2c-0.3,0.1-0.5,0.4-0.7,0.8c-0.1,0.4-0.2,1-0.2,1.7c0,0.7,0.1,1.3,0.2,1.7c0.1,0.4,0.4,0.6,0.7,0.8
		c0.3,0.1,0.7,0.2,1.2,0.2h2.4v1.4c-0.3,0.1-0.6,0.2-0.9,0.2c-0.4,0.1-0.7,0.1-1.1,0.2C131.1,357.8,130.7,357.8,130.4,357.8z
		 M122.6,357.7v-8.8h2.4v8.8H122.6z M122.9,347.6c-0.2,0-0.3-0.1-0.3-0.3v-1.6c0-0.2,0.1-0.3,0.3-0.3h1.9c0.1,0,0.2,0,0.2,0.1
		c0.1,0.1,0.1,0.1,0.1,0.2v1.6c0,0.2-0.1,0.3-0.3,0.3H122.9z M115.6,357.7l-2.9-8.8h2.5l1.9,6.6l1.9-6.6h2.5l-3.1,8.8H115.6z
		 M106.5,357.7v-8.8h1.9l0.6,1.3c0.3-0.4,0.7-0.7,1.1-1c0.4-0.3,0.9-0.4,1.4-0.4c0.1,0,0.2,0,0.4,0c0.1,0,0.2,0,0.4,0.1v2.5
		c-0.2,0-0.3,0-0.5-0.1c-0.2,0-0.4,0-0.5,0c-0.3,0-0.6,0-0.9,0.1c-0.3,0.1-0.5,0.2-0.7,0.3c-0.2,0.1-0.4,0.3-0.6,0.5v5.5H106.5z
		 M99.8,352.7h2c0.3,0,0.6-0.1,0.7-0.2c0.2-0.1,0.2-0.4,0.2-0.7c0-0.3,0-0.6-0.1-0.8c-0.1-0.2-0.3-0.3-0.5-0.4
		c-0.2-0.1-0.5-0.1-0.8-0.1c-0.4,0-0.7,0.1-0.9,0.2c-0.2,0.1-0.4,0.3-0.5,0.7C99.8,351.7,99.8,352.1,99.8,352.7z M101.4,357.8
		c-1,0-1.7-0.1-2.3-0.4c-0.6-0.3-1-0.7-1.3-1.4c-0.3-0.7-0.4-1.6-0.4-2.7c0-1.2,0.1-2.1,0.4-2.8c0.2-0.7,0.6-1.1,1.2-1.4
		c0.6-0.3,1.3-0.4,2.3-0.4c0.9,0,1.6,0.1,2.1,0.3c0.5,0.2,0.9,0.5,1.1,0.9c0.2,0.4,0.4,1.1,0.4,1.9c0,0.6-0.1,1.1-0.4,1.4
		c-0.2,0.3-0.6,0.6-1,0.7c-0.4,0.1-0.9,0.2-1.5,0.2h-2.2c0,0.4,0.1,0.8,0.2,1.1c0.1,0.3,0.3,0.5,0.6,0.6c0.3,0.1,0.8,0.2,1.4,0.2
		h2.6v1.4c-0.4,0.1-0.9,0.2-1.4,0.3C102.7,357.7,102.1,357.8,101.4,357.8z M91.8,357.8c-0.3,0-0.6,0-1,0c-0.3,0-0.7,0-1-0.1
		s-0.7-0.1-1-0.1c-0.3,0-0.6-0.1-0.8-0.2v-1.9c0.3,0,0.7,0.1,1.1,0.1c0.4,0,0.8,0,1.3,0c0.4,0,0.9,0,1.3,0c0.4,0,0.8,0,1.1-0.1
		c0.3-0.1,0.5-0.2,0.7-0.4c0.2-0.2,0.2-0.4,0.2-0.7v-0.4c0-0.4-0.1-0.6-0.3-0.8s-0.5-0.3-0.9-0.3h-1c-1.2,0-2-0.3-2.7-0.8
		c-0.6-0.5-0.9-1.4-0.9-2.6v-0.6c0-1.2,0.3-2,1-2.6c0.7-0.5,1.6-0.8,2.9-0.8c0.4,0,0.9,0,1.3,0.1c0.4,0,0.9,0.1,1.3,0.2
		c0.4,0.1,0.8,0.1,1.1,0.2v1.9c-0.5,0-1.1-0.1-1.7-0.1c-0.6,0-1.2,0-1.7,0c-0.4,0-0.7,0-1,0.1c-0.3,0.1-0.5,0.2-0.7,0.4
		c-0.2,0.2-0.2,0.5-0.2,0.8v0.3c0,0.4,0.1,0.7,0.4,0.9c0.2,0.2,0.6,0.3,1.1,0.3h1.2c0.7,0,1.3,0.1,1.8,0.4c0.5,0.3,0.8,0.6,1.1,1.1
		c0.2,0.5,0.4,1,0.4,1.6v0.7c0,0.9-0.2,1.7-0.5,2.2c-0.4,0.5-0.8,0.8-1.5,1C93.4,357.7,92.7,357.8,91.8,357.8z"/>
	<path class="st6" d="M388.2,355.8c0.3,0,0.5,0,0.7-0.1c0.2-0.1,0.4-0.2,0.5-0.3c0.1-0.2,0.2-0.4,0.3-0.8c0.1-0.3,0.1-0.8,0.1-1.4
		c0-0.6,0-1-0.1-1.4c-0.1-0.3-0.2-0.6-0.3-0.8c-0.1-0.2-0.3-0.3-0.5-0.3c-0.2-0.1-0.5-0.1-0.7-0.1c-0.3,0-0.5,0-0.7,0.1
		c-0.2,0.1-0.4,0.2-0.5,0.3c-0.1,0.2-0.2,0.4-0.3,0.8c-0.1,0.3-0.1,0.8-0.1,1.4c0,0.6,0,1,0.1,1.4c0.1,0.3,0.2,0.6,0.3,0.8
		c0.1,0.2,0.3,0.3,0.5,0.3C387.7,355.8,388,355.8,388.2,355.8 M388.2,357.8c-0.7,0-1.3-0.1-1.9-0.2c-0.5-0.1-0.9-0.4-1.3-0.7
		c-0.3-0.3-0.6-0.8-0.7-1.4c-0.1-0.6-0.2-1.3-0.2-2.1c0-0.9,0.1-1.6,0.2-2.2c0.1-0.6,0.4-1,0.7-1.4c0.3-0.3,0.7-0.6,1.3-0.7
		c0.5-0.1,1.1-0.2,1.8-0.2c0.7,0,1.4,0.1,1.9,0.2c0.5,0.1,0.9,0.4,1.3,0.7c0.3,0.3,0.6,0.8,0.7,1.4c0.1,0.6,0.2,1.3,0.2,2.2
		c0,0.9-0.1,1.6-0.2,2.2c-0.1,0.6-0.4,1-0.7,1.4s-0.7,0.6-1.3,0.7C389.6,357.7,389,357.8,388.2,357.8z M381.4,357.7
		c-0.7,0-1.2-0.1-1.6-0.3c-0.4-0.2-0.7-0.5-0.9-1c-0.2-0.5-0.3-1.1-0.2-1.9l0.1-3.7h-1.4v-1.6l1.5-0.4l0.3-2.5h1.9v2.5h2.1v1.9H381
		v3.7c0,0.2,0,0.4,0.1,0.6c0,0.2,0.1,0.3,0.2,0.4c0.1,0.1,0.2,0.2,0.3,0.2c0.1,0,0.2,0.1,0.3,0.1l1.1,0.1v1.8H381.4z M368.4,357.7
		v-8.8h2l0.4,0.9c0.3-0.3,0.7-0.5,1.2-0.7c0.5-0.2,1-0.3,1.5-0.3c0.7,0,1.3,0.1,1.7,0.4c0.4,0.3,0.7,0.7,0.8,1.1
		c0.2,0.5,0.2,1,0.2,1.6v5.8h-2.4v-5.5c0-0.3-0.1-0.5-0.2-0.7c-0.1-0.2-0.2-0.3-0.4-0.4c-0.2-0.1-0.4-0.1-0.7-0.1
		c-0.2,0-0.5,0-0.7,0.1c-0.2,0.1-0.4,0.1-0.6,0.2c-0.2,0.1-0.4,0.2-0.5,0.3v6.1H368.4z M361.7,352.7h2c0.3,0,0.6-0.1,0.7-0.2
		c0.2-0.1,0.2-0.4,0.2-0.7c0-0.3,0-0.6-0.1-0.8c-0.1-0.2-0.3-0.3-0.5-0.4c-0.2-0.1-0.5-0.1-0.8-0.1c-0.4,0-0.7,0.1-0.9,0.2
		c-0.2,0.1-0.4,0.3-0.5,0.7C361.7,351.7,361.7,352.1,361.7,352.7z M363.3,357.8c-1,0-1.7-0.1-2.3-0.4c-0.6-0.3-1-0.7-1.3-1.4
		c-0.3-0.7-0.4-1.6-0.4-2.7c0-1.2,0.1-2.1,0.4-2.8c0.2-0.7,0.6-1.1,1.2-1.4c0.6-0.3,1.3-0.4,2.3-0.4c0.9,0,1.6,0.1,2.1,0.3
		c0.5,0.2,0.9,0.5,1.1,0.9c0.2,0.4,0.4,1.1,0.4,1.9c0,0.6-0.1,1.1-0.4,1.4c-0.2,0.3-0.6,0.6-1,0.7c-0.4,0.1-0.9,0.2-1.5,0.2h-2.2
		c0,0.4,0.1,0.8,0.2,1.1c0.1,0.3,0.3,0.5,0.6,0.6c0.3,0.1,0.8,0.2,1.4,0.2h2.6v1.4c-0.4,0.1-0.9,0.2-1.4,0.3
		C364.6,357.7,364,357.8,363.3,357.8z"/>
	<path class="st28" d="M48.8,518.6h382.5c8.5,0,15.5,7,15.5,15.5v18.1c0,8.5-7,15.5-15.5,15.5H48.8c-8.5,0-15.5-7-15.5-15.5v-18.1
		C33.3,525.6,40.3,518.6,48.8,518.6"/>
	<path class="st6" d="M283.8,547.4v-8.8h2l0.4,0.9c0.4-0.3,0.8-0.5,1.3-0.7c0.5-0.2,1-0.3,1.7-0.3c0.6,0,1,0.1,1.4,0.3
		c0.4,0.2,0.6,0.5,0.8,0.9c0.3-0.2,0.5-0.4,0.9-0.6c0.3-0.2,0.7-0.3,1.1-0.5c0.4-0.1,0.8-0.2,1.1-0.2c0.7,0,1.3,0.1,1.7,0.4
		c0.4,0.3,0.7,0.6,0.9,1.1c0.2,0.5,0.2,1.1,0.2,1.7v5.7h-2.4V542c0-0.3-0.1-0.5-0.2-0.7c-0.1-0.2-0.2-0.3-0.4-0.4
		c-0.2-0.1-0.4-0.1-0.7-0.1c-0.3,0-0.7,0.1-1,0.2c-0.3,0.1-0.6,0.3-0.9,0.5c0,0.1,0,0.2,0,0.3c0,0.1,0,0.2,0,0.3v5.4h-2.4V542
		c0-0.3-0.1-0.5-0.2-0.7c-0.1-0.2-0.2-0.3-0.4-0.4c-0.2-0.1-0.4-0.1-0.7-0.1c-0.2,0-0.5,0-0.7,0.1c-0.2,0.1-0.4,0.1-0.6,0.2
		c-0.2,0.1-0.4,0.2-0.5,0.3v6.1H283.8z M277.8,545.8c0.1,0,0.2,0,0.4,0c0.1,0,0.3-0.1,0.4-0.1c0.1,0,0.3-0.1,0.4-0.1
		c0.1,0,0.2-0.1,0.3-0.1c0.1,0,0.1-0.1,0.2-0.1v-2l-1.5,0.1c-0.4,0-0.7,0.1-0.9,0.3c-0.2,0.2-0.3,0.4-0.3,0.8v0.4
		c0,0.2,0,0.4,0.1,0.5c0.1,0.1,0.2,0.2,0.4,0.3C277.5,545.8,277.6,545.8,277.8,545.8z M276.6,547.5c-0.7,0-1.2-0.2-1.6-0.6
		c-0.4-0.4-0.6-0.9-0.6-1.6v-0.8c0-0.7,0.2-1.2,0.7-1.6c0.5-0.4,1.2-0.6,2.2-0.6h2.2v-0.6c0-0.3,0-0.5-0.1-0.7
		c-0.1-0.2-0.3-0.3-0.5-0.4c-0.3-0.1-0.7-0.1-1.2-0.1H275V539c0.4-0.1,0.9-0.2,1.5-0.3c0.6-0.1,1.2-0.1,2-0.1c0.7,0,1.4,0.1,1.9,0.3
		c0.5,0.2,0.9,0.5,1.2,0.9c0.3,0.4,0.4,1,0.4,1.8v6H280l-0.4-0.9c-0.1,0.1-0.2,0.2-0.4,0.3c-0.2,0.1-0.4,0.2-0.7,0.3
		c-0.3,0.1-0.6,0.2-0.9,0.3C277.3,547.5,277,547.5,276.6,547.5z M268.1,547.4v-8.8h1.9l0.6,1.3c0.3-0.4,0.7-0.7,1.1-1
		c0.4-0.3,0.9-0.4,1.4-0.4c0.1,0,0.2,0,0.4,0c0.1,0,0.2,0,0.4,0.1v2.5c-0.2,0-0.3,0-0.5-0.1c-0.2,0-0.4,0-0.5,0
		c-0.3,0-0.6,0-0.9,0.1c-0.3,0.1-0.5,0.2-0.7,0.3c-0.2,0.1-0.4,0.3-0.6,0.5v5.5H268.1z M261.8,542.9h0.9c0.3,0,0.6-0.1,0.8-0.2
		c0.2-0.1,0.3-0.2,0.4-0.4c0.1-0.2,0.1-0.4,0.1-0.6c0-0.3,0-0.6-0.1-0.7c-0.1-0.2-0.2-0.3-0.4-0.4c-0.2-0.1-0.4-0.1-0.7-0.1h-0.9
		c-0.4,0-0.7,0.1-0.9,0.3c-0.2,0.2-0.3,0.5-0.3,0.9c0,0.4,0.1,0.7,0.3,0.9C261.2,542.8,261.5,542.9,261.8,542.9z M260.9,551.5
		c-0.6,0-1.1-0.1-1.5-0.2c-0.4-0.2-0.8-0.4-1-0.7c-0.3-0.3-0.4-0.7-0.4-1.2v-0.3c0-0.5,0.1-0.9,0.4-1.2c0.3-0.3,0.6-0.6,1-0.8
		c0.4-0.2,0.9-0.3,1.4-0.3l0.7,0.8c-0.2,0-0.5,0-0.6,0.1c-0.2,0.1-0.3,0.2-0.4,0.3s-0.2,0.3-0.2,0.5v0.2c0,0.3,0.1,0.6,0.3,0.7
		c0.2,0.2,0.5,0.2,0.9,0.2h1.7c0.4,0,0.7-0.1,1-0.2c0.2-0.2,0.4-0.4,0.4-0.7v-0.3c0-0.2,0-0.4-0.1-0.5c-0.1-0.1-0.2-0.2-0.4-0.3
		c-0.2-0.1-0.4-0.1-0.7-0.1h-1.9c-1,0-1.7-0.2-2.2-0.5c-0.5-0.4-0.7-0.8-0.7-1.4c0-0.4,0.1-0.8,0.4-1.1c0.3-0.3,0.6-0.5,1.1-0.6
		c-0.3-0.2-0.6-0.4-0.8-0.7c-0.2-0.3-0.4-0.6-0.4-0.9c-0.1-0.3-0.1-0.6-0.1-1c0-0.6,0.1-1.2,0.4-1.6c0.3-0.4,0.7-0.7,1.2-0.9
		c0.5-0.2,1.2-0.3,2-0.3h4.8v1.3l-1.3,0.2c0.1,0.1,0.2,0.2,0.3,0.4c0.1,0.1,0.2,0.3,0.3,0.6c0.1,0.2,0.1,0.5,0.1,0.9
		c0,0.5-0.1,1-0.3,1.4c-0.2,0.4-0.6,0.7-1,1c-0.5,0.2-1.1,0.4-1.8,0.4h-1.6c-0.3,0-0.5,0-0.7,0.1c-0.2,0.1-0.3,0.2-0.3,0.5
		c0,0.2,0.1,0.3,0.2,0.4c0.2,0.1,0.3,0.1,0.5,0.1h2.4c0.7,0,1.3,0.1,1.7,0.3c0.5,0.2,0.8,0.5,1.1,0.8c0.3,0.4,0.4,0.9,0.4,1.5v0.2
		c0,0.9-0.3,1.5-0.8,2c-0.5,0.5-1.4,0.7-2.5,0.7H260.9z M252.7,545.8c0.1,0,0.2,0,0.4,0c0.1,0,0.3-0.1,0.4-0.1
		c0.1,0,0.3-0.1,0.4-0.1c0.1,0,0.2-0.1,0.3-0.1c0.1,0,0.1-0.1,0.2-0.1v-2l-1.5,0.1c-0.4,0-0.7,0.1-0.9,0.3c-0.2,0.2-0.3,0.4-0.3,0.8
		v0.4c0,0.2,0,0.4,0.1,0.5c0.1,0.1,0.2,0.2,0.4,0.3C252.3,545.8,252.5,545.8,252.7,545.8z M251.5,547.5c-0.7,0-1.2-0.2-1.6-0.6
		c-0.4-0.4-0.6-0.9-0.6-1.6v-0.8c0-0.7,0.2-1.2,0.7-1.6c0.5-0.4,1.2-0.6,2.2-0.6h2.2v-0.6c0-0.3,0-0.5-0.1-0.7
		c-0.1-0.2-0.3-0.3-0.5-0.4c-0.3-0.1-0.7-0.1-1.2-0.1h-2.6V539c0.4-0.1,0.9-0.2,1.5-0.3c0.6-0.1,1.2-0.1,2-0.1
		c0.7,0,1.4,0.1,1.9,0.3c0.5,0.2,0.9,0.5,1.2,0.9c0.3,0.4,0.4,1,0.4,1.8v6h-1.9l-0.4-0.9c-0.1,0.1-0.2,0.2-0.4,0.3
		c-0.2,0.1-0.4,0.2-0.7,0.3c-0.3,0.1-0.6,0.2-0.9,0.3C252.2,547.5,251.8,547.5,251.5,547.5z M245.3,547.4v-8.8h2.4v8.8H245.3z
		 M245.6,537.3c-0.2,0-0.3-0.1-0.3-0.3v-1.6c0-0.2,0.1-0.3,0.3-0.3h1.9c0.1,0,0.2,0,0.2,0.1c0.1,0.1,0.1,0.1,0.1,0.2v1.6
		c0,0.2-0.1,0.3-0.3,0.3H245.6z M239.5,545.6c0.3,0,0.6-0.1,0.9-0.2c0.3-0.1,0.5-0.2,0.7-0.3v-4.4c-0.2-0.1-0.4-0.2-0.7-0.2
		c-0.2-0.1-0.5-0.1-0.8-0.1c-0.4,0-0.7,0.1-1,0.2c-0.2,0.1-0.4,0.4-0.5,0.8c-0.1,0.4-0.2,0.9-0.2,1.7c0,0.7,0.1,1.2,0.2,1.6
		c0.1,0.4,0.3,0.6,0.5,0.8C238.8,545.5,239.1,545.6,239.5,545.6z M238.7,547.5c-0.7,0-1.3-0.1-1.7-0.4c-0.5-0.3-0.8-0.8-1.1-1.4
		c-0.2-0.6-0.4-1.5-0.4-2.6c0-1.1,0.1-2,0.3-2.7c0.2-0.7,0.5-1.2,1-1.5c0.5-0.3,1.1-0.5,2-0.5c0.4,0,0.8,0,1.2,0.1
		c0.4,0.1,0.7,0.2,1,0.3v-4h2.4v12.5h-2l-0.4-0.8c-0.2,0.2-0.4,0.3-0.7,0.5c-0.3,0.1-0.5,0.3-0.8,0.3
		C239.2,547.5,239,547.5,238.7,547.5z M223.3,548.6l4.6-13.8h2.5l-4.6,13.8H223.3z M214.7,547.5c-0.3,0-0.6,0-0.9,0
		c-0.3,0-0.6,0-0.9-0.1s-0.6-0.1-0.9-0.1c-0.3,0-0.5-0.1-0.7-0.2v-1.4h3.9c0.2,0,0.4,0,0.6-0.1c0.1,0,0.3-0.1,0.3-0.2
		c0.1-0.1,0.1-0.3,0.1-0.5v-0.3c0-0.2-0.1-0.4-0.2-0.5c-0.1-0.1-0.4-0.2-0.8-0.2h-1.4c-0.5,0-1-0.1-1.4-0.2c-0.4-0.2-0.7-0.4-1-0.8
		s-0.4-0.8-0.4-1.4v-0.5c0-0.6,0.1-1,0.3-1.4c0.2-0.4,0.6-0.7,1.1-0.9c0.5-0.2,1.2-0.3,2.1-0.3c0.4,0,0.7,0,1.2,0.1
		c0.4,0,0.8,0.1,1.2,0.1c0.4,0.1,0.7,0.1,0.9,0.2v1.4h-3.7c-0.3,0-0.6,0.1-0.7,0.2c-0.2,0.1-0.2,0.3-0.2,0.6v0.3
		c0,0.2,0,0.3,0.1,0.4c0.1,0.1,0.2,0.2,0.4,0.2c0.2,0,0.4,0.1,0.6,0.1h1.4c0.9,0,1.5,0.2,2,0.6c0.4,0.4,0.6,1,0.6,1.7v0.8
		c0,0.6-0.1,1.1-0.4,1.4c-0.3,0.3-0.7,0.6-1.2,0.7C216.1,547.5,215.4,547.5,214.7,547.5z M205.6,545.8c0.1,0,0.2,0,0.4,0
		c0.1,0,0.3-0.1,0.4-0.1c0.1,0,0.3-0.1,0.4-0.1c0.1,0,0.2-0.1,0.3-0.1c0.1,0,0.1-0.1,0.2-0.1v-2l-1.5,0.1c-0.4,0-0.7,0.1-0.9,0.3
		c-0.2,0.2-0.3,0.4-0.3,0.8v0.4c0,0.2,0,0.4,0.1,0.5c0.1,0.1,0.2,0.2,0.4,0.3C205.2,545.8,205.4,545.8,205.6,545.8z M204.3,547.5
		c-0.7,0-1.2-0.2-1.6-0.6c-0.4-0.4-0.6-0.9-0.6-1.6v-0.8c0-0.7,0.2-1.2,0.7-1.6c0.5-0.4,1.2-0.6,2.2-0.6h2.2v-0.6
		c0-0.3,0-0.5-0.1-0.7c-0.1-0.2-0.3-0.3-0.5-0.4c-0.3-0.1-0.7-0.1-1.2-0.1h-2.6V539c0.4-0.1,0.9-0.2,1.5-0.3c0.6-0.1,1.2-0.1,2-0.1
		c0.7,0,1.4,0.1,1.9,0.3c0.5,0.2,0.9,0.5,1.2,0.9c0.3,0.4,0.4,1,0.4,1.8v6h-1.9l-0.4-0.9c-0.1,0.1-0.2,0.2-0.4,0.3
		c-0.2,0.1-0.4,0.2-0.7,0.3c-0.3,0.1-0.6,0.2-0.9,0.3C205.1,547.5,204.7,547.5,204.3,547.5z M197.9,547.5c-0.5,0-1-0.1-1.5-0.2
		c-0.5-0.1-0.8-0.4-1.2-0.7c-0.3-0.3-0.6-0.8-0.8-1.4c-0.2-0.6-0.3-1.3-0.3-2.2c0-0.9,0.1-1.6,0.2-2.2c0.2-0.6,0.4-1.1,0.7-1.4
		c0.3-0.3,0.7-0.6,1.2-0.7c0.5-0.1,1-0.2,1.6-0.2c0.5,0,1,0,1.5,0.1c0.5,0.1,1,0.2,1.5,0.3v1.4h-2.3c-0.5,0-0.9,0.1-1.2,0.2
		c-0.3,0.1-0.5,0.4-0.7,0.8c-0.1,0.4-0.2,1-0.2,1.7c0,0.7,0.1,1.3,0.2,1.7c0.1,0.4,0.4,0.6,0.7,0.8c0.3,0.1,0.7,0.2,1.2,0.2h2.4v1.4
		c-0.3,0.1-0.6,0.2-0.9,0.2c-0.4,0.1-0.7,0.1-1.1,0.2C198.7,547.5,198.3,547.5,197.9,547.5z M190.2,547.4v-8.8h2.4v8.8H190.2z
		 M190.5,537.3c-0.2,0-0.3-0.1-0.3-0.3v-1.6c0-0.2,0.1-0.3,0.3-0.3h1.9c0.1,0,0.2,0,0.2,0.1c0.1,0.1,0.1,0.1,0.1,0.2v1.6
		c0,0.2-0.1,0.3-0.3,0.3H190.5z M187.1,547.4c-0.7,0-1.2-0.1-1.6-0.3c-0.4-0.2-0.7-0.5-0.9-1c-0.2-0.5-0.3-1.1-0.2-1.9l0.1-3.7H183
		V539l1.5-0.4l0.3-2.5h1.9v2.5h2.1v1.9h-2.1v3.7c0,0.2,0,0.4,0.1,0.6c0,0.2,0.1,0.3,0.2,0.4c0.1,0.1,0.2,0.2,0.3,0.2
		c0.1,0,0.2,0.1,0.3,0.1l1.1,0.1v1.8H187.1z M177.6,537.1l1.4-2.3h1.9l-1.9,2.3H177.6z M177.9,545.8c0.1,0,0.2,0,0.4,0
		c0.1,0,0.3-0.1,0.4-0.1c0.1,0,0.3-0.1,0.4-0.1c0.1,0,0.2-0.1,0.3-0.1c0.1,0,0.1-0.1,0.2-0.1v-2l-1.5,0.1c-0.4,0-0.7,0.1-0.9,0.3
		c-0.2,0.2-0.3,0.4-0.3,0.8v0.4c0,0.2,0,0.4,0.1,0.5c0.1,0.1,0.2,0.2,0.4,0.3C177.5,545.8,177.7,545.8,177.9,545.8z M176.7,547.5
		c-0.7,0-1.2-0.2-1.6-0.6c-0.4-0.4-0.6-0.9-0.6-1.6v-0.8c0-0.7,0.2-1.2,0.7-1.6c0.5-0.4,1.2-0.6,2.2-0.6h2.2v-0.6
		c0-0.3,0-0.5-0.1-0.7c-0.1-0.2-0.3-0.3-0.5-0.4c-0.3-0.1-0.7-0.1-1.2-0.1H175V539c0.4-0.1,0.9-0.2,1.5-0.3c0.6-0.1,1.2-0.1,2-0.1
		c0.7,0,1.4,0.1,1.9,0.3c0.5,0.2,0.9,0.5,1.2,0.9c0.3,0.4,0.4,1,0.4,1.8v6h-1.9l-0.4-0.9c-0.1,0.1-0.2,0.2-0.4,0.3
		c-0.2,0.1-0.4,0.2-0.7,0.3c-0.3,0.1-0.6,0.2-0.9,0.3C177.4,547.5,177,547.5,176.7,547.5z M159.5,547.4v-8.8h2l0.4,0.9
		c0.4-0.3,0.8-0.5,1.3-0.7c0.5-0.2,1-0.3,1.7-0.3c0.6,0,1,0.1,1.4,0.3c0.4,0.2,0.6,0.5,0.8,0.9c0.3-0.2,0.5-0.4,0.9-0.6
		c0.3-0.2,0.7-0.3,1.1-0.5c0.4-0.1,0.8-0.2,1.1-0.2c0.7,0,1.3,0.1,1.7,0.4c0.4,0.3,0.7,0.6,0.9,1.1c0.2,0.5,0.2,1.1,0.2,1.7v5.7
		h-2.4V542c0-0.3-0.1-0.5-0.2-0.7c-0.1-0.2-0.2-0.3-0.4-0.4c-0.2-0.1-0.4-0.1-0.7-0.1c-0.3,0-0.7,0.1-1,0.2
		c-0.3,0.1-0.6,0.3-0.9,0.5c0,0.1,0,0.2,0,0.3c0,0.1,0,0.2,0,0.3v5.4H165V542c0-0.3-0.1-0.5-0.2-0.7c-0.1-0.2-0.2-0.3-0.4-0.4
		c-0.2-0.1-0.4-0.1-0.7-0.1c-0.2,0-0.5,0-0.7,0.1c-0.2,0.1-0.4,0.1-0.6,0.2c-0.2,0.1-0.4,0.2-0.5,0.3v6.1H159.5z M152.6,547.4v-8.8
		h1.9l0.6,1.3c0.3-0.4,0.7-0.7,1.1-1c0.4-0.3,0.9-0.4,1.4-0.4c0.1,0,0.2,0,0.4,0c0.1,0,0.2,0,0.4,0.1v2.5c-0.2,0-0.3,0-0.5-0.1
		c-0.2,0-0.4,0-0.5,0c-0.3,0-0.6,0-0.9,0.1c-0.3,0.1-0.5,0.2-0.7,0.3c-0.2,0.1-0.4,0.3-0.6,0.5v5.5H152.6z M147,545.6
		c0.3,0,0.5,0,0.7-0.1c0.2-0.1,0.4-0.2,0.5-0.3c0.1-0.2,0.2-0.4,0.3-0.8c0.1-0.3,0.1-0.8,0.1-1.4c0-0.6,0-1-0.1-1.4
		c-0.1-0.3-0.2-0.6-0.3-0.8c-0.1-0.2-0.3-0.3-0.5-0.3c-0.2-0.1-0.5-0.1-0.7-0.1c-0.3,0-0.5,0-0.7,0.1c-0.2,0.1-0.4,0.2-0.5,0.3
		c-0.1,0.2-0.2,0.4-0.3,0.8c-0.1,0.3-0.1,0.8-0.1,1.4c0,0.6,0,1,0.1,1.4c0.1,0.3,0.2,0.6,0.3,0.8c0.1,0.2,0.3,0.3,0.5,0.3
		C146.4,545.6,146.7,545.6,147,545.6z M147,547.5c-0.7,0-1.3-0.1-1.9-0.2c-0.5-0.1-0.9-0.4-1.3-0.7c-0.3-0.3-0.6-0.8-0.7-1.4
		c-0.1-0.6-0.2-1.3-0.2-2.1c0-0.9,0.1-1.6,0.2-2.2c0.1-0.6,0.4-1,0.7-1.4c0.3-0.3,0.7-0.6,1.3-0.7c0.5-0.1,1.1-0.2,1.8-0.2
		c0.7,0,1.4,0.1,1.9,0.2c0.5,0.1,0.9,0.4,1.3,0.7c0.3,0.3,0.6,0.8,0.7,1.4c0.1,0.6,0.2,1.3,0.2,2.2c0,0.9-0.1,1.6-0.2,2.2
		c-0.1,0.6-0.4,1-0.7,1.4c-0.3,0.3-0.7,0.6-1.3,0.7C148.3,547.4,147.7,547.5,147,547.5z M137.4,547.4v-6.8h-1.2V539l1.2-0.4v-0.6
		c0-0.7,0.1-1.4,0.3-1.8c0.2-0.5,0.5-0.8,0.9-1c0.4-0.2,1-0.3,1.7-0.3c0.4,0,0.7,0,1,0.1c0.3,0.1,0.6,0.1,0.8,0.2v1.7h-1.3
		c-0.3,0-0.4,0-0.6,0.1c-0.1,0.1-0.2,0.2-0.3,0.4c-0.1,0.2-0.1,0.4-0.1,0.6v0.7h2.2v1.9h-2.2v6.8H137.4z M127,547.4v-8.8h2l0.4,0.9
		c0.3-0.3,0.7-0.5,1.2-0.7c0.5-0.2,1-0.3,1.5-0.3c0.7,0,1.3,0.1,1.7,0.4c0.4,0.3,0.7,0.7,0.8,1.1c0.2,0.5,0.2,1,0.2,1.6v5.8h-2.4
		V542c0-0.3-0.1-0.5-0.2-0.7c-0.1-0.2-0.2-0.3-0.4-0.4c-0.2-0.1-0.4-0.1-0.7-0.1c-0.2,0-0.5,0-0.7,0.1c-0.2,0.1-0.4,0.1-0.6,0.2
		c-0.2,0.1-0.4,0.2-0.5,0.3v6.1H127z M122.6,547.4v-12.1h2.4v12.1H122.6z M113.2,547.5c-0.3,0-0.6,0-0.9,0c-0.3,0-0.6,0-0.9-0.1
		c-0.3,0-0.6-0.1-0.9-0.1c-0.3,0-0.5-0.1-0.7-0.2v-1.4h3.9c0.2,0,0.4,0,0.6-0.1c0.1,0,0.3-0.1,0.3-0.2c0.1-0.1,0.1-0.3,0.1-0.5v-0.3
		c0-0.2-0.1-0.4-0.2-0.5c-0.1-0.1-0.4-0.2-0.8-0.2h-1.4c-0.5,0-1-0.1-1.4-0.2c-0.4-0.2-0.7-0.4-1-0.8c-0.2-0.3-0.4-0.8-0.4-1.4v-0.5
		c0-0.6,0.1-1,0.3-1.4c0.2-0.4,0.6-0.7,1.1-0.9c0.5-0.2,1.2-0.3,2.1-0.3c0.4,0,0.7,0,1.2,0.1c0.4,0,0.8,0.1,1.2,0.1
		c0.4,0.1,0.7,0.1,0.9,0.2v1.4h-3.7c-0.3,0-0.6,0.1-0.7,0.2c-0.2,0.1-0.2,0.3-0.2,0.6v0.3c0,0.2,0,0.3,0.1,0.4
		c0.1,0.1,0.2,0.2,0.4,0.2c0.2,0,0.4,0.1,0.6,0.1h1.4c0.9,0,1.5,0.2,2,0.6c0.4,0.4,0.6,1,0.6,1.7v0.8c0,0.6-0.1,1.1-0.4,1.4
		c-0.3,0.3-0.7,0.6-1.2,0.7C114.6,547.5,114,547.5,113.2,547.5z M103.3,542.5h2c0.3,0,0.6-0.1,0.7-0.2c0.2-0.1,0.2-0.4,0.2-0.7
		c0-0.3,0-0.6-0.1-0.8c-0.1-0.2-0.3-0.3-0.5-0.4c-0.2-0.1-0.5-0.1-0.8-0.1c-0.4,0-0.7,0.1-0.9,0.2c-0.2,0.1-0.4,0.3-0.5,0.7
		S103.3,541.9,103.3,542.5z M104.9,547.5c-1,0-1.7-0.1-2.3-0.4c-0.6-0.3-1-0.7-1.3-1.4c-0.3-0.7-0.4-1.6-0.4-2.7
		c0-1.2,0.1-2.1,0.4-2.8c0.2-0.7,0.6-1.1,1.2-1.4c0.6-0.3,1.3-0.4,2.3-0.4c0.9,0,1.6,0.1,2.1,0.3c0.5,0.2,0.9,0.5,1.1,0.9
		c0.2,0.4,0.4,1.1,0.4,1.9c0,0.6-0.1,1.1-0.4,1.4c-0.2,0.3-0.6,0.6-1,0.7c-0.4,0.1-0.9,0.2-1.5,0.2h-2.2c0,0.4,0.1,0.8,0.2,1.1
		c0.1,0.3,0.3,0.5,0.6,0.6c0.3,0.1,0.8,0.2,1.4,0.2h2.6v1.4c-0.4,0.1-0.9,0.2-1.4,0.3C106.2,547.5,105.6,547.5,104.9,547.5z
		 M95.4,545.6c0.3,0,0.6-0.1,0.9-0.2c0.3-0.1,0.5-0.2,0.7-0.3v-4.4c-0.2-0.1-0.4-0.2-0.7-0.2c-0.2-0.1-0.5-0.1-0.8-0.1
		c-0.4,0-0.7,0.1-1,0.2c-0.2,0.1-0.4,0.4-0.5,0.8c-0.1,0.4-0.2,0.9-0.2,1.7c0,0.7,0.1,1.2,0.2,1.6c0.1,0.4,0.3,0.6,0.5,0.8
		C94.7,545.5,95,545.6,95.4,545.6z M94.6,547.5c-0.7,0-1.3-0.1-1.7-0.4c-0.5-0.3-0.8-0.8-1.1-1.4c-0.2-0.6-0.4-1.5-0.4-2.6
		c0-1.1,0.1-2,0.3-2.7c0.2-0.7,0.5-1.2,1-1.5c0.5-0.3,1.1-0.5,2-0.5c0.4,0,0.8,0,1.2,0.1c0.4,0.1,0.7,0.2,1,0.3v-4h2.4v12.5h-2
		l-0.4-0.8c-0.2,0.2-0.4,0.3-0.7,0.5c-0.3,0.1-0.5,0.3-0.8,0.3C95.1,547.5,94.8,547.5,94.6,547.5z M85,542.5h2
		c0.3,0,0.6-0.1,0.7-0.2c0.2-0.1,0.2-0.4,0.2-0.7c0-0.3,0-0.6-0.1-0.8c-0.1-0.2-0.3-0.3-0.5-0.4c-0.2-0.1-0.5-0.1-0.8-0.1
		c-0.4,0-0.7,0.1-0.9,0.2c-0.2,0.1-0.4,0.3-0.5,0.7C85,541.4,85,541.9,85,542.5z M86.6,547.5c-1,0-1.7-0.1-2.3-0.4
		c-0.6-0.3-1-0.7-1.3-1.4c-0.3-0.7-0.4-1.6-0.4-2.7c0-1.2,0.1-2.1,0.4-2.8c0.2-0.7,0.6-1.1,1.2-1.4c0.6-0.3,1.3-0.4,2.3-0.4
		c0.9,0,1.6,0.1,2.1,0.3c0.5,0.2,0.9,0.5,1.1,0.9c0.2,0.4,0.4,1.1,0.4,1.9c0,0.6-0.1,1.1-0.4,1.4c-0.2,0.3-0.6,0.6-1,0.7
		c-0.4,0.1-0.9,0.2-1.5,0.2H85c0,0.4,0.1,0.8,0.2,1.1c0.1,0.3,0.3,0.5,0.6,0.6c0.3,0.1,0.8,0.2,1.4,0.2h2.6v1.4
		c-0.4,0.1-0.9,0.2-1.4,0.3C87.9,547.5,87.3,547.5,86.6,547.5z M75.3,541h2.2c0.2,0,0.4,0,0.6-0.1c0.2-0.1,0.3-0.2,0.5-0.3
		c0.1-0.1,0.2-0.3,0.3-0.5c0.1-0.2,0.1-0.5,0.1-0.9c0-0.3,0-0.6-0.1-0.8c-0.1-0.2-0.2-0.4-0.3-0.5c-0.1-0.1-0.3-0.2-0.5-0.3
		c-0.2,0-0.4-0.1-0.6-0.1h-2.2V541z M72.9,547.4v-12.1h5c0.5,0,0.9,0.1,1.3,0.2c0.4,0.1,0.8,0.3,1.1,0.6c0.3,0.3,0.6,0.7,0.7,1.2
		c0.2,0.5,0.3,1.1,0.3,1.9c0,0.6-0.1,1-0.2,1.4c-0.1,0.4-0.3,0.7-0.4,1c-0.2,0.3-0.4,0.5-0.6,0.6c-0.2,0.2-0.5,0.3-0.7,0.4l2.3,4.9
		h-2.5l-1.9-4.5c-0.1,0-0.3,0-0.5,0c-0.2,0-0.3,0-0.5,0s-0.3,0-0.5,0c-0.2,0-0.3,0-0.5,0v4.5H72.9z"/>
	<path class="st6" d="M403.2,545.8c0.1,0,0.2,0,0.4,0c0.1,0,0.3-0.1,0.4-0.1c0.1,0,0.3-0.1,0.4-0.1c0.1,0,0.2-0.1,0.3-0.1
		c0.1,0,0.1-0.1,0.2-0.1v-2l-1.5,0.1c-0.4,0-0.7,0.1-0.9,0.3c-0.2,0.2-0.3,0.4-0.3,0.8v0.4c0,0.2,0,0.4,0.1,0.5
		c0.1,0.1,0.2,0.2,0.4,0.3C402.8,545.8,403,545.8,403.2,545.8 M401.9,547.5c-0.7,0-1.2-0.2-1.6-0.6c-0.4-0.4-0.6-0.9-0.6-1.6v-0.8
		c0-0.7,0.2-1.2,0.7-1.6c0.5-0.4,1.2-0.6,2.2-0.6h2.2v-0.6c0-0.3,0-0.5-0.1-0.7c-0.1-0.2-0.3-0.3-0.5-0.4c-0.3-0.1-0.7-0.1-1.2-0.1
		h-2.6V539c0.4-0.1,0.9-0.2,1.5-0.3c0.6-0.1,1.2-0.1,2-0.1c0.7,0,1.4,0.1,1.9,0.3c0.5,0.2,0.9,0.5,1.2,0.9c0.3,0.4,0.4,1,0.4,1.8v6
		h-1.9l-0.4-0.9c-0.1,0.1-0.2,0.2-0.4,0.3c-0.2,0.1-0.4,0.2-0.7,0.3c-0.3,0.1-0.6,0.2-0.9,0.3C402.6,547.5,402.3,547.5,401.9,547.5z
		 M393.5,547.4v-8.8h1.9l0.6,1.3c0.3-0.4,0.7-0.7,1.1-1c0.4-0.3,0.9-0.4,1.4-0.4c0.1,0,0.2,0,0.4,0c0.1,0,0.2,0,0.4,0.1v2.5
		c-0.2,0-0.3,0-0.5-0.1c-0.2,0-0.4,0-0.5,0c-0.3,0-0.6,0-0.9,0.1c-0.3,0.1-0.5,0.2-0.7,0.3c-0.2,0.1-0.4,0.3-0.6,0.5v5.5H393.5z
		 M386.2,547.5c-0.8,0-1.4-0.2-1.9-0.7c-0.4-0.5-0.7-1.1-0.7-2v-6.2h2.4v5.5c0,0.5,0.1,0.8,0.4,1c0.2,0.2,0.5,0.3,0.9,0.3
		c0.3,0,0.6-0.1,0.9-0.2c0.3-0.1,0.6-0.3,0.9-0.5v-6.1h2.4v8.8h-2l-0.4-0.9c-0.4,0.3-0.8,0.5-1.4,0.7
		C387.3,547.4,386.8,547.5,386.2,547.5z M380.7,547.4c-0.7,0-1.2-0.1-1.6-0.3c-0.4-0.2-0.7-0.5-0.9-1c-0.2-0.5-0.3-1.1-0.2-1.9
		l0.1-3.7h-1.4V539l1.5-0.4l0.3-2.5h1.9v2.5h2.1v1.9h-2.1v3.7c0,0.2,0,0.4,0.1,0.6c0,0.2,0.1,0.3,0.2,0.4c0.1,0.1,0.2,0.2,0.3,0.2
		s0.2,0.1,0.3,0.1l1.1,0.1v1.8H380.7z M372.8,547.5c-0.5,0-1-0.1-1.5-0.2c-0.5-0.1-0.8-0.4-1.2-0.7c-0.3-0.3-0.6-0.8-0.8-1.4
		c-0.2-0.6-0.3-1.3-0.3-2.2c0-0.9,0.1-1.6,0.2-2.2c0.2-0.6,0.4-1.1,0.7-1.4c0.3-0.3,0.7-0.6,1.2-0.7c0.5-0.1,1-0.2,1.6-0.2
		c0.5,0,1,0,1.5,0.1c0.5,0.1,1,0.2,1.5,0.3v1.4h-2.3c-0.5,0-0.9,0.1-1.2,0.2s-0.5,0.4-0.7,0.8c-0.1,0.4-0.2,1-0.2,1.7
		c0,0.7,0.1,1.3,0.2,1.7c0.1,0.4,0.4,0.6,0.7,0.8c0.3,0.1,0.7,0.2,1.2,0.2h2.4v1.4c-0.3,0.1-0.6,0.2-0.9,0.2
		c-0.4,0.1-0.7,0.1-1.1,0.2C373.5,547.5,373.1,547.5,372.8,547.5z M362.1,547.5c-0.8,0-1.4-0.2-1.9-0.7c-0.4-0.5-0.7-1.1-0.7-2v-6.2
		h2.4v5.5c0,0.5,0.1,0.8,0.4,1c0.2,0.2,0.5,0.3,0.9,0.3c0.3,0,0.6-0.1,0.9-0.2c0.3-0.1,0.6-0.3,0.9-0.5v-6.1h2.4v8.8h-2l-0.4-0.9
		c-0.4,0.3-0.8,0.5-1.4,0.7C363.2,547.4,362.6,547.5,362.1,547.5z M352.7,547.4v-8.8h1.9l0.6,1.3c0.3-0.4,0.7-0.7,1.1-1
		c0.4-0.3,0.9-0.4,1.4-0.4c0.1,0,0.2,0,0.4,0c0.1,0,0.2,0,0.4,0.1v2.5c-0.2,0-0.3,0-0.5-0.1c-0.2,0-0.4,0-0.5,0
		c-0.3,0-0.6,0-0.9,0.1c-0.3,0.1-0.5,0.2-0.7,0.3c-0.2,0.1-0.4,0.3-0.6,0.5v5.5H352.7z M349.6,547.4c-0.7,0-1.2-0.1-1.6-0.3
		c-0.4-0.2-0.7-0.5-0.9-1c-0.2-0.5-0.3-1.1-0.2-1.9l0.1-3.7h-1.4V539l1.5-0.4l0.3-2.5h1.9v2.5h2.1v1.9h-2.1v3.7c0,0.2,0,0.4,0.1,0.6
		c0,0.2,0.1,0.3,0.2,0.4c0.1,0.1,0.2,0.2,0.3,0.2s0.2,0.1,0.3,0.1l1.1,0.1v1.8H349.6z M341.2,547.5c-0.3,0-0.6,0-0.9,0
		c-0.3,0-0.6,0-0.9-0.1c-0.3,0-0.6-0.1-0.9-0.1c-0.3,0-0.5-0.1-0.7-0.2v-1.4h3.9c0.2,0,0.4,0,0.6-0.1c0.1,0,0.3-0.1,0.3-0.2
		c0.1-0.1,0.1-0.3,0.1-0.5v-0.3c0-0.2-0.1-0.4-0.2-0.5c-0.1-0.1-0.4-0.2-0.8-0.2h-1.4c-0.5,0-1-0.1-1.4-0.2c-0.4-0.2-0.7-0.4-1-0.8
		c-0.2-0.3-0.4-0.8-0.4-1.4v-0.5c0-0.6,0.1-1,0.3-1.4c0.2-0.4,0.6-0.7,1.1-0.9c0.5-0.2,1.2-0.3,2.1-0.3c0.4,0,0.7,0,1.2,0.1
		c0.4,0,0.8,0.1,1.2,0.1c0.4,0.1,0.7,0.1,0.9,0.2v1.4h-3.7c-0.3,0-0.6,0.1-0.7,0.2c-0.2,0.1-0.2,0.3-0.2,0.6v0.3
		c0,0.2,0,0.3,0.1,0.4c0.1,0.1,0.2,0.2,0.4,0.2c0.2,0,0.4,0.1,0.6,0.1h1.4c0.9,0,1.5,0.2,2,0.6c0.4,0.4,0.6,1,0.6,1.7v0.8
		c0,0.6-0.1,1.1-0.4,1.4c-0.3,0.3-0.7,0.6-1.2,0.7C342.6,547.5,342,547.5,341.2,547.5z M331.3,547.5c-0.3,0-0.6,0-0.9-0.1
		c-0.3,0-0.7-0.2-1-0.3c-0.3-0.2-0.6-0.4-0.8-0.8c-0.2-0.4-0.3-0.8-0.3-1.5v-6.8c0-0.5,0.1-1,0.2-1.3c0.2-0.4,0.4-0.6,0.7-0.9
		c0.3-0.2,0.6-0.4,0.9-0.4c0.3-0.1,0.6-0.1,1-0.1c0.8,0,1.5,0,2.2,0c0.6,0,1.2,0,1.7,0.1c0.5,0,1,0.1,1.4,0.1v2h-4.5
		c-0.3,0-0.6,0.1-0.8,0.2c-0.2,0.2-0.3,0.4-0.3,0.8v1.8l4.8,0.1v1.9l-4.8,0.1v1.7c0,0.3,0,0.5,0.1,0.7c0.1,0.2,0.2,0.3,0.4,0.3
		c0.2,0.1,0.3,0.1,0.5,0.1h4.6v2c-0.5,0.1-1,0.1-1.6,0.1c-0.6,0-1.2,0.1-1.8,0.1S331.8,547.5,331.3,547.5z M311.5,548.6l4.6-13.8
		h2.5l-4.6,13.8H311.5z M302.1,545.8c0.1,0,0.2,0,0.4,0c0.1,0,0.3-0.1,0.4-0.1c0.1,0,0.3-0.1,0.4-0.1c0.1,0,0.2-0.1,0.3-0.1
		c0.1,0,0.1-0.1,0.2-0.1v-2l-1.5,0.1c-0.4,0-0.7,0.1-0.9,0.3c-0.2,0.2-0.3,0.4-0.3,0.8v0.4c0,0.2,0,0.4,0.1,0.5
		c0.1,0.1,0.2,0.2,0.4,0.3C301.7,545.8,301.9,545.8,302.1,545.8z M300.9,547.5c-0.7,0-1.2-0.2-1.6-0.6c-0.4-0.4-0.6-0.9-0.6-1.6
		v-0.8c0-0.7,0.2-1.2,0.7-1.6c0.5-0.4,1.2-0.6,2.2-0.6h2.2v-0.6c0-0.3,0-0.5-0.1-0.7c-0.1-0.2-0.3-0.3-0.5-0.4
		c-0.3-0.1-0.7-0.1-1.2-0.1h-2.6V539c0.4-0.1,0.9-0.2,1.5-0.3c0.6-0.1,1.2-0.1,2-0.1c0.7,0,1.4,0.1,1.9,0.3c0.5,0.2,0.9,0.5,1.2,0.9
		c0.3,0.4,0.4,1,0.4,1.8v6h-1.9l-0.4-0.9c-0.1,0.1-0.2,0.2-0.4,0.3c-0.2,0.1-0.4,0.2-0.7,0.3c-0.3,0.1-0.6,0.2-0.9,0.3
		C301.6,547.5,301.2,547.5,300.9,547.5z"/>
	<rect x="59.2" y="108.3" class="st29" width="105.3" height="5.3"/>
	<rect x="59.2" y="294.6" class="st29" width="73.7" height="5.3"/>
	<rect x="59.2" y="482.3" class="st29" width="94.5" height="5.3"/>
</g>
</svg>
