<?xml version="1.0" encoding="utf-8"?>
<!-- Generator: Adobe Illustrator 24.0.2, SVG Export Plug-In . SVG Version: 6.00 Build 0)  -->
<svg version="1.1" id="Capa_1" xmlns="http://www.w3.org/2000/svg" xmlns:xlink="http://www.w3.org/1999/xlink" x="0px" y="0px"
	 viewBox="0 0 510 210" style="enable-background:new 0 0 510 210;" xml:space="preserve">
<filter id='shadow' color-interpolation-filters="sRGB">
    <feDropShadow dx="0" dy="0" stdDeviation="1" flood-color="rgb(255,255,255)" flood-opacity="0.5" />
</filter>
<radialGradient id="SVGID_1_"  gradientUnits="userSpaceOnUse">
	<stop  offset="0" style="stop-color:rgb(255,255,255)"/>
	<stop  offset="100" style="stop-color:rgb(255,255,255);stop-opacity:0"/>
</radialGradient>
<style type="text/css">
	@import url("../css/rrss.css");
	:root{--verTxt : 0.5s;}
	.fondo{fill-rule:evenodd;clip-rule:evenodd;fill: rgba(255, 255, 255, 0);}
	.fndTxt{fill-rule:evenodd;clip-rule:evenodd;fill:rgba(0, 217, 217,1);opacity: 0.5;}
	

	.txtWhast,.txtInsta,.txtFace,.txtTigo{fill:transparent;}
	.iconWhas,.iconInst,.iconFace,.iconTelef{fill:#fff;}
	
	.fndTelef,.fndFace,.fndInst,.fndWhast{fill:transparent;}

	.lineaWhas,.lineaPhone,.lineaInsta,.lineaFace{fill:none;stroke:#fff;stroke-width:5;}
	@keyframes lineaExtre{0%{stroke-dashoffset:-244px;opacity:1;}100%{stroke-dashoffset:0px;opacity:1;}}
	@keyframes lineaInter{0%{stroke-dashoffset:-106px;opacity:1;}100%{stroke-dashoffset:0px;opacity:1;}}
	.lineaWhas,.lineaPhone{stroke-width: 1;stroke-dasharray: 244px;stroke-dashoffset: 244px;}
	.lineaExtre{animation: lineaExtre 1s forwards;}
	.lineaInsta,.lineaFace{stroke-width: 1;stroke-dasharray: 106px;stroke-dashoffset: 106px;}
	.lineaInter{animation: lineaInter 1s forwards;}

	.lineaCuadro{fill:none;stroke:#fff;stroke-width:1;}

	@keyframes sombra{0%{transform: translate(-50px, 7px);}25%{transform: translate(30px, 7px);}50%{transform: translate(-50px, 7px);}75%{transform: translate(30px, 7px);}100%{transform: translate(-50px, 7px);}}
	.sombra{fill-rule:evenodd;clip-rule:evenodd;fill:url(#SVGID_1_);filter: url(#shadow);transform: translate(0px, 7px);animation: sombra 4s infinite linear;}

	.strokeWhast,.strokeInsta,.strokeFace,.strokeTelef{fill:none;stroke:#fff;stroke-width:1;stroke-dasharray: 268px;opacity: 0;}
	.clickWhast,.clickInsta,.clickFace,.clickTelef{fill-rule:evenodd;clip-rule:evenodd;fill:transparent;cursor: pointer;}
	.clickTelef:hover ~ .strokeTelef{animation: strokeIcon 4s infinite linear;}
	.clickFace:hover ~ .strokeFace{animation: strokeIcon 4s infinite linear;}
	.clickInsta:hover ~ .strokeInsta{animation: strokeIcon 4s infinite linear;}
	.clickWhast:hover ~ .strokeWhast{animation: strokeIcon 4s infinite linear;}

	.irClick{fill-rule:evenodd;clip-rule:evenodd;fill:transparent;cursor: pointer;}
	@keyframes irCirChi{0%{transform: scale(1);}50%{transform: scale(1.2);}100%{transform: scale(1);}}
	.irCirChi{fill:none;stroke:#fff;stroke-width:1;opacity: 0.5;transform-origin: 439px 162.5px ;animation: irCirChi 10s infinite linear;}
	@keyframes irCirGran{0%{transform: scale(1);opacity: 0;}50%{transform: scale(0.8);opacity: 0.5;}100%{transform: scale(1);opacity: 0;}}
	.irCirGran{fill:none;stroke:#fff;stroke-width:1;opacity: 0.5;transform-origin: 439px 162.5px ;animation: irCirGran 5s infinite linear;}
	.irTxt{fill:#fff;}

	@keyframes strokeIcon{0%{stroke-dashoffset:268px;stroke: rgba(0, 217, 217,0.5);opacity: 1;}25%{stroke-dashoffset:0px;stroke: rgba(255, 255, 255,1);opacity: 1;}50%{stroke-dashoffset:-268px;stroke: rgba(255, 255, 255,1);opacity: 1;}75%{stroke-dashoffset: 0px;stroke: rgba(255, 255, 255,1);opacity: 1;}100%{stroke-dashoffset:268px;stroke: rgba(255, 255, 255,0.5);opacity: 1;}}
	.activo{animation: strokeIcon 5s infinite;}
	@keyframes activoTXT{0%{fill:transparent;}100%{fill:#fff;}}
	.activoTXT{animation: activoTXT 1s forwards;}
	@keyframes activoICON{0%{fill:#fff;}100%{fill:#000;}}
	.activoICON{animation: activoICON 1s forwards;}

</style>
<g id="rrsssvg">
	<rect y="0" class="fondo" width="510" height="210"/>
	<path id="fndtxt" class="fndTxt" d="M34.2,141.7v44l2,1.9h9l3.6,3.5l139.9,0c0.8-0.2,3.3-3.4,5.7-4.4c0.9-0.4,1.9-0.6,3-0.6h113.8
		c5.3,0,7,4.5,8.7,5h49.8l3.6-3.5h9l2-1.9v-44l-2-1.9h-9l-3.6-3.5h-49.8c-2.9,0-5.2-1.1-7.3-3c-0.5-0.5-1.4-1.5-2-2H197.9
		c-0.6,0.5-1.5,1.6-2,2c-2.1,1.9-4.4,3-7.3,3H48.7l-3.6,3.5h-9L34.2,141.7z"/>
	<g id="txt">
		<path id="txtwhast" class="txtWhast" d="M280.1,164.8h4.1c1,0,1.6-0.2,1.9-0.5c0.3-0.3,0.5-1,0.5-2.1V161c0-0.9-0.2-1.5-0.6-1.9
			c-0.4-0.4-1.1-0.6-2-0.6h-3.8V164.8z M274.2,175.5v-21.9h10.3c2.9,0,4.9,0.6,6.2,1.7c1.2,1.1,1.9,3,1.9,5.6v1.4
			c0,2.6-0.6,4.5-1.9,5.6c-1.2,1.1-3.3,1.7-6.2,1.7h-4.4v5.8H274.2z M258.5,164.8h4.1c1,0,1.6-0.2,1.9-0.5c0.3-0.3,0.5-1,0.5-2.1
			V161c0-0.9-0.2-1.5-0.6-1.9c-0.4-0.4-1.1-0.6-2-0.6h-3.8V164.8z M252.6,175.5v-21.9h10.3c2.9,0,4.9,0.6,6.2,1.7
			c1.2,1.1,1.9,3,1.9,5.6v1.4c0,2.6-0.6,4.5-1.9,5.6c-1.2,1.1-3.3,1.7-6.2,1.7h-4.4v5.8H252.6z M228.4,175.5l6.3-21.9h9l6.1,21.9
			h-6.3l-1-3.8h-6.9l-1,3.8H228.4z M236.8,167.2h4.8l-2.2-9.1H239L236.8,167.2z M208.8,168.7h5.6v0.2c0,0.8,0.2,1.3,0.6,1.7
			c0.4,0.3,1.2,0.5,2.2,0.5h1.5c0.9,0,1.5-0.1,1.9-0.4c0.4-0.2,0.5-0.7,0.5-1.3v-1c0-0.5-0.1-0.9-0.4-1.1c-0.3-0.2-0.9-0.4-1.9-0.5
			l-4.8-0.5c-1.8-0.2-3.1-0.7-3.9-1.7c-0.8-0.9-1.2-2.3-1.2-4.1v-1.4c0-1,0.2-1.9,0.5-2.7c0.3-0.8,0.8-1.5,1.4-2
			c0.5-0.4,1.2-0.8,1.9-0.9c0.8-0.2,1.9-0.3,3.4-0.3h3.5c2.2,0,3.9,0.4,5,1.3c1.2,0.9,1.7,2.2,1.7,3.8v1.5h-5.6v-0.2
			c0-0.7-0.2-1.1-0.5-1.4c-0.3-0.3-0.9-0.4-1.7-0.4h-1.4c-0.9,0-1.6,0.1-1.9,0.3c-0.3,0.2-0.5,0.6-0.5,1.1v0.9
			c0,0.8,0.8,1.3,2.4,1.5l4.3,0.5c1.9,0.2,3.3,0.8,4.2,1.6c0.9,0.9,1.4,2.1,1.4,3.7v2.1c0,1.8-0.6,3.3-1.7,4.3
			c-1.1,1.1-2.6,1.6-4.5,1.6h-4.8c-2.6,0-4.4-0.4-5.6-1.3c-1.2-0.9-1.7-2.3-1.7-4.2V168.7z M195.1,175.5v-17h-5.6v-4.9h17.1v4.9
			h-5.6v17H195.1z M169.9,175.5l6.3-21.9h9l6.1,21.9h-6.3l-1-3.8h-6.9l-1,3.8H169.9z M178.3,167.2h4.8l-2.2-9.1h-0.4L178.3,167.2z
			 M147.8,175.5v-21.9h5.9v8.2h7.6v-8.2h5.9v21.9h-5.9V167h-7.6v8.5H147.8z M115.3,153.7h5.9l2.1,16.7l3.4-16.7h6.5l3.1,16.7
			l2.3-16.7h5.9l-3.6,21.9h-8.4l-2.7-14.8l-2.8,14.8h-8.4L115.3,153.7z"/>
		<path id="txtinsta" class="txtInsta" d="M289.1,153.7h8.6v21.9h-5.7v-16.1l-4.4,16.1h-5.9l-4.4-16.2v16.2h-5.7v-21.9h8.6l4.5,15.8
			L289.1,153.7z M247.3,175.5l6.3-21.9h9l6.1,21.9h-6.3l-1-3.8h-6.9l-1,3.8H247.3z M255.7,167.2h4.8l-2.2-9.1h-0.4L255.7,167.2z
			 M227.4,175.5v-21.9h8.8c3.4,0,5.7,0.4,6.9,1.3c1.3,0.9,1.9,2.4,1.9,4.7v1.8c0,1.5-0.4,2.6-1.1,3.5c-0.7,0.8-1.8,1.3-3.2,1.5
			c1.5,0.2,2.6,0.7,3.2,1.5c0.7,0.7,1,1.8,1,3.1v4.5h-6v-3.9c0-0.9-0.2-1.6-0.5-1.9c-0.4-0.3-1-0.5-2-0.5h-3.2v6.4H227.4z
			 M233.3,164.2h3.3c1,0,1.6-0.2,2-0.5c0.4-0.3,0.5-1,0.5-1.9V161c0-0.9-0.2-1.6-0.5-1.9c-0.4-0.3-1-0.5-2-0.5h-3.3V164.2z
			 M223.7,160.5h-5.9c0-0.7-0.3-1.2-0.8-1.5c-0.5-0.3-1.3-0.5-2.4-0.5h-1.5c-1.3,0-2.2,0.2-2.7,0.7c-0.4,0.5-0.6,1.7-0.6,3.5v3.6
			c0,1.8,0.2,3,0.6,3.5c0.4,0.5,1.3,0.7,2.7,0.7h1.6c1.2,0,2-0.2,2.4-0.5c0.5-0.3,0.7-0.9,0.7-1.7v-0.9h-3.3v-4.1h9.1v3.7
			c0,3-0.6,5.1-1.9,6.5c-1.3,1.4-3.3,2-6.1,2h-4c-2.5,0-4.3-0.8-5.6-2.3c-1.3-1.6-1.9-3.9-1.9-6.9v-3.3c0-3.4,0.7-5.9,2-7.5
			c1.3-1.6,3.5-2.4,6.3-2.4h3.2c2.3,0,4.3,0.6,5.8,1.8c1.5,1.2,2.3,2.6,2.3,4.4V160.5z M181.1,175.5l6.3-21.9h9l6.1,21.9h-6.3
			l-1-3.8h-6.9l-1,3.8H181.1z M189.5,167.2h4.8l-2.2-9.1h-0.4L189.5,167.2z M171.4,175.5v-17h-5.6v-4.9H183v4.9h-5.6v17H171.4z
			 M145.4,168.7h5.6v0.2c0,0.8,0.2,1.3,0.6,1.7c0.4,0.3,1.2,0.5,2.2,0.5h1.5c0.9,0,1.5-0.1,1.9-0.4c0.4-0.2,0.5-0.7,0.5-1.3v-1
			c0-0.5-0.1-0.9-0.4-1.1c-0.3-0.2-0.9-0.4-1.9-0.5l-4.8-0.5c-1.8-0.2-3.1-0.7-3.9-1.7c-0.8-0.9-1.2-2.3-1.2-4.1v-1.4
			c0-1,0.2-1.9,0.5-2.7c0.3-0.8,0.8-1.5,1.4-2c0.5-0.4,1.2-0.8,1.9-0.9c0.8-0.2,1.9-0.3,3.4-0.3h3.5c2.2,0,3.9,0.4,5,1.3
			c1.2,0.9,1.7,2.2,1.7,3.8v1.5h-5.6v-0.2c0-0.7-0.2-1.1-0.5-1.4c-0.3-0.3-0.9-0.4-1.7-0.4h-1.4c-0.9,0-1.6,0.1-1.9,0.3
			c-0.3,0.2-0.5,0.6-0.5,1.1v0.9c0,0.8,0.8,1.3,2.4,1.5l4.3,0.5c1.9,0.2,3.3,0.8,4.2,1.6c0.9,0.9,1.4,2.1,1.4,3.7v2.1
			c0,1.8-0.6,3.3-1.7,4.3c-1.1,1.1-2.6,1.6-4.5,1.6h-4.8c-2.6,0-4.4-0.4-5.6-1.3c-1.2-0.9-1.7-2.3-1.7-4.2V168.7z M120.8,175.5
			v-21.9h8.7l6.8,16.2v-16.2h5.6v21.9h-8.7l-6.8-16.4v16.4H120.8z M110.2,175.5v-21.9h5.9v21.9H110.2z"/>
		<path id="txtfacebook" class="txtFace" d="M268.5,175.5v-21.9h5.9v8.2h0.5l5.3-8.2h7l-7.2,10.6l7.9,11.3h-7.2l-5.7-8.7h-0.4v8.7H268.5
			z M245.1,162.3c0-3.3,0.6-5.6,1.9-7c1.2-1.3,3.4-2,6.5-2h2.9c3.1,0,5.3,0.7,6.5,2c1.2,1.3,1.9,3.6,1.9,6.9v4.5
			c0,3.3-0.6,5.6-1.9,6.9c-1.2,1.3-3.4,2-6.5,2h-2.9c-3.1,0-5.3-0.7-6.5-2c-1.2-1.3-1.9-3.6-1.9-7V162.3z M251.1,162.8v3.6
			c0,1.9,0.2,3,0.6,3.5c0.4,0.5,1.3,0.7,2.6,0.7h1.1c1.3,0,2.2-0.2,2.7-0.7c0.4-0.5,0.6-1.7,0.6-3.5v-3.6c0-1.9-0.2-3-0.6-3.5
			c-0.4-0.5-1.3-0.7-2.7-0.7h-1.1c-1.3,0-2.2,0.2-2.6,0.7C251.3,159.7,251.1,160.9,251.1,162.8z M222.4,162.3c0-3.3,0.6-5.6,1.9-7
			c1.2-1.3,3.4-2,6.5-2h2.9c3.1,0,5.3,0.7,6.5,2c1.2,1.3,1.9,3.6,1.9,6.9v4.5c0,3.3-0.6,5.6-1.9,6.9c-1.2,1.3-3.4,2-6.5,2h-2.9
			c-3.1,0-5.3-0.7-6.5-2c-1.2-1.3-1.9-3.6-1.9-7V162.3z M228.4,162.8v3.6c0,1.9,0.2,3,0.6,3.5c0.4,0.5,1.3,0.7,2.6,0.7h1.1
			c1.3,0,2.2-0.2,2.7-0.7c0.4-0.5,0.6-1.7,0.6-3.5v-3.6c0-1.9-0.2-3-0.6-3.5c-0.4-0.5-1.3-0.7-2.7-0.7h-1.1c-1.3,0-2.2,0.2-2.6,0.7
			C228.6,159.7,228.4,160.9,228.4,162.8z M207.2,166.6v4.1h4.4c0.7,0,1.1-0.1,1.4-0.4c0.3-0.3,0.4-0.7,0.4-1.2v-0.9
			c0-0.6-0.1-1-0.4-1.2c-0.3-0.3-0.8-0.4-1.4-0.4H207.2z M207.2,158.5v3.9h4.1c0.6,0,1.1-0.1,1.3-0.4c0.3-0.2,0.4-0.6,0.4-1.1V160
			c0-0.5-0.1-0.9-0.4-1.1c-0.3-0.2-0.7-0.4-1.3-0.4H207.2z M201.3,153.7h10.3c2.7,0,4.6,0.4,5.7,1.2c1.1,0.8,1.6,2.1,1.6,3.9v1.4
			c0,1.2-0.3,2.2-0.9,2.9c-0.6,0.7-1.5,1.1-2.8,1.2c1.3,0.3,2.3,0.8,3,1.5c0.7,0.8,1.1,1.7,1.1,2.9v1.3c0,2.1-0.6,3.5-1.7,4.4
			c-1.1,0.8-3.2,1.2-6.2,1.2h-10.1V153.7z M180.7,175.5v-21.9h16.4v4.9h-10.6v3.8h10.3v4.2h-10.3v4.1h10.8v4.9H180.7z M177.1,167.1
			v0.6c0,2.9-0.6,4.9-1.9,6.2c-1.3,1.3-3.3,1.9-6.1,1.9h-2c-3.1,0-5.3-0.7-6.5-2c-1.2-1.3-1.9-3.6-1.9-7v-4.5c0-3.3,0.6-5.6,1.9-7
			c1.2-1.3,3.4-2,6.5-2h1.6c3.1,0,5.2,0.6,6.4,1.7c1.2,1.2,1.8,3.2,1.8,6.1v0.4h-5.8v-0.4c0-1-0.2-1.7-0.7-2.1
			c-0.5-0.4-1.3-0.6-2.4-0.6c-1.3,0-2.1,0.2-2.5,0.7c-0.4,0.5-0.6,1.7-0.6,3.5v3.6c0,1.9,0.2,3,0.6,3.5c0.4,0.5,1.3,0.7,2.5,0.7
			c1.2,0,2-0.2,2.4-0.7c0.5-0.4,0.7-1.2,0.7-2.4v-0.5H177.1z M135.8,175.5l6.3-21.9h9l6.1,21.9h-6.3l-1-3.8h-6.9l-1,3.8H135.8z
			 M144.1,167.2h4.8l-2.2-9.1h-0.4L144.1,167.2z M120.1,175.5v-21.9h14.7v4.9h-8.8v4.2h8.3v4.8h-8.3v7.9H120.1z"/>
		<path id="txttigo" class="txtTigo activoTXT" d="M331.3,161.1c0-3.3,0.6-5.7,1.7-7c1.1-1.3,3.1-2,6-2h2.6c2.8,0,4.8,0.7,6,2
			c1.1,1.3,1.7,3.6,1.7,7v4.5c0,3.3-0.6,5.6-1.7,7c-1.1,1.3-3.1,2-6,2h-2.6c-2.8,0-4.8-0.7-6-2c-1.1-1.3-1.7-3.6-1.7-7V161.1z
			 M336.9,161.2v4.2c0,1.8,0.2,3,0.6,3.5c0.4,0.5,1.2,0.7,2.3,0.7h0.9c1.2,0,1.9-0.2,2.3-0.7c0.4-0.5,0.6-1.6,0.6-3.5v-4.2
			c0-1.9-0.2-3.1-0.6-3.5c-0.4-0.5-1.1-0.7-2.3-0.7h-0.9c-1.2,0-1.9,0.2-2.3,0.7C337.1,158.2,336.9,159.4,336.9,161.2z M310.4,166.9
			h5.5v1.1c0,0.8,0.2,1.3,0.6,1.6c0.4,0.3,1.1,0.5,2,0.5h1c0.9,0,1.5-0.2,1.9-0.5c0.4-0.3,0.6-0.8,0.6-1.5v-0.8
			c0-0.7-0.2-1.2-0.6-1.5c-0.4-0.3-1.1-0.5-2-0.5h-1.8v-4.4h1.7c0.8,0,1.4-0.2,1.8-0.5c0.4-0.3,0.6-0.8,0.6-1.4v-0.6
			c0-0.6-0.2-1.1-0.6-1.4c-0.4-0.3-1-0.5-1.8-0.5h-0.9c-0.8,0-1.4,0.2-1.8,0.5c-0.4,0.3-0.5,0.9-0.5,1.6v0.8h-5.5v-1.5
			c0-1.9,0.6-3.3,1.8-4.3c1.2-1,3-1.5,5.3-1.5h2.4c2.3,0,4.1,0.5,5.3,1.4c1.2,0.9,1.8,2.3,1.8,4.1v1.4c0,1-0.3,1.9-0.8,2.5
			c-0.5,0.6-1.4,1.1-2.4,1.3c1.3,0.3,2.2,0.9,2.7,1.6c0.6,0.7,0.9,1.7,0.9,2.9v1.6c0,1.7-0.6,3.1-1.9,4.1c-1.2,1-3,1.5-5.2,1.5h-3.3
			c-2.2,0-3.9-0.5-5.1-1.5c-1.2-1-1.9-2.4-1.9-4.1V166.9z M278.7,161.1c0-3.3,0.6-5.7,1.7-7c1.1-1.3,3.1-2,6-2h2.6
			c2.8,0,4.8,0.7,6,2c1.1,1.3,1.7,3.6,1.7,7v4.5c0,3.3-0.6,5.6-1.7,7c-1.1,1.3-3.1,2-6,2h-2.6c-2.8,0-4.8-0.7-6-2
			c-1.1-1.3-1.7-3.6-1.7-7V161.1z M284.3,161.2v4.2c0,1.8,0.2,3,0.6,3.5c0.4,0.5,1.2,0.7,2.3,0.7h0.9c1.2,0,1.9-0.2,2.3-0.7
			c0.4-0.5,0.6-1.6,0.6-3.5v-4.2c0-1.9-0.2-3.1-0.6-3.5c-0.4-0.5-1.1-0.7-2.3-0.7h-0.9c-1.2,0-1.9,0.2-2.3,0.7
			C284.5,158.2,284.3,159.4,284.3,161.2z M257.9,166.9h5.5v1.1c0,0.8,0.2,1.3,0.6,1.6c0.4,0.3,1.1,0.5,2,0.5h1
			c0.9,0,1.5-0.2,1.9-0.5c0.4-0.3,0.6-0.8,0.6-1.5v-0.8c0-0.7-0.2-1.2-0.6-1.5c-0.4-0.3-1.1-0.5-2-0.5h-1.8v-4.4h1.7
			c0.8,0,1.4-0.2,1.8-0.5c0.4-0.3,0.6-0.8,0.6-1.4v-0.6c0-0.6-0.2-1.1-0.6-1.4c-0.4-0.3-1-0.5-1.8-0.5H266c-0.8,0-1.4,0.2-1.8,0.5
			c-0.4,0.3-0.5,0.9-0.5,1.6v0.8h-5.5v-1.5c0-1.9,0.6-3.3,1.8-4.3c1.2-1,3-1.5,5.3-1.5h2.4c2.3,0,4.1,0.5,5.3,1.4
			c1.2,0.9,1.8,2.3,1.8,4.1v1.4c0,1-0.3,1.9-0.8,2.5c-0.5,0.6-1.4,1.1-2.4,1.3c1.3,0.3,2.2,0.9,2.7,1.6c0.6,0.7,0.9,1.7,0.9,2.9v1.6
			c0,1.7-0.6,3.1-1.9,4.1c-1.2,1-3,1.5-5.2,1.5h-3.3c-2.2,0-3.9-0.5-5.1-1.5c-1.2-1-1.9-2.4-1.9-4.1V166.9z M226.5,174.2v-5.2
			c0-1.6,0.3-2.8,0.9-3.8c0.6-0.9,1.5-1.6,2.7-1.9l6.4-1.9c0.7-0.2,1.1-0.4,1.4-0.7c0.2-0.3,0.3-0.7,0.3-1.2v-0.9
			c0-0.8-0.2-1.4-0.6-1.7c-0.4-0.3-1-0.5-2-0.5h-1c-0.9,0-1.6,0.2-1.9,0.5c-0.4,0.3-0.6,0.9-0.6,1.7v1.2h-5.4v-2
			c0-1.9,0.6-3.3,1.8-4.3c1.2-1,2.9-1.5,5.1-1.5h3.2c2.2,0,3.9,0.5,5.1,1.5c1.2,1,1.9,2.4,1.9,4.2v1.8c0,1.6-0.3,2.9-1,3.9
			c-0.7,1-1.7,1.6-3,2l-6.2,1.7c-0.5,0.1-0.8,0.3-1,0.5c-0.2,0.2-0.3,0.5-0.3,0.9v0.9h11.3v4.8H226.5z M214.6,170.1
			c0.8,0,1.5-0.2,1.9-0.5c0.4-0.3,0.7-0.8,0.7-1.5v-0.8c0-0.7-0.2-1.2-0.7-1.5c-0.4-0.3-1.1-0.5-2-0.5h-0.6c-0.8,0-1.5,0.2-1.9,0.5
			c-0.4,0.3-0.7,0.9-0.7,1.5v0.8c0,0.7,0.2,1.2,0.7,1.5c0.4,0.3,1.1,0.5,2,0.5H214.6z M214.5,156.5H214c-0.8,0-1.4,0.2-1.8,0.5
			c-0.4,0.3-0.6,0.8-0.6,1.4v0.6c0,0.6,0.2,1.1,0.6,1.5c0.4,0.3,1,0.5,1.7,0.5h0.6c0.8,0,1.4-0.2,1.8-0.5c0.4-0.3,0.6-0.8,0.6-1.4
			v-0.6c0-0.6-0.2-1.1-0.6-1.4C215.8,156.6,215.2,156.5,214.5,156.5z M212.8,174.5c-2.2,0-3.9-0.5-5.2-1.5c-1.3-1-1.9-2.3-1.9-4.1
			v-1.6c0-1.2,0.3-2.2,0.9-2.9c0.6-0.7,1.5-1.2,2.7-1.6c-1.1-0.2-1.9-0.7-2.5-1.3c-0.5-0.6-0.8-1.4-0.8-2.3v-1.4
			c0-2,0.6-3.4,1.8-4.4c1.2-0.9,3-1.4,5.4-1.4h2c2.4,0,4.2,0.5,5.4,1.4c1.2,1,1.8,2.4,1.8,4.4v1.4c0,0.9-0.3,1.7-0.8,2.3
			c-0.6,0.6-1.4,1-2.5,1.3c1.3,0.3,2.2,0.9,2.8,1.6c0.6,0.7,0.9,1.7,0.9,2.9v1.6c0,1.7-0.6,3.1-1.9,4.1c-1.2,1-3,1.5-5.2,1.5H212.8z
			 M183.6,168.5v-4.4h8.8v4.4H183.6z M164.4,158.9l7.5-6.5h6.5v21.9h-5.5V158l-5.1,4.6L164.4,158.9z M151.9,170.1
			c0.8,0,1.5-0.2,1.9-0.5c0.4-0.3,0.7-0.8,0.7-1.5v-0.8c0-0.7-0.2-1.2-0.7-1.5c-0.4-0.3-1.1-0.5-2-0.5h-0.6c-0.8,0-1.5,0.2-1.9,0.5
			c-0.4,0.3-0.7,0.9-0.7,1.5v0.8c0,0.7,0.2,1.2,0.7,1.5c0.4,0.3,1.1,0.5,2,0.5H151.9z M151.8,156.5h-0.5c-0.8,0-1.4,0.2-1.8,0.5
			c-0.4,0.3-0.6,0.8-0.6,1.4v0.6c0,0.6,0.2,1.1,0.6,1.5c0.4,0.3,1,0.5,1.7,0.5h0.6c0.8,0,1.4-0.2,1.8-0.5c0.4-0.3,0.6-0.8,0.6-1.4
			v-0.6c0-0.6-0.2-1.1-0.6-1.4C153.2,156.6,152.6,156.5,151.8,156.5z M150.1,174.5c-2.2,0-3.9-0.5-5.2-1.5c-1.3-1-1.9-2.3-1.9-4.1
			v-1.6c0-1.2,0.3-2.2,0.9-2.9c0.6-0.7,1.5-1.2,2.7-1.6c-1.1-0.2-1.9-0.7-2.5-1.3c-0.5-0.6-0.8-1.4-0.8-2.3v-1.4
			c0-2,0.6-3.4,1.8-4.4c1.2-0.9,3-1.4,5.4-1.4h2c2.4,0,4.2,0.5,5.4,1.4c1.2,1,1.8,2.4,1.8,4.4v1.4c0,0.9-0.3,1.7-0.8,2.3
			c-0.6,0.6-1.4,1-2.5,1.3c1.3,0.3,2.2,0.9,2.8,1.6c0.6,0.7,0.9,1.7,0.9,2.9v1.6c0,1.7-0.6,3.1-1.9,4.1c-1.2,1-3,1.5-5.2,1.5H150.1z
			 M134.5,177H132l7.4-24.9h2.5L134.5,177z M111.5,161c0-3.3,0.6-5.6,1.9-7c1.2-1.3,3.4-2,6.5-2h2.9c3.1,0,5.3,0.7,6.5,2
			c1.2,1.3,1.9,3.6,1.9,6.9v4.5c0,3.3-0.6,5.6-1.9,6.9c-1.2,1.3-3.4,2-6.5,2h-2.9c-3.1,0-5.3-0.7-6.5-2c-1.2-1.3-1.9-3.6-1.9-7V161z
			 M117.5,161.5v3.6c0,1.9,0.2,3,0.6,3.5c0.4,0.5,1.3,0.7,2.6,0.7h1.1c1.3,0,2.2-0.2,2.7-0.7c0.4-0.5,0.6-1.7,0.6-3.5v-3.6
			c0-1.9-0.2-3-0.6-3.5c-0.4-0.5-1.3-0.7-2.7-0.7h-1.1c-1.3,0-2.2,0.2-2.6,0.7C117.7,158.5,117.5,159.7,117.5,161.5z M108.5,159.2
			h-5.9c0-0.7-0.3-1.2-0.8-1.5c-0.5-0.3-1.3-0.5-2.4-0.5h-1.5c-1.3,0-2.2,0.2-2.7,0.7c-0.4,0.5-0.6,1.7-0.6,3.5v3.6
			c0,1.9,0.2,3,0.6,3.5c0.4,0.5,1.3,0.7,2.7,0.7h1.6c1.2,0,2-0.2,2.4-0.5c0.5-0.3,0.7-0.9,0.7-1.7v-0.9h-3.3v-4.1h9.1v3.7
			c0,3-0.6,5.1-1.9,6.5c-1.3,1.4-3.3,2-6.1,2h-4c-2.5,0-4.3-0.8-5.6-2.3c-1.3-1.6-1.9-3.9-1.9-6.9v-3.3c0-3.4,0.7-5.9,2-7.5
			c1.3-1.6,3.5-2.4,6.3-2.4h3.2c2.3,0,4.3,0.6,5.8,1.8c1.5,1.2,2.3,2.6,2.3,4.4V159.2z M79.1,174.2v-21.9H85v21.9H79.1z M64.3,174.2
			v-17h-5.6v-4.9h17.1v4.9h-5.6v17H64.3z"/>
	</g>
	
	<g id="lineatxt">
		<polyline id="lineawhas" class="lineaWhas" points="255,126.3 255,115 462.5,115 462.5,90 		"/>
		<polyline id="lineainsta_1_" class="lineaInsta" points="255,126.3 255,115 324.2,115 324.2,90 		"/>
		<polyline id="lineaface" class="lineaFace" points="255,126.3 255,115 185.8,115 185.8,90 		"/>
		<polyline id="lineaphone" class="lineaPhone lineaExtre" points="255,126.3 255,115 47.5,115 47.5,90 		"/>
		<path id="sombra" class="sombra" d="M99,196.1h60l-2.2,3.6c-0.4,0.7-1.2,1.3-2.4,1.2h-50.9c-1.2,0-1.9-0.5-2.4-1.2L99,196.1z"/>
		<path id="lineadonw" class="lineaCuadro" d="M29.2,179.1v8.8l5,4.8h9l3.6,3.5h141.9c4.3,0,5.5-5,8.7-5h113.8c3.2,0,4.4,5,8.7,5h51.9
			l3.6-3.5h9l5-4.8v-8.8"/>
		<path id="lineaup" class="lineaCuadro" d="M389.2,148.4v-8.8l-5-4.8h-9l-3.6-3.5h-51.9c-4.3,0-5.5-5-8.7-5H197.3c-3.2,0-4.4,5-8.7,5H46.7
			l-3.6,3.5h-9l-5,4.8v8.8"/>
	</g>
	<path id="fndwhast" class="fndWhast" d="M462.5,10c20.7,0,37.5,16.8,37.5,37.5c0,20.7-16.8,37.5-37.5,37.5C441.8,85,425,68.2,425,47.5
		C425,26.8,441.8,10,462.5,10"/>
	<path id="iconwhas" class="iconWhas" d="M456,36.2L456,36.2z M456,36.2c-0.5-1.1-1-1.1-1.5-1.1l-1.3,0c-0.4,0-1.2,0.2-1.8,0.8
		c-0.6,0.7-2.3,2.3-2.3,5.5c0,3.3,2.4,6.4,2.7,6.9c0.3,0.4,4.6,7.4,11.3,10c5.6,2.2,6.7,1.8,8,1.7c1.2-0.1,3.9-1.6,4.5-3.2
		c0.6-1.5,0.6-2.9,0.4-3.2s-0.6-0.4-1.3-0.8c-0.7-0.3-3.9-1.9-4.5-2.2c-0.6-0.2-1.1-0.3-1.5,0.3c-0.4,0.7-1.7,2.2-2.1,2.6
		c-0.4,0.4-0.8,0.5-1.4,0.2c-0.7-0.3-2.8-1-5.3-3.3c-2-1.8-3.3-3.9-3.7-4.6c-0.4-0.7,0-1,0.3-1.4c0.3-0.3,0.7-0.8,1-1.2
		c0.3-0.4,0.4-0.7,0.7-1.1c0.2-0.4,0.1-0.8-0.1-1.2C457.9,40.8,456.6,37.5,456,36.2 M462.6,25.2c-12.2,0-22.1,9.9-22.1,22.1
		c0,0,0,0,0,0c0,4.1,1.2,8.2,3.4,11.7l0.5,0.8l-2.2,8.1l8.4-2.2l0.8,0.5c3.4,2,7.3,3.1,11.2,3.1l0,0c12.2,0,22.1-9.9,22.1-22.1
		c0,0,0,0,0-0.1c0-5.8-2.3-11.4-6.5-15.5C474.1,27.5,468.5,25.2,462.6,25.2C462.7,25.2,462.6,25.2,462.6,25.2z M435.8,74.3l3.8-13.8
		c-2.3-4-3.5-8.6-3.5-13.2c0,0,0,0,0,0c0-14.6,11.9-26.5,26.6-26.5c7.1,0,13.8,2.8,18.8,7.8c5,5,7.8,11.7,7.8,18.8
		c0,14.6-11.9,26.5-26.6,26.5h0c-4.4,0-8.8-1.1-12.7-3.2L435.8,74.3z"/>
	<path id="clickwhast" class="clickWhast" d="M462.5,5C486,5,505,24,505,47.5S486,90,462.5,90C439,90,420,71,420,47.5S439,5,462.5,5"/>
	
	<path class="strokeWhast" d="M459.7,89.9c23.4,1.6,43.7-16.1,45.2-39.6c1.6-23.4-16.1-43.7-39.6-45.2c-23.4-1.6-43.7,16.1-45.2,39.6
		C418.5,68.1,436.2,88.3,459.7,89.9z"/>
	<path id="fndinst" class="fndInst" d="M324.2,10c20.7,0,37.5,16.8,37.5,37.5c0,20.7-16.8,37.5-37.5,37.5c-20.7,0-37.5-16.8-37.5-37.5
		C286.7,26.8,303.5,10,324.2,10"/>
	<path id="iconinst" class="iconInst" d="M324.2,38.6c4.9,0,8.9,4,8.9,8.9c0,4.9-4,8.9-8.9,8.9c-4.9,0-8.9-4-8.9-8.9
		C315.2,42.6,319.2,38.6,324.2,38.6 M324.2,33.7c-7.6,0-13.8,6.2-13.8,13.8c0,7.6,6.2,13.8,13.8,13.8c7.6,0,13.8-6.2,13.8-13.8
		C337.9,39.9,331.8,33.7,324.2,33.7z M338.5,30c-1.8,0-3.2,1.4-3.2,3.2c0,1.8,1.4,3.2,3.2,3.2c1.8,0,3.2-1.4,3.2-3.2
		C341.7,31.4,340.2,30,338.5,30L338.5,30z M321.8,25.5c0.7,0,1.5,0,2.4,0c7.2,0,8,0,10.8,0.2c2.6,0.1,4,0.6,5,0.9
		c1.2,0.5,2.1,1.1,3.1,2c0.9,0.9,1.5,1.8,2,3.1c0.4,0.9,0.8,2.4,0.9,5c0.1,2.8,0.2,3.7,0.2,10.8c0,7.1,0,8-0.2,10.8
		c-0.1,2.6-0.6,4-0.9,5c-0.5,1.3-1.1,2.1-2,3.1c-0.9,0.9-1.8,1.5-3.1,2c-0.9,0.4-2.4,0.8-5,0.9c-2.8,0.1-3.7,0.2-10.8,0.2
		c-7.2,0-8,0-10.8-0.2c-2.6-0.1-4-0.6-5-0.9c-1.3-0.5-2.1-1.1-3.1-2c-0.9-0.9-1.5-1.8-2-3.1c-0.4-0.9-0.8-2.4-0.9-5
		c-0.1-2.8-0.2-3.7-0.2-10.8c0-7.2,0-8,0.2-10.8c0.1-2.6,0.6-4,0.9-5c0.5-1.2,1.1-2.1,2-3.1c0.9-0.9,1.8-1.5,3.1-2
		c0.9-0.4,2.4-0.8,5-0.9C315.8,25.6,316.8,25.5,321.8,25.5L321.8,25.5z M324.2,20.7c-7.3,0-8.2,0-11,0.2c-2.9,0.1-4.8,0.6-6.5,1.2
		c-1.8,0.7-3.3,1.6-4.7,3.1c-1.5,1.5-2.4,3-3.1,4.7c-0.7,1.7-1.1,3.7-1.2,6.5c-0.1,2.9-0.2,3.8-0.2,11c0,7.3,0,8.2,0.2,11
		c0.1,2.9,0.6,4.8,1.2,6.5c0.7,1.8,1.6,3.3,3.1,4.7c1.5,1.5,3,2.4,4.7,3.1c1.7,0.7,3.7,1.1,6.5,1.2c2.9,0.1,3.8,0.2,11,0.2
		c7.3,0,8.2,0,11-0.2c2.9-0.1,4.8-0.6,6.5-1.2c1.8-0.7,3.3-1.6,4.7-3.1c1.5-1.5,2.4-3,3.1-4.7c0.7-1.7,1.1-3.7,1.2-6.5
		c0.1-2.9,0.2-3.8,0.2-11c0-7.3,0-8.2-0.2-11c-0.1-2.9-0.6-4.8-1.2-6.5c-0.7-1.8-1.6-3.3-3.1-4.7c-1.5-1.5-3-2.4-4.7-3.1
		c-1.7-0.7-3.7-1.1-6.5-1.2C332.3,20.7,331.4,20.7,324.2,20.7L324.2,20.7z"/>
	<path id="clickinsta" class="clickInsta" d="M324.2,5c23.5,0,42.5,19,42.5,42.5S347.6,90,324.2,90c-23.5,0-42.5-19-42.5-42.5
		S300.7,5,324.2,5"/>
	
	<path class="strokeInsta" d="M324.2,90c23.5,0,42.5-19,42.5-42.5S347.6,5,324.2,5c-23.5,0-42.5,19-42.5,42.5S300.7,90,324.2,90z"/>
	<path id="fndface" class="fndFace" d="M185.8,10c20.7,0,37.5,16.8,37.5,37.5c0,20.7-16.8,37.5-37.5,37.5c-20.7,0-37.5-16.8-37.5-37.5
		C148.3,26.8,165.1,10,185.8,10"/>
	<path id="iconface" class="iconFace" d="M181.5,41.7c0-6.7,4.3-10.4,10.4-10.4c1.9,0,4,0.3,5.9,0.5v6.8h-3.5c-3.2,0-4,1.6-4,3.8v5.2
		h7.1l-1.2,7.5h-5.9V74c-0.1,0-0.2,0-0.2,0l0.1,0.1c12.7-2.3,22.4-13.3,22.4-26.5c0-14.7-12.1-26.8-26.8-26.8
		c-14.7,0-26.8,12.1-26.8,26.8c0,13.3,9.6,24.2,22.4,26.5l0.2-0.1c0,0,0,0,0,0V55.1h-6.7v-7.5h6.7V41.7z"/>
	<path id="clickface" class="clickFace" d="M185.8,5c23.5,0,42.5,19,42.5,42.5S209.3,90,185.8,90c-23.5,0-42.5-19-42.5-42.5
		S162.4,5,185.8,5"/>
	
	<path class="strokeFace" d="M185.8,90c23.5,0,42.5-19,42.5-42.5S209.3,5,185.8,5c-23.5,0-42.5,19-42.5,42.5S162.4,90,185.8,90z"/>
	<path id="fndtefef" class="fndTelef activoTXT" d="M47.5,10C68.2,10,85,26.8,85,47.5C85,68.2,68.2,85,47.5,85C26.8,85,10,68.2,10,47.5
		C10,26.8,26.8,10,47.5,10"/>
	<path id="icontelf" class="iconTelef activoICON" d="M49.7,33.5c3,0.5,5.7,1.9,7.8,4c2.1,2.1,3.5,4.8,4,7.8c0.1,0.7,0.8,1.3,1.5,1.3
		c0.1,0,0.2,0,0.3,0c0.8-0.1,1.4-0.9,1.3-1.8c-0.6-3.6-2.3-6.9-4.9-9.4c-2.6-2.6-5.9-4.3-9.4-4.9c-0.8-0.1-1.6,0.4-1.8,1.2
		C48.3,32.5,48.8,33.3,49.7,33.5 M74.2,44.3c-1-5.9-3.8-11.3-8.1-15.5c-4.3-4.3-9.6-7.1-15.5-8.1c-0.8-0.1-1.6,0.4-1.8,1.2
		c-0.1,0.8,0.4,1.6,1.3,1.8c5.3,0.9,10.1,3.4,13.9,7.2c3.8,3.8,6.3,8.6,7.2,13.9c0.1,0.7,0.8,1.3,1.5,1.3c0.1,0,0.2,0,0.3,0
		C73.8,46,74.4,45.2,74.2,44.3z M67.1,65.8C67.1,65.8,67.1,65.8,67.1,65.8c-0.4,0.5-0.9,0.9-1.4,1.4c-0.7,0.7-1.5,1.4-2.2,2.3
		c-1.1,1.2-2.5,1.8-4.3,1.8c-0.2,0-0.4,0-0.5,0c-3.4-0.2-6.5-1.5-8.8-2.6c-6.4-3.1-12-7.5-16.7-13.1c-3.9-4.6-6.4-8.9-8.1-13.6
		c-1.1-2.8-1.4-5-1.3-7.1c0.1-1.3,0.6-2.4,1.6-3.4l3.9-3.9c0.6-0.5,1.1-0.8,1.7-0.8c0.7,0,1.3,0.4,1.7,0.8c0,0,0,0,0,0
		c0.7,0.6,1.3,1.3,2,2c0.4,0.4,0.7,0.7,1.1,1.1l3.1,3.1c1.2,1.2,1.2,2.3,0,3.5c-0.3,0.3-0.6,0.7-1,1c-0.9,1-1.9,1.9-2.8,2.8
		c0,0,0,0-0.1,0.1c-1,1-0.8,1.9-0.6,2.6c0,0,0,0.1,0,0.1c0.8,1.9,1.9,3.8,3.7,6l0,0c3.1,3.8,6.4,6.8,10,9.1c0.5,0.3,0.9,0.5,1.4,0.8
		c0.4,0.2,0.8,0.4,1.1,0.6c0,0,0.1,0.1,0.1,0.1c0.4,0.2,0.7,0.3,1.1,0.3c0.9,0,1.5-0.6,1.7-0.8l3.9-3.9c0.4-0.4,1-0.8,1.7-0.8
		c0.7,0,1.3,0.4,1.6,0.8c0,0,0,0,0,0l6.2,6.2C68.3,63.4,68.3,64.6,67.1,65.8z M63.1,53.9c-1.1-1.1-2.4-1.8-3.8-1.8
		c-1.4,0-2.7,0.6-3.9,1.7l-3.6,3.6c-0.3-0.2-0.6-0.3-0.9-0.5c-0.4-0.2-0.8-0.4-1.1-0.6c-3.3-2.1-6.4-4.9-9.3-8.5
		c-1.4-1.8-2.4-3.3-3.1-4.8c0.9-0.8,1.8-1.7,2.6-2.6c0.3-0.3,0.6-0.6,0.9-1c2.4-2.4,2.4-5.4,0-7.8l-3.1-3.1
		c-0.4-0.4-0.7-0.7-1.1-1.1c-0.7-0.7-1.4-1.4-2.1-2.1c-1.1-1.1-2.4-1.7-3.8-1.7c-1.4,0-2.7,0.6-3.8,1.7c0,0,0,0,0,0l-3.8,3.9
		c-1.4,1.4-2.3,3.2-2.5,5.3c-0.3,3.3,0.7,6.4,1.4,8.4c1.8,4.9,4.6,9.5,8.6,14.4c5,5.9,10.9,10.6,17.7,13.9c2.6,1.2,6.1,2.7,9.9,2.9
		c0.2,0,0.5,0,0.7,0c2.6,0,4.8-0.9,6.5-2.8c0,0,0,0,0-0.1c0.6-0.7,1.3-1.4,2-2c0.5-0.5,1-0.9,1.5-1.5c1.1-1.2,1.7-2.5,1.7-3.9
		c0-1.4-0.6-2.7-1.7-3.9L63.1,53.9z"/>
	<path id="clicktelef" class="clickTelef" d="M47.5,5C71,5,90,24,90,47.5S71,90,47.5,90C24,90,5,71,5,47.5S24,5,47.5,5"/>
	
	<path class="strokeTelef activo" d="M47.5,90C71,90,90,71,90,47.5S71,5,47.5,5C24,5,5,24,5,47.5S24,90,47.5,90z"/>
		<g id="ir">
		<path id="ircirchi" class="irCirChi" d="M439.1,132.5c16.6,0,30,13.4,30,30s-13.4,30-30,30c-16.6,0-30-13.4-30-30
			S422.5,132.5,439.1,132.5z"/>
		<path id="ircirgran" class="irCirGran" d="M439.1,127.5c19.3,0,35,15.7,35,35s-15.7,35-35,35c-19.3,0-35-15.7-35-35
			S419.8,127.5,439.1,127.5z"/>
		
		<g id="irtxt">
			<path class="irTxt" d="M426.6,148.6c0.5,0.6,0.8,1.3,0.8,2.1v9.1c-0.8-1-1.9-1.5-3.2-1.5c-1.3,0-2.4,0.5-3.2,1.5v-9v0
				c0-0.8,0.3-1.5,0.8-2.1c0.6-0.7,1.4-1.1,2.4-1.1h0.1C425.2,147.5,426,147.9,426.6,148.6z M426.3,160.1c0.4,0.4,0.7,0.9,0.9,1.4
				c0.1,0.3,0.2,0.6,0.2,1c0,0.5-0.1,0.9-0.3,1.4c-0.2,0.4-0.5,0.8-0.9,1.1c-0.6,0.5-1.3,0.8-2.1,0.8c-0.6,0-1.2-0.2-1.7-0.5
				c-0.5-0.3-0.9-0.7-1.2-1.3c-0.2-0.4-0.3-0.9-0.3-1.5c0-0.5,0.1-0.9,0.3-1.3c0.3-0.6,0.6-1,1.2-1.4c0.5-0.3,1.1-0.5,1.8-0.5
				C425,159.3,425.7,159.5,426.3,160.1z M427.4,174.2L427.4,174.2c0,0.9-0.3,1.6-0.9,2.2c-0.6,0.7-1.4,1-2.4,1
				c-0.9,0-1.6-0.3-2.3-0.9c-0.6-0.6-0.9-1.4-0.9-2.3v-0.1v-9c0.9,1,1.9,1.5,3.2,1.5c1.3,0,2.4-0.5,3.2-1.5V174.2z"/>
			<path class="irTxt" d="M445.9,147.5L445.9,147.5c0.3,0,0.6,0,0.7,0c2.5,0.1,4.6,1.2,6.3,3c1.5,1.7,2.3,3.7,2.3,6
				c0,2.4-0.8,4.5-2.5,6.3c-0.7,0.7-1.5,1.4-2.4,1.8l4.5,5.4c-0.2,0-0.5,0-0.7,0c-1.1,0-2.1,0.4-2.9,1.1c-0.9,0.8-1.3,1.8-1.4,3
				L443,166l0,0c-0.1-0.1-0.1-0.2-0.2-0.3h-5.6v8.5v0c0,0.9-0.3,1.6-0.9,2.2c-0.6,0.7-1.4,1-2.4,1c-0.9,0-1.7-0.3-2.3-0.9
				c-0.6-0.6-0.9-1.4-0.9-2.3v-0.1v-16.4c0.4,0.4,0.8,0.8,1.4,1c0.6,0.3,1.2,0.4,1.8,0.4l1.5,0h1.7h8.7c0.1,0,0.2,0,0.3,0
				c0.5,0,1-0.2,1.5-0.5c0.7-0.5,1.1-1.3,1.1-2.2c0-0.8-0.3-1.5-0.9-2c-0.5-0.4-1-0.6-1.6-0.6c-0.1,0-0.1,0-0.2,0h-8.8v1.2
				c0,0.9-0.4,1.7-1.1,2.3c-0.6,0.5-1.3,0.8-2.1,0.8c-1,0-1.8-0.4-2.4-1.1c-0.5-0.6-0.8-1.2-0.8-2v-4.5v0c0-0.8,0.3-1.5,0.8-2.1
				c0.6-0.7,1.4-1.1,2.4-1.1h0H445.9z M456.1,171.8c0.2,0.1,0.4,0.4,0.6,0.7c0.4,0.5,0.6,1.1,0.6,1.8c0,1-0.4,1.8-1.2,2.5
				c-0.6,0.5-1.2,0.7-2,0.7c-0.1,0-0.2,0-0.3,0c-0.6-0.1-1.2-0.3-1.7-0.7c-0.4-0.3-0.7-0.7-0.9-1.1c-0.2-0.4-0.3-0.9-0.3-1.4
				c0-0.9,0.3-1.7,0.9-2.3c0.6-0.6,1.4-0.9,2.3-0.9C454.8,171.1,455.5,171.3,456.1,171.8z"/>
		</g>
		<path id="irclick" class="irClick" d="M439.1,119c24,0,43.5,19.5,43.5,43.5c0,24-19.5,43.5-43.5,43.5c-24,0-43.5-19.5-43.5-43.5
			C395.6,138.5,415.1,119,439.1,119"/>
	</g>
</g>
</svg>
