<?xml version="1.0" encoding="utf-8"?>
<!-- Generator: Adobe Illustrator 24.0.2, SVG Export Plug-In . SVG Version: 6.00 Build 0)  -->
<svg version="1.1" id="Capa_1" xmlns="http://www.w3.org/2000/svg" xmlns:xlink="http://www.w3.org/1999/xlink" x="0px" y="0px"
	 viewBox="0 0 510 210" style="enable-background:new 0 0 510 210;" xml:space="preserve">
<style type="text/css">
	.st0{fill-rule:evenodd;clip-rule:evenodd;fill:transparent;}
	.st1{fill:#FFFFFF;}
	.st2{fill-rule:evenodd;clip-rule:evenodd;fill:transparent;}
	.st3{fill-rule:evenodd;clip-rule:evenodd;fill:#FFFFFF;}
	.st4{fill:none;stroke:#fff;stroke-width:0.5;}
</style>
<rect x="0" class="st0" width="510" height="210"/>
<g>
	<path class="st1" d="M39.7,91c3,0.5,5.7,1.9,7.8,4c2.1,2.1,3.5,4.8,4,7.8c0.1,0.7,0.8,1.3,1.5,1.3c0.1,0,0.2,0,0.3,0
		c0.8-0.1,1.4-0.9,1.3-1.8c-0.6-3.6-2.3-6.9-4.9-9.4c-2.6-2.6-5.9-4.3-9.4-4.9c-0.8-0.1-1.6,0.4-1.8,1.2C38.3,90,38.8,90.8,39.7,91
		 M64.2,101.8c-1-5.9-3.8-11.3-8.1-15.5c-4.3-4.3-9.6-7.1-15.5-8.1c-0.8-0.1-1.6,0.4-1.8,1.2c-0.1,0.8,0.4,1.6,1.3,1.8
		c5.3,0.9,10.1,3.4,13.9,7.2c3.8,3.8,6.3,8.6,7.2,13.9c0.1,0.7,0.8,1.3,1.5,1.3c0.1,0,0.2,0,0.3,0C63.8,103.5,64.4,102.7,64.2,101.8
		z M57.1,123.3C57.1,123.3,57.1,123.3,57.1,123.3c-0.4,0.5-0.9,0.9-1.4,1.4c-0.7,0.7-1.5,1.4-2.2,2.3c-1.1,1.2-2.5,1.8-4.3,1.8
		c-0.2,0-0.4,0-0.5,0c-3.4-0.2-6.5-1.5-8.8-2.6c-6.4-3.1-12-7.5-16.7-13.1c-3.9-4.6-6.4-8.9-8.1-13.6c-1.1-2.8-1.4-5-1.3-7.1
		c0.1-1.3,0.6-2.4,1.6-3.4l3.9-3.9c0.6-0.5,1.1-0.8,1.7-0.8c0.7,0,1.3,0.4,1.6,0.8c0,0,0,0,0,0c0.7,0.6,1.3,1.3,2,2
		c0.4,0.4,0.7,0.7,1.1,1.1l3.1,3.1c1.2,1.2,1.2,2.3,0,3.5c-0.3,0.3-0.6,0.7-1,1c-0.9,1-1.9,1.9-2.8,2.8c0,0,0,0-0.1,0.1
		c-1,1-0.8,1.9-0.6,2.6c0,0,0,0.1,0,0.1c0.8,1.9,1.9,3.8,3.7,6l0,0c3.1,3.8,6.4,6.8,10,9.1c0.5,0.3,0.9,0.5,1.4,0.8
		c0.4,0.2,0.8,0.4,1.1,0.6c0,0,0.1,0.1,0.1,0.1c0.4,0.2,0.7,0.3,1.1,0.3c0.9,0,1.5-0.6,1.7-0.8l3.9-3.9c0.4-0.4,1-0.8,1.7-0.8
		c0.7,0,1.3,0.4,1.6,0.8c0,0,0,0,0,0l6.2,6.2C58.3,120.9,58.3,122.1,57.1,123.3z M53.1,111.4c-1.1-1.1-2.4-1.8-3.8-1.8
		c-1.4,0-2.7,0.6-3.9,1.7l-3.6,3.6c-0.3-0.2-0.6-0.3-0.9-0.5c-0.4-0.2-0.8-0.4-1.1-0.6c-3.3-2.1-6.4-4.9-9.3-8.5
		c-1.4-1.8-2.4-3.3-3.1-4.8c0.9-0.8,1.8-1.7,2.6-2.6c0.3-0.3,0.6-0.6,0.9-1c2.4-2.4,2.4-5.4,0-7.8l-3.1-3.1
		c-0.4-0.4-0.7-0.7-1.1-1.1c-0.7-0.7-1.4-1.4-2.1-2.1c-1.1-1.1-2.4-1.7-3.8-1.7c-1.4,0-2.7,0.6-3.8,1.7c0,0,0,0,0,0l-3.8,3.9
		c-1.4,1.4-2.3,3.2-2.5,5.3c-0.3,3.3,0.7,6.4,1.4,8.4c1.8,4.9,4.6,9.5,8.6,14.4c5,5.9,10.9,10.6,17.7,13.9c2.6,1.2,6.1,2.7,9.9,2.9
		c0.2,0,0.5,0,0.7,0c2.6,0,4.8-0.9,6.5-2.8c0,0,0,0,0-0.1c0.6-0.7,1.3-1.4,2-2c0.5-0.5,1-0.9,1.5-1.5c1.1-1.2,1.7-2.5,1.7-3.9
		c0-1.4-0.6-2.7-1.7-3.9L53.1,111.4z"/>
	<path class="st2" d="M37.5,67.5C58.2,67.5,75,84.3,75,105c0,20.7-16.8,37.5-37.5,37.5C16.8,142.5,0,125.7,0,105
		C0,84.3,16.8,67.5,37.5,67.5"/>
	<path class="st3" d="M178.2,99.2c0-6.7,4.3-10.4,10.4-10.4c1.9,0,4,0.3,5.9,0.5v6.8h-3.5c-3.2,0-4,1.6-4,3.8v5.2h7.1l-1.2,7.5h-5.9
		v18.9c-0.1,0-0.2,0-0.2,0l0.1,0.1c12.7-2.3,22.4-13.3,22.4-26.5c0-14.7-12.1-26.8-26.8-26.8c-14.7,0-26.8,12.1-26.8,26.8
		c0,13.3,9.6,24.2,22.4,26.5l0.2-0.1c0,0,0,0,0,0v-18.9h-6.7v-7.5h6.7V99.2z"/>
	<path class="st2" d="M182.5,67.5c20.7,0,37.5,16.8,37.5,37.5c0,20.7-16.8,37.5-37.5,37.5c-20.7,0-37.5-16.8-37.5-37.5
		C145,84.3,161.8,67.5,182.5,67.5"/>
	<path class="st1" d="M327.5,96.1c4.9,0,8.9,4,8.9,8.9c0,4.9-4,8.9-8.9,8.9c-4.9,0-8.9-4-8.9-8.9C318.6,100.1,322.6,96.1,327.5,96.1
		 M327.5,91.2c-7.6,0-13.8,6.2-13.8,13.8c0,7.6,6.2,13.8,13.8,13.8c7.6,0,13.8-6.2,13.8-13.8C341.3,97.4,335.1,91.2,327.5,91.2z
		 M341.8,87.5c-1.8,0-3.2,1.4-3.2,3.2c0,1.8,1.4,3.2,3.2,3.2c1.8,0,3.2-1.4,3.2-3.2C345,88.9,343.6,87.5,341.8,87.5L341.8,87.5z
		 M325.1,83c0.7,0,1.5,0,2.4,0c7.2,0,8,0,10.8,0.2c2.6,0.1,4,0.6,5,0.9c1.2,0.5,2.1,1.1,3.1,2c0.9,0.9,1.5,1.8,2,3.1
		c0.4,0.9,0.8,2.4,0.9,5c0.1,2.8,0.2,3.7,0.2,10.8c0,7.1,0,8-0.2,10.8c-0.1,2.6-0.6,4-0.9,5c-0.5,1.3-1.1,2.1-2,3.1
		c-0.9,0.9-1.8,1.5-3.1,2c-0.9,0.4-2.4,0.8-5,0.9c-2.8,0.1-3.7,0.2-10.8,0.2c-7.2,0-8,0-10.8-0.2c-2.6-0.1-4-0.6-5-0.9
		c-1.3-0.5-2.1-1.1-3.1-2c-0.9-0.9-1.5-1.8-2-3.1c-0.4-0.9-0.8-2.4-0.9-5c-0.1-2.8-0.2-3.7-0.2-10.8c0-7.2,0-8,0.2-10.8
		c0.1-2.6,0.6-4,0.9-5c0.5-1.2,1.1-2.1,2-3.1c0.9-0.9,1.8-1.5,3.1-2c0.9-0.4,2.4-0.8,5-0.9C319.1,83.1,320.1,83,325.1,83L325.1,83z
		 M327.5,78.2c-7.3,0-8.2,0-11,0.2c-2.9,0.1-4.8,0.6-6.5,1.2c-1.8,0.7-3.3,1.6-4.7,3.1c-1.5,1.5-2.4,3-3.1,4.7
		c-0.7,1.7-1.1,3.7-1.2,6.5c-0.1,2.9-0.2,3.8-0.2,11c0,7.3,0,8.2,0.2,11c0.1,2.9,0.6,4.8,1.2,6.5c0.7,1.8,1.6,3.3,3.1,4.7
		c1.5,1.5,3,2.4,4.7,3.1c1.7,0.7,3.7,1.1,6.5,1.2c2.9,0.1,3.8,0.2,11,0.2c7.3,0,8.2,0,11-0.2c2.9-0.1,4.8-0.6,6.5-1.2
		c1.8-0.7,3.3-1.6,4.7-3.1c1.5-1.5,2.4-3,3.1-4.7c0.7-1.7,1.1-3.7,1.2-6.5c0.1-2.9,0.2-3.8,0.2-11c0-7.3,0-8.2-0.2-11
		c-0.1-2.9-0.6-4.8-1.2-6.5c-0.7-1.8-1.6-3.3-3.1-4.7c-1.5-1.5-3-2.4-4.7-3.1c-1.7-0.7-3.7-1.1-6.5-1.2
		C335.7,78.2,334.8,78.2,327.5,78.2L327.5,78.2z"/>
	<path class="st2" d="M327.5,67.5c20.7,0,37.5,16.8,37.5,37.5c0,20.7-16.8,37.5-37.5,37.5c-20.7,0-37.5-16.8-37.5-37.5
		C290,84.3,306.8,67.5,327.5,67.5"/>
	<path class="st1" d="M466,93.7L466,93.7z M466,93.7c-0.5-1.1-1-1.1-1.5-1.1l-1.3,0c-0.4,0-1.2,0.2-1.8,0.8
		c-0.6,0.7-2.3,2.3-2.3,5.5c0,3.3,2.4,6.4,2.7,6.9c0.3,0.4,4.6,7.4,11.3,10c5.6,2.2,6.7,1.8,8,1.7c1.2-0.1,3.9-1.6,4.5-3.2
		c0.6-1.5,0.6-2.9,0.4-3.2c-0.2-0.3-0.6-0.4-1.3-0.8c-0.7-0.3-3.9-1.9-4.5-2.2c-0.6-0.2-1-0.3-1.5,0.3c-0.4,0.7-1.7,2.2-2.1,2.6
		c-0.4,0.4-0.8,0.5-1.4,0.2c-0.7-0.3-2.8-1-5.3-3.3c-2-1.8-3.3-3.9-3.7-4.6c-0.4-0.7,0-1,0.3-1.4c0.3-0.3,0.7-0.8,1-1.2
		c0.3-0.4,0.4-0.7,0.7-1.1c0.2-0.4,0.1-0.8-0.1-1.2C467.9,98.3,466.6,95,466,93.7 M472.6,82.7c-12.2,0-22.1,9.9-22.1,22.1
		c0,0,0,0,0,0c0,4.1,1.2,8.2,3.4,11.7l0.5,0.8l-2.2,8.1l8.4-2.2l0.8,0.5c3.4,2,7.3,3.1,11.2,3.1l0,0c12.2,0,22.1-9.9,22.1-22.1
		c0,0,0,0,0-0.1c0-5.8-2.3-11.4-6.5-15.5C484.1,85,478.5,82.7,472.6,82.7C472.7,82.7,472.6,82.7,472.6,82.7z M445.8,131.8l3.8-13.8
		c-2.3-4-3.5-8.6-3.5-13.2c0,0,0,0,0,0c0-14.6,11.9-26.5,26.6-26.5c7.1,0,13.8,2.8,18.8,7.8c5,5,7.8,11.7,7.8,18.8
		c0,14.6-11.9,26.5-26.6,26.5h0c-4.4,0-8.8-1.1-12.7-3.2L445.8,131.8z"/>
	<path class="st2" d="M472.5,67.5c20.7,0,37.5,16.8,37.5,37.5c0,20.7-16.8,37.5-37.5,37.5c-20.7,0-37.5-16.8-37.5-37.5
		C435,84.3,451.8,67.5,472.5,67.5"/>
	<path class="st4" d="M472.5,67.5c20.7,0,37.5,16.8,37.5,37.5c0,20.7-16.8,37.5-37.5,37.5c-20.7,0-37.5-16.8-37.5-37.5
		C435,84.3,451.8,67.5,472.5,67.5z"/>
	<path class="st4" d="M327.5,67.5c20.7,0,37.5,16.8,37.5,37.5c0,20.7-16.8,37.5-37.5,37.5c-20.7,0-37.5-16.8-37.5-37.5
		C290,84.3,306.8,67.5,327.5,67.5z"/>
	<path class="st4" d="M182.5,67.5c20.7,0,37.5,16.8,37.5,37.5c0,20.7-16.8,37.5-37.5,37.5c-20.7,0-37.5-16.8-37.5-37.5
		C145,84.3,161.8,67.5,182.5,67.5z"/>
	<path class="st4" d="M37.5,67.5C58.2,67.5,75,84.3,75,105c0,20.7-16.8,37.5-37.5,37.5C16.8,142.5,0,125.7,0,105
		C0,84.3,16.8,67.5,37.5,67.5z"/>
</g>
</svg>
