<?xml version="1.0" encoding="utf-8"?>
<!-- Generator: Adobe Illustrator 24.0.2, SVG Export Plug-In . SVG Version: 6.00 Build 0)  -->
<svg version="1.1" id="Capa_1" xmlns="http://www.w3.org/2000/svg" xmlns:xlink="http://www.w3.org/1999/xlink" x="0px" y="0px"
	 viewBox="0 0 48.8 20" style="enable-background:new 0 0 48.8 20;" xml:space="preserve">
<style type="text/css">
	.st0{opacity:0.5;fill-rule:evenodd;clip-rule:evenodd;enable-background:new    ;}
	.st1{fill:#FFFFFF;}
	.st2{fill-rule:evenodd;clip-rule:evenodd;fill:#FFFFFF;}
</style>
<g>
	<path class="st0" d="M48.8,0H0l9.6,11c1,0.9,2.2,1.5,3.5,1.5h35.7V0z"/>
	<path class="st1" d="M31.3,4.4c0.6,0,1,0.5,1,0.9c0,0.6-0.5,0.9-1,0.9s-1-0.5-1-0.9C30.3,4.8,30.8,4.4,31.3,4.4 M31.3,3.9
		c-0.8,0-1.6,0.6-1.6,1.5s0.6,1.5,1.6,1.5c0.8,0,1.6-0.6,1.6-1.5S32.2,3.9,31.3,3.9z M33,3.5c-0.2,0-0.4,0.2-0.4,0.4
		c0,0.2,0.2,0.4,0.4,0.4c0.2,0,0.4-0.2,0.4-0.4C33.4,3.6,33.2,3.5,33,3.5L33,3.5z M31.1,3c0.1,0,0.2,0,0.3,0c0.8,0,0.9,0,1.2,0
		c0.3,0,0.5,0.1,0.6,0.1c0.2,0.1,0.3,0.1,0.4,0.2c0.1,0.1,0.2,0.2,0.2,0.4c0,0.1,0.1,0.3,0.1,0.6s0,0.4,0,1.2s0,0.8,0,1.2
		c0,0.3-0.1,0.5-0.1,0.6c-0.1,0.1-0.1,0.2-0.2,0.4c-0.1,0.1-0.2,0.2-0.4,0.2c-0.1,0-0.3,0.1-0.6,0.1c-0.3,0-0.4,0-1.2,0
		c-0.8,0-0.9,0-1.2,0s-0.5-0.1-0.6-0.1c-0.2-0.1-0.3-0.1-0.4-0.2C29.1,7.4,29,7.4,29,7.2c0-0.1-0.1-0.3-0.1-0.6c0-0.3,0-0.4,0-1.2
		c0-0.7,0-0.8,0-1.2C28.9,4,29,3.8,29,3.7c0.1-0.1,0.1-0.2,0.2-0.4c0.1-0.1,0.2-0.2,0.4-0.2c0.1,0,0.3-0.1,0.6-0.1
		C30.4,3,30.5,3,31.1,3L31.1,3z M31.3,2.5c-0.8,0-0.9,0-1.2,0s-0.6,0.1-0.7,0.1c-0.2,0.1-0.4,0.2-0.6,0.4c-0.2,0.2-0.3,0.3-0.4,0.6
		c-0.1,0.2-0.1,0.4-0.2,0.7c0,0.3,0,0.4,0,1.2c0,0.7,0,0.9,0,1.2c0,0.3,0.1,0.6,0.2,0.7c0.1,0.2,0.2,0.4,0.4,0.6
		c0.2,0.2,0.4,0.3,0.6,0.4c0.2,0.1,0.4,0.1,0.7,0.1c0.3,0,0.5,0,1.2,0c0.8,0,0.9,0,1.2,0c0.3,0,0.6-0.1,0.7-0.1
		c0.2-0.1,0.4-0.2,0.6-0.4c0.2-0.2,0.3-0.3,0.4-0.6c0.1-0.3,0.1-0.6,0.2-0.8c0-0.3,0-0.4,0-1.2c0-0.7,0-0.9,0-1.2
		c-0.1-0.3-0.1-0.5-0.2-0.6c-0.1-0.2-0.2-0.4-0.4-0.6c-0.1-0.2-0.3-0.3-0.5-0.3c-0.2-0.1-0.4-0.1-0.7-0.1
		C32.3,2.5,32.2,2.5,31.3,2.5L31.3,2.5z"/>
	<path class="st1" d="M40.2,4.1L40.2,4.1z M40.2,4.1C40.1,4,40.1,4,40,4h-0.2c-0.1,0-0.1,0-0.2,0.1c-0.1,0.1-0.3,0.3-0.3,0.6
		c0,0.4,0.3,0.6,0.3,0.7s0.6,0.8,1.3,1.1c0.6,0.3,0.7,0.2,0.9,0.2c0.1,0,0.5-0.2,0.5-0.4c0.1-0.2,0.1-0.3,0-0.4c0,0-0.1-0.1-0.2-0.1
		c-0.1,0-0.5-0.2-0.6-0.3c-0.1,0-0.1,0-0.2,0c-0.1,0.1-0.2,0.3-0.3,0.3c0,0.1-0.1,0.1-0.2,0c-0.1,0-0.3-0.1-0.6-0.4
		C40.2,5.3,40,5.1,40,5.1C40,5,40,5,40,4.9l0.1-0.1l0.1-0.1c0-0.1,0-0.1,0-0.1C40.3,4.6,40.3,4.2,40.2,4.1 M40.9,2.9
		c-1.4,0-2.5,1.1-2.5,2.4l0,0c0,0.5,0.1,0.9,0.4,1.3l0.1,0l-0.3,0.8l0.9-0.3l0.1,0.2c0.4,0.2,0.8,0.4,1.3,0.4l0,0
		c1.4,0,2.5-1.1,2.5-2.4l0,0c0-0.6-0.3-1.2-0.7-1.7C42.2,3.2,41.5,2.9,40.9,2.9L40.9,2.9z M37.9,8.2l0.5-1.5C38,6.2,38,5.8,38,5.3
		l0,0c0-1.6,1.3-2.8,2.9-2.8c0.8,0,1.6,0.3,2.1,0.8s0.8,1.3,0.8,2c0,1.6-1.3,2.8-2.9,2.8l0,0c-0.5,0-1-0.1-1.4-0.4L37.9,8.2z"/>
	<path class="st2" d="M21.3,4.7c0-0.7,0.5-1.1,1.2-1.1c0.2,0,0.5,0,0.6,0.1v0.7h-0.4c-0.4,0-0.5,0.2-0.5,0.4v0.6h0.8l-0.1,0.8h-0.7
		v2l0,0l0,0c1.4-0.3,2.5-1.4,2.5-2.8c0-1.6-1.4-2.8-3-2.8s-3,1.3-3,2.8c0,1.4,1.1,2.6,2.5,2.8l0,0l0,0v-2h-0.7V5.3h0.7L21.3,4.7
		L21.3,4.7z"/>
	<path class="st1" d="M12.6,4C13,4,13.2,4.1,13.4,4.4c0.3,0.3,0.4,0.6,0.5,0.8c0,0.1,0.1,0.1,0.2,0.1l0,0c0.1,0,0.2-0.1,0.2-0.2
		c-0.1-0.4-0.3-0.7-0.6-1c-0.3-0.3-0.6-0.5-1.1-0.5c-0.1,0-0.2,0-0.2,0.1S12.5,4,12.6,4 M15.3,5.1c-0.1-0.6-0.5-1.2-0.9-1.7
		c-0.5-0.5-1.1-0.7-1.7-0.8c-0.1,0-0.2,0-0.2,0.1s0.1,0.2,0.2,0.2c0.6,0.1,1.1,0.4,1.6,0.7C14.6,4,14.9,4.6,15,5.1
		C15,5.2,15.1,5.2,15.3,5.1L15.3,5.1C15.3,5.3,15.3,5.2,15.3,5.1z M14.5,7.4L14.5,7.4c-0.1,0.1-0.1,0.1-0.2,0.2
		c-0.1,0.1-0.2,0.2-0.3,0.3C14,8,13.8,8.1,13.6,8.1c0,0,0,0-0.1,0c-0.4,0-0.7-0.2-1-0.3c-0.7-0.4-1.4-0.8-1.8-1.4
		C10.2,6,9.9,5.5,9.7,5C9.6,4.7,9.6,4.4,9.6,4.2C9.6,4,9.6,4,9.7,3.9l0.5-0.4c0.1-0.1,0.1-0.1,0.2-0.1s0.2,0.1,0.2,0.1l0,0
		c0.1,0.1,0.2,0.2,0.2,0.2l0.1,0.1L11.3,4c0.1,0.1,0.1,0.3,0,0.4l-0.1,0.1c-0.1,0.1-0.2,0.2-0.3,0.3l0,0c-0.1,0.1-0.1,0.2-0.1,0.3
		l0,0c0.1,0.3,0.2,0.5,0.5,0.6l0,0c0.4,0.4,0.7,0.7,1.1,1c0.1,0,0.1,0.1,0.2,0.1c0,0,0.1,0,0.1,0.1l0,0h0.1c0.1,0,0.2-0.1,0.2-0.1
		l0.5-0.4c0,0,0.1-0.1,0.2-0.1c0.1,0,0.2,0.1,0.2,0.1l0,0l0.7,0.6C14.6,7.2,14.6,7.4,14.5,7.4z M14.1,6.2C14,6.1,13.8,6,13.6,6
		c-0.2,0-0.3,0.1-0.5,0.2l-0.4,0.4c0,0-0.1,0-0.1-0.1c0,0-0.1,0-0.1-0.1c-0.4-0.2-0.7-0.6-1-0.9c-0.2-0.2-0.3-0.4-0.4-0.6
		c0.1-0.1,0.2-0.2,0.3-0.3l0.1-0.1c0.3-0.3,0.3-0.6,0-0.8l-0.4-0.4l-0.1-0.1C11,3.1,10.9,3,10.8,3c-0.1-0.1-0.3-0.2-0.5-0.2
		c-0.2,0-0.3,0.1-0.5,0.2l0,0L9.5,3.5c0,0.2-0.1,0.4-0.1,0.6c0,0.4,0.1,0.6,0.2,0.9c0.2,0.6,0.6,1,1,1.6c0.6,0.6,1.2,1.1,2,1.5
		c0.1,0.1,0.6,0.2,0.9,0.3h0.1c0.3,0,0.6-0.1,0.7-0.3l0,0c0.1-0.1,0.2-0.2,0.2-0.2c0.1-0.1,0.1-0.1,0.2-0.2c0.1-0.1,0.2-0.3,0.2-0.5
		c0-0.2-0.1-0.3-0.2-0.5L14.1,6.2z"/>
</g>
</svg>
